G75*
G70*
%OFA0B0*%
%FSLAX24Y24*%
%IPPOS*%
%LPD*%
%AMOC8*
5,1,8,0,0,1.08239X$1,22.5*
%
%ADD10C,0.0000*%
%ADD11R,0.0236X0.0236*%
%ADD12R,0.0472X0.0709*%
%ADD13C,0.0600*%
%ADD14R,0.0394X0.0551*%
%ADD15R,0.0236X0.0197*%
%ADD16C,0.0594*%
%ADD17R,0.0197X0.0236*%
%ADD18R,0.0866X0.0236*%
%ADD19R,0.0709X0.0472*%
%ADD20C,0.0660*%
%ADD21R,0.1181X0.1181*%
%ADD22C,0.0110*%
%ADD23R,0.0354X0.0315*%
%ADD24R,0.0591X0.0374*%
%ADD25C,0.0669*%
%ADD26R,0.0551X0.0394*%
%ADD27OC8,0.0850*%
%ADD28C,0.1000*%
%ADD29C,0.0080*%
%ADD30C,0.0277*%
%ADD31C,0.0098*%
%ADD32C,0.2762*%
%ADD33C,0.1384*%
%ADD34C,0.0400*%
%ADD35C,0.0472*%
%ADD36C,0.0197*%
%ADD37C,0.0356*%
%ADD38C,0.0236*%
%ADD39C,0.0394*%
%ADD40C,0.0157*%
%ADD41C,0.0709*%
D10*
X000219Y000139D02*
X000219Y026517D01*
X013801Y026517D01*
X013801Y000139D01*
X000219Y000139D01*
D11*
X005494Y005454D03*
X005494Y005927D03*
X006085Y005769D03*
X006085Y005297D03*
X006046Y003722D03*
X006046Y003250D03*
X006046Y002698D03*
X005573Y002698D03*
X006518Y003250D03*
X006518Y003722D03*
X008841Y003722D03*
X008841Y003250D03*
X008841Y002777D03*
X009313Y002777D03*
X009313Y003250D03*
X009313Y003722D03*
X009746Y006754D03*
X009746Y007226D03*
X010612Y009273D03*
X011085Y009273D03*
X009668Y011321D03*
X009668Y011793D03*
X008211Y019667D03*
X007738Y019667D03*
X007778Y021439D03*
X008250Y021439D03*
X008211Y022580D03*
X008211Y023053D03*
X008565Y023919D03*
X008565Y024391D03*
X008053Y025021D03*
X008053Y025494D03*
X010691Y020572D03*
X010691Y020100D03*
X012699Y022502D03*
X012699Y023013D03*
X012935Y023565D03*
X012935Y024037D03*
X013171Y023013D03*
X013171Y022502D03*
D12*
X006400Y022620D03*
X005219Y022620D03*
D13*
X012753Y016206D02*
X013353Y016206D01*
X013353Y015206D02*
X012753Y015206D01*
X012753Y014206D02*
X013353Y014206D01*
X013353Y013206D02*
X012753Y013206D01*
X012753Y012072D02*
X013353Y012072D01*
X013353Y011072D02*
X012753Y011072D01*
X012753Y010072D02*
X013353Y010072D01*
X013353Y009072D02*
X012753Y009072D01*
X012753Y007939D02*
X013353Y007939D01*
X013353Y006939D02*
X012753Y006939D01*
X012753Y005939D02*
X013353Y005939D01*
X013353Y004939D02*
X012753Y004939D01*
D14*
X010081Y016793D03*
X009707Y017659D03*
X010081Y018446D03*
X009707Y019313D03*
X009333Y018446D03*
X009333Y016793D03*
X009707Y020691D03*
X010081Y021557D03*
X009333Y021557D03*
X006853Y018210D03*
X006479Y017344D03*
X006105Y018210D03*
D15*
X004471Y018328D03*
X004471Y018722D03*
X005061Y012187D03*
X005061Y011793D03*
X003880Y010651D03*
X003880Y010258D03*
X006242Y007777D03*
X006242Y007384D03*
X006380Y009490D03*
X006380Y009884D03*
X006046Y002265D03*
X006046Y001872D03*
X008841Y001911D03*
X008841Y002305D03*
X011833Y016084D03*
X011833Y016478D03*
X013053Y017108D03*
X013053Y017502D03*
X013171Y021596D03*
X013171Y021990D03*
X012935Y024588D03*
X012935Y024982D03*
X008723Y022974D03*
X008723Y022580D03*
X008801Y020100D03*
X008801Y019706D03*
X008565Y025061D03*
X008565Y025454D03*
D16*
X012205Y019970D02*
X012799Y019970D01*
X012799Y018970D02*
X012205Y018970D01*
X008002Y001775D02*
X008002Y001181D01*
X007002Y001181D02*
X007002Y001775D01*
D17*
X007581Y008092D03*
X007975Y008092D03*
X010219Y008761D03*
X010612Y008761D03*
X005416Y017344D03*
X005022Y017344D03*
X007817Y020179D03*
X008211Y020179D03*
X008250Y020927D03*
X008644Y020927D03*
X004786Y011321D03*
X004392Y011321D03*
X004471Y010258D03*
X004864Y010258D03*
X003998Y008604D03*
X003605Y008604D03*
D18*
X009707Y022498D03*
X009707Y022998D03*
X009707Y023498D03*
X009707Y023998D03*
X009707Y024498D03*
X009707Y024998D03*
X009707Y025498D03*
X011754Y025498D03*
X011754Y024998D03*
X011754Y024498D03*
X011754Y023998D03*
X011754Y023498D03*
X011754Y022998D03*
X011754Y022498D03*
D19*
X005888Y024234D03*
X005888Y025415D03*
D20*
X003841Y024509D03*
X001872Y024509D03*
X002187Y020612D03*
X004156Y020612D03*
D21*
X007896Y006557D03*
D22*
X007994Y007401D02*
X007994Y007563D01*
X008191Y007563D02*
X008191Y007401D01*
X008388Y007401D02*
X008388Y007563D01*
X008585Y007563D02*
X008585Y007401D01*
X008740Y007246D02*
X008902Y007246D01*
X008902Y007049D02*
X008740Y007049D01*
X008740Y006852D02*
X008902Y006852D01*
X008902Y006655D02*
X008740Y006655D01*
X008740Y006458D02*
X008902Y006458D01*
X008902Y006261D02*
X008740Y006261D01*
X008740Y006065D02*
X008902Y006065D01*
X008902Y005868D02*
X008740Y005868D01*
X008585Y005713D02*
X008585Y005551D01*
X008388Y005551D02*
X008388Y005713D01*
X008191Y005713D02*
X008191Y005551D01*
X007994Y005551D02*
X007994Y005713D01*
X007797Y005713D02*
X007797Y005551D01*
X007601Y005551D02*
X007601Y005713D01*
X007404Y005713D02*
X007404Y005551D01*
X007207Y005551D02*
X007207Y005713D01*
X007052Y005868D02*
X006890Y005868D01*
X006890Y006065D02*
X007052Y006065D01*
X007052Y006261D02*
X006890Y006261D01*
X006890Y006458D02*
X007052Y006458D01*
X007052Y006655D02*
X006890Y006655D01*
X006890Y006852D02*
X007052Y006852D01*
X007052Y007049D02*
X006890Y007049D01*
X006890Y007246D02*
X007052Y007246D01*
X007207Y007401D02*
X007207Y007563D01*
X007404Y007563D02*
X007404Y007401D01*
X007601Y007401D02*
X007601Y007563D01*
X007797Y007563D02*
X007797Y007401D01*
D23*
X008093Y004411D03*
X008093Y003742D03*
X007384Y003742D03*
X007384Y004411D03*
D24*
X011046Y007482D03*
X011046Y008230D03*
D25*
X001400Y008407D03*
X001400Y009588D03*
X001400Y010769D03*
X001400Y011950D03*
X001400Y013132D03*
X001400Y014313D03*
X001400Y015494D03*
X001400Y016675D03*
X001400Y017856D03*
X001400Y019037D03*
D26*
X005927Y011793D03*
X006794Y012167D03*
X006794Y011419D03*
X005691Y009490D03*
X005691Y008742D03*
X004825Y009116D03*
D27*
X011242Y003525D03*
X011242Y001557D03*
D28*
X004396Y001206D03*
X004396Y005616D03*
X004396Y007206D03*
X001396Y006206D03*
X001396Y001206D03*
D29*
X001682Y000610D02*
X004110Y000610D01*
X004022Y000647D02*
X004265Y000546D01*
X004527Y000546D01*
X004770Y000647D01*
X004955Y000832D01*
X005056Y001075D01*
X005056Y001338D01*
X004955Y001580D01*
X004770Y001766D01*
X004686Y001801D01*
X004686Y002344D01*
X004643Y002447D01*
X004565Y002525D01*
X003371Y003719D01*
X003371Y008286D01*
X003553Y008286D01*
X003592Y008326D01*
X003656Y008326D01*
X003696Y008286D01*
X003907Y008286D01*
X003946Y008326D01*
X004163Y008326D01*
X004187Y008349D01*
X004293Y008305D01*
X004412Y008305D01*
X004522Y008351D01*
X004606Y008435D01*
X004651Y008545D01*
X004651Y008663D01*
X004612Y008759D01*
X005167Y008759D01*
X005261Y008853D01*
X006012Y008853D01*
X005964Y008805D02*
X005964Y008569D01*
X005923Y008528D01*
X005333Y008528D01*
X005018Y008213D01*
X004901Y008096D01*
X004901Y007635D01*
X004770Y007766D01*
X004527Y007866D01*
X004265Y007866D01*
X004022Y007766D01*
X003836Y007580D01*
X003736Y007338D01*
X003736Y007075D01*
X003836Y006832D01*
X004022Y006647D01*
X004265Y006546D01*
X004527Y006546D01*
X004770Y006647D01*
X004901Y006778D01*
X004901Y006044D01*
X004770Y006175D01*
X004527Y006276D01*
X004265Y006276D01*
X004022Y006175D01*
X003836Y005990D01*
X003736Y005747D01*
X003736Y005485D01*
X003836Y005242D01*
X004022Y005056D01*
X004265Y004956D01*
X004527Y004956D01*
X004770Y005056D01*
X004901Y005187D01*
X004901Y004829D01*
X004368Y004296D01*
X004293Y004296D01*
X004183Y004251D01*
X004099Y004167D01*
X004054Y004057D01*
X004054Y003938D01*
X004099Y003828D01*
X004183Y003744D01*
X004293Y003699D01*
X004412Y003699D01*
X004522Y003744D01*
X004606Y003828D01*
X004651Y003938D01*
X004651Y004014D01*
X005301Y004663D01*
X005301Y005658D01*
X005310Y005649D01*
X005679Y005649D01*
X005772Y005742D01*
X005772Y006111D01*
X005694Y006189D01*
X005694Y006807D01*
X005708Y006821D01*
X005754Y006930D01*
X005754Y007038D01*
X005845Y006947D01*
X006234Y006947D01*
X006219Y006911D01*
X006219Y006793D01*
X006265Y006683D01*
X006322Y006626D01*
X006304Y006608D01*
X006259Y006498D01*
X006259Y006379D01*
X006304Y006269D01*
X006388Y006185D01*
X006498Y006140D01*
X006617Y006140D01*
X006681Y006166D01*
X006783Y006065D01*
X006766Y006048D01*
X006593Y006048D01*
X006475Y005931D01*
X006363Y005818D01*
X006363Y005936D01*
X006384Y005985D01*
X006384Y006104D01*
X006338Y006214D01*
X006254Y006298D01*
X006144Y006344D01*
X006025Y006344D01*
X005916Y006298D01*
X005832Y006214D01*
X005786Y006104D01*
X005786Y005985D01*
X005807Y005936D01*
X005807Y005585D01*
X005900Y005491D01*
X006269Y005491D01*
X006318Y005540D01*
X006318Y005480D01*
X006265Y005427D01*
X006219Y005317D01*
X006219Y005198D01*
X006265Y005088D01*
X006349Y005004D01*
X006459Y004959D01*
X006577Y004959D01*
X006687Y005004D01*
X006771Y005088D01*
X006817Y005198D01*
X006817Y005274D01*
X006892Y005274D01*
X007002Y005319D01*
X007055Y005372D01*
X007081Y005372D01*
X007118Y005336D01*
X007127Y005336D01*
X007111Y005320D01*
X007049Y005320D01*
X006939Y005275D01*
X006855Y005191D01*
X006810Y005081D01*
X006810Y004962D01*
X006855Y004852D01*
X006939Y004768D01*
X007049Y004723D01*
X007135Y004723D01*
X007047Y004635D01*
X007047Y004187D01*
X007141Y004094D01*
X007628Y004094D01*
X007721Y004187D01*
X007721Y004635D01*
X007628Y004729D01*
X007584Y004729D01*
X007584Y004820D01*
X007674Y004910D01*
X007682Y004891D01*
X007766Y004807D01*
X007876Y004762D01*
X007893Y004762D01*
X007893Y004729D01*
X007849Y004729D01*
X007756Y004635D01*
X007756Y004187D01*
X007849Y004094D01*
X008336Y004094D01*
X008430Y004187D01*
X008430Y004635D01*
X008367Y004698D01*
X008490Y004820D01*
X008490Y005262D01*
X008391Y005360D01*
X008391Y005447D01*
X008406Y005462D01*
X008406Y005801D01*
X008280Y005927D01*
X008102Y005927D01*
X008093Y005918D01*
X008083Y005927D01*
X007905Y005927D01*
X007896Y005918D01*
X007887Y005927D01*
X007708Y005927D01*
X007601Y005820D01*
X007493Y005927D01*
X007315Y005927D01*
X007305Y005918D01*
X007296Y005927D01*
X007267Y005927D01*
X007267Y005957D01*
X007159Y006065D01*
X007267Y006172D01*
X007267Y006351D01*
X007257Y006360D01*
X007267Y006369D01*
X007267Y006547D01*
X007257Y006557D01*
X007267Y006566D01*
X007267Y006744D01*
X007257Y006754D01*
X007267Y006763D01*
X007267Y006941D01*
X007257Y006950D01*
X007267Y006960D01*
X007267Y007138D01*
X007257Y007147D01*
X007267Y007157D01*
X007267Y007186D01*
X007296Y007186D01*
X007305Y007195D01*
X007315Y007186D01*
X007493Y007186D01*
X007502Y007195D01*
X007512Y007186D01*
X007690Y007186D01*
X007816Y007312D01*
X007816Y007652D01*
X007693Y007775D01*
X007923Y007775D01*
X007962Y007814D01*
X008139Y007814D01*
X008212Y007887D01*
X008243Y007856D01*
X008188Y007801D01*
X008188Y007667D01*
X008173Y007652D01*
X008173Y007312D01*
X008299Y007186D01*
X008477Y007186D01*
X008525Y007234D01*
X008525Y007157D01*
X008535Y007147D01*
X008525Y007138D01*
X008525Y006960D01*
X008535Y006950D01*
X008525Y006941D01*
X008525Y006763D01*
X008651Y006637D01*
X008991Y006637D01*
X008999Y006645D01*
X009065Y006579D01*
X009175Y006534D01*
X009294Y006534D01*
X009404Y006579D01*
X009488Y006663D01*
X009533Y006773D01*
X009533Y006892D01*
X009513Y006942D01*
X009513Y006953D01*
X009527Y006968D01*
X009542Y006968D01*
X009562Y006948D01*
X009913Y006948D01*
X009962Y006927D01*
X010081Y006927D01*
X010191Y006973D01*
X010275Y007057D01*
X010321Y007167D01*
X010321Y007285D01*
X010275Y007395D01*
X010191Y007479D01*
X010081Y007525D01*
X010024Y007525D01*
X010024Y008095D01*
X010373Y008444D01*
X010521Y008444D01*
X010561Y008483D01*
X010590Y008483D01*
X010590Y007977D01*
X010684Y007883D01*
X011407Y007883D01*
X011501Y007977D01*
X011501Y008483D01*
X011407Y008577D01*
X011304Y008577D01*
X011304Y008636D01*
X011265Y008731D01*
X011182Y008814D01*
X011141Y008911D01*
X011057Y008995D01*
X010947Y009041D01*
X010871Y009041D01*
X010871Y009069D01*
X010891Y009089D01*
X010891Y009458D01*
X010797Y009551D01*
X010652Y009551D01*
X010694Y009651D01*
X010694Y009703D01*
X010702Y009712D01*
X010754Y009836D01*
X010754Y009970D01*
X010702Y010095D01*
X010607Y010190D01*
X010483Y010241D01*
X010348Y010241D01*
X010339Y010238D01*
X010339Y010372D01*
X011120Y010372D01*
X012027Y009466D01*
X012027Y007348D01*
X011140Y006461D01*
X009006Y006461D01*
X008991Y006477D01*
X008651Y006477D01*
X008525Y006351D01*
X008525Y006172D01*
X008535Y006163D01*
X008525Y006154D01*
X008525Y005975D01*
X008535Y005966D01*
X008525Y005957D01*
X008525Y005779D01*
X008651Y005653D01*
X008991Y005653D01*
X009117Y005779D01*
X009117Y005957D01*
X009108Y005966D01*
X009117Y005975D01*
X009117Y006061D01*
X011306Y006061D01*
X012307Y007063D01*
X012293Y007030D01*
X012293Y006847D01*
X012363Y006678D01*
X012493Y006549D01*
X012662Y006479D01*
X013445Y006479D01*
X013614Y006549D01*
X013641Y006576D01*
X013641Y006301D01*
X013614Y006329D01*
X013445Y006399D01*
X012662Y006399D01*
X012493Y006329D01*
X012363Y006199D01*
X012293Y006030D01*
X012293Y005847D01*
X012363Y005678D01*
X012493Y005549D01*
X012662Y005479D01*
X013445Y005479D01*
X013614Y005549D01*
X013641Y005576D01*
X013641Y000299D01*
X000379Y000299D01*
X000379Y026357D01*
X013641Y026357D01*
X013641Y015569D01*
X013614Y015596D01*
X013445Y015666D01*
X012662Y015666D01*
X012493Y015596D01*
X012466Y015569D01*
X012466Y016749D01*
X012624Y016908D01*
X012811Y016908D01*
X012869Y016849D01*
X013238Y016849D01*
X013331Y016943D01*
X013331Y017160D01*
X013371Y017199D01*
X013371Y017410D01*
X013331Y017450D01*
X013331Y017666D01*
X013238Y017760D01*
X012869Y017760D01*
X012827Y017718D01*
X012790Y017755D01*
X012680Y017800D01*
X012561Y017800D01*
X012451Y017755D01*
X012367Y017671D01*
X012322Y017561D01*
X012322Y017442D01*
X012367Y017332D01*
X012425Y017274D01*
X012379Y017229D01*
X011845Y017229D01*
X011787Y017170D01*
X011773Y017170D01*
X011664Y017125D01*
X011580Y017041D01*
X011534Y016931D01*
X011534Y016812D01*
X011580Y016702D01*
X011597Y016685D01*
X011555Y016643D01*
X011555Y016426D01*
X011515Y016387D01*
X011515Y016175D01*
X011555Y016136D01*
X011555Y015920D01*
X011633Y015841D01*
X011633Y014356D01*
X010628Y013352D01*
X010553Y013352D01*
X010443Y013306D01*
X010359Y013222D01*
X010314Y013112D01*
X010314Y012997D01*
X010238Y012997D01*
X010128Y012952D01*
X010075Y012898D01*
X009869Y012898D01*
X008608Y014159D01*
X008608Y015450D01*
X009199Y016042D01*
X010617Y016042D01*
X010734Y016159D01*
X010892Y016317D01*
X010892Y016317D01*
X011009Y016435D01*
X011009Y017104D01*
X011718Y017812D01*
X011718Y021177D01*
X011771Y021230D01*
X011817Y021340D01*
X011817Y021459D01*
X011771Y021568D01*
X011687Y021653D01*
X011577Y021698D01*
X011459Y021698D01*
X011349Y021653D01*
X011265Y021568D01*
X011219Y021459D01*
X011219Y021340D01*
X011265Y021230D01*
X011318Y021177D01*
X011318Y019709D01*
X010981Y019709D01*
X010944Y019797D01*
X010897Y019844D01*
X010969Y019916D01*
X010969Y020152D01*
X011009Y020191D01*
X011009Y020481D01*
X010969Y020521D01*
X010969Y020757D01*
X010891Y020835D01*
X010891Y023954D01*
X011206Y024269D01*
X011255Y024220D01*
X012254Y024220D01*
X012347Y024313D01*
X012347Y024682D01*
X012326Y024703D01*
X012444Y024703D01*
X012553Y024748D01*
X012637Y024832D01*
X012657Y024880D01*
X012657Y024817D01*
X012689Y024785D01*
X012657Y024753D01*
X012657Y024424D01*
X012735Y024345D01*
X012735Y024300D01*
X012673Y024237D01*
X012616Y024237D01*
X012419Y024040D01*
X012302Y023923D01*
X012302Y023766D01*
X012283Y023746D01*
X012254Y023776D01*
X011255Y023776D01*
X011161Y023682D01*
X011161Y023313D01*
X011227Y023248D01*
X011161Y023182D01*
X011161Y022813D01*
X011227Y022748D01*
X011161Y022682D01*
X011161Y022313D01*
X011255Y022220D01*
X012254Y022220D01*
X012263Y022229D01*
X012325Y022203D01*
X012444Y022203D01*
X012508Y022230D01*
X012515Y022224D01*
X012883Y022224D01*
X012935Y022275D01*
X012971Y022239D01*
X012971Y022233D01*
X012893Y022155D01*
X012893Y021825D01*
X012987Y021731D01*
X013356Y021731D01*
X013450Y021825D01*
X013450Y022155D01*
X013371Y022233D01*
X013371Y022239D01*
X013450Y022317D01*
X013450Y022686D01*
X013378Y022758D01*
X013450Y022829D01*
X013450Y023198D01*
X013356Y023292D01*
X012987Y023292D01*
X012935Y023240D01*
X012883Y023292D01*
X012515Y023292D01*
X012494Y023271D01*
X012444Y023292D01*
X012326Y023292D01*
X012340Y023306D01*
X012408Y023306D01*
X012525Y023423D01*
X012702Y023600D01*
X012702Y023757D01*
X012727Y023782D01*
X012751Y023759D01*
X013120Y023759D01*
X013213Y023853D01*
X013213Y024221D01*
X013135Y024300D01*
X013135Y024345D01*
X013213Y024424D01*
X013213Y024753D01*
X013181Y024785D01*
X013213Y024817D01*
X013213Y025147D01*
X013136Y025224D01*
X013136Y025337D01*
X013090Y025446D01*
X013006Y025530D01*
X012896Y025576D01*
X012777Y025576D01*
X012683Y025537D01*
X012683Y025553D01*
X012637Y025663D01*
X012553Y025747D01*
X012444Y025792D01*
X012325Y025792D01*
X012263Y025767D01*
X012254Y025776D01*
X011255Y025776D01*
X011161Y025682D01*
X011161Y025313D01*
X011227Y025248D01*
X011161Y025182D01*
X011161Y024813D01*
X011227Y024748D01*
X011177Y024698D01*
X011069Y024698D01*
X010714Y024343D01*
X010714Y024411D01*
X010669Y024521D01*
X010585Y024605D01*
X010475Y024651D01*
X010400Y024651D01*
X010353Y024698D01*
X010284Y024698D01*
X010234Y024748D01*
X010300Y024813D01*
X010300Y025182D01*
X010234Y025248D01*
X010300Y025313D01*
X010300Y025682D01*
X010206Y025776D01*
X009984Y025776D01*
X010006Y025828D01*
X010006Y025947D01*
X009960Y026057D01*
X009876Y026141D01*
X009766Y026186D01*
X009648Y026186D01*
X009538Y026141D01*
X009454Y026057D01*
X009408Y025947D01*
X009408Y025828D01*
X009430Y025776D01*
X009208Y025776D01*
X009114Y025682D01*
X009114Y025313D01*
X009127Y025300D01*
X009037Y025300D01*
X008941Y025261D01*
X008814Y025261D01*
X008843Y025290D01*
X008843Y025619D01*
X008750Y025713D01*
X008381Y025713D01*
X008362Y025694D01*
X008316Y025694D01*
X008238Y025772D01*
X007869Y025772D01*
X007775Y025678D01*
X007775Y025309D01*
X007869Y025216D01*
X008238Y025216D01*
X008277Y025254D01*
X008316Y025254D01*
X008287Y025225D01*
X008287Y024896D01*
X008381Y024802D01*
X008750Y024802D01*
X008808Y024861D01*
X008829Y024861D01*
X008835Y024854D01*
X008843Y024832D01*
X008927Y024748D01*
X009037Y024703D01*
X009135Y024703D01*
X009114Y024682D01*
X009114Y024313D01*
X009151Y024276D01*
X008943Y024276D01*
X008841Y024233D01*
X008804Y024197D01*
X006647Y024197D01*
X006597Y024218D01*
X006478Y024218D01*
X006368Y024172D01*
X006284Y024088D01*
X006239Y023978D01*
X006239Y023860D01*
X006284Y023750D01*
X006368Y023666D01*
X006478Y023620D01*
X006597Y023620D01*
X006647Y023641D01*
X008975Y023641D01*
X009074Y023682D01*
X009074Y023616D01*
X009114Y023577D01*
X009114Y023434D01*
X009074Y023395D01*
X009074Y023273D01*
X009018Y023273D01*
X008911Y023229D01*
X008907Y023232D01*
X008538Y023232D01*
X008445Y023139D01*
X008445Y022922D01*
X008405Y022883D01*
X008405Y022849D01*
X008395Y022858D01*
X008026Y022858D01*
X008017Y022849D01*
X008017Y023140D01*
X008446Y023140D01*
X008445Y023061D02*
X008017Y023061D01*
X008017Y022983D02*
X008445Y022983D01*
X008427Y022904D02*
X008017Y022904D01*
X008017Y023140D02*
X008037Y023190D01*
X008037Y023309D01*
X007992Y023419D01*
X007908Y023503D01*
X007798Y023548D01*
X007679Y023548D01*
X007569Y023503D01*
X007485Y023419D01*
X007440Y023309D01*
X007440Y023190D01*
X007460Y023140D01*
X000379Y023140D01*
X000379Y023218D02*
X007440Y023218D01*
X007440Y023297D02*
X000379Y023297D01*
X000379Y023375D02*
X007467Y023375D01*
X007520Y023454D02*
X000379Y023454D01*
X000379Y023532D02*
X007641Y023532D01*
X007836Y023532D02*
X009114Y023532D01*
X009114Y023454D02*
X007957Y023454D01*
X008010Y023375D02*
X009074Y023375D01*
X009074Y023297D02*
X008037Y023297D01*
X008037Y023218D02*
X008524Y023218D01*
X008723Y022974D02*
X009077Y022974D01*
X009683Y022974D01*
X009707Y022998D01*
X009707Y023498D02*
X010561Y023498D01*
X010691Y023368D01*
X010691Y024037D01*
X011152Y024498D01*
X011754Y024498D01*
X011754Y024998D02*
X011758Y025002D01*
X012384Y025002D01*
X012593Y024788D02*
X012686Y024788D01*
X012657Y024710D02*
X012461Y024710D01*
X012347Y024631D02*
X012657Y024631D01*
X012657Y024553D02*
X012347Y024553D01*
X012347Y024474D02*
X012657Y024474D01*
X012685Y024396D02*
X012347Y024396D01*
X012347Y024317D02*
X012735Y024317D01*
X012675Y024239D02*
X012273Y024239D01*
X012461Y024082D02*
X011019Y024082D01*
X011097Y024160D02*
X012540Y024160D01*
X012699Y024037D02*
X012502Y023840D01*
X012502Y023683D01*
X012325Y023506D01*
X011762Y023506D01*
X011754Y023498D01*
X011754Y022998D02*
X011758Y022994D01*
X012384Y022994D01*
X012404Y023013D01*
X012699Y023013D01*
X012556Y023454D02*
X013641Y023454D01*
X013641Y023532D02*
X012635Y023532D01*
X012702Y023611D02*
X013641Y023611D01*
X013641Y023689D02*
X012702Y023689D01*
X012713Y023768D02*
X012742Y023768D01*
X012699Y024037D02*
X012935Y024037D01*
X012935Y024588D01*
X012657Y024867D02*
X012652Y024867D01*
X012935Y024982D02*
X012935Y025179D01*
X012837Y025277D01*
X013042Y025495D02*
X013641Y025495D01*
X013641Y025573D02*
X012902Y025573D01*
X012772Y025573D02*
X012674Y025573D01*
X012642Y025652D02*
X013641Y025652D01*
X013641Y025730D02*
X012570Y025730D01*
X012384Y025494D02*
X011758Y025494D01*
X011754Y025498D01*
X011215Y025259D02*
X010246Y025259D01*
X010300Y025181D02*
X011161Y025181D01*
X011161Y025102D02*
X010300Y025102D01*
X010300Y025024D02*
X011161Y025024D01*
X011161Y024945D02*
X010300Y024945D01*
X010300Y024867D02*
X011161Y024867D01*
X011186Y024788D02*
X010275Y024788D01*
X010272Y024710D02*
X011189Y024710D01*
X011003Y024631D02*
X010522Y024631D01*
X010637Y024553D02*
X010924Y024553D01*
X010846Y024474D02*
X010688Y024474D01*
X010714Y024396D02*
X010767Y024396D01*
X010416Y024352D02*
X010270Y024498D01*
X009707Y024498D01*
X009707Y024998D02*
X009683Y025021D01*
X008959Y025021D01*
X009097Y025002D01*
X008959Y025021D02*
X008920Y025061D01*
X008565Y025061D01*
X008287Y025024D02*
X006924Y025024D01*
X006900Y025000D02*
X007011Y025112D01*
X007072Y025257D01*
X007072Y025415D01*
X007011Y025561D01*
X006900Y025672D01*
X006812Y025708D01*
X006801Y025720D01*
X006668Y025775D01*
X006345Y025775D01*
X006309Y025811D01*
X005467Y025811D01*
X005374Y025717D01*
X005374Y025113D01*
X005467Y025019D01*
X006309Y025019D01*
X006345Y025055D01*
X006396Y025055D01*
X006451Y025000D01*
X006597Y024940D01*
X006754Y024940D01*
X006900Y025000D01*
X006767Y024945D02*
X008287Y024945D01*
X008316Y024867D02*
X004176Y024867D01*
X004118Y024925D02*
X004256Y024787D01*
X004331Y024607D01*
X004331Y024412D01*
X004256Y024232D01*
X004118Y024094D01*
X003938Y024019D01*
X003743Y024019D01*
X003563Y024094D01*
X003425Y024232D01*
X003351Y024412D01*
X003351Y024607D01*
X003425Y024787D01*
X003563Y024925D01*
X003743Y024999D01*
X003938Y024999D01*
X004118Y024925D01*
X004069Y024945D02*
X006583Y024945D01*
X006427Y025024D02*
X006314Y025024D01*
X006311Y025809D02*
X009416Y025809D01*
X009408Y025887D02*
X000379Y025887D01*
X000379Y025809D02*
X005465Y025809D01*
X005387Y025730D02*
X000379Y025730D01*
X000379Y025652D02*
X005374Y025652D01*
X005374Y025573D02*
X000379Y025573D01*
X000379Y025495D02*
X005374Y025495D01*
X005374Y025416D02*
X000379Y025416D01*
X000379Y025338D02*
X005374Y025338D01*
X005374Y025259D02*
X000379Y025259D01*
X000379Y025181D02*
X005374Y025181D01*
X005384Y025102D02*
X000379Y025102D01*
X000379Y025024D02*
X005462Y025024D01*
X006249Y024003D02*
X000379Y024003D01*
X000379Y023925D02*
X006239Y023925D01*
X006244Y023846D02*
X000379Y023846D01*
X000379Y023768D02*
X006277Y023768D01*
X006345Y023689D02*
X000379Y023689D01*
X000379Y023611D02*
X009080Y023611D01*
X008854Y024239D02*
X004259Y024239D01*
X004292Y024317D02*
X009114Y024317D01*
X009114Y024396D02*
X004324Y024396D01*
X004331Y024474D02*
X009114Y024474D01*
X009114Y024553D02*
X004331Y024553D01*
X004321Y024631D02*
X009114Y024631D01*
X009020Y024710D02*
X004288Y024710D01*
X004255Y024788D02*
X008887Y024788D01*
X008843Y025338D02*
X009114Y025338D01*
X009114Y025416D02*
X008843Y025416D01*
X008843Y025495D02*
X009114Y025495D01*
X009114Y025573D02*
X008843Y025573D01*
X008810Y025652D02*
X009114Y025652D01*
X009162Y025730D02*
X008279Y025730D01*
X008290Y025494D02*
X008329Y025454D01*
X008565Y025454D01*
X008290Y025494D02*
X008053Y025494D01*
X007828Y025730D02*
X006776Y025730D01*
X006920Y025652D02*
X007775Y025652D01*
X007775Y025573D02*
X006999Y025573D01*
X007039Y025495D02*
X007775Y025495D01*
X007775Y025416D02*
X007071Y025416D01*
X007072Y025338D02*
X007775Y025338D01*
X007825Y025259D02*
X007072Y025259D01*
X007040Y025181D02*
X008287Y025181D01*
X008287Y025102D02*
X007002Y025102D01*
X006357Y024160D02*
X004185Y024160D01*
X004089Y024082D02*
X006282Y024082D01*
X006097Y023134D02*
X006004Y023040D01*
X006004Y022199D01*
X006097Y022105D01*
X006702Y022105D01*
X006713Y022116D01*
X006833Y022066D01*
X006990Y022066D01*
X007136Y022126D01*
X007248Y022238D01*
X007308Y022383D01*
X007308Y022541D01*
X007248Y022687D01*
X007136Y022798D01*
X007049Y022834D01*
X006958Y022925D01*
X006826Y022980D01*
X006796Y022980D01*
X006796Y023040D01*
X006702Y023134D01*
X006097Y023134D01*
X006025Y023061D02*
X000379Y023061D01*
X000379Y022983D02*
X006004Y022983D01*
X006004Y022904D02*
X000379Y022904D01*
X000379Y022826D02*
X006004Y022826D01*
X006004Y022747D02*
X000379Y022747D01*
X000379Y022669D02*
X006004Y022669D01*
X006004Y022590D02*
X000379Y022590D01*
X000379Y022512D02*
X006004Y022512D01*
X006004Y022433D02*
X000379Y022433D01*
X000379Y022355D02*
X006004Y022355D01*
X006004Y022276D02*
X000379Y022276D01*
X000379Y022198D02*
X006005Y022198D01*
X006083Y022119D02*
X000379Y022119D01*
X000379Y022041D02*
X007570Y022041D01*
X007503Y022108D02*
X007460Y022210D01*
X007460Y023140D01*
X007460Y023061D02*
X006775Y023061D01*
X006796Y022983D02*
X007460Y022983D01*
X007460Y022904D02*
X006979Y022904D01*
X007069Y022826D02*
X007460Y022826D01*
X007460Y022747D02*
X007187Y022747D01*
X007255Y022669D02*
X007460Y022669D01*
X007460Y022590D02*
X007287Y022590D01*
X007308Y022512D02*
X007460Y022512D01*
X007460Y022433D02*
X007308Y022433D01*
X007296Y022355D02*
X007460Y022355D01*
X007460Y022276D02*
X007264Y022276D01*
X007208Y022198D02*
X007465Y022198D01*
X007498Y022119D02*
X007120Y022119D01*
X007503Y022108D02*
X007972Y021638D01*
X007972Y021254D01*
X007992Y021235D01*
X007992Y020895D01*
X007933Y020836D01*
X007933Y020309D01*
X007952Y020290D01*
X007952Y019994D01*
X008011Y019936D01*
X008011Y019929D01*
X007933Y019851D01*
X007933Y019483D01*
X008026Y019389D01*
X008395Y019389D01*
X008473Y019467D01*
X008491Y019467D01*
X008530Y019506D01*
X008559Y019506D01*
X008566Y019499D01*
X008509Y019442D01*
X008463Y019333D01*
X008463Y019214D01*
X008509Y019104D01*
X008593Y019020D01*
X008703Y018975D01*
X008821Y018975D01*
X008931Y019020D01*
X009015Y019104D01*
X009061Y019214D01*
X009061Y019333D01*
X009015Y019442D01*
X009001Y019456D01*
X009001Y019464D01*
X009080Y019542D01*
X009080Y019719D01*
X009119Y019758D01*
X009119Y019900D01*
X010429Y019900D01*
X010485Y019844D01*
X010438Y019797D01*
X010392Y019687D01*
X010392Y019568D01*
X010438Y019458D01*
X010522Y019374D01*
X010632Y019329D01*
X010646Y019329D01*
X010704Y019271D01*
X011318Y019271D01*
X011318Y017978D01*
X010726Y017387D01*
X010609Y017269D01*
X010609Y017069D01*
X010554Y017092D01*
X010438Y017092D01*
X010438Y017135D01*
X010344Y017229D01*
X010290Y017229D01*
X010290Y017317D01*
X010373Y017400D01*
X010436Y017400D01*
X010545Y017445D01*
X010629Y017529D01*
X010675Y017639D01*
X010675Y017758D01*
X010629Y017868D01*
X010545Y017952D01*
X010436Y017997D01*
X010373Y017997D01*
X010352Y018019D01*
X010438Y018105D01*
X010438Y018788D01*
X010344Y018882D01*
X009818Y018882D01*
X009724Y018788D01*
X009724Y018738D01*
X009707Y018745D01*
X009690Y018745D01*
X009690Y018788D01*
X009596Y018882D01*
X009070Y018882D01*
X008976Y018788D01*
X008976Y018386D01*
X008789Y018199D01*
X008789Y017979D01*
X008728Y018040D01*
X005736Y021032D01*
X005605Y021087D01*
X005463Y021087D01*
X005332Y021032D01*
X005231Y020932D01*
X005177Y020801D01*
X005177Y020659D01*
X005231Y020528D01*
X006739Y019020D01*
X006399Y019020D01*
X006302Y019060D01*
X006183Y019060D01*
X006073Y019015D01*
X005989Y018931D01*
X005944Y018821D01*
X005944Y018702D01*
X005989Y018592D01*
X006073Y018508D01*
X006183Y018463D01*
X006302Y018463D01*
X006399Y018503D01*
X006496Y018503D01*
X006496Y017868D01*
X006584Y017780D01*
X006215Y017780D01*
X006122Y017686D01*
X006122Y017544D01*
X005658Y017544D01*
X005580Y017622D01*
X005251Y017622D01*
X005219Y017590D01*
X005187Y017622D01*
X004857Y017622D01*
X004843Y017609D01*
X004710Y017742D01*
X004671Y017781D01*
X004671Y018086D01*
X004749Y018164D01*
X004749Y018493D01*
X004717Y018525D01*
X004749Y018557D01*
X004749Y018635D01*
X005081Y018967D01*
X005159Y018935D01*
X005278Y018935D01*
X005388Y018981D01*
X005472Y019065D01*
X005517Y019174D01*
X005517Y019293D01*
X005472Y019403D01*
X005388Y019487D01*
X005278Y019533D01*
X005159Y019533D01*
X005062Y019492D01*
X004931Y019492D01*
X004836Y019453D01*
X004364Y018981D01*
X004286Y018981D01*
X004193Y018887D01*
X004193Y018557D01*
X004225Y018525D01*
X004193Y018493D01*
X004193Y018164D01*
X004271Y018086D01*
X004271Y017859D01*
X002301Y017859D01*
X001578Y017136D01*
X001498Y017169D01*
X001301Y017169D01*
X001120Y017094D01*
X000981Y016955D01*
X000905Y016773D01*
X000905Y016576D01*
X000981Y016395D01*
X001120Y016256D01*
X001301Y016180D01*
X001498Y016180D01*
X001680Y016256D01*
X001819Y016395D01*
X001894Y016576D01*
X001894Y016773D01*
X001861Y016853D01*
X002467Y017459D01*
X004427Y017459D01*
X004625Y017261D01*
X004742Y017144D01*
X004779Y017144D01*
X004857Y017066D01*
X005187Y017066D01*
X005219Y017098D01*
X005251Y017066D01*
X005580Y017066D01*
X005658Y017144D01*
X006122Y017144D01*
X006122Y017002D01*
X006215Y016909D01*
X006742Y016909D01*
X006835Y017002D01*
X006835Y017144D01*
X007144Y017144D01*
X007236Y017052D01*
X007207Y017052D01*
X007097Y017007D01*
X007013Y016923D01*
X006967Y016813D01*
X006967Y016694D01*
X007013Y016584D01*
X007066Y016531D01*
X007066Y016238D01*
X007775Y015529D01*
X007775Y013757D01*
X007892Y013640D01*
X008208Y013324D01*
X008208Y013289D01*
X008152Y013312D01*
X008033Y013312D01*
X007936Y013272D01*
X005285Y013272D01*
X005190Y013233D01*
X004915Y012957D01*
X004842Y012884D01*
X004803Y012789D01*
X004803Y012445D01*
X004577Y012445D01*
X004482Y012406D01*
X004409Y012333D01*
X004370Y012238D01*
X004370Y011871D01*
X004329Y011774D01*
X004329Y011760D01*
X004271Y011702D01*
X004271Y011599D01*
X004227Y011599D01*
X004194Y011565D01*
X004159Y011600D01*
X004159Y011797D01*
X004042Y011914D01*
X004042Y011914D01*
X002742Y013214D01*
X002742Y013214D01*
X002624Y013332D01*
X001852Y013332D01*
X001819Y013412D01*
X001680Y013551D01*
X001498Y013626D01*
X001301Y013626D01*
X001120Y013551D01*
X000981Y013412D01*
X000905Y013230D01*
X000905Y013033D01*
X000981Y012851D01*
X001120Y012712D01*
X001301Y012637D01*
X001498Y012637D01*
X001680Y012712D01*
X001819Y012851D01*
X001852Y012932D01*
X001935Y012932D01*
X001928Y012915D01*
X001928Y012797D01*
X001973Y012687D01*
X002057Y012603D01*
X002167Y012557D01*
X002213Y012557D01*
X002145Y012489D01*
X002145Y012483D01*
X002136Y012479D01*
X002052Y012395D01*
X002007Y012285D01*
X002007Y012167D01*
X002033Y012102D01*
X001988Y012056D01*
X001988Y011687D01*
X002082Y011594D01*
X002332Y011594D01*
X002426Y011687D01*
X002426Y011823D01*
X002537Y011711D01*
X002490Y011692D01*
X002406Y011608D01*
X002361Y011498D01*
X002361Y011379D01*
X002382Y011329D01*
X002382Y009379D01*
X002342Y009340D01*
X002342Y008931D01*
X002436Y008838D01*
X002608Y008838D01*
X002694Y008924D01*
X002815Y008804D01*
X002815Y003549D01*
X002857Y003446D01*
X004130Y002174D01*
X004130Y001810D01*
X004022Y001766D01*
X003836Y001580D01*
X003736Y001338D01*
X003736Y001075D01*
X003836Y000832D01*
X004022Y000647D01*
X003980Y000689D02*
X001812Y000689D01*
X001770Y000647D02*
X001955Y000832D01*
X002056Y001075D01*
X002056Y001338D01*
X001955Y001580D01*
X001770Y001766D01*
X001527Y001866D01*
X001265Y001866D01*
X001022Y001766D01*
X000836Y001580D01*
X000736Y001338D01*
X000736Y001075D01*
X000836Y000832D01*
X001022Y000647D01*
X001265Y000546D01*
X001527Y000546D01*
X001770Y000647D01*
X001890Y000767D02*
X003901Y000767D01*
X003831Y000846D02*
X001961Y000846D01*
X001994Y000924D02*
X003798Y000924D01*
X003766Y001003D02*
X002026Y001003D01*
X002056Y001081D02*
X003736Y001081D01*
X003736Y001160D02*
X002056Y001160D01*
X002056Y001238D02*
X003736Y001238D01*
X003736Y001317D02*
X002056Y001317D01*
X002032Y001395D02*
X003760Y001395D01*
X003792Y001474D02*
X001999Y001474D01*
X001967Y001552D02*
X003825Y001552D01*
X003887Y001631D02*
X001905Y001631D01*
X001826Y001709D02*
X003966Y001709D01*
X004075Y001788D02*
X001717Y001788D01*
X001075Y001788D02*
X000379Y001788D01*
X000379Y001866D02*
X004130Y001866D01*
X004130Y001945D02*
X000379Y001945D01*
X000379Y002023D02*
X004130Y002023D01*
X004130Y002102D02*
X000379Y002102D01*
X000379Y002180D02*
X004123Y002180D01*
X004045Y002259D02*
X000379Y002259D01*
X000379Y002337D02*
X003966Y002337D01*
X003888Y002416D02*
X000379Y002416D01*
X000379Y002494D02*
X003809Y002494D01*
X003731Y002573D02*
X000379Y002573D01*
X000379Y002651D02*
X003652Y002651D01*
X003574Y002730D02*
X000379Y002730D01*
X000379Y002808D02*
X003495Y002808D01*
X003417Y002887D02*
X000379Y002887D01*
X000379Y002965D02*
X003338Y002965D01*
X003260Y003044D02*
X000379Y003044D01*
X000379Y003122D02*
X003181Y003122D01*
X003103Y003201D02*
X000379Y003201D01*
X000379Y003279D02*
X003024Y003279D01*
X002946Y003358D02*
X000379Y003358D01*
X000379Y003436D02*
X002867Y003436D01*
X002829Y003515D02*
X000379Y003515D01*
X000379Y003593D02*
X002815Y003593D01*
X002815Y003672D02*
X000379Y003672D01*
X000379Y003750D02*
X002815Y003750D01*
X002815Y003829D02*
X000379Y003829D01*
X000379Y003907D02*
X002815Y003907D01*
X002815Y003986D02*
X000379Y003986D01*
X000379Y004064D02*
X002815Y004064D01*
X002815Y004143D02*
X000379Y004143D01*
X000379Y004221D02*
X002815Y004221D01*
X002815Y004300D02*
X000379Y004300D01*
X000379Y004378D02*
X002815Y004378D01*
X002815Y004457D02*
X000379Y004457D01*
X000379Y004535D02*
X002815Y004535D01*
X002815Y004614D02*
X000379Y004614D01*
X000379Y004692D02*
X002815Y004692D01*
X002815Y004771D02*
X000379Y004771D01*
X000379Y004849D02*
X002815Y004849D01*
X002815Y004928D02*
X000379Y004928D01*
X000379Y005006D02*
X002815Y005006D01*
X002815Y005085D02*
X000379Y005085D01*
X000379Y005163D02*
X002815Y005163D01*
X002815Y005242D02*
X000379Y005242D01*
X000379Y005320D02*
X002815Y005320D01*
X002815Y005399D02*
X000379Y005399D01*
X000379Y005477D02*
X002815Y005477D01*
X002815Y005556D02*
X001550Y005556D01*
X001527Y005546D02*
X001770Y005647D01*
X001955Y005832D01*
X002056Y006075D01*
X002056Y006338D01*
X001955Y006580D01*
X001910Y006625D01*
X001910Y008295D01*
X001914Y008305D01*
X001914Y008509D01*
X001836Y008698D01*
X001691Y008843D01*
X001502Y008921D01*
X001298Y008921D01*
X001108Y008843D01*
X000960Y008695D01*
X000882Y008505D01*
X000882Y006625D01*
X000836Y006580D01*
X000736Y006338D01*
X000736Y006075D01*
X000836Y005832D01*
X001022Y005647D01*
X001265Y005546D01*
X001527Y005546D01*
X001740Y005634D02*
X002815Y005634D01*
X002815Y005713D02*
X001836Y005713D01*
X001914Y005791D02*
X002815Y005791D01*
X002815Y005870D02*
X001971Y005870D01*
X002003Y005948D02*
X002815Y005948D01*
X002815Y006027D02*
X002036Y006027D01*
X002056Y006105D02*
X002815Y006105D01*
X002815Y006184D02*
X002056Y006184D01*
X002056Y006262D02*
X002815Y006262D01*
X002815Y006341D02*
X002055Y006341D01*
X002022Y006419D02*
X002815Y006419D01*
X002815Y006498D02*
X001990Y006498D01*
X001957Y006576D02*
X002815Y006576D01*
X002815Y006655D02*
X001910Y006655D01*
X001910Y006733D02*
X002815Y006733D01*
X002815Y006812D02*
X001910Y006812D01*
X001910Y006890D02*
X002815Y006890D01*
X002815Y006969D02*
X001910Y006969D01*
X001910Y007047D02*
X002815Y007047D01*
X002815Y007126D02*
X001910Y007126D01*
X001910Y007204D02*
X002815Y007204D01*
X002815Y007283D02*
X001910Y007283D01*
X001910Y007361D02*
X002815Y007361D01*
X002815Y007440D02*
X001910Y007440D01*
X001910Y007518D02*
X002815Y007518D01*
X002815Y007597D02*
X001910Y007597D01*
X001910Y007675D02*
X002815Y007675D01*
X002815Y007754D02*
X001910Y007754D01*
X001910Y007832D02*
X002815Y007832D01*
X002815Y007911D02*
X001910Y007911D01*
X001910Y007989D02*
X002815Y007989D01*
X002815Y008068D02*
X001910Y008068D01*
X001910Y008146D02*
X002815Y008146D01*
X002815Y008225D02*
X001910Y008225D01*
X001914Y008303D02*
X002815Y008303D01*
X002815Y008382D02*
X001914Y008382D01*
X001914Y008460D02*
X002815Y008460D01*
X002815Y008539D02*
X001902Y008539D01*
X001869Y008617D02*
X002815Y008617D01*
X002815Y008696D02*
X001837Y008696D01*
X001760Y008774D02*
X002815Y008774D01*
X002765Y008853D02*
X002623Y008853D01*
X002421Y008853D02*
X001668Y008853D01*
X001498Y009094D02*
X001680Y009169D01*
X001819Y009308D01*
X001894Y009490D01*
X001894Y009687D01*
X001819Y009868D01*
X001680Y010008D01*
X001498Y010083D01*
X001301Y010083D01*
X001120Y010008D01*
X000981Y009868D01*
X000905Y009687D01*
X000905Y009490D01*
X000981Y009308D01*
X001120Y009169D01*
X001301Y009094D01*
X001498Y009094D01*
X001675Y009167D02*
X002342Y009167D01*
X002342Y009245D02*
X001757Y009245D01*
X001826Y009324D02*
X002342Y009324D01*
X002382Y009402D02*
X001858Y009402D01*
X001891Y009481D02*
X002382Y009481D01*
X002382Y009559D02*
X001894Y009559D01*
X001894Y009638D02*
X002382Y009638D01*
X002382Y009716D02*
X001882Y009716D01*
X001850Y009795D02*
X002382Y009795D01*
X002382Y009873D02*
X001814Y009873D01*
X001736Y009952D02*
X002382Y009952D01*
X002382Y010030D02*
X001625Y010030D01*
X001498Y010275D02*
X001680Y010350D01*
X001819Y010489D01*
X001894Y010671D01*
X001894Y010868D01*
X001819Y011050D01*
X001680Y011189D01*
X001498Y011264D01*
X001301Y011264D01*
X001120Y011189D01*
X000981Y011050D01*
X000905Y010868D01*
X000905Y010671D01*
X000981Y010489D01*
X001120Y010350D01*
X001301Y010275D01*
X001498Y010275D01*
X001667Y010344D02*
X002382Y010344D01*
X002382Y010266D02*
X000379Y010266D01*
X000379Y010344D02*
X001133Y010344D01*
X001047Y010423D02*
X000379Y010423D01*
X000379Y010501D02*
X000975Y010501D01*
X000943Y010580D02*
X000379Y010580D01*
X000379Y010658D02*
X000910Y010658D01*
X000905Y010737D02*
X000379Y010737D01*
X000379Y010815D02*
X000905Y010815D01*
X000916Y010894D02*
X000379Y010894D01*
X000379Y010972D02*
X000949Y010972D01*
X000982Y011051D02*
X000379Y011051D01*
X000379Y011129D02*
X001060Y011129D01*
X001166Y011208D02*
X000379Y011208D01*
X000379Y011286D02*
X002382Y011286D01*
X002382Y011208D02*
X001634Y011208D01*
X001739Y011129D02*
X002382Y011129D01*
X002382Y011051D02*
X001818Y011051D01*
X001851Y010972D02*
X002382Y010972D01*
X002382Y010894D02*
X001884Y010894D01*
X001894Y010815D02*
X002382Y010815D01*
X002382Y010737D02*
X001894Y010737D01*
X001889Y010658D02*
X002382Y010658D01*
X002382Y010580D02*
X001857Y010580D01*
X001824Y010501D02*
X002382Y010501D01*
X002382Y010423D02*
X001753Y010423D01*
X002382Y010187D02*
X000379Y010187D01*
X000379Y010109D02*
X002382Y010109D01*
X002342Y009088D02*
X000379Y009088D01*
X000379Y009010D02*
X002342Y009010D01*
X002342Y008931D02*
X000379Y008931D01*
X000379Y008853D02*
X001132Y008853D01*
X001040Y008774D02*
X000379Y008774D01*
X000379Y008696D02*
X000961Y008696D01*
X000928Y008617D02*
X000379Y008617D01*
X000379Y008539D02*
X000895Y008539D01*
X000882Y008460D02*
X000379Y008460D01*
X000379Y008382D02*
X000882Y008382D01*
X000882Y008303D02*
X000379Y008303D01*
X000379Y008225D02*
X000882Y008225D01*
X000882Y008146D02*
X000379Y008146D01*
X000379Y008068D02*
X000882Y008068D01*
X000882Y007989D02*
X000379Y007989D01*
X000379Y007911D02*
X000882Y007911D01*
X000882Y007832D02*
X000379Y007832D01*
X000379Y007754D02*
X000882Y007754D01*
X000882Y007675D02*
X000379Y007675D01*
X000379Y007597D02*
X000882Y007597D01*
X000882Y007518D02*
X000379Y007518D01*
X000379Y007440D02*
X000882Y007440D01*
X000882Y007361D02*
X000379Y007361D01*
X000379Y007283D02*
X000882Y007283D01*
X000882Y007204D02*
X000379Y007204D01*
X000379Y007126D02*
X000882Y007126D01*
X000882Y007047D02*
X000379Y007047D01*
X000379Y006969D02*
X000882Y006969D01*
X000882Y006890D02*
X000379Y006890D01*
X000379Y006812D02*
X000882Y006812D01*
X000882Y006733D02*
X000379Y006733D01*
X000379Y006655D02*
X000882Y006655D01*
X000835Y006576D02*
X000379Y006576D01*
X000379Y006498D02*
X000802Y006498D01*
X000770Y006419D02*
X000379Y006419D01*
X000379Y006341D02*
X000737Y006341D01*
X000736Y006262D02*
X000379Y006262D01*
X000379Y006184D02*
X000736Y006184D01*
X000736Y006105D02*
X000379Y006105D01*
X000379Y006027D02*
X000756Y006027D01*
X000788Y005948D02*
X000379Y005948D01*
X000379Y005870D02*
X000821Y005870D01*
X000877Y005791D02*
X000379Y005791D01*
X000379Y005713D02*
X000956Y005713D01*
X001052Y005634D02*
X000379Y005634D01*
X000379Y005556D02*
X001241Y005556D01*
X001124Y009167D02*
X000379Y009167D01*
X000379Y009245D02*
X001043Y009245D01*
X000974Y009324D02*
X000379Y009324D01*
X000379Y009402D02*
X000941Y009402D01*
X000909Y009481D02*
X000379Y009481D01*
X000379Y009559D02*
X000905Y009559D01*
X000905Y009638D02*
X000379Y009638D01*
X000379Y009716D02*
X000918Y009716D01*
X000950Y009795D02*
X000379Y009795D01*
X000379Y009873D02*
X000986Y009873D01*
X001064Y009952D02*
X000379Y009952D01*
X000379Y010030D02*
X001175Y010030D01*
X001301Y011456D02*
X001120Y011531D01*
X000981Y011670D01*
X000905Y011852D01*
X000905Y012049D01*
X000981Y012231D01*
X001120Y012370D01*
X001301Y012445D01*
X001498Y012445D01*
X001680Y012370D01*
X001819Y012231D01*
X001894Y012049D01*
X001894Y011852D01*
X001819Y011670D01*
X001680Y011531D01*
X001498Y011456D01*
X001301Y011456D01*
X001142Y011522D02*
X000379Y011522D01*
X000379Y011600D02*
X001050Y011600D01*
X000977Y011679D02*
X000379Y011679D01*
X000379Y011757D02*
X000944Y011757D01*
X000912Y011836D02*
X000379Y011836D01*
X000379Y011914D02*
X000905Y011914D01*
X000905Y011993D02*
X000379Y011993D01*
X000379Y012071D02*
X000915Y012071D01*
X000947Y012150D02*
X000379Y012150D01*
X000379Y012228D02*
X000980Y012228D01*
X001057Y012307D02*
X000379Y012307D01*
X000379Y012385D02*
X001157Y012385D01*
X001150Y012699D02*
X000379Y012699D01*
X000379Y012621D02*
X002039Y012621D01*
X001968Y012699D02*
X001649Y012699D01*
X001746Y012778D02*
X001936Y012778D01*
X001928Y012856D02*
X001821Y012856D01*
X002121Y012464D02*
X000379Y012464D01*
X000379Y012542D02*
X002199Y012542D01*
X002048Y012385D02*
X001642Y012385D01*
X001743Y012307D02*
X002016Y012307D01*
X002007Y012228D02*
X001820Y012228D01*
X001853Y012150D02*
X002014Y012150D01*
X002003Y012071D02*
X001885Y012071D01*
X001894Y011993D02*
X001988Y011993D01*
X001988Y011914D02*
X001894Y011914D01*
X001888Y011836D02*
X001988Y011836D01*
X001988Y011757D02*
X001855Y011757D01*
X001823Y011679D02*
X001996Y011679D01*
X002075Y011600D02*
X001749Y011600D01*
X001658Y011522D02*
X002371Y011522D01*
X002361Y011443D02*
X000379Y011443D01*
X000379Y011365D02*
X002367Y011365D01*
X002339Y011600D02*
X002403Y011600D01*
X002418Y011679D02*
X002478Y011679D01*
X002491Y011757D02*
X002426Y011757D01*
X002305Y012226D02*
X003132Y011399D01*
X003132Y009470D01*
X003605Y008998D01*
X003605Y008604D01*
X003570Y008303D02*
X003679Y008303D01*
X003924Y008303D02*
X005108Y008303D01*
X005029Y008225D02*
X003371Y008225D01*
X003371Y008146D02*
X004951Y008146D01*
X004901Y008068D02*
X003371Y008068D01*
X003371Y007989D02*
X004901Y007989D01*
X004901Y007911D02*
X003371Y007911D01*
X003371Y007832D02*
X004183Y007832D01*
X004010Y007754D02*
X003371Y007754D01*
X003371Y007675D02*
X003932Y007675D01*
X003853Y007597D02*
X003371Y007597D01*
X003371Y007518D02*
X003811Y007518D01*
X003778Y007440D02*
X003371Y007440D01*
X003371Y007361D02*
X003746Y007361D01*
X003736Y007283D02*
X003371Y007283D01*
X003371Y007204D02*
X003736Y007204D01*
X003736Y007126D02*
X003371Y007126D01*
X003371Y007047D02*
X003747Y007047D01*
X003780Y006969D02*
X003371Y006969D01*
X003371Y006890D02*
X003812Y006890D01*
X003857Y006812D02*
X003371Y006812D01*
X003371Y006733D02*
X003935Y006733D01*
X004014Y006655D02*
X003371Y006655D01*
X003371Y006576D02*
X004192Y006576D01*
X004232Y006262D02*
X003371Y006262D01*
X003371Y006184D02*
X004043Y006184D01*
X003952Y006105D02*
X003371Y006105D01*
X003371Y006027D02*
X003874Y006027D01*
X003819Y005948D02*
X003371Y005948D01*
X003371Y005870D02*
X003787Y005870D01*
X003754Y005791D02*
X003371Y005791D01*
X003371Y005713D02*
X003736Y005713D01*
X003736Y005634D02*
X003371Y005634D01*
X003371Y005556D02*
X003736Y005556D01*
X003739Y005477D02*
X003371Y005477D01*
X003371Y005399D02*
X003771Y005399D01*
X003804Y005320D02*
X003371Y005320D01*
X003371Y005242D02*
X003836Y005242D01*
X003915Y005163D02*
X003371Y005163D01*
X003371Y005085D02*
X003993Y005085D01*
X004142Y005006D02*
X003371Y005006D01*
X003371Y004928D02*
X004901Y004928D01*
X004901Y005006D02*
X004649Y005006D01*
X004798Y005085D02*
X004901Y005085D01*
X004901Y005163D02*
X004877Y005163D01*
X004901Y004849D02*
X003371Y004849D01*
X003371Y004771D02*
X004843Y004771D01*
X004765Y004692D02*
X003371Y004692D01*
X003371Y004614D02*
X004686Y004614D01*
X004608Y004535D02*
X003371Y004535D01*
X003371Y004457D02*
X004529Y004457D01*
X004451Y004378D02*
X003371Y004378D01*
X003371Y004300D02*
X004372Y004300D01*
X004154Y004221D02*
X003371Y004221D01*
X003371Y004143D02*
X004089Y004143D01*
X004057Y004064D02*
X003371Y004064D01*
X003371Y003986D02*
X004054Y003986D01*
X004067Y003907D02*
X003371Y003907D01*
X003371Y003829D02*
X004099Y003829D01*
X004177Y003750D02*
X003371Y003750D01*
X003418Y003672D02*
X006240Y003672D01*
X006240Y003750D02*
X004528Y003750D01*
X004606Y003829D02*
X006240Y003829D01*
X006240Y003906D02*
X006240Y003567D01*
X006137Y003567D01*
X006097Y003528D01*
X005861Y003528D01*
X005767Y003434D01*
X005767Y003065D01*
X005846Y002987D01*
X005846Y002961D01*
X005767Y002883D01*
X005767Y002514D01*
X005809Y002472D01*
X005767Y002430D01*
X005767Y002101D01*
X005800Y002069D01*
X005767Y002036D01*
X005767Y001707D01*
X005861Y001613D01*
X005864Y001613D01*
X006082Y001395D01*
X006199Y001278D01*
X006545Y001278D01*
X006545Y001090D01*
X006615Y000922D01*
X006743Y000794D01*
X006911Y000724D01*
X007093Y000724D01*
X007261Y000794D01*
X007390Y000922D01*
X007459Y001090D01*
X007459Y001866D01*
X007390Y002034D01*
X007261Y002162D01*
X007093Y002232D01*
X006911Y002232D01*
X006743Y002162D01*
X006615Y002034D01*
X006545Y001866D01*
X006545Y001678D01*
X006365Y001678D01*
X006324Y001719D01*
X006324Y001830D01*
X006387Y001830D01*
X006481Y001924D01*
X006481Y002214D01*
X006387Y002307D01*
X006324Y002307D01*
X006324Y002430D01*
X006282Y002472D01*
X006324Y002514D01*
X006324Y002883D01*
X006274Y002932D01*
X006427Y002932D01*
X006466Y002972D01*
X006702Y002972D01*
X006796Y003065D01*
X006796Y003434D01*
X006744Y003486D01*
X006780Y003522D01*
X007047Y003522D01*
X007047Y003518D01*
X007141Y003424D01*
X007628Y003424D01*
X007721Y003518D01*
X007721Y003966D01*
X007628Y004059D01*
X007141Y004059D01*
X007047Y003966D01*
X007047Y003922D01*
X006780Y003922D01*
X006702Y004000D01*
X006334Y004000D01*
X006240Y003906D01*
X006241Y003907D02*
X004639Y003907D01*
X004651Y003986D02*
X006319Y003986D01*
X006518Y003722D02*
X007364Y003722D01*
X007384Y003742D01*
X007129Y003436D02*
X006794Y003436D01*
X006796Y003358D02*
X008247Y003358D01*
X008227Y003309D02*
X008227Y003190D01*
X008273Y003080D01*
X008357Y002996D01*
X008466Y002951D01*
X008563Y002951D01*
X008563Y002593D01*
X008624Y002531D01*
X008563Y002469D01*
X008563Y002347D01*
X008460Y002347D01*
X008366Y002253D01*
X008366Y002057D01*
X008261Y002162D01*
X008093Y002232D01*
X007911Y002232D01*
X007743Y002162D01*
X007615Y002034D01*
X007545Y001866D01*
X007545Y001090D01*
X007615Y000922D01*
X007743Y000794D01*
X007911Y000724D01*
X008093Y000724D01*
X008261Y000794D01*
X008390Y000922D01*
X008459Y001090D01*
X008459Y001278D01*
X008727Y001278D01*
X008924Y001475D01*
X009041Y001592D01*
X009041Y001668D01*
X009119Y001746D01*
X009119Y002076D01*
X009087Y002108D01*
X009119Y002140D01*
X009119Y002469D01*
X009057Y002531D01*
X009119Y002593D01*
X009119Y002772D01*
X009318Y002972D01*
X009498Y002972D01*
X009591Y003065D01*
X009591Y003434D01*
X009498Y003528D01*
X009261Y003528D01*
X009222Y003567D01*
X009119Y003567D01*
X009119Y003906D01*
X009025Y004000D01*
X008656Y004000D01*
X008598Y003942D01*
X008430Y003942D01*
X008430Y003966D01*
X008336Y004059D01*
X007849Y004059D01*
X007756Y003966D01*
X007756Y003518D01*
X007849Y003424D01*
X008278Y003424D01*
X008273Y003419D01*
X008227Y003309D01*
X008227Y003279D02*
X006796Y003279D01*
X006796Y003201D02*
X008227Y003201D01*
X008255Y003122D02*
X006796Y003122D01*
X006775Y003044D02*
X008309Y003044D01*
X008431Y002965D02*
X006460Y002965D01*
X006320Y002887D02*
X008563Y002887D01*
X008563Y002808D02*
X006324Y002808D01*
X006324Y002730D02*
X008563Y002730D01*
X008563Y002651D02*
X006324Y002651D01*
X006324Y002573D02*
X008583Y002573D01*
X008588Y002494D02*
X006304Y002494D01*
X006324Y002416D02*
X008563Y002416D01*
X008450Y002337D02*
X006324Y002337D01*
X006436Y002259D02*
X008372Y002259D01*
X008366Y002180D02*
X008217Y002180D01*
X008321Y002102D02*
X008366Y002102D01*
X008841Y001675D02*
X008644Y001478D01*
X008002Y001478D01*
X008390Y000924D02*
X013641Y000924D01*
X013641Y000846D02*
X008313Y000846D01*
X008197Y000767D02*
X013641Y000767D01*
X013641Y000689D02*
X004812Y000689D01*
X004890Y000767D02*
X006807Y000767D01*
X006691Y000846D02*
X004961Y000846D01*
X004994Y000924D02*
X006614Y000924D01*
X006582Y001003D02*
X005026Y001003D01*
X005056Y001081D02*
X006549Y001081D01*
X006545Y001160D02*
X005056Y001160D01*
X005056Y001238D02*
X006545Y001238D01*
X006282Y001478D02*
X007002Y001478D01*
X007394Y002023D02*
X007611Y002023D01*
X007578Y001945D02*
X007426Y001945D01*
X007459Y001866D02*
X007546Y001866D01*
X007545Y001788D02*
X007459Y001788D01*
X007459Y001709D02*
X007545Y001709D01*
X007545Y001631D02*
X007459Y001631D01*
X007459Y001552D02*
X007545Y001552D01*
X007545Y001474D02*
X007459Y001474D01*
X007459Y001395D02*
X007545Y001395D01*
X007545Y001317D02*
X007459Y001317D01*
X007459Y001238D02*
X007545Y001238D01*
X007545Y001160D02*
X007459Y001160D01*
X007455Y001081D02*
X007549Y001081D01*
X007582Y001003D02*
X007423Y001003D01*
X007390Y000924D02*
X007614Y000924D01*
X007691Y000846D02*
X007313Y000846D01*
X007197Y000767D02*
X007807Y000767D01*
X008423Y001003D02*
X010969Y001003D01*
X011000Y000972D02*
X011485Y000972D01*
X011827Y001314D01*
X011827Y001799D01*
X011485Y002142D01*
X011000Y002142D01*
X010657Y001799D01*
X010657Y001314D01*
X011000Y000972D01*
X010890Y001081D02*
X008455Y001081D01*
X008459Y001160D02*
X010812Y001160D01*
X010733Y001238D02*
X008459Y001238D01*
X008766Y001317D02*
X010657Y001317D01*
X010657Y001395D02*
X008844Y001395D01*
X008923Y001474D02*
X010657Y001474D01*
X010657Y001552D02*
X009001Y001552D01*
X009041Y001631D02*
X010657Y001631D01*
X010657Y001709D02*
X009082Y001709D01*
X009119Y001788D02*
X010657Y001788D01*
X010725Y001866D02*
X009119Y001866D01*
X009119Y001945D02*
X010803Y001945D01*
X010882Y002023D02*
X009119Y002023D01*
X009093Y002102D02*
X010960Y002102D01*
X011000Y002940D02*
X011485Y002940D01*
X011827Y003283D01*
X011827Y003768D01*
X011485Y004110D01*
X011000Y004110D01*
X010657Y003768D01*
X010657Y003283D01*
X011000Y002940D01*
X010975Y002965D02*
X009312Y002965D01*
X009233Y002887D02*
X013641Y002887D01*
X013641Y002965D02*
X011510Y002965D01*
X011588Y003044D02*
X013641Y003044D01*
X013641Y003122D02*
X011667Y003122D01*
X011745Y003201D02*
X013641Y003201D01*
X013641Y003279D02*
X011824Y003279D01*
X011827Y003358D02*
X013641Y003358D01*
X013641Y003436D02*
X011827Y003436D01*
X011827Y003515D02*
X013641Y003515D01*
X013641Y003593D02*
X011827Y003593D01*
X011827Y003672D02*
X013641Y003672D01*
X013641Y003750D02*
X011827Y003750D01*
X011766Y003829D02*
X013641Y003829D01*
X013641Y003907D02*
X011687Y003907D01*
X011609Y003986D02*
X013641Y003986D01*
X013641Y004064D02*
X011530Y004064D01*
X010954Y004064D02*
X004702Y004064D01*
X004781Y004143D02*
X007091Y004143D01*
X007047Y004221D02*
X004859Y004221D01*
X004938Y004300D02*
X007047Y004300D01*
X007047Y004378D02*
X005016Y004378D01*
X005095Y004457D02*
X007047Y004457D01*
X007047Y004535D02*
X005173Y004535D01*
X005252Y004614D02*
X007047Y004614D01*
X007105Y004692D02*
X005301Y004692D01*
X005301Y004771D02*
X006936Y004771D01*
X006858Y004849D02*
X005301Y004849D01*
X005301Y004928D02*
X006824Y004928D01*
X006810Y005006D02*
X006689Y005006D01*
X006768Y005085D02*
X006812Y005085D01*
X006802Y005163D02*
X006844Y005163D01*
X006817Y005242D02*
X006907Y005242D01*
X007003Y005320D02*
X007112Y005320D01*
X007030Y005572D02*
X007069Y005612D01*
X007187Y005612D01*
X007207Y005632D01*
X007030Y005572D02*
X006833Y005572D01*
X006951Y005848D02*
X006971Y005868D01*
X006951Y005848D02*
X006675Y005848D01*
X006518Y005691D01*
X006518Y005258D01*
X006315Y005477D02*
X005301Y005477D01*
X005301Y005399D02*
X006253Y005399D01*
X006221Y005320D02*
X005301Y005320D01*
X005301Y005242D02*
X006219Y005242D01*
X006234Y005163D02*
X005301Y005163D01*
X005301Y005085D02*
X006268Y005085D01*
X006347Y005006D02*
X005301Y005006D01*
X005101Y004746D02*
X004353Y003998D01*
X003889Y003201D02*
X005767Y003201D01*
X005767Y003279D02*
X003811Y003279D01*
X003732Y003358D02*
X005767Y003358D01*
X005770Y003436D02*
X003654Y003436D01*
X003575Y003515D02*
X005848Y003515D01*
X006046Y003250D02*
X006046Y002698D01*
X006046Y002265D01*
X005767Y002259D02*
X004686Y002259D01*
X004686Y002337D02*
X005767Y002337D01*
X005767Y002416D02*
X004656Y002416D01*
X004596Y002494D02*
X005787Y002494D01*
X005767Y002573D02*
X004517Y002573D01*
X004439Y002651D02*
X005767Y002651D01*
X005767Y002730D02*
X004360Y002730D01*
X004282Y002808D02*
X005767Y002808D01*
X005771Y002887D02*
X004203Y002887D01*
X004125Y002965D02*
X005846Y002965D01*
X005789Y003044D02*
X004046Y003044D01*
X003968Y003122D02*
X005767Y003122D01*
X006240Y003593D02*
X003497Y003593D01*
X004686Y002180D02*
X005767Y002180D01*
X005767Y002102D02*
X004686Y002102D01*
X004686Y002023D02*
X005767Y002023D01*
X005767Y001945D02*
X004686Y001945D01*
X004686Y001866D02*
X005767Y001866D01*
X005767Y001788D02*
X004717Y001788D01*
X004826Y001709D02*
X005767Y001709D01*
X005843Y001631D02*
X004905Y001631D01*
X004967Y001552D02*
X005924Y001552D01*
X006003Y001474D02*
X004999Y001474D01*
X005032Y001395D02*
X006081Y001395D01*
X006160Y001317D02*
X005056Y001317D01*
X004682Y000610D02*
X013641Y000610D01*
X013641Y000532D02*
X000379Y000532D01*
X000379Y000610D02*
X001110Y000610D01*
X000980Y000689D02*
X000379Y000689D01*
X000379Y000767D02*
X000901Y000767D01*
X000831Y000846D02*
X000379Y000846D01*
X000379Y000924D02*
X000798Y000924D01*
X000766Y001003D02*
X000379Y001003D01*
X000379Y001081D02*
X000736Y001081D01*
X000736Y001160D02*
X000379Y001160D01*
X000379Y001238D02*
X000736Y001238D01*
X000736Y001317D02*
X000379Y001317D01*
X000379Y001395D02*
X000760Y001395D01*
X000792Y001474D02*
X000379Y001474D01*
X000379Y001552D02*
X000825Y001552D01*
X000887Y001631D02*
X000379Y001631D01*
X000379Y001709D02*
X000966Y001709D01*
X000379Y000453D02*
X013641Y000453D01*
X013641Y000375D02*
X000379Y000375D01*
X003371Y006341D02*
X004901Y006341D01*
X004901Y006419D02*
X003371Y006419D01*
X003371Y006498D02*
X004901Y006498D01*
X004901Y006576D02*
X004600Y006576D01*
X004778Y006655D02*
X004901Y006655D01*
X004901Y006733D02*
X004856Y006733D01*
X004901Y006262D02*
X004559Y006262D01*
X004749Y006184D02*
X004901Y006184D01*
X004901Y006105D02*
X004840Y006105D01*
X005301Y005634D02*
X005807Y005634D01*
X005807Y005713D02*
X005743Y005713D01*
X005772Y005791D02*
X005807Y005791D01*
X005807Y005870D02*
X005772Y005870D01*
X005772Y005948D02*
X005801Y005948D01*
X005786Y006027D02*
X005772Y006027D01*
X005772Y006105D02*
X005787Y006105D01*
X005819Y006184D02*
X005700Y006184D01*
X005694Y006262D02*
X005880Y006262D01*
X006019Y006341D02*
X005694Y006341D01*
X005694Y006419D02*
X006259Y006419D01*
X006259Y006498D02*
X005694Y006498D01*
X005694Y006576D02*
X006291Y006576D01*
X006293Y006655D02*
X005694Y006655D01*
X005694Y006733D02*
X006244Y006733D01*
X006219Y006812D02*
X005700Y006812D01*
X005737Y006890D02*
X006219Y006890D01*
X006518Y006852D02*
X006971Y006852D01*
X006971Y006655D02*
X006774Y006655D01*
X006557Y006439D01*
X006383Y006105D02*
X006742Y006105D01*
X006571Y006027D02*
X006384Y006027D01*
X006368Y005948D02*
X006493Y005948D01*
X006414Y005870D02*
X006363Y005870D01*
X006351Y006184D02*
X006392Y006184D01*
X006311Y006262D02*
X006290Y006262D01*
X006274Y006341D02*
X006151Y006341D01*
X006085Y006045D02*
X006085Y005769D01*
X005836Y005556D02*
X005301Y005556D01*
X005494Y005927D02*
X005494Y006950D01*
X005455Y006990D01*
X005754Y006969D02*
X005823Y006969D01*
X005927Y007147D02*
X005809Y007265D01*
X005809Y007777D01*
X006597Y008565D01*
X006872Y008565D01*
X007896Y009588D01*
X009195Y009588D01*
X009549Y009864D02*
X009668Y009982D01*
X009549Y009864D02*
X007778Y009864D01*
X006872Y008958D01*
X006400Y008958D01*
X006164Y008722D01*
X006164Y008486D01*
X006006Y008328D01*
X005416Y008328D01*
X005101Y008013D01*
X005101Y004746D01*
X005927Y007147D02*
X006636Y007147D01*
X006734Y007049D01*
X006971Y007049D01*
X006971Y007246D02*
X006754Y007462D01*
X006675Y007462D01*
X006597Y007384D01*
X006242Y007384D01*
X006675Y007462D02*
X006675Y007580D01*
X007267Y007126D02*
X008525Y007126D01*
X008525Y007204D02*
X008495Y007204D01*
X008525Y007047D02*
X007267Y007047D01*
X007267Y006969D02*
X008525Y006969D01*
X008525Y006890D02*
X007267Y006890D01*
X007267Y006812D02*
X008525Y006812D01*
X008555Y006733D02*
X007267Y006733D01*
X007267Y006655D02*
X008633Y006655D01*
X008594Y006419D02*
X007267Y006419D01*
X007267Y006341D02*
X008525Y006341D01*
X008525Y006262D02*
X007267Y006262D01*
X007267Y006184D02*
X008525Y006184D01*
X008525Y006105D02*
X007200Y006105D01*
X007196Y006027D02*
X008525Y006027D01*
X008525Y005948D02*
X007267Y005948D01*
X007550Y005870D02*
X007651Y005870D01*
X007601Y006065D02*
X007601Y006084D01*
X007601Y006065D02*
X006971Y006065D01*
X007267Y006498D02*
X011176Y006498D01*
X011255Y006576D02*
X009397Y006576D01*
X009480Y006655D02*
X011333Y006655D01*
X011412Y006733D02*
X009517Y006733D01*
X009533Y006812D02*
X011490Y006812D01*
X011569Y006890D02*
X009533Y006890D01*
X009746Y007226D02*
X009727Y007246D01*
X010097Y007518D02*
X012027Y007518D01*
X012027Y007440D02*
X010230Y007440D01*
X010289Y007361D02*
X012027Y007361D01*
X011961Y007283D02*
X010321Y007283D01*
X010321Y007204D02*
X011883Y007204D01*
X011804Y007126D02*
X010304Y007126D01*
X010266Y007047D02*
X011726Y007047D01*
X011647Y006969D02*
X010182Y006969D01*
X010024Y007597D02*
X012027Y007597D01*
X012027Y007675D02*
X010024Y007675D01*
X010024Y007754D02*
X012027Y007754D01*
X012027Y007832D02*
X010024Y007832D01*
X010024Y007911D02*
X010656Y007911D01*
X010590Y007989D02*
X010024Y007989D01*
X010024Y008068D02*
X010590Y008068D01*
X010590Y008146D02*
X010076Y008146D01*
X010154Y008225D02*
X010590Y008225D01*
X010590Y008303D02*
X010233Y008303D01*
X010311Y008382D02*
X010590Y008382D01*
X010590Y008460D02*
X010538Y008460D01*
X010590Y008483D02*
X010590Y008483D01*
X010890Y009088D02*
X012027Y009088D01*
X012027Y009010D02*
X011021Y009010D01*
X011121Y008931D02*
X012027Y008931D01*
X012027Y008853D02*
X011165Y008853D01*
X011221Y008774D02*
X012027Y008774D01*
X012027Y008696D02*
X011279Y008696D01*
X011304Y008617D02*
X012027Y008617D01*
X012027Y008539D02*
X011445Y008539D01*
X011501Y008460D02*
X012027Y008460D01*
X012027Y008382D02*
X011501Y008382D01*
X011501Y008303D02*
X012027Y008303D01*
X012027Y008225D02*
X011501Y008225D01*
X011501Y008146D02*
X012027Y008146D01*
X012027Y008068D02*
X011501Y008068D01*
X011501Y007989D02*
X012027Y007989D01*
X012027Y007911D02*
X011435Y007911D01*
X012056Y006812D02*
X012308Y006812D01*
X012293Y006890D02*
X012134Y006890D01*
X012213Y006969D02*
X012293Y006969D01*
X012291Y007047D02*
X012301Y007047D01*
X012227Y007265D02*
X012227Y009549D01*
X011203Y010572D01*
X009116Y010572D01*
X008723Y010218D02*
X008723Y013013D01*
X008923Y012791D02*
X008976Y012844D01*
X008995Y012891D01*
X009978Y011908D01*
X010380Y011908D01*
X010754Y012282D01*
X010829Y012282D01*
X010939Y012327D01*
X011023Y012411D01*
X011069Y012521D01*
X011069Y012640D01*
X011023Y012750D01*
X010939Y012834D01*
X010852Y012870D01*
X010866Y012884D01*
X010911Y012993D01*
X010911Y013069D01*
X011560Y013718D01*
X011580Y013671D01*
X011664Y013587D01*
X011773Y013541D01*
X011830Y013541D01*
X011830Y011679D01*
X009339Y011679D01*
X009301Y011717D02*
X008923Y011717D01*
X008923Y012791D01*
X008923Y012778D02*
X009108Y012778D01*
X009030Y012856D02*
X008981Y012856D01*
X008923Y012699D02*
X009187Y012699D01*
X009265Y012621D02*
X008923Y012621D01*
X008923Y012542D02*
X009344Y012542D01*
X009422Y012464D02*
X008923Y012464D01*
X008923Y012385D02*
X009501Y012385D01*
X009579Y012307D02*
X008923Y012307D01*
X008923Y012228D02*
X009658Y012228D01*
X009736Y012150D02*
X008923Y012150D01*
X008923Y012071D02*
X009815Y012071D01*
X009893Y011993D02*
X008923Y011993D01*
X008923Y011914D02*
X009972Y011914D01*
X010061Y012108D02*
X010297Y012108D01*
X010770Y012580D01*
X010891Y012307D02*
X011830Y012307D01*
X011830Y012385D02*
X010997Y012385D01*
X011045Y012464D02*
X011830Y012464D01*
X011830Y012542D02*
X011069Y012542D01*
X011069Y012621D02*
X011830Y012621D01*
X011830Y012699D02*
X011044Y012699D01*
X010995Y012778D02*
X011830Y012778D01*
X011830Y012856D02*
X010884Y012856D01*
X010887Y012935D02*
X011830Y012935D01*
X011830Y013013D02*
X010911Y013013D01*
X010934Y013092D02*
X011830Y013092D01*
X011830Y013170D02*
X011013Y013170D01*
X011091Y013249D02*
X011830Y013249D01*
X011830Y013327D02*
X011170Y013327D01*
X011248Y013406D02*
X011830Y013406D01*
X011830Y013484D02*
X011327Y013484D01*
X011405Y013563D02*
X011722Y013563D01*
X011609Y013641D02*
X011484Y013641D01*
X011232Y013955D02*
X008812Y013955D01*
X008890Y013877D02*
X011154Y013877D01*
X011075Y013798D02*
X008969Y013798D01*
X009047Y013720D02*
X010997Y013720D01*
X010918Y013641D02*
X009126Y013641D01*
X009204Y013563D02*
X010840Y013563D01*
X010761Y013484D02*
X009283Y013484D01*
X009361Y013406D02*
X010683Y013406D01*
X010612Y013053D02*
X011833Y014273D01*
X011833Y016084D01*
X011555Y016075D02*
X010650Y016075D01*
X010728Y016153D02*
X011537Y016153D01*
X011515Y016232D02*
X010807Y016232D01*
X010734Y016159D02*
X010734Y016159D01*
X010885Y016310D02*
X011515Y016310D01*
X011518Y016389D02*
X010964Y016389D01*
X011009Y016467D02*
X011555Y016467D01*
X011555Y016546D02*
X011009Y016546D01*
X011009Y016624D02*
X011555Y016624D01*
X011579Y016703D02*
X011009Y016703D01*
X011009Y016781D02*
X011547Y016781D01*
X011534Y016860D02*
X011009Y016860D01*
X011009Y016938D02*
X011537Y016938D01*
X011570Y017017D02*
X011009Y017017D01*
X011009Y017095D02*
X011634Y017095D01*
X011791Y017174D02*
X011079Y017174D01*
X011158Y017252D02*
X012403Y017252D01*
X012368Y017331D02*
X011236Y017331D01*
X011315Y017409D02*
X012335Y017409D01*
X012322Y017488D02*
X011393Y017488D01*
X011472Y017566D02*
X012324Y017566D01*
X012356Y017645D02*
X011550Y017645D01*
X011629Y017723D02*
X012420Y017723D01*
X012620Y017502D02*
X013053Y017502D01*
X012832Y017723D02*
X012821Y017723D01*
X013053Y017108D02*
X012542Y017108D01*
X012266Y016832D01*
X012266Y015195D01*
X013042Y015195D01*
X013053Y015206D01*
X012511Y015604D02*
X012466Y015604D01*
X012466Y015682D02*
X013641Y015682D01*
X013641Y015604D02*
X013595Y015604D01*
X013641Y015761D02*
X012466Y015761D01*
X012466Y015839D02*
X013641Y015839D01*
X013641Y015918D02*
X012466Y015918D01*
X012466Y015996D02*
X013641Y015996D01*
X013641Y016075D02*
X012466Y016075D01*
X012466Y016153D02*
X013641Y016153D01*
X013641Y016232D02*
X012466Y016232D01*
X012466Y016310D02*
X013641Y016310D01*
X013641Y016389D02*
X012466Y016389D01*
X012466Y016467D02*
X013641Y016467D01*
X013641Y016546D02*
X012466Y016546D01*
X012466Y016624D02*
X013641Y016624D01*
X013641Y016703D02*
X012466Y016703D01*
X012498Y016781D02*
X013641Y016781D01*
X013641Y016860D02*
X013248Y016860D01*
X013327Y016938D02*
X013641Y016938D01*
X013641Y017017D02*
X013331Y017017D01*
X013331Y017095D02*
X013641Y017095D01*
X013641Y017174D02*
X013346Y017174D01*
X013371Y017252D02*
X013641Y017252D01*
X013641Y017331D02*
X013371Y017331D01*
X013371Y017409D02*
X013641Y017409D01*
X013641Y017488D02*
X013331Y017488D01*
X013331Y017566D02*
X013641Y017566D01*
X013641Y017645D02*
X013331Y017645D01*
X013274Y017723D02*
X013641Y017723D01*
X013641Y017802D02*
X011707Y017802D01*
X011718Y017880D02*
X013641Y017880D01*
X013641Y017959D02*
X011718Y017959D01*
X011718Y018037D02*
X013641Y018037D01*
X013641Y018116D02*
X011718Y018116D01*
X011718Y018194D02*
X013641Y018194D01*
X013641Y018273D02*
X011718Y018273D01*
X011718Y018351D02*
X013641Y018351D01*
X013641Y018430D02*
X011718Y018430D01*
X011718Y018508D02*
X013641Y018508D01*
X013641Y018587D02*
X013062Y018587D01*
X013058Y018583D02*
X013186Y018711D01*
X013256Y018879D01*
X013256Y019061D01*
X013186Y019229D01*
X013058Y019357D01*
X012890Y019427D01*
X012114Y019427D01*
X011947Y019357D01*
X011818Y019229D01*
X011749Y019061D01*
X011749Y018879D01*
X011818Y018711D01*
X011947Y018583D01*
X012114Y018513D01*
X012890Y018513D01*
X013058Y018583D01*
X013140Y018665D02*
X013641Y018665D01*
X013641Y018744D02*
X013200Y018744D01*
X013232Y018822D02*
X013641Y018822D01*
X013641Y018901D02*
X013256Y018901D01*
X013256Y018979D02*
X013641Y018979D01*
X013641Y019058D02*
X013256Y019058D01*
X013225Y019136D02*
X013641Y019136D01*
X013641Y019215D02*
X013192Y019215D01*
X013122Y019293D02*
X013641Y019293D01*
X013641Y019372D02*
X013023Y019372D01*
X012928Y019529D02*
X013641Y019529D01*
X013641Y019607D02*
X013082Y019607D01*
X013058Y019583D02*
X013186Y019711D01*
X013256Y019879D01*
X013256Y020061D01*
X013186Y020229D01*
X013058Y020357D01*
X012890Y020427D01*
X012114Y020427D01*
X011947Y020357D01*
X011818Y020229D01*
X011749Y020061D01*
X011749Y019879D01*
X011818Y019711D01*
X011947Y019583D01*
X012114Y019513D01*
X012890Y019513D01*
X013058Y019583D01*
X013161Y019686D02*
X013641Y019686D01*
X013641Y019764D02*
X013208Y019764D01*
X013241Y019843D02*
X013641Y019843D01*
X013641Y019921D02*
X013256Y019921D01*
X013256Y020000D02*
X013641Y020000D01*
X013641Y020078D02*
X013249Y020078D01*
X013216Y020157D02*
X013641Y020157D01*
X013641Y020235D02*
X013180Y020235D01*
X013101Y020314D02*
X013641Y020314D01*
X013641Y020392D02*
X012973Y020392D01*
X013641Y020471D02*
X011718Y020471D01*
X011718Y020549D02*
X013641Y020549D01*
X013641Y020628D02*
X011718Y020628D01*
X011718Y020706D02*
X013641Y020706D01*
X013641Y020785D02*
X011718Y020785D01*
X011718Y020863D02*
X013641Y020863D01*
X013641Y020942D02*
X011718Y020942D01*
X011718Y021020D02*
X013641Y021020D01*
X013641Y021099D02*
X011718Y021099D01*
X011719Y021177D02*
X013641Y021177D01*
X013641Y021256D02*
X011782Y021256D01*
X011814Y021334D02*
X013641Y021334D01*
X013641Y021413D02*
X011817Y021413D01*
X011803Y021491D02*
X013641Y021491D01*
X013641Y021570D02*
X011770Y021570D01*
X011691Y021648D02*
X013641Y021648D01*
X013641Y021727D02*
X010891Y021727D01*
X010891Y021805D02*
X012913Y021805D01*
X012893Y021884D02*
X010891Y021884D01*
X010891Y021962D02*
X012893Y021962D01*
X012893Y022041D02*
X010891Y022041D01*
X010891Y022119D02*
X012893Y022119D01*
X012937Y022198D02*
X010891Y022198D01*
X010891Y022276D02*
X011198Y022276D01*
X011161Y022355D02*
X010891Y022355D01*
X010891Y022433D02*
X011161Y022433D01*
X011161Y022512D02*
X010891Y022512D01*
X010891Y022590D02*
X011161Y022590D01*
X011161Y022669D02*
X010891Y022669D01*
X010891Y022747D02*
X011227Y022747D01*
X011161Y022826D02*
X010891Y022826D01*
X010891Y022904D02*
X011161Y022904D01*
X011161Y022983D02*
X010891Y022983D01*
X010891Y023061D02*
X011161Y023061D01*
X011161Y023140D02*
X010891Y023140D01*
X010891Y023218D02*
X011198Y023218D01*
X011177Y023297D02*
X010891Y023297D01*
X010891Y023375D02*
X011161Y023375D01*
X011161Y023454D02*
X010891Y023454D01*
X010891Y023532D02*
X011161Y023532D01*
X011161Y023611D02*
X010891Y023611D01*
X010891Y023689D02*
X011169Y023689D01*
X011247Y023768D02*
X010891Y023768D01*
X010891Y023846D02*
X012302Y023846D01*
X012302Y023768D02*
X012261Y023768D01*
X012304Y023925D02*
X010891Y023925D01*
X010940Y024003D02*
X012383Y024003D01*
X012478Y023375D02*
X013641Y023375D01*
X013641Y023297D02*
X012331Y023297D01*
X012384Y022502D02*
X012699Y022502D01*
X012384Y022502D02*
X011758Y022502D01*
X011754Y022498D01*
X011345Y021648D02*
X010891Y021648D01*
X010891Y021570D02*
X011266Y021570D01*
X011233Y021491D02*
X010891Y021491D01*
X010891Y021413D02*
X011219Y021413D01*
X011221Y021334D02*
X010891Y021334D01*
X010891Y021256D02*
X011254Y021256D01*
X011317Y021177D02*
X010891Y021177D01*
X010891Y021099D02*
X011318Y021099D01*
X011318Y021020D02*
X010891Y021020D01*
X010891Y020942D02*
X011318Y020942D01*
X011318Y020863D02*
X010891Y020863D01*
X010941Y020785D02*
X011318Y020785D01*
X011318Y020706D02*
X010969Y020706D01*
X010969Y020628D02*
X011318Y020628D01*
X011318Y020549D02*
X010969Y020549D01*
X011009Y020471D02*
X011318Y020471D01*
X011318Y020392D02*
X011009Y020392D01*
X011009Y020314D02*
X011318Y020314D01*
X011318Y020235D02*
X011009Y020235D01*
X010974Y020157D02*
X011318Y020157D01*
X011318Y020078D02*
X010969Y020078D01*
X010969Y020000D02*
X011318Y020000D01*
X011318Y019921D02*
X010969Y019921D01*
X010898Y019843D02*
X011318Y019843D01*
X011318Y019764D02*
X010958Y019764D01*
X010691Y019628D02*
X010691Y020100D01*
X008801Y020100D01*
X008801Y019706D02*
X008801Y019313D01*
X008762Y019273D01*
X008555Y019058D02*
X007710Y019058D01*
X007632Y019136D02*
X008495Y019136D01*
X008463Y019215D02*
X007553Y019215D01*
X007475Y019293D02*
X008463Y019293D01*
X008480Y019372D02*
X007396Y019372D01*
X007318Y019450D02*
X007965Y019450D01*
X007933Y019529D02*
X007239Y019529D01*
X007161Y019607D02*
X007933Y019607D01*
X007933Y019686D02*
X007082Y019686D01*
X007004Y019764D02*
X007933Y019764D01*
X007933Y019843D02*
X006925Y019843D01*
X006847Y019921D02*
X008003Y019921D01*
X007952Y020000D02*
X006768Y020000D01*
X006690Y020078D02*
X007952Y020078D01*
X007952Y020157D02*
X006611Y020157D01*
X006533Y020235D02*
X007952Y020235D01*
X007933Y020314D02*
X006454Y020314D01*
X006376Y020392D02*
X007933Y020392D01*
X007933Y020471D02*
X006297Y020471D01*
X006219Y020549D02*
X007933Y020549D01*
X007933Y020628D02*
X006140Y020628D01*
X006062Y020706D02*
X007933Y020706D01*
X007933Y020785D02*
X005983Y020785D01*
X005905Y020863D02*
X007961Y020863D01*
X007992Y020942D02*
X005826Y020942D01*
X005748Y021020D02*
X007992Y021020D01*
X007992Y021099D02*
X004260Y021099D01*
X004253Y021102D02*
X004058Y021102D01*
X003878Y021027D01*
X003740Y020889D01*
X003666Y020709D01*
X003666Y020514D01*
X003740Y020334D01*
X003878Y020196D01*
X004058Y020122D01*
X004253Y020122D01*
X004433Y020196D01*
X004571Y020334D01*
X004646Y020514D01*
X004646Y020709D01*
X004571Y020889D01*
X004433Y021027D01*
X004253Y021102D01*
X004051Y021099D02*
X002292Y021099D01*
X002285Y021102D02*
X002090Y021102D01*
X001910Y021027D01*
X001772Y020889D01*
X001697Y020709D01*
X001697Y020514D01*
X001772Y020334D01*
X001910Y020196D01*
X002090Y020122D01*
X002285Y020122D01*
X002465Y020196D01*
X002603Y020334D01*
X002677Y020514D01*
X002677Y020709D01*
X002603Y020889D01*
X002465Y021027D01*
X002285Y021102D01*
X002472Y021020D02*
X003871Y021020D01*
X003793Y020942D02*
X002550Y020942D01*
X002613Y020863D02*
X003730Y020863D01*
X003697Y020785D02*
X002646Y020785D01*
X002677Y020706D02*
X003666Y020706D01*
X003666Y020628D02*
X002677Y020628D01*
X002677Y020549D02*
X003666Y020549D01*
X003684Y020471D02*
X002659Y020471D01*
X002627Y020392D02*
X003716Y020392D01*
X003761Y020314D02*
X002582Y020314D01*
X002504Y020235D02*
X003839Y020235D01*
X003973Y020157D02*
X002370Y020157D01*
X002005Y020157D02*
X000379Y020157D01*
X000379Y020235D02*
X001871Y020235D01*
X001792Y020314D02*
X000379Y020314D01*
X000379Y020392D02*
X001748Y020392D01*
X001715Y020471D02*
X000379Y020471D01*
X000379Y020549D02*
X001697Y020549D01*
X001697Y020628D02*
X000379Y020628D01*
X000379Y020706D02*
X001697Y020706D01*
X001729Y020785D02*
X000379Y020785D01*
X000379Y020863D02*
X001761Y020863D01*
X001824Y020942D02*
X000379Y020942D01*
X000379Y021020D02*
X001903Y021020D01*
X002083Y021099D02*
X000379Y021099D01*
X000379Y021177D02*
X007992Y021177D01*
X007972Y021256D02*
X000379Y021256D01*
X000379Y021334D02*
X007972Y021334D01*
X007972Y021413D02*
X000379Y021413D01*
X000379Y021491D02*
X007972Y021491D01*
X007972Y021570D02*
X000379Y021570D01*
X000379Y021648D02*
X007962Y021648D01*
X007884Y021727D02*
X000379Y021727D01*
X000379Y021805D02*
X007805Y021805D01*
X007727Y021884D02*
X000379Y021884D01*
X000379Y021962D02*
X007648Y021962D01*
X008211Y022580D02*
X008723Y022580D01*
X009471Y022261D02*
X009707Y022498D01*
X009471Y022261D02*
X009471Y022187D01*
X009077Y020966D02*
X008683Y020966D01*
X008644Y020927D01*
X009077Y020966D02*
X009353Y020691D01*
X009707Y020691D01*
X010179Y020691D01*
X010297Y020572D01*
X010691Y020572D01*
X010691Y023368D01*
X011176Y024239D02*
X011235Y024239D01*
X011161Y025338D02*
X010300Y025338D01*
X010300Y025416D02*
X011161Y025416D01*
X011161Y025495D02*
X010300Y025495D01*
X010300Y025573D02*
X011161Y025573D01*
X011161Y025652D02*
X010300Y025652D01*
X010252Y025730D02*
X011210Y025730D01*
X010006Y025887D02*
X013641Y025887D01*
X013641Y025809D02*
X009998Y025809D01*
X009998Y025966D02*
X013641Y025966D01*
X013641Y026044D02*
X009965Y026044D01*
X009894Y026123D02*
X013641Y026123D01*
X013641Y026201D02*
X000379Y026201D01*
X000379Y026123D02*
X009520Y026123D01*
X009449Y026044D02*
X000379Y026044D01*
X000379Y025966D02*
X009416Y025966D01*
X009707Y025887D02*
X009707Y025498D01*
X011518Y021399D02*
X011518Y017895D01*
X010809Y017187D01*
X010809Y016517D01*
X010534Y016242D01*
X009116Y016242D01*
X008408Y015533D01*
X008408Y014076D01*
X009786Y012698D01*
X010297Y012698D01*
X010111Y012935D02*
X009832Y012935D01*
X009754Y013013D02*
X010314Y013013D01*
X010314Y013092D02*
X009675Y013092D01*
X009597Y013170D02*
X010338Y013170D01*
X010386Y013249D02*
X009518Y013249D01*
X009440Y013327D02*
X010495Y013327D01*
X010701Y012228D02*
X011830Y012228D01*
X011830Y012150D02*
X010622Y012150D01*
X010544Y012071D02*
X011830Y012071D01*
X011830Y011993D02*
X010465Y011993D01*
X010387Y011914D02*
X011830Y011914D01*
X011830Y011836D02*
X008923Y011836D01*
X008923Y011757D02*
X011830Y011757D01*
X011830Y011679D02*
X011770Y011619D01*
X011695Y011619D01*
X011585Y011574D01*
X011501Y011490D01*
X011455Y011380D01*
X011455Y011261D01*
X011501Y011151D01*
X011585Y011067D01*
X011695Y011022D01*
X011814Y011022D01*
X011923Y011067D01*
X012007Y011151D01*
X012053Y011261D01*
X012053Y011336D01*
X012230Y011513D01*
X012230Y013521D01*
X012516Y013807D01*
X012662Y013746D01*
X013445Y013746D01*
X013614Y013816D01*
X013641Y013844D01*
X013641Y013569D01*
X013614Y013596D01*
X013445Y013666D01*
X012662Y013666D01*
X012493Y013596D01*
X012363Y013467D01*
X012293Y013298D01*
X012293Y013115D01*
X012363Y012946D01*
X012493Y012816D01*
X012662Y012746D01*
X013445Y012746D01*
X013614Y012816D01*
X013641Y012844D01*
X013641Y012435D01*
X013614Y012462D01*
X013445Y012532D01*
X012662Y012532D01*
X012493Y012462D01*
X012363Y012333D01*
X012293Y012164D01*
X012293Y011981D01*
X012363Y011812D01*
X012493Y011683D01*
X012662Y011612D01*
X013445Y011612D01*
X013614Y011683D01*
X013641Y011710D01*
X013641Y011435D01*
X013614Y011462D01*
X013445Y011532D01*
X012662Y011532D01*
X012493Y011462D01*
X012363Y011333D01*
X012293Y011164D01*
X012293Y010981D01*
X012363Y010812D01*
X012493Y010683D01*
X012662Y010612D01*
X013445Y010612D01*
X013614Y010683D01*
X013641Y010710D01*
X013641Y010435D01*
X013614Y010462D01*
X013445Y010532D01*
X012662Y010532D01*
X012493Y010462D01*
X012363Y010333D01*
X012293Y010164D01*
X012293Y009981D01*
X012363Y009812D01*
X012493Y009683D01*
X012662Y009612D01*
X013445Y009612D01*
X013614Y009683D01*
X013641Y009710D01*
X013641Y009435D01*
X013614Y009462D01*
X013445Y009532D01*
X012662Y009532D01*
X012493Y009462D01*
X012427Y009396D01*
X012427Y009632D01*
X011403Y010655D01*
X011286Y010772D01*
X010852Y010772D01*
X010872Y010820D01*
X010872Y010955D01*
X010820Y011079D01*
X010725Y011174D01*
X010601Y011226D01*
X010561Y011226D01*
X010247Y011540D01*
X010152Y011579D01*
X009872Y011579D01*
X009852Y011599D01*
X009483Y011599D01*
X009463Y011579D01*
X009394Y011579D01*
X009394Y011623D01*
X009301Y011717D01*
X009394Y011600D02*
X011649Y011600D01*
X011533Y011522D02*
X010265Y011522D01*
X010343Y011443D02*
X011482Y011443D01*
X011455Y011365D02*
X010422Y011365D01*
X010500Y011286D02*
X011455Y011286D01*
X011477Y011208D02*
X010643Y011208D01*
X010770Y011129D02*
X011523Y011129D01*
X011624Y011051D02*
X010832Y011051D01*
X010864Y010972D02*
X012297Y010972D01*
X012293Y011051D02*
X011884Y011051D01*
X011986Y011129D02*
X012293Y011129D01*
X012312Y011208D02*
X012031Y011208D01*
X012053Y011286D02*
X012344Y011286D01*
X012395Y011365D02*
X012081Y011365D01*
X012160Y011443D02*
X012474Y011443D01*
X012636Y011522D02*
X012230Y011522D01*
X012230Y011600D02*
X013641Y011600D01*
X013641Y011522D02*
X013470Y011522D01*
X013633Y011443D02*
X013641Y011443D01*
X013641Y011679D02*
X013605Y011679D01*
X013610Y012464D02*
X013641Y012464D01*
X013641Y012542D02*
X012230Y012542D01*
X012230Y012464D02*
X012496Y012464D01*
X012416Y012385D02*
X012230Y012385D01*
X012230Y012307D02*
X012353Y012307D01*
X012320Y012228D02*
X012230Y012228D01*
X012230Y012150D02*
X012293Y012150D01*
X012293Y012071D02*
X012230Y012071D01*
X012230Y011993D02*
X012293Y011993D01*
X012321Y011914D02*
X012230Y011914D01*
X012230Y011836D02*
X012353Y011836D01*
X012418Y011757D02*
X012230Y011757D01*
X012230Y011679D02*
X012501Y011679D01*
X012030Y011596D02*
X011754Y011321D01*
X012030Y011596D02*
X012030Y013604D01*
X012620Y014195D01*
X013042Y014195D01*
X013053Y014206D01*
X012536Y013798D02*
X012507Y013798D01*
X012429Y013720D02*
X013641Y013720D01*
X013641Y013798D02*
X013571Y013798D01*
X013505Y013641D02*
X013641Y013641D01*
X013641Y012778D02*
X013521Y012778D01*
X013641Y012699D02*
X012230Y012699D01*
X012230Y012621D02*
X013641Y012621D01*
X012586Y012778D02*
X012230Y012778D01*
X012230Y012856D02*
X012453Y012856D01*
X012374Y012935D02*
X012230Y012935D01*
X012230Y013013D02*
X012335Y013013D01*
X012303Y013092D02*
X012230Y013092D01*
X012230Y013170D02*
X012293Y013170D01*
X012293Y013249D02*
X012230Y013249D01*
X012230Y013327D02*
X012306Y013327D01*
X012338Y013406D02*
X012230Y013406D01*
X012230Y013484D02*
X012381Y013484D01*
X012459Y013563D02*
X012272Y013563D01*
X012350Y013641D02*
X012602Y013641D01*
X012148Y014155D02*
X011833Y013840D01*
X012148Y014155D02*
X012148Y015076D01*
X012266Y015195D01*
X011633Y015211D02*
X008608Y015211D01*
X008608Y015133D02*
X011633Y015133D01*
X011633Y015054D02*
X008608Y015054D01*
X008608Y014976D02*
X011633Y014976D01*
X011633Y014897D02*
X008608Y014897D01*
X008608Y014819D02*
X011633Y014819D01*
X011633Y014740D02*
X008608Y014740D01*
X008608Y014662D02*
X011633Y014662D01*
X011633Y014583D02*
X008608Y014583D01*
X008608Y014505D02*
X011633Y014505D01*
X011633Y014426D02*
X008608Y014426D01*
X008608Y014348D02*
X011625Y014348D01*
X011546Y014269D02*
X008608Y014269D01*
X008608Y014191D02*
X011468Y014191D01*
X011389Y014112D02*
X008655Y014112D01*
X008733Y014034D02*
X011311Y014034D01*
X011633Y015290D02*
X008608Y015290D01*
X008608Y015368D02*
X011633Y015368D01*
X011633Y015447D02*
X008608Y015447D01*
X008683Y015525D02*
X011633Y015525D01*
X011633Y015604D02*
X008761Y015604D01*
X008840Y015682D02*
X011633Y015682D01*
X011633Y015761D02*
X008918Y015761D01*
X008997Y015839D02*
X011633Y015839D01*
X011556Y015918D02*
X009075Y015918D01*
X009154Y015996D02*
X011555Y015996D01*
X011833Y016478D02*
X011833Y016872D01*
X011299Y017959D02*
X010528Y017959D01*
X010617Y017880D02*
X011220Y017880D01*
X011142Y017802D02*
X010657Y017802D01*
X010675Y017723D02*
X011063Y017723D01*
X010985Y017645D02*
X010675Y017645D01*
X010645Y017566D02*
X010906Y017566D01*
X010828Y017488D02*
X010588Y017488D01*
X010459Y017409D02*
X010749Y017409D01*
X010671Y017331D02*
X010305Y017331D01*
X010290Y017252D02*
X010609Y017252D01*
X010609Y017174D02*
X010399Y017174D01*
X010438Y017095D02*
X010609Y017095D01*
X010371Y018037D02*
X011318Y018037D01*
X011318Y018116D02*
X010438Y018116D01*
X010438Y018194D02*
X011318Y018194D01*
X011318Y018273D02*
X010438Y018273D01*
X010438Y018351D02*
X011318Y018351D01*
X011318Y018430D02*
X010438Y018430D01*
X010438Y018508D02*
X011318Y018508D01*
X011318Y018587D02*
X010438Y018587D01*
X010438Y018665D02*
X011318Y018665D01*
X011318Y018744D02*
X010438Y018744D01*
X010404Y018822D02*
X011318Y018822D01*
X011318Y018901D02*
X007867Y018901D01*
X007789Y018979D02*
X008691Y018979D01*
X008833Y018979D02*
X011318Y018979D01*
X011318Y019058D02*
X008969Y019058D01*
X009029Y019136D02*
X011318Y019136D01*
X011318Y019215D02*
X009061Y019215D01*
X009061Y019293D02*
X010681Y019293D01*
X010528Y019372D02*
X009045Y019372D01*
X009007Y019450D02*
X010446Y019450D01*
X010409Y019529D02*
X009067Y019529D01*
X009080Y019607D02*
X010392Y019607D01*
X010392Y019686D02*
X009080Y019686D01*
X009119Y019764D02*
X010425Y019764D01*
X010484Y019843D02*
X009119Y019843D01*
X008801Y019706D02*
X008447Y019706D01*
X008408Y019667D01*
X008211Y019667D01*
X008211Y020179D01*
X008457Y019450D02*
X008517Y019450D01*
X008976Y018744D02*
X008024Y018744D01*
X007946Y018822D02*
X009010Y018822D01*
X008976Y018665D02*
X008103Y018665D01*
X008181Y018587D02*
X008976Y018587D01*
X008976Y018508D02*
X008260Y018508D01*
X008338Y018430D02*
X008976Y018430D01*
X008942Y018351D02*
X008417Y018351D01*
X008495Y018273D02*
X008864Y018273D01*
X008789Y018194D02*
X008574Y018194D01*
X008652Y018116D02*
X008789Y018116D01*
X008789Y018037D02*
X008731Y018037D01*
X008223Y017142D02*
X008324Y017042D01*
X008455Y016987D01*
X008538Y016987D01*
X008578Y016948D01*
X008862Y016948D01*
X008912Y016899D01*
X008976Y016834D01*
X008976Y016451D01*
X009009Y016418D01*
X008411Y015819D01*
X008411Y016443D01*
X008294Y016560D01*
X008294Y016560D01*
X007427Y017427D01*
X007309Y017544D01*
X006835Y017544D01*
X006835Y017686D01*
X006747Y017775D01*
X007116Y017775D01*
X007209Y017868D01*
X007209Y018550D01*
X008169Y017590D01*
X008169Y017273D01*
X008223Y017142D01*
X008210Y017174D02*
X007680Y017174D01*
X007758Y017095D02*
X008270Y017095D01*
X008383Y017017D02*
X007837Y017017D01*
X007915Y016938D02*
X008872Y016938D01*
X008950Y016860D02*
X007994Y016860D01*
X008072Y016781D02*
X008976Y016781D01*
X008976Y016703D02*
X008151Y016703D01*
X008229Y016624D02*
X008976Y016624D01*
X008976Y016546D02*
X008308Y016546D01*
X008386Y016467D02*
X008976Y016467D01*
X008981Y016389D02*
X008411Y016389D01*
X008411Y016310D02*
X008902Y016310D01*
X008824Y016232D02*
X008411Y016232D01*
X008411Y016153D02*
X008745Y016153D01*
X008667Y016075D02*
X008411Y016075D01*
X008411Y015996D02*
X008588Y015996D01*
X008510Y015918D02*
X008411Y015918D01*
X008411Y015839D02*
X008431Y015839D01*
X008211Y016360D02*
X007227Y017344D01*
X006479Y017344D01*
X005416Y017344D01*
X005636Y017566D02*
X006122Y017566D01*
X006122Y017645D02*
X004807Y017645D01*
X004729Y017723D02*
X006159Y017723D01*
X006496Y017880D02*
X004671Y017880D01*
X004671Y017802D02*
X006562Y017802D01*
X006496Y017959D02*
X004671Y017959D01*
X004671Y018037D02*
X006496Y018037D01*
X006496Y018116D02*
X004701Y018116D01*
X004749Y018194D02*
X006496Y018194D01*
X006496Y018273D02*
X004749Y018273D01*
X004749Y018351D02*
X006496Y018351D01*
X006496Y018430D02*
X004749Y018430D01*
X004733Y018508D02*
X006073Y018508D01*
X005994Y018587D02*
X004749Y018587D01*
X004780Y018665D02*
X005959Y018665D01*
X005944Y018744D02*
X004858Y018744D01*
X004937Y018822D02*
X005944Y018822D01*
X005977Y018901D02*
X005015Y018901D01*
X005385Y018979D02*
X006038Y018979D01*
X006178Y019058D02*
X005465Y019058D01*
X005502Y019136D02*
X006623Y019136D01*
X006701Y019058D02*
X006307Y019058D01*
X006466Y019293D02*
X005517Y019293D01*
X005517Y019215D02*
X006544Y019215D01*
X006387Y019372D02*
X005485Y019372D01*
X005425Y019450D02*
X006309Y019450D01*
X006230Y019529D02*
X005287Y019529D01*
X005150Y019529D02*
X001505Y019529D01*
X001498Y019532D02*
X001301Y019532D01*
X001120Y019456D01*
X000981Y019317D01*
X000905Y019135D01*
X000905Y018939D01*
X000981Y018757D01*
X001120Y018618D01*
X001301Y018542D01*
X001498Y018542D01*
X001680Y018618D01*
X001819Y018757D01*
X001894Y018939D01*
X001894Y019135D01*
X001819Y019317D01*
X001680Y019456D01*
X001498Y019532D01*
X001295Y019529D02*
X000379Y019529D01*
X000379Y019607D02*
X006152Y019607D01*
X006073Y019686D02*
X000379Y019686D01*
X000379Y019764D02*
X005995Y019764D01*
X005916Y019843D02*
X000379Y019843D01*
X000379Y019921D02*
X005838Y019921D01*
X005759Y020000D02*
X000379Y020000D01*
X000379Y020078D02*
X005681Y020078D01*
X005602Y020157D02*
X004338Y020157D01*
X004472Y020235D02*
X005524Y020235D01*
X005445Y020314D02*
X004551Y020314D01*
X004595Y020392D02*
X005367Y020392D01*
X005288Y020471D02*
X004628Y020471D01*
X004646Y020549D02*
X005222Y020549D01*
X005190Y020628D02*
X004646Y020628D01*
X004646Y020706D02*
X005177Y020706D01*
X005177Y020785D02*
X004614Y020785D01*
X004582Y020863D02*
X005203Y020863D01*
X005241Y020942D02*
X004519Y020942D01*
X004440Y021020D02*
X005320Y021020D01*
X004834Y019450D02*
X001686Y019450D01*
X001764Y019372D02*
X004755Y019372D01*
X004677Y019293D02*
X001829Y019293D01*
X001862Y019215D02*
X004598Y019215D01*
X004520Y019136D02*
X001894Y019136D01*
X001894Y019058D02*
X004441Y019058D01*
X004285Y018979D02*
X001894Y018979D01*
X001879Y018901D02*
X004207Y018901D01*
X004193Y018822D02*
X001846Y018822D01*
X001806Y018744D02*
X004193Y018744D01*
X004193Y018665D02*
X001728Y018665D01*
X001606Y018587D02*
X004193Y018587D01*
X004208Y018508D02*
X000379Y018508D01*
X000379Y018430D02*
X004193Y018430D01*
X004193Y018351D02*
X000379Y018351D01*
X000379Y018273D02*
X004193Y018273D01*
X004193Y018194D02*
X000379Y018194D01*
X000379Y018116D02*
X004240Y018116D01*
X004271Y018037D02*
X000379Y018037D01*
X000379Y017959D02*
X004271Y017959D01*
X004271Y017880D02*
X000379Y017880D01*
X000379Y017802D02*
X002244Y017802D01*
X002166Y017723D02*
X000379Y017723D01*
X000379Y017645D02*
X002087Y017645D01*
X002009Y017566D02*
X000379Y017566D01*
X000379Y017488D02*
X001930Y017488D01*
X001852Y017409D02*
X000379Y017409D01*
X000379Y017331D02*
X001773Y017331D01*
X001695Y017252D02*
X000379Y017252D01*
X000379Y017174D02*
X001616Y017174D01*
X001868Y016860D02*
X006987Y016860D01*
X006967Y016781D02*
X001891Y016781D01*
X001894Y016703D02*
X006967Y016703D01*
X006996Y016624D02*
X001894Y016624D01*
X001882Y016546D02*
X007051Y016546D01*
X007066Y016467D02*
X001849Y016467D01*
X001813Y016389D02*
X007066Y016389D01*
X007066Y016310D02*
X001735Y016310D01*
X001623Y016232D02*
X007072Y016232D01*
X007150Y016153D02*
X000379Y016153D01*
X000379Y016075D02*
X007229Y016075D01*
X007307Y015996D02*
X000379Y015996D01*
X000379Y015918D02*
X001131Y015918D01*
X001120Y015913D02*
X000981Y015774D01*
X000905Y015592D01*
X000905Y015395D01*
X000981Y015214D01*
X001120Y015074D01*
X001301Y014999D01*
X001498Y014999D01*
X001680Y015074D01*
X001819Y015214D01*
X001894Y015395D01*
X001894Y015592D01*
X001819Y015774D01*
X001680Y015913D01*
X001498Y015988D01*
X001301Y015988D01*
X001120Y015913D01*
X001046Y015839D02*
X000379Y015839D01*
X000379Y015761D02*
X000975Y015761D01*
X000943Y015682D02*
X000379Y015682D01*
X000379Y015604D02*
X000910Y015604D01*
X000905Y015525D02*
X000379Y015525D01*
X000379Y015447D02*
X000905Y015447D01*
X000916Y015368D02*
X000379Y015368D01*
X000379Y015290D02*
X000949Y015290D01*
X000983Y015211D02*
X000379Y015211D01*
X000379Y015133D02*
X001061Y015133D01*
X001168Y015054D02*
X000379Y015054D01*
X000379Y014976D02*
X007775Y014976D01*
X007775Y015054D02*
X001632Y015054D01*
X001739Y015133D02*
X007775Y015133D01*
X007775Y015211D02*
X001817Y015211D01*
X001851Y015290D02*
X007775Y015290D01*
X007775Y015368D02*
X001883Y015368D01*
X001894Y015447D02*
X007775Y015447D01*
X007775Y015525D02*
X001894Y015525D01*
X001890Y015604D02*
X007700Y015604D01*
X007621Y015682D02*
X001857Y015682D01*
X001825Y015761D02*
X007543Y015761D01*
X007464Y015839D02*
X001754Y015839D01*
X001668Y015918D02*
X007386Y015918D01*
X007266Y016321D02*
X007975Y015612D01*
X007975Y013840D01*
X008408Y013407D01*
X008408Y011006D01*
X007030Y009628D01*
X006754Y009903D02*
X006754Y009234D01*
X006455Y009231D02*
X006455Y009174D01*
X006462Y009158D01*
X006317Y009158D01*
X006081Y008922D01*
X005964Y008805D01*
X005964Y008774D02*
X005182Y008774D01*
X005261Y008853D02*
X005261Y009222D01*
X005349Y009133D01*
X006033Y009133D01*
X006127Y009227D01*
X006127Y009290D01*
X006137Y009290D01*
X006196Y009231D01*
X006455Y009231D01*
X006459Y009167D02*
X006067Y009167D01*
X006127Y009245D02*
X006182Y009245D01*
X006247Y009088D02*
X005261Y009088D01*
X005261Y009010D02*
X006169Y009010D01*
X006090Y008931D02*
X005261Y008931D01*
X005261Y009167D02*
X005315Y009167D01*
X005256Y009384D02*
X005167Y009473D01*
X005124Y009473D01*
X005124Y009569D01*
X005078Y009679D01*
X004994Y009763D01*
X004884Y009808D01*
X004766Y009808D01*
X004656Y009763D01*
X004572Y009679D01*
X004526Y009569D01*
X004526Y009473D01*
X004483Y009473D01*
X004389Y009379D01*
X004389Y008903D01*
X004293Y008903D01*
X004187Y008859D01*
X004163Y008882D01*
X003946Y008882D01*
X003907Y008921D01*
X003805Y008921D01*
X003805Y009081D01*
X003332Y009553D01*
X003332Y009841D01*
X003415Y009806D01*
X003660Y009561D01*
X003660Y009489D01*
X003706Y009380D01*
X003790Y009296D01*
X003899Y009250D01*
X004018Y009250D01*
X004128Y009296D01*
X004212Y009380D01*
X004258Y009489D01*
X004258Y009608D01*
X004212Y009718D01*
X004193Y009737D01*
X004178Y009774D01*
X004105Y009847D01*
X003953Y009999D01*
X004065Y009999D01*
X004123Y010058D01*
X004228Y010058D01*
X004306Y009979D01*
X004635Y009979D01*
X004668Y010012D01*
X004700Y009979D01*
X005029Y009979D01*
X005071Y010022D01*
X005089Y010004D01*
X005199Y009959D01*
X005318Y009959D01*
X005427Y010004D01*
X005511Y010088D01*
X005557Y010198D01*
X005557Y010317D01*
X005511Y010427D01*
X005427Y010511D01*
X005318Y010556D01*
X005199Y010556D01*
X005089Y010511D01*
X005071Y010493D01*
X005029Y010536D01*
X004700Y010536D01*
X004668Y010503D01*
X004635Y010536D01*
X004306Y010536D01*
X004228Y010458D01*
X004198Y010458D01*
X004198Y010560D01*
X004158Y010599D01*
X004158Y010806D01*
X004167Y010814D01*
X004218Y010938D01*
X004218Y011051D01*
X004219Y011051D01*
X004218Y011051D02*
X004227Y011042D01*
X004404Y011042D01*
X004444Y011003D01*
X004734Y011003D01*
X004773Y011042D01*
X004950Y011042D01*
X005019Y011111D01*
X005148Y011111D01*
X005270Y011234D01*
X005270Y011559D01*
X005295Y011584D01*
X005492Y011584D01*
X005492Y011530D01*
X005586Y011436D01*
X006269Y011436D01*
X006363Y011530D01*
X006363Y011899D01*
X006452Y011810D01*
X007135Y011810D01*
X007156Y011830D01*
X007207Y011809D01*
X007325Y011809D01*
X007435Y011855D01*
X007519Y011939D01*
X007565Y012048D01*
X007565Y012167D01*
X007519Y012277D01*
X007435Y012361D01*
X007325Y012407D01*
X007229Y012407D01*
X007229Y012430D01*
X007135Y012524D01*
X006452Y012524D01*
X006358Y012430D01*
X006358Y012061D01*
X006269Y012150D01*
X005586Y012150D01*
X005492Y012056D01*
X005492Y012002D01*
X005379Y012002D01*
X005379Y012135D01*
X005339Y012174D01*
X005339Y012351D01*
X005320Y012371D01*
X005320Y012631D01*
X005444Y012755D01*
X007936Y012755D01*
X008033Y012715D01*
X008152Y012715D01*
X008208Y012738D01*
X008208Y011088D01*
X007734Y010614D01*
X007348Y010614D01*
X007396Y010634D01*
X007480Y010718D01*
X007525Y010828D01*
X007525Y010947D01*
X007480Y011057D01*
X007396Y011141D01*
X007286Y011186D01*
X007167Y011186D01*
X007057Y011141D01*
X006973Y011057D01*
X006928Y010947D01*
X006928Y010872D01*
X006297Y010241D01*
X006198Y010142D01*
X006196Y010142D01*
X006102Y010048D01*
X006102Y009832D01*
X006082Y009812D01*
X006082Y009797D01*
X006033Y009847D01*
X005349Y009847D01*
X005256Y009753D01*
X005256Y009384D01*
X005256Y009402D02*
X005237Y009402D01*
X005256Y009481D02*
X005124Y009481D01*
X005124Y009559D02*
X005256Y009559D01*
X005256Y009638D02*
X005095Y009638D01*
X005041Y009716D02*
X005256Y009716D01*
X005298Y009795D02*
X004917Y009795D01*
X004734Y009795D02*
X004157Y009795D01*
X004213Y009716D02*
X004610Y009716D01*
X004555Y009638D02*
X004245Y009638D01*
X004258Y009559D02*
X004526Y009559D01*
X004526Y009481D02*
X004254Y009481D01*
X004222Y009402D02*
X004413Y009402D01*
X004389Y009324D02*
X004156Y009324D01*
X004389Y009245D02*
X003640Y009245D01*
X003718Y009167D02*
X004389Y009167D01*
X004389Y009088D02*
X003797Y009088D01*
X003805Y009010D02*
X004389Y009010D01*
X004389Y008931D02*
X003805Y008931D01*
X003761Y009324D02*
X003561Y009324D01*
X003483Y009402D02*
X003696Y009402D01*
X003664Y009481D02*
X003404Y009481D01*
X003332Y009559D02*
X003660Y009559D01*
X003583Y009638D02*
X003332Y009638D01*
X003332Y009716D02*
X003505Y009716D01*
X003426Y009795D02*
X003332Y009795D01*
X003723Y010258D02*
X003368Y010612D01*
X003368Y011714D01*
X002227Y012856D01*
X002542Y013132D02*
X001400Y013132D01*
X001053Y013484D02*
X000379Y013484D01*
X000379Y013406D02*
X000978Y013406D01*
X000946Y013327D02*
X000379Y013327D01*
X000379Y013249D02*
X000913Y013249D01*
X000905Y013170D02*
X000379Y013170D01*
X000379Y013092D02*
X000905Y013092D01*
X000913Y013013D02*
X000379Y013013D01*
X000379Y012935D02*
X000946Y012935D01*
X000978Y012856D02*
X000379Y012856D01*
X000379Y012778D02*
X001054Y012778D01*
X001149Y013563D02*
X000379Y013563D01*
X000379Y013641D02*
X007891Y013641D01*
X007969Y013563D02*
X001651Y013563D01*
X001746Y013484D02*
X008048Y013484D01*
X008126Y013406D02*
X001822Y013406D01*
X001641Y013877D02*
X007775Y013877D01*
X007775Y013955D02*
X001742Y013955D01*
X001680Y013893D02*
X001819Y014032D01*
X001894Y014214D01*
X001894Y014411D01*
X001819Y014593D01*
X001680Y014732D01*
X001498Y014807D01*
X001301Y014807D01*
X001120Y014732D01*
X000981Y014593D01*
X000905Y014411D01*
X000905Y014214D01*
X000981Y014032D01*
X001120Y013893D01*
X001301Y013818D01*
X001498Y013818D01*
X001680Y013893D01*
X001820Y014034D02*
X007775Y014034D01*
X007775Y014112D02*
X001852Y014112D01*
X001885Y014191D02*
X007775Y014191D01*
X007775Y014269D02*
X001894Y014269D01*
X001894Y014348D02*
X007775Y014348D01*
X007775Y014426D02*
X001888Y014426D01*
X001856Y014505D02*
X007775Y014505D01*
X007775Y014583D02*
X001823Y014583D01*
X001750Y014662D02*
X007775Y014662D01*
X007775Y014740D02*
X001660Y014740D01*
X001140Y014740D02*
X000379Y014740D01*
X000379Y014662D02*
X001050Y014662D01*
X000977Y014583D02*
X000379Y014583D01*
X000379Y014505D02*
X000944Y014505D01*
X000912Y014426D02*
X000379Y014426D01*
X000379Y014348D02*
X000905Y014348D01*
X000905Y014269D02*
X000379Y014269D01*
X000379Y014191D02*
X000915Y014191D01*
X000947Y014112D02*
X000379Y014112D01*
X000379Y014034D02*
X000980Y014034D01*
X001057Y013955D02*
X000379Y013955D01*
X000379Y013877D02*
X001159Y013877D01*
X000379Y013798D02*
X007775Y013798D01*
X007812Y013720D02*
X000379Y013720D01*
X000379Y014819D02*
X007775Y014819D01*
X007775Y014897D02*
X000379Y014897D01*
X000379Y016232D02*
X001176Y016232D01*
X001065Y016310D02*
X000379Y016310D01*
X000379Y016389D02*
X000986Y016389D01*
X000950Y016467D02*
X000379Y016467D01*
X000379Y016546D02*
X000918Y016546D01*
X000905Y016624D02*
X000379Y016624D01*
X000379Y016703D02*
X000905Y016703D01*
X000909Y016781D02*
X000379Y016781D01*
X000379Y016860D02*
X000941Y016860D01*
X000974Y016938D02*
X000379Y016938D01*
X000379Y017017D02*
X001042Y017017D01*
X001123Y017095D02*
X000379Y017095D01*
X000379Y018587D02*
X001194Y018587D01*
X001072Y018665D02*
X000379Y018665D01*
X000379Y018744D02*
X000993Y018744D01*
X000953Y018822D02*
X000379Y018822D01*
X000379Y018901D02*
X000921Y018901D01*
X000905Y018979D02*
X000379Y018979D01*
X000379Y019058D02*
X000905Y019058D01*
X000906Y019136D02*
X000379Y019136D01*
X000379Y019215D02*
X000938Y019215D01*
X000971Y019293D02*
X000379Y019293D01*
X000379Y019372D02*
X001035Y019372D01*
X001114Y019450D02*
X000379Y019450D01*
X002384Y017659D02*
X001400Y016675D01*
X001946Y016938D02*
X006186Y016938D01*
X006122Y017017D02*
X002025Y017017D01*
X002103Y017095D02*
X004828Y017095D01*
X004712Y017174D02*
X002182Y017174D01*
X002260Y017252D02*
X004634Y017252D01*
X004555Y017331D02*
X002339Y017331D01*
X002417Y017409D02*
X004477Y017409D01*
X004471Y017659D02*
X004471Y018328D01*
X004471Y017659D02*
X002384Y017659D01*
X004471Y017659D02*
X004510Y017659D01*
X004825Y017344D01*
X005022Y017344D01*
X005216Y017095D02*
X005221Y017095D01*
X005610Y017095D02*
X006122Y017095D01*
X006772Y016938D02*
X007028Y016938D01*
X007121Y017017D02*
X006835Y017017D01*
X006835Y017095D02*
X007192Y017095D01*
X007266Y016754D02*
X007266Y016321D01*
X007601Y017252D02*
X008178Y017252D01*
X008169Y017331D02*
X007523Y017331D01*
X007444Y017409D02*
X008169Y017409D01*
X008169Y017488D02*
X007366Y017488D01*
X007427Y017427D02*
X007427Y017427D01*
X007143Y017802D02*
X007957Y017802D01*
X007879Y017880D02*
X007209Y017880D01*
X007209Y017959D02*
X007800Y017959D01*
X007722Y018037D02*
X007209Y018037D01*
X007209Y018116D02*
X007643Y018116D01*
X007565Y018194D02*
X007209Y018194D01*
X007209Y018273D02*
X007486Y018273D01*
X007408Y018351D02*
X007209Y018351D01*
X007209Y018430D02*
X007329Y018430D01*
X007251Y018508D02*
X007209Y018508D01*
X006798Y017723D02*
X008036Y017723D01*
X008114Y017645D02*
X006835Y017645D01*
X006835Y017566D02*
X008169Y017566D01*
X008211Y016360D02*
X008211Y013958D01*
X010061Y012108D01*
X010872Y010894D02*
X012329Y010894D01*
X012362Y010815D02*
X010870Y010815D01*
X011148Y010344D02*
X010339Y010344D01*
X010339Y010266D02*
X011227Y010266D01*
X011305Y010187D02*
X010609Y010187D01*
X010688Y010109D02*
X011384Y010109D01*
X011462Y010030D02*
X010729Y010030D01*
X010754Y009952D02*
X011541Y009952D01*
X011619Y009873D02*
X010754Y009873D01*
X010737Y009795D02*
X011698Y009795D01*
X011776Y009716D02*
X010704Y009716D01*
X010688Y009638D02*
X011855Y009638D01*
X011933Y009559D02*
X010656Y009559D01*
X010867Y009481D02*
X012012Y009481D01*
X012027Y009402D02*
X010891Y009402D01*
X010891Y009324D02*
X012027Y009324D01*
X012027Y009245D02*
X010891Y009245D01*
X010891Y009167D02*
X012027Y009167D01*
X012427Y009402D02*
X012433Y009402D01*
X012427Y009481D02*
X012537Y009481D01*
X012427Y009559D02*
X013641Y009559D01*
X013641Y009481D02*
X013569Y009481D01*
X013506Y009638D02*
X013641Y009638D01*
X013641Y010501D02*
X013520Y010501D01*
X013641Y010580D02*
X011478Y010580D01*
X011400Y010658D02*
X012551Y010658D01*
X012438Y010737D02*
X011321Y010737D01*
X011557Y010501D02*
X012587Y010501D01*
X012453Y010423D02*
X011635Y010423D01*
X011714Y010344D02*
X012375Y010344D01*
X012336Y010266D02*
X011792Y010266D01*
X011871Y010187D02*
X012303Y010187D01*
X012293Y010109D02*
X011949Y010109D01*
X012028Y010030D02*
X012293Y010030D01*
X012305Y009952D02*
X012106Y009952D01*
X012185Y009873D02*
X012338Y009873D01*
X012380Y009795D02*
X012263Y009795D01*
X012342Y009716D02*
X012459Y009716D01*
X012420Y009638D02*
X012600Y009638D01*
X013556Y010658D02*
X013641Y010658D01*
X012227Y007265D02*
X011223Y006261D01*
X008821Y006261D01*
X009072Y006576D02*
X007267Y006576D01*
X007620Y006832D02*
X007797Y007009D01*
X007797Y007482D01*
X007816Y007518D02*
X008173Y007518D01*
X008191Y007482D02*
X008191Y006734D01*
X008093Y006635D01*
X008093Y006754D01*
X008171Y006832D01*
X007994Y006655D02*
X007896Y006557D01*
X007994Y006655D02*
X007994Y007482D01*
X007816Y007440D02*
X008173Y007440D01*
X008173Y007361D02*
X007816Y007361D01*
X007787Y007283D02*
X008202Y007283D01*
X008281Y007204D02*
X007708Y007204D01*
X007816Y007597D02*
X008173Y007597D01*
X008188Y007675D02*
X007792Y007675D01*
X007714Y007754D02*
X008188Y007754D01*
X008158Y007832D02*
X008219Y007832D01*
X008388Y007718D02*
X008526Y007856D01*
X008290Y008092D01*
X007975Y008092D01*
X008093Y008604D02*
X009156Y008604D01*
X009392Y008368D01*
X009392Y007620D01*
X009182Y007832D02*
X008982Y007832D01*
X009046Y007897D02*
X009050Y007893D01*
X009192Y007893D01*
X009192Y007842D01*
X009139Y007789D01*
X009093Y007679D01*
X009093Y007560D01*
X009139Y007450D01*
X009144Y007446D01*
X009006Y007446D01*
X008991Y007461D01*
X008651Y007461D01*
X008603Y007413D01*
X008603Y007650D01*
X008609Y007656D01*
X008806Y007656D01*
X009046Y007897D01*
X009124Y007754D02*
X008904Y007754D01*
X008825Y007675D02*
X009093Y007675D01*
X009093Y007597D02*
X008603Y007597D01*
X008603Y007518D02*
X009111Y007518D01*
X009254Y007246D02*
X009333Y007167D01*
X009294Y007128D02*
X009215Y007049D01*
X008821Y007049D01*
X008821Y007246D02*
X009254Y007246D01*
X009215Y006852D02*
X009234Y006832D01*
X009215Y006852D02*
X008821Y006852D01*
X008630Y007440D02*
X008603Y007440D01*
X008388Y007482D02*
X008388Y007718D01*
X008526Y007856D02*
X008723Y007856D01*
X009038Y008171D01*
X009038Y008250D01*
X009589Y009313D02*
X008368Y009313D01*
X007778Y010658D02*
X007420Y010658D01*
X007488Y010737D02*
X007856Y010737D01*
X007935Y010815D02*
X007520Y010815D01*
X007525Y010894D02*
X008013Y010894D01*
X008092Y010972D02*
X007515Y010972D01*
X007482Y011051D02*
X008170Y011051D01*
X008208Y011129D02*
X007407Y011129D01*
X007227Y010887D02*
X006380Y010041D01*
X006380Y009884D01*
X006163Y010109D02*
X005520Y010109D01*
X005552Y010187D02*
X006244Y010187D01*
X006322Y010266D02*
X005557Y010266D01*
X005545Y010344D02*
X006401Y010344D01*
X006479Y010423D02*
X005513Y010423D01*
X005437Y010501D02*
X006558Y010501D01*
X006636Y010580D02*
X004178Y010580D01*
X004158Y010658D02*
X006715Y010658D01*
X006793Y010737D02*
X004158Y010737D01*
X004167Y010815D02*
X006872Y010815D01*
X006928Y010894D02*
X004200Y010894D01*
X004218Y010972D02*
X006938Y010972D01*
X006971Y011051D02*
X004959Y011051D01*
X005166Y011129D02*
X007046Y011129D01*
X007390Y011836D02*
X008208Y011836D01*
X008208Y011914D02*
X007495Y011914D01*
X007542Y011993D02*
X008208Y011993D01*
X008208Y012071D02*
X007565Y012071D01*
X007565Y012150D02*
X008208Y012150D01*
X008208Y012228D02*
X007539Y012228D01*
X007489Y012307D02*
X008208Y012307D01*
X008208Y012385D02*
X007377Y012385D01*
X007195Y012464D02*
X008208Y012464D01*
X008208Y012542D02*
X005320Y012542D01*
X005320Y012464D02*
X006392Y012464D01*
X006358Y012385D02*
X005320Y012385D01*
X005339Y012307D02*
X006358Y012307D01*
X006358Y012228D02*
X005339Y012228D01*
X005364Y012150D02*
X006358Y012150D01*
X006348Y012071D02*
X006358Y012071D01*
X006363Y011836D02*
X006426Y011836D01*
X006363Y011757D02*
X008208Y011757D01*
X008208Y011679D02*
X006363Y011679D01*
X006363Y011600D02*
X008208Y011600D01*
X008208Y011522D02*
X006355Y011522D01*
X006277Y011443D02*
X008208Y011443D01*
X008208Y011365D02*
X005270Y011365D01*
X005270Y011443D02*
X005578Y011443D01*
X005500Y011522D02*
X005270Y011522D01*
X005270Y011286D02*
X008208Y011286D01*
X008208Y011208D02*
X005245Y011208D01*
X005080Y010501D02*
X005063Y010501D01*
X005258Y010258D02*
X004864Y010258D01*
X004471Y010258D02*
X003880Y010258D01*
X003723Y010258D01*
X004000Y009952D02*
X006102Y009952D01*
X006102Y010030D02*
X005454Y010030D01*
X005691Y009490D02*
X006380Y009490D01*
X006102Y009873D02*
X004079Y009873D01*
X004096Y010030D02*
X004255Y010030D01*
X004272Y010501D02*
X004198Y010501D01*
X004156Y011321D02*
X003959Y011517D01*
X003959Y011714D01*
X002542Y013132D01*
X002629Y013327D02*
X008205Y013327D01*
X008208Y012699D02*
X005388Y012699D01*
X005320Y012621D02*
X008208Y012621D01*
X007109Y010258D02*
X006754Y009903D01*
X005964Y008696D02*
X004638Y008696D01*
X004651Y008617D02*
X005964Y008617D01*
X005934Y008539D02*
X004649Y008539D01*
X004616Y008460D02*
X005265Y008460D01*
X005186Y008382D02*
X004553Y008382D01*
X004353Y008604D02*
X003998Y008604D01*
X004609Y007832D02*
X004901Y007832D01*
X004901Y007754D02*
X004782Y007754D01*
X004860Y007675D02*
X004901Y007675D01*
X004825Y009116D02*
X004825Y009509D01*
X004392Y011321D02*
X004156Y011321D01*
X004159Y011600D02*
X004271Y011600D01*
X004271Y011679D02*
X004159Y011679D01*
X004159Y011757D02*
X004327Y011757D01*
X004355Y011836D02*
X004120Y011836D01*
X004042Y011914D02*
X004370Y011914D01*
X004370Y011993D02*
X003963Y011993D01*
X003885Y012071D02*
X004370Y012071D01*
X004370Y012150D02*
X003806Y012150D01*
X003728Y012228D02*
X004370Y012228D01*
X004398Y012307D02*
X003649Y012307D01*
X003571Y012385D02*
X004462Y012385D01*
X004803Y012464D02*
X003492Y012464D01*
X003414Y012542D02*
X004803Y012542D01*
X004803Y012621D02*
X003335Y012621D01*
X003257Y012699D02*
X004803Y012699D01*
X004803Y012778D02*
X003178Y012778D01*
X003100Y012856D02*
X004831Y012856D01*
X004893Y012935D02*
X003021Y012935D01*
X002943Y013013D02*
X004971Y013013D01*
X005050Y013092D02*
X002864Y013092D01*
X002785Y013170D02*
X005128Y013170D01*
X005230Y013249D02*
X002707Y013249D01*
X005379Y012071D02*
X005507Y012071D01*
X008338Y005870D02*
X008525Y005870D01*
X008525Y005791D02*
X008406Y005791D01*
X008406Y005713D02*
X008591Y005713D01*
X008406Y005634D02*
X012407Y005634D01*
X012349Y005713D02*
X009051Y005713D01*
X009117Y005791D02*
X012316Y005791D01*
X012293Y005870D02*
X009117Y005870D01*
X009117Y005948D02*
X012293Y005948D01*
X012293Y006027D02*
X009117Y006027D01*
X008406Y005556D02*
X012486Y005556D01*
X012325Y006105D02*
X011349Y006105D01*
X011428Y006184D02*
X012357Y006184D01*
X012427Y006262D02*
X011506Y006262D01*
X011585Y006341D02*
X012523Y006341D01*
X012615Y006498D02*
X011742Y006498D01*
X011820Y006576D02*
X012465Y006576D01*
X012387Y006655D02*
X011899Y006655D01*
X011977Y006733D02*
X012340Y006733D01*
X011663Y006419D02*
X013641Y006419D01*
X013641Y006341D02*
X013584Y006341D01*
X013641Y006498D02*
X013491Y006498D01*
X013621Y005556D02*
X013641Y005556D01*
X013641Y005477D02*
X008406Y005477D01*
X008391Y005399D02*
X013641Y005399D01*
X013641Y005320D02*
X008431Y005320D01*
X008490Y005242D02*
X013641Y005242D01*
X013641Y005163D02*
X008490Y005163D01*
X008490Y005085D02*
X013641Y005085D01*
X013641Y005006D02*
X008490Y005006D01*
X008490Y004928D02*
X013641Y004928D01*
X013641Y004849D02*
X008490Y004849D01*
X008440Y004771D02*
X013641Y004771D01*
X013641Y004692D02*
X008372Y004692D01*
X008430Y004614D02*
X013641Y004614D01*
X013641Y004535D02*
X008430Y004535D01*
X008430Y004457D02*
X013641Y004457D01*
X013641Y004378D02*
X008430Y004378D01*
X008430Y004300D02*
X013641Y004300D01*
X013641Y004221D02*
X008430Y004221D01*
X008386Y004143D02*
X013641Y004143D01*
X013641Y002808D02*
X009155Y002808D01*
X009119Y002730D02*
X013641Y002730D01*
X013641Y002651D02*
X009119Y002651D01*
X009099Y002573D02*
X013641Y002573D01*
X013641Y002494D02*
X009094Y002494D01*
X009119Y002416D02*
X013641Y002416D01*
X013641Y002337D02*
X009119Y002337D01*
X009119Y002259D02*
X013641Y002259D01*
X013641Y002180D02*
X009119Y002180D01*
X008841Y002305D02*
X008841Y002777D01*
X009313Y003250D01*
X009510Y003515D02*
X010657Y003515D01*
X010657Y003593D02*
X009119Y003593D01*
X009119Y003672D02*
X010657Y003672D01*
X010657Y003750D02*
X009119Y003750D01*
X009119Y003829D02*
X010719Y003829D01*
X010797Y003907D02*
X009118Y003907D01*
X009039Y003986D02*
X010876Y003986D01*
X010657Y003436D02*
X009589Y003436D01*
X009591Y003358D02*
X010657Y003358D01*
X010661Y003279D02*
X009591Y003279D01*
X009591Y003201D02*
X010739Y003201D01*
X010818Y003122D02*
X009591Y003122D01*
X009570Y003044D02*
X010896Y003044D01*
X011524Y002102D02*
X013641Y002102D01*
X013641Y002023D02*
X011603Y002023D01*
X011681Y001945D02*
X013641Y001945D01*
X013641Y001866D02*
X011760Y001866D01*
X011827Y001788D02*
X013641Y001788D01*
X013641Y001709D02*
X011827Y001709D01*
X011827Y001631D02*
X013641Y001631D01*
X013641Y001552D02*
X011827Y001552D01*
X011827Y001474D02*
X013641Y001474D01*
X013641Y001395D02*
X011827Y001395D01*
X011827Y001317D02*
X013641Y001317D01*
X013641Y001238D02*
X011751Y001238D01*
X011673Y001160D02*
X013641Y001160D01*
X013641Y001081D02*
X011594Y001081D01*
X011516Y001003D02*
X013641Y001003D01*
X009589Y009313D02*
X010022Y009746D01*
X010022Y010258D01*
X008191Y005632D02*
X008191Y005277D01*
X008290Y005179D01*
X008290Y004903D01*
X008093Y004706D01*
X008093Y004411D01*
X007854Y004771D02*
X007584Y004771D01*
X007613Y004849D02*
X007724Y004849D01*
X007664Y004692D02*
X007813Y004692D01*
X007756Y004614D02*
X007721Y004614D01*
X007721Y004535D02*
X007756Y004535D01*
X007756Y004457D02*
X007721Y004457D01*
X007721Y004378D02*
X007756Y004378D01*
X007756Y004300D02*
X007721Y004300D01*
X007721Y004221D02*
X007756Y004221D01*
X007800Y004143D02*
X007677Y004143D01*
X007701Y003986D02*
X007776Y003986D01*
X007756Y003907D02*
X007721Y003907D01*
X007721Y003829D02*
X007756Y003829D01*
X007756Y003750D02*
X007721Y003750D01*
X007721Y003672D02*
X007756Y003672D01*
X007756Y003593D02*
X007721Y003593D01*
X007718Y003515D02*
X007759Y003515D01*
X007837Y003436D02*
X007640Y003436D01*
X008093Y003742D02*
X008821Y003742D01*
X008841Y003722D01*
X008841Y003250D01*
X008526Y003250D01*
X008410Y003986D02*
X008642Y003986D01*
X007384Y004903D02*
X007797Y005317D01*
X007797Y005632D01*
X007384Y004903D02*
X007384Y004411D01*
X007067Y003986D02*
X006717Y003986D01*
X006773Y003515D02*
X007050Y003515D01*
X006518Y003722D02*
X006518Y003250D01*
X006481Y002180D02*
X006788Y002180D01*
X006683Y002102D02*
X006481Y002102D01*
X006481Y002023D02*
X006611Y002023D01*
X006578Y001945D02*
X006481Y001945D01*
X006424Y001866D02*
X006546Y001866D01*
X006545Y001788D02*
X006324Y001788D01*
X006333Y001709D02*
X006545Y001709D01*
X006282Y001478D02*
X006046Y001714D01*
X006046Y001872D01*
X007217Y002180D02*
X007788Y002180D01*
X007683Y002102D02*
X007321Y002102D01*
X008841Y001911D02*
X008841Y001675D01*
X012576Y016860D02*
X012859Y016860D01*
X011942Y018587D02*
X011718Y018587D01*
X011718Y018665D02*
X011864Y018665D01*
X011805Y018744D02*
X011718Y018744D01*
X011718Y018822D02*
X011772Y018822D01*
X011749Y018901D02*
X011718Y018901D01*
X011718Y018979D02*
X011749Y018979D01*
X011749Y019058D02*
X011718Y019058D01*
X011718Y019136D02*
X011780Y019136D01*
X011812Y019215D02*
X011718Y019215D01*
X011718Y019293D02*
X011883Y019293D01*
X011982Y019372D02*
X011718Y019372D01*
X011718Y019450D02*
X013641Y019450D01*
X013641Y021805D02*
X013430Y021805D01*
X013450Y021884D02*
X013641Y021884D01*
X013641Y021962D02*
X013450Y021962D01*
X013450Y022041D02*
X013641Y022041D01*
X013641Y022119D02*
X013450Y022119D01*
X013406Y022198D02*
X013641Y022198D01*
X013641Y022276D02*
X013409Y022276D01*
X013450Y022355D02*
X013641Y022355D01*
X013641Y022433D02*
X013450Y022433D01*
X013450Y022512D02*
X013641Y022512D01*
X013641Y022590D02*
X013450Y022590D01*
X013450Y022669D02*
X013641Y022669D01*
X013641Y022747D02*
X013388Y022747D01*
X013447Y022826D02*
X013641Y022826D01*
X013641Y022904D02*
X013450Y022904D01*
X013450Y022983D02*
X013641Y022983D01*
X013641Y023061D02*
X013450Y023061D01*
X013450Y023140D02*
X013641Y023140D01*
X013641Y023218D02*
X013429Y023218D01*
X013171Y023013D02*
X013171Y022502D01*
X013171Y021990D01*
X013129Y023768D02*
X013641Y023768D01*
X013641Y023846D02*
X013207Y023846D01*
X013213Y023925D02*
X013641Y023925D01*
X013641Y024003D02*
X013213Y024003D01*
X013213Y024082D02*
X013641Y024082D01*
X013641Y024160D02*
X013213Y024160D01*
X013196Y024239D02*
X013641Y024239D01*
X013641Y024317D02*
X013135Y024317D01*
X013186Y024396D02*
X013641Y024396D01*
X013641Y024474D02*
X013213Y024474D01*
X013213Y024553D02*
X013641Y024553D01*
X013641Y024631D02*
X013213Y024631D01*
X013213Y024710D02*
X013641Y024710D01*
X013641Y024788D02*
X013185Y024788D01*
X013213Y024867D02*
X013641Y024867D01*
X013641Y024945D02*
X013213Y024945D01*
X013213Y025024D02*
X013641Y025024D01*
X013641Y025102D02*
X013213Y025102D01*
X013179Y025181D02*
X013641Y025181D01*
X013641Y025259D02*
X013136Y025259D01*
X013135Y025338D02*
X013641Y025338D01*
X013641Y025416D02*
X013103Y025416D01*
X013641Y026280D02*
X000379Y026280D01*
X000379Y024945D02*
X003613Y024945D01*
X003505Y024867D02*
X000379Y024867D01*
X000379Y024788D02*
X003427Y024788D01*
X003393Y024710D02*
X000379Y024710D01*
X000379Y024631D02*
X003361Y024631D01*
X003351Y024553D02*
X000379Y024553D01*
X000379Y024474D02*
X003351Y024474D01*
X003357Y024396D02*
X000379Y024396D01*
X000379Y024317D02*
X003390Y024317D01*
X003422Y024239D02*
X000379Y024239D01*
X000379Y024160D02*
X003497Y024160D01*
X003592Y024082D02*
X000379Y024082D01*
X009333Y018446D02*
X009648Y018446D01*
X009710Y018744D02*
X009724Y018744D01*
X009758Y018822D02*
X009656Y018822D01*
X011718Y019529D02*
X012077Y019529D01*
X011922Y019607D02*
X011718Y019607D01*
X011718Y019686D02*
X011843Y019686D01*
X011796Y019764D02*
X011718Y019764D01*
X011718Y019843D02*
X011764Y019843D01*
X011749Y019921D02*
X011718Y019921D01*
X011718Y020000D02*
X011749Y020000D01*
X011756Y020078D02*
X011718Y020078D01*
X011718Y020157D02*
X011788Y020157D01*
X011825Y020235D02*
X011718Y020235D01*
X011718Y020314D02*
X011903Y020314D01*
X012031Y020392D02*
X011718Y020392D01*
D30*
X011518Y021399D03*
X012384Y022502D03*
X012384Y022994D03*
X012384Y025002D03*
X012384Y025494D03*
X012837Y025277D03*
X010416Y024352D03*
X009707Y025887D03*
X009097Y025002D03*
X009077Y022974D03*
X009471Y022187D03*
X010691Y019628D03*
X010376Y017698D03*
X010494Y016793D03*
X009648Y018446D03*
X009274Y017659D03*
X008526Y017344D03*
X008762Y019273D03*
X007778Y019234D03*
X007384Y018092D03*
X007384Y017659D03*
X006951Y017659D03*
X007266Y016754D03*
X006242Y018761D03*
X005219Y019234D03*
X005534Y020730D03*
X004746Y022541D03*
X004746Y022935D03*
X004746Y023328D03*
X005652Y023328D03*
X006085Y023328D03*
X006538Y023919D03*
X007738Y023250D03*
X011833Y016872D03*
X012620Y017502D03*
X011833Y013840D03*
X011439Y013328D03*
X011439Y012935D03*
X011439Y012541D03*
X011046Y012935D03*
X010770Y012580D03*
X010612Y013053D03*
X010297Y012698D03*
X011046Y012147D03*
X011754Y011321D03*
X011912Y009313D03*
X011912Y008801D03*
X011912Y008289D03*
X011479Y008643D03*
X011479Y009037D03*
X010888Y008742D03*
X010809Y007029D03*
X010849Y006596D03*
X011203Y006832D03*
X010022Y007226D03*
X009392Y007620D03*
X009038Y008250D03*
X008920Y007580D03*
X009234Y006832D03*
X008171Y006832D03*
X007896Y006557D03*
X007620Y006832D03*
X007620Y006281D03*
X008171Y006281D03*
X007935Y005061D03*
X007109Y005021D03*
X006833Y005572D03*
X006518Y005258D03*
X006085Y006045D03*
X006518Y006852D03*
X006557Y006439D03*
X006675Y007580D03*
X006754Y009234D03*
X007030Y009628D03*
X007109Y010258D03*
X007227Y010887D03*
X006794Y011006D03*
X006597Y010691D03*
X006321Y011360D03*
X005927Y011360D03*
X005927Y012305D03*
X005927Y012659D03*
X006321Y012659D03*
X005494Y012659D03*
X004746Y012935D03*
X004746Y013525D03*
X004353Y014116D03*
X004353Y014706D03*
X003762Y014116D03*
X003171Y014903D03*
X003171Y015494D03*
X002581Y015494D03*
X002581Y016084D03*
X002581Y016675D03*
X002581Y017265D03*
X003171Y017265D03*
X002581Y014903D03*
X002581Y014313D03*
X001990Y015494D03*
X001990Y016084D03*
X001990Y016675D03*
X002227Y012856D03*
X002305Y012226D03*
X002660Y011439D03*
X003486Y010100D03*
X003959Y009549D03*
X004353Y008604D03*
X004825Y009509D03*
X005258Y010258D03*
X004628Y011714D03*
X005455Y006990D03*
X004353Y003998D03*
X003565Y002108D03*
X003565Y001517D03*
X003565Y000927D03*
X002975Y000927D03*
X002975Y001517D03*
X002975Y002108D03*
X002384Y001517D03*
X002384Y000927D03*
X001794Y002305D03*
X001794Y002895D03*
X001794Y003486D03*
X001794Y004076D03*
X001794Y004667D03*
X002384Y004667D03*
X002384Y005258D03*
X002384Y004076D03*
X002384Y003486D03*
X002384Y002895D03*
X001203Y002895D03*
X001203Y002305D03*
X001203Y003486D03*
X001203Y004076D03*
X001203Y004667D03*
X007266Y012108D03*
X008093Y013013D03*
X008723Y013013D03*
X009038Y012659D03*
X009116Y010572D03*
X008723Y010218D03*
X009195Y009588D03*
X009668Y009982D03*
X010022Y010258D03*
X008368Y009313D03*
X008093Y008604D03*
X009510Y004746D03*
X009510Y004352D03*
X008526Y003250D03*
X008093Y003250D03*
D31*
X007935Y005061D02*
X007994Y005120D01*
X007994Y005632D01*
X007601Y005632D02*
X007601Y006084D01*
X007601Y006261D01*
X007620Y006281D01*
X007404Y005632D02*
X007404Y005317D01*
X007109Y005021D01*
X005061Y011321D02*
X004786Y011321D01*
X005061Y011321D02*
X005061Y011793D01*
X005927Y011793D01*
X006794Y012167D02*
X007207Y012167D01*
X007266Y012108D01*
X009313Y016793D02*
X008998Y017108D01*
X008998Y018112D01*
X009333Y018446D01*
X010081Y018446D02*
X010081Y017994D01*
X010376Y017698D01*
X010081Y017403D01*
X010081Y016793D01*
X009333Y016793D02*
X009313Y016793D01*
D32*
X010061Y014706D03*
X006124Y014706D03*
D33*
X003762Y013132D03*
X003762Y016281D03*
D34*
X006400Y022620D02*
X006754Y022620D01*
X006912Y022462D01*
X006675Y025336D02*
X006597Y025415D01*
X005888Y025415D01*
D35*
X006675Y025336D03*
X006912Y022462D03*
D36*
X008250Y021439D02*
X008250Y020927D01*
X006715Y018761D02*
X006853Y018624D01*
X006853Y018210D01*
X006715Y018761D02*
X006242Y018761D01*
X005219Y019234D02*
X004983Y019234D01*
X004471Y018722D01*
X005337Y013013D02*
X005061Y012738D01*
X005061Y012187D01*
X004628Y012187D01*
X004628Y011714D01*
X003880Y011006D02*
X003880Y010651D01*
X003486Y010100D02*
X003959Y009628D01*
X003959Y009549D01*
X005337Y013013D02*
X008093Y013013D01*
X009038Y011321D02*
X009668Y011321D01*
X010101Y011321D01*
X010534Y010887D01*
X010612Y009273D02*
X010612Y008761D01*
X010632Y008742D02*
X010888Y008742D01*
X011046Y008584D01*
X011046Y008230D01*
X010494Y016793D02*
X010081Y016793D01*
X009707Y017659D02*
X009274Y017659D01*
D37*
X009038Y011321D03*
X010416Y009903D03*
X010534Y010887D03*
X003880Y011006D03*
D38*
X002660Y009352D02*
X003093Y008919D01*
X003093Y003604D01*
X004408Y002289D01*
X004408Y001218D01*
X004396Y001206D01*
X006242Y007777D02*
X006557Y008092D01*
X007581Y008092D01*
X007581Y008722D01*
X007817Y008958D01*
X009668Y008958D01*
X010219Y009509D01*
X010219Y008761D01*
X010219Y008683D01*
X009746Y008210D01*
X009746Y007226D01*
X010022Y007226D01*
X009727Y007246D02*
X009412Y007246D01*
X009333Y007167D01*
X009294Y007128D01*
X009234Y007069D01*
X009234Y006832D01*
X010219Y009509D02*
X010416Y009706D01*
X010416Y009903D01*
X010081Y021557D02*
X009333Y021557D01*
X008801Y021557D01*
X008683Y021439D01*
X008250Y021439D01*
X008250Y021754D01*
X007738Y022265D01*
X007738Y023250D01*
X008565Y023919D02*
X008920Y023919D01*
X008998Y023998D01*
X009707Y023998D01*
X008565Y023919D02*
X006538Y023919D01*
X002660Y011439D02*
X002660Y009352D01*
D39*
X008526Y017344D02*
X008526Y017738D01*
X005534Y020730D01*
D40*
X010612Y008761D02*
X010632Y008742D01*
D41*
X001400Y008407D02*
X001396Y008403D01*
X001396Y006206D01*
M02*
