G75*
G70*
%OFA0B0*%
%FSLAX24Y24*%
%IPPOS*%
%LPD*%
%AMOC8*
5,1,8,0,0,1.08239X$1,22.5*
%
%ADD10C,0.0000*%
%ADD11R,0.0276X0.0276*%
%ADD12R,0.0512X0.0749*%
%ADD13C,0.0640*%
%ADD14R,0.0434X0.0591*%
%ADD15R,0.0276X0.0237*%
%ADD16C,0.0634*%
%ADD17R,0.0237X0.0276*%
%ADD18R,0.0906X0.0276*%
%ADD19R,0.0749X0.0512*%
%ADD20C,0.0700*%
%ADD21R,0.1221X0.1221*%
%ADD22C,0.0150*%
%ADD23R,0.0394X0.0355*%
%ADD24R,0.0631X0.0414*%
%ADD25C,0.0709*%
%ADD26R,0.0591X0.0434*%
%ADD27OC8,0.0890*%
%ADD28C,0.1040*%
%ADD29C,0.2802*%
D10*
X000219Y000139D02*
X000219Y026517D01*
X013801Y026517D01*
X013801Y000139D01*
X000219Y000139D01*
D11*
X005494Y005454D03*
X005494Y005927D03*
X006085Y005769D03*
X006085Y005297D03*
X006046Y003722D03*
X006046Y003250D03*
X006046Y002698D03*
X005573Y002698D03*
X006518Y003250D03*
X006518Y003722D03*
X008841Y003722D03*
X008841Y003250D03*
X008841Y002777D03*
X009313Y002777D03*
X009313Y003250D03*
X009313Y003722D03*
X009746Y006754D03*
X009746Y007226D03*
X010612Y009273D03*
X011085Y009273D03*
X009668Y011321D03*
X009668Y011793D03*
X008211Y019667D03*
X007738Y019667D03*
X007778Y021439D03*
X008250Y021439D03*
X008211Y022580D03*
X008211Y023053D03*
X008565Y023919D03*
X008565Y024391D03*
X008053Y025021D03*
X008053Y025494D03*
X010691Y020572D03*
X010691Y020100D03*
X012699Y022502D03*
X012699Y023013D03*
X012935Y023565D03*
X012935Y024037D03*
X013171Y023013D03*
X013171Y022502D03*
D12*
X006400Y022620D03*
X005219Y022620D03*
D13*
X012753Y016206D02*
X013353Y016206D01*
X013353Y015206D02*
X012753Y015206D01*
X012753Y014206D02*
X013353Y014206D01*
X013353Y013206D02*
X012753Y013206D01*
X012753Y012072D02*
X013353Y012072D01*
X013353Y011072D02*
X012753Y011072D01*
X012753Y010072D02*
X013353Y010072D01*
X013353Y009072D02*
X012753Y009072D01*
X012753Y007939D02*
X013353Y007939D01*
X013353Y006939D02*
X012753Y006939D01*
X012753Y005939D02*
X013353Y005939D01*
X013353Y004939D02*
X012753Y004939D01*
D14*
X010081Y016793D03*
X009707Y017659D03*
X010081Y018446D03*
X009707Y019313D03*
X009333Y018446D03*
X009333Y016793D03*
X009707Y020691D03*
X010081Y021557D03*
X009333Y021557D03*
X006853Y018210D03*
X006479Y017344D03*
X006105Y018210D03*
D15*
X004471Y018328D03*
X004471Y018722D03*
X005061Y012187D03*
X005061Y011793D03*
X003880Y010651D03*
X003880Y010258D03*
X006242Y007777D03*
X006242Y007384D03*
X006380Y009490D03*
X006380Y009884D03*
X006046Y002265D03*
X006046Y001872D03*
X008841Y001911D03*
X008841Y002305D03*
X011833Y016084D03*
X011833Y016478D03*
X013053Y017108D03*
X013053Y017502D03*
X013171Y021596D03*
X013171Y021990D03*
X012935Y024588D03*
X012935Y024982D03*
X008723Y022974D03*
X008723Y022580D03*
X008801Y020100D03*
X008801Y019706D03*
X008565Y025061D03*
X008565Y025454D03*
D16*
X012205Y019970D02*
X012799Y019970D01*
X012799Y018970D02*
X012205Y018970D01*
X008002Y001775D02*
X008002Y001181D01*
X007002Y001181D02*
X007002Y001775D01*
D17*
X007581Y008092D03*
X007975Y008092D03*
X010219Y008761D03*
X010612Y008761D03*
X005416Y017344D03*
X005022Y017344D03*
X007817Y020179D03*
X008211Y020179D03*
X008250Y020927D03*
X008644Y020927D03*
X004786Y011321D03*
X004392Y011321D03*
X004471Y010258D03*
X004864Y010258D03*
X003998Y008604D03*
X003605Y008604D03*
D18*
X009707Y022498D03*
X009707Y022998D03*
X009707Y023498D03*
X009707Y023998D03*
X009707Y024498D03*
X009707Y024998D03*
X009707Y025498D03*
X011754Y025498D03*
X011754Y024998D03*
X011754Y024498D03*
X011754Y023998D03*
X011754Y023498D03*
X011754Y022998D03*
X011754Y022498D03*
D19*
X005888Y024234D03*
X005888Y025415D03*
D20*
X003841Y024509D03*
X001872Y024509D03*
X002187Y020612D03*
X004156Y020612D03*
D21*
X007896Y006557D03*
D22*
X007994Y007401D02*
X007994Y007563D01*
X008191Y007563D02*
X008191Y007401D01*
X008388Y007401D02*
X008388Y007563D01*
X008585Y007563D02*
X008585Y007401D01*
X008740Y007246D02*
X008902Y007246D01*
X008902Y007049D02*
X008740Y007049D01*
X008740Y006852D02*
X008902Y006852D01*
X008902Y006655D02*
X008740Y006655D01*
X008740Y006458D02*
X008902Y006458D01*
X008902Y006261D02*
X008740Y006261D01*
X008740Y006065D02*
X008902Y006065D01*
X008902Y005868D02*
X008740Y005868D01*
X008585Y005713D02*
X008585Y005551D01*
X008388Y005551D02*
X008388Y005713D01*
X008191Y005713D02*
X008191Y005551D01*
X007994Y005551D02*
X007994Y005713D01*
X007797Y005713D02*
X007797Y005551D01*
X007601Y005551D02*
X007601Y005713D01*
X007404Y005713D02*
X007404Y005551D01*
X007207Y005551D02*
X007207Y005713D01*
X007052Y005868D02*
X006890Y005868D01*
X006890Y006065D02*
X007052Y006065D01*
X007052Y006261D02*
X006890Y006261D01*
X006890Y006458D02*
X007052Y006458D01*
X007052Y006655D02*
X006890Y006655D01*
X006890Y006852D02*
X007052Y006852D01*
X007052Y007049D02*
X006890Y007049D01*
X006890Y007246D02*
X007052Y007246D01*
X007207Y007401D02*
X007207Y007563D01*
X007404Y007563D02*
X007404Y007401D01*
X007601Y007401D02*
X007601Y007563D01*
X007797Y007563D02*
X007797Y007401D01*
D23*
X008093Y004411D03*
X008093Y003742D03*
X007384Y003742D03*
X007384Y004411D03*
D24*
X011046Y007482D03*
X011046Y008230D03*
D25*
X001400Y008407D03*
X001400Y009588D03*
X001400Y010769D03*
X001400Y011950D03*
X001400Y013132D03*
X001400Y014313D03*
X001400Y015494D03*
X001400Y016675D03*
X001400Y017856D03*
X001400Y019037D03*
D26*
X005927Y011793D03*
X006794Y012167D03*
X006794Y011419D03*
X005691Y009490D03*
X005691Y008742D03*
X004825Y009116D03*
D27*
X011242Y003525D03*
X011242Y001557D03*
D28*
X004396Y001206D03*
X004396Y005616D03*
X004396Y007206D03*
X001396Y006206D03*
X001396Y001206D03*
D29*
X006124Y014706D03*
X010061Y014706D03*
M02*
