G75*
G70*
%OFA0B0*%
%FSLAX24Y24*%
%IPPOS*%
%LPD*%
%AMOC8*
5,1,8,0,0,1.08239X$1,22.5*
%
%ADD10C,0.0000*%
%ADD11R,0.0394X0.0551*%
%ADD12C,0.0594*%
%ADD13R,0.0354X0.0315*%
%ADD14R,0.0315X0.0394*%
%ADD15R,0.0276X0.0276*%
%ADD16R,0.0846X0.1280*%
%ADD17R,0.0846X0.0374*%
%ADD18C,0.0551*%
%ADD19C,0.0669*%
%ADD20C,0.0170*%
%ADD21C,0.0600*%
%ADD22C,0.0515*%
%ADD23C,0.0080*%
%ADD24C,0.0238*%
%ADD25C,0.2762*%
%ADD26C,0.1181*%
%ADD27C,0.0317*%
%ADD28C,0.0240*%
%ADD29C,0.0400*%
%ADD30C,0.0157*%
%ADD31C,0.0138*%
%ADD32C,0.0120*%
%ADD33C,0.0197*%
%ADD34C,0.0320*%
%ADD35C,0.0160*%
D10*
X000260Y003292D02*
X000260Y019119D01*
X004394Y019119D01*
X004394Y025615D01*
X013842Y025615D01*
X013842Y003292D01*
X000260Y003292D01*
X004590Y011835D02*
X004592Y011874D01*
X004598Y011913D01*
X004608Y011951D01*
X004621Y011988D01*
X004638Y012023D01*
X004658Y012057D01*
X004682Y012088D01*
X004709Y012117D01*
X004738Y012143D01*
X004770Y012166D01*
X004804Y012186D01*
X004840Y012202D01*
X004877Y012214D01*
X004916Y012223D01*
X004955Y012228D01*
X004994Y012229D01*
X005033Y012226D01*
X005072Y012219D01*
X005109Y012208D01*
X005146Y012194D01*
X005181Y012176D01*
X005214Y012155D01*
X005245Y012130D01*
X005273Y012103D01*
X005298Y012073D01*
X005320Y012040D01*
X005339Y012006D01*
X005354Y011970D01*
X005366Y011932D01*
X005374Y011894D01*
X005378Y011855D01*
X005378Y011815D01*
X005374Y011776D01*
X005366Y011738D01*
X005354Y011700D01*
X005339Y011664D01*
X005320Y011630D01*
X005298Y011597D01*
X005273Y011567D01*
X005245Y011540D01*
X005214Y011515D01*
X005181Y011494D01*
X005146Y011476D01*
X005109Y011462D01*
X005072Y011451D01*
X005033Y011444D01*
X004994Y011441D01*
X004955Y011442D01*
X004916Y011447D01*
X004877Y011456D01*
X004840Y011468D01*
X004804Y011484D01*
X004770Y011504D01*
X004738Y011527D01*
X004709Y011553D01*
X004682Y011582D01*
X004658Y011613D01*
X004638Y011647D01*
X004621Y011682D01*
X004608Y011719D01*
X004598Y011757D01*
X004592Y011796D01*
X004590Y011835D01*
D11*
X012484Y019237D03*
X012858Y020103D03*
X013232Y019237D03*
D12*
X013240Y023980D02*
X013240Y024573D01*
X012240Y024573D02*
X012240Y023980D01*
X001895Y006036D02*
X001301Y006036D01*
X001301Y005036D02*
X001895Y005036D01*
D13*
X010968Y024060D03*
X010968Y024729D03*
D14*
X009925Y024867D03*
X009256Y024867D03*
D15*
X009669Y023725D03*
X009669Y023253D03*
X008764Y023253D03*
X008764Y023725D03*
X008055Y023725D03*
X008055Y023253D03*
X008212Y022544D03*
X008212Y021914D03*
X008567Y021481D03*
X008567Y021009D03*
X007976Y021009D03*
X007504Y021009D03*
X007504Y020339D03*
X007976Y020339D03*
X008449Y019828D03*
X008921Y019828D03*
X009275Y021009D03*
X009275Y021481D03*
X007976Y019513D03*
X007504Y019513D03*
X007071Y021442D03*
X007071Y021914D03*
X007110Y022544D03*
X007110Y023017D03*
X007110Y023607D03*
X006638Y023607D03*
X006480Y023017D03*
X006480Y022544D03*
X006480Y021914D03*
X006480Y021442D03*
X005811Y021796D03*
X005338Y021796D03*
X005338Y022426D03*
X005811Y022426D03*
X005890Y024473D03*
X005417Y024473D03*
X006520Y024867D03*
X006992Y024867D03*
X007740Y022544D03*
X007740Y021914D03*
X009275Y018607D03*
X009748Y018607D03*
X009197Y017780D03*
X009197Y017308D03*
X009472Y016639D03*
X009945Y016639D03*
X010535Y016639D03*
X010535Y017111D03*
X011205Y017111D03*
X011205Y016639D03*
X011205Y015969D03*
X011205Y015497D03*
X011126Y014906D03*
X010653Y014906D03*
X010535Y015497D03*
X010535Y015969D03*
X011835Y015969D03*
X011835Y016442D03*
X010968Y018804D03*
X010496Y018804D03*
X008842Y016639D03*
X008370Y016639D03*
X008370Y016009D03*
X008370Y015418D03*
X008842Y015418D03*
X008842Y016009D03*
X007346Y016914D03*
X007346Y017387D03*
X006756Y017387D03*
X006756Y016914D03*
X007268Y010930D03*
X007740Y010930D03*
X008882Y010379D03*
X008882Y009906D03*
X009590Y009906D03*
X009590Y010379D03*
X008488Y007544D03*
X008488Y007072D03*
X007740Y006560D03*
X007268Y006560D03*
X006835Y007150D03*
X006362Y007150D03*
X006362Y007859D03*
X006835Y007859D03*
X005535Y007859D03*
X005063Y007859D03*
X005063Y007150D03*
X005535Y007150D03*
X004157Y004513D03*
X003685Y004513D03*
X003685Y005182D03*
X003685Y005654D03*
X005063Y004276D03*
X005535Y004276D03*
X006165Y004276D03*
X006638Y004276D03*
X009590Y004946D03*
X009590Y005418D03*
D16*
X004197Y016875D03*
D17*
X001913Y016875D03*
X001913Y017780D03*
X001913Y015969D03*
D18*
X001283Y018646D03*
X003252Y018646D03*
D19*
X001086Y015119D03*
X001086Y014119D03*
X001086Y012607D03*
X001086Y011607D03*
X001086Y010607D03*
X001086Y009686D03*
X001086Y008686D03*
D20*
X010451Y007107D02*
X010366Y007022D01*
X010366Y007304D01*
X010564Y007502D01*
X010846Y007502D01*
X011044Y007304D01*
X011044Y007022D01*
X010846Y006824D01*
X010564Y006824D01*
X010366Y007022D01*
X010493Y007076D01*
X010493Y007250D01*
X010618Y007375D01*
X010792Y007375D01*
X010917Y007250D01*
X010917Y007076D01*
X010792Y006951D01*
X010618Y006951D01*
X010493Y007076D01*
X010621Y007128D01*
X010621Y007198D01*
X010670Y007247D01*
X010740Y007247D01*
X010789Y007198D01*
X010789Y007128D01*
X010740Y007079D01*
X010670Y007079D01*
X010621Y007128D01*
X011843Y008499D02*
X011758Y008414D01*
X011758Y008696D01*
X011956Y008894D01*
X012238Y008894D01*
X012436Y008696D01*
X012436Y008414D01*
X012238Y008216D01*
X011956Y008216D01*
X011758Y008414D01*
X011885Y008468D01*
X011885Y008642D01*
X012010Y008767D01*
X012184Y008767D01*
X012309Y008642D01*
X012309Y008468D01*
X012184Y008343D01*
X012010Y008343D01*
X011885Y008468D01*
X012013Y008520D01*
X012013Y008590D01*
X012062Y008639D01*
X012132Y008639D01*
X012181Y008590D01*
X012181Y008520D01*
X012132Y008471D01*
X012062Y008471D01*
X012013Y008520D01*
D21*
X012637Y011646D02*
X013237Y011646D01*
X013237Y012646D02*
X012637Y012646D01*
X012637Y013646D02*
X013237Y013646D01*
X013237Y014646D02*
X012637Y014646D01*
X012637Y015646D02*
X013237Y015646D01*
D22*
X011520Y018135D03*
X010220Y021442D03*
X010220Y022977D03*
X007366Y024198D03*
X006165Y020182D03*
X007189Y019080D03*
X009984Y014591D03*
X009827Y013568D03*
X011126Y014040D03*
D23*
X011264Y014391D02*
X011329Y014456D01*
X011365Y014544D01*
X011365Y014639D01*
X011347Y014682D01*
X011384Y014719D01*
X011384Y015094D01*
X011318Y015159D01*
X011385Y015225D01*
X011385Y015239D01*
X011392Y015239D01*
X011462Y015309D01*
X011462Y015684D01*
X011414Y015733D01*
X011462Y015782D01*
X011462Y015789D01*
X011577Y015789D01*
X011577Y015782D01*
X011647Y015711D01*
X012022Y015711D01*
X012092Y015782D01*
X012092Y016157D01*
X012058Y016192D01*
X012084Y016218D01*
X012103Y016250D01*
X012112Y016286D01*
X012112Y016413D01*
X011863Y016413D01*
X011863Y016471D01*
X011806Y016471D01*
X011806Y016720D01*
X011678Y016720D01*
X011643Y016710D01*
X011611Y016692D01*
X011585Y016665D01*
X011566Y016634D01*
X011557Y016598D01*
X011557Y016471D01*
X011806Y016471D01*
X011806Y016413D01*
X011557Y016413D01*
X011557Y016286D01*
X011566Y016250D01*
X011585Y016218D01*
X011611Y016192D01*
X011611Y016192D01*
X011577Y016157D01*
X011577Y016149D01*
X011462Y016149D01*
X011462Y016157D01*
X011392Y016227D01*
X011385Y016227D01*
X011385Y016381D01*
X011392Y016381D01*
X011462Y016451D01*
X011462Y016826D01*
X011414Y016875D01*
X011462Y016924D01*
X011462Y017299D01*
X011392Y017369D01*
X011017Y017369D01*
X010947Y017299D01*
X010947Y017291D01*
X010793Y017291D01*
X010793Y017299D01*
X010723Y017369D01*
X010348Y017369D01*
X010278Y017299D01*
X010278Y016924D01*
X010326Y016875D01*
X010278Y016826D01*
X010278Y016819D01*
X010203Y016819D01*
X010203Y016826D01*
X010159Y016869D01*
X010226Y016936D01*
X010263Y017024D01*
X010263Y017119D01*
X010226Y017207D01*
X010159Y017274D01*
X010071Y017311D01*
X009976Y017311D01*
X009888Y017274D01*
X009865Y017251D01*
X009869Y017260D01*
X009869Y017292D01*
X010019Y017443D01*
X011086Y017443D01*
X011109Y017420D01*
X011196Y017384D01*
X011292Y017384D01*
X011379Y017420D01*
X011447Y017487D01*
X011483Y017575D01*
X011483Y017670D01*
X011447Y017757D01*
X011595Y017757D01*
X011733Y017815D01*
X011840Y017921D01*
X011897Y018060D01*
X011897Y018210D01*
X011840Y018348D01*
X011733Y018455D01*
X011595Y018512D01*
X011444Y018512D01*
X011411Y018498D01*
X011397Y018511D01*
X011148Y018511D01*
X011148Y018546D01*
X011156Y018546D01*
X011226Y018616D01*
X011226Y018991D01*
X011156Y019062D01*
X010896Y019062D01*
X011172Y019337D01*
X011208Y019425D01*
X011208Y019521D01*
X011172Y019609D01*
X011104Y019677D01*
X011016Y019713D01*
X010921Y019713D01*
X010832Y019677D01*
X010554Y019398D01*
X010173Y019398D01*
X010084Y019362D01*
X010017Y019294D01*
X010003Y019280D01*
X009621Y019280D01*
X009533Y019244D01*
X009466Y019176D01*
X009429Y019088D01*
X009429Y018992D01*
X008583Y018992D01*
X008613Y019022D02*
X008649Y019111D01*
X008649Y019206D01*
X008613Y019294D01*
X008545Y019362D01*
X008457Y019398D01*
X008274Y019398D01*
X008314Y019438D01*
X008445Y019570D01*
X008636Y019570D01*
X008685Y019618D01*
X008734Y019570D01*
X009109Y019570D01*
X009157Y019618D01*
X009228Y019589D01*
X009323Y019589D01*
X009411Y019625D01*
X009478Y019692D01*
X009515Y019780D01*
X009515Y019875D01*
X009478Y019963D01*
X009411Y020030D01*
X009323Y020067D01*
X009228Y020067D01*
X009157Y020037D01*
X009109Y020085D01*
X008734Y020085D01*
X008685Y020037D01*
X008636Y020085D01*
X008261Y020085D01*
X008191Y020015D01*
X008191Y019824D01*
X008137Y019770D01*
X007898Y019770D01*
X007999Y019871D01*
X008156Y020029D01*
X008156Y020082D01*
X008164Y020082D01*
X008234Y020152D01*
X008234Y020351D01*
X008246Y020322D01*
X008313Y020255D01*
X008401Y020218D01*
X008496Y020218D01*
X008584Y020255D01*
X008651Y020322D01*
X008688Y020410D01*
X008688Y020505D01*
X008651Y020593D01*
X008647Y020598D01*
X008747Y020698D01*
X008747Y020751D01*
X008754Y020751D01*
X008825Y020821D01*
X008825Y020829D01*
X009018Y020829D01*
X009018Y020821D01*
X009088Y020751D01*
X009463Y020751D01*
X009533Y020821D01*
X009533Y021196D01*
X009485Y021245D01*
X009533Y021294D01*
X009533Y021669D01*
X009463Y021739D01*
X009351Y021739D01*
X009290Y021800D01*
X009318Y021867D01*
X009318Y021962D01*
X009281Y022050D01*
X009214Y022117D01*
X009126Y022153D01*
X009031Y022153D01*
X008943Y022117D01*
X008876Y022050D01*
X008840Y021962D01*
X008840Y021867D01*
X008876Y021779D01*
X008899Y021756D01*
X008899Y021682D01*
X009004Y021577D01*
X009018Y021563D01*
X009018Y021294D01*
X009066Y021245D01*
X009018Y021196D01*
X009018Y021189D01*
X008825Y021189D01*
X008825Y021196D01*
X008790Y021231D01*
X008791Y021231D01*
X008817Y021257D01*
X008835Y021289D01*
X008845Y021325D01*
X008845Y021452D01*
X008596Y021452D01*
X008596Y021510D01*
X008845Y021510D01*
X008845Y021637D01*
X008835Y021673D01*
X008817Y021705D01*
X008791Y021731D01*
X008759Y021749D01*
X008723Y021759D01*
X008596Y021759D01*
X008596Y021510D01*
X008538Y021510D01*
X008538Y021759D01*
X008470Y021759D01*
X008470Y022102D01*
X008400Y022172D01*
X008392Y022172D01*
X008392Y022286D01*
X008400Y022286D01*
X008470Y022357D01*
X008470Y022547D01*
X008589Y022666D01*
X008589Y022780D01*
X008612Y022802D01*
X008648Y022890D01*
X008648Y022985D01*
X008644Y022995D01*
X008951Y022995D01*
X009021Y023065D01*
X009021Y023440D01*
X008987Y023475D01*
X008987Y023475D01*
X009013Y023501D01*
X009032Y023533D01*
X009036Y023548D01*
X009061Y023523D01*
X009149Y023486D01*
X009244Y023486D01*
X009332Y023523D01*
X009355Y023545D01*
X009411Y023545D01*
X009411Y023538D01*
X009460Y023489D01*
X009411Y023440D01*
X009411Y023065D01*
X009437Y023040D01*
X009430Y023025D01*
X009430Y022930D01*
X009467Y022842D01*
X009534Y022775D01*
X009622Y022738D01*
X009717Y022738D01*
X009805Y022775D01*
X009869Y022839D01*
X009900Y022763D01*
X010007Y022657D01*
X010145Y022600D01*
X010295Y022600D01*
X010434Y022657D01*
X010540Y022763D01*
X010598Y022902D01*
X010598Y023052D01*
X010540Y023191D01*
X010434Y023297D01*
X010295Y023355D01*
X010145Y023355D01*
X010007Y023297D01*
X009927Y023218D01*
X009927Y023440D01*
X009878Y023489D01*
X009927Y023538D01*
X009927Y023913D01*
X009857Y023983D01*
X009482Y023983D01*
X009411Y023913D01*
X009411Y023905D01*
X009355Y023905D01*
X009332Y023928D01*
X009244Y023964D01*
X009149Y023964D01*
X009061Y023928D01*
X009036Y023902D01*
X009032Y023917D01*
X009013Y023949D01*
X008987Y023975D01*
X008955Y023993D01*
X008920Y024003D01*
X008793Y024003D01*
X008793Y023754D01*
X008735Y023754D01*
X008735Y024003D01*
X008607Y024003D01*
X008572Y023993D01*
X008540Y023975D01*
X008514Y023949D01*
X008495Y023917D01*
X008486Y023881D01*
X008486Y023754D01*
X008735Y023754D01*
X008735Y023696D01*
X008486Y023696D01*
X008486Y023569D01*
X008495Y023533D01*
X008514Y023501D01*
X008540Y023475D01*
X008541Y023475D01*
X008506Y023440D01*
X008506Y023433D01*
X008313Y023433D01*
X008313Y023440D01*
X008264Y023489D01*
X008313Y023538D01*
X008313Y023913D01*
X008243Y023983D01*
X007867Y023983D01*
X007819Y023935D01*
X007748Y023964D01*
X007666Y023964D01*
X007686Y023984D01*
X007744Y024123D01*
X007744Y024273D01*
X007686Y024411D01*
X007580Y024518D01*
X007441Y024575D01*
X007291Y024575D01*
X007152Y024518D01*
X007046Y024411D01*
X006989Y024273D01*
X006989Y024123D01*
X007046Y023984D01*
X007145Y023885D01*
X007139Y023885D01*
X007139Y023636D01*
X007081Y023636D01*
X007081Y023885D01*
X006954Y023885D01*
X006918Y023875D01*
X006886Y023857D01*
X006877Y023847D01*
X006877Y023930D01*
X006840Y024018D01*
X006773Y024085D01*
X006685Y024122D01*
X006590Y024122D01*
X006502Y024085D01*
X006435Y024018D01*
X006399Y023930D01*
X006399Y023835D01*
X006405Y023820D01*
X006380Y023795D01*
X006380Y023420D01*
X006450Y023349D01*
X006825Y023349D01*
X006860Y023384D01*
X006860Y023383D01*
X006886Y023357D01*
X006918Y023339D01*
X006954Y023329D01*
X007081Y023329D01*
X007081Y023578D01*
X007139Y023578D01*
X007139Y023329D01*
X007266Y023329D01*
X007302Y023339D01*
X007334Y023357D01*
X007360Y023383D01*
X007378Y023415D01*
X007388Y023451D01*
X007388Y023578D01*
X007139Y023578D01*
X007139Y023636D01*
X007388Y023636D01*
X007388Y023763D01*
X007378Y023799D01*
X007366Y023820D01*
X007441Y023820D01*
X007490Y023840D01*
X007462Y023773D01*
X007462Y023678D01*
X007498Y023590D01*
X007565Y023523D01*
X007653Y023486D01*
X007748Y023486D01*
X007819Y023516D01*
X007846Y023489D01*
X007797Y023440D01*
X007797Y023065D01*
X007867Y022995D01*
X008174Y022995D01*
X008170Y022985D01*
X008170Y022890D01*
X008207Y022802D01*
X008025Y022802D01*
X007976Y022753D01*
X007928Y022802D01*
X007553Y022802D01*
X007482Y022732D01*
X007482Y022724D01*
X007368Y022724D01*
X007368Y022732D01*
X007319Y022780D01*
X007368Y022829D01*
X007368Y023204D01*
X007298Y023274D01*
X006923Y023274D01*
X006852Y023204D01*
X006852Y023197D01*
X006738Y023197D01*
X006738Y023204D01*
X006668Y023274D01*
X006293Y023274D01*
X006222Y023204D01*
X006222Y023197D01*
X006091Y023197D01*
X005985Y023091D01*
X005953Y023059D01*
X005921Y023059D01*
X005833Y023022D01*
X005766Y022955D01*
X005729Y022867D01*
X005729Y022772D01*
X005766Y022684D01*
X005623Y022684D01*
X005575Y022635D01*
X005526Y022684D01*
X005518Y022684D01*
X005518Y022819D01*
X005541Y022842D01*
X005578Y022930D01*
X005578Y023025D01*
X005541Y023113D01*
X005474Y023180D01*
X005386Y023216D01*
X005291Y023216D01*
X005203Y023180D01*
X005136Y023113D01*
X005099Y023025D01*
X005099Y022930D01*
X005136Y022842D01*
X005158Y022819D01*
X005158Y022684D01*
X005151Y022684D01*
X005081Y022613D01*
X005081Y022238D01*
X005151Y022168D01*
X005158Y022168D01*
X005158Y022054D01*
X005151Y022054D01*
X005081Y021984D01*
X005081Y021609D01*
X005151Y021538D01*
X005526Y021538D01*
X005575Y021587D01*
X005623Y021538D01*
X005998Y021538D01*
X006069Y021609D01*
X006069Y021616D01*
X006200Y021616D01*
X006267Y021682D01*
X006271Y021678D01*
X006222Y021629D01*
X006222Y021596D01*
X006143Y021516D01*
X006110Y021484D01*
X006019Y021484D01*
X005931Y021448D01*
X005864Y021380D01*
X005828Y021292D01*
X005828Y021197D01*
X005864Y021109D01*
X005931Y021042D01*
X006019Y021006D01*
X006114Y021006D01*
X006202Y021042D01*
X006269Y021109D01*
X006287Y021151D01*
X006319Y021184D01*
X006668Y021184D01*
X006738Y021254D01*
X006738Y021262D01*
X006813Y021262D01*
X006813Y021254D01*
X006883Y021184D01*
X007246Y021184D01*
X007246Y020821D01*
X007316Y020751D01*
X007324Y020751D01*
X007324Y020597D01*
X007316Y020597D01*
X007246Y020527D01*
X007246Y020152D01*
X007309Y020089D01*
X007301Y020081D01*
X007265Y019993D01*
X007265Y019898D01*
X007301Y019810D01*
X007324Y019788D01*
X007324Y019770D01*
X007316Y019770D01*
X007246Y019700D01*
X007246Y019509D01*
X007194Y019457D01*
X007114Y019457D01*
X006975Y019400D01*
X006869Y019293D01*
X006811Y019155D01*
X006811Y019004D01*
X006869Y018866D01*
X006975Y018760D01*
X007114Y018702D01*
X007264Y018702D01*
X007403Y018760D01*
X007509Y018866D01*
X007566Y019004D01*
X007566Y019155D01*
X007525Y019255D01*
X007638Y019255D01*
X007618Y019206D01*
X007618Y019111D01*
X007655Y019022D01*
X007722Y018955D01*
X007810Y018918D01*
X008457Y018918D01*
X008545Y018955D01*
X008613Y019022D01*
X008633Y019071D02*
X009429Y019071D01*
X009429Y018992D02*
X009466Y018904D01*
X009533Y018837D01*
X009512Y018816D01*
X009463Y018865D01*
X009088Y018865D01*
X009018Y018795D01*
X009018Y018420D01*
X009060Y018377D01*
X009036Y018320D01*
X009036Y018225D01*
X009073Y018137D01*
X009140Y018070D01*
X009217Y018038D01*
X009009Y018038D01*
X008939Y017968D01*
X008939Y017593D01*
X008988Y017544D01*
X008939Y017495D01*
X008939Y017120D01*
X009009Y017050D01*
X009082Y017050D01*
X009122Y017010D01*
X009260Y016872D01*
X009248Y016860D01*
X009205Y016878D01*
X009110Y016878D01*
X009067Y016860D01*
X009030Y016896D01*
X008655Y016896D01*
X008606Y016848D01*
X008557Y016896D01*
X008182Y016896D01*
X008112Y016826D01*
X008112Y016819D01*
X008056Y016819D01*
X008033Y016841D01*
X007945Y016878D01*
X007850Y016878D01*
X007762Y016841D01*
X007695Y016774D01*
X007658Y016686D01*
X007658Y016591D01*
X007695Y016503D01*
X007762Y016436D01*
X007850Y016400D01*
X007945Y016400D01*
X008033Y016436D01*
X008056Y016459D01*
X008112Y016459D01*
X008112Y016451D01*
X008182Y016381D01*
X008190Y016381D01*
X008190Y016266D01*
X008182Y016266D01*
X008112Y016196D01*
X008112Y015821D01*
X008182Y015751D01*
X008190Y015751D01*
X008190Y015676D01*
X008182Y015676D01*
X008112Y015606D01*
X008112Y015231D01*
X008182Y015160D01*
X008557Y015160D01*
X008592Y015195D01*
X008593Y015194D01*
X008619Y015168D01*
X008651Y015150D01*
X008686Y015140D01*
X008814Y015140D01*
X008814Y015389D01*
X008871Y015389D01*
X008871Y015140D01*
X008999Y015140D01*
X009034Y015150D01*
X009066Y015168D01*
X009092Y015194D01*
X009111Y015226D01*
X009120Y015262D01*
X009120Y015389D01*
X008871Y015389D01*
X008871Y015447D01*
X008814Y015447D01*
X008814Y015696D01*
X008686Y015696D01*
X008651Y015686D01*
X008619Y015668D01*
X008593Y015642D01*
X008592Y015641D01*
X008557Y015676D01*
X008550Y015676D01*
X008550Y015751D01*
X008557Y015751D01*
X008606Y015800D01*
X008655Y015751D01*
X009030Y015751D01*
X009100Y015821D01*
X009100Y015829D01*
X009212Y015829D01*
X009271Y015888D01*
X009303Y015888D01*
X009391Y015924D01*
X009414Y015947D01*
X009822Y015947D01*
X009928Y016052D01*
X010125Y016249D01*
X010125Y016381D01*
X010132Y016381D01*
X010203Y016451D01*
X010203Y016459D01*
X010278Y016459D01*
X010278Y016451D01*
X010348Y016381D01*
X010723Y016381D01*
X010793Y016451D01*
X010793Y016826D01*
X010744Y016875D01*
X010793Y016924D01*
X010793Y016931D01*
X010947Y016931D01*
X010947Y016924D01*
X010996Y016875D01*
X010947Y016826D01*
X010947Y016451D01*
X011017Y016381D01*
X011025Y016381D01*
X011025Y016227D01*
X011017Y016227D01*
X010947Y016157D01*
X010947Y016149D01*
X010793Y016149D01*
X010793Y016157D01*
X010723Y016227D01*
X010348Y016227D01*
X010278Y016157D01*
X010278Y015782D01*
X010326Y015733D01*
X010278Y015684D01*
X010278Y015309D01*
X010348Y015239D01*
X010355Y015239D01*
X010355Y015225D01*
X010441Y015139D01*
X010396Y015094D01*
X010396Y014719D01*
X010432Y014682D01*
X010414Y014639D01*
X010414Y014544D01*
X010451Y014456D01*
X010518Y014389D01*
X010606Y014352D01*
X010701Y014352D01*
X010789Y014389D01*
X010856Y014456D01*
X010890Y014537D01*
X010923Y014456D01*
X010988Y014391D01*
X010912Y014360D01*
X010806Y014254D01*
X010748Y014115D01*
X010748Y013965D01*
X010806Y013826D01*
X010912Y013720D01*
X011051Y013663D01*
X011201Y013663D01*
X011340Y013720D01*
X011446Y013826D01*
X011503Y013965D01*
X011503Y014115D01*
X011446Y014254D01*
X011340Y014360D01*
X011264Y014391D01*
X011312Y014439D02*
X012268Y014439D01*
X012281Y014409D02*
X012399Y014290D01*
X012553Y014226D01*
X013320Y014226D01*
X013475Y014290D01*
X013593Y014409D01*
X013657Y014563D01*
X013657Y014730D01*
X013593Y014884D01*
X013475Y015003D01*
X013320Y015066D01*
X012553Y015066D01*
X012399Y015003D01*
X012281Y014884D01*
X012217Y014730D01*
X012217Y014563D01*
X012281Y014409D01*
X012329Y014361D02*
X011339Y014361D01*
X011418Y014282D02*
X012419Y014282D01*
X012506Y014047D02*
X011503Y014047D01*
X011499Y014125D02*
X013702Y014125D01*
X013702Y014047D02*
X013368Y014047D01*
X013320Y014066D02*
X013475Y014003D01*
X013593Y013884D01*
X013657Y013730D01*
X013657Y013563D01*
X013593Y013409D01*
X013475Y013290D01*
X013320Y013226D01*
X012553Y013226D01*
X012399Y013290D01*
X012281Y013409D01*
X012217Y013563D01*
X012217Y013730D01*
X012281Y013884D01*
X012399Y014003D01*
X012553Y014066D01*
X013320Y014066D01*
X013509Y013968D02*
X013702Y013968D01*
X013702Y013890D02*
X013588Y013890D01*
X013623Y013811D02*
X013702Y013811D01*
X013702Y013733D02*
X013656Y013733D01*
X013657Y013654D02*
X013702Y013654D01*
X013702Y013576D02*
X013657Y013576D01*
X013630Y013497D02*
X013702Y013497D01*
X013702Y013419D02*
X013597Y013419D01*
X013525Y013340D02*
X013702Y013340D01*
X013702Y013262D02*
X013405Y013262D01*
X013320Y013066D02*
X013475Y013003D01*
X013593Y012884D01*
X013657Y012730D01*
X013657Y012563D01*
X013593Y012409D01*
X013475Y012290D01*
X013320Y012226D01*
X012553Y012226D01*
X012399Y012290D01*
X012281Y012409D01*
X012217Y012563D01*
X012217Y012730D01*
X012281Y012884D01*
X012399Y013003D01*
X012553Y013066D01*
X013320Y013066D01*
X013418Y013026D02*
X013702Y013026D01*
X013702Y012948D02*
X013530Y012948D01*
X013599Y012869D02*
X013702Y012869D01*
X013702Y012791D02*
X013632Y012791D01*
X013657Y012712D02*
X013702Y012712D01*
X013702Y012634D02*
X013657Y012634D01*
X013654Y012555D02*
X013702Y012555D01*
X013702Y012477D02*
X013621Y012477D01*
X013583Y012398D02*
X013702Y012398D01*
X013702Y012320D02*
X013504Y012320D01*
X013356Y012241D02*
X013702Y012241D01*
X013702Y012163D02*
X009005Y012163D01*
X009005Y012241D02*
X012518Y012241D01*
X012534Y012076D02*
X012468Y012054D01*
X012406Y012023D01*
X012350Y011982D01*
X012301Y011933D01*
X012261Y011877D01*
X012229Y011815D01*
X012208Y011749D01*
X012198Y011686D01*
X012897Y011686D01*
X012897Y011606D01*
X012977Y011606D01*
X012977Y011206D01*
X013272Y011206D01*
X013340Y011217D01*
X013406Y011239D01*
X013467Y011270D01*
X013524Y011311D01*
X013573Y011360D01*
X013613Y011416D01*
X013645Y011478D01*
X013666Y011543D01*
X013676Y011606D01*
X012977Y011606D01*
X012977Y011686D01*
X013676Y011686D01*
X013666Y011749D01*
X013645Y011815D01*
X013613Y011877D01*
X013573Y011933D01*
X013524Y011982D01*
X013467Y012023D01*
X013406Y012054D01*
X013340Y012076D01*
X013272Y012086D01*
X012977Y012086D01*
X012977Y011686D01*
X012897Y011686D01*
X012897Y012086D01*
X012602Y012086D01*
X012534Y012076D01*
X012588Y012084D02*
X009005Y012084D01*
X009005Y012006D02*
X012383Y012006D01*
X012297Y011927D02*
X009005Y011927D01*
X009005Y011849D02*
X012246Y011849D01*
X012214Y011770D02*
X009005Y011770D01*
X009005Y011692D02*
X012199Y011692D01*
X012198Y011606D02*
X012208Y011543D01*
X012229Y011478D01*
X012261Y011416D01*
X012301Y011360D01*
X012350Y011311D01*
X012406Y011270D01*
X012468Y011239D01*
X012534Y011217D01*
X012602Y011206D01*
X012897Y011206D01*
X012897Y011606D01*
X012198Y011606D01*
X012211Y011535D02*
X010836Y011535D01*
X010850Y011521D02*
X010772Y011599D01*
X010669Y011641D01*
X010559Y011641D01*
X010456Y011599D01*
X010378Y011521D01*
X010336Y011418D01*
X010336Y011366D01*
X010100Y011130D01*
X010086Y011130D01*
X009984Y011087D01*
X009906Y011009D01*
X009863Y010907D01*
X009005Y010907D01*
X009005Y010985D02*
X009896Y010985D01*
X009863Y010907D02*
X009863Y010799D01*
X009701Y010637D01*
X009403Y010637D01*
X009333Y010566D01*
X009333Y010191D01*
X009381Y010143D01*
X009333Y010094D01*
X009333Y009719D01*
X009381Y009671D01*
X009351Y009600D01*
X009351Y009504D01*
X009388Y009417D01*
X009455Y009349D01*
X009543Y009313D01*
X009638Y009313D01*
X009726Y009349D01*
X009793Y009417D01*
X009829Y009504D01*
X009829Y009600D01*
X009800Y009671D01*
X009848Y009719D01*
X009848Y010094D01*
X009800Y010143D01*
X009848Y010191D01*
X009848Y010332D01*
X010089Y010573D01*
X010197Y010573D01*
X010299Y010615D01*
X010378Y010693D01*
X010420Y010796D01*
X010420Y010888D01*
X010617Y011085D01*
X010669Y011085D01*
X010772Y011127D01*
X010850Y011205D01*
X010892Y011308D01*
X010892Y011418D01*
X010850Y011521D01*
X010877Y011456D02*
X012240Y011456D01*
X012288Y011378D02*
X010892Y011378D01*
X010889Y011299D02*
X012366Y011299D01*
X012524Y011221D02*
X010856Y011221D01*
X010787Y011142D02*
X013702Y011142D01*
X013702Y011064D02*
X010596Y011064D01*
X010517Y010985D02*
X013702Y010985D01*
X013702Y010907D02*
X010439Y010907D01*
X010420Y010828D02*
X013702Y010828D01*
X013702Y010750D02*
X010401Y010750D01*
X010355Y010671D02*
X013702Y010671D01*
X013702Y010593D02*
X010245Y010593D01*
X010031Y010514D02*
X013702Y010514D01*
X013702Y010436D02*
X009952Y010436D01*
X009874Y010357D02*
X013702Y010357D01*
X013702Y010279D02*
X009848Y010279D01*
X009848Y010200D02*
X012556Y010200D01*
X012526Y010188D02*
X012459Y010120D01*
X012422Y010033D01*
X012422Y009937D01*
X012459Y009850D01*
X012526Y009782D01*
X012614Y009746D01*
X012619Y009746D01*
X012778Y009588D01*
X012778Y009455D01*
X012774Y009451D01*
X012737Y009363D01*
X012737Y009268D01*
X012774Y009180D01*
X005773Y009180D01*
X005777Y009176D02*
X005710Y009243D01*
X005622Y009279D01*
X005527Y009279D01*
X005439Y009243D01*
X005372Y009176D01*
X005336Y009088D01*
X005336Y008993D01*
X005372Y008905D01*
X005376Y008901D01*
X005376Y008353D01*
X005372Y008349D01*
X005336Y008261D01*
X005336Y008166D01*
X005346Y008140D01*
X005346Y008115D01*
X005313Y008082D01*
X005313Y008083D01*
X005287Y008109D01*
X005255Y008127D01*
X005219Y008137D01*
X005092Y008137D01*
X005092Y007888D01*
X005034Y007888D01*
X005034Y008137D01*
X004907Y008137D01*
X004871Y008127D01*
X004839Y008109D01*
X004813Y008083D01*
X004795Y008051D01*
X004785Y008015D01*
X004785Y007888D01*
X005034Y007888D01*
X005034Y007830D01*
X005092Y007830D01*
X005092Y007581D01*
X005219Y007581D01*
X005255Y007591D01*
X005287Y007609D01*
X005313Y007635D01*
X005313Y007636D01*
X005348Y007601D01*
X005723Y007601D01*
X005793Y007672D01*
X005793Y008047D01*
X005770Y008070D01*
X005777Y008078D01*
X005814Y008166D01*
X005814Y008261D01*
X005777Y008349D01*
X005773Y008353D01*
X005773Y008901D01*
X005777Y008905D01*
X005814Y008993D01*
X005814Y009088D01*
X005777Y009176D01*
X005808Y009101D02*
X007976Y009101D01*
X008031Y009124D02*
X007913Y009075D01*
X007233Y008395D01*
X007184Y008277D01*
X007184Y008150D01*
X007233Y008032D01*
X007323Y007942D01*
X007440Y007893D01*
X007567Y007893D01*
X007568Y007893D01*
X007540Y007828D01*
X007540Y007768D01*
X007359Y007586D01*
X007299Y007586D01*
X007211Y007550D01*
X007144Y007483D01*
X007107Y007395D01*
X007107Y007325D01*
X007103Y007342D01*
X007084Y007374D01*
X007058Y007400D01*
X007026Y007419D01*
X006991Y007428D01*
X006863Y007428D01*
X006863Y007179D01*
X006806Y007179D01*
X006806Y007428D01*
X006678Y007428D01*
X006643Y007419D01*
X006611Y007400D01*
X006585Y007374D01*
X006584Y007374D01*
X006584Y007373D02*
X006550Y007408D01*
X006175Y007408D01*
X006104Y007338D01*
X006104Y007012D01*
X006084Y006962D01*
X006084Y006867D01*
X006120Y006779D01*
X006187Y006712D01*
X006275Y006675D01*
X006370Y006675D01*
X006458Y006712D01*
X006525Y006779D01*
X006562Y006867D01*
X006562Y006905D01*
X006584Y006927D01*
X006585Y006927D01*
X006611Y006901D01*
X006643Y006882D01*
X006678Y006873D01*
X006806Y006873D01*
X006806Y007121D01*
X006863Y007121D01*
X006863Y006873D01*
X006991Y006873D01*
X007026Y006882D01*
X007058Y006901D01*
X007084Y006927D01*
X007103Y006959D01*
X007112Y006994D01*
X007112Y007121D01*
X006863Y007121D01*
X006863Y007179D01*
X007112Y007179D01*
X007112Y007288D01*
X007144Y007212D01*
X007211Y007145D01*
X007299Y007108D01*
X007394Y007108D01*
X007482Y007145D01*
X007549Y007212D01*
X007585Y007300D01*
X007585Y007360D01*
X007767Y007541D01*
X007827Y007541D01*
X007915Y007578D01*
X007982Y007645D01*
X008018Y007733D01*
X008018Y007828D01*
X007982Y007916D01*
X007915Y007983D01*
X007827Y008019D01*
X007762Y008019D01*
X008366Y008623D01*
X008414Y008740D01*
X008414Y008868D01*
X008366Y008985D01*
X008276Y009075D01*
X008158Y009124D01*
X008031Y009124D01*
X008213Y009101D02*
X012870Y009101D01*
X012841Y009113D02*
X012929Y009077D01*
X013024Y009077D01*
X013112Y009113D01*
X013179Y009180D01*
X013215Y009268D01*
X013215Y009363D01*
X013179Y009451D01*
X013175Y009455D01*
X013175Y009752D01*
X013059Y009869D01*
X012900Y010027D01*
X012900Y010033D01*
X012864Y010120D01*
X012797Y010188D01*
X012709Y010224D01*
X012614Y010224D01*
X012526Y010188D01*
X012460Y010122D02*
X009820Y010122D01*
X009848Y010043D02*
X012427Y010043D01*
X012422Y009965D02*
X009848Y009965D01*
X009848Y009886D02*
X012444Y009886D01*
X012501Y009808D02*
X009848Y009808D01*
X009848Y009729D02*
X012636Y009729D01*
X012715Y009651D02*
X009808Y009651D01*
X009829Y009572D02*
X012778Y009572D01*
X012778Y009494D02*
X009825Y009494D01*
X009792Y009415D02*
X012759Y009415D01*
X012737Y009337D02*
X009695Y009337D01*
X009486Y009337D02*
X009026Y009337D01*
X009057Y009349D02*
X009124Y009417D01*
X009160Y009504D01*
X009160Y009600D01*
X009124Y009687D01*
X009116Y009695D01*
X009140Y009719D01*
X009140Y010094D01*
X009091Y010143D01*
X009140Y010191D01*
X009140Y010566D01*
X009069Y010637D01*
X009042Y010637D01*
X009042Y010681D01*
X008996Y010727D01*
X009005Y010748D01*
X009005Y012293D01*
X008956Y012410D01*
X008866Y012500D01*
X008749Y012549D01*
X008621Y012549D01*
X008504Y012500D01*
X008414Y012410D01*
X008365Y012293D01*
X008365Y010748D01*
X008414Y010631D01*
X008504Y010541D01*
X008621Y010492D01*
X008624Y010492D01*
X008624Y010191D01*
X008673Y010143D01*
X008624Y010094D01*
X008624Y009719D01*
X008694Y009649D01*
X008702Y009649D01*
X008682Y009600D01*
X008682Y009504D01*
X008718Y009417D01*
X008786Y009349D01*
X008874Y009313D01*
X008969Y009313D01*
X009057Y009349D01*
X009122Y009415D02*
X009389Y009415D01*
X009356Y009494D02*
X009156Y009494D01*
X009160Y009572D02*
X009351Y009572D01*
X009373Y009651D02*
X009139Y009651D01*
X009140Y009729D02*
X009333Y009729D01*
X009333Y009808D02*
X009140Y009808D01*
X009140Y009886D02*
X009333Y009886D01*
X009333Y009965D02*
X009140Y009965D01*
X009140Y010043D02*
X009333Y010043D01*
X009360Y010122D02*
X009112Y010122D01*
X009140Y010200D02*
X009333Y010200D01*
X009333Y010279D02*
X009140Y010279D01*
X009140Y010357D02*
X009333Y010357D01*
X009333Y010436D02*
X009140Y010436D01*
X009140Y010514D02*
X009333Y010514D01*
X009359Y010593D02*
X009113Y010593D01*
X009042Y010671D02*
X009735Y010671D01*
X009814Y010750D02*
X009005Y010750D01*
X009005Y010828D02*
X009863Y010828D01*
X009960Y011064D02*
X009005Y011064D01*
X009005Y011142D02*
X010112Y011142D01*
X010191Y011221D02*
X009005Y011221D01*
X009005Y011299D02*
X010269Y011299D01*
X010336Y011378D02*
X009005Y011378D01*
X009005Y011456D02*
X010351Y011456D01*
X010392Y011535D02*
X009005Y011535D01*
X009005Y011613D02*
X010490Y011613D01*
X010738Y011613D02*
X012897Y011613D01*
X012897Y011535D02*
X012977Y011535D01*
X012977Y011613D02*
X013702Y011613D01*
X013702Y011535D02*
X013663Y011535D01*
X013634Y011456D02*
X013702Y011456D01*
X013702Y011378D02*
X013585Y011378D01*
X013507Y011299D02*
X013702Y011299D01*
X013702Y011221D02*
X013350Y011221D01*
X013675Y011692D02*
X013702Y011692D01*
X013702Y011770D02*
X013659Y011770D01*
X013628Y011849D02*
X013702Y011849D01*
X013702Y011927D02*
X013577Y011927D01*
X013491Y012006D02*
X013702Y012006D01*
X013702Y012084D02*
X013286Y012084D01*
X012977Y012084D02*
X012897Y012084D01*
X012897Y012006D02*
X012977Y012006D01*
X012977Y011927D02*
X012897Y011927D01*
X012897Y011849D02*
X012977Y011849D01*
X012977Y011770D02*
X012897Y011770D01*
X012897Y011692D02*
X012977Y011692D01*
X012977Y011456D02*
X012897Y011456D01*
X012897Y011378D02*
X012977Y011378D01*
X012977Y011299D02*
X012897Y011299D01*
X012897Y011221D02*
X012977Y011221D01*
X012767Y010200D02*
X013702Y010200D01*
X013702Y010122D02*
X012863Y010122D01*
X012896Y010043D02*
X013702Y010043D01*
X013702Y009965D02*
X012963Y009965D01*
X013041Y009886D02*
X013702Y009886D01*
X013702Y009808D02*
X013120Y009808D01*
X013175Y009729D02*
X013702Y009729D01*
X013702Y009651D02*
X013175Y009651D01*
X013175Y009572D02*
X013702Y009572D01*
X013702Y009494D02*
X013175Y009494D01*
X013194Y009415D02*
X013702Y009415D01*
X013702Y009337D02*
X013215Y009337D01*
X013211Y009258D02*
X013702Y009258D01*
X013702Y009180D02*
X013178Y009180D01*
X013083Y009101D02*
X013702Y009101D01*
X013702Y009023D02*
X012401Y009023D01*
X012323Y009100D02*
X011872Y009100D01*
X011552Y008781D01*
X011552Y008329D01*
X011872Y008010D01*
X012323Y008010D01*
X012642Y008329D01*
X012642Y008781D01*
X012323Y009100D01*
X012479Y008944D02*
X013702Y008944D01*
X013702Y008866D02*
X012558Y008866D01*
X012636Y008787D02*
X013702Y008787D01*
X013702Y008709D02*
X012642Y008709D01*
X012642Y008630D02*
X013702Y008630D01*
X013702Y008552D02*
X012642Y008552D01*
X012642Y008473D02*
X013702Y008473D01*
X013702Y008395D02*
X012642Y008395D01*
X012629Y008316D02*
X013702Y008316D01*
X013702Y008238D02*
X012551Y008238D01*
X012472Y008159D02*
X013702Y008159D01*
X013702Y008081D02*
X012394Y008081D01*
X011801Y008081D02*
X007824Y008081D01*
X007869Y008002D02*
X013702Y008002D01*
X013702Y007924D02*
X007974Y007924D01*
X008011Y007845D02*
X013702Y007845D01*
X013702Y007767D02*
X008739Y007767D01*
X008738Y007768D02*
X008712Y007794D01*
X008680Y007812D01*
X008644Y007822D01*
X008517Y007822D01*
X008517Y007573D01*
X008766Y007573D01*
X008766Y007700D01*
X008756Y007736D01*
X008738Y007768D01*
X008766Y007688D02*
X010460Y007688D01*
X010480Y007708D02*
X010160Y007389D01*
X010160Y006937D01*
X010480Y006618D01*
X010931Y006618D01*
X011250Y006937D01*
X011250Y007389D01*
X010931Y007708D01*
X010480Y007708D01*
X010381Y007610D02*
X008766Y007610D01*
X008766Y007515D02*
X008517Y007515D01*
X008517Y007573D01*
X008459Y007573D01*
X008459Y007515D01*
X008210Y007515D01*
X008210Y007388D01*
X008220Y007352D01*
X008238Y007320D01*
X008264Y007294D01*
X008265Y007294D01*
X008230Y007259D01*
X008230Y007131D01*
X008195Y007117D01*
X008153Y007075D01*
X008112Y007117D01*
X008024Y007153D01*
X007929Y007153D01*
X007841Y007117D01*
X007774Y007050D01*
X007737Y006962D01*
X007737Y006901D01*
X007674Y006838D01*
X007653Y006818D01*
X007553Y006818D01*
X007518Y006783D01*
X007517Y006784D01*
X007491Y006810D01*
X007459Y006828D01*
X007424Y006838D01*
X007296Y006838D01*
X007296Y006589D01*
X007239Y006589D01*
X007239Y006838D01*
X007111Y006838D01*
X007076Y006828D01*
X007044Y006810D01*
X007018Y006784D01*
X006999Y006752D01*
X006990Y006716D01*
X006990Y006589D01*
X000744Y006589D01*
X000744Y006511D02*
X006990Y006511D01*
X006990Y006531D02*
X006990Y006404D01*
X006999Y006368D01*
X007018Y006336D01*
X007044Y006310D01*
X007076Y006292D01*
X007111Y006282D01*
X007239Y006282D01*
X007239Y006531D01*
X007296Y006531D01*
X007296Y006282D01*
X007424Y006282D01*
X007459Y006292D01*
X007491Y006310D01*
X007517Y006336D01*
X007518Y006337D01*
X007553Y006302D01*
X007928Y006302D01*
X007998Y006372D01*
X007998Y006675D01*
X008024Y006675D01*
X008112Y006712D01*
X008153Y006753D01*
X008195Y006712D01*
X008283Y006675D01*
X008378Y006675D01*
X008466Y006712D01*
X008533Y006779D01*
X008548Y006814D01*
X008676Y006814D01*
X008746Y006884D01*
X008746Y007259D01*
X008711Y007294D01*
X008712Y007294D01*
X008738Y007320D01*
X008756Y007352D01*
X008766Y007388D01*
X008766Y007515D01*
X008766Y007453D02*
X010224Y007453D01*
X010160Y007374D02*
X008762Y007374D01*
X008713Y007296D02*
X010160Y007296D01*
X010160Y007217D02*
X008746Y007217D01*
X008746Y007139D02*
X010160Y007139D01*
X010160Y007060D02*
X008746Y007060D01*
X008746Y006982D02*
X010160Y006982D01*
X010195Y006903D02*
X008746Y006903D01*
X008686Y006825D02*
X010273Y006825D01*
X010352Y006746D02*
X008501Y006746D01*
X008331Y006914D02*
X008488Y007072D01*
X008230Y007139D02*
X008059Y007139D01*
X007893Y007139D02*
X007467Y007139D01*
X007551Y007217D02*
X008230Y007217D01*
X008263Y007296D02*
X007584Y007296D01*
X007600Y007374D02*
X008214Y007374D01*
X008210Y007453D02*
X007678Y007453D01*
X007757Y007531D02*
X008459Y007531D01*
X008459Y007573D02*
X008210Y007573D01*
X008210Y007700D01*
X008220Y007736D01*
X008238Y007768D01*
X008264Y007794D01*
X008296Y007812D01*
X008332Y007822D01*
X008459Y007822D01*
X008459Y007573D01*
X008459Y007610D02*
X008517Y007610D01*
X008517Y007688D02*
X008459Y007688D01*
X008459Y007767D02*
X008517Y007767D01*
X008517Y007531D02*
X010303Y007531D01*
X010951Y007688D02*
X013702Y007688D01*
X013702Y007610D02*
X011030Y007610D01*
X011108Y007531D02*
X013702Y007531D01*
X013702Y007453D02*
X011187Y007453D01*
X011250Y007374D02*
X013702Y007374D01*
X013702Y007296D02*
X011250Y007296D01*
X011250Y007217D02*
X013702Y007217D01*
X013702Y007139D02*
X011250Y007139D01*
X011250Y007060D02*
X013702Y007060D01*
X013702Y006982D02*
X011250Y006982D01*
X011216Y006903D02*
X013702Y006903D01*
X013702Y006825D02*
X011138Y006825D01*
X011059Y006746D02*
X013702Y006746D01*
X013702Y006668D02*
X010981Y006668D01*
X010430Y006668D02*
X007998Y006668D01*
X007998Y006589D02*
X013702Y006589D01*
X013702Y006511D02*
X007998Y006511D01*
X007998Y006432D02*
X013702Y006432D01*
X013702Y006354D02*
X007979Y006354D01*
X007740Y006560D02*
X007740Y006678D01*
X007976Y006914D01*
X007737Y006903D02*
X007061Y006903D01*
X007070Y006825D02*
X006544Y006825D01*
X006562Y006903D02*
X006608Y006903D01*
X006493Y006746D02*
X006998Y006746D01*
X006990Y006668D02*
X000744Y006668D01*
X000744Y006746D02*
X005365Y006746D01*
X005333Y006779D02*
X005400Y006712D01*
X005488Y006675D01*
X005583Y006675D01*
X005671Y006712D01*
X005738Y006779D01*
X005774Y006867D01*
X005774Y006944D01*
X005793Y006963D01*
X005793Y007338D01*
X005723Y007408D01*
X005348Y007408D01*
X005313Y007373D01*
X005313Y007374D01*
X005314Y007374D01*
X005313Y007374D02*
X005287Y007400D01*
X005255Y007419D01*
X005219Y007428D01*
X005092Y007428D01*
X005092Y007179D01*
X005034Y007179D01*
X005034Y007121D01*
X005092Y007121D01*
X005092Y006873D01*
X005219Y006873D01*
X005255Y006882D01*
X005287Y006901D01*
X005296Y006910D01*
X005296Y006867D01*
X005333Y006779D01*
X005314Y006825D02*
X000744Y006825D01*
X000744Y006903D02*
X004837Y006903D01*
X004839Y006901D02*
X004871Y006882D01*
X004907Y006873D01*
X005034Y006873D01*
X005034Y007121D01*
X004785Y007121D01*
X004785Y006994D01*
X004795Y006959D01*
X004813Y006927D01*
X004839Y006901D01*
X004788Y006982D02*
X000744Y006982D01*
X000744Y007060D02*
X004785Y007060D01*
X004785Y007179D02*
X005034Y007179D01*
X005034Y007428D01*
X004907Y007428D01*
X004871Y007419D01*
X004839Y007400D01*
X004813Y007374D01*
X000744Y007374D01*
X000744Y007296D02*
X004785Y007296D01*
X004785Y007307D02*
X004785Y007179D01*
X004785Y007217D02*
X000744Y007217D01*
X000744Y007139D02*
X005034Y007139D01*
X005034Y007217D02*
X005092Y007217D01*
X005092Y007296D02*
X005034Y007296D01*
X005034Y007374D02*
X005092Y007374D01*
X005034Y007581D02*
X004907Y007581D01*
X004871Y007591D01*
X004839Y007609D01*
X004813Y007635D01*
X004795Y007667D01*
X004785Y007703D01*
X004785Y007830D01*
X005034Y007830D01*
X005034Y007581D01*
X005034Y007610D02*
X005092Y007610D01*
X005092Y007688D02*
X005034Y007688D01*
X005034Y007767D02*
X005092Y007767D01*
X005034Y007845D02*
X000744Y007845D01*
X000744Y007767D02*
X004785Y007767D01*
X004789Y007688D02*
X000744Y007688D01*
X000744Y007610D02*
X004839Y007610D01*
X004813Y007374D02*
X004795Y007342D01*
X004785Y007307D01*
X005034Y007060D02*
X005092Y007060D01*
X005092Y006982D02*
X005034Y006982D01*
X005034Y006903D02*
X005092Y006903D01*
X005289Y006903D02*
X005296Y006903D01*
X005557Y006408D02*
X005490Y006341D01*
X005454Y006253D01*
X005454Y006158D01*
X005490Y006070D01*
X005533Y006027D01*
X005533Y005636D01*
X005490Y005593D01*
X005454Y005505D01*
X005454Y005410D01*
X005490Y005322D01*
X005557Y005255D01*
X005645Y005218D01*
X005740Y005218D01*
X005828Y005255D01*
X005895Y005322D01*
X005932Y005410D01*
X005932Y005505D01*
X005895Y005593D01*
X005853Y005636D01*
X005853Y006027D01*
X005895Y006070D01*
X005917Y006123D01*
X005923Y006109D01*
X005966Y006067D01*
X005966Y005746D01*
X006060Y005652D01*
X006119Y005593D01*
X006145Y005593D01*
X006187Y005550D01*
X006275Y005514D01*
X006370Y005514D01*
X006458Y005550D01*
X006525Y005617D01*
X006562Y005705D01*
X006562Y005800D01*
X006525Y005888D01*
X006458Y005955D01*
X006370Y005992D01*
X006286Y005992D01*
X006286Y006067D01*
X006329Y006109D01*
X006365Y006197D01*
X006365Y006292D01*
X006329Y006380D01*
X006261Y006448D01*
X006173Y006484D01*
X006078Y006484D01*
X005990Y006448D01*
X005923Y006380D01*
X005901Y006327D01*
X005895Y006341D01*
X005828Y006408D01*
X005740Y006445D01*
X005645Y006445D01*
X005557Y006408D01*
X005615Y006432D02*
X002029Y006432D01*
X001978Y006453D02*
X002131Y006390D01*
X002249Y006272D01*
X002312Y006119D01*
X002312Y005953D01*
X002249Y005800D01*
X002131Y005683D01*
X001978Y005619D01*
X001219Y005619D01*
X001065Y005683D01*
X000948Y005800D01*
X000885Y005953D01*
X000885Y006119D01*
X000948Y006272D01*
X001065Y006390D01*
X001219Y006453D01*
X001978Y006453D01*
X002167Y006354D02*
X005503Y006354D01*
X005463Y006275D02*
X002246Y006275D01*
X002280Y006197D02*
X005454Y006197D01*
X005470Y006118D02*
X003854Y006118D01*
X003888Y006085D02*
X003820Y006152D01*
X003732Y006189D01*
X003637Y006189D01*
X003550Y006152D01*
X003482Y006085D01*
X003446Y005997D01*
X003446Y005902D01*
X003458Y005873D01*
X003427Y005842D01*
X003427Y005467D01*
X003476Y005418D01*
X003427Y005369D01*
X003427Y004994D01*
X003497Y004924D01*
X003525Y004924D01*
X003525Y004770D01*
X003497Y004770D01*
X003427Y004700D01*
X003427Y004325D01*
X003497Y004255D01*
X003872Y004255D01*
X003921Y004304D01*
X003970Y004255D01*
X004345Y004255D01*
X004415Y004325D01*
X004415Y004353D01*
X004760Y004353D01*
X004805Y004308D01*
X004805Y004089D01*
X004875Y004019D01*
X004903Y004019D01*
X004903Y004010D01*
X004903Y004009D01*
X004903Y003914D01*
X004939Y003826D01*
X005006Y003759D01*
X005094Y003722D01*
X005189Y003722D01*
X005277Y003759D01*
X005344Y003826D01*
X005381Y003914D01*
X005381Y004009D01*
X005377Y004019D01*
X005723Y004019D01*
X005793Y004089D01*
X005793Y004116D01*
X005907Y004116D01*
X005907Y004089D01*
X005978Y004019D01*
X006353Y004019D01*
X006387Y004053D01*
X006388Y004053D01*
X006414Y004027D01*
X006446Y004008D01*
X006481Y003999D01*
X005381Y003999D01*
X005381Y003920D02*
X012648Y003920D01*
X012570Y003842D02*
X005351Y003842D01*
X005281Y003763D02*
X012491Y003763D01*
X012413Y003685D02*
X001394Y003685D01*
X001421Y003658D02*
X000744Y004335D01*
X000744Y008385D01*
X000829Y008300D01*
X000996Y008231D01*
X001177Y008231D01*
X001344Y008300D01*
X001472Y008428D01*
X001541Y008595D01*
X001541Y008776D01*
X001472Y008943D01*
X001344Y009071D01*
X001177Y009140D01*
X000996Y009140D01*
X000829Y009071D01*
X000744Y008986D01*
X000744Y009385D01*
X000829Y009300D01*
X000996Y009231D01*
X001177Y009231D01*
X001344Y009300D01*
X001472Y009428D01*
X001541Y009595D01*
X001541Y009776D01*
X001472Y009943D01*
X001344Y010071D01*
X001177Y010140D01*
X000996Y010140D01*
X000829Y010071D01*
X000744Y009986D01*
X000744Y010307D01*
X000829Y010222D01*
X000996Y010152D01*
X001177Y010152D01*
X001344Y010222D01*
X001472Y010350D01*
X001541Y010517D01*
X001541Y010698D01*
X001472Y010865D01*
X001344Y010993D01*
X001177Y011062D01*
X000996Y011062D01*
X000829Y010993D01*
X000744Y010907D01*
X000744Y011307D01*
X000829Y011222D01*
X000996Y011152D01*
X001177Y011152D01*
X001344Y011222D01*
X001472Y011350D01*
X001541Y011517D01*
X001541Y011698D01*
X001472Y011865D01*
X001344Y011993D01*
X001177Y012062D01*
X000996Y012062D01*
X000829Y011993D01*
X000744Y011907D01*
X000744Y012307D01*
X000829Y012222D01*
X000996Y012152D01*
X001177Y012152D01*
X001344Y012222D01*
X001472Y012350D01*
X001541Y012517D01*
X001541Y012698D01*
X001472Y012865D01*
X001344Y012993D01*
X001177Y013062D01*
X000996Y013062D01*
X000829Y012993D01*
X000744Y012907D01*
X000744Y014819D01*
X000829Y014733D01*
X000996Y014664D01*
X001177Y014664D01*
X001344Y014733D01*
X001472Y014861D01*
X001541Y015028D01*
X001541Y015209D01*
X001472Y015376D01*
X001344Y015504D01*
X001177Y015574D01*
X000996Y015574D01*
X000829Y015504D01*
X000744Y015419D01*
X000744Y017840D01*
X001169Y018265D01*
X001205Y018251D01*
X001283Y018251D01*
X001447Y018087D01*
X001440Y018087D01*
X001370Y018017D01*
X001370Y017544D01*
X001440Y017473D01*
X002386Y017473D01*
X002456Y017544D01*
X002456Y018017D01*
X002386Y018087D01*
X002187Y018087D01*
X002151Y018175D01*
X001679Y018647D01*
X001679Y018725D01*
X001619Y018871D01*
X001510Y018979D01*
X003002Y018979D01*
X002981Y018963D01*
X002935Y018917D01*
X002896Y018864D01*
X002867Y018806D01*
X002846Y018744D01*
X002836Y018679D01*
X002836Y018666D01*
X003233Y018666D01*
X003233Y018627D01*
X003271Y018627D01*
X003271Y018231D01*
X003285Y018231D01*
X003349Y018241D01*
X003411Y018261D01*
X003470Y018291D01*
X003523Y018329D01*
X003569Y018376D01*
X003607Y018429D01*
X003637Y018487D01*
X003657Y018549D01*
X003667Y018614D01*
X003667Y018627D01*
X003271Y018627D01*
X003271Y018666D01*
X003667Y018666D01*
X003667Y018679D01*
X003657Y018744D01*
X003637Y018806D01*
X003607Y018864D01*
X003569Y018917D01*
X003523Y018963D01*
X003501Y018979D01*
X004323Y018979D01*
X004297Y018968D01*
X004229Y018901D01*
X004100Y018771D01*
X003757Y018428D01*
X003721Y018340D01*
X003721Y018244D01*
X003757Y018156D01*
X003825Y018089D01*
X003913Y018052D01*
X004008Y018052D01*
X004096Y018089D01*
X004440Y018432D01*
X004532Y018525D01*
X005150Y018525D01*
X005238Y018561D01*
X005306Y018629D01*
X005342Y018717D01*
X005342Y018812D01*
X005306Y018901D01*
X005238Y018968D01*
X005150Y019005D01*
X004949Y019005D01*
X004949Y023643D01*
X005111Y023643D01*
X005199Y023679D01*
X005266Y023747D01*
X005303Y023835D01*
X005303Y023930D01*
X005266Y024019D01*
X005199Y024086D01*
X005111Y024123D01*
X004779Y024123D01*
X004691Y024086D01*
X004623Y024019D01*
X004534Y023929D01*
X004534Y025475D01*
X013702Y025475D01*
X013702Y003432D01*
X012694Y003432D01*
X013280Y004018D01*
X013299Y004018D01*
X013387Y004054D01*
X013455Y004121D01*
X013491Y004209D01*
X013491Y004304D01*
X013455Y004392D01*
X013387Y004459D01*
X013299Y004496D01*
X013204Y004496D01*
X013116Y004459D01*
X013049Y004392D01*
X013013Y004304D01*
X013013Y004285D01*
X012386Y003658D01*
X001421Y003658D01*
X001316Y003763D02*
X005002Y003763D01*
X004932Y003842D02*
X001237Y003842D01*
X001159Y003920D02*
X004903Y003920D01*
X004903Y003999D02*
X001080Y003999D01*
X001002Y004077D02*
X004817Y004077D01*
X004805Y004156D02*
X000923Y004156D01*
X000845Y004234D02*
X004805Y004234D01*
X004800Y004313D02*
X004403Y004313D01*
X004157Y004513D02*
X004827Y004513D01*
X005063Y004276D01*
X005063Y004040D01*
X005142Y003961D01*
X005299Y004485D02*
X005250Y004534D01*
X005031Y004534D01*
X004893Y004673D01*
X004415Y004673D01*
X004415Y004700D01*
X004345Y004770D01*
X003970Y004770D01*
X003921Y004722D01*
X003872Y004770D01*
X003845Y004770D01*
X003845Y004924D01*
X003872Y004924D01*
X003943Y004994D01*
X003943Y005369D01*
X003894Y005418D01*
X003943Y005467D01*
X003943Y005842D01*
X003912Y005873D01*
X003924Y005902D01*
X003924Y005997D01*
X003888Y006085D01*
X003906Y006040D02*
X005521Y006040D01*
X005533Y005961D02*
X003924Y005961D01*
X003916Y005883D02*
X005533Y005883D01*
X005533Y005804D02*
X003943Y005804D01*
X003943Y005726D02*
X005533Y005726D01*
X005533Y005647D02*
X003943Y005647D01*
X003943Y005569D02*
X005480Y005569D01*
X005454Y005490D02*
X003943Y005490D01*
X003900Y005412D02*
X005454Y005412D01*
X005486Y005333D02*
X003943Y005333D01*
X003943Y005255D02*
X005558Y005255D01*
X005693Y005457D02*
X005693Y006206D01*
X005770Y006432D02*
X005975Y006432D01*
X005912Y006354D02*
X005883Y006354D01*
X005915Y006118D02*
X005920Y006118D01*
X005966Y006040D02*
X005865Y006040D01*
X005853Y005961D02*
X005966Y005961D01*
X005966Y005883D02*
X005853Y005883D01*
X005853Y005804D02*
X005966Y005804D01*
X005986Y005726D02*
X005853Y005726D01*
X005853Y005647D02*
X006064Y005647D01*
X006169Y005569D02*
X005906Y005569D01*
X005932Y005490D02*
X009333Y005490D01*
X009333Y005412D02*
X005932Y005412D01*
X005900Y005333D02*
X009333Y005333D01*
X009333Y005255D02*
X005828Y005255D01*
X006278Y004963D02*
X006241Y004875D01*
X006241Y004815D01*
X006005Y004579D01*
X006005Y004534D01*
X005978Y004534D01*
X005907Y004464D01*
X005907Y004436D01*
X005793Y004436D01*
X005793Y004464D01*
X005723Y004534D01*
X005348Y004534D01*
X005299Y004485D01*
X005017Y004548D02*
X006005Y004548D01*
X006053Y004627D02*
X004939Y004627D01*
X004410Y004705D02*
X006131Y004705D01*
X006210Y004784D02*
X003845Y004784D01*
X003845Y004862D02*
X006241Y004862D01*
X006268Y004941D02*
X003889Y004941D01*
X003943Y005019D02*
X006334Y005019D01*
X006345Y005030D02*
X006278Y004963D01*
X006345Y005030D02*
X006433Y005067D01*
X006528Y005067D01*
X006616Y005030D01*
X006683Y004963D01*
X006719Y004875D01*
X006719Y004780D01*
X006683Y004692D01*
X006616Y004625D01*
X006528Y004589D01*
X006467Y004589D01*
X006383Y004504D01*
X006387Y004499D01*
X006388Y004500D01*
X006414Y004526D01*
X006446Y004545D01*
X006481Y004554D01*
X006609Y004554D01*
X006609Y004305D01*
X006667Y004305D01*
X006915Y004305D01*
X006915Y004433D01*
X006906Y004468D01*
X006887Y004500D01*
X006861Y004526D01*
X006830Y004545D01*
X006794Y004554D01*
X006667Y004554D01*
X006667Y004305D01*
X006667Y004247D01*
X006915Y004247D01*
X006915Y004120D01*
X006906Y004085D01*
X006887Y004053D01*
X006861Y004027D01*
X006830Y004008D01*
X006794Y003999D01*
X012727Y003999D01*
X012805Y004077D02*
X006902Y004077D01*
X006915Y004156D02*
X012884Y004156D01*
X012962Y004234D02*
X006915Y004234D01*
X006915Y004313D02*
X013016Y004313D01*
X013049Y004391D02*
X006915Y004391D01*
X006905Y004470D02*
X013141Y004470D01*
X013362Y004470D02*
X013702Y004470D01*
X013702Y004548D02*
X006816Y004548D01*
X006667Y004548D02*
X006609Y004548D01*
X006609Y004470D02*
X006667Y004470D01*
X006667Y004391D02*
X006609Y004391D01*
X006609Y004313D02*
X006667Y004313D01*
X006667Y004247D02*
X006667Y003999D01*
X006609Y003999D01*
X006609Y004247D01*
X006667Y004247D01*
X006667Y004234D02*
X006609Y004234D01*
X006609Y004156D02*
X006667Y004156D01*
X006667Y004077D02*
X006609Y004077D01*
X006609Y003999D02*
X006481Y003999D01*
X006165Y004276D02*
X006165Y004513D01*
X006480Y004828D01*
X006627Y005019D02*
X009313Y005019D01*
X009313Y004975D02*
X009562Y004975D01*
X009562Y004917D01*
X009619Y004917D01*
X009619Y004668D01*
X009747Y004668D01*
X009782Y004677D01*
X009814Y004696D01*
X009840Y004722D01*
X009859Y004754D01*
X009868Y004789D01*
X009868Y004917D01*
X009619Y004917D01*
X009619Y004975D01*
X009868Y004975D01*
X009868Y005102D01*
X009859Y005138D01*
X009840Y005169D01*
X009814Y005195D01*
X009814Y005196D01*
X009848Y005231D01*
X009848Y005401D01*
X009923Y005432D01*
X009990Y005499D01*
X010026Y005587D01*
X010026Y005682D01*
X009990Y005770D01*
X009923Y005837D01*
X009835Y005874D01*
X009740Y005874D01*
X009652Y005837D01*
X009585Y005770D01*
X009548Y005682D01*
X009548Y005676D01*
X009403Y005676D01*
X009333Y005606D01*
X009333Y005231D01*
X009367Y005196D01*
X009367Y005195D01*
X009341Y005169D01*
X009322Y005138D01*
X009313Y005102D01*
X009313Y004975D01*
X009313Y004917D02*
X009313Y004789D01*
X009322Y004754D01*
X009341Y004722D01*
X009367Y004696D01*
X009399Y004677D01*
X009434Y004668D01*
X009562Y004668D01*
X009562Y004917D01*
X009313Y004917D01*
X009313Y004862D02*
X006719Y004862D01*
X006719Y004784D02*
X009314Y004784D01*
X009357Y004705D02*
X006688Y004705D01*
X006617Y004627D02*
X013702Y004627D01*
X013702Y004705D02*
X009823Y004705D01*
X009867Y004784D02*
X013702Y004784D01*
X013702Y004862D02*
X009868Y004862D01*
X009868Y005019D02*
X013702Y005019D01*
X013702Y004941D02*
X009619Y004941D01*
X009562Y004941D02*
X006692Y004941D01*
X006459Y004548D02*
X006427Y004548D01*
X006165Y004276D02*
X005535Y004276D01*
X005781Y004077D02*
X005919Y004077D01*
X005913Y004470D02*
X005787Y004470D01*
X006477Y005569D02*
X009333Y005569D01*
X009374Y005647D02*
X006538Y005647D01*
X006562Y005726D02*
X009566Y005726D01*
X009619Y005804D02*
X006560Y005804D01*
X006528Y005883D02*
X013702Y005883D01*
X013702Y005961D02*
X006444Y005961D01*
X006286Y006040D02*
X013702Y006040D01*
X013702Y006118D02*
X006332Y006118D01*
X006365Y006197D02*
X013702Y006197D01*
X013702Y006275D02*
X006365Y006275D01*
X006340Y006354D02*
X007008Y006354D01*
X006990Y006432D02*
X006277Y006432D01*
X006126Y006245D02*
X006126Y005812D01*
X006185Y005753D01*
X006323Y005753D01*
X006153Y006746D02*
X005705Y006746D01*
X005757Y006825D02*
X006101Y006825D01*
X006084Y006903D02*
X005774Y006903D01*
X005793Y006982D02*
X006092Y006982D01*
X006104Y007060D02*
X005793Y007060D01*
X005793Y007139D02*
X006104Y007139D01*
X006104Y007217D02*
X005793Y007217D01*
X005793Y007296D02*
X006104Y007296D01*
X006141Y007374D02*
X005757Y007374D01*
X005731Y007610D02*
X006166Y007610D01*
X006175Y007601D02*
X006550Y007601D01*
X006584Y007636D01*
X006585Y007635D01*
X006611Y007609D01*
X006643Y007591D01*
X006678Y007581D01*
X006806Y007581D01*
X006806Y007830D01*
X006863Y007830D01*
X006863Y007581D01*
X006991Y007581D01*
X007026Y007591D01*
X007058Y007609D01*
X007084Y007635D01*
X007103Y007667D01*
X007112Y007703D01*
X007112Y007830D01*
X006863Y007830D01*
X006863Y007888D01*
X006806Y007888D01*
X006806Y008137D01*
X006678Y008137D01*
X006643Y008127D01*
X006611Y008109D01*
X006585Y008083D01*
X006584Y008082D01*
X006551Y008115D01*
X006551Y008140D01*
X006562Y008166D01*
X006562Y008261D01*
X006525Y008349D01*
X006458Y008416D01*
X006370Y008452D01*
X006275Y008452D01*
X006187Y008416D01*
X006120Y008349D01*
X006084Y008261D01*
X006084Y008166D01*
X006120Y008078D01*
X006128Y008070D01*
X006104Y008047D01*
X006104Y007672D01*
X006175Y007601D01*
X006104Y007688D02*
X005793Y007688D01*
X005793Y007767D02*
X006104Y007767D01*
X006104Y007845D02*
X005793Y007845D01*
X005793Y007924D02*
X006104Y007924D01*
X006104Y008002D02*
X005793Y008002D01*
X005778Y008081D02*
X006119Y008081D01*
X006086Y008159D02*
X005811Y008159D01*
X005814Y008238D02*
X006084Y008238D01*
X006107Y008316D02*
X005791Y008316D01*
X005773Y008395D02*
X006166Y008395D01*
X006480Y008395D02*
X007233Y008395D01*
X007200Y008316D02*
X006539Y008316D01*
X006562Y008238D02*
X007184Y008238D01*
X007184Y008159D02*
X006559Y008159D01*
X006806Y008081D02*
X006863Y008081D01*
X006863Y008137D02*
X006991Y008137D01*
X007026Y008127D01*
X007058Y008109D01*
X007084Y008083D01*
X007103Y008051D01*
X007112Y008015D01*
X007112Y007888D01*
X006863Y007888D01*
X006863Y008137D01*
X006863Y008002D02*
X006806Y008002D01*
X006806Y007924D02*
X006863Y007924D01*
X006863Y007845D02*
X007548Y007845D01*
X007539Y007767D02*
X007112Y007767D01*
X007108Y007688D02*
X007461Y007688D01*
X007382Y007610D02*
X007059Y007610D01*
X007192Y007531D02*
X000744Y007531D01*
X000744Y007453D02*
X007131Y007453D01*
X007107Y007374D02*
X007084Y007374D01*
X007112Y007217D02*
X007141Y007217D01*
X007225Y007139D02*
X006863Y007139D01*
X006863Y007217D02*
X006806Y007217D01*
X006806Y007296D02*
X006863Y007296D01*
X006863Y007374D02*
X006806Y007374D01*
X006585Y007374D02*
X006584Y007373D01*
X006558Y007610D02*
X006610Y007610D01*
X006806Y007610D02*
X006863Y007610D01*
X006863Y007688D02*
X006806Y007688D01*
X006806Y007767D02*
X006863Y007767D01*
X007112Y007924D02*
X007367Y007924D01*
X007263Y008002D02*
X007112Y008002D01*
X007086Y008081D02*
X007212Y008081D01*
X007311Y008473D02*
X005773Y008473D01*
X005773Y008552D02*
X007390Y008552D01*
X007468Y008630D02*
X005773Y008630D01*
X005773Y008709D02*
X007547Y008709D01*
X007625Y008787D02*
X005773Y008787D01*
X005773Y008866D02*
X007704Y008866D01*
X007782Y008944D02*
X005794Y008944D01*
X005814Y009023D02*
X007861Y009023D01*
X008295Y008552D02*
X011552Y008552D01*
X011552Y008630D02*
X008369Y008630D01*
X008401Y008709D02*
X011552Y008709D01*
X011559Y008787D02*
X008414Y008787D01*
X008414Y008866D02*
X011637Y008866D01*
X011716Y008944D02*
X008383Y008944D01*
X008328Y009023D02*
X011794Y009023D01*
X011552Y008473D02*
X008216Y008473D01*
X008138Y008395D02*
X011552Y008395D01*
X011566Y008316D02*
X008059Y008316D01*
X007981Y008238D02*
X011644Y008238D01*
X011723Y008159D02*
X007902Y008159D01*
X007779Y007780D02*
X007346Y007347D01*
X007112Y007060D02*
X007784Y007060D01*
X007745Y006982D02*
X007109Y006982D01*
X007239Y006825D02*
X007296Y006825D01*
X007296Y006746D02*
X007239Y006746D01*
X007239Y006668D02*
X007296Y006668D01*
X007296Y006589D02*
X007239Y006589D01*
X007239Y006531D01*
X006990Y006531D01*
X006990Y006589D02*
X007239Y006589D01*
X007239Y006511D02*
X007296Y006511D01*
X007296Y006432D02*
X007239Y006432D01*
X007239Y006354D02*
X007296Y006354D01*
X007465Y006825D02*
X007660Y006825D01*
X008146Y006746D02*
X008161Y006746D01*
X008210Y007610D02*
X007947Y007610D01*
X008000Y007688D02*
X008210Y007688D01*
X008238Y007767D02*
X008018Y007767D01*
X008816Y009337D02*
X001380Y009337D01*
X001459Y009415D02*
X008720Y009415D01*
X008687Y009494D02*
X001499Y009494D01*
X001532Y009572D02*
X008682Y009572D01*
X008692Y009651D02*
X001541Y009651D01*
X001541Y009729D02*
X008624Y009729D01*
X008624Y009808D02*
X001528Y009808D01*
X001496Y009886D02*
X008624Y009886D01*
X008624Y009965D02*
X001451Y009965D01*
X001372Y010043D02*
X008624Y010043D01*
X008652Y010122D02*
X001222Y010122D01*
X001292Y010200D02*
X008624Y010200D01*
X008624Y010279D02*
X001401Y010279D01*
X001475Y010357D02*
X008624Y010357D01*
X008624Y010436D02*
X001508Y010436D01*
X001540Y010514D02*
X008567Y010514D01*
X008452Y010593D02*
X001541Y010593D01*
X001541Y010671D02*
X007532Y010671D01*
X007516Y010680D02*
X007548Y010662D01*
X007584Y010652D01*
X007711Y010652D01*
X007711Y010901D01*
X007769Y010901D01*
X007769Y010959D01*
X007711Y010959D01*
X007711Y011208D01*
X007584Y011208D01*
X007548Y011198D01*
X007516Y011180D01*
X007490Y011154D01*
X007490Y011153D01*
X007455Y011188D01*
X007080Y011188D01*
X007055Y011163D01*
X007040Y011169D01*
X006944Y011169D01*
X006857Y011133D01*
X006789Y011065D01*
X006753Y010977D01*
X006753Y010882D01*
X006789Y010795D01*
X006857Y010727D01*
X006944Y010691D01*
X007040Y010691D01*
X007055Y010697D01*
X007080Y010672D01*
X007455Y010672D01*
X007490Y010707D01*
X007490Y010706D01*
X007516Y010680D01*
X007711Y010671D02*
X007769Y010671D01*
X007769Y010652D02*
X007896Y010652D01*
X007932Y010662D01*
X007964Y010680D01*
X007990Y010706D01*
X008008Y010738D01*
X008018Y010774D01*
X008018Y010901D01*
X007769Y010901D01*
X007769Y010652D01*
X007769Y010750D02*
X007711Y010750D01*
X007711Y010828D02*
X007769Y010828D01*
X007769Y010907D02*
X008365Y010907D01*
X008365Y010985D02*
X008018Y010985D01*
X008018Y010959D02*
X008018Y011086D01*
X008008Y011122D01*
X007990Y011154D01*
X007964Y011180D01*
X007932Y011198D01*
X007896Y011208D01*
X007769Y011208D01*
X007769Y010959D01*
X008018Y010959D01*
X008018Y011064D02*
X008365Y011064D01*
X008365Y011142D02*
X007997Y011142D01*
X008018Y010828D02*
X008365Y010828D01*
X008365Y010750D02*
X008011Y010750D01*
X007948Y010671D02*
X008397Y010671D01*
X008685Y010812D02*
X008882Y010615D01*
X008882Y010379D01*
X008882Y009906D02*
X008882Y009591D01*
X008921Y009552D01*
X009590Y009552D02*
X009590Y009906D01*
X009590Y010379D02*
X009669Y010379D01*
X010142Y010851D01*
X008994Y012320D02*
X012370Y012320D01*
X012291Y012398D02*
X008961Y012398D01*
X008890Y012477D02*
X012253Y012477D01*
X012220Y012555D02*
X001541Y012555D01*
X001541Y012634D02*
X012217Y012634D01*
X012217Y012712D02*
X001535Y012712D01*
X001503Y012791D02*
X012242Y012791D01*
X012275Y012869D02*
X001467Y012869D01*
X001389Y012948D02*
X012344Y012948D01*
X012456Y013026D02*
X001263Y013026D01*
X000910Y013026D02*
X000744Y013026D01*
X000744Y012948D02*
X000784Y012948D01*
X000744Y013105D02*
X013702Y013105D01*
X013702Y013183D02*
X000744Y013183D01*
X000744Y013262D02*
X009599Y013262D01*
X009613Y013248D02*
X009752Y013190D01*
X009902Y013190D01*
X010040Y013248D01*
X010147Y013354D01*
X010204Y013493D01*
X010204Y013643D01*
X010147Y013782D01*
X010040Y013888D01*
X009902Y013945D01*
X009752Y013945D01*
X009613Y013888D01*
X009507Y013782D01*
X009449Y013643D01*
X009449Y013493D01*
X009507Y013354D01*
X009613Y013248D01*
X009520Y013340D02*
X000744Y013340D01*
X000744Y013419D02*
X009480Y013419D01*
X009449Y013497D02*
X000744Y013497D01*
X000744Y013576D02*
X009449Y013576D01*
X009454Y013654D02*
X000744Y013654D01*
X000744Y013733D02*
X009486Y013733D01*
X009536Y013811D02*
X000744Y013811D01*
X000744Y013890D02*
X009617Y013890D01*
X009770Y014271D02*
X009909Y014214D01*
X010059Y014214D01*
X010198Y014271D01*
X010304Y014378D01*
X010362Y014516D01*
X010362Y014666D01*
X010304Y014805D01*
X010198Y014911D01*
X010059Y014969D01*
X009909Y014969D01*
X009770Y014911D01*
X009664Y014805D01*
X009607Y014666D01*
X009607Y014516D01*
X009664Y014378D01*
X009770Y014271D01*
X009759Y014282D02*
X000744Y014282D01*
X000744Y014204D02*
X010785Y014204D01*
X010752Y014125D02*
X000744Y014125D01*
X000744Y014047D02*
X010748Y014047D01*
X010748Y013968D02*
X000744Y013968D01*
X000744Y014361D02*
X009681Y014361D01*
X009639Y014439D02*
X000744Y014439D01*
X000744Y014518D02*
X009607Y014518D01*
X009607Y014596D02*
X000744Y014596D01*
X000744Y014675D02*
X000971Y014675D01*
X000809Y014753D02*
X000744Y014753D01*
X001202Y014675D02*
X009610Y014675D01*
X009643Y014753D02*
X001364Y014753D01*
X001442Y014832D02*
X009691Y014832D01*
X009769Y014910D02*
X001492Y014910D01*
X001525Y014989D02*
X010396Y014989D01*
X010396Y015067D02*
X001541Y015067D01*
X001541Y015146D02*
X008666Y015146D01*
X008814Y015146D02*
X008871Y015146D01*
X008871Y015224D02*
X008814Y015224D01*
X008814Y015303D02*
X008871Y015303D01*
X008871Y015381D02*
X008814Y015381D01*
X008814Y015460D02*
X008871Y015460D01*
X008871Y015447D02*
X008871Y015696D01*
X008999Y015696D01*
X009034Y015686D01*
X009066Y015668D01*
X009092Y015642D01*
X009111Y015610D01*
X009120Y015574D01*
X009120Y015447D01*
X008871Y015447D01*
X008871Y015538D02*
X008814Y015538D01*
X008814Y015617D02*
X008871Y015617D01*
X008871Y015695D02*
X008814Y015695D01*
X008683Y015695D02*
X008550Y015695D01*
X008580Y015774D02*
X008632Y015774D01*
X008190Y015695D02*
X002447Y015695D01*
X002449Y015696D02*
X002467Y015728D01*
X002476Y015764D01*
X002476Y015929D01*
X001953Y015929D01*
X001953Y015642D01*
X002355Y015642D01*
X002391Y015652D01*
X002422Y015670D01*
X002449Y015696D01*
X002476Y015774D02*
X008160Y015774D01*
X008112Y015852D02*
X002476Y015852D01*
X002476Y016009D02*
X002476Y016175D01*
X002467Y016210D01*
X002449Y016242D01*
X002422Y016268D01*
X002391Y016287D01*
X002355Y016296D01*
X001953Y016296D01*
X001953Y016009D01*
X008112Y016009D01*
X008112Y015931D02*
X001953Y015931D01*
X001953Y015929D02*
X001953Y016009D01*
X002476Y016009D01*
X002476Y016088D02*
X008112Y016088D01*
X008112Y016166D02*
X004721Y016166D01*
X004740Y016185D02*
X004740Y017175D01*
X004751Y017186D01*
X004751Y017386D01*
X004754Y017389D01*
X004790Y017477D01*
X004790Y017572D01*
X004754Y017660D01*
X004686Y017727D01*
X004599Y017763D01*
X004504Y017763D01*
X004416Y017727D01*
X004348Y017660D01*
X004338Y017635D01*
X004190Y017635D01*
X004057Y017767D01*
X003969Y017804D01*
X003873Y017804D01*
X003785Y017767D01*
X003718Y017700D01*
X003681Y017612D01*
X003681Y017592D01*
X003654Y017564D01*
X003654Y017195D01*
X001850Y017195D01*
X001818Y017182D01*
X001440Y017182D01*
X001370Y017112D01*
X001370Y016638D01*
X001440Y016568D01*
X001818Y016568D01*
X001850Y016555D01*
X003654Y016555D01*
X003654Y016185D01*
X003724Y016115D01*
X004670Y016115D01*
X004740Y016185D01*
X004740Y016245D02*
X008161Y016245D01*
X008190Y016323D02*
X004740Y016323D01*
X004740Y016402D02*
X007845Y016402D01*
X007950Y016402D02*
X008162Y016402D01*
X008159Y016873D02*
X007957Y016873D01*
X007838Y016873D02*
X007604Y016873D01*
X007604Y016951D02*
X009181Y016951D01*
X009217Y016873D02*
X009259Y016873D01*
X009098Y016873D02*
X009054Y016873D01*
X009102Y017030D02*
X007604Y017030D01*
X007604Y017102D02*
X007555Y017150D01*
X007604Y017199D01*
X007604Y017574D01*
X007585Y017593D01*
X007585Y017670D01*
X007549Y017758D01*
X007482Y017825D01*
X007394Y017862D01*
X007299Y017862D01*
X007211Y017825D01*
X007144Y017758D01*
X007107Y017670D01*
X007107Y017593D01*
X007089Y017574D01*
X007089Y017199D01*
X007133Y017154D01*
X006969Y017154D01*
X007014Y017199D01*
X007014Y017574D01*
X006995Y017593D01*
X006995Y017670D01*
X006958Y017758D01*
X006891Y017825D01*
X006803Y017862D01*
X006708Y017862D01*
X006620Y017825D01*
X006553Y017758D01*
X006517Y017670D01*
X006517Y017593D01*
X006498Y017574D01*
X006498Y017199D01*
X006543Y017154D01*
X006275Y017154D01*
X006187Y017118D01*
X006119Y017050D01*
X006083Y016962D01*
X006083Y016866D01*
X006119Y016778D01*
X006187Y016711D01*
X006275Y016674D01*
X006550Y016674D01*
X006568Y016656D01*
X006943Y016656D01*
X006961Y016674D01*
X007141Y016674D01*
X007159Y016656D01*
X007534Y016656D01*
X007604Y016727D01*
X007604Y017102D01*
X007598Y017108D02*
X008951Y017108D01*
X008939Y017187D02*
X007592Y017187D01*
X007604Y017265D02*
X008939Y017265D01*
X008939Y017344D02*
X007604Y017344D01*
X007604Y017422D02*
X008939Y017422D01*
X008944Y017501D02*
X007604Y017501D01*
X007599Y017579D02*
X008953Y017579D01*
X008939Y017658D02*
X008585Y017658D01*
X008612Y017684D02*
X008648Y017772D01*
X008648Y017867D01*
X008612Y017955D01*
X008545Y018022D01*
X008457Y018059D01*
X008362Y018059D01*
X008312Y018038D01*
X007956Y018038D01*
X007906Y018059D01*
X007811Y018059D01*
X007723Y018022D01*
X007655Y017955D01*
X007619Y017867D01*
X007619Y017772D01*
X007655Y017684D01*
X007723Y017617D01*
X007811Y017581D01*
X007906Y017581D01*
X007956Y017601D01*
X008312Y017601D01*
X008362Y017581D01*
X008457Y017581D01*
X008545Y017617D01*
X008612Y017684D01*
X008633Y017736D02*
X008939Y017736D01*
X008939Y017815D02*
X008648Y017815D01*
X008638Y017893D02*
X008939Y017893D01*
X008943Y017972D02*
X008595Y017972D01*
X008478Y018050D02*
X009187Y018050D01*
X009081Y018129D02*
X004136Y018129D01*
X004215Y018207D02*
X009044Y018207D01*
X009036Y018286D02*
X004293Y018286D01*
X004372Y018364D02*
X009055Y018364D01*
X009018Y018443D02*
X004450Y018443D01*
X004440Y018432D02*
X004440Y018432D01*
X004529Y018521D02*
X009018Y018521D01*
X009018Y018600D02*
X005277Y018600D01*
X005326Y018678D02*
X009018Y018678D01*
X009018Y018757D02*
X007396Y018757D01*
X007478Y018835D02*
X009058Y018835D01*
X009462Y018914D02*
X007529Y018914D01*
X007561Y018992D02*
X007685Y018992D01*
X007635Y019071D02*
X007566Y019071D01*
X007566Y019149D02*
X007618Y019149D01*
X007627Y019228D02*
X007536Y019228D01*
X007200Y019463D02*
X004949Y019463D01*
X004949Y019385D02*
X006960Y019385D01*
X006882Y019306D02*
X004949Y019306D01*
X004949Y019228D02*
X006842Y019228D01*
X006811Y019149D02*
X004949Y019149D01*
X004949Y019071D02*
X006811Y019071D01*
X006816Y018992D02*
X005180Y018992D01*
X005293Y018914D02*
X006849Y018914D01*
X006899Y018835D02*
X005333Y018835D01*
X005342Y018757D02*
X006982Y018757D01*
X007246Y019542D02*
X004949Y019542D01*
X004949Y019620D02*
X007246Y019620D01*
X007246Y019699D02*
X004949Y019699D01*
X004949Y019777D02*
X007324Y019777D01*
X007282Y019856D02*
X006364Y019856D01*
X006379Y019862D02*
X006485Y019968D01*
X006543Y020107D01*
X006543Y020257D01*
X006485Y020396D01*
X006379Y020502D01*
X006240Y020559D01*
X006090Y020559D01*
X005951Y020502D01*
X005845Y020396D01*
X005788Y020257D01*
X005788Y020107D01*
X005845Y019968D01*
X005951Y019862D01*
X006090Y019804D01*
X006240Y019804D01*
X006379Y019862D01*
X006451Y019934D02*
X007265Y019934D01*
X007273Y020013D02*
X006504Y020013D01*
X006536Y020091D02*
X007307Y020091D01*
X007246Y020170D02*
X006543Y020170D01*
X006543Y020248D02*
X007246Y020248D01*
X007246Y020327D02*
X006514Y020327D01*
X006476Y020405D02*
X007246Y020405D01*
X007246Y020484D02*
X006397Y020484D01*
X005933Y020484D02*
X004949Y020484D01*
X004949Y020562D02*
X007281Y020562D01*
X007324Y020641D02*
X004949Y020641D01*
X004949Y020719D02*
X007324Y020719D01*
X007270Y020798D02*
X004949Y020798D01*
X004949Y020876D02*
X007246Y020876D01*
X007246Y020955D02*
X004949Y020955D01*
X004949Y021033D02*
X005953Y021033D01*
X005863Y021112D02*
X004949Y021112D01*
X004949Y021190D02*
X005831Y021190D01*
X005828Y021269D02*
X004949Y021269D01*
X004949Y021347D02*
X005850Y021347D01*
X005910Y021426D02*
X004949Y021426D01*
X004949Y021504D02*
X006131Y021504D01*
X006209Y021583D02*
X006043Y021583D01*
X006246Y021661D02*
X006254Y021661D01*
X006270Y021112D02*
X007246Y021112D01*
X007246Y021033D02*
X006180Y021033D01*
X006674Y021190D02*
X006877Y021190D01*
X007684Y021266D02*
X007684Y021284D01*
X007746Y021346D01*
X007782Y021434D01*
X007782Y021529D01*
X007746Y021617D01*
X007706Y021656D01*
X007928Y021656D01*
X007976Y021705D01*
X008025Y021656D01*
X008294Y021656D01*
X008289Y021637D01*
X008289Y021510D01*
X008538Y021510D01*
X008538Y021452D01*
X008289Y021452D01*
X008289Y021325D01*
X008299Y021289D01*
X008317Y021257D01*
X008343Y021231D01*
X008344Y021231D01*
X008309Y021196D01*
X008309Y021189D01*
X008234Y021189D01*
X008234Y021196D01*
X008164Y021266D01*
X007789Y021266D01*
X007740Y021218D01*
X007691Y021266D01*
X007684Y021266D01*
X007684Y021269D02*
X008310Y021269D01*
X008309Y021190D02*
X008234Y021190D01*
X008289Y021347D02*
X007746Y021347D01*
X007779Y021426D02*
X008289Y021426D01*
X008289Y021583D02*
X007760Y021583D01*
X007782Y021504D02*
X008538Y021504D01*
X008596Y021504D02*
X009018Y021504D01*
X009018Y021426D02*
X008845Y021426D01*
X008845Y021347D02*
X009018Y021347D01*
X009043Y021269D02*
X008823Y021269D01*
X008825Y021190D02*
X009018Y021190D01*
X009275Y021481D02*
X009275Y021560D01*
X009350Y021740D02*
X009984Y021740D01*
X010007Y021762D02*
X009900Y021656D01*
X009843Y021517D01*
X009843Y021367D01*
X009900Y021228D01*
X010007Y021122D01*
X010145Y021064D01*
X010295Y021064D01*
X010434Y021122D01*
X010540Y021228D01*
X010598Y021367D01*
X010598Y021517D01*
X010540Y021656D01*
X010434Y021762D01*
X010295Y021819D01*
X010145Y021819D01*
X010007Y021762D01*
X009906Y021661D02*
X009533Y021661D01*
X009533Y021583D02*
X009870Y021583D01*
X009843Y021504D02*
X009533Y021504D01*
X009533Y021426D02*
X009843Y021426D01*
X009851Y021347D02*
X009533Y021347D01*
X009508Y021269D02*
X009883Y021269D01*
X009938Y021190D02*
X009533Y021190D01*
X009533Y021112D02*
X010031Y021112D01*
X010410Y021112D02*
X013702Y021112D01*
X013702Y021190D02*
X010503Y021190D01*
X010557Y021269D02*
X012833Y021269D01*
X012850Y021262D02*
X012945Y021262D01*
X013033Y021298D01*
X013100Y021365D01*
X013137Y021453D01*
X013137Y021548D01*
X013100Y021636D01*
X013033Y021703D01*
X012945Y021740D01*
X012850Y021740D01*
X012762Y021703D01*
X012695Y021636D01*
X012658Y021548D01*
X012658Y021453D01*
X012695Y021365D01*
X012762Y021298D01*
X012850Y021262D01*
X012962Y021269D02*
X013702Y021269D01*
X013702Y021347D02*
X013082Y021347D01*
X013125Y021426D02*
X013702Y021426D01*
X013702Y021504D02*
X013137Y021504D01*
X013122Y021583D02*
X013702Y021583D01*
X013702Y021661D02*
X013075Y021661D01*
X012945Y021740D02*
X013702Y021740D01*
X013702Y021818D02*
X010298Y021818D01*
X010143Y021818D02*
X009298Y021818D01*
X009318Y021897D02*
X013702Y021897D01*
X013702Y021975D02*
X009312Y021975D01*
X009277Y022054D02*
X013702Y022054D01*
X013702Y022132D02*
X009177Y022132D01*
X008980Y022132D02*
X008440Y022132D01*
X008470Y022054D02*
X008880Y022054D01*
X008845Y021975D02*
X008470Y021975D01*
X008470Y021897D02*
X008840Y021897D01*
X008860Y021818D02*
X008470Y021818D01*
X008538Y021740D02*
X008596Y021740D01*
X008596Y021661D02*
X008538Y021661D01*
X008538Y021583D02*
X008596Y021583D01*
X008775Y021740D02*
X008899Y021740D01*
X008920Y021661D02*
X008838Y021661D01*
X008845Y021583D02*
X008998Y021583D01*
X009533Y021033D02*
X013702Y021033D01*
X013702Y020955D02*
X009533Y020955D01*
X009533Y020876D02*
X013702Y020876D01*
X013702Y020798D02*
X009510Y020798D01*
X009041Y020798D02*
X008801Y020798D01*
X008747Y020719D02*
X013702Y020719D01*
X013702Y020641D02*
X008690Y020641D01*
X008664Y020562D02*
X013702Y020562D01*
X013702Y020484D02*
X013120Y020484D01*
X013105Y020499D02*
X012612Y020499D01*
X012554Y020441D01*
X012476Y020518D01*
X011980Y020518D01*
X011867Y020405D01*
X008686Y020405D01*
X008688Y020484D02*
X011946Y020484D01*
X011867Y020405D02*
X011817Y020385D01*
X011750Y020317D01*
X011714Y020229D01*
X011714Y020134D01*
X011750Y020046D01*
X011817Y019979D01*
X011905Y019943D01*
X012000Y019943D01*
X012088Y019979D01*
X012155Y020046D01*
X012170Y020082D01*
X012295Y020082D01*
X012350Y020027D01*
X012338Y020027D01*
X012250Y019991D01*
X012183Y019924D01*
X012147Y019836D01*
X012147Y019741D01*
X012183Y019653D01*
X012220Y019615D01*
X012167Y019562D01*
X012167Y018912D01*
X012238Y018841D01*
X012648Y018841D01*
X012619Y018773D01*
X012619Y018678D01*
X011226Y018678D01*
X011226Y018757D02*
X012619Y018757D01*
X012619Y018678D02*
X012655Y018590D01*
X012723Y018523D01*
X012811Y018486D01*
X012906Y018486D01*
X012994Y018523D01*
X013061Y018590D01*
X013097Y018678D01*
X013702Y018678D01*
X013702Y018600D02*
X013065Y018600D01*
X013097Y018678D02*
X013097Y018681D01*
X013257Y018841D01*
X013479Y018841D01*
X013549Y018912D01*
X013549Y019562D01*
X013479Y019633D01*
X012986Y019633D01*
X012915Y019562D01*
X012915Y019065D01*
X012814Y018964D01*
X012811Y018964D01*
X012801Y018960D01*
X012801Y019562D01*
X012731Y019633D01*
X012684Y019633D01*
X012684Y019708D01*
X013105Y019708D01*
X013175Y019778D01*
X013175Y020428D01*
X013105Y020499D01*
X013175Y020405D02*
X013702Y020405D01*
X013702Y020327D02*
X013175Y020327D01*
X013175Y020248D02*
X013702Y020248D01*
X013702Y020170D02*
X013175Y020170D01*
X013175Y020091D02*
X013702Y020091D01*
X013702Y020013D02*
X013175Y020013D01*
X013175Y019934D02*
X013702Y019934D01*
X013702Y019856D02*
X013175Y019856D01*
X013174Y019777D02*
X013702Y019777D01*
X013702Y019699D02*
X012684Y019699D01*
X012743Y019620D02*
X012973Y019620D01*
X012915Y019542D02*
X012801Y019542D01*
X012801Y019463D02*
X012915Y019463D01*
X012915Y019385D02*
X012801Y019385D01*
X012801Y019306D02*
X012915Y019306D01*
X012915Y019228D02*
X012801Y019228D01*
X012801Y019149D02*
X012915Y019149D01*
X012915Y019071D02*
X012801Y019071D01*
X012801Y018992D02*
X012842Y018992D01*
X012645Y018835D02*
X011226Y018835D01*
X011226Y018914D02*
X012167Y018914D01*
X012167Y018992D02*
X011225Y018992D01*
X011062Y019228D02*
X012167Y019228D01*
X012167Y019306D02*
X011141Y019306D01*
X011191Y019385D02*
X012167Y019385D01*
X012167Y019463D02*
X011208Y019463D01*
X011200Y019542D02*
X012167Y019542D01*
X012216Y019620D02*
X011161Y019620D01*
X011051Y019699D02*
X012164Y019699D01*
X012147Y019777D02*
X009513Y019777D01*
X009515Y019856D02*
X012155Y019856D01*
X012194Y019934D02*
X009490Y019934D01*
X009428Y020013D02*
X011784Y020013D01*
X011731Y020091D02*
X008173Y020091D01*
X008191Y020013D02*
X008140Y020013D01*
X008191Y019934D02*
X008062Y019934D01*
X007983Y019856D02*
X008191Y019856D01*
X008144Y019777D02*
X007905Y019777D01*
X007661Y019946D02*
X007504Y019946D01*
X008234Y020170D02*
X011714Y020170D01*
X011721Y020248D02*
X008568Y020248D01*
X008653Y020327D02*
X011759Y020327D01*
X012122Y020013D02*
X012303Y020013D01*
X012511Y020484D02*
X012597Y020484D01*
X012713Y021347D02*
X010590Y021347D01*
X010598Y021426D02*
X012670Y021426D01*
X012658Y021504D02*
X010598Y021504D01*
X010571Y021583D02*
X012673Y021583D01*
X012720Y021661D02*
X010535Y021661D01*
X010456Y021740D02*
X012850Y021740D01*
X013702Y022211D02*
X008392Y022211D01*
X008403Y022289D02*
X013702Y022289D01*
X013702Y022368D02*
X008470Y022368D01*
X008470Y022446D02*
X013702Y022446D01*
X013702Y022525D02*
X008470Y022525D01*
X008526Y022603D02*
X010137Y022603D01*
X010304Y022603D02*
X013702Y022603D01*
X013702Y022682D02*
X010459Y022682D01*
X010537Y022760D02*
X013702Y022760D01*
X013702Y022839D02*
X010572Y022839D01*
X010598Y022917D02*
X013702Y022917D01*
X013702Y022996D02*
X010598Y022996D01*
X010589Y023074D02*
X013702Y023074D01*
X013702Y023153D02*
X010556Y023153D01*
X010500Y023231D02*
X013702Y023231D01*
X013702Y023310D02*
X010404Y023310D01*
X010037Y023310D02*
X009927Y023310D01*
X009927Y023388D02*
X013702Y023388D01*
X013702Y023467D02*
X009901Y023467D01*
X009927Y023545D02*
X013702Y023545D01*
X013702Y023624D02*
X013470Y023624D01*
X013476Y023626D02*
X013323Y023563D01*
X013157Y023563D01*
X013004Y023626D01*
X012887Y023743D01*
X012823Y023897D01*
X012823Y024656D01*
X012887Y024809D01*
X013004Y024927D01*
X013157Y024990D01*
X013323Y024990D01*
X013476Y024927D01*
X013593Y024809D01*
X013657Y024656D01*
X013657Y023897D01*
X013593Y023743D01*
X013476Y023626D01*
X013552Y023702D02*
X013702Y023702D01*
X013702Y023781D02*
X013609Y023781D01*
X013641Y023859D02*
X013702Y023859D01*
X013702Y023938D02*
X013657Y023938D01*
X013657Y024016D02*
X013702Y024016D01*
X013702Y024095D02*
X013657Y024095D01*
X013657Y024173D02*
X013702Y024173D01*
X013702Y024252D02*
X013657Y024252D01*
X013657Y024330D02*
X013702Y024330D01*
X013702Y024409D02*
X013657Y024409D01*
X013657Y024487D02*
X013702Y024487D01*
X013702Y024566D02*
X013657Y024566D01*
X013657Y024644D02*
X013702Y024644D01*
X013702Y024723D02*
X013629Y024723D01*
X013597Y024801D02*
X013702Y024801D01*
X013702Y024880D02*
X013523Y024880D01*
X013400Y024958D02*
X013702Y024958D01*
X013702Y025037D02*
X010203Y025037D01*
X010203Y025113D02*
X010132Y025184D01*
X009718Y025184D01*
X009648Y025113D01*
X009648Y024620D01*
X009718Y024550D01*
X009861Y024550D01*
X010218Y024193D01*
X010218Y024189D01*
X010254Y024102D01*
X010321Y024034D01*
X010409Y023998D01*
X010413Y023998D01*
X010551Y023860D01*
X010671Y023860D01*
X010671Y023853D01*
X010742Y023782D01*
X011195Y023782D01*
X011266Y023853D01*
X011266Y024267D01*
X011195Y024337D01*
X010742Y024337D01*
X010694Y024289D01*
X010659Y024372D01*
X010592Y024440D01*
X010504Y024476D01*
X010500Y024476D01*
X010203Y024774D01*
X010203Y025113D01*
X010201Y025115D02*
X013702Y025115D01*
X013702Y025194D02*
X009468Y025194D01*
X009467Y025194D02*
X009432Y025204D01*
X009295Y025204D01*
X009295Y024906D01*
X009553Y024906D01*
X009553Y025082D01*
X009544Y025118D01*
X009525Y025150D01*
X009499Y025176D01*
X009467Y025194D01*
X009544Y025115D02*
X009649Y025115D01*
X009648Y025037D02*
X009553Y025037D01*
X009553Y024958D02*
X009648Y024958D01*
X009648Y024880D02*
X009295Y024880D01*
X009295Y024906D02*
X009295Y024828D01*
X009553Y024828D01*
X009553Y024652D01*
X009544Y024616D01*
X009525Y024584D01*
X009499Y024558D01*
X009467Y024540D01*
X009432Y024530D01*
X009295Y024530D01*
X009295Y024828D01*
X009217Y024828D01*
X009217Y024530D01*
X009080Y024530D01*
X009044Y024540D01*
X009012Y024558D01*
X008986Y024584D01*
X008968Y024616D01*
X008958Y024652D01*
X008958Y024828D01*
X009217Y024828D01*
X009217Y024906D01*
X009217Y025204D01*
X009080Y025204D01*
X009044Y025194D01*
X009012Y025176D01*
X008986Y025150D01*
X008968Y025118D01*
X008958Y025082D01*
X008958Y024906D01*
X009217Y024906D01*
X009295Y024906D01*
X009295Y024958D02*
X009217Y024958D01*
X009217Y024880D02*
X007250Y024880D01*
X007250Y024958D02*
X008958Y024958D01*
X008958Y025037D02*
X007303Y025037D01*
X007313Y025046D02*
X007349Y025134D01*
X007349Y025229D01*
X007313Y025317D01*
X007246Y025385D01*
X007158Y025421D01*
X007063Y025421D01*
X006975Y025385D01*
X006907Y025317D01*
X006871Y025229D01*
X006871Y025226D01*
X006792Y025147D01*
X006792Y025112D01*
X006756Y025076D01*
X006707Y025125D01*
X006332Y025125D01*
X006307Y025100D01*
X006292Y025106D01*
X006196Y025106D01*
X006109Y025070D01*
X006041Y025002D01*
X006005Y024914D01*
X006005Y024819D01*
X006041Y024732D01*
X006042Y024731D01*
X005702Y024731D01*
X005667Y024696D01*
X005667Y024697D01*
X005641Y024723D01*
X005609Y024741D01*
X005573Y024751D01*
X005446Y024751D01*
X005446Y024502D01*
X005388Y024502D01*
X005388Y024444D01*
X005446Y024444D01*
X005446Y024195D01*
X005573Y024195D01*
X005609Y024205D01*
X005641Y024223D01*
X005667Y024249D01*
X005667Y024250D01*
X005702Y024215D01*
X006077Y024215D01*
X006135Y024273D01*
X006307Y024273D01*
X006327Y024293D01*
X006444Y024410D01*
X006444Y024609D01*
X006707Y024609D01*
X006756Y024658D01*
X006805Y024609D01*
X007180Y024609D01*
X007250Y024679D01*
X007250Y024983D01*
X007313Y025046D01*
X007341Y025115D02*
X008967Y025115D01*
X009043Y025194D02*
X007349Y025194D01*
X007331Y025272D02*
X013702Y025272D01*
X013702Y025351D02*
X007279Y025351D01*
X006941Y025351D02*
X004534Y025351D01*
X004534Y025429D02*
X013702Y025429D01*
X013080Y024958D02*
X012400Y024958D01*
X012476Y024927D02*
X012323Y024990D01*
X012157Y024990D01*
X012004Y024927D01*
X011887Y024809D01*
X011823Y024656D01*
X011823Y023897D01*
X011887Y023743D01*
X012004Y023626D01*
X012157Y023563D01*
X012323Y023563D01*
X012476Y023626D01*
X012593Y023743D01*
X012657Y023897D01*
X012657Y024656D01*
X012593Y024809D01*
X012476Y024927D01*
X012523Y024880D02*
X012957Y024880D01*
X012883Y024801D02*
X012597Y024801D01*
X012629Y024723D02*
X012851Y024723D01*
X012823Y024644D02*
X012657Y024644D01*
X012657Y024566D02*
X012823Y024566D01*
X012823Y024487D02*
X012657Y024487D01*
X012657Y024409D02*
X012823Y024409D01*
X012823Y024330D02*
X012657Y024330D01*
X012657Y024252D02*
X012823Y024252D01*
X012823Y024173D02*
X012657Y024173D01*
X012657Y024095D02*
X012823Y024095D01*
X012823Y024016D02*
X012657Y024016D01*
X012657Y023938D02*
X012823Y023938D01*
X012839Y023859D02*
X012641Y023859D01*
X012609Y023781D02*
X012871Y023781D01*
X012928Y023702D02*
X012552Y023702D01*
X012470Y023624D02*
X013010Y023624D01*
X012010Y023624D02*
X009927Y023624D01*
X009927Y023702D02*
X011928Y023702D01*
X011871Y023781D02*
X009927Y023781D01*
X009927Y023859D02*
X010671Y023859D01*
X010473Y023938D02*
X009902Y023938D01*
X010081Y024330D02*
X007720Y024330D01*
X007744Y024252D02*
X010159Y024252D01*
X010224Y024173D02*
X007744Y024173D01*
X007732Y024095D02*
X010261Y024095D01*
X010365Y024016D02*
X007699Y024016D01*
X007812Y023938D02*
X007822Y023938D01*
X007701Y023725D02*
X008055Y023725D01*
X008313Y023702D02*
X008735Y023702D01*
X008735Y023781D02*
X008793Y023781D01*
X008793Y023859D02*
X008735Y023859D01*
X008735Y023938D02*
X008793Y023938D01*
X008507Y023938D02*
X008288Y023938D01*
X008313Y023859D02*
X008486Y023859D01*
X008486Y023781D02*
X008313Y023781D01*
X008313Y023624D02*
X008486Y023624D01*
X008492Y023545D02*
X008313Y023545D01*
X008286Y023467D02*
X008532Y023467D01*
X008648Y022917D02*
X009435Y022917D01*
X009430Y022996D02*
X008952Y022996D01*
X009021Y023074D02*
X009411Y023074D01*
X009411Y023153D02*
X009021Y023153D01*
X009021Y023231D02*
X009411Y023231D01*
X009411Y023310D02*
X009021Y023310D01*
X009021Y023388D02*
X009411Y023388D01*
X009438Y023467D02*
X008995Y023467D01*
X009035Y023545D02*
X009039Y023545D01*
X009355Y023545D02*
X009411Y023545D01*
X009436Y023938D02*
X009308Y023938D01*
X009085Y023938D02*
X009020Y023938D01*
X009005Y024566D02*
X007464Y024566D01*
X007610Y024487D02*
X009924Y024487D01*
X010002Y024409D02*
X007687Y024409D01*
X007268Y024566D02*
X006444Y024566D01*
X006444Y024487D02*
X007122Y024487D01*
X007045Y024409D02*
X006443Y024409D01*
X006364Y024330D02*
X007012Y024330D01*
X006989Y024252D02*
X006113Y024252D01*
X006434Y024016D02*
X005267Y024016D01*
X005300Y023938D02*
X006402Y023938D01*
X006399Y023859D02*
X005303Y023859D01*
X005280Y023781D02*
X006380Y023781D01*
X006380Y023702D02*
X005222Y023702D01*
X005178Y024095D02*
X006525Y024095D01*
X006751Y024095D02*
X007000Y024095D01*
X006989Y024173D02*
X004534Y024173D01*
X004534Y024095D02*
X004711Y024095D01*
X004621Y024016D02*
X004534Y024016D01*
X004534Y023938D02*
X004542Y023938D01*
X004534Y024252D02*
X005166Y024252D01*
X005167Y024249D02*
X005193Y024223D01*
X005225Y024205D01*
X005261Y024195D01*
X005388Y024195D01*
X005388Y024444D01*
X005139Y024444D01*
X005139Y024317D01*
X005149Y024281D01*
X005167Y024249D01*
X005139Y024330D02*
X004534Y024330D01*
X004534Y024409D02*
X005139Y024409D01*
X005139Y024502D02*
X005388Y024502D01*
X005388Y024751D01*
X005261Y024751D01*
X005225Y024741D01*
X005193Y024723D01*
X004534Y024723D01*
X004534Y024801D02*
X006012Y024801D01*
X006005Y024880D02*
X004534Y024880D01*
X004534Y024958D02*
X006023Y024958D01*
X006076Y025037D02*
X004534Y025037D01*
X004534Y025115D02*
X006323Y025115D01*
X006717Y025115D02*
X006792Y025115D01*
X006839Y025194D02*
X004534Y025194D01*
X004534Y025272D02*
X006889Y025272D01*
X007250Y024801D02*
X008958Y024801D01*
X008958Y024723D02*
X007250Y024723D01*
X007215Y024644D02*
X008960Y024644D01*
X009217Y024644D02*
X009295Y024644D01*
X009295Y024566D02*
X009217Y024566D01*
X009217Y024723D02*
X009295Y024723D01*
X009295Y024801D02*
X009217Y024801D01*
X009217Y025037D02*
X009295Y025037D01*
X009295Y025115D02*
X009217Y025115D01*
X009217Y025194D02*
X009295Y025194D01*
X009553Y024801D02*
X009648Y024801D01*
X009648Y024723D02*
X009553Y024723D01*
X009551Y024644D02*
X009648Y024644D01*
X009702Y024566D02*
X009507Y024566D01*
X009925Y024769D02*
X009925Y024867D01*
X010203Y024880D02*
X010651Y024880D01*
X010651Y024905D02*
X010651Y024768D01*
X010930Y024768D01*
X010930Y025027D01*
X010773Y025027D01*
X010737Y025017D01*
X010705Y024999D01*
X010679Y024973D01*
X010661Y024941D01*
X010651Y024905D01*
X010671Y024958D02*
X010203Y024958D01*
X010203Y024801D02*
X010651Y024801D01*
X010651Y024690D02*
X010651Y024553D01*
X010661Y024518D01*
X010679Y024486D01*
X010705Y024460D01*
X010737Y024441D01*
X010773Y024432D01*
X010930Y024432D01*
X010930Y024690D01*
X011007Y024690D01*
X011007Y024432D01*
X011164Y024432D01*
X011200Y024441D01*
X011232Y024460D01*
X011258Y024486D01*
X011276Y024518D01*
X011286Y024553D01*
X011286Y024690D01*
X011007Y024690D01*
X011007Y024768D01*
X010930Y024768D01*
X010930Y024690D01*
X010651Y024690D01*
X010651Y024644D02*
X010332Y024644D01*
X010254Y024723D02*
X010930Y024723D01*
X011007Y024723D02*
X011851Y024723D01*
X011823Y024644D02*
X011286Y024644D01*
X011286Y024566D02*
X011823Y024566D01*
X011823Y024487D02*
X011258Y024487D01*
X011202Y024330D02*
X011823Y024330D01*
X011823Y024252D02*
X011266Y024252D01*
X011266Y024173D02*
X011823Y024173D01*
X011823Y024095D02*
X011266Y024095D01*
X011266Y024016D02*
X011823Y024016D01*
X011823Y023938D02*
X011266Y023938D01*
X011266Y023859D02*
X011839Y023859D01*
X011823Y024409D02*
X010623Y024409D01*
X010677Y024330D02*
X010734Y024330D01*
X010678Y024487D02*
X010489Y024487D01*
X010411Y024566D02*
X010651Y024566D01*
X010930Y024566D02*
X011007Y024566D01*
X011007Y024644D02*
X010930Y024644D01*
X011007Y024768D02*
X011286Y024768D01*
X011286Y024905D01*
X011276Y024941D01*
X011258Y024973D01*
X011232Y024999D01*
X011200Y025017D01*
X011164Y025027D01*
X011007Y025027D01*
X011007Y024768D01*
X011007Y024801D02*
X010930Y024801D01*
X010930Y024880D02*
X011007Y024880D01*
X011007Y024958D02*
X010930Y024958D01*
X011266Y024958D02*
X012080Y024958D01*
X011957Y024880D02*
X011286Y024880D01*
X011286Y024801D02*
X011883Y024801D01*
X011007Y024487D02*
X010930Y024487D01*
X009941Y023231D02*
X009927Y023231D01*
X009869Y022839D02*
X009869Y022839D01*
X009903Y022760D02*
X009770Y022760D01*
X009568Y022760D02*
X008589Y022760D01*
X008589Y022682D02*
X009982Y022682D01*
X009470Y022839D02*
X008627Y022839D01*
X008207Y022802D02*
X008207Y022802D01*
X008192Y022839D02*
X007368Y022839D01*
X007368Y022917D02*
X008170Y022917D01*
X007983Y022760D02*
X007969Y022760D01*
X007867Y022996D02*
X007368Y022996D01*
X007368Y023074D02*
X007797Y023074D01*
X007797Y023153D02*
X007368Y023153D01*
X007341Y023231D02*
X007797Y023231D01*
X007797Y023310D02*
X004949Y023310D01*
X004949Y023388D02*
X006411Y023388D01*
X006380Y023467D02*
X004949Y023467D01*
X004949Y023545D02*
X006380Y023545D01*
X006380Y023624D02*
X004949Y023624D01*
X004949Y023231D02*
X006250Y023231D01*
X006047Y023153D02*
X005501Y023153D01*
X005557Y023074D02*
X005968Y023074D01*
X005985Y023091D02*
X005985Y023091D01*
X005806Y022996D02*
X005578Y022996D01*
X005572Y022917D02*
X005750Y022917D01*
X005729Y022839D02*
X005538Y022839D01*
X005518Y022760D02*
X005734Y022760D01*
X005766Y022684D02*
X005766Y022684D01*
X005621Y022682D02*
X005528Y022682D01*
X005158Y022760D02*
X004949Y022760D01*
X004949Y022682D02*
X005149Y022682D01*
X005081Y022603D02*
X004949Y022603D01*
X004949Y022525D02*
X005081Y022525D01*
X005081Y022446D02*
X004949Y022446D01*
X004949Y022368D02*
X005081Y022368D01*
X005081Y022289D02*
X004949Y022289D01*
X004949Y022211D02*
X005108Y022211D01*
X005158Y022132D02*
X004949Y022132D01*
X004949Y022054D02*
X005151Y022054D01*
X005081Y021975D02*
X004949Y021975D01*
X004949Y021897D02*
X005081Y021897D01*
X005081Y021818D02*
X004949Y021818D01*
X004949Y021740D02*
X005081Y021740D01*
X005081Y021661D02*
X004949Y021661D01*
X004949Y021583D02*
X005107Y021583D01*
X005570Y021583D02*
X005579Y021583D01*
X005855Y020405D02*
X004949Y020405D01*
X004949Y020327D02*
X005817Y020327D01*
X005788Y020248D02*
X004949Y020248D01*
X004949Y020170D02*
X005788Y020170D01*
X005794Y020091D02*
X004949Y020091D01*
X004949Y020013D02*
X005827Y020013D01*
X005879Y019934D02*
X004949Y019934D01*
X004949Y019856D02*
X005966Y019856D01*
X006610Y017815D02*
X002456Y017815D01*
X002456Y017893D02*
X007630Y017893D01*
X007619Y017815D02*
X007493Y017815D01*
X007558Y017736D02*
X007634Y017736D01*
X007682Y017658D02*
X007585Y017658D01*
X007672Y017972D02*
X002456Y017972D01*
X002423Y018050D02*
X007790Y018050D01*
X007926Y018050D02*
X008341Y018050D01*
X008649Y019149D02*
X009455Y019149D01*
X009517Y019228D02*
X008640Y019228D01*
X008601Y019306D02*
X010029Y019306D01*
X010140Y019385D02*
X008490Y019385D01*
X008339Y019463D02*
X010619Y019463D01*
X010697Y019542D02*
X008417Y019542D01*
X008329Y020248D02*
X008234Y020248D01*
X008234Y020327D02*
X008244Y020327D01*
X008020Y021661D02*
X007932Y021661D01*
X007511Y022760D02*
X007339Y022760D01*
X007363Y023388D02*
X007797Y023388D01*
X007824Y023467D02*
X007388Y023467D01*
X007388Y023545D02*
X007543Y023545D01*
X007484Y023624D02*
X007139Y023624D01*
X007139Y023702D02*
X007081Y023702D01*
X007081Y023781D02*
X007139Y023781D01*
X007139Y023859D02*
X007081Y023859D01*
X007092Y023938D02*
X006874Y023938D01*
X006877Y023859D02*
X006890Y023859D01*
X006841Y024016D02*
X007033Y024016D01*
X007383Y023781D02*
X007465Y023781D01*
X007462Y023702D02*
X007388Y023702D01*
X007139Y023545D02*
X007081Y023545D01*
X007081Y023467D02*
X007139Y023467D01*
X007139Y023388D02*
X007081Y023388D01*
X006879Y023231D02*
X006711Y023231D01*
X006742Y024644D02*
X006769Y024644D01*
X005694Y024723D02*
X005641Y024723D01*
X005446Y024723D02*
X005388Y024723D01*
X005388Y024644D02*
X005446Y024644D01*
X005446Y024566D02*
X005388Y024566D01*
X005388Y024487D02*
X004534Y024487D01*
X004534Y024566D02*
X005139Y024566D01*
X005139Y024629D02*
X005139Y024502D01*
X005139Y024629D02*
X005149Y024665D01*
X005167Y024697D01*
X005193Y024723D01*
X005143Y024644D02*
X004534Y024644D01*
X005388Y024409D02*
X005446Y024409D01*
X005446Y024330D02*
X005388Y024330D01*
X005388Y024252D02*
X005446Y024252D01*
X005176Y023153D02*
X004949Y023153D01*
X004949Y023074D02*
X005120Y023074D01*
X005099Y022996D02*
X004949Y022996D01*
X004949Y022917D02*
X005105Y022917D01*
X005139Y022839D02*
X004949Y022839D01*
X004243Y018914D02*
X003571Y018914D01*
X003622Y018835D02*
X004164Y018835D01*
X004100Y018771D02*
X004100Y018771D01*
X004086Y018757D02*
X003653Y018757D01*
X003667Y018678D02*
X004007Y018678D01*
X003929Y018600D02*
X003665Y018600D01*
X003648Y018521D02*
X003850Y018521D01*
X003772Y018443D02*
X003614Y018443D01*
X003557Y018364D02*
X003731Y018364D01*
X003721Y018286D02*
X003459Y018286D01*
X003271Y018286D02*
X003233Y018286D01*
X003233Y018231D02*
X003233Y018627D01*
X002836Y018627D01*
X002836Y018614D01*
X002846Y018549D01*
X002867Y018487D01*
X002896Y018429D01*
X002935Y018376D01*
X002981Y018329D01*
X003034Y018291D01*
X003092Y018261D01*
X003155Y018241D01*
X003219Y018231D01*
X003233Y018231D01*
X003233Y018364D02*
X003271Y018364D01*
X003271Y018443D02*
X003233Y018443D01*
X003233Y018521D02*
X003271Y018521D01*
X003271Y018600D02*
X003233Y018600D01*
X003045Y018286D02*
X002040Y018286D01*
X001962Y018364D02*
X002946Y018364D01*
X002889Y018443D02*
X001883Y018443D01*
X001805Y018521D02*
X002856Y018521D01*
X002838Y018600D02*
X001726Y018600D01*
X001679Y018678D02*
X002836Y018678D01*
X002851Y018757D02*
X001666Y018757D01*
X001633Y018835D02*
X002882Y018835D01*
X002932Y018914D02*
X001576Y018914D01*
X001327Y018207D02*
X001111Y018207D01*
X001033Y018129D02*
X001405Y018129D01*
X001403Y018050D02*
X000954Y018050D01*
X000876Y017972D02*
X001370Y017972D01*
X001370Y017893D02*
X000797Y017893D01*
X000744Y017815D02*
X001370Y017815D01*
X001370Y017736D02*
X000744Y017736D01*
X000744Y017658D02*
X001370Y017658D01*
X001370Y017579D02*
X000744Y017579D01*
X000744Y017501D02*
X001413Y017501D01*
X001370Y017108D02*
X000744Y017108D01*
X000744Y017030D02*
X001370Y017030D01*
X001370Y016951D02*
X000744Y016951D01*
X000744Y016873D02*
X001370Y016873D01*
X001370Y016794D02*
X000744Y016794D01*
X000744Y016716D02*
X001370Y016716D01*
X001371Y016637D02*
X000744Y016637D01*
X000744Y016559D02*
X001840Y016559D01*
X001873Y016296D02*
X001472Y016296D01*
X001436Y016287D01*
X001404Y016268D01*
X001378Y016242D01*
X001360Y016210D01*
X001350Y016175D01*
X001350Y016009D01*
X001873Y016009D01*
X000744Y016009D01*
X000744Y015931D02*
X001873Y015931D01*
X001873Y015929D02*
X001350Y015929D01*
X001350Y015764D01*
X001360Y015728D01*
X001378Y015696D01*
X001404Y015670D01*
X001436Y015652D01*
X001472Y015642D01*
X001873Y015642D01*
X001873Y015929D01*
X001953Y015929D01*
X001953Y015852D02*
X001873Y015852D01*
X001873Y015929D02*
X001873Y016009D01*
X001873Y016296D01*
X001873Y016245D02*
X001953Y016245D01*
X001953Y016166D02*
X001873Y016166D01*
X001873Y016088D02*
X001953Y016088D01*
X001953Y016009D02*
X001873Y016009D01*
X001873Y015774D02*
X001953Y015774D01*
X001953Y015695D02*
X001873Y015695D01*
X001502Y015303D02*
X008112Y015303D01*
X008112Y015381D02*
X001467Y015381D01*
X001389Y015460D02*
X008112Y015460D01*
X008112Y015538D02*
X001262Y015538D01*
X001379Y015695D02*
X000744Y015695D01*
X000744Y015617D02*
X008123Y015617D01*
X008119Y015224D02*
X001535Y015224D01*
X001350Y015774D02*
X000744Y015774D01*
X000744Y015852D02*
X001350Y015852D01*
X001350Y016088D02*
X000744Y016088D01*
X000744Y016166D02*
X001350Y016166D01*
X001380Y016245D02*
X000744Y016245D01*
X000744Y016323D02*
X003654Y016323D01*
X003654Y016245D02*
X002446Y016245D01*
X002476Y016166D02*
X003673Y016166D01*
X003654Y016402D02*
X000744Y016402D01*
X000744Y016480D02*
X003654Y016480D01*
X003654Y017265D02*
X000744Y017265D01*
X000744Y017187D02*
X001830Y017187D01*
X002170Y018129D02*
X003785Y018129D01*
X003736Y018207D02*
X002119Y018207D01*
X002456Y017736D02*
X003754Y017736D01*
X003700Y017658D02*
X002456Y017658D01*
X002456Y017579D02*
X003668Y017579D01*
X003654Y017501D02*
X002414Y017501D01*
X003654Y017422D02*
X000744Y017422D01*
X000744Y017344D02*
X003654Y017344D01*
X004088Y017736D02*
X004438Y017736D01*
X004348Y017658D02*
X004167Y017658D01*
X004665Y017736D02*
X006544Y017736D01*
X006517Y017658D02*
X004755Y017658D01*
X004787Y017579D02*
X006503Y017579D01*
X006498Y017501D02*
X004790Y017501D01*
X004767Y017422D02*
X006498Y017422D01*
X006498Y017344D02*
X004751Y017344D01*
X004751Y017265D02*
X006498Y017265D01*
X006510Y017187D02*
X004751Y017187D01*
X004740Y017108D02*
X006177Y017108D01*
X006111Y017030D02*
X004740Y017030D01*
X004740Y016951D02*
X006083Y016951D01*
X006083Y016873D02*
X004740Y016873D01*
X004740Y016794D02*
X006113Y016794D01*
X006182Y016716D02*
X004740Y016716D01*
X004740Y016637D02*
X007658Y016637D01*
X007672Y016559D02*
X004740Y016559D01*
X004740Y016480D02*
X007718Y016480D01*
X007671Y016716D02*
X007593Y016716D01*
X007604Y016794D02*
X007715Y016794D01*
X007101Y017187D02*
X007001Y017187D01*
X007014Y017265D02*
X007089Y017265D01*
X007089Y017344D02*
X007014Y017344D01*
X007014Y017422D02*
X007089Y017422D01*
X007089Y017501D02*
X007014Y017501D01*
X007009Y017579D02*
X007094Y017579D01*
X007107Y017658D02*
X006995Y017658D01*
X006968Y017736D02*
X007135Y017736D01*
X007200Y017815D02*
X006902Y017815D01*
X008581Y016873D02*
X008631Y016873D01*
X009236Y015852D02*
X010278Y015852D01*
X010278Y015931D02*
X009398Y015931D01*
X009053Y015774D02*
X010286Y015774D01*
X010288Y015695D02*
X009001Y015695D01*
X009107Y015617D02*
X010278Y015617D01*
X010278Y015538D02*
X009120Y015538D01*
X009120Y015460D02*
X010278Y015460D01*
X010278Y015381D02*
X009120Y015381D01*
X009120Y015303D02*
X010284Y015303D01*
X010357Y015224D02*
X009109Y015224D01*
X009019Y015146D02*
X010435Y015146D01*
X010396Y014910D02*
X010199Y014910D01*
X010278Y014832D02*
X010396Y014832D01*
X010396Y014753D02*
X010326Y014753D01*
X010358Y014675D02*
X010429Y014675D01*
X010414Y014596D02*
X010362Y014596D01*
X010362Y014518D02*
X010425Y014518D01*
X010468Y014439D02*
X010330Y014439D01*
X010287Y014361D02*
X010586Y014361D01*
X010721Y014361D02*
X010913Y014361D01*
X010940Y014439D02*
X010839Y014439D01*
X010882Y014518D02*
X010898Y014518D01*
X011126Y014591D02*
X011126Y014906D01*
X011384Y014910D02*
X012307Y014910D01*
X012259Y014832D02*
X011384Y014832D01*
X011384Y014753D02*
X012226Y014753D01*
X012217Y014675D02*
X011350Y014675D01*
X011365Y014596D02*
X012217Y014596D01*
X012236Y014518D02*
X011354Y014518D01*
X011467Y014204D02*
X013702Y014204D01*
X013702Y014282D02*
X013455Y014282D01*
X013545Y014361D02*
X013702Y014361D01*
X013702Y014439D02*
X013606Y014439D01*
X013638Y014518D02*
X013702Y014518D01*
X013702Y014596D02*
X013657Y014596D01*
X013657Y014675D02*
X013702Y014675D01*
X013702Y014753D02*
X013647Y014753D01*
X013615Y014832D02*
X013702Y014832D01*
X013702Y014910D02*
X013567Y014910D01*
X013489Y014989D02*
X013702Y014989D01*
X013702Y015067D02*
X011384Y015067D01*
X011384Y014989D02*
X012385Y014989D01*
X012553Y015226D02*
X012399Y015290D01*
X012281Y015409D01*
X012217Y015563D01*
X012217Y015730D01*
X012281Y015884D01*
X012399Y016003D01*
X012553Y016066D01*
X013320Y016066D01*
X013475Y016003D01*
X013593Y015884D01*
X013657Y015730D01*
X013657Y015563D01*
X013593Y015409D01*
X013475Y015290D01*
X013320Y015226D01*
X012553Y015226D01*
X012387Y015303D02*
X011456Y015303D01*
X011462Y015381D02*
X012308Y015381D01*
X012260Y015460D02*
X011462Y015460D01*
X011462Y015538D02*
X012227Y015538D01*
X012217Y015617D02*
X011462Y015617D01*
X011452Y015695D02*
X012217Y015695D01*
X012235Y015774D02*
X012084Y015774D01*
X012092Y015852D02*
X012267Y015852D01*
X012327Y015931D02*
X012092Y015931D01*
X012092Y016009D02*
X012415Y016009D01*
X012092Y016088D02*
X013702Y016088D01*
X013702Y016166D02*
X012083Y016166D01*
X012058Y016192D02*
X012058Y016192D01*
X012100Y016245D02*
X013702Y016245D01*
X013702Y016323D02*
X012112Y016323D01*
X012112Y016402D02*
X013702Y016402D01*
X013702Y016480D02*
X012112Y016480D01*
X012112Y016471D02*
X012112Y016598D01*
X012103Y016634D01*
X012084Y016665D01*
X012058Y016692D01*
X012026Y016710D01*
X011991Y016720D01*
X011863Y016720D01*
X011863Y016471D01*
X012112Y016471D01*
X012112Y016559D02*
X013702Y016559D01*
X013702Y016637D02*
X012101Y016637D01*
X012005Y016716D02*
X013702Y016716D01*
X013702Y016794D02*
X011462Y016794D01*
X011462Y016716D02*
X011664Y016716D01*
X011568Y016637D02*
X011462Y016637D01*
X011462Y016559D02*
X011557Y016559D01*
X011557Y016480D02*
X011462Y016480D01*
X011413Y016402D02*
X011557Y016402D01*
X011557Y016323D02*
X011385Y016323D01*
X011385Y016245D02*
X011569Y016245D01*
X011586Y016166D02*
X011453Y016166D01*
X011454Y015774D02*
X011585Y015774D01*
X011383Y015224D02*
X013702Y015224D01*
X013702Y015146D02*
X011332Y015146D01*
X010834Y014282D02*
X010209Y014282D01*
X010036Y013890D02*
X010780Y013890D01*
X010821Y013811D02*
X010117Y013811D01*
X010167Y013733D02*
X010900Y013733D01*
X011352Y013733D02*
X012218Y013733D01*
X012217Y013654D02*
X010199Y013654D01*
X010204Y013576D02*
X012217Y013576D01*
X012244Y013497D02*
X010204Y013497D01*
X010173Y013419D02*
X012277Y013419D01*
X012349Y013340D02*
X010133Y013340D01*
X010054Y013262D02*
X012468Y013262D01*
X012251Y013811D02*
X011431Y013811D01*
X011472Y013890D02*
X012286Y013890D01*
X012365Y013968D02*
X011503Y013968D01*
X010653Y014591D02*
X010653Y014906D01*
X010278Y016009D02*
X009885Y016009D01*
X009963Y016088D02*
X010278Y016088D01*
X010287Y016166D02*
X010042Y016166D01*
X010120Y016245D02*
X011025Y016245D01*
X011025Y016323D02*
X010125Y016323D01*
X010153Y016402D02*
X010327Y016402D01*
X010744Y016402D02*
X010996Y016402D01*
X010947Y016480D02*
X010793Y016480D01*
X010793Y016559D02*
X010947Y016559D01*
X010947Y016637D02*
X010793Y016637D01*
X010793Y016716D02*
X010947Y016716D01*
X010947Y016794D02*
X010793Y016794D01*
X010747Y016873D02*
X010993Y016873D01*
X010992Y017344D02*
X010748Y017344D01*
X011107Y017422D02*
X009999Y017422D01*
X009920Y017344D02*
X010323Y017344D01*
X010278Y017265D02*
X010168Y017265D01*
X010235Y017187D02*
X010278Y017187D01*
X010278Y017108D02*
X010263Y017108D01*
X010263Y017030D02*
X010278Y017030D01*
X010278Y016951D02*
X010232Y016951D01*
X010163Y016873D02*
X010324Y016873D01*
X009879Y017265D02*
X009869Y017265D01*
X009768Y018587D02*
X009748Y018607D01*
X009531Y018835D02*
X009493Y018835D01*
X009399Y019620D02*
X010776Y019620D01*
X010886Y019699D02*
X009481Y019699D01*
X010905Y019071D02*
X012167Y019071D01*
X012167Y019149D02*
X010984Y019149D01*
X011209Y018600D02*
X012651Y018600D01*
X012726Y018521D02*
X011148Y018521D01*
X011745Y018443D02*
X013702Y018443D01*
X013702Y018521D02*
X012990Y018521D01*
X013172Y018757D02*
X013702Y018757D01*
X013702Y018835D02*
X013251Y018835D01*
X013232Y019099D02*
X013232Y019237D01*
X013549Y019228D02*
X013702Y019228D01*
X013702Y019306D02*
X013549Y019306D01*
X013549Y019385D02*
X013702Y019385D01*
X013702Y019463D02*
X013549Y019463D01*
X013549Y019542D02*
X013702Y019542D01*
X013702Y019620D02*
X013491Y019620D01*
X013549Y019149D02*
X013702Y019149D01*
X013702Y019071D02*
X013549Y019071D01*
X013549Y018992D02*
X013702Y018992D01*
X013702Y018914D02*
X013549Y018914D01*
X013702Y018364D02*
X011824Y018364D01*
X011866Y018286D02*
X013702Y018286D01*
X013702Y018207D02*
X011897Y018207D01*
X011897Y018129D02*
X013702Y018129D01*
X013702Y018050D02*
X011893Y018050D01*
X011861Y017972D02*
X013702Y017972D01*
X013702Y017893D02*
X011812Y017893D01*
X011733Y017815D02*
X013702Y017815D01*
X013702Y017736D02*
X011456Y017736D01*
X011483Y017658D02*
X013702Y017658D01*
X013702Y017579D02*
X011483Y017579D01*
X011452Y017501D02*
X013702Y017501D01*
X013702Y017422D02*
X011381Y017422D01*
X011417Y017344D02*
X013702Y017344D01*
X013702Y017265D02*
X011462Y017265D01*
X011462Y017187D02*
X013702Y017187D01*
X013702Y017108D02*
X011462Y017108D01*
X011462Y017030D02*
X013702Y017030D01*
X013702Y016951D02*
X011462Y016951D01*
X011416Y016873D02*
X013702Y016873D01*
X013702Y016009D02*
X013459Y016009D01*
X013547Y015931D02*
X013702Y015931D01*
X013702Y015852D02*
X013606Y015852D01*
X013639Y015774D02*
X013702Y015774D01*
X013702Y015695D02*
X013657Y015695D01*
X013657Y015617D02*
X013702Y015617D01*
X013702Y015538D02*
X013647Y015538D01*
X013614Y015460D02*
X013702Y015460D01*
X013702Y015381D02*
X013566Y015381D01*
X013487Y015303D02*
X013702Y015303D01*
X011863Y016480D02*
X011806Y016480D01*
X011806Y016559D02*
X011863Y016559D01*
X011863Y016637D02*
X011806Y016637D01*
X011806Y016716D02*
X011863Y016716D01*
X010956Y016166D02*
X010784Y016166D01*
X008480Y012477D02*
X001525Y012477D01*
X001492Y012398D02*
X008409Y012398D01*
X008376Y012320D02*
X005210Y012320D01*
X005286Y012288D02*
X005090Y012369D01*
X004878Y012369D01*
X004682Y012288D01*
X004532Y012138D01*
X004450Y011942D01*
X004450Y011729D01*
X004532Y011533D01*
X004682Y011383D01*
X004878Y011302D01*
X005090Y011302D01*
X005286Y011383D01*
X005437Y011533D01*
X005518Y011729D01*
X005518Y011942D01*
X005437Y012138D01*
X005286Y012288D01*
X005333Y012241D02*
X008365Y012241D01*
X008365Y012163D02*
X005412Y012163D01*
X005459Y012084D02*
X008365Y012084D01*
X008365Y012006D02*
X005491Y012006D01*
X005518Y011927D02*
X008365Y011927D01*
X008365Y011849D02*
X005518Y011849D01*
X005518Y011770D02*
X008365Y011770D01*
X008365Y011692D02*
X005502Y011692D01*
X005470Y011613D02*
X008365Y011613D01*
X008365Y011535D02*
X005437Y011535D01*
X005360Y011456D02*
X008365Y011456D01*
X008365Y011378D02*
X005274Y011378D01*
X004695Y011378D02*
X001484Y011378D01*
X001516Y011456D02*
X004609Y011456D01*
X004531Y011535D02*
X001541Y011535D01*
X001541Y011613D02*
X004499Y011613D01*
X004466Y011692D02*
X001541Y011692D01*
X001511Y011770D02*
X004450Y011770D01*
X004450Y011849D02*
X001479Y011849D01*
X001409Y011927D02*
X004450Y011927D01*
X004477Y012006D02*
X001312Y012006D01*
X001202Y012163D02*
X004557Y012163D01*
X004509Y012084D02*
X000744Y012084D01*
X000744Y012006D02*
X000861Y012006D01*
X000764Y011927D02*
X000744Y011927D01*
X000744Y012163D02*
X000971Y012163D01*
X000809Y012241D02*
X000744Y012241D01*
X001364Y012241D02*
X004635Y012241D01*
X004759Y012320D02*
X001442Y012320D01*
X001422Y011299D02*
X008365Y011299D01*
X008365Y011221D02*
X001342Y011221D01*
X001351Y010985D02*
X006756Y010985D01*
X006753Y010907D02*
X001430Y010907D01*
X001487Y010828D02*
X006775Y010828D01*
X006834Y010750D02*
X001520Y010750D01*
X000881Y010200D02*
X000744Y010200D01*
X000744Y010122D02*
X000951Y010122D01*
X000801Y010043D02*
X000744Y010043D01*
X000744Y010279D02*
X000772Y010279D01*
X000744Y010985D02*
X000822Y010985D01*
X000744Y011064D02*
X006789Y011064D01*
X006880Y011142D02*
X000744Y011142D01*
X000744Y011221D02*
X000831Y011221D01*
X000751Y011299D02*
X000744Y011299D01*
X000744Y009337D02*
X000793Y009337D01*
X000744Y009258D02*
X000931Y009258D01*
X000901Y009101D02*
X000744Y009101D01*
X000744Y009023D02*
X000780Y009023D01*
X000744Y009180D02*
X005376Y009180D01*
X005341Y009101D02*
X001272Y009101D01*
X001393Y009023D02*
X005336Y009023D01*
X005356Y008944D02*
X001471Y008944D01*
X001504Y008866D02*
X005376Y008866D01*
X005376Y008787D02*
X001537Y008787D01*
X001541Y008709D02*
X005376Y008709D01*
X005376Y008630D02*
X001541Y008630D01*
X001523Y008552D02*
X005376Y008552D01*
X005376Y008473D02*
X001491Y008473D01*
X001438Y008395D02*
X005376Y008395D01*
X005358Y008316D02*
X001360Y008316D01*
X001193Y008238D02*
X005336Y008238D01*
X005338Y008159D02*
X000744Y008159D01*
X000744Y008081D02*
X004812Y008081D01*
X004785Y008002D02*
X000744Y008002D01*
X000744Y007924D02*
X004785Y007924D01*
X005034Y007924D02*
X005092Y007924D01*
X005092Y008002D02*
X005034Y008002D01*
X005034Y008081D02*
X005092Y008081D01*
X005287Y007610D02*
X005339Y007610D01*
X005476Y009258D02*
X001242Y009258D01*
X000813Y008316D02*
X000744Y008316D01*
X000744Y008238D02*
X000980Y008238D01*
X001168Y006432D02*
X000744Y006432D01*
X000744Y006354D02*
X001029Y006354D01*
X000951Y006275D02*
X000744Y006275D01*
X000744Y006197D02*
X000917Y006197D01*
X000885Y006118D02*
X000744Y006118D01*
X000744Y006040D02*
X000885Y006040D01*
X000885Y005961D02*
X000744Y005961D01*
X000744Y005883D02*
X000914Y005883D01*
X000946Y005804D02*
X000744Y005804D01*
X000744Y005726D02*
X001023Y005726D01*
X001152Y005647D02*
X000744Y005647D01*
X000744Y005569D02*
X003427Y005569D01*
X003427Y005647D02*
X002045Y005647D01*
X002174Y005726D02*
X003427Y005726D01*
X003427Y005804D02*
X002250Y005804D01*
X002283Y005883D02*
X003454Y005883D01*
X003446Y005961D02*
X002312Y005961D01*
X002312Y006040D02*
X003463Y006040D01*
X003515Y006118D02*
X002312Y006118D01*
X001978Y005453D02*
X001219Y005453D01*
X001065Y005390D01*
X000948Y005272D01*
X000885Y005119D01*
X000885Y004953D01*
X000948Y004800D01*
X001065Y004683D01*
X001219Y004619D01*
X001978Y004619D01*
X002131Y004683D01*
X002249Y004800D01*
X002312Y004953D01*
X002312Y005119D01*
X002249Y005272D01*
X002131Y005390D01*
X001978Y005453D01*
X002078Y005412D02*
X003469Y005412D01*
X003427Y005490D02*
X000744Y005490D01*
X000744Y005412D02*
X001119Y005412D01*
X001009Y005333D02*
X000744Y005333D01*
X000744Y005255D02*
X000941Y005255D01*
X000908Y005176D02*
X000744Y005176D01*
X000744Y005098D02*
X000885Y005098D01*
X000885Y005019D02*
X000744Y005019D01*
X000744Y004941D02*
X000890Y004941D01*
X000922Y004862D02*
X000744Y004862D01*
X000744Y004784D02*
X000965Y004784D01*
X001043Y004705D02*
X000744Y004705D01*
X000744Y004627D02*
X001201Y004627D01*
X000744Y004548D02*
X003427Y004548D01*
X003427Y004470D02*
X000744Y004470D01*
X000744Y004391D02*
X003427Y004391D01*
X003440Y004313D02*
X000766Y004313D01*
X001996Y004627D02*
X003427Y004627D01*
X003432Y004705D02*
X002154Y004705D01*
X002232Y004784D02*
X003525Y004784D01*
X003525Y004862D02*
X002274Y004862D01*
X002307Y004941D02*
X003481Y004941D01*
X003427Y005019D02*
X002312Y005019D01*
X002312Y005098D02*
X003427Y005098D01*
X003427Y005176D02*
X002288Y005176D01*
X002256Y005255D02*
X003427Y005255D01*
X003427Y005333D02*
X002188Y005333D01*
X003685Y005182D02*
X003685Y004513D01*
X003943Y005098D02*
X009313Y005098D01*
X009347Y005176D02*
X003943Y005176D01*
X003685Y005654D02*
X003685Y005950D01*
X005673Y009258D02*
X012741Y009258D01*
X012774Y009180D02*
X012841Y009113D01*
X013702Y005804D02*
X009956Y005804D01*
X010008Y005726D02*
X013702Y005726D01*
X013702Y005647D02*
X010026Y005647D01*
X010019Y005569D02*
X013702Y005569D01*
X013702Y005490D02*
X009981Y005490D01*
X009874Y005412D02*
X013702Y005412D01*
X013702Y005333D02*
X009848Y005333D01*
X009848Y005255D02*
X013702Y005255D01*
X013702Y005176D02*
X009834Y005176D01*
X009868Y005098D02*
X013702Y005098D01*
X013702Y004391D02*
X013455Y004391D01*
X013487Y004313D02*
X013702Y004313D01*
X013702Y004234D02*
X013491Y004234D01*
X013469Y004156D02*
X013702Y004156D01*
X013702Y004077D02*
X013410Y004077D01*
X013261Y003999D02*
X013702Y003999D01*
X013702Y003920D02*
X013182Y003920D01*
X013104Y003842D02*
X013702Y003842D01*
X013702Y003763D02*
X013025Y003763D01*
X012947Y003685D02*
X013702Y003685D01*
X013702Y003606D02*
X012868Y003606D01*
X012790Y003528D02*
X013702Y003528D01*
X013702Y003449D02*
X012711Y003449D01*
X009787Y005615D02*
X009787Y005635D01*
X009787Y005615D02*
X009590Y005418D01*
X009562Y004862D02*
X009619Y004862D01*
X009619Y004784D02*
X009562Y004784D01*
X009562Y004705D02*
X009619Y004705D01*
X006863Y006903D02*
X006806Y006903D01*
X006806Y006982D02*
X006863Y006982D01*
X006863Y007060D02*
X006806Y007060D01*
X006794Y003999D02*
X006667Y003999D01*
X006992Y010930D02*
X007268Y010930D01*
X007711Y010985D02*
X007769Y010985D01*
X007769Y011064D02*
X007711Y011064D01*
X007711Y011142D02*
X007769Y011142D01*
X000911Y015538D02*
X000744Y015538D01*
X000744Y015460D02*
X000784Y015460D01*
D24*
X003921Y017564D03*
X003961Y018292D03*
X004236Y018568D03*
X004551Y017524D03*
X005004Y018115D03*
X005102Y018765D03*
X005811Y018135D03*
X005968Y018883D03*
X006520Y018883D03*
X006756Y017623D03*
X006323Y016914D03*
X007346Y017623D03*
X007858Y017820D03*
X008409Y017820D03*
X008921Y018292D03*
X009275Y018272D03*
X009768Y018272D03*
X009669Y019040D03*
X009275Y019828D03*
X008449Y020457D03*
X007504Y019946D03*
X007858Y019158D03*
X008409Y019158D03*
X009630Y017308D03*
X009157Y016639D03*
X009256Y016127D03*
X010024Y017072D03*
X010968Y018331D03*
X010535Y018489D03*
X010968Y019473D03*
X010693Y020536D03*
X010024Y020694D03*
X009669Y021206D03*
X009079Y021914D03*
X009669Y022977D03*
X009197Y023725D03*
X009590Y024237D03*
X010457Y024237D03*
X011342Y025241D03*
X012524Y022485D03*
X012898Y021501D03*
X012858Y020654D03*
X012386Y019788D03*
X011953Y020182D03*
X012858Y018725D03*
X013232Y017032D03*
X011244Y017623D03*
X010024Y015143D03*
X010653Y014591D03*
X011126Y014591D03*
X012386Y010654D03*
X012661Y009985D03*
X012464Y009631D03*
X012976Y009316D03*
X012031Y006402D03*
X011283Y005438D03*
X011559Y005182D03*
X013252Y004257D03*
X009709Y004454D03*
X009157Y005418D03*
X009197Y005753D03*
X009787Y005635D03*
X009000Y006520D03*
X008331Y006914D03*
X007976Y006914D03*
X007622Y006993D03*
X007346Y007347D03*
X007779Y007780D03*
X006716Y006520D03*
X006480Y006245D03*
X006126Y006245D03*
X005693Y006206D03*
X005693Y005457D03*
X005260Y004749D03*
X005142Y003961D03*
X006480Y004828D03*
X006323Y005753D03*
X006323Y006914D03*
X005535Y006914D03*
X005260Y006284D03*
X005575Y008213D03*
X005575Y009040D03*
X006323Y008213D03*
X007898Y010615D03*
X006992Y010930D03*
X008921Y009552D03*
X009590Y009552D03*
X010338Y009670D03*
X007327Y004394D03*
X004335Y008824D03*
X003626Y007288D03*
X002661Y006757D03*
X003685Y005950D03*
X002661Y004276D03*
X004335Y011107D03*
X004335Y012643D03*
X004335Y014178D03*
X007898Y016639D03*
X006953Y020221D03*
X006067Y021245D03*
X005102Y020457D03*
X005968Y022820D03*
X005338Y022977D03*
X005063Y023883D03*
X006244Y024867D03*
X006638Y023883D03*
X007110Y025182D03*
X007701Y023725D03*
X008409Y022938D03*
X007543Y021481D03*
D25*
X006913Y013607D03*
D26*
X004984Y015379D03*
D27*
X008685Y012229D03*
X008685Y010812D03*
X010142Y010851D03*
X010614Y011363D03*
X008094Y008804D03*
X007504Y008213D03*
X007425Y006048D03*
X007425Y005654D03*
X007425Y005261D03*
X007819Y005261D03*
X007819Y005654D03*
X007819Y006048D03*
X008212Y006048D03*
X008212Y005654D03*
X008212Y005261D03*
D28*
X007346Y016914D02*
X006756Y016914D01*
X006323Y016914D01*
X005102Y018765D02*
X004709Y018765D01*
X004709Y023765D01*
X004827Y023883D01*
X005063Y023883D01*
X007858Y019158D02*
X008409Y019158D01*
X009669Y019040D02*
X010102Y019040D01*
X010220Y019158D01*
X010653Y019158D01*
X010968Y019473D01*
X004709Y018765D02*
X004433Y018765D01*
X004236Y018568D01*
X003961Y018292D01*
X003921Y017564D02*
X004197Y017288D01*
X004197Y016875D01*
D29*
X001913Y016875D01*
X008094Y008804D02*
X007504Y008213D01*
X008685Y010812D02*
X008685Y012229D01*
D30*
X010142Y010891D02*
X010614Y011363D01*
X010142Y010891D02*
X010142Y010851D01*
X012661Y009985D02*
X012976Y009670D01*
X012976Y009316D01*
X005575Y009040D02*
X005575Y008213D01*
D31*
X005535Y008174D01*
X005535Y007859D01*
X005535Y007150D02*
X005535Y006914D01*
X006323Y006914D02*
X006323Y007111D01*
X006362Y007150D01*
X006362Y007859D02*
X006362Y008174D01*
X006323Y008213D01*
X001342Y003469D02*
X012464Y003469D01*
X013252Y004257D01*
X001342Y003469D02*
X000555Y004257D01*
X000555Y017918D01*
X001283Y018646D01*
D32*
X005338Y021796D02*
X005338Y022426D01*
X005338Y022977D01*
X005811Y022426D02*
X006126Y022426D01*
X006244Y022544D01*
X006480Y022544D01*
X007110Y022544D01*
X007740Y022544D01*
X007740Y021914D02*
X007071Y021914D01*
X006480Y021914D01*
X006244Y021914D01*
X006126Y021796D01*
X005811Y021796D01*
X006067Y021245D02*
X006126Y021245D01*
X006323Y021442D01*
X006480Y021442D01*
X007071Y021442D01*
X007504Y021442D02*
X007504Y021009D01*
X007504Y020339D01*
X007504Y019946D02*
X007819Y019946D01*
X007976Y020103D01*
X007976Y020339D01*
X007504Y019946D02*
X007504Y019513D01*
X007189Y019198D01*
X007189Y019080D01*
X007976Y019513D02*
X008134Y019513D01*
X008449Y019828D01*
X008449Y020457D02*
X008449Y020654D01*
X008567Y020772D01*
X008567Y021009D01*
X007976Y021009D01*
X007504Y021442D02*
X007543Y021481D01*
X008212Y021914D02*
X008212Y022544D01*
X008409Y022741D01*
X008409Y022938D01*
X008055Y023253D02*
X008764Y023253D01*
X009197Y023725D02*
X009669Y023725D01*
X009669Y023253D02*
X009669Y022977D01*
X009079Y021914D02*
X009079Y021757D01*
X009275Y021560D01*
X009275Y021009D02*
X008567Y021009D01*
X008921Y019828D02*
X009275Y019828D01*
X009275Y018607D02*
X009275Y018272D01*
X009197Y017780D02*
X009531Y017780D01*
X009768Y018017D01*
X009768Y018272D01*
X009768Y018587D01*
X009945Y017623D02*
X009630Y017308D01*
X009394Y016993D02*
X009197Y017190D01*
X009197Y017308D01*
X009394Y016993D02*
X009945Y016993D01*
X010024Y017072D01*
X009945Y016639D02*
X009945Y016324D01*
X009748Y016127D01*
X009256Y016127D01*
X009138Y016009D01*
X008842Y016009D01*
X008370Y016009D02*
X008370Y016639D01*
X007898Y016639D01*
X008370Y016009D02*
X008370Y015418D01*
X008842Y016639D02*
X009157Y016639D01*
X009472Y016639D01*
X009945Y016639D02*
X010535Y016639D01*
X010535Y017111D02*
X011205Y017111D01*
X011205Y016639D02*
X011205Y015969D01*
X011835Y015969D01*
X011205Y015969D02*
X010535Y015969D01*
X010535Y015497D02*
X010535Y015300D01*
X010653Y015182D01*
X010653Y014906D01*
X011126Y014906D02*
X011126Y015221D01*
X011205Y015300D01*
X011205Y015497D01*
X011244Y017623D02*
X009945Y017623D01*
X010535Y018489D02*
X010496Y018528D01*
X010496Y018804D01*
X010968Y018804D02*
X010968Y018331D01*
X011323Y018331D01*
X011520Y018135D01*
X007110Y023017D02*
X006480Y023017D01*
X006165Y023017D01*
X005968Y022820D01*
X006638Y023607D02*
X006638Y023883D01*
D33*
X007858Y017820D02*
X008409Y017820D01*
X011953Y020182D02*
X012071Y020300D01*
X012386Y020300D01*
X012583Y020103D01*
X012858Y020103D01*
D34*
X001913Y018017D02*
X001913Y017780D01*
X001913Y018017D02*
X001283Y018646D01*
D35*
X003921Y017564D02*
X003921Y017269D01*
X004551Y017269D02*
X004551Y017524D01*
X006756Y017623D02*
X006756Y017387D01*
X007346Y017387D02*
X007346Y017623D01*
X010634Y024060D02*
X010457Y024237D01*
X009925Y024769D01*
X010634Y024060D02*
X010968Y024060D01*
X012386Y019788D02*
X012484Y019690D01*
X012484Y019237D01*
X012858Y018725D02*
X013232Y019099D01*
X006992Y024867D02*
X006992Y025064D01*
X007110Y025182D01*
X006520Y024867D02*
X006244Y024867D01*
X006244Y024493D01*
X006224Y024473D01*
X005890Y024473D01*
M02*
