G75*
G70*
%OFA0B0*%
%FSLAX24Y24*%
%IPPOS*%
%LPD*%
%AMOC8*
5,1,8,0,0,1.08239X$1,22.5*
%
%ADD10C,0.0000*%
%ADD11R,0.0217X0.0610*%
%ADD12R,0.0610X0.0217*%
%ADD13R,0.0846X0.1280*%
%ADD14R,0.0846X0.0374*%
%ADD15R,0.0709X0.0472*%
%ADD16R,0.0709X0.0866*%
%ADD17R,0.0709X0.0669*%
%ADD18C,0.0600*%
%ADD19R,0.0551X0.0394*%
%ADD20R,0.0197X0.0236*%
%ADD21C,0.0594*%
%ADD22R,0.0236X0.0236*%
%ADD23R,0.0236X0.0197*%
%ADD24C,0.0660*%
%ADD25R,0.0472X0.0551*%
%ADD26C,0.0669*%
%ADD27R,0.0236X0.0591*%
%ADD28OC8,0.0850*%
%ADD29R,0.0394X0.0551*%
%ADD30C,0.1000*%
%ADD31C,0.0080*%
%ADD32C,0.0277*%
%ADD33C,0.2762*%
%ADD34C,0.1384*%
%ADD35C,0.0400*%
%ADD36C,0.0472*%
%ADD37C,0.0157*%
%ADD38C,0.0197*%
%ADD39C,0.0356*%
%ADD40C,0.0236*%
%ADD41C,0.0394*%
%ADD42C,0.0098*%
%ADD43C,0.0787*%
%ADD44C,0.0709*%
D10*
X000219Y000139D02*
X000219Y026517D01*
X013801Y026517D01*
X013801Y000139D01*
X000219Y000139D01*
D11*
X008408Y008742D03*
X008723Y008742D03*
X009038Y008742D03*
X009353Y008742D03*
X009668Y008742D03*
X009983Y008742D03*
X010297Y008742D03*
X010612Y008742D03*
X010612Y012088D03*
X010297Y012088D03*
X009983Y012088D03*
X009668Y012088D03*
X009353Y012088D03*
X009038Y012088D03*
X008723Y012088D03*
X008408Y012088D03*
D12*
X007837Y011517D03*
X007837Y011202D03*
X007837Y010887D03*
X007837Y010572D03*
X007837Y010258D03*
X007837Y009943D03*
X007837Y009628D03*
X007837Y009313D03*
X011183Y009313D03*
X011183Y009628D03*
X011183Y009943D03*
X011183Y010258D03*
X011183Y010572D03*
X011183Y010887D03*
X011183Y011202D03*
X011183Y011517D03*
D13*
X007738Y021990D03*
X007738Y024824D03*
D14*
X005455Y024824D03*
X005455Y025730D03*
X005455Y023919D03*
X005455Y022895D03*
X005455Y021990D03*
X005455Y021084D03*
D15*
X004116Y021793D03*
X004116Y022974D03*
X002896Y024509D03*
X002896Y025691D03*
D16*
X002404Y019391D03*
X004412Y019391D03*
D17*
X004412Y018210D03*
X002797Y018210D03*
D18*
X012753Y016206D02*
X013353Y016206D01*
X013353Y015206D02*
X012753Y015206D01*
X012753Y014206D02*
X013353Y014206D01*
X013353Y013206D02*
X012753Y013206D01*
X012753Y012072D02*
X013353Y012072D01*
X013353Y011072D02*
X012753Y011072D01*
X012753Y010072D02*
X013353Y010072D01*
X013353Y009072D02*
X012753Y009072D01*
X012753Y007939D02*
X013353Y007939D01*
X013353Y006939D02*
X012753Y006939D01*
X012753Y005939D02*
X013353Y005939D01*
X013353Y004939D02*
X012753Y004939D01*
D19*
X011833Y017324D03*
X011833Y018072D03*
X010967Y017698D03*
X009628Y019982D03*
X008762Y020356D03*
X008762Y019608D03*
X005691Y008978D03*
X005691Y008230D03*
X004825Y008604D03*
X003526Y003269D03*
X003526Y002521D03*
X004392Y002895D03*
D20*
X003920Y003998D03*
X003526Y003998D03*
X003959Y009234D03*
X004234Y009824D03*
X004353Y009234D03*
X004628Y009824D03*
X007542Y012108D03*
X007935Y012108D03*
X009510Y017226D03*
X009904Y017226D03*
X008920Y017659D03*
X008526Y017659D03*
X006636Y019234D03*
X006636Y019785D03*
X006242Y019785D03*
X006242Y019234D03*
X010534Y025454D03*
X010927Y025454D03*
X011557Y025927D03*
X011951Y025927D03*
X012738Y024313D03*
X013132Y024313D03*
X012423Y021990D03*
X012030Y021990D03*
X009274Y003250D03*
X008880Y003250D03*
X011046Y002541D03*
X011439Y002541D03*
D21*
X008002Y001775D02*
X008002Y001181D01*
X007002Y001181D02*
X007002Y001775D01*
X012205Y018970D02*
X012799Y018970D01*
X012799Y019970D02*
X012205Y019970D01*
D22*
X010770Y020454D03*
X010770Y020927D03*
X010219Y020454D03*
X010219Y019982D03*
X010219Y019234D03*
X010691Y019234D03*
X009471Y022502D03*
X009471Y022974D03*
X009431Y023998D03*
X009904Y023998D03*
X009589Y025021D03*
X009589Y025494D03*
X010494Y025927D03*
X010967Y025927D03*
X012699Y025612D03*
X012699Y024903D03*
X013171Y024903D03*
X013171Y025612D03*
X009234Y006557D03*
X009234Y006084D03*
X009904Y005848D03*
X009904Y006321D03*
X009116Y004824D03*
X009116Y004273D03*
X008644Y004273D03*
X008644Y004824D03*
X009904Y003998D03*
X009904Y003525D03*
X006360Y004273D03*
X006360Y004824D03*
X005888Y004824D03*
X005888Y004273D03*
D23*
X007109Y004352D03*
X007109Y004746D03*
X007896Y004746D03*
X007896Y004352D03*
X009904Y004903D03*
X009904Y005297D03*
X012738Y004195D03*
X012738Y003801D03*
X006616Y008230D03*
X006616Y008624D03*
X004628Y010572D03*
X004628Y010966D03*
X010061Y022541D03*
X010061Y022935D03*
X010534Y023565D03*
X010534Y023958D03*
X010061Y025061D03*
X010061Y025454D03*
X011518Y022384D03*
X011518Y021990D03*
X012030Y022541D03*
X012030Y022935D03*
X011990Y025061D03*
X011990Y025454D03*
D24*
X004156Y020612D03*
X002187Y020612D03*
X001872Y024509D03*
X003841Y024509D03*
D25*
X005455Y007305D03*
X006085Y007305D03*
X006085Y006439D03*
X005455Y006439D03*
D26*
X001400Y008407D03*
X001400Y009588D03*
X001400Y010769D03*
X001400Y011950D03*
X001400Y013132D03*
X001400Y014313D03*
X001400Y015494D03*
X001400Y016675D03*
X001400Y017856D03*
X001400Y019037D03*
D27*
X007305Y018643D03*
X007699Y018643D03*
X007699Y020061D03*
X007305Y020061D03*
D28*
X011242Y003525D03*
X011242Y001557D03*
D29*
X012010Y002895D03*
X012384Y002029D03*
X012758Y002895D03*
X006183Y010809D03*
X005809Y009943D03*
X005435Y010809D03*
D30*
X004396Y007206D03*
X004396Y005616D03*
X004396Y001206D03*
X001396Y001206D03*
X001396Y006206D03*
D31*
X001606Y006812D02*
X001890Y006812D01*
X001890Y006773D02*
X001965Y006592D01*
X002104Y006453D01*
X003360Y005197D01*
X003542Y005121D01*
X003985Y005121D01*
X004033Y005073D01*
X004269Y004976D01*
X004523Y004976D01*
X004758Y005073D01*
X004938Y005253D01*
X005036Y005488D01*
X005036Y005743D01*
X004938Y005978D01*
X004758Y006158D01*
X004523Y006256D01*
X004269Y006256D01*
X004033Y006158D01*
X003985Y006110D01*
X003845Y006110D01*
X002878Y007076D01*
X002878Y008046D01*
X002910Y007970D01*
X003049Y007831D01*
X003756Y007124D01*
X003756Y007079D01*
X003853Y006844D01*
X004033Y006664D01*
X004269Y006566D01*
X004523Y006566D01*
X004758Y006664D01*
X004938Y006844D01*
X005036Y007079D01*
X005036Y007334D01*
X004938Y007569D01*
X004758Y007749D01*
X004523Y007846D01*
X004431Y007846D01*
X003823Y008454D01*
X003823Y008976D01*
X004115Y008976D01*
X004156Y009016D01*
X004173Y008999D01*
X004173Y008818D01*
X004116Y008762D01*
X004074Y008659D01*
X004074Y008549D01*
X004116Y008446D01*
X004195Y008368D01*
X004297Y008325D01*
X004408Y008325D01*
X004426Y008333D01*
X004491Y008267D01*
X005159Y008267D01*
X005241Y008349D01*
X005241Y008859D01*
X005159Y008941D01*
X004533Y008941D01*
X004533Y008999D01*
X004591Y009058D01*
X004591Y009349D01*
X004667Y009273D01*
X004770Y009231D01*
X004880Y009231D01*
X004983Y009273D01*
X005061Y009352D01*
X005101Y009448D01*
X005631Y009448D01*
X005710Y009527D01*
X006064Y009527D01*
X006146Y009609D01*
X006146Y009763D01*
X006784Y009763D01*
X006751Y009683D01*
X006751Y009665D01*
X006693Y009607D01*
X006693Y009510D01*
X006596Y009470D01*
X006518Y009392D01*
X006475Y009289D01*
X006475Y009210D01*
X006436Y009171D01*
X006436Y008858D01*
X006358Y008780D01*
X006358Y008467D01*
X006399Y008427D01*
X006382Y008410D01*
X006107Y008410D01*
X006107Y008485D01*
X006025Y008567D01*
X005358Y008567D01*
X005276Y008485D01*
X005276Y007975D01*
X005358Y007893D01*
X006025Y007893D01*
X006107Y007975D01*
X006107Y008050D01*
X006382Y008050D01*
X006440Y007992D01*
X006792Y007992D01*
X006874Y008074D01*
X006874Y008386D01*
X006834Y008427D01*
X006874Y008467D01*
X006874Y008780D01*
X006796Y008858D01*
X006796Y008955D01*
X006810Y008955D01*
X006912Y008998D01*
X006990Y009076D01*
X007033Y009178D01*
X007033Y009197D01*
X007091Y009255D01*
X007091Y009351D01*
X007188Y009391D01*
X007244Y009448D01*
X007392Y009448D01*
X007392Y009146D01*
X007474Y009064D01*
X008159Y009064D01*
X008159Y008902D01*
X008136Y008902D01*
X008117Y008883D01*
X008037Y008883D01*
X007935Y008840D01*
X007856Y008762D01*
X007814Y008659D01*
X007814Y008549D01*
X007856Y008446D01*
X007935Y008368D01*
X008037Y008325D01*
X008148Y008325D01*
X008194Y008344D01*
X008241Y008297D01*
X008759Y008297D01*
X008759Y008194D01*
X008801Y008092D01*
X008857Y008036D01*
X006876Y008036D01*
X006700Y007859D01*
X006620Y007859D01*
X006518Y007817D01*
X006439Y007738D01*
X006397Y007636D01*
X006397Y007525D01*
X006439Y007422D01*
X006518Y007344D01*
X006620Y007302D01*
X006731Y007302D01*
X006833Y007344D01*
X006912Y007422D01*
X006954Y007525D01*
X006954Y007605D01*
X007026Y007676D01*
X009020Y007676D01*
X009098Y007598D01*
X009113Y007598D01*
X009113Y007564D01*
X009156Y007462D01*
X009234Y007383D01*
X009337Y007341D01*
X009355Y007341D01*
X009413Y007283D01*
X009685Y007283D01*
X009685Y007247D01*
X009743Y007189D01*
X009743Y007171D01*
X009786Y007068D01*
X009864Y006990D01*
X009914Y006969D01*
X009480Y006969D01*
X009471Y006990D02*
X009392Y007069D01*
X009290Y007111D01*
X009179Y007111D01*
X009077Y007069D01*
X008998Y006990D01*
X008956Y006888D01*
X008956Y006777D01*
X008976Y006727D01*
X008976Y006381D01*
X009058Y006299D01*
X009411Y006299D01*
X009493Y006381D01*
X009493Y006727D01*
X009513Y006777D01*
X009513Y006888D01*
X009471Y006990D01*
X009414Y007047D02*
X009806Y007047D01*
X009762Y007126D02*
X006585Y007126D01*
X006573Y007131D02*
X006463Y007131D01*
X006360Y007088D01*
X006323Y007052D01*
X005831Y007052D01*
X005831Y007638D01*
X005749Y007720D01*
X005161Y007720D01*
X005079Y007638D01*
X005079Y006971D01*
X005161Y006889D01*
X005195Y006889D01*
X005219Y006832D01*
X005297Y006753D01*
X005400Y006711D01*
X005479Y006711D01*
X005499Y006692D01*
X005709Y006692D01*
X005709Y006105D01*
X005791Y006023D01*
X005806Y006023D01*
X005806Y005989D01*
X005849Y005887D01*
X005927Y005809D01*
X006029Y005766D01*
X006140Y005766D01*
X006243Y005809D01*
X006321Y005887D01*
X006364Y005989D01*
X006364Y006023D01*
X006379Y006023D01*
X006461Y006105D01*
X006461Y006177D01*
X006502Y006160D01*
X006613Y006160D01*
X006715Y006202D01*
X006794Y006281D01*
X006836Y006383D01*
X006836Y006494D01*
X006794Y006597D01*
X006725Y006665D01*
X006754Y006694D01*
X006797Y006797D01*
X006797Y006907D01*
X006754Y007010D01*
X006676Y007088D01*
X006573Y007131D01*
X006451Y007126D02*
X005831Y007126D01*
X005831Y007204D02*
X009727Y007204D01*
X009914Y006969D02*
X010197Y006686D01*
X010197Y003317D01*
X009836Y002957D01*
X009179Y002957D01*
X009214Y002992D01*
X009430Y002992D01*
X009508Y003070D01*
X009900Y003070D01*
X009978Y003148D01*
X010084Y003254D01*
X010084Y003271D01*
X010162Y003349D01*
X010162Y004174D01*
X010084Y004252D01*
X010084Y004669D01*
X010162Y004747D01*
X010162Y005453D01*
X010084Y005531D01*
X010084Y005594D01*
X010162Y005672D01*
X010162Y006024D01*
X010080Y006106D01*
X009728Y006106D01*
X009646Y006024D01*
X009646Y005672D01*
X009724Y005594D01*
X009724Y005574D01*
X009611Y005686D01*
X009506Y005792D01*
X007008Y005792D01*
X006991Y005809D01*
X006888Y005851D01*
X006777Y005851D01*
X006675Y005809D01*
X006597Y005730D01*
X006554Y005628D01*
X006554Y005536D01*
X006463Y005536D01*
X006360Y005494D01*
X006282Y005415D01*
X006239Y005313D01*
X006239Y005202D01*
X006282Y005100D01*
X006299Y005083D01*
X006184Y005083D01*
X006102Y005001D01*
X006102Y004804D01*
X006024Y004725D01*
X006024Y004373D01*
X006102Y004294D01*
X006102Y004097D01*
X006184Y004015D01*
X006537Y004015D01*
X006576Y004055D01*
X006884Y004055D01*
X006943Y004114D01*
X006982Y004114D01*
X007244Y003851D01*
X007244Y003198D01*
X007283Y003103D01*
X007356Y003031D01*
X007907Y002480D01*
X008002Y002440D01*
X009994Y002440D01*
X010089Y002480D01*
X010162Y002552D01*
X010674Y003064D01*
X010713Y003159D01*
X010713Y003255D01*
X011008Y002960D01*
X011013Y002960D01*
X010866Y002812D01*
X010866Y002776D01*
X010807Y002717D01*
X010807Y002365D01*
X010889Y002283D01*
X011066Y002283D01*
X011095Y002254D01*
X011062Y002222D01*
X011062Y002122D01*
X011008Y002122D01*
X010677Y001791D01*
X010677Y001323D01*
X011008Y000992D01*
X011476Y000992D01*
X011807Y001323D01*
X011807Y001377D01*
X012026Y001377D01*
X012131Y001482D01*
X012262Y001614D01*
X012639Y001614D01*
X012721Y001696D01*
X012721Y002363D01*
X012639Y002445D01*
X012129Y002445D01*
X012047Y002363D01*
X012047Y001908D01*
X011876Y001737D01*
X011807Y001737D01*
X011807Y001791D01*
X011476Y002122D01*
X011471Y002122D01*
X011619Y002270D01*
X011619Y002306D01*
X011678Y002365D01*
X011678Y002717D01*
X011596Y002799D01*
X011418Y002799D01*
X011390Y002828D01*
X011422Y002860D01*
X011422Y002960D01*
X011476Y002960D01*
X011807Y003291D01*
X011807Y003759D01*
X011476Y004090D01*
X011042Y004090D01*
X010713Y004420D01*
X010713Y006844D01*
X010674Y006939D01*
X010601Y007012D01*
X010516Y007097D01*
X010516Y007284D01*
X010434Y007366D01*
X010279Y007366D01*
X010269Y007357D01*
X010258Y007384D01*
X010202Y007440D01*
X010774Y007440D01*
X011456Y006758D01*
X011456Y005222D01*
X012480Y004198D01*
X012480Y004174D01*
X012441Y004134D01*
X012441Y003861D01*
X012480Y003822D01*
X012480Y003644D01*
X012562Y003562D01*
X012578Y003562D01*
X012578Y003311D01*
X012503Y003311D01*
X012421Y003229D01*
X012421Y002562D01*
X012503Y002480D01*
X013013Y002480D01*
X013095Y002562D01*
X013095Y003229D01*
X013013Y003311D01*
X012938Y003311D01*
X012938Y003586D01*
X012997Y003644D01*
X012997Y003822D01*
X013036Y003861D01*
X013036Y004134D01*
X012997Y004174D01*
X012997Y004351D01*
X012915Y004433D01*
X012755Y004433D01*
X011816Y005371D01*
X011816Y006907D01*
X011711Y007012D01*
X011086Y007637D01*
X011101Y007637D01*
X012465Y006272D01*
X012380Y006188D01*
X012313Y006026D01*
X012313Y005851D01*
X012380Y005689D01*
X012504Y005566D01*
X012666Y005499D01*
X013441Y005499D01*
X013603Y005566D01*
X013661Y005624D01*
X013661Y000279D01*
X000359Y000279D01*
X000359Y026377D01*
X013661Y026377D01*
X013661Y016027D01*
X012328Y016027D01*
X012328Y016403D01*
X012800Y016876D01*
X012800Y017287D01*
X012857Y017344D01*
X012899Y017446D01*
X012899Y017557D01*
X012857Y017660D01*
X012778Y017738D01*
X012676Y017780D01*
X012565Y017780D01*
X012462Y017738D01*
X012384Y017660D01*
X012342Y017557D01*
X012342Y017446D01*
X012384Y017344D01*
X012440Y017287D01*
X012440Y017025D01*
X012073Y016658D01*
X011968Y016553D01*
X011968Y014086D01*
X011888Y014119D01*
X011777Y014119D01*
X011675Y014076D01*
X011597Y013998D01*
X011554Y013896D01*
X011554Y013785D01*
X011597Y013682D01*
X011614Y013665D01*
X011614Y012497D01*
X011003Y011887D01*
X011003Y011766D01*
X010861Y011766D01*
X010861Y012316D01*
X010928Y012344D01*
X011006Y012422D01*
X011049Y012525D01*
X011049Y012636D01*
X011006Y012738D01*
X010928Y012817D01*
X010825Y012859D01*
X010813Y012859D01*
X010849Y012895D01*
X010891Y012997D01*
X010891Y013108D01*
X010849Y013211D01*
X010770Y013289D01*
X010668Y013332D01*
X010557Y013332D01*
X010455Y013289D01*
X010398Y013233D01*
X009514Y013233D01*
X009278Y012997D01*
X009173Y012891D01*
X009173Y012533D01*
X008241Y012533D01*
X008159Y012451D01*
X008159Y012298D01*
X008092Y012366D01*
X007779Y012366D01*
X007738Y012326D01*
X007698Y012366D01*
X007425Y012366D01*
X007895Y012817D01*
X007935Y012777D01*
X008037Y012735D01*
X008148Y012735D01*
X008251Y012777D01*
X008329Y012856D01*
X008369Y012953D01*
X008444Y013027D01*
X008444Y012958D01*
X008486Y012856D01*
X008329Y012856D01*
X008362Y012935D02*
X008453Y012935D01*
X008444Y013013D02*
X008430Y013013D01*
X008486Y012856D02*
X008565Y012777D01*
X008667Y012735D01*
X008778Y012735D01*
X008881Y012777D01*
X008959Y012856D01*
X009001Y012958D01*
X009001Y013069D01*
X008959Y013171D01*
X008881Y013250D01*
X008778Y013292D01*
X008698Y013292D01*
X008666Y013324D01*
X008666Y016041D01*
X008561Y016146D01*
X008430Y016277D01*
X008430Y017082D01*
X008465Y017068D01*
X008545Y016988D01*
X009334Y016988D01*
X009354Y016968D01*
X009531Y016968D01*
X009570Y016929D01*
X009844Y016929D01*
X009883Y016968D01*
X009982Y016968D01*
X010218Y016732D01*
X010258Y016635D01*
X010336Y016557D01*
X010439Y016514D01*
X010550Y016514D01*
X010652Y016557D01*
X010731Y016635D01*
X010773Y016738D01*
X010773Y016848D01*
X010731Y016951D01*
X010652Y017029D01*
X010555Y017070D01*
X010160Y017464D01*
X010080Y017464D01*
X010060Y017484D01*
X009883Y017484D01*
X009844Y017524D01*
X009611Y017524D01*
X009611Y017638D01*
X009553Y017696D01*
X009553Y017715D01*
X009510Y017817D01*
X009432Y017895D01*
X009329Y017938D01*
X009218Y017938D01*
X009121Y017898D01*
X009096Y017898D01*
X009076Y017917D01*
X008999Y017917D01*
X009310Y018228D01*
X009472Y018228D01*
X009490Y018210D01*
X009592Y018168D01*
X009703Y018168D01*
X009806Y018210D01*
X009862Y018266D01*
X011317Y018266D01*
X011422Y018372D01*
X011817Y018766D01*
X011835Y018723D01*
X011958Y018600D01*
X012118Y018533D01*
X012886Y018533D01*
X013047Y018600D01*
X013169Y018723D01*
X013236Y018883D01*
X013236Y019057D01*
X013169Y019218D01*
X013047Y019340D01*
X012886Y019407D01*
X012118Y019407D01*
X011958Y019340D01*
X011835Y019218D01*
X011807Y019150D01*
X011691Y019150D01*
X011168Y018626D01*
X009862Y018626D01*
X009806Y018683D01*
X009703Y018725D01*
X009592Y018725D01*
X009490Y018683D01*
X009472Y018665D01*
X009375Y018665D01*
X009375Y019645D01*
X009962Y019645D01*
X010042Y019725D01*
X010043Y019724D01*
X010358Y019724D01*
X010397Y019684D01*
X010413Y019684D01*
X010412Y019683D01*
X010412Y019572D01*
X010455Y019470D01*
X010474Y019451D01*
X010433Y019410D01*
X010433Y019058D01*
X009375Y019058D01*
X009375Y019136D02*
X010433Y019136D01*
X010433Y019058D02*
X010515Y018976D01*
X010867Y018976D01*
X010949Y019058D01*
X011599Y019058D01*
X011521Y018979D02*
X010871Y018979D01*
X010949Y019058D02*
X010949Y019410D01*
X010909Y019451D01*
X010927Y019470D01*
X010970Y019572D01*
X010970Y019683D01*
X010927Y019785D01*
X010849Y019864D01*
X010747Y019906D01*
X010674Y019906D01*
X010674Y020196D01*
X010773Y020196D01*
X011180Y019790D01*
X011807Y019790D01*
X011835Y019723D01*
X011958Y019600D01*
X012118Y019533D01*
X012886Y019533D01*
X013047Y019600D01*
X013169Y019723D01*
X013236Y019883D01*
X013236Y020057D01*
X013169Y020218D01*
X013047Y020340D01*
X012886Y020407D01*
X012118Y020407D01*
X011958Y020340D01*
X011835Y020218D01*
X011807Y020150D01*
X011329Y020150D01*
X011028Y020451D01*
X011028Y020630D01*
X010946Y020712D01*
X010594Y020712D01*
X010516Y020634D01*
X010473Y020634D01*
X010395Y020712D01*
X010043Y020712D01*
X009961Y020630D01*
X009961Y020319D01*
X009375Y020319D01*
X009375Y020380D01*
X011186Y022191D01*
X011186Y022204D01*
X011220Y022204D01*
X011220Y022050D01*
X011260Y022011D01*
X011260Y021833D01*
X011338Y021755D01*
X011338Y021613D01*
X011282Y021557D01*
X011239Y021455D01*
X011239Y021344D01*
X011282Y021241D01*
X011360Y021163D01*
X011463Y021121D01*
X011573Y021121D01*
X011676Y021163D01*
X011754Y021241D01*
X011797Y021344D01*
X011797Y021455D01*
X011754Y021557D01*
X011698Y021613D01*
X011698Y021755D01*
X011752Y021810D01*
X011795Y021810D01*
X011873Y021732D01*
X012186Y021732D01*
X012268Y021814D01*
X012268Y022030D01*
X012327Y022089D01*
X012327Y022223D01*
X012329Y022223D01*
X012440Y022223D01*
X012542Y022265D01*
X012620Y022344D01*
X012663Y022446D01*
X012663Y022543D01*
X012682Y022562D01*
X012682Y022914D01*
X012661Y022934D01*
X012663Y022938D01*
X012663Y023049D01*
X012620Y023152D01*
X012542Y023230D01*
X012440Y023272D01*
X012329Y023272D01*
X012226Y023230D01*
X012169Y023173D01*
X011854Y023173D01*
X011772Y023091D01*
X011772Y022914D01*
X011732Y022875D01*
X011732Y022584D01*
X011694Y022622D01*
X011342Y022622D01*
X011322Y022602D01*
X011186Y022602D01*
X011186Y024545D01*
X011107Y024623D01*
X011107Y025220D01*
X011166Y025278D01*
X011166Y025630D01*
X011147Y025650D01*
X011147Y025673D01*
X011221Y025747D01*
X011323Y025747D01*
X011401Y025669D01*
X011714Y025669D01*
X011796Y025751D01*
X011796Y026103D01*
X011714Y026185D01*
X011401Y026185D01*
X011323Y026107D01*
X011221Y026107D01*
X011143Y026185D01*
X010791Y026185D01*
X010709Y026103D01*
X010709Y025752D01*
X010594Y025752D01*
X010554Y025712D01*
X010377Y025712D01*
X010299Y025634D01*
X010296Y025634D01*
X010237Y025693D01*
X010077Y025693D01*
X010057Y025713D01*
X009927Y025713D01*
X009943Y025730D01*
X009986Y025832D01*
X009986Y025943D01*
X009943Y026045D01*
X009865Y026124D01*
X009762Y026166D01*
X009651Y026166D01*
X009549Y026124D01*
X009471Y026045D01*
X009428Y025943D01*
X009428Y025863D01*
X009409Y025844D01*
X009409Y025748D01*
X009331Y025670D01*
X009331Y025434D01*
X009291Y025394D01*
X009291Y025201D01*
X009255Y025238D01*
X009152Y025280D01*
X009041Y025280D01*
X008939Y025238D01*
X008860Y025160D01*
X008818Y025057D01*
X008818Y024946D01*
X008860Y024844D01*
X008939Y024765D01*
X009041Y024723D01*
X009152Y024723D01*
X009255Y024765D01*
X009311Y024822D01*
X009354Y024822D01*
X009413Y024763D01*
X009765Y024763D01*
X009847Y024845D01*
X009847Y024860D01*
X009885Y024822D01*
X010237Y024822D01*
X010319Y024904D01*
X010319Y025081D01*
X010359Y025121D01*
X010359Y025215D01*
X010377Y025196D01*
X010554Y025196D01*
X010594Y025157D01*
X010747Y025157D01*
X010747Y024689D01*
X010397Y024689D01*
X010324Y024616D01*
X010258Y024588D01*
X010179Y024510D01*
X010137Y024407D01*
X010137Y024297D01*
X010179Y024194D01*
X010196Y024178D01*
X010158Y024178D01*
X010080Y024256D01*
X009728Y024256D01*
X009646Y024174D01*
X009646Y023822D01*
X009728Y023740D01*
X010080Y023740D01*
X010158Y023818D01*
X010184Y023818D01*
X010223Y023778D01*
X010236Y023778D01*
X010236Y023625D01*
X010276Y023585D01*
X010276Y023408D01*
X010354Y023330D01*
X010354Y022880D01*
X010319Y022914D01*
X010319Y023091D01*
X010237Y023173D01*
X009885Y023173D01*
X009836Y023124D01*
X009781Y023178D01*
X009701Y023178D01*
X009647Y023232D01*
X009295Y023232D01*
X009254Y023191D01*
X009235Y023210D01*
X009132Y023253D01*
X009022Y023253D01*
X008919Y023210D01*
X008841Y023132D01*
X008798Y023029D01*
X008798Y022919D01*
X008841Y022816D01*
X008919Y022738D01*
X009022Y022695D01*
X009132Y022695D01*
X009173Y022712D01*
X009173Y022601D01*
X009213Y022562D01*
X009213Y022326D01*
X009222Y022316D01*
X009192Y022242D01*
X009192Y022131D01*
X009234Y022029D01*
X009313Y021950D01*
X009415Y021908D01*
X009526Y021908D01*
X009629Y021950D01*
X009707Y022029D01*
X009749Y022131D01*
X009749Y022242D01*
X009719Y022316D01*
X009721Y022318D01*
X009781Y022318D01*
X009825Y022361D01*
X009827Y022361D01*
X009885Y022303D01*
X010062Y022303D01*
X010121Y022244D01*
X010730Y022244D01*
X009121Y020634D01*
X009015Y020529D01*
X009015Y019945D01*
X008564Y019945D01*
X008505Y020004D01*
X008371Y020004D01*
X008371Y020474D01*
X008646Y020749D01*
X008646Y022994D01*
X008506Y023134D01*
X008411Y023229D01*
X008411Y025655D01*
X008294Y025772D01*
X006517Y025772D01*
X006514Y025776D01*
X006435Y025772D01*
X006356Y025772D01*
X006353Y025769D01*
X006348Y025769D01*
X006295Y025711D01*
X006239Y025655D01*
X006239Y025651D01*
X005879Y025261D01*
X004978Y025261D01*
X004861Y025144D01*
X004861Y024545D01*
X004978Y024428D01*
X006954Y024428D01*
X007302Y023826D01*
X007302Y023009D01*
X007334Y022977D01*
X006553Y022977D01*
X006436Y022860D01*
X006002Y022426D01*
X004978Y022426D01*
X004900Y022347D01*
X004900Y022347D01*
X004783Y022230D01*
X004783Y022089D01*
X004749Y022134D01*
X004749Y022151D01*
X004702Y022199D01*
X004662Y022254D01*
X004645Y022256D01*
X004632Y022269D01*
X004565Y022269D01*
X004498Y022279D01*
X004484Y022269D01*
X003766Y022269D01*
X003765Y022269D01*
X003765Y023258D01*
X003976Y023522D01*
X006719Y023522D01*
X006798Y023601D01*
X006915Y023718D01*
X006915Y024120D01*
X006836Y024199D01*
X006719Y024316D01*
X004764Y024316D01*
X004238Y024973D01*
X004238Y024986D01*
X004187Y025037D01*
X004142Y025093D01*
X004129Y025094D01*
X004120Y025103D01*
X004049Y025103D01*
X003977Y025111D01*
X003967Y025103D01*
X002341Y025103D01*
X002223Y024986D01*
X002223Y022309D01*
X001515Y021600D01*
X001515Y020295D01*
X001457Y020237D01*
X001457Y019846D01*
X001452Y019844D01*
X001302Y019694D01*
X001302Y019694D01*
X000947Y019339D01*
X000866Y019143D01*
X000866Y018931D01*
X000947Y018735D01*
X001098Y018585D01*
X001294Y018503D01*
X001506Y018503D01*
X001702Y018585D01*
X001964Y018846D01*
X001991Y018818D01*
X002816Y018818D01*
X002898Y018900D01*
X002898Y019190D01*
X002937Y019285D01*
X002937Y019498D01*
X002898Y019593D01*
X002898Y019684D01*
X003222Y019684D01*
X003346Y019560D01*
X003346Y017450D01*
X003386Y017355D01*
X003458Y017283D01*
X003458Y017283D01*
X003543Y017198D01*
X003616Y017125D01*
X003711Y017086D01*
X004246Y017086D01*
X004528Y016804D01*
X004528Y015758D01*
X002513Y013744D01*
X002407Y013744D01*
X002407Y014742D01*
X002301Y014847D01*
X001838Y015310D01*
X001874Y015399D01*
X001874Y015588D01*
X001802Y015763D01*
X001669Y015896D01*
X001494Y015968D01*
X001305Y015968D01*
X001131Y015896D01*
X000997Y015763D01*
X000977Y015712D01*
X000948Y015712D01*
X000866Y015630D01*
X000866Y009451D01*
X000948Y009369D01*
X000955Y009369D01*
X000981Y009308D01*
X001120Y009169D01*
X001302Y009094D01*
X001431Y009094D01*
X001890Y008635D01*
X001890Y006773D01*
X001906Y006733D02*
X001774Y006733D01*
X001758Y006749D02*
X001523Y006846D01*
X001269Y006846D01*
X001033Y006749D01*
X000853Y006569D01*
X000756Y006334D01*
X000756Y006079D01*
X000853Y005844D01*
X001033Y005664D01*
X001269Y005566D01*
X001523Y005566D01*
X001758Y005664D01*
X001938Y005844D01*
X002036Y006079D01*
X002036Y006334D01*
X001938Y006569D01*
X001758Y006749D01*
X001852Y006655D02*
X001939Y006655D01*
X001931Y006576D02*
X001980Y006576D01*
X001968Y006498D02*
X002059Y006498D01*
X002000Y006419D02*
X002137Y006419D01*
X002216Y006341D02*
X002033Y006341D01*
X002036Y006262D02*
X002294Y006262D01*
X002373Y006184D02*
X002036Y006184D01*
X002036Y006105D02*
X002451Y006105D01*
X002530Y006027D02*
X002014Y006027D01*
X001982Y005948D02*
X002608Y005948D01*
X002687Y005870D02*
X001949Y005870D01*
X001886Y005791D02*
X002765Y005791D01*
X002844Y005713D02*
X001808Y005713D01*
X001688Y005634D02*
X002922Y005634D01*
X003001Y005556D02*
X000359Y005556D01*
X000359Y005634D02*
X001104Y005634D01*
X000984Y005713D02*
X000359Y005713D01*
X000359Y005791D02*
X000906Y005791D01*
X000843Y005870D02*
X000359Y005870D01*
X000359Y005948D02*
X000810Y005948D01*
X000777Y006027D02*
X000359Y006027D01*
X000359Y006105D02*
X000756Y006105D01*
X000756Y006184D02*
X000359Y006184D01*
X000359Y006262D02*
X000756Y006262D01*
X000759Y006341D02*
X000359Y006341D01*
X000359Y006419D02*
X000791Y006419D01*
X000824Y006498D02*
X000359Y006498D01*
X000359Y006576D02*
X000861Y006576D01*
X000939Y006655D02*
X000359Y006655D01*
X000359Y006733D02*
X001018Y006733D01*
X001186Y006812D02*
X000359Y006812D01*
X000359Y006890D02*
X001890Y006890D01*
X001890Y006969D02*
X000359Y006969D01*
X000359Y007047D02*
X001890Y007047D01*
X001890Y007126D02*
X000359Y007126D01*
X000359Y007204D02*
X001890Y007204D01*
X001890Y007283D02*
X000359Y007283D01*
X000359Y007361D02*
X001890Y007361D01*
X001890Y007440D02*
X000359Y007440D01*
X000359Y007518D02*
X001890Y007518D01*
X001890Y007597D02*
X000359Y007597D01*
X000359Y007675D02*
X001890Y007675D01*
X001890Y007754D02*
X000359Y007754D01*
X000359Y007832D02*
X001890Y007832D01*
X001890Y007911D02*
X000359Y007911D01*
X000359Y007989D02*
X001168Y007989D01*
X001131Y008005D02*
X000997Y008138D01*
X000925Y008313D01*
X000925Y008502D01*
X000997Y008676D01*
X001131Y008810D01*
X001305Y008882D01*
X001494Y008882D01*
X001669Y008810D01*
X001802Y008676D01*
X001874Y008502D01*
X001874Y008313D01*
X001802Y008138D01*
X001669Y008005D01*
X001494Y007932D01*
X001305Y007932D01*
X001131Y008005D01*
X001068Y008068D02*
X000359Y008068D01*
X000359Y008146D02*
X000994Y008146D01*
X000962Y008225D02*
X000359Y008225D01*
X000359Y008303D02*
X000929Y008303D01*
X000925Y008382D02*
X000359Y008382D01*
X000359Y008460D02*
X000925Y008460D01*
X000941Y008539D02*
X000359Y008539D01*
X000359Y008617D02*
X000973Y008617D01*
X001017Y008696D02*
X000359Y008696D01*
X000359Y008774D02*
X001096Y008774D01*
X001236Y008853D02*
X000359Y008853D01*
X000359Y008931D02*
X001594Y008931D01*
X001564Y008853D02*
X001672Y008853D01*
X001704Y008774D02*
X001751Y008774D01*
X001782Y008696D02*
X001829Y008696D01*
X001826Y008617D02*
X001890Y008617D01*
X001890Y008539D02*
X001859Y008539D01*
X001874Y008460D02*
X001890Y008460D01*
X001890Y008382D02*
X001874Y008382D01*
X001871Y008303D02*
X001890Y008303D01*
X001890Y008225D02*
X001838Y008225D01*
X001806Y008146D02*
X001890Y008146D01*
X001890Y008068D02*
X001732Y008068D01*
X001632Y007989D02*
X001890Y007989D01*
X001515Y009010D02*
X000359Y009010D01*
X000359Y009088D02*
X001437Y009088D01*
X001125Y009167D02*
X000359Y009167D01*
X000359Y009245D02*
X001044Y009245D01*
X000974Y009324D02*
X000359Y009324D01*
X000359Y009402D02*
X000915Y009402D01*
X000866Y009481D02*
X000359Y009481D01*
X000359Y009559D02*
X000866Y009559D01*
X000866Y009638D02*
X000359Y009638D01*
X000359Y009716D02*
X000866Y009716D01*
X000866Y009795D02*
X000359Y009795D01*
X000359Y009873D02*
X000866Y009873D01*
X000866Y009952D02*
X000359Y009952D01*
X000359Y010030D02*
X000866Y010030D01*
X000866Y010109D02*
X000359Y010109D01*
X000359Y010187D02*
X000866Y010187D01*
X000866Y010266D02*
X000359Y010266D01*
X000359Y010344D02*
X000866Y010344D01*
X000866Y010423D02*
X000359Y010423D01*
X000359Y010501D02*
X000866Y010501D01*
X000866Y010580D02*
X000359Y010580D01*
X000359Y010658D02*
X000866Y010658D01*
X000866Y010737D02*
X000359Y010737D01*
X000359Y010815D02*
X000866Y010815D01*
X000866Y010894D02*
X000359Y010894D01*
X000359Y010972D02*
X000866Y010972D01*
X000866Y011051D02*
X000359Y011051D01*
X000359Y011129D02*
X000866Y011129D01*
X000866Y011208D02*
X000359Y011208D01*
X000359Y011286D02*
X000866Y011286D01*
X000866Y011365D02*
X000359Y011365D01*
X000359Y011443D02*
X000866Y011443D01*
X000866Y011522D02*
X000359Y011522D01*
X000359Y011600D02*
X000866Y011600D01*
X000866Y011679D02*
X000359Y011679D01*
X000359Y011757D02*
X000866Y011757D01*
X000866Y011836D02*
X000359Y011836D01*
X000359Y011914D02*
X000866Y011914D01*
X000866Y011993D02*
X000359Y011993D01*
X000359Y012071D02*
X000866Y012071D01*
X000866Y012150D02*
X000359Y012150D01*
X000359Y012228D02*
X000866Y012228D01*
X000866Y012307D02*
X000359Y012307D01*
X000359Y012385D02*
X000866Y012385D01*
X000866Y012464D02*
X000359Y012464D01*
X000359Y012542D02*
X000866Y012542D01*
X000866Y012621D02*
X000359Y012621D01*
X000359Y012699D02*
X000866Y012699D01*
X000866Y012778D02*
X000359Y012778D01*
X000359Y012856D02*
X000866Y012856D01*
X000866Y012935D02*
X000359Y012935D01*
X000359Y013013D02*
X000866Y013013D01*
X000866Y013092D02*
X000359Y013092D01*
X000359Y013170D02*
X000866Y013170D01*
X000866Y013249D02*
X000359Y013249D01*
X000359Y013327D02*
X000866Y013327D01*
X000866Y013406D02*
X000359Y013406D01*
X000359Y013484D02*
X000866Y013484D01*
X000866Y013563D02*
X000359Y013563D01*
X000359Y013641D02*
X000866Y013641D01*
X000866Y013720D02*
X000359Y013720D01*
X000359Y013798D02*
X000866Y013798D01*
X000866Y013877D02*
X000359Y013877D01*
X000359Y013955D02*
X000866Y013955D01*
X000866Y014034D02*
X000359Y014034D01*
X000359Y014112D02*
X000866Y014112D01*
X000866Y014191D02*
X000359Y014191D01*
X000359Y014269D02*
X000866Y014269D01*
X000866Y014348D02*
X000359Y014348D01*
X000359Y014426D02*
X000866Y014426D01*
X000866Y014505D02*
X000359Y014505D01*
X000359Y014583D02*
X000866Y014583D01*
X000866Y014662D02*
X000359Y014662D01*
X000359Y014740D02*
X000866Y014740D01*
X000866Y014819D02*
X000359Y014819D01*
X000359Y014897D02*
X000866Y014897D01*
X000866Y014976D02*
X000359Y014976D01*
X000359Y015054D02*
X000866Y015054D01*
X000866Y015133D02*
X000359Y015133D01*
X000359Y015211D02*
X000866Y015211D01*
X000866Y015290D02*
X000359Y015290D01*
X000359Y015368D02*
X000866Y015368D01*
X000866Y015447D02*
X000359Y015447D01*
X000359Y015525D02*
X000866Y015525D01*
X000866Y015604D02*
X000359Y015604D01*
X000359Y015682D02*
X000918Y015682D01*
X000997Y015761D02*
X000359Y015761D01*
X000359Y015839D02*
X001074Y015839D01*
X001184Y015918D02*
X000359Y015918D01*
X000359Y015996D02*
X004528Y015996D01*
X004528Y015918D02*
X001616Y015918D01*
X001725Y015839D02*
X004528Y015839D01*
X004528Y015761D02*
X001803Y015761D01*
X001835Y015682D02*
X004452Y015682D01*
X004373Y015604D02*
X001868Y015604D01*
X001874Y015525D02*
X004295Y015525D01*
X004216Y015447D02*
X001874Y015447D01*
X001862Y015368D02*
X004138Y015368D01*
X004059Y015290D02*
X001858Y015290D01*
X001937Y015211D02*
X003981Y015211D01*
X003902Y015133D02*
X002015Y015133D01*
X002094Y015054D02*
X003824Y015054D01*
X003745Y014976D02*
X002172Y014976D01*
X002251Y014897D02*
X003667Y014897D01*
X003588Y014819D02*
X002329Y014819D01*
X002407Y014740D02*
X003510Y014740D01*
X003431Y014662D02*
X002407Y014662D01*
X002407Y014583D02*
X003353Y014583D01*
X003274Y014505D02*
X002407Y014505D01*
X002407Y014426D02*
X003196Y014426D01*
X003117Y014348D02*
X002407Y014348D01*
X002407Y014269D02*
X003039Y014269D01*
X002960Y014191D02*
X002407Y014191D01*
X002407Y014112D02*
X002882Y014112D01*
X002803Y014034D02*
X002407Y014034D01*
X002407Y013955D02*
X002725Y013955D01*
X002646Y013877D02*
X002407Y013877D01*
X002407Y013798D02*
X002568Y013798D01*
X002513Y013744D02*
X002513Y013744D01*
X002918Y013418D02*
X005004Y015505D01*
X005044Y015600D01*
X005044Y016962D01*
X005004Y017057D01*
X004932Y017130D01*
X004499Y017563D01*
X004404Y017602D01*
X003869Y017602D01*
X003863Y017609D01*
X003863Y019718D01*
X003844Y019764D01*
X003844Y020169D01*
X003878Y020135D01*
X003878Y018104D01*
X003917Y018009D01*
X003917Y017818D01*
X003999Y017736D01*
X004163Y017736D01*
X004305Y017677D01*
X004518Y017677D01*
X004660Y017736D01*
X004824Y017736D01*
X004906Y017818D01*
X004906Y018009D01*
X004945Y018104D01*
X004945Y019166D01*
X004982Y019076D01*
X005061Y018998D01*
X005163Y018955D01*
X005274Y018955D01*
X005372Y018995D01*
X005767Y018995D01*
X005767Y016946D01*
X007381Y015332D01*
X007381Y013492D01*
X006437Y012584D01*
X006435Y012584D01*
X006378Y012526D01*
X006320Y012470D01*
X006320Y012468D01*
X006041Y012190D01*
X005774Y012190D01*
X005576Y012388D01*
X005459Y012505D01*
X004348Y012505D01*
X003561Y011717D01*
X003444Y011600D01*
X003444Y010962D01*
X003561Y010845D01*
X003601Y010805D01*
X003719Y010687D01*
X003776Y010687D01*
X003467Y010379D01*
X003431Y010379D01*
X003329Y010336D01*
X003250Y010258D01*
X003232Y010215D01*
X002485Y010962D01*
X002485Y011219D01*
X002502Y011202D01*
X002604Y011160D01*
X002715Y011160D01*
X002818Y011202D01*
X002896Y011281D01*
X002938Y011383D01*
X002938Y011494D01*
X002918Y011544D01*
X002918Y013418D01*
X002918Y013406D02*
X007291Y013406D01*
X007210Y013327D02*
X002918Y013327D01*
X002918Y013249D02*
X007128Y013249D01*
X007047Y013170D02*
X002918Y013170D01*
X002918Y013092D02*
X006965Y013092D01*
X006884Y013013D02*
X002918Y013013D01*
X002918Y012935D02*
X006802Y012935D01*
X006721Y012856D02*
X002918Y012856D01*
X002918Y012778D02*
X006639Y012778D01*
X006558Y012699D02*
X002918Y012699D01*
X002918Y012621D02*
X006476Y012621D01*
X006394Y012542D02*
X002918Y012542D01*
X002918Y012464D02*
X004308Y012464D01*
X004229Y012385D02*
X002918Y012385D01*
X002918Y012307D02*
X004151Y012307D01*
X004072Y012228D02*
X002918Y012228D01*
X002918Y012150D02*
X003994Y012150D01*
X003915Y012071D02*
X002918Y012071D01*
X002918Y011993D02*
X003837Y011993D01*
X003758Y011914D02*
X002918Y011914D01*
X002918Y011836D02*
X003680Y011836D01*
X003601Y011757D02*
X002918Y011757D01*
X002918Y011679D02*
X003523Y011679D01*
X003444Y011600D02*
X002918Y011600D01*
X002927Y011522D02*
X003444Y011522D01*
X003444Y011443D02*
X002938Y011443D01*
X002931Y011365D02*
X003444Y011365D01*
X003444Y011286D02*
X002898Y011286D01*
X002823Y011208D02*
X003444Y011208D01*
X003444Y011129D02*
X002485Y011129D01*
X002485Y011051D02*
X003444Y011051D01*
X003444Y010972D02*
X002485Y010972D01*
X002553Y010894D02*
X003512Y010894D01*
X003561Y010845D02*
X003561Y010845D01*
X003591Y010815D02*
X002632Y010815D01*
X002710Y010737D02*
X003669Y010737D01*
X003601Y010805D02*
X003601Y010805D01*
X003716Y010972D02*
X004033Y010972D01*
X003954Y010894D02*
X003795Y010894D01*
X003801Y010887D02*
X003644Y011045D01*
X003644Y011517D01*
X004431Y012305D01*
X005376Y012305D01*
X005691Y011990D01*
X006124Y011990D01*
X006518Y012384D01*
X007581Y013407D01*
X007581Y014188D01*
X007665Y014503D01*
X007665Y014909D01*
X007581Y015224D01*
X007581Y015415D01*
X007377Y015619D01*
X007357Y015653D01*
X007071Y015940D01*
X007037Y015959D01*
X005967Y017029D01*
X005967Y020494D01*
X006242Y020769D01*
X006242Y021399D01*
X005888Y021754D01*
X005101Y021754D01*
X004983Y021872D01*
X004983Y022147D01*
X005061Y022226D01*
X006085Y022226D01*
X006636Y022777D01*
X008132Y022777D01*
X008149Y022760D01*
X008149Y021101D01*
X008053Y021006D01*
X007266Y021006D01*
X006400Y020139D01*
X006400Y019992D01*
X006378Y019969D01*
X006378Y019601D01*
X006400Y019578D01*
X006400Y019440D01*
X006378Y019418D01*
X006378Y019050D01*
X006400Y019027D01*
X006400Y017226D01*
X006992Y016633D01*
X007013Y016584D01*
X007097Y016500D01*
X007146Y016480D01*
X007975Y015651D01*
X007975Y013288D01*
X007924Y013267D01*
X007839Y013183D01*
X007794Y013073D01*
X007794Y012998D01*
X007157Y012386D01*
X007097Y012361D01*
X007013Y012277D01*
X006992Y012228D01*
X006990Y012226D01*
X006990Y012223D01*
X006967Y012167D01*
X006967Y012048D01*
X006990Y011993D01*
X006127Y011993D01*
X006206Y012071D02*
X006967Y012071D01*
X006967Y012150D02*
X006284Y012150D01*
X006363Y012228D02*
X006993Y012228D01*
X007043Y012307D02*
X006441Y012307D01*
X006520Y012385D02*
X007155Y012385D01*
X007238Y012464D02*
X006601Y012464D01*
X006683Y012542D02*
X007320Y012542D01*
X007402Y012621D02*
X006765Y012621D01*
X006846Y012699D02*
X007484Y012699D01*
X007565Y012778D02*
X006928Y012778D01*
X007009Y012856D02*
X007647Y012856D01*
X007729Y012935D02*
X007091Y012935D01*
X007172Y013013D02*
X007794Y013013D01*
X007802Y013092D02*
X007254Y013092D01*
X007335Y013170D02*
X007834Y013170D01*
X007906Y013249D02*
X007417Y013249D01*
X007498Y013327D02*
X007975Y013327D01*
X007975Y013406D02*
X007580Y013406D01*
X007581Y013484D02*
X007975Y013484D01*
X007975Y013563D02*
X007581Y013563D01*
X007581Y013641D02*
X007975Y013641D01*
X007975Y013720D02*
X007581Y013720D01*
X007581Y013798D02*
X007975Y013798D01*
X007975Y013877D02*
X007581Y013877D01*
X007581Y013955D02*
X007975Y013955D01*
X007975Y014034D02*
X007581Y014034D01*
X007581Y014112D02*
X007975Y014112D01*
X007975Y014191D02*
X007582Y014191D01*
X007603Y014269D02*
X007975Y014269D01*
X007975Y014348D02*
X007624Y014348D01*
X007645Y014426D02*
X007975Y014426D01*
X007975Y014505D02*
X007665Y014505D01*
X007665Y014583D02*
X007975Y014583D01*
X007975Y014662D02*
X007665Y014662D01*
X007665Y014740D02*
X007975Y014740D01*
X007975Y014819D02*
X007665Y014819D01*
X007665Y014897D02*
X007975Y014897D01*
X007975Y014976D02*
X007647Y014976D01*
X007626Y015054D02*
X007975Y015054D01*
X007975Y015133D02*
X007605Y015133D01*
X007584Y015211D02*
X007975Y015211D01*
X007975Y015290D02*
X007581Y015290D01*
X007581Y015368D02*
X007975Y015368D01*
X007975Y015447D02*
X007549Y015447D01*
X007470Y015525D02*
X007975Y015525D01*
X007975Y015604D02*
X007392Y015604D01*
X007328Y015682D02*
X007943Y015682D01*
X007865Y015761D02*
X007249Y015761D01*
X007171Y015839D02*
X007786Y015839D01*
X007708Y015918D02*
X007092Y015918D01*
X006999Y015996D02*
X007629Y015996D01*
X007551Y016075D02*
X006921Y016075D01*
X006842Y016153D02*
X007472Y016153D01*
X007394Y016232D02*
X006764Y016232D01*
X006685Y016310D02*
X007315Y016310D01*
X007237Y016389D02*
X006607Y016389D01*
X006528Y016467D02*
X007158Y016467D01*
X007051Y016546D02*
X006450Y016546D01*
X006371Y016624D02*
X006996Y016624D01*
X006923Y016703D02*
X006293Y016703D01*
X006214Y016781D02*
X006844Y016781D01*
X006766Y016860D02*
X006136Y016860D01*
X006057Y016938D02*
X006687Y016938D01*
X006609Y017017D02*
X005979Y017017D01*
X005967Y017095D02*
X006530Y017095D01*
X006452Y017174D02*
X005967Y017174D01*
X005967Y017252D02*
X006400Y017252D01*
X006400Y017331D02*
X005967Y017331D01*
X005967Y017409D02*
X006400Y017409D01*
X006400Y017488D02*
X005967Y017488D01*
X005967Y017566D02*
X006400Y017566D01*
X006400Y017645D02*
X005967Y017645D01*
X005967Y017723D02*
X006400Y017723D01*
X006400Y017802D02*
X005967Y017802D01*
X005967Y017880D02*
X006400Y017880D01*
X006400Y017959D02*
X005967Y017959D01*
X005967Y018037D02*
X006400Y018037D01*
X006400Y018116D02*
X005967Y018116D01*
X005967Y018194D02*
X006400Y018194D01*
X006400Y018273D02*
X005967Y018273D01*
X005967Y018351D02*
X006400Y018351D01*
X006400Y018430D02*
X005967Y018430D01*
X005967Y018508D02*
X006400Y018508D01*
X006400Y018587D02*
X005967Y018587D01*
X005967Y018665D02*
X006400Y018665D01*
X006400Y018744D02*
X005967Y018744D01*
X005967Y018822D02*
X006400Y018822D01*
X006400Y018901D02*
X005967Y018901D01*
X005967Y018979D02*
X006400Y018979D01*
X006378Y019058D02*
X005967Y019058D01*
X005967Y019136D02*
X006378Y019136D01*
X006378Y019215D02*
X005967Y019215D01*
X005967Y019293D02*
X006378Y019293D01*
X006378Y019372D02*
X005967Y019372D01*
X005967Y019450D02*
X006400Y019450D01*
X006400Y019529D02*
X005967Y019529D01*
X005967Y019607D02*
X006378Y019607D01*
X006378Y019686D02*
X005967Y019686D01*
X005967Y019764D02*
X006378Y019764D01*
X006378Y019843D02*
X005967Y019843D01*
X005967Y019921D02*
X006378Y019921D01*
X006400Y020000D02*
X005967Y020000D01*
X005967Y020078D02*
X006400Y020078D01*
X006417Y020157D02*
X005967Y020157D01*
X005967Y020235D02*
X006496Y020235D01*
X006574Y020314D02*
X005967Y020314D01*
X005967Y020392D02*
X006653Y020392D01*
X006731Y020471D02*
X005967Y020471D01*
X006023Y020549D02*
X006810Y020549D01*
X006888Y020628D02*
X006101Y020628D01*
X006180Y020706D02*
X006967Y020706D01*
X007045Y020785D02*
X006242Y020785D01*
X006242Y020863D02*
X007124Y020863D01*
X007202Y020942D02*
X006242Y020942D01*
X006242Y021020D02*
X008068Y021020D01*
X008147Y021099D02*
X006242Y021099D01*
X006242Y021177D02*
X008149Y021177D01*
X008149Y021256D02*
X006242Y021256D01*
X006242Y021334D02*
X008149Y021334D01*
X008149Y021413D02*
X006229Y021413D01*
X006150Y021491D02*
X008149Y021491D01*
X008149Y021570D02*
X006072Y021570D01*
X005993Y021648D02*
X008149Y021648D01*
X008149Y021727D02*
X005915Y021727D01*
X005731Y021478D02*
X005927Y021281D01*
X005927Y020769D01*
X005731Y020572D01*
X004983Y020572D01*
X004883Y020666D01*
X004881Y020670D01*
X004469Y021081D01*
X004412Y021105D01*
X004392Y021124D01*
X004367Y021124D01*
X004266Y021166D01*
X004046Y021166D01*
X003944Y021124D01*
X003841Y021124D01*
X003644Y020927D01*
X003644Y020823D01*
X003602Y020722D01*
X003602Y020502D01*
X003644Y020401D01*
X003644Y019746D01*
X003250Y020139D01*
X003162Y020139D01*
X003080Y020221D01*
X001796Y020221D01*
X001796Y020245D01*
X001715Y020326D01*
X001715Y021517D01*
X002423Y022226D01*
X002423Y024903D01*
X004038Y024903D01*
X004668Y024116D01*
X006636Y024116D01*
X006715Y024037D01*
X006715Y023801D01*
X006636Y023722D01*
X003880Y023722D01*
X003565Y023328D01*
X003565Y022187D01*
X003683Y022069D01*
X004549Y022069D01*
X004983Y021478D01*
X005731Y021478D01*
X005796Y021413D02*
X001715Y021413D01*
X001715Y021491D02*
X004973Y021491D01*
X004915Y021570D02*
X001767Y021570D01*
X001846Y021648D02*
X004857Y021648D01*
X004800Y021727D02*
X001924Y021727D01*
X002003Y021805D02*
X004742Y021805D01*
X004685Y021884D02*
X002081Y021884D01*
X002160Y021962D02*
X004627Y021962D01*
X004570Y022041D02*
X002238Y022041D01*
X002317Y022119D02*
X003632Y022119D01*
X003565Y022198D02*
X002395Y022198D01*
X002423Y022276D02*
X003565Y022276D01*
X003565Y022355D02*
X002423Y022355D01*
X002423Y022433D02*
X003565Y022433D01*
X003565Y022512D02*
X002423Y022512D01*
X002423Y022590D02*
X003565Y022590D01*
X003565Y022669D02*
X002423Y022669D01*
X002423Y022747D02*
X003565Y022747D01*
X003565Y022826D02*
X002423Y022826D01*
X002423Y022904D02*
X003565Y022904D01*
X003565Y022983D02*
X002423Y022983D01*
X002423Y023061D02*
X003565Y023061D01*
X003565Y023140D02*
X002423Y023140D01*
X002423Y023218D02*
X003565Y023218D01*
X003565Y023297D02*
X002423Y023297D01*
X002423Y023375D02*
X003603Y023375D01*
X003666Y023454D02*
X002423Y023454D01*
X002423Y023532D02*
X003728Y023532D01*
X003791Y023611D02*
X002423Y023611D01*
X002423Y023689D02*
X003854Y023689D01*
X003922Y023454D02*
X007302Y023454D01*
X007302Y023532D02*
X006729Y023532D01*
X006808Y023611D02*
X007302Y023611D01*
X007302Y023689D02*
X006886Y023689D01*
X006915Y023768D02*
X007302Y023768D01*
X007290Y023846D02*
X006915Y023846D01*
X006915Y023925D02*
X007245Y023925D01*
X007199Y024003D02*
X006915Y024003D01*
X006915Y024082D02*
X007154Y024082D01*
X007108Y024160D02*
X006874Y024160D01*
X006796Y024239D02*
X007063Y024239D01*
X007018Y024317D02*
X004762Y024317D01*
X004700Y024396D02*
X006972Y024396D01*
X007158Y024474D02*
X008211Y024474D01*
X008211Y024396D02*
X007203Y024396D01*
X007249Y024317D02*
X008211Y024317D01*
X008211Y024239D02*
X007294Y024239D01*
X007340Y024160D02*
X008211Y024160D01*
X008211Y024082D02*
X007385Y024082D01*
X007430Y024003D02*
X008211Y024003D01*
X008211Y023925D02*
X007476Y023925D01*
X007502Y023880D02*
X007069Y024628D01*
X005061Y024628D01*
X005061Y025061D01*
X005967Y025061D01*
X006439Y025572D01*
X008211Y025572D01*
X008211Y023053D01*
X007542Y023053D01*
X007502Y023092D01*
X007502Y023880D01*
X007502Y023846D02*
X008211Y023846D01*
X008211Y023768D02*
X007502Y023768D01*
X007502Y023689D02*
X008211Y023689D01*
X008211Y023611D02*
X007502Y023611D01*
X007502Y023532D02*
X008211Y023532D01*
X008211Y023454D02*
X007502Y023454D01*
X007502Y023375D02*
X008211Y023375D01*
X008211Y023297D02*
X007502Y023297D01*
X007502Y023218D02*
X008211Y023218D01*
X008211Y023140D02*
X007502Y023140D01*
X007533Y023061D02*
X008211Y023061D01*
X008250Y023053D02*
X007738Y024824D01*
X008211Y024788D02*
X005061Y024788D01*
X005061Y024710D02*
X008211Y024710D01*
X008211Y024631D02*
X005061Y024631D01*
X004861Y024631D02*
X004511Y024631D01*
X004574Y024553D02*
X004861Y024553D01*
X004932Y024474D02*
X004637Y024474D01*
X004506Y024317D02*
X002423Y024317D01*
X002423Y024239D02*
X004569Y024239D01*
X004632Y024160D02*
X002423Y024160D01*
X002423Y024082D02*
X006670Y024082D01*
X006715Y024003D02*
X002423Y024003D01*
X002423Y023925D02*
X006715Y023925D01*
X006715Y023846D02*
X002423Y023846D01*
X002423Y023768D02*
X006682Y023768D01*
X006480Y022904D02*
X003765Y022904D01*
X003765Y022826D02*
X006402Y022826D01*
X006436Y022860D02*
X006436Y022860D01*
X006323Y022747D02*
X003765Y022747D01*
X003765Y022669D02*
X006245Y022669D01*
X006166Y022590D02*
X003765Y022590D01*
X003765Y022512D02*
X006088Y022512D01*
X006009Y022433D02*
X003765Y022433D01*
X003765Y022355D02*
X004907Y022355D01*
X004829Y022276D02*
X004513Y022276D01*
X004495Y022276D02*
X003765Y022276D01*
X003765Y022983D02*
X007329Y022983D01*
X007302Y023061D02*
X003765Y023061D01*
X003765Y023140D02*
X007302Y023140D01*
X007302Y023218D02*
X003765Y023218D01*
X003796Y023297D02*
X007302Y023297D01*
X007302Y023375D02*
X003859Y023375D01*
X003171Y023840D02*
X003841Y024509D01*
X004129Y024788D02*
X002423Y024788D01*
X002423Y024710D02*
X004192Y024710D01*
X004255Y024631D02*
X002423Y024631D01*
X002423Y024553D02*
X004318Y024553D01*
X004381Y024474D02*
X002423Y024474D01*
X002423Y024396D02*
X004443Y024396D01*
X004448Y024710D02*
X004861Y024710D01*
X004861Y024788D02*
X004386Y024788D01*
X004323Y024867D02*
X004861Y024867D01*
X004861Y024945D02*
X004260Y024945D01*
X004200Y025024D02*
X004861Y025024D01*
X004861Y025102D02*
X004121Y025102D01*
X004067Y024867D02*
X002423Y024867D01*
X002340Y025102D02*
X000359Y025102D01*
X000359Y025024D02*
X002261Y025024D01*
X002223Y024945D02*
X000359Y024945D01*
X000359Y024867D02*
X002223Y024867D01*
X002223Y024788D02*
X000359Y024788D01*
X000359Y024710D02*
X002223Y024710D01*
X002223Y024631D02*
X000359Y024631D01*
X000359Y024553D02*
X002223Y024553D01*
X002223Y024474D02*
X000359Y024474D01*
X000359Y024396D02*
X002223Y024396D01*
X002223Y024317D02*
X000359Y024317D01*
X000359Y024239D02*
X002223Y024239D01*
X002223Y024160D02*
X000359Y024160D01*
X000359Y024082D02*
X002223Y024082D01*
X002223Y024003D02*
X000359Y024003D01*
X000359Y023925D02*
X002223Y023925D01*
X002223Y023846D02*
X000359Y023846D01*
X000359Y023768D02*
X002223Y023768D01*
X002223Y023689D02*
X000359Y023689D01*
X000359Y023611D02*
X002223Y023611D01*
X002223Y023532D02*
X000359Y023532D01*
X000359Y023454D02*
X002223Y023454D01*
X002223Y023375D02*
X000359Y023375D01*
X000359Y023297D02*
X002223Y023297D01*
X002223Y023218D02*
X000359Y023218D01*
X000359Y023140D02*
X002223Y023140D01*
X002223Y023061D02*
X000359Y023061D01*
X000359Y022983D02*
X002223Y022983D01*
X002223Y022904D02*
X000359Y022904D01*
X000359Y022826D02*
X002223Y022826D01*
X002223Y022747D02*
X000359Y022747D01*
X000359Y022669D02*
X002223Y022669D01*
X002223Y022590D02*
X000359Y022590D01*
X000359Y022512D02*
X002223Y022512D01*
X002223Y022433D02*
X000359Y022433D01*
X000359Y022355D02*
X002223Y022355D01*
X002191Y022276D02*
X000359Y022276D01*
X000359Y022198D02*
X002113Y022198D01*
X002034Y022119D02*
X000359Y022119D01*
X000359Y022041D02*
X001956Y022041D01*
X001877Y021962D02*
X000359Y021962D01*
X000359Y021884D02*
X001799Y021884D01*
X001720Y021805D02*
X000359Y021805D01*
X000359Y021727D02*
X001642Y021727D01*
X001563Y021648D02*
X000359Y021648D01*
X000359Y021570D02*
X001515Y021570D01*
X001515Y021491D02*
X000359Y021491D01*
X000359Y021413D02*
X001515Y021413D01*
X001515Y021334D02*
X000359Y021334D01*
X000359Y021256D02*
X001515Y021256D01*
X001515Y021177D02*
X000359Y021177D01*
X000359Y021099D02*
X001515Y021099D01*
X001515Y021020D02*
X000359Y021020D01*
X000359Y020942D02*
X001515Y020942D01*
X001515Y020863D02*
X000359Y020863D01*
X000359Y020785D02*
X001515Y020785D01*
X001515Y020706D02*
X000359Y020706D01*
X000359Y020628D02*
X001515Y020628D01*
X001515Y020549D02*
X000359Y020549D01*
X000359Y020471D02*
X001515Y020471D01*
X001515Y020392D02*
X000359Y020392D01*
X000359Y020314D02*
X001515Y020314D01*
X001457Y020235D02*
X000359Y020235D01*
X000359Y020157D02*
X001457Y020157D01*
X001457Y020078D02*
X000359Y020078D01*
X000359Y020000D02*
X001457Y020000D01*
X001457Y019921D02*
X000359Y019921D01*
X000359Y019843D02*
X001451Y019843D01*
X001373Y019764D02*
X000359Y019764D01*
X000359Y019686D02*
X001294Y019686D01*
X001216Y019607D02*
X000359Y019607D01*
X000359Y019529D02*
X001137Y019529D01*
X001059Y019450D02*
X000359Y019450D01*
X000359Y019372D02*
X000980Y019372D01*
X000928Y019293D02*
X000359Y019293D01*
X000359Y019215D02*
X000896Y019215D01*
X000866Y019136D02*
X000359Y019136D01*
X000359Y019058D02*
X000866Y019058D01*
X000866Y018979D02*
X000359Y018979D01*
X000359Y018901D02*
X000879Y018901D01*
X000911Y018822D02*
X000359Y018822D01*
X000359Y018744D02*
X000944Y018744D01*
X001017Y018665D02*
X000359Y018665D01*
X000359Y018587D02*
X001095Y018587D01*
X001281Y018508D02*
X000359Y018508D01*
X000359Y018430D02*
X003346Y018430D01*
X003346Y018508D02*
X001518Y018508D01*
X001705Y018587D02*
X003346Y018587D01*
X003346Y018665D02*
X001783Y018665D01*
X001862Y018744D02*
X003346Y018744D01*
X003346Y018822D02*
X002820Y018822D01*
X002898Y018901D02*
X003346Y018901D01*
X003346Y018979D02*
X002898Y018979D01*
X002898Y019058D02*
X003346Y019058D01*
X003346Y019136D02*
X002898Y019136D01*
X002908Y019215D02*
X003346Y019215D01*
X003346Y019293D02*
X002937Y019293D01*
X002937Y019372D02*
X003346Y019372D01*
X003346Y019450D02*
X002937Y019450D01*
X002924Y019529D02*
X003346Y019529D01*
X003299Y019607D02*
X002898Y019607D01*
X003144Y020157D02*
X003644Y020157D01*
X003644Y020235D02*
X001796Y020235D01*
X001727Y020314D02*
X003644Y020314D01*
X003644Y020392D02*
X001715Y020392D01*
X001715Y020471D02*
X003615Y020471D01*
X003602Y020549D02*
X001715Y020549D01*
X001715Y020628D02*
X003602Y020628D01*
X003602Y020706D02*
X001715Y020706D01*
X001715Y020785D02*
X003628Y020785D01*
X003644Y020863D02*
X001715Y020863D01*
X001715Y020942D02*
X003659Y020942D01*
X003738Y021020D02*
X001715Y021020D01*
X001715Y021099D02*
X003816Y021099D01*
X003844Y020157D02*
X003856Y020157D01*
X003844Y020078D02*
X003878Y020078D01*
X003878Y020000D02*
X003844Y020000D01*
X003844Y019921D02*
X003878Y019921D01*
X003878Y019843D02*
X003844Y019843D01*
X003844Y019764D02*
X003878Y019764D01*
X003878Y019686D02*
X003863Y019686D01*
X003863Y019607D02*
X003878Y019607D01*
X003878Y019529D02*
X003863Y019529D01*
X003863Y019450D02*
X003878Y019450D01*
X003878Y019372D02*
X003863Y019372D01*
X003863Y019293D02*
X003878Y019293D01*
X003878Y019215D02*
X003863Y019215D01*
X003863Y019136D02*
X003878Y019136D01*
X003878Y019058D02*
X003863Y019058D01*
X003863Y018979D02*
X003878Y018979D01*
X003878Y018901D02*
X003863Y018901D01*
X003863Y018822D02*
X003878Y018822D01*
X003878Y018744D02*
X003863Y018744D01*
X003863Y018665D02*
X003878Y018665D01*
X003878Y018587D02*
X003863Y018587D01*
X003863Y018508D02*
X003878Y018508D01*
X003878Y018430D02*
X003863Y018430D01*
X003863Y018351D02*
X003878Y018351D01*
X003878Y018273D02*
X003863Y018273D01*
X003863Y018194D02*
X003878Y018194D01*
X003878Y018116D02*
X003863Y018116D01*
X003863Y018037D02*
X003906Y018037D01*
X003917Y017959D02*
X003863Y017959D01*
X003863Y017880D02*
X003917Y017880D01*
X003933Y017802D02*
X003863Y017802D01*
X003863Y017723D02*
X004192Y017723D01*
X004490Y017566D02*
X005767Y017566D01*
X005767Y017488D02*
X004574Y017488D01*
X004652Y017409D02*
X005767Y017409D01*
X005767Y017331D02*
X004731Y017331D01*
X004809Y017252D02*
X005767Y017252D01*
X005767Y017174D02*
X004888Y017174D01*
X004966Y017095D02*
X005767Y017095D01*
X005767Y017017D02*
X005021Y017017D01*
X005044Y016938D02*
X005775Y016938D01*
X005853Y016860D02*
X005044Y016860D01*
X005044Y016781D02*
X005932Y016781D01*
X006010Y016703D02*
X005044Y016703D01*
X005044Y016624D02*
X006089Y016624D01*
X006167Y016546D02*
X005044Y016546D01*
X005044Y016467D02*
X006246Y016467D01*
X006324Y016389D02*
X005044Y016389D01*
X005044Y016310D02*
X006403Y016310D01*
X006481Y016232D02*
X005044Y016232D01*
X005044Y016153D02*
X006560Y016153D01*
X006638Y016075D02*
X005044Y016075D01*
X005044Y015996D02*
X006717Y015996D01*
X006795Y015918D02*
X005044Y015918D01*
X005044Y015839D02*
X006874Y015839D01*
X006952Y015761D02*
X005044Y015761D01*
X005044Y015682D02*
X007031Y015682D01*
X007109Y015604D02*
X005044Y015604D01*
X005013Y015525D02*
X007188Y015525D01*
X007266Y015447D02*
X004946Y015447D01*
X004868Y015368D02*
X007345Y015368D01*
X007381Y015290D02*
X004789Y015290D01*
X004711Y015211D02*
X007381Y015211D01*
X007381Y015133D02*
X004632Y015133D01*
X004554Y015054D02*
X007381Y015054D01*
X007381Y014976D02*
X004475Y014976D01*
X004397Y014897D02*
X007381Y014897D01*
X007381Y014819D02*
X004318Y014819D01*
X004240Y014740D02*
X007381Y014740D01*
X007381Y014662D02*
X004161Y014662D01*
X004083Y014583D02*
X007381Y014583D01*
X007381Y014505D02*
X004004Y014505D01*
X003926Y014426D02*
X007381Y014426D01*
X007381Y014348D02*
X003847Y014348D01*
X003769Y014269D02*
X007381Y014269D01*
X007381Y014191D02*
X003690Y014191D01*
X003612Y014112D02*
X007381Y014112D01*
X007381Y014034D02*
X003533Y014034D01*
X003455Y013955D02*
X007381Y013955D01*
X007381Y013877D02*
X003376Y013877D01*
X003298Y013798D02*
X007381Y013798D01*
X007381Y013720D02*
X003219Y013720D01*
X003141Y013641D02*
X007381Y013641D01*
X007381Y013563D02*
X003062Y013563D01*
X002984Y013484D02*
X007373Y013484D01*
X007772Y012699D02*
X009173Y012699D01*
X009173Y012621D02*
X007691Y012621D01*
X007609Y012542D02*
X009173Y012542D01*
X009173Y012778D02*
X008881Y012778D01*
X008959Y012856D02*
X009173Y012856D01*
X009216Y012935D02*
X008992Y012935D01*
X009001Y013013D02*
X009295Y013013D01*
X009373Y013092D02*
X008992Y013092D01*
X008959Y013170D02*
X009452Y013170D01*
X009589Y013053D02*
X009353Y012817D01*
X009353Y012088D01*
X009234Y011635D02*
X009353Y011517D01*
X009353Y010887D01*
X009392Y010848D01*
X009392Y010218D01*
X009195Y010021D01*
X009195Y009588D01*
X009105Y009324D02*
X008903Y009324D01*
X008903Y009369D02*
X009020Y009369D01*
X009037Y009352D01*
X009140Y009309D01*
X009251Y009309D01*
X009353Y009352D01*
X009431Y009430D01*
X009474Y009533D01*
X009474Y009644D01*
X009431Y009746D01*
X009375Y009802D01*
X009375Y009947D01*
X009389Y009960D01*
X009389Y009926D01*
X009431Y009824D01*
X009510Y009746D01*
X009612Y009703D01*
X009723Y009703D01*
X009825Y009746D01*
X009904Y009824D01*
X009944Y009921D01*
X010097Y009921D01*
X010097Y009840D01*
X010146Y009723D01*
X010235Y009634D01*
X010276Y009617D01*
X010276Y009609D01*
X010358Y009527D01*
X010738Y009527D01*
X010738Y009461D01*
X010820Y009379D01*
X011546Y009379D01*
X011615Y009448D01*
X012113Y009448D01*
X012296Y009265D01*
X012244Y009213D01*
X012244Y008115D01*
X011868Y008115D01*
X011619Y008364D01*
X011619Y008364D01*
X011514Y008469D01*
X010958Y008469D01*
X011046Y008505D01*
X011124Y008584D01*
X011167Y008686D01*
X011167Y008797D01*
X011124Y008900D01*
X011046Y008978D01*
X010943Y009021D01*
X010861Y009021D01*
X010861Y009105D01*
X010779Y009187D01*
X008903Y009187D01*
X008903Y009369D01*
X008903Y009245D02*
X012276Y009245D01*
X012244Y009167D02*
X010799Y009167D01*
X010861Y009088D02*
X012244Y009088D01*
X012244Y009010D02*
X010969Y009010D01*
X011093Y008931D02*
X012244Y008931D01*
X012244Y008853D02*
X011144Y008853D01*
X011167Y008774D02*
X012244Y008774D01*
X012244Y008696D02*
X011167Y008696D01*
X011138Y008617D02*
X012244Y008617D01*
X012244Y008539D02*
X011079Y008539D01*
X011282Y008053D02*
X012384Y006950D01*
X013042Y006950D01*
X013053Y006939D01*
X013053Y005939D02*
X011175Y007817D01*
X010140Y007817D01*
X009668Y008289D01*
X009668Y008742D01*
X009353Y008742D02*
X009353Y008092D01*
X009116Y007856D01*
X006951Y007856D01*
X006675Y007580D01*
X006413Y007675D02*
X005794Y007675D01*
X005831Y007597D02*
X006397Y007597D01*
X006399Y007518D02*
X005831Y007518D01*
X005831Y007440D02*
X006432Y007440D01*
X006500Y007361D02*
X005831Y007361D01*
X005831Y007283D02*
X009413Y007283D01*
X009287Y007361D02*
X006851Y007361D01*
X006919Y007440D02*
X009178Y007440D01*
X009132Y007518D02*
X006951Y007518D01*
X006954Y007597D02*
X009113Y007597D01*
X009020Y007675D02*
X007025Y007675D01*
X006830Y007989D02*
X006107Y007989D01*
X006043Y007911D02*
X006751Y007911D01*
X006869Y008068D02*
X008825Y008068D01*
X008779Y008146D02*
X006874Y008146D01*
X006874Y008225D02*
X008759Y008225D01*
X009038Y008250D02*
X009038Y008742D01*
X008723Y008742D02*
X008723Y010218D01*
X008902Y010752D02*
X008282Y010752D01*
X008282Y011054D01*
X008200Y011136D01*
X007474Y011136D01*
X007423Y011085D01*
X007385Y011124D01*
X007282Y011166D01*
X007171Y011166D01*
X007069Y011124D01*
X006990Y011045D01*
X006948Y010943D01*
X006948Y010832D01*
X006990Y010730D01*
X007069Y010651D01*
X007171Y010609D01*
X007282Y010609D01*
X007385Y010651D01*
X007392Y010658D01*
X007392Y010438D01*
X007323Y010438D01*
X007266Y010494D01*
X007164Y010536D01*
X007053Y010536D01*
X006951Y010494D01*
X006872Y010415D01*
X006830Y010313D01*
X006830Y010202D01*
X006863Y010123D01*
X006146Y010123D01*
X006146Y010276D01*
X006064Y010358D01*
X005720Y010358D01*
X005735Y010372D01*
X005852Y010490D01*
X005852Y011514D01*
X006632Y011514D01*
X006790Y011356D01*
X006908Y011239D01*
X008128Y011239D01*
X008365Y011001D01*
X008482Y010884D01*
X009173Y010884D01*
X009173Y010851D01*
X009172Y010851D01*
X009061Y010851D01*
X008958Y010809D01*
X008902Y010752D01*
X008975Y010815D02*
X008282Y010815D01*
X008282Y010894D02*
X008473Y010894D01*
X008394Y010972D02*
X008282Y010972D01*
X008282Y011051D02*
X008316Y011051D01*
X008237Y011129D02*
X008206Y011129D01*
X008159Y011208D02*
X005852Y011208D01*
X005852Y011286D02*
X006860Y011286D01*
X006781Y011365D02*
X005852Y011365D01*
X005852Y011443D02*
X006703Y011443D01*
X006829Y011600D02*
X008554Y011600D01*
X008531Y011623D02*
X008601Y011553D01*
X008719Y011435D01*
X009152Y011435D01*
X009153Y011435D01*
X009153Y011084D01*
X008565Y011084D01*
X008302Y011348D01*
X008302Y011377D01*
X008208Y011471D01*
X007465Y011471D01*
X007433Y011439D01*
X006990Y011439D01*
X006715Y011714D01*
X005691Y011714D01*
X005652Y011675D01*
X005652Y011475D01*
X005629Y011419D01*
X005629Y011300D01*
X005652Y011245D01*
X005652Y010572D01*
X005612Y010533D01*
X005373Y010533D01*
X005318Y010556D01*
X005235Y010556D01*
X005219Y010572D01*
X005219Y011675D01*
X005101Y011793D01*
X004919Y011793D01*
X004881Y011883D01*
X004797Y011967D01*
X004688Y012013D01*
X004569Y012013D01*
X004459Y011967D01*
X004375Y011883D01*
X004329Y011774D01*
X004329Y011691D01*
X004116Y011478D01*
X004116Y011056D01*
X003948Y010887D01*
X003801Y010887D01*
X003644Y011051D02*
X004111Y011051D01*
X004116Y011129D02*
X003644Y011129D01*
X003644Y011208D02*
X004116Y011208D01*
X004116Y011286D02*
X003644Y011286D01*
X003644Y011365D02*
X004116Y011365D01*
X004116Y011443D02*
X003644Y011443D01*
X003649Y011522D02*
X004160Y011522D01*
X004239Y011600D02*
X003727Y011600D01*
X003806Y011679D02*
X004317Y011679D01*
X004329Y011757D02*
X003884Y011757D01*
X003963Y011836D02*
X004355Y011836D01*
X004406Y011914D02*
X004041Y011914D01*
X004120Y011993D02*
X004520Y011993D01*
X004355Y012228D02*
X005453Y012228D01*
X005531Y012150D02*
X004277Y012150D01*
X004198Y012071D02*
X005610Y012071D01*
X005688Y011993D02*
X004736Y011993D01*
X004850Y011914D02*
X007021Y011914D01*
X006990Y011950D02*
X007227Y011675D01*
X008202Y011655D01*
X008233Y011623D01*
X008531Y011623D01*
X008632Y011522D02*
X006907Y011522D01*
X006986Y011443D02*
X007438Y011443D01*
X007467Y011129D02*
X007371Y011129D01*
X007227Y010887D02*
X007837Y010887D01*
X007837Y010572D02*
X009116Y010572D01*
X009153Y011129D02*
X008520Y011129D01*
X008442Y011208D02*
X009153Y011208D01*
X009153Y011286D02*
X008363Y011286D01*
X008302Y011365D02*
X009153Y011365D01*
X009234Y011635D02*
X008801Y011635D01*
X008723Y011714D01*
X008723Y012088D01*
X008711Y011443D02*
X008235Y011443D01*
X008159Y012307D02*
X008151Y012307D01*
X008159Y012385D02*
X007445Y012385D01*
X007527Y012464D02*
X008172Y012464D01*
X008251Y012778D02*
X008564Y012778D01*
X008723Y013013D02*
X008486Y013250D01*
X008486Y015966D01*
X008250Y016202D01*
X008250Y017817D01*
X008368Y017935D01*
X008762Y017935D01*
X009195Y018368D01*
X009195Y020454D01*
X011006Y022265D01*
X011006Y024470D01*
X010927Y024549D01*
X010927Y025454D01*
X010927Y025651D01*
X010967Y025691D01*
X010967Y025927D01*
X011557Y025927D01*
X011796Y025966D02*
X013661Y025966D01*
X013661Y026044D02*
X011796Y026044D01*
X011776Y026123D02*
X013661Y026123D01*
X013661Y026201D02*
X000359Y026201D01*
X000359Y026123D02*
X009548Y026123D01*
X009470Y026044D02*
X000359Y026044D01*
X000359Y025966D02*
X009438Y025966D01*
X009428Y025887D02*
X000359Y025887D01*
X000359Y025809D02*
X009409Y025809D01*
X009391Y025730D02*
X008336Y025730D01*
X008411Y025652D02*
X009331Y025652D01*
X009331Y025573D02*
X008411Y025573D01*
X008411Y025495D02*
X009331Y025495D01*
X009314Y025416D02*
X008411Y025416D01*
X008411Y025338D02*
X009291Y025338D01*
X009291Y025259D02*
X009203Y025259D01*
X008991Y025259D02*
X008411Y025259D01*
X008411Y025181D02*
X008882Y025181D01*
X008837Y025102D02*
X008411Y025102D01*
X008411Y025024D02*
X008818Y025024D01*
X008818Y024945D02*
X008411Y024945D01*
X008411Y024867D02*
X008851Y024867D01*
X008916Y024788D02*
X008411Y024788D01*
X008411Y024710D02*
X010747Y024710D01*
X010747Y024788D02*
X009790Y024788D01*
X009707Y024998D02*
X009612Y024998D01*
X009589Y025021D01*
X009569Y025002D01*
X009097Y025002D01*
X009278Y024788D02*
X009387Y024788D01*
X009707Y024998D02*
X009770Y025061D01*
X010061Y025061D01*
X010222Y024553D02*
X008411Y024553D01*
X008411Y024631D02*
X010340Y024631D01*
X010165Y024474D02*
X008411Y024474D01*
X008411Y024396D02*
X010137Y024396D01*
X010137Y024317D02*
X008411Y024317D01*
X008411Y024239D02*
X009711Y024239D01*
X009646Y024160D02*
X008411Y024160D01*
X008411Y024082D02*
X009646Y024082D01*
X009646Y024003D02*
X008411Y024003D01*
X008411Y023925D02*
X009646Y023925D01*
X009646Y023846D02*
X008411Y023846D01*
X008411Y023768D02*
X009699Y023768D01*
X009904Y023998D02*
X010258Y023998D01*
X010297Y023958D01*
X010534Y023958D01*
X010534Y024234D01*
X010416Y024352D01*
X010161Y024239D02*
X010097Y024239D01*
X010108Y023768D02*
X010236Y023768D01*
X010236Y023689D02*
X008411Y023689D01*
X008411Y023611D02*
X010250Y023611D01*
X010276Y023532D02*
X008411Y023532D01*
X008411Y023454D02*
X010276Y023454D01*
X010308Y023375D02*
X008411Y023375D01*
X008411Y023297D02*
X010354Y023297D01*
X010354Y023218D02*
X009660Y023218D01*
X009707Y022998D02*
X009494Y022998D01*
X009471Y022974D01*
X009077Y022974D01*
X008939Y023218D02*
X008422Y023218D01*
X008500Y023140D02*
X008849Y023140D01*
X008812Y023061D02*
X008579Y023061D01*
X008646Y022983D02*
X008798Y022983D01*
X008804Y022904D02*
X008646Y022904D01*
X008646Y022826D02*
X008837Y022826D01*
X008909Y022747D02*
X008646Y022747D01*
X008646Y022669D02*
X009173Y022669D01*
X009184Y022590D02*
X008646Y022590D01*
X008646Y022512D02*
X009213Y022512D01*
X009213Y022433D02*
X008646Y022433D01*
X008646Y022355D02*
X009213Y022355D01*
X009206Y022276D02*
X008646Y022276D01*
X008646Y022198D02*
X009192Y022198D01*
X009197Y022119D02*
X008646Y022119D01*
X008646Y022041D02*
X009229Y022041D01*
X009301Y021962D02*
X008646Y021962D01*
X008646Y021884D02*
X010370Y021884D01*
X010292Y021805D02*
X008646Y021805D01*
X008646Y021727D02*
X010213Y021727D01*
X010135Y021648D02*
X008646Y021648D01*
X008646Y021570D02*
X010056Y021570D01*
X009978Y021491D02*
X008646Y021491D01*
X008646Y021413D02*
X009899Y021413D01*
X009821Y021334D02*
X008646Y021334D01*
X008646Y021256D02*
X009742Y021256D01*
X009664Y021177D02*
X008646Y021177D01*
X008646Y021099D02*
X009585Y021099D01*
X009507Y021020D02*
X008646Y021020D01*
X008646Y020942D02*
X009428Y020942D01*
X009350Y020863D02*
X008646Y020863D01*
X008646Y020785D02*
X009271Y020785D01*
X009193Y020706D02*
X008603Y020706D01*
X008525Y020628D02*
X009114Y020628D01*
X009036Y020549D02*
X008446Y020549D01*
X008371Y020471D02*
X009015Y020471D01*
X009015Y020392D02*
X008371Y020392D01*
X008371Y020314D02*
X009015Y020314D01*
X009015Y020235D02*
X008371Y020235D01*
X008371Y020157D02*
X009015Y020157D01*
X009015Y020078D02*
X008371Y020078D01*
X008509Y020000D02*
X009015Y020000D01*
X008762Y019608D02*
X008762Y019273D01*
X009375Y019293D02*
X010433Y019293D01*
X010433Y019215D02*
X009375Y019215D01*
X009375Y019372D02*
X010433Y019372D01*
X010474Y019450D02*
X009375Y019450D01*
X009375Y019529D02*
X010430Y019529D01*
X010412Y019607D02*
X009375Y019607D01*
X009628Y019982D02*
X010219Y019982D01*
X010219Y020454D02*
X010770Y020454D01*
X011254Y019970D01*
X012502Y019970D01*
X012083Y020392D02*
X011086Y020392D01*
X011028Y020471D02*
X013661Y020471D01*
X013661Y020549D02*
X011028Y020549D01*
X011028Y020628D02*
X013661Y020628D01*
X013661Y020706D02*
X010952Y020706D01*
X011165Y020314D02*
X011931Y020314D01*
X011853Y020235D02*
X011243Y020235D01*
X011322Y020157D02*
X011810Y020157D01*
X011818Y019764D02*
X010936Y019764D01*
X010969Y019686D02*
X011872Y019686D01*
X011950Y019607D02*
X010970Y019607D01*
X010952Y019529D02*
X013661Y019529D01*
X013661Y019607D02*
X013054Y019607D01*
X013133Y019686D02*
X013661Y019686D01*
X013661Y019764D02*
X013187Y019764D01*
X013219Y019843D02*
X013661Y019843D01*
X013661Y019921D02*
X013236Y019921D01*
X013236Y020000D02*
X013661Y020000D01*
X013661Y020078D02*
X013227Y020078D01*
X013195Y020157D02*
X013661Y020157D01*
X013661Y020235D02*
X013151Y020235D01*
X013073Y020314D02*
X013661Y020314D01*
X013661Y020392D02*
X012921Y020392D01*
X012970Y019372D02*
X013661Y019372D01*
X013661Y019450D02*
X010909Y019450D01*
X010949Y019372D02*
X012034Y019372D01*
X011911Y019293D02*
X010949Y019293D01*
X010949Y019215D02*
X011834Y019215D01*
X011678Y019136D02*
X010949Y019136D01*
X010691Y019234D02*
X010691Y019628D01*
X010870Y019843D02*
X011127Y019843D01*
X011048Y019921D02*
X010674Y019921D01*
X010674Y020000D02*
X010970Y020000D01*
X010891Y020078D02*
X010674Y020078D01*
X010674Y020157D02*
X010813Y020157D01*
X010588Y020706D02*
X010401Y020706D01*
X010173Y021177D02*
X011346Y021177D01*
X011276Y021256D02*
X010251Y021256D01*
X010330Y021334D02*
X011243Y021334D01*
X011239Y021413D02*
X010408Y021413D01*
X010487Y021491D02*
X011254Y021491D01*
X011294Y021570D02*
X010565Y021570D01*
X010644Y021648D02*
X011338Y021648D01*
X011338Y021727D02*
X010722Y021727D01*
X010801Y021805D02*
X011288Y021805D01*
X011260Y021884D02*
X010879Y021884D01*
X010958Y021962D02*
X011260Y021962D01*
X011229Y022041D02*
X011036Y022041D01*
X011115Y022119D02*
X011220Y022119D01*
X011220Y022198D02*
X011186Y022198D01*
X011518Y022384D02*
X011872Y022384D01*
X012030Y022541D01*
X012345Y022541D01*
X012384Y022502D01*
X012553Y022276D02*
X013661Y022276D01*
X013661Y022198D02*
X012327Y022198D01*
X012327Y022119D02*
X013661Y022119D01*
X013661Y022041D02*
X012279Y022041D01*
X012268Y021962D02*
X013661Y021962D01*
X013661Y021884D02*
X012268Y021884D01*
X012260Y021805D02*
X013661Y021805D01*
X013661Y021727D02*
X011698Y021727D01*
X011698Y021648D02*
X013661Y021648D01*
X013661Y021570D02*
X011741Y021570D01*
X011781Y021491D02*
X013661Y021491D01*
X013661Y021413D02*
X011797Y021413D01*
X011793Y021334D02*
X013661Y021334D01*
X013661Y021256D02*
X011760Y021256D01*
X011690Y021177D02*
X013661Y021177D01*
X013661Y021099D02*
X010094Y021099D01*
X010016Y021020D02*
X013661Y021020D01*
X013661Y020942D02*
X009937Y020942D01*
X009859Y020863D02*
X013661Y020863D01*
X013661Y020785D02*
X009780Y020785D01*
X009702Y020706D02*
X010037Y020706D01*
X009961Y020628D02*
X009623Y020628D01*
X009545Y020549D02*
X009961Y020549D01*
X009961Y020471D02*
X009466Y020471D01*
X009388Y020392D02*
X009961Y020392D01*
X010003Y019686D02*
X010395Y019686D01*
X010511Y018979D02*
X009375Y018979D01*
X009375Y018901D02*
X011442Y018901D01*
X011364Y018822D02*
X009375Y018822D01*
X009375Y018744D02*
X011285Y018744D01*
X011207Y018665D02*
X009823Y018665D01*
X009648Y018446D02*
X011242Y018446D01*
X011766Y018970D01*
X012502Y018970D01*
X011989Y018587D02*
X011637Y018587D01*
X011559Y018508D02*
X013661Y018508D01*
X013661Y018430D02*
X011480Y018430D01*
X011402Y018351D02*
X013661Y018351D01*
X013661Y018273D02*
X011323Y018273D01*
X011300Y018035D02*
X011382Y017953D01*
X011382Y017444D01*
X011300Y017362D01*
X010633Y017362D01*
X010551Y017444D01*
X010551Y017479D01*
X010534Y017462D01*
X010432Y017420D01*
X010321Y017420D01*
X010218Y017462D01*
X010140Y017541D01*
X010097Y017643D01*
X010097Y017754D01*
X010140Y017856D01*
X010218Y017935D01*
X010321Y017977D01*
X010432Y017977D01*
X010534Y017935D01*
X010551Y017918D01*
X010551Y017953D01*
X010633Y018035D01*
X011300Y018035D01*
X011377Y017959D02*
X013661Y017959D01*
X013661Y018037D02*
X009119Y018037D01*
X009041Y017959D02*
X010277Y017959D01*
X010164Y017880D02*
X009447Y017880D01*
X009516Y017802D02*
X010117Y017802D01*
X010097Y017723D02*
X009549Y017723D01*
X009604Y017645D02*
X010097Y017645D01*
X010129Y017566D02*
X009611Y017566D01*
X009879Y017488D02*
X010193Y017488D01*
X010215Y017409D02*
X010585Y017409D01*
X010451Y017174D02*
X011417Y017174D01*
X011417Y017252D02*
X010372Y017252D01*
X010294Y017331D02*
X011417Y017331D01*
X011417Y017409D02*
X011348Y017409D01*
X011382Y017488D02*
X011417Y017488D01*
X011417Y017566D02*
X011382Y017566D01*
X011417Y017579D02*
X011417Y017070D01*
X011499Y016988D01*
X011579Y016988D01*
X011554Y016927D01*
X011554Y016816D01*
X011597Y016714D01*
X011675Y016635D01*
X011777Y016593D01*
X011888Y016593D01*
X011991Y016635D01*
X012069Y016714D01*
X012112Y016816D01*
X012112Y016927D01*
X012087Y016988D01*
X012166Y016988D01*
X012249Y017070D01*
X012249Y017579D01*
X012166Y017661D01*
X011499Y017661D01*
X011417Y017579D01*
X011382Y017645D02*
X011483Y017645D01*
X011382Y017723D02*
X012448Y017723D01*
X012378Y017645D02*
X012183Y017645D01*
X012249Y017566D02*
X012345Y017566D01*
X012342Y017488D02*
X012249Y017488D01*
X012249Y017409D02*
X012357Y017409D01*
X012397Y017331D02*
X012249Y017331D01*
X012249Y017252D02*
X012440Y017252D01*
X012440Y017174D02*
X012249Y017174D01*
X012249Y017095D02*
X012440Y017095D01*
X012432Y017017D02*
X012196Y017017D01*
X012107Y016938D02*
X012354Y016938D01*
X012275Y016860D02*
X012112Y016860D01*
X012097Y016781D02*
X012197Y016781D01*
X012118Y016703D02*
X012058Y016703D01*
X012040Y016624D02*
X011964Y016624D01*
X011968Y016546D02*
X010626Y016546D01*
X010720Y016624D02*
X011701Y016624D01*
X011607Y016703D02*
X010759Y016703D01*
X010773Y016781D02*
X011569Y016781D01*
X011554Y016860D02*
X010768Y016860D01*
X010736Y016938D02*
X011559Y016938D01*
X011470Y017017D02*
X010665Y017017D01*
X010529Y017095D02*
X011417Y017095D01*
X011382Y017802D02*
X013661Y017802D01*
X013661Y017880D02*
X011382Y017880D01*
X011833Y017324D02*
X011833Y016872D01*
X011968Y016467D02*
X008430Y016467D01*
X008430Y016389D02*
X011968Y016389D01*
X011968Y016310D02*
X008430Y016310D01*
X008475Y016232D02*
X011968Y016232D01*
X011968Y016153D02*
X008554Y016153D01*
X008632Y016075D02*
X011968Y016075D01*
X011968Y015996D02*
X008666Y015996D01*
X008666Y015918D02*
X011968Y015918D01*
X011968Y015839D02*
X008666Y015839D01*
X008666Y015761D02*
X011968Y015761D01*
X011968Y015682D02*
X008666Y015682D01*
X008666Y015604D02*
X011968Y015604D01*
X011968Y015525D02*
X008666Y015525D01*
X008666Y015447D02*
X011968Y015447D01*
X011968Y015368D02*
X008666Y015368D01*
X008666Y015290D02*
X011968Y015290D01*
X011968Y015211D02*
X008666Y015211D01*
X008666Y015133D02*
X011968Y015133D01*
X011968Y015054D02*
X008666Y015054D01*
X008666Y014976D02*
X011968Y014976D01*
X011968Y014897D02*
X008666Y014897D01*
X008666Y014819D02*
X011968Y014819D01*
X011968Y014740D02*
X008666Y014740D01*
X008666Y014662D02*
X011968Y014662D01*
X011968Y014583D02*
X008666Y014583D01*
X008666Y014505D02*
X011968Y014505D01*
X011968Y014426D02*
X008666Y014426D01*
X008666Y014348D02*
X011968Y014348D01*
X011968Y014269D02*
X008666Y014269D01*
X008666Y014191D02*
X011968Y014191D01*
X011968Y014112D02*
X011904Y014112D01*
X011762Y014112D02*
X008666Y014112D01*
X008666Y014034D02*
X011632Y014034D01*
X011579Y013955D02*
X008666Y013955D01*
X008666Y013877D02*
X011554Y013877D01*
X011554Y013798D02*
X008666Y013798D01*
X008666Y013720D02*
X011581Y013720D01*
X011614Y013641D02*
X008666Y013641D01*
X008666Y013563D02*
X011614Y013563D01*
X011614Y013484D02*
X008666Y013484D01*
X008666Y013406D02*
X011614Y013406D01*
X011614Y013327D02*
X010678Y013327D01*
X010547Y013327D02*
X008666Y013327D01*
X008881Y013249D02*
X010414Y013249D01*
X010612Y013053D02*
X009589Y013053D01*
X009668Y012088D02*
X009668Y011596D01*
X009746Y011517D01*
X009746Y010061D01*
X009668Y009982D01*
X009411Y009873D02*
X009375Y009873D01*
X009383Y009795D02*
X009460Y009795D01*
X009444Y009716D02*
X009580Y009716D01*
X009474Y009638D02*
X010231Y009638D01*
X010152Y009716D02*
X009755Y009716D01*
X009875Y009795D02*
X010116Y009795D01*
X010097Y009873D02*
X009924Y009873D01*
X010022Y010258D02*
X010022Y011675D01*
X009983Y011714D01*
X009983Y012088D01*
X010297Y012088D02*
X010297Y012698D01*
X010632Y012443D02*
X010770Y012580D01*
X010632Y012443D02*
X010632Y012108D01*
X010612Y012088D01*
X010861Y012071D02*
X011188Y012071D01*
X011109Y011993D02*
X010861Y011993D01*
X010861Y011914D02*
X011031Y011914D01*
X011003Y011836D02*
X010861Y011836D01*
X010861Y012150D02*
X011266Y012150D01*
X011345Y012228D02*
X010861Y012228D01*
X010861Y012307D02*
X011423Y012307D01*
X011502Y012385D02*
X010969Y012385D01*
X011023Y012464D02*
X011580Y012464D01*
X011614Y012542D02*
X011049Y012542D01*
X011049Y012621D02*
X011614Y012621D01*
X011614Y012699D02*
X011022Y012699D01*
X010967Y012778D02*
X011614Y012778D01*
X011614Y012856D02*
X010832Y012856D01*
X010865Y012935D02*
X011614Y012935D01*
X011614Y013013D02*
X010891Y013013D01*
X010891Y013092D02*
X011614Y013092D01*
X011614Y013170D02*
X010865Y013170D01*
X010810Y013249D02*
X011614Y013249D01*
X011794Y013801D02*
X011833Y013840D01*
X011794Y013801D02*
X011794Y012423D01*
X011183Y011813D01*
X011183Y011517D01*
X011183Y011202D02*
X011636Y011202D01*
X011754Y011321D01*
X012030Y011124D02*
X011794Y010887D01*
X011183Y010887D01*
X011183Y010572D02*
X012109Y010572D01*
X012305Y010769D01*
X012305Y011324D01*
X013053Y012072D01*
X013053Y011072D02*
X012238Y010258D01*
X011183Y010258D01*
X011183Y009943D02*
X012423Y009943D01*
X012542Y010061D01*
X013042Y010061D01*
X013053Y010072D01*
X012187Y009628D02*
X012738Y009076D01*
X013049Y009076D01*
X013053Y009072D01*
X013053Y007939D02*
X013049Y007935D01*
X011794Y007935D01*
X011439Y008289D01*
X010376Y008289D01*
X010297Y008368D01*
X010297Y008742D01*
X009983Y008742D02*
X009983Y008368D01*
X010297Y008053D01*
X011282Y008053D01*
X011141Y007597D02*
X011126Y007597D01*
X011205Y007518D02*
X011219Y007518D01*
X011283Y007440D02*
X011298Y007440D01*
X011362Y007361D02*
X011376Y007361D01*
X011440Y007283D02*
X011455Y007283D01*
X011519Y007204D02*
X011533Y007204D01*
X011597Y007126D02*
X011612Y007126D01*
X011676Y007047D02*
X011690Y007047D01*
X011754Y006969D02*
X011769Y006969D01*
X011816Y006890D02*
X011847Y006890D01*
X011816Y006812D02*
X011926Y006812D01*
X012004Y006733D02*
X011816Y006733D01*
X011816Y006655D02*
X012083Y006655D01*
X012161Y006576D02*
X011816Y006576D01*
X011816Y006498D02*
X012240Y006498D01*
X012318Y006419D02*
X011816Y006419D01*
X011816Y006341D02*
X012397Y006341D01*
X012455Y006262D02*
X011816Y006262D01*
X011816Y006184D02*
X012379Y006184D01*
X012346Y006105D02*
X011816Y006105D01*
X011816Y006027D02*
X012314Y006027D01*
X012313Y005948D02*
X011816Y005948D01*
X011816Y005870D02*
X012313Y005870D01*
X012338Y005791D02*
X011816Y005791D01*
X011816Y005713D02*
X012371Y005713D01*
X012435Y005634D02*
X011816Y005634D01*
X011816Y005556D02*
X012528Y005556D01*
X012260Y004928D02*
X013661Y004928D01*
X013661Y005006D02*
X012181Y005006D01*
X012103Y005085D02*
X013661Y005085D01*
X013661Y005163D02*
X012024Y005163D01*
X011946Y005242D02*
X013661Y005242D01*
X013661Y005320D02*
X011867Y005320D01*
X011816Y005399D02*
X013661Y005399D01*
X013661Y005477D02*
X011816Y005477D01*
X011636Y005297D02*
X012738Y004195D01*
X012731Y004457D02*
X013661Y004457D01*
X013661Y004535D02*
X012652Y004535D01*
X012574Y004614D02*
X013661Y004614D01*
X013661Y004692D02*
X012495Y004692D01*
X012417Y004771D02*
X013661Y004771D01*
X013661Y004849D02*
X012338Y004849D01*
X012143Y004535D02*
X010713Y004535D01*
X010713Y004457D02*
X012221Y004457D01*
X012300Y004378D02*
X010754Y004378D01*
X010833Y004300D02*
X012378Y004300D01*
X012457Y004221D02*
X010911Y004221D01*
X010990Y004143D02*
X012449Y004143D01*
X012441Y004064D02*
X011502Y004064D01*
X011581Y003986D02*
X012441Y003986D01*
X012441Y003907D02*
X011659Y003907D01*
X011738Y003829D02*
X012473Y003829D01*
X012480Y003750D02*
X011807Y003750D01*
X011807Y003672D02*
X012480Y003672D01*
X012531Y003593D02*
X011807Y003593D01*
X011807Y003515D02*
X012578Y003515D01*
X012578Y003436D02*
X011807Y003436D01*
X011807Y003358D02*
X012578Y003358D01*
X012472Y003279D02*
X011796Y003279D01*
X011717Y003201D02*
X012421Y003201D01*
X012421Y003122D02*
X011639Y003122D01*
X011560Y003044D02*
X012421Y003044D01*
X012421Y002965D02*
X011482Y002965D01*
X011422Y002887D02*
X012421Y002887D01*
X012421Y002808D02*
X011409Y002808D01*
X011242Y002935D02*
X011242Y003525D01*
X010846Y003122D02*
X010698Y003122D01*
X010713Y003201D02*
X010768Y003201D01*
X010654Y003044D02*
X010925Y003044D01*
X011003Y002965D02*
X010575Y002965D01*
X010497Y002887D02*
X010940Y002887D01*
X010866Y002808D02*
X010418Y002808D01*
X010340Y002730D02*
X010820Y002730D01*
X010807Y002651D02*
X010261Y002651D01*
X010183Y002573D02*
X010807Y002573D01*
X010807Y002494D02*
X010104Y002494D01*
X009845Y002965D02*
X009188Y002965D01*
X008975Y002957D02*
X008160Y002957D01*
X007760Y003357D01*
X007760Y003851D01*
X008023Y004114D01*
X008061Y004114D01*
X008120Y004055D01*
X008428Y004055D01*
X008468Y004015D01*
X008820Y004015D01*
X008902Y004097D01*
X008902Y004294D01*
X008981Y004373D01*
X008981Y004725D01*
X008902Y004804D01*
X008902Y004842D01*
X009529Y004842D01*
X009541Y004854D01*
X009646Y004749D01*
X009646Y004747D01*
X009724Y004669D01*
X009724Y004252D01*
X009646Y004174D01*
X009646Y003430D01*
X009508Y003430D01*
X009430Y003508D01*
X008724Y003508D01*
X008693Y003477D01*
X008684Y003486D01*
X008581Y003528D01*
X008470Y003528D01*
X008368Y003486D01*
X008290Y003408D01*
X008247Y003305D01*
X008247Y003194D01*
X008290Y003092D01*
X008368Y003013D01*
X008470Y002971D01*
X008581Y002971D01*
X008684Y003013D01*
X008693Y003022D01*
X008724Y002992D01*
X008940Y002992D01*
X008975Y002957D01*
X008966Y002965D02*
X008151Y002965D01*
X008073Y003044D02*
X008337Y003044D01*
X008277Y003122D02*
X007994Y003122D01*
X007916Y003201D02*
X008247Y003201D01*
X008247Y003279D02*
X007837Y003279D01*
X007760Y003358D02*
X008269Y003358D01*
X008318Y003436D02*
X007760Y003436D01*
X007760Y003515D02*
X008438Y003515D01*
X008614Y003515D02*
X009646Y003515D01*
X009646Y003593D02*
X007760Y003593D01*
X007760Y003672D02*
X009646Y003672D01*
X009646Y003750D02*
X007760Y003750D01*
X007760Y003829D02*
X009646Y003829D01*
X009646Y003907D02*
X007816Y003907D01*
X007895Y003986D02*
X009646Y003986D01*
X009646Y004064D02*
X008869Y004064D01*
X008902Y004143D02*
X009646Y004143D01*
X009693Y004221D02*
X008902Y004221D01*
X008908Y004300D02*
X009724Y004300D01*
X009724Y004378D02*
X008981Y004378D01*
X008981Y004457D02*
X009724Y004457D01*
X009724Y004535D02*
X008981Y004535D01*
X008981Y004614D02*
X009724Y004614D01*
X009700Y004692D02*
X008981Y004692D01*
X008935Y004771D02*
X009624Y004771D01*
X009546Y004849D02*
X009536Y004849D01*
X009746Y004903D02*
X009274Y005376D01*
X007069Y005376D01*
X006951Y005258D01*
X006518Y005258D01*
X006344Y005477D02*
X005031Y005477D01*
X005036Y005556D02*
X006554Y005556D01*
X006557Y005634D02*
X005036Y005634D01*
X005036Y005713D02*
X006589Y005713D01*
X006658Y005791D02*
X006201Y005791D01*
X006304Y005870D02*
X009646Y005870D01*
X009646Y005948D02*
X006347Y005948D01*
X006383Y006027D02*
X009648Y006027D01*
X009727Y006105D02*
X006461Y006105D01*
X006671Y006184D02*
X010197Y006184D01*
X010197Y006262D02*
X006775Y006262D01*
X006819Y006341D02*
X009016Y006341D01*
X008976Y006419D02*
X006836Y006419D01*
X006834Y006498D02*
X008976Y006498D01*
X008976Y006576D02*
X006802Y006576D01*
X006735Y006655D02*
X008976Y006655D01*
X008974Y006733D02*
X006771Y006733D01*
X006797Y006812D02*
X008956Y006812D01*
X008957Y006890D02*
X006797Y006890D01*
X006771Y006969D02*
X008989Y006969D01*
X009055Y007047D02*
X006717Y007047D01*
X006518Y006852D02*
X006439Y006852D01*
X006439Y006872D01*
X005573Y006872D01*
X005455Y006990D01*
X005455Y007305D01*
X005159Y006890D02*
X004958Y006890D01*
X004990Y006969D02*
X005081Y006969D01*
X005079Y007047D02*
X005023Y007047D01*
X005036Y007126D02*
X005079Y007126D01*
X005079Y007204D02*
X005036Y007204D01*
X005036Y007283D02*
X005079Y007283D01*
X005079Y007361D02*
X005024Y007361D01*
X004992Y007440D02*
X005079Y007440D01*
X005079Y007518D02*
X004959Y007518D01*
X004910Y007597D02*
X005079Y007597D01*
X005116Y007675D02*
X004832Y007675D01*
X004746Y007754D02*
X006455Y007754D01*
X006556Y007832D02*
X004557Y007832D01*
X004455Y008303D02*
X003974Y008303D01*
X004053Y008225D02*
X005276Y008225D01*
X005276Y008303D02*
X005195Y008303D01*
X005241Y008382D02*
X005276Y008382D01*
X005276Y008460D02*
X005241Y008460D01*
X005241Y008539D02*
X005330Y008539D01*
X005241Y008617D02*
X006358Y008617D01*
X006358Y008539D02*
X006053Y008539D01*
X006107Y008460D02*
X006365Y008460D01*
X006358Y008696D02*
X005241Y008696D01*
X005241Y008774D02*
X006358Y008774D01*
X006431Y008853D02*
X005241Y008853D01*
X005168Y008931D02*
X006436Y008931D01*
X006436Y009010D02*
X004543Y009010D01*
X004591Y009088D02*
X006436Y009088D01*
X006436Y009167D02*
X004591Y009167D01*
X004591Y009245D02*
X004734Y009245D01*
X004616Y009324D02*
X004591Y009324D01*
X004825Y009509D02*
X004825Y009628D01*
X004628Y009824D01*
X004628Y010572D01*
X004234Y009824D02*
X003368Y009824D01*
X002305Y010887D01*
X002305Y011675D01*
X002030Y011950D01*
X001400Y011950D01*
X001951Y012580D02*
X002305Y012226D01*
X002227Y012856D02*
X002227Y014667D01*
X001400Y015494D01*
X001305Y016200D02*
X001494Y016200D01*
X001669Y016272D01*
X001802Y016406D01*
X001874Y016580D01*
X001874Y016769D01*
X001802Y016944D01*
X001669Y017077D01*
X001494Y017149D01*
X001305Y017149D01*
X001131Y017077D01*
X000997Y016944D01*
X000925Y016769D01*
X000925Y016580D01*
X000997Y016406D01*
X001131Y016272D01*
X001305Y016200D01*
X001229Y016232D02*
X000359Y016232D01*
X000359Y016310D02*
X001093Y016310D01*
X001014Y016389D02*
X000359Y016389D01*
X000359Y016467D02*
X000972Y016467D01*
X000939Y016546D02*
X000359Y016546D01*
X000359Y016624D02*
X000925Y016624D01*
X000925Y016703D02*
X000359Y016703D01*
X000359Y016781D02*
X000930Y016781D01*
X000963Y016860D02*
X000359Y016860D01*
X000359Y016938D02*
X000995Y016938D01*
X001071Y017017D02*
X000359Y017017D01*
X000359Y017095D02*
X001175Y017095D01*
X001625Y017095D02*
X003688Y017095D01*
X003567Y017174D02*
X000359Y017174D01*
X000359Y017252D02*
X003489Y017252D01*
X003543Y017198D02*
X003543Y017198D01*
X003410Y017331D02*
X000359Y017331D01*
X000359Y017409D02*
X003363Y017409D01*
X003346Y017488D02*
X000359Y017488D01*
X000359Y017566D02*
X003346Y017566D01*
X003346Y017645D02*
X000359Y017645D01*
X000359Y017723D02*
X003346Y017723D01*
X003346Y017802D02*
X000359Y017802D01*
X000359Y017880D02*
X003346Y017880D01*
X003346Y017959D02*
X000359Y017959D01*
X000359Y018037D02*
X003346Y018037D01*
X003346Y018116D02*
X000359Y018116D01*
X000359Y018194D02*
X003346Y018194D01*
X003346Y018273D02*
X000359Y018273D01*
X000359Y018351D02*
X003346Y018351D01*
X003863Y017645D02*
X005767Y017645D01*
X005767Y017723D02*
X004631Y017723D01*
X004890Y017802D02*
X005767Y017802D01*
X005767Y017880D02*
X004906Y017880D01*
X004906Y017959D02*
X005767Y017959D01*
X005767Y018037D02*
X004918Y018037D01*
X004945Y018116D02*
X005767Y018116D01*
X005767Y018194D02*
X004945Y018194D01*
X004945Y018273D02*
X005767Y018273D01*
X005767Y018351D02*
X004945Y018351D01*
X004945Y018430D02*
X005767Y018430D01*
X005767Y018508D02*
X004945Y018508D01*
X004945Y018587D02*
X005767Y018587D01*
X005767Y018665D02*
X004945Y018665D01*
X004945Y018744D02*
X005767Y018744D01*
X005767Y018822D02*
X004945Y018822D01*
X004945Y018901D02*
X005767Y018901D01*
X005767Y018979D02*
X005333Y018979D01*
X005105Y018979D02*
X004945Y018979D01*
X004945Y019058D02*
X005000Y019058D01*
X004957Y019136D02*
X004945Y019136D01*
X004923Y020628D02*
X005786Y020628D01*
X005865Y020706D02*
X004844Y020706D01*
X004766Y020785D02*
X005927Y020785D01*
X005927Y020863D02*
X004687Y020863D01*
X004609Y020942D02*
X005927Y020942D01*
X005927Y021020D02*
X004530Y021020D01*
X004427Y021099D02*
X005927Y021099D01*
X005927Y021177D02*
X001715Y021177D01*
X001715Y021256D02*
X005927Y021256D01*
X005874Y021334D02*
X001715Y021334D01*
X002187Y021793D02*
X002187Y020612D01*
X002187Y021793D02*
X003171Y022777D01*
X003171Y023840D01*
X004703Y022198D02*
X004783Y022198D01*
X004783Y022119D02*
X004760Y022119D01*
X004983Y022119D02*
X008149Y022119D01*
X008149Y022041D02*
X004983Y022041D01*
X004983Y021962D02*
X008149Y021962D01*
X008149Y021884D02*
X004983Y021884D01*
X005049Y021805D02*
X008149Y021805D01*
X008149Y022198D02*
X005033Y022198D01*
X006135Y022276D02*
X008149Y022276D01*
X008149Y022355D02*
X006214Y022355D01*
X006292Y022433D02*
X008149Y022433D01*
X008149Y022512D02*
X006371Y022512D01*
X006449Y022590D02*
X008149Y022590D01*
X008149Y022669D02*
X006528Y022669D01*
X006606Y022747D02*
X008149Y022747D01*
X009215Y023218D02*
X009281Y023218D01*
X009707Y022998D02*
X009770Y022935D01*
X010061Y022935D01*
X009852Y023140D02*
X009819Y023140D01*
X009750Y022541D02*
X009707Y022498D01*
X009475Y022498D01*
X009471Y022502D01*
X009471Y022187D01*
X009641Y021962D02*
X010449Y021962D01*
X010527Y022041D02*
X009712Y022041D01*
X009745Y022119D02*
X010606Y022119D01*
X010684Y022198D02*
X009749Y022198D01*
X009735Y022276D02*
X010088Y022276D01*
X010061Y022541D02*
X010297Y022541D01*
X010534Y022777D01*
X010534Y023565D01*
X010354Y023140D02*
X010270Y023140D01*
X010319Y023061D02*
X010354Y023061D01*
X010354Y022983D02*
X010319Y022983D01*
X010329Y022904D02*
X010354Y022904D01*
X010061Y022541D02*
X009750Y022541D01*
X009819Y022355D02*
X009833Y022355D01*
X011186Y022669D02*
X011732Y022669D01*
X011732Y022747D02*
X011186Y022747D01*
X011186Y022826D02*
X011732Y022826D01*
X011762Y022904D02*
X011186Y022904D01*
X011186Y022983D02*
X011772Y022983D01*
X011772Y023061D02*
X011186Y023061D01*
X011186Y023140D02*
X011821Y023140D01*
X012030Y022935D02*
X012325Y022935D01*
X012384Y022994D01*
X012554Y023218D02*
X013661Y023218D01*
X013661Y023140D02*
X012625Y023140D01*
X012658Y023061D02*
X013661Y023061D01*
X013661Y022983D02*
X012663Y022983D01*
X012682Y022904D02*
X013661Y022904D01*
X013661Y022826D02*
X012682Y022826D01*
X012682Y022747D02*
X013661Y022747D01*
X013661Y022669D02*
X012682Y022669D01*
X012682Y022590D02*
X013661Y022590D01*
X013661Y022512D02*
X012663Y022512D01*
X012658Y022433D02*
X013661Y022433D01*
X013661Y022355D02*
X012625Y022355D01*
X012030Y021990D02*
X011518Y021990D01*
X011518Y021399D01*
X011748Y021805D02*
X011800Y021805D01*
X011732Y022590D02*
X011726Y022590D01*
X012215Y023218D02*
X011186Y023218D01*
X011186Y023297D02*
X013661Y023297D01*
X013661Y023375D02*
X011186Y023375D01*
X011186Y023454D02*
X013661Y023454D01*
X013661Y023532D02*
X011186Y023532D01*
X011186Y023611D02*
X013661Y023611D01*
X013661Y023689D02*
X011186Y023689D01*
X011186Y023768D02*
X013661Y023768D01*
X013661Y023846D02*
X011186Y023846D01*
X011186Y023925D02*
X013661Y023925D01*
X013661Y024003D02*
X011186Y024003D01*
X011186Y024082D02*
X012948Y024082D01*
X012976Y024055D02*
X013289Y024055D01*
X013371Y024137D01*
X013371Y024489D01*
X013312Y024547D01*
X013312Y024553D01*
X013661Y024553D01*
X013661Y024631D02*
X013351Y024631D01*
X013351Y024649D02*
X013430Y024727D01*
X013430Y025079D01*
X013351Y025157D01*
X013351Y025358D01*
X013430Y025436D01*
X013430Y025788D01*
X013348Y025870D01*
X013111Y025870D01*
X013072Y025909D01*
X012799Y025909D01*
X012759Y025870D01*
X012523Y025870D01*
X012441Y025788D01*
X012441Y025772D01*
X012440Y025772D01*
X012329Y025772D01*
X012226Y025730D01*
X012178Y025682D01*
X012166Y025693D01*
X011814Y025693D01*
X011732Y025611D01*
X011732Y025394D01*
X011693Y025355D01*
X011693Y025160D01*
X011732Y025121D01*
X011732Y024904D01*
X011814Y024822D01*
X012073Y024822D01*
X012073Y024822D01*
X012170Y024822D01*
X012226Y024765D01*
X012329Y024723D01*
X012440Y024723D01*
X012444Y024725D01*
X012523Y024645D01*
X012759Y024645D01*
X012799Y024606D01*
X012952Y024606D01*
X012952Y024547D01*
X012894Y024489D01*
X012894Y024137D01*
X012976Y024055D01*
X012894Y024160D02*
X011186Y024160D01*
X011186Y024239D02*
X012894Y024239D01*
X012894Y024317D02*
X011186Y024317D01*
X011186Y024396D02*
X012894Y024396D01*
X012894Y024474D02*
X011186Y024474D01*
X011178Y024553D02*
X012952Y024553D01*
X013132Y024628D02*
X013132Y024313D01*
X013316Y024082D02*
X013661Y024082D01*
X013661Y024160D02*
X013371Y024160D01*
X013371Y024239D02*
X013661Y024239D01*
X013661Y024317D02*
X013371Y024317D01*
X013371Y024396D02*
X013661Y024396D01*
X013661Y024474D02*
X013371Y024474D01*
X013312Y024553D02*
X013351Y024592D01*
X013351Y024649D01*
X013413Y024710D02*
X013661Y024710D01*
X013661Y024788D02*
X013430Y024788D01*
X013430Y024867D02*
X013661Y024867D01*
X013661Y024945D02*
X013430Y024945D01*
X013430Y025024D02*
X013661Y025024D01*
X013661Y025102D02*
X013406Y025102D01*
X013351Y025181D02*
X013661Y025181D01*
X013661Y025259D02*
X013351Y025259D01*
X013351Y025338D02*
X013661Y025338D01*
X013661Y025416D02*
X013410Y025416D01*
X013430Y025495D02*
X013661Y025495D01*
X013661Y025573D02*
X013430Y025573D01*
X013430Y025652D02*
X013661Y025652D01*
X013661Y025730D02*
X013430Y025730D01*
X013409Y025809D02*
X013661Y025809D01*
X013661Y025887D02*
X013094Y025887D01*
X013171Y025612D02*
X013171Y024903D01*
X013171Y024667D01*
X013132Y024628D01*
X012837Y025277D02*
X012699Y025415D01*
X012699Y025612D01*
X012542Y025612D01*
X012423Y025494D01*
X012384Y025494D01*
X012187Y025494D01*
X012148Y025454D01*
X011990Y025454D01*
X011776Y025730D02*
X012227Y025730D01*
X012462Y025809D02*
X011796Y025809D01*
X011796Y025887D02*
X012777Y025887D01*
X012423Y025002D02*
X012384Y025002D01*
X012148Y025002D01*
X012089Y025061D01*
X011990Y025061D01*
X012203Y024788D02*
X011107Y024788D01*
X011107Y024710D02*
X012458Y024710D01*
X012522Y024903D02*
X012423Y025002D01*
X012522Y024903D02*
X012699Y024903D01*
X012773Y024631D02*
X011107Y024631D01*
X011107Y024867D02*
X011770Y024867D01*
X011732Y024945D02*
X011107Y024945D01*
X011107Y025024D02*
X011732Y025024D01*
X011732Y025102D02*
X011107Y025102D01*
X011107Y025181D02*
X011693Y025181D01*
X011693Y025259D02*
X011147Y025259D01*
X011166Y025338D02*
X011693Y025338D01*
X011732Y025416D02*
X011166Y025416D01*
X011166Y025495D02*
X011732Y025495D01*
X011732Y025573D02*
X011166Y025573D01*
X011147Y025652D02*
X011773Y025652D01*
X011339Y025730D02*
X011205Y025730D01*
X011205Y026123D02*
X011339Y026123D01*
X010729Y026123D02*
X009866Y026123D01*
X009944Y026044D02*
X010709Y026044D01*
X010709Y025966D02*
X009976Y025966D01*
X009986Y025887D02*
X010709Y025887D01*
X010709Y025809D02*
X009976Y025809D01*
X009944Y025730D02*
X010572Y025730D01*
X010534Y025454D02*
X010061Y025454D01*
X009983Y025533D01*
X009589Y025533D01*
X009589Y025769D01*
X009707Y025887D01*
X009589Y025533D02*
X009589Y025494D01*
X010278Y025652D02*
X010317Y025652D01*
X010359Y025181D02*
X010570Y025181D01*
X010747Y025102D02*
X010340Y025102D01*
X010319Y025024D02*
X010747Y025024D01*
X010747Y024945D02*
X010319Y024945D01*
X010282Y024867D02*
X010747Y024867D01*
X008211Y024867D02*
X005061Y024867D01*
X005061Y024945D02*
X008211Y024945D01*
X008211Y025024D02*
X005061Y025024D01*
X004899Y025181D02*
X000359Y025181D01*
X000359Y025259D02*
X004977Y025259D01*
X005951Y025338D02*
X000359Y025338D01*
X000359Y025416D02*
X006023Y025416D01*
X006096Y025495D02*
X000359Y025495D01*
X000359Y025573D02*
X006168Y025573D01*
X006239Y025652D02*
X000359Y025652D01*
X000359Y025730D02*
X006313Y025730D01*
X006368Y025495D02*
X008211Y025495D01*
X008211Y025416D02*
X006295Y025416D01*
X006223Y025338D02*
X008211Y025338D01*
X008211Y025259D02*
X006150Y025259D01*
X006078Y025181D02*
X008211Y025181D01*
X008211Y025102D02*
X006005Y025102D01*
X007112Y024553D02*
X008211Y024553D01*
X007699Y020061D02*
X007699Y019706D01*
X007227Y019234D01*
X006636Y019234D01*
X006600Y018976D02*
X006792Y018976D01*
X006871Y019054D01*
X007301Y019054D01*
X007774Y019526D01*
X007873Y019625D01*
X007875Y019625D01*
X007894Y019644D01*
X007894Y019060D01*
X007875Y019079D01*
X007523Y019079D01*
X007441Y018997D01*
X007441Y018290D01*
X007519Y018212D01*
X007519Y017261D01*
X007290Y017032D01*
X007211Y017032D01*
X007108Y016990D01*
X007030Y016911D01*
X007020Y016889D01*
X006600Y017309D01*
X006600Y018976D01*
X006600Y018901D02*
X007441Y018901D01*
X007441Y018979D02*
X006796Y018979D01*
X006600Y018822D02*
X007441Y018822D01*
X007441Y018744D02*
X006600Y018744D01*
X006600Y018665D02*
X007441Y018665D01*
X007441Y018587D02*
X006600Y018587D01*
X006600Y018508D02*
X007441Y018508D01*
X007441Y018430D02*
X006600Y018430D01*
X006600Y018351D02*
X007441Y018351D01*
X007458Y018273D02*
X006600Y018273D01*
X006600Y018194D02*
X007519Y018194D01*
X007519Y018116D02*
X006600Y018116D01*
X006600Y018037D02*
X007519Y018037D01*
X007519Y017959D02*
X006600Y017959D01*
X006600Y017880D02*
X007519Y017880D01*
X007519Y017802D02*
X006600Y017802D01*
X006600Y017723D02*
X007519Y017723D01*
X007519Y017645D02*
X006600Y017645D01*
X006600Y017566D02*
X007519Y017566D01*
X007519Y017488D02*
X006600Y017488D01*
X006600Y017409D02*
X007519Y017409D01*
X007519Y017331D02*
X006600Y017331D01*
X006656Y017252D02*
X007510Y017252D01*
X007432Y017174D02*
X006735Y017174D01*
X006813Y017095D02*
X007353Y017095D01*
X007173Y017017D02*
X006892Y017017D01*
X006970Y016938D02*
X007057Y016938D01*
X007266Y016754D02*
X007699Y017187D01*
X007699Y018643D01*
X007894Y019136D02*
X007384Y019136D01*
X007305Y019058D02*
X007502Y019058D01*
X007462Y019215D02*
X007894Y019215D01*
X007894Y019293D02*
X007541Y019293D01*
X007619Y019372D02*
X007894Y019372D01*
X007894Y019450D02*
X007698Y019450D01*
X007776Y019529D02*
X007894Y019529D01*
X007894Y019607D02*
X007855Y019607D01*
X007305Y020061D02*
X007030Y019785D01*
X006636Y019785D01*
X006242Y018761D02*
X006242Y017108D01*
X004528Y016781D02*
X001869Y016781D01*
X001874Y016703D02*
X004528Y016703D01*
X004528Y016624D02*
X001874Y016624D01*
X001860Y016546D02*
X004528Y016546D01*
X004528Y016467D02*
X001828Y016467D01*
X001785Y016389D02*
X004528Y016389D01*
X004528Y016310D02*
X001707Y016310D01*
X001571Y016232D02*
X004528Y016232D01*
X004528Y016153D02*
X000359Y016153D01*
X000359Y016075D02*
X004528Y016075D01*
X004472Y016860D02*
X001837Y016860D01*
X001804Y016938D02*
X004393Y016938D01*
X004315Y017017D02*
X001729Y017017D01*
X001940Y018822D02*
X001987Y018822D01*
X003311Y020078D02*
X003644Y020078D01*
X003644Y020000D02*
X003390Y020000D01*
X003468Y019921D02*
X003644Y019921D01*
X003644Y019843D02*
X003547Y019843D01*
X003625Y019764D02*
X003644Y019764D01*
X001400Y014313D02*
X001951Y013761D01*
X001951Y012580D01*
X002485Y011208D02*
X002496Y011208D01*
X002789Y010658D02*
X003747Y010658D01*
X003669Y010580D02*
X002867Y010580D01*
X002946Y010501D02*
X003590Y010501D01*
X003512Y010423D02*
X003024Y010423D01*
X003103Y010344D02*
X003348Y010344D01*
X003258Y010266D02*
X003181Y010266D01*
X003823Y008931D02*
X004173Y008931D01*
X004173Y008853D02*
X003823Y008853D01*
X003823Y008774D02*
X004129Y008774D01*
X004089Y008696D02*
X003823Y008696D01*
X003823Y008617D02*
X004074Y008617D01*
X004078Y008539D02*
X003823Y008539D01*
X003823Y008460D02*
X004110Y008460D01*
X004180Y008382D02*
X003896Y008382D01*
X004131Y008146D02*
X005276Y008146D01*
X005276Y008068D02*
X004210Y008068D01*
X004288Y007989D02*
X005276Y007989D01*
X005340Y007911D02*
X004367Y007911D01*
X004353Y008604D02*
X004353Y009234D01*
X004162Y009010D02*
X004149Y009010D01*
X004353Y008604D02*
X004825Y008604D01*
X004916Y009245D02*
X006475Y009245D01*
X006490Y009324D02*
X005034Y009324D01*
X005082Y009402D02*
X006529Y009402D01*
X006622Y009481D02*
X005664Y009481D01*
X005573Y009943D02*
X005258Y010258D01*
X005219Y010580D02*
X005652Y010580D01*
X005652Y010658D02*
X005219Y010658D01*
X005219Y010737D02*
X005652Y010737D01*
X005652Y010815D02*
X005219Y010815D01*
X005219Y010894D02*
X005652Y010894D01*
X005652Y010972D02*
X005219Y010972D01*
X005219Y011051D02*
X005652Y011051D01*
X005652Y011129D02*
X005219Y011129D01*
X005219Y011208D02*
X005652Y011208D01*
X005634Y011286D02*
X005219Y011286D01*
X005219Y011365D02*
X005629Y011365D01*
X005639Y011443D02*
X005219Y011443D01*
X005219Y011522D02*
X005652Y011522D01*
X005652Y011600D02*
X005219Y011600D01*
X005215Y011679D02*
X005656Y011679D01*
X005735Y012228D02*
X006080Y012228D01*
X006159Y012307D02*
X005657Y012307D01*
X005578Y012385D02*
X006237Y012385D01*
X006316Y012464D02*
X005500Y012464D01*
X005136Y011757D02*
X007156Y011757D01*
X007223Y011679D02*
X006750Y011679D01*
X006990Y011950D02*
X006990Y011993D01*
X007089Y011836D02*
X004901Y011836D01*
X005785Y010423D02*
X006880Y010423D01*
X006843Y010344D02*
X006078Y010344D01*
X006146Y010266D02*
X006830Y010266D01*
X006836Y010187D02*
X006146Y010187D01*
X006146Y009716D02*
X006765Y009716D01*
X006724Y009638D02*
X006146Y009638D01*
X006097Y009559D02*
X006693Y009559D01*
X006754Y009234D02*
X006616Y009096D01*
X006616Y008624D01*
X006802Y008853D02*
X007965Y008853D01*
X007869Y008774D02*
X006874Y008774D01*
X006874Y008696D02*
X007829Y008696D01*
X007814Y008617D02*
X006874Y008617D01*
X006874Y008539D02*
X007818Y008539D01*
X007851Y008460D02*
X006868Y008460D01*
X006874Y008382D02*
X007921Y008382D01*
X008093Y008604D02*
X008211Y008722D01*
X008388Y008722D01*
X008408Y008742D01*
X008159Y008931D02*
X006796Y008931D01*
X006924Y009010D02*
X008159Y009010D01*
X008368Y009313D02*
X007837Y009313D01*
X007837Y009628D02*
X007030Y009628D01*
X007199Y009402D02*
X007392Y009402D01*
X007392Y009324D02*
X007091Y009324D01*
X007082Y009245D02*
X007392Y009245D01*
X007392Y009167D02*
X007028Y009167D01*
X006996Y009088D02*
X007450Y009088D01*
X007837Y009943D02*
X005809Y009943D01*
X005573Y009943D01*
X005852Y010501D02*
X006969Y010501D01*
X007061Y010658D02*
X005852Y010658D01*
X005852Y010580D02*
X007392Y010580D01*
X007392Y010501D02*
X007248Y010501D01*
X007109Y010258D02*
X007837Y010258D01*
X006987Y010737D02*
X005852Y010737D01*
X005852Y010815D02*
X006955Y010815D01*
X006948Y010894D02*
X005852Y010894D01*
X005852Y010972D02*
X006960Y010972D01*
X006996Y011051D02*
X005852Y011051D01*
X005852Y011129D02*
X007082Y011129D01*
X007854Y012778D02*
X007934Y012778D01*
X009380Y009952D02*
X009389Y009952D01*
X009474Y009559D02*
X010325Y009559D01*
X010738Y009481D02*
X009452Y009481D01*
X009404Y009402D02*
X010797Y009402D01*
X011183Y009628D02*
X012187Y009628D01*
X012158Y009402D02*
X011570Y009402D01*
X011522Y008460D02*
X012244Y008460D01*
X012244Y008382D02*
X011601Y008382D01*
X011679Y008303D02*
X012244Y008303D01*
X012244Y008225D02*
X011758Y008225D01*
X011836Y008146D02*
X012244Y008146D01*
X012236Y009324D02*
X009285Y009324D01*
X009392Y007620D02*
X010849Y007620D01*
X011636Y006832D01*
X011636Y005297D01*
X011515Y005163D02*
X010713Y005163D01*
X010713Y005085D02*
X011593Y005085D01*
X011672Y005006D02*
X010713Y005006D01*
X010713Y004928D02*
X011750Y004928D01*
X011829Y004849D02*
X010713Y004849D01*
X010713Y004771D02*
X011907Y004771D01*
X011986Y004692D02*
X010713Y004692D01*
X010713Y004614D02*
X012064Y004614D01*
X011456Y005242D02*
X010713Y005242D01*
X010713Y005320D02*
X011456Y005320D01*
X011456Y005399D02*
X010713Y005399D01*
X010713Y005477D02*
X011456Y005477D01*
X011456Y005556D02*
X010713Y005556D01*
X010713Y005634D02*
X011456Y005634D01*
X011456Y005713D02*
X010713Y005713D01*
X010713Y005791D02*
X011456Y005791D01*
X011456Y005870D02*
X010713Y005870D01*
X010713Y005948D02*
X011456Y005948D01*
X011456Y006027D02*
X010713Y006027D01*
X010713Y006105D02*
X011456Y006105D01*
X011456Y006184D02*
X010713Y006184D01*
X010713Y006262D02*
X011456Y006262D01*
X011456Y006341D02*
X010713Y006341D01*
X010713Y006419D02*
X011456Y006419D01*
X011456Y006498D02*
X010713Y006498D01*
X010713Y006576D02*
X011456Y006576D01*
X011456Y006655D02*
X010713Y006655D01*
X010713Y006733D02*
X011456Y006733D01*
X011402Y006812D02*
X010713Y006812D01*
X010694Y006890D02*
X011323Y006890D01*
X011245Y006969D02*
X010644Y006969D01*
X010601Y007012D02*
X010601Y007012D01*
X010566Y007047D02*
X011166Y007047D01*
X011088Y007126D02*
X010516Y007126D01*
X010516Y007204D02*
X011009Y007204D01*
X010931Y007283D02*
X010516Y007283D01*
X010439Y007361D02*
X010852Y007361D01*
X010274Y007361D02*
X010268Y007361D01*
X009992Y006890D02*
X009512Y006890D01*
X009513Y006812D02*
X010071Y006812D01*
X010149Y006733D02*
X009495Y006733D01*
X009493Y006655D02*
X010197Y006655D01*
X010197Y006576D02*
X009493Y006576D01*
X009493Y006498D02*
X010197Y006498D01*
X010197Y006419D02*
X009493Y006419D01*
X009453Y006341D02*
X010197Y006341D01*
X010197Y006105D02*
X010081Y006105D01*
X010159Y006027D02*
X010197Y006027D01*
X010197Y005948D02*
X010162Y005948D01*
X010162Y005870D02*
X010197Y005870D01*
X010197Y005791D02*
X010162Y005791D01*
X010162Y005713D02*
X010197Y005713D01*
X010197Y005634D02*
X010124Y005634D01*
X010084Y005556D02*
X010197Y005556D01*
X010197Y005477D02*
X010138Y005477D01*
X010162Y005399D02*
X010197Y005399D01*
X010197Y005320D02*
X010162Y005320D01*
X010162Y005242D02*
X010197Y005242D01*
X010197Y005163D02*
X010162Y005163D01*
X010162Y005085D02*
X010197Y005085D01*
X010197Y005006D02*
X010162Y005006D01*
X010162Y004928D02*
X010197Y004928D01*
X010197Y004849D02*
X010162Y004849D01*
X010162Y004771D02*
X010197Y004771D01*
X010197Y004692D02*
X010108Y004692D01*
X010084Y004614D02*
X010197Y004614D01*
X010197Y004535D02*
X010084Y004535D01*
X010084Y004457D02*
X010197Y004457D01*
X010197Y004378D02*
X010084Y004378D01*
X010084Y004300D02*
X010197Y004300D01*
X010197Y004221D02*
X010114Y004221D01*
X010162Y004143D02*
X010197Y004143D01*
X010197Y004064D02*
X010162Y004064D01*
X010162Y003986D02*
X010197Y003986D01*
X010197Y003907D02*
X010162Y003907D01*
X010162Y003829D02*
X010197Y003829D01*
X010197Y003750D02*
X010162Y003750D01*
X010162Y003672D02*
X010197Y003672D01*
X010197Y003593D02*
X010162Y003593D01*
X010162Y003515D02*
X010197Y003515D01*
X010197Y003436D02*
X010162Y003436D01*
X010162Y003358D02*
X010197Y003358D01*
X010159Y003279D02*
X010092Y003279D01*
X010081Y003201D02*
X010031Y003201D01*
X010002Y003122D02*
X009952Y003122D01*
X009924Y003044D02*
X009483Y003044D01*
X009274Y003250D02*
X009825Y003250D01*
X009904Y003328D01*
X009904Y003525D01*
X009904Y003998D02*
X009904Y004903D01*
X009746Y004903D01*
X009746Y005297D02*
X009431Y005612D01*
X007069Y005612D01*
X007030Y005572D01*
X006833Y005572D01*
X006557Y006439D02*
X006085Y006439D01*
X006085Y006045D01*
X005968Y005791D02*
X005016Y005791D01*
X004983Y005870D02*
X005866Y005870D01*
X005823Y005948D02*
X004951Y005948D01*
X004890Y006027D02*
X005787Y006027D01*
X005709Y006105D02*
X004811Y006105D01*
X004697Y006184D02*
X005709Y006184D01*
X005709Y006262D02*
X003692Y006262D01*
X003614Y006341D02*
X005709Y006341D01*
X005709Y006419D02*
X003535Y006419D01*
X003457Y006498D02*
X005709Y006498D01*
X005709Y006576D02*
X004548Y006576D01*
X004737Y006655D02*
X005709Y006655D01*
X005346Y006733D02*
X004828Y006733D01*
X004907Y006812D02*
X005239Y006812D01*
X004999Y005399D02*
X006275Y005399D01*
X006242Y005320D02*
X004966Y005320D01*
X004927Y005242D02*
X006239Y005242D01*
X006255Y005163D02*
X004849Y005163D01*
X004770Y005085D02*
X006296Y005085D01*
X006108Y005006D02*
X004597Y005006D01*
X004195Y005006D02*
X000359Y005006D01*
X000359Y004928D02*
X006102Y004928D01*
X006102Y004849D02*
X000359Y004849D01*
X000359Y004771D02*
X006070Y004771D01*
X006024Y004692D02*
X000359Y004692D01*
X000359Y004614D02*
X006024Y004614D01*
X006024Y004535D02*
X000359Y004535D01*
X000359Y004457D02*
X006024Y004457D01*
X006024Y004378D02*
X000359Y004378D01*
X000359Y004300D02*
X006096Y004300D01*
X006102Y004221D02*
X004523Y004221D01*
X004510Y004234D02*
X004408Y004276D01*
X004297Y004276D01*
X004195Y004234D01*
X004146Y004185D01*
X004076Y004256D01*
X003763Y004256D01*
X003723Y004215D01*
X003682Y004256D01*
X003369Y004256D01*
X003287Y004174D01*
X003287Y003822D01*
X003346Y003763D01*
X003346Y003606D01*
X003192Y003606D01*
X003110Y003524D01*
X003110Y003075D01*
X003010Y003075D01*
X001706Y001771D01*
X001523Y001846D01*
X001269Y001846D01*
X001033Y001749D01*
X000853Y001569D01*
X000756Y001334D01*
X000756Y001079D01*
X000853Y000844D01*
X001033Y000664D01*
X001269Y000566D01*
X001523Y000566D01*
X001758Y000664D01*
X001938Y000844D01*
X002036Y001079D01*
X002036Y001334D01*
X001960Y001516D01*
X003159Y002715D01*
X003976Y002715D01*
X003976Y002640D01*
X004058Y002558D01*
X004726Y002558D01*
X004808Y002640D01*
X004808Y003150D01*
X004726Y003232D01*
X004058Y003232D01*
X003976Y003150D01*
X003976Y003075D01*
X003941Y003075D01*
X003941Y003524D01*
X003859Y003606D01*
X003706Y003606D01*
X003706Y003763D01*
X003723Y003780D01*
X003763Y003740D01*
X004076Y003740D01*
X004146Y003810D01*
X004195Y003761D01*
X004297Y003719D01*
X004408Y003719D01*
X004510Y003761D01*
X004589Y003840D01*
X004631Y003942D01*
X004631Y004053D01*
X004589Y004156D01*
X004510Y004234D01*
X004594Y004143D02*
X006102Y004143D01*
X006135Y004064D02*
X004627Y004064D01*
X004631Y003986D02*
X007110Y003986D01*
X007188Y003907D02*
X004617Y003907D01*
X004578Y003829D02*
X007244Y003829D01*
X007244Y003750D02*
X004484Y003750D01*
X004353Y003998D02*
X003920Y003998D01*
X004110Y004221D02*
X004182Y004221D01*
X004221Y003750D02*
X004087Y003750D01*
X003872Y003593D02*
X007244Y003593D01*
X007244Y003515D02*
X003941Y003515D01*
X003941Y003436D02*
X007244Y003436D01*
X007244Y003358D02*
X003941Y003358D01*
X003941Y003279D02*
X007244Y003279D01*
X007244Y003201D02*
X004757Y003201D01*
X004808Y003122D02*
X007276Y003122D01*
X007343Y003044D02*
X004808Y003044D01*
X004808Y002965D02*
X007421Y002965D01*
X007500Y002887D02*
X004808Y002887D01*
X004808Y002808D02*
X007578Y002808D01*
X007657Y002730D02*
X004808Y002730D01*
X004808Y002651D02*
X007735Y002651D01*
X007814Y002573D02*
X004740Y002573D01*
X004392Y002895D02*
X003085Y002895D01*
X001396Y001206D01*
X001630Y000610D02*
X004162Y000610D01*
X004269Y000566D02*
X004033Y000664D01*
X003853Y000844D01*
X003756Y001079D01*
X003756Y001334D01*
X003853Y001569D01*
X004033Y001749D01*
X004269Y001846D01*
X004523Y001846D01*
X004758Y001749D01*
X004938Y001569D01*
X005036Y001334D01*
X005036Y001079D01*
X004938Y000844D01*
X004758Y000664D01*
X004523Y000566D01*
X004269Y000566D01*
X004008Y000689D02*
X001784Y000689D01*
X001862Y000767D02*
X003930Y000767D01*
X003852Y000846D02*
X001939Y000846D01*
X001972Y000924D02*
X003820Y000924D01*
X003787Y001003D02*
X002004Y001003D01*
X002036Y001081D02*
X003756Y001081D01*
X003756Y001160D02*
X002036Y001160D01*
X002036Y001238D02*
X003756Y001238D01*
X003756Y001317D02*
X002036Y001317D01*
X002010Y001395D02*
X003781Y001395D01*
X003814Y001474D02*
X001978Y001474D01*
X001997Y001552D02*
X003847Y001552D01*
X003915Y001631D02*
X002075Y001631D01*
X002154Y001709D02*
X003994Y001709D01*
X004128Y001788D02*
X002232Y001788D01*
X002311Y001866D02*
X006567Y001866D01*
X006565Y001862D02*
X006565Y001094D01*
X006632Y000934D01*
X006755Y000811D01*
X006915Y000744D01*
X007089Y000744D01*
X007250Y000811D01*
X007373Y000934D01*
X007439Y001094D01*
X007439Y001862D01*
X007373Y002022D01*
X007250Y002145D01*
X007089Y002212D01*
X006915Y002212D01*
X006755Y002145D01*
X006632Y002022D01*
X006565Y001862D01*
X006565Y001788D02*
X004664Y001788D01*
X004798Y001709D02*
X006565Y001709D01*
X006565Y001631D02*
X004876Y001631D01*
X004945Y001552D02*
X006565Y001552D01*
X006565Y001474D02*
X004978Y001474D01*
X005010Y001395D02*
X006565Y001395D01*
X006565Y001317D02*
X005036Y001317D01*
X005036Y001238D02*
X006565Y001238D01*
X006565Y001160D02*
X005036Y001160D01*
X005036Y001081D02*
X006571Y001081D01*
X006603Y001003D02*
X005004Y001003D01*
X004972Y000924D02*
X006641Y000924D01*
X006720Y000846D02*
X004939Y000846D01*
X004862Y000767D02*
X006859Y000767D01*
X007145Y000767D02*
X007859Y000767D01*
X007915Y000744D02*
X008089Y000744D01*
X008250Y000811D01*
X008373Y000934D01*
X008439Y001094D01*
X008439Y001862D01*
X008373Y002022D01*
X008250Y002145D01*
X008089Y002212D01*
X007915Y002212D01*
X007755Y002145D01*
X007632Y002022D01*
X007565Y001862D01*
X007565Y001094D01*
X007632Y000934D01*
X007755Y000811D01*
X007915Y000744D01*
X007720Y000846D02*
X007285Y000846D01*
X007363Y000924D02*
X007641Y000924D01*
X007603Y001003D02*
X007401Y001003D01*
X007434Y001081D02*
X007571Y001081D01*
X007565Y001160D02*
X007439Y001160D01*
X007439Y001238D02*
X007565Y001238D01*
X007565Y001317D02*
X007439Y001317D01*
X007439Y001395D02*
X007565Y001395D01*
X007565Y001474D02*
X007439Y001474D01*
X007439Y001552D02*
X007565Y001552D01*
X007565Y001631D02*
X007439Y001631D01*
X007439Y001709D02*
X007565Y001709D01*
X007565Y001788D02*
X007439Y001788D01*
X007437Y001866D02*
X007567Y001866D01*
X007600Y001945D02*
X007405Y001945D01*
X007371Y002023D02*
X007633Y002023D01*
X007711Y002102D02*
X007293Y002102D01*
X007165Y002180D02*
X007840Y002180D01*
X007892Y002494D02*
X002939Y002494D01*
X003017Y002573D02*
X004044Y002573D01*
X003976Y002651D02*
X003096Y002651D01*
X002860Y002416D02*
X010807Y002416D01*
X010835Y002337D02*
X002782Y002337D01*
X002703Y002259D02*
X011090Y002259D01*
X011062Y002180D02*
X008165Y002180D01*
X008293Y002102D02*
X010989Y002102D01*
X010910Y002023D02*
X008371Y002023D01*
X008405Y001945D02*
X010832Y001945D01*
X010753Y001866D02*
X008437Y001866D01*
X008439Y001788D02*
X010677Y001788D01*
X010677Y001709D02*
X008439Y001709D01*
X008439Y001631D02*
X010677Y001631D01*
X010677Y001552D02*
X008439Y001552D01*
X008439Y001474D02*
X010677Y001474D01*
X010677Y001395D02*
X008439Y001395D01*
X008439Y001317D02*
X010683Y001317D01*
X010762Y001238D02*
X008439Y001238D01*
X008439Y001160D02*
X010840Y001160D01*
X010919Y001081D02*
X008434Y001081D01*
X008401Y001003D02*
X010997Y001003D01*
X011242Y001557D02*
X011242Y002147D01*
X011439Y002344D01*
X011439Y002541D01*
X011650Y002337D02*
X012047Y002337D01*
X012047Y002259D02*
X011609Y002259D01*
X011530Y002180D02*
X012047Y002180D01*
X012047Y002102D02*
X011496Y002102D01*
X011575Y002023D02*
X012047Y002023D01*
X012047Y001945D02*
X011653Y001945D01*
X011732Y001866D02*
X012006Y001866D01*
X011928Y001788D02*
X011807Y001788D01*
X011951Y001557D02*
X011242Y001557D01*
X011645Y001160D02*
X013661Y001160D01*
X013661Y001238D02*
X011723Y001238D01*
X011802Y001317D02*
X013661Y001317D01*
X013661Y001395D02*
X012044Y001395D01*
X012123Y001474D02*
X013661Y001474D01*
X013661Y001552D02*
X012201Y001552D01*
X011951Y001557D02*
X012384Y001990D01*
X012384Y002029D01*
X012656Y001631D02*
X013661Y001631D01*
X013661Y001709D02*
X012721Y001709D01*
X012721Y001788D02*
X013661Y001788D01*
X013661Y001866D02*
X012721Y001866D01*
X012721Y001945D02*
X013661Y001945D01*
X013661Y002023D02*
X012721Y002023D01*
X012721Y002102D02*
X013661Y002102D01*
X013661Y002180D02*
X012721Y002180D01*
X012721Y002259D02*
X013661Y002259D01*
X013661Y002337D02*
X012721Y002337D01*
X012668Y002416D02*
X013661Y002416D01*
X013661Y002494D02*
X013028Y002494D01*
X013095Y002573D02*
X013661Y002573D01*
X013661Y002651D02*
X013095Y002651D01*
X013095Y002730D02*
X013661Y002730D01*
X013661Y002808D02*
X013095Y002808D01*
X013095Y002887D02*
X013661Y002887D01*
X013661Y002965D02*
X013095Y002965D01*
X013095Y003044D02*
X013661Y003044D01*
X013661Y003122D02*
X013095Y003122D01*
X013095Y003201D02*
X013661Y003201D01*
X013661Y003279D02*
X013044Y003279D01*
X012938Y003358D02*
X013661Y003358D01*
X013661Y003436D02*
X012938Y003436D01*
X012938Y003515D02*
X013661Y003515D01*
X013661Y003593D02*
X012946Y003593D01*
X012997Y003672D02*
X013661Y003672D01*
X013661Y003750D02*
X012997Y003750D01*
X013004Y003829D02*
X013661Y003829D01*
X013661Y003907D02*
X013036Y003907D01*
X013036Y003986D02*
X013661Y003986D01*
X013661Y004064D02*
X013036Y004064D01*
X013027Y004143D02*
X013661Y004143D01*
X013661Y004221D02*
X012997Y004221D01*
X012997Y004300D02*
X013661Y004300D01*
X013661Y004378D02*
X012969Y004378D01*
X012738Y003801D02*
X012758Y003781D01*
X012758Y002895D01*
X012421Y002730D02*
X011665Y002730D01*
X011678Y002651D02*
X012421Y002651D01*
X012421Y002573D02*
X011678Y002573D01*
X011678Y002494D02*
X012489Y002494D01*
X012100Y002416D02*
X011678Y002416D01*
X011242Y002935D02*
X011046Y002738D01*
X011046Y002541D01*
X011566Y001081D02*
X013661Y001081D01*
X013661Y001003D02*
X011488Y001003D01*
X009646Y003436D02*
X009502Y003436D01*
X008880Y003250D02*
X008526Y003250D01*
X008110Y004064D02*
X007973Y004064D01*
X007244Y003672D02*
X003706Y003672D01*
X003706Y003750D02*
X003752Y003750D01*
X003526Y003998D02*
X003526Y003269D01*
X003346Y003672D02*
X000359Y003672D01*
X000359Y003750D02*
X003346Y003750D01*
X003287Y003829D02*
X000359Y003829D01*
X000359Y003907D02*
X003287Y003907D01*
X003287Y003986D02*
X000359Y003986D01*
X000359Y004064D02*
X003287Y004064D01*
X003287Y004143D02*
X000359Y004143D01*
X000359Y004221D02*
X003335Y004221D01*
X003179Y003593D02*
X000359Y003593D01*
X000359Y003515D02*
X003110Y003515D01*
X003110Y003436D02*
X000359Y003436D01*
X000359Y003358D02*
X003110Y003358D01*
X003110Y003279D02*
X000359Y003279D01*
X000359Y003201D02*
X003110Y003201D01*
X003110Y003122D02*
X000359Y003122D01*
X000359Y003044D02*
X002979Y003044D01*
X002900Y002965D02*
X000359Y002965D01*
X000359Y002887D02*
X002822Y002887D01*
X002743Y002808D02*
X000359Y002808D01*
X000359Y002730D02*
X002665Y002730D01*
X002586Y002651D02*
X000359Y002651D01*
X000359Y002573D02*
X002508Y002573D01*
X002429Y002494D02*
X000359Y002494D01*
X000359Y002416D02*
X002351Y002416D01*
X002272Y002337D02*
X000359Y002337D01*
X000359Y002259D02*
X002194Y002259D01*
X002115Y002180D02*
X000359Y002180D01*
X000359Y002102D02*
X002037Y002102D01*
X001958Y002023D02*
X000359Y002023D01*
X000359Y001945D02*
X001880Y001945D01*
X001801Y001866D02*
X000359Y001866D01*
X000359Y001788D02*
X001128Y001788D01*
X000994Y001709D02*
X000359Y001709D01*
X000359Y001631D02*
X000915Y001631D01*
X000847Y001552D02*
X000359Y001552D01*
X000359Y001474D02*
X000814Y001474D01*
X000781Y001395D02*
X000359Y001395D01*
X000359Y001317D02*
X000756Y001317D01*
X000756Y001238D02*
X000359Y001238D01*
X000359Y001160D02*
X000756Y001160D01*
X000756Y001081D02*
X000359Y001081D01*
X000359Y001003D02*
X000787Y001003D01*
X000820Y000924D02*
X000359Y000924D01*
X000359Y000846D02*
X000852Y000846D01*
X000930Y000767D02*
X000359Y000767D01*
X000359Y000689D02*
X001008Y000689D01*
X001162Y000610D02*
X000359Y000610D01*
X000359Y000532D02*
X013661Y000532D01*
X013661Y000610D02*
X004630Y000610D01*
X004784Y000689D02*
X013661Y000689D01*
X013661Y000767D02*
X008145Y000767D01*
X008285Y000846D02*
X013661Y000846D01*
X013661Y000924D02*
X008363Y000924D01*
X006840Y002180D02*
X002625Y002180D01*
X002546Y002102D02*
X006711Y002102D01*
X006633Y002023D02*
X002468Y002023D01*
X002389Y001945D02*
X006600Y001945D01*
X006894Y004064D02*
X007031Y004064D01*
X009234Y006557D02*
X009234Y006832D01*
X009506Y005791D02*
X009646Y005791D01*
X009646Y005713D02*
X009585Y005713D01*
X009663Y005634D02*
X009683Y005634D01*
X009904Y005848D02*
X009904Y005297D01*
X009746Y005297D01*
X008235Y008303D02*
X006874Y008303D01*
X006616Y008230D02*
X005691Y008230D01*
X004244Y006576D02*
X003378Y006576D01*
X003300Y006655D02*
X004055Y006655D01*
X003964Y006733D02*
X003221Y006733D01*
X003143Y006812D02*
X003885Y006812D01*
X003834Y006890D02*
X003064Y006890D01*
X002986Y006969D02*
X003802Y006969D01*
X003769Y007047D02*
X002907Y007047D01*
X002878Y007126D02*
X003754Y007126D01*
X003675Y007204D02*
X002878Y007204D01*
X002878Y007283D02*
X003597Y007283D01*
X003518Y007361D02*
X002878Y007361D01*
X002878Y007440D02*
X003440Y007440D01*
X003361Y007518D02*
X002878Y007518D01*
X002878Y007597D02*
X003283Y007597D01*
X003204Y007675D02*
X002878Y007675D01*
X002878Y007754D02*
X003126Y007754D01*
X003047Y007832D02*
X002878Y007832D01*
X002878Y007911D02*
X002969Y007911D01*
X002902Y007989D02*
X002878Y007989D01*
X003771Y006184D02*
X004095Y006184D01*
X004022Y005085D02*
X000359Y005085D01*
X000359Y005163D02*
X003440Y005163D01*
X003315Y005242D02*
X000359Y005242D01*
X000359Y005320D02*
X003236Y005320D01*
X003158Y005399D02*
X000359Y005399D01*
X000359Y005477D02*
X003079Y005477D01*
X003717Y004221D02*
X003729Y004221D01*
X003941Y003201D02*
X004027Y003201D01*
X003976Y003122D02*
X003941Y003122D01*
X001723Y001788D02*
X001664Y001788D01*
X000359Y000453D02*
X013661Y000453D01*
X013661Y000375D02*
X000359Y000375D01*
X000359Y000296D02*
X013661Y000296D01*
X013579Y005556D02*
X013661Y005556D01*
X012030Y011124D02*
X012030Y012183D01*
X013053Y013206D01*
X012703Y013206D01*
X012148Y013761D01*
X012148Y016478D01*
X012620Y016950D01*
X012620Y017502D01*
X012793Y017723D02*
X013661Y017723D01*
X013661Y017645D02*
X012863Y017645D01*
X012895Y017566D02*
X013661Y017566D01*
X013661Y017488D02*
X012899Y017488D01*
X012884Y017409D02*
X013661Y017409D01*
X013661Y017331D02*
X012844Y017331D01*
X012800Y017252D02*
X013661Y017252D01*
X013661Y017174D02*
X012800Y017174D01*
X012800Y017095D02*
X013661Y017095D01*
X013661Y017017D02*
X012800Y017017D01*
X012800Y016938D02*
X013661Y016938D01*
X013661Y016860D02*
X012784Y016860D01*
X012706Y016781D02*
X013661Y016781D01*
X013661Y016703D02*
X012627Y016703D01*
X012549Y016624D02*
X013661Y016624D01*
X013661Y016546D02*
X012470Y016546D01*
X012392Y016467D02*
X013661Y016467D01*
X013661Y016389D02*
X012328Y016389D01*
X012328Y016310D02*
X013661Y016310D01*
X013661Y016232D02*
X012328Y016232D01*
X012328Y016153D02*
X013661Y016153D01*
X013661Y016075D02*
X012328Y016075D01*
X013016Y018587D02*
X013661Y018587D01*
X013661Y018665D02*
X013112Y018665D01*
X013178Y018744D02*
X013661Y018744D01*
X013661Y018822D02*
X013211Y018822D01*
X013236Y018901D02*
X013661Y018901D01*
X013661Y018979D02*
X013236Y018979D01*
X013236Y019058D02*
X013661Y019058D01*
X013661Y019136D02*
X013203Y019136D01*
X013170Y019215D02*
X013661Y019215D01*
X013661Y019293D02*
X013094Y019293D01*
X013661Y018194D02*
X009768Y018194D01*
X009528Y018194D02*
X009276Y018194D01*
X009198Y018116D02*
X013661Y018116D01*
X011892Y018665D02*
X011716Y018665D01*
X011794Y018744D02*
X011826Y018744D01*
X010557Y017959D02*
X010476Y017959D01*
X010012Y016938D02*
X009854Y016938D01*
X010090Y016860D02*
X008430Y016860D01*
X008430Y016938D02*
X009560Y016938D01*
X010169Y016781D02*
X008430Y016781D01*
X008430Y016703D02*
X010230Y016703D01*
X010269Y016624D02*
X008430Y016624D01*
X008430Y016546D02*
X010362Y016546D01*
X009473Y018665D02*
X009375Y018665D01*
X008516Y017017D02*
X008430Y017017D01*
X013661Y026280D02*
X000359Y026280D01*
X000359Y026358D02*
X013661Y026358D01*
D32*
X012837Y025277D03*
X012384Y025494D03*
X012384Y025002D03*
X012384Y022994D03*
X012384Y022502D03*
X011518Y021399D03*
X010691Y019628D03*
X010376Y017698D03*
X010494Y016793D03*
X009648Y018446D03*
X009274Y017659D03*
X008526Y017344D03*
X008762Y019273D03*
X007778Y019234D03*
X007384Y018092D03*
X007384Y017659D03*
X006951Y017659D03*
X007266Y016754D03*
X006242Y018761D03*
X005219Y019234D03*
X005534Y020730D03*
X004746Y022541D03*
X004746Y022935D03*
X004746Y023328D03*
X005652Y023328D03*
X006085Y023328D03*
X006538Y023919D03*
X007738Y023250D03*
X009077Y022974D03*
X009471Y022187D03*
X010416Y024352D03*
X009707Y025887D03*
X009097Y025002D03*
X012620Y017502D03*
X011833Y016872D03*
X011833Y013840D03*
X011439Y013328D03*
X011439Y012935D03*
X011439Y012541D03*
X011046Y012935D03*
X010770Y012580D03*
X010612Y013053D03*
X010297Y012698D03*
X011046Y012147D03*
X011754Y011321D03*
X011912Y009313D03*
X011912Y008801D03*
X011912Y008289D03*
X011479Y008643D03*
X011479Y009037D03*
X010888Y008742D03*
X010809Y007029D03*
X010849Y006596D03*
X011203Y006832D03*
X010022Y007226D03*
X009392Y007620D03*
X009038Y008250D03*
X008920Y007580D03*
X009234Y006832D03*
X008171Y006832D03*
X007896Y006557D03*
X007620Y006832D03*
X007620Y006281D03*
X008171Y006281D03*
X007935Y005061D03*
X007109Y005021D03*
X006833Y005572D03*
X006518Y005258D03*
X006085Y006045D03*
X006518Y006852D03*
X006557Y006439D03*
X006675Y007580D03*
X006754Y009234D03*
X007030Y009628D03*
X007109Y010258D03*
X007227Y010887D03*
X006794Y011006D03*
X006597Y010691D03*
X006321Y011360D03*
X005927Y011360D03*
X005927Y012305D03*
X005927Y012659D03*
X006321Y012659D03*
X005494Y012659D03*
X004746Y012935D03*
X004746Y013525D03*
X004353Y014116D03*
X004353Y014706D03*
X003762Y014116D03*
X003171Y014903D03*
X003171Y015494D03*
X002581Y015494D03*
X002581Y016084D03*
X002581Y016675D03*
X002581Y017265D03*
X003171Y017265D03*
X002581Y014903D03*
X002581Y014313D03*
X001990Y015494D03*
X001990Y016084D03*
X001990Y016675D03*
X002227Y012856D03*
X002305Y012226D03*
X002660Y011439D03*
X003486Y010100D03*
X003959Y009549D03*
X004353Y008604D03*
X004825Y009509D03*
X005258Y010258D03*
X004628Y011714D03*
X005455Y006990D03*
X004353Y003998D03*
X003565Y002108D03*
X003565Y001517D03*
X003565Y000927D03*
X002975Y000927D03*
X002975Y001517D03*
X002975Y002108D03*
X002384Y001517D03*
X002384Y000927D03*
X001794Y002305D03*
X001794Y002895D03*
X001794Y003486D03*
X001794Y004076D03*
X001794Y004667D03*
X002384Y004667D03*
X002384Y005258D03*
X002384Y004076D03*
X002384Y003486D03*
X002384Y002895D03*
X001203Y002895D03*
X001203Y002305D03*
X001203Y003486D03*
X001203Y004076D03*
X001203Y004667D03*
X007266Y012108D03*
X008093Y013013D03*
X008723Y013013D03*
X009038Y012659D03*
X009116Y010572D03*
X008723Y010218D03*
X009195Y009588D03*
X009668Y009982D03*
X010022Y010258D03*
X008368Y009313D03*
X008093Y008604D03*
X009510Y004746D03*
X009510Y004352D03*
X008526Y003250D03*
X008093Y003250D03*
D33*
X010061Y014706D03*
X006124Y014706D03*
D34*
X003762Y013132D03*
X003762Y016281D03*
D35*
X002187Y020612D02*
X003368Y021793D01*
X004116Y021793D01*
X004825Y021084D01*
X005455Y021084D01*
X005455Y021990D02*
X006951Y021990D01*
X006912Y022029D01*
X006912Y022462D01*
X006951Y021990D02*
X007738Y021990D01*
X007738Y024824D02*
X006715Y024824D01*
X006833Y024943D01*
X006675Y025336D01*
X006715Y024824D02*
X005455Y024824D01*
X005455Y023919D02*
X004431Y023919D01*
X003841Y024509D01*
X002896Y024509D01*
D36*
X006675Y025336D03*
X006912Y022462D03*
D37*
X007935Y005061D02*
X007896Y005021D01*
X007896Y004746D01*
X008132Y004746D01*
X008211Y004824D01*
X008644Y004824D01*
X008644Y004273D02*
X008211Y004273D01*
X008132Y004352D01*
X007896Y004352D01*
X007109Y004352D02*
X006872Y004352D01*
X006794Y004273D01*
X006360Y004273D01*
X006360Y004824D02*
X006794Y004824D01*
X006872Y004746D01*
X007109Y004746D01*
X007109Y005021D01*
D38*
X003959Y009234D02*
X003959Y009549D01*
X003526Y010100D02*
X003486Y010100D01*
X003526Y010100D02*
X004392Y010966D01*
X004628Y010966D01*
X004628Y011714D01*
X004471Y012108D02*
X005258Y012108D01*
X005494Y011872D01*
X005435Y011813D01*
X005435Y010809D01*
X005494Y011872D02*
X006400Y011872D01*
X006616Y012088D01*
X007187Y011517D01*
X007837Y011517D01*
X008329Y011517D01*
X008526Y011321D01*
X009038Y011321D01*
X008093Y013013D02*
X008250Y013171D01*
X008250Y015809D01*
X007935Y016124D01*
X007935Y017935D01*
X008132Y018132D01*
X008132Y020572D01*
X008408Y020848D01*
X008408Y022895D01*
X008250Y023053D01*
X006951Y021990D02*
X006951Y021124D01*
X006242Y020415D01*
X006242Y019785D01*
X006242Y019234D01*
X006242Y018761D01*
X006242Y019234D02*
X005219Y019234D01*
X006242Y017108D02*
X007817Y015533D01*
X007817Y013289D01*
X006616Y012088D01*
X004471Y012108D02*
X003880Y011517D01*
X003880Y011006D01*
X008644Y017226D02*
X008526Y017344D01*
X008526Y017659D01*
X008644Y017226D02*
X009510Y017226D01*
X009274Y017659D02*
X008920Y017659D01*
X009904Y017226D02*
X010061Y017226D01*
X010494Y016793D01*
X010534Y010887D02*
X011183Y010887D01*
X010888Y008742D02*
X010612Y008742D01*
D39*
X010416Y009903D03*
X010534Y010887D03*
X009038Y011321D03*
X003880Y011006D03*
D40*
X002660Y011439D02*
X002660Y013525D01*
X004786Y015651D01*
X004786Y016911D01*
X004353Y017344D01*
X003762Y017344D01*
X003605Y017502D01*
X003605Y019667D01*
X002660Y020612D01*
X002187Y020612D01*
X005455Y023919D02*
X006538Y023919D01*
X007738Y023250D02*
X007738Y024824D01*
X010534Y010887D02*
X010416Y010769D01*
X010416Y009903D01*
X010022Y007226D02*
X010455Y006793D01*
X010455Y004313D01*
X010455Y003210D01*
X009943Y002698D01*
X008053Y002698D01*
X007502Y003250D01*
X007502Y003958D01*
X007109Y004352D01*
X007502Y003958D02*
X007896Y004352D01*
X010455Y004313D02*
X011242Y003525D01*
D41*
X005534Y020730D02*
X005455Y020809D01*
X005455Y021084D01*
D42*
X010376Y017698D02*
X010967Y017698D01*
X008408Y012088D02*
X007955Y012088D01*
X007935Y012108D01*
X007542Y012108D02*
X007266Y012108D01*
D43*
X004396Y007206D02*
X004372Y007206D01*
X004412Y018210D02*
X004412Y019391D01*
X004412Y020356D01*
X004156Y020612D01*
X002404Y019391D02*
X001754Y019391D01*
X001400Y019037D01*
D44*
X001400Y010769D02*
X001715Y010769D01*
X003329Y009155D01*
X003329Y008250D01*
X004372Y007206D01*
X004396Y005616D02*
X003640Y005616D01*
X002384Y006872D01*
X002384Y008840D01*
X001636Y009588D01*
X001400Y009588D01*
M02*
