G75*
G70*
%OFA0B0*%
%FSLAX24Y24*%
%IPPOS*%
%LPD*%
%AMOC8*
5,1,8,0,0,1.08239X$1,22.5*
%
%ADD10C,0.0000*%
%ADD11C,0.0100*%
%ADD12R,0.0276X0.0276*%
%ADD13R,0.0394X0.0315*%
%ADD14R,0.0866X0.0709*%
%ADD15R,0.0669X0.0709*%
%ADD16R,0.0394X0.0551*%
%ADD17C,0.0594*%
%ADD18R,0.0315X0.0394*%
%ADD19R,0.0315X0.0354*%
%ADD20R,0.0591X0.0374*%
%ADD21R,0.0374X0.0591*%
%ADD22C,0.0551*%
%ADD23R,0.1181X0.1181*%
%ADD24C,0.0110*%
%ADD25R,0.0591X0.0669*%
%ADD26C,0.0669*%
%ADD27R,0.0551X0.0394*%
%ADD28C,0.0170*%
%ADD29R,0.0276X0.0276*%
%ADD30R,0.0610X0.0217*%
%ADD31R,0.0217X0.0610*%
%ADD32C,0.0600*%
%ADD33R,0.0354X0.0531*%
%ADD34R,0.0354X0.0315*%
%ADD35R,0.0138X0.0630*%
%ADD36R,0.0413X0.0236*%
%ADD37C,0.0515*%
%ADD38R,0.0315X0.0197*%
%ADD39C,0.0080*%
%ADD40C,0.0238*%
%ADD41C,0.0120*%
%ADD42C,0.0400*%
%ADD43C,0.0240*%
%ADD44C,0.2762*%
%ADD45C,0.1181*%
%ADD46C,0.0160*%
%ADD47C,0.0660*%
%ADD48C,0.0197*%
%ADD49C,0.0320*%
%ADD50C,0.0317*%
%ADD51C,0.0157*%
%ADD52C,0.0138*%
%ADD53C,0.0700*%
%ADD54C,0.0760*%
D10*
X000260Y003292D02*
X000260Y019119D01*
X004394Y019119D01*
X004394Y025615D01*
X013842Y025615D01*
X013842Y003292D01*
X000260Y003292D01*
X004590Y011835D02*
X004592Y011874D01*
X004598Y011913D01*
X004608Y011951D01*
X004621Y011988D01*
X004638Y012023D01*
X004658Y012057D01*
X004682Y012088D01*
X004709Y012117D01*
X004738Y012143D01*
X004770Y012166D01*
X004804Y012186D01*
X004840Y012202D01*
X004877Y012214D01*
X004916Y012223D01*
X004955Y012228D01*
X004994Y012229D01*
X005033Y012226D01*
X005072Y012219D01*
X005109Y012208D01*
X005146Y012194D01*
X005181Y012176D01*
X005214Y012155D01*
X005245Y012130D01*
X005273Y012103D01*
X005298Y012073D01*
X005320Y012040D01*
X005339Y012006D01*
X005354Y011970D01*
X005366Y011932D01*
X005374Y011894D01*
X005378Y011855D01*
X005378Y011815D01*
X005374Y011776D01*
X005366Y011738D01*
X005354Y011700D01*
X005339Y011664D01*
X005320Y011630D01*
X005298Y011597D01*
X005273Y011567D01*
X005245Y011540D01*
X005214Y011515D01*
X005181Y011494D01*
X005146Y011476D01*
X005109Y011462D01*
X005072Y011451D01*
X005033Y011444D01*
X004994Y011441D01*
X004955Y011442D01*
X004916Y011447D01*
X004877Y011456D01*
X004840Y011468D01*
X004804Y011484D01*
X004770Y011504D01*
X004738Y011527D01*
X004709Y011553D01*
X004682Y011582D01*
X004658Y011613D01*
X004638Y011647D01*
X004621Y011682D01*
X004608Y011719D01*
X004598Y011757D01*
X004592Y011796D01*
X004590Y011835D01*
D11*
X006939Y003959D02*
X007073Y003826D01*
X007073Y003559D01*
X007073Y003759D02*
X006806Y003759D01*
X006806Y003826D02*
X006939Y003959D01*
X006806Y003826D02*
X006806Y003559D01*
X007266Y003625D02*
X007333Y003559D01*
X007466Y003559D01*
X007533Y003625D01*
X007533Y003759D01*
X007400Y003759D01*
X007533Y003892D02*
X007466Y003959D01*
X007333Y003959D01*
X007266Y003892D01*
X007266Y003625D01*
X007727Y003559D02*
X007727Y003959D01*
X007993Y003559D01*
X007993Y003959D01*
X012849Y003959D02*
X012849Y003559D01*
X013049Y003559D01*
X013116Y003625D01*
X013116Y003892D01*
X013049Y003959D01*
X012849Y003959D01*
X013309Y003959D02*
X013309Y003559D01*
X013576Y003559D02*
X013309Y003959D01*
X013576Y003959D02*
X013576Y003559D01*
X001254Y003559D02*
X001254Y003959D01*
X000987Y003959D02*
X000987Y003559D01*
X000793Y003559D02*
X000793Y003826D01*
X000660Y003959D01*
X000526Y003826D01*
X000526Y003559D01*
X000526Y003759D02*
X000793Y003759D01*
X000987Y003959D02*
X001254Y003559D01*
D12*
X002661Y004513D03*
X002661Y005143D03*
X003134Y005143D03*
X003134Y004513D03*
X003724Y004513D03*
X004197Y004513D03*
X004787Y004513D03*
X005260Y004513D03*
X005260Y006520D03*
X005575Y007229D03*
X005575Y007702D03*
X006323Y007741D03*
X006323Y007269D03*
X004787Y006520D03*
X004197Y006520D03*
X003724Y006520D03*
X003134Y006520D03*
X002661Y006520D03*
X002661Y005930D03*
X003134Y005930D03*
X002386Y007662D03*
X001913Y007662D03*
X001913Y008331D03*
X002386Y008331D03*
X002386Y009198D03*
X001913Y009198D03*
X001913Y009867D03*
X002386Y009867D03*
X002346Y010733D03*
X002346Y011363D03*
X001874Y011363D03*
X001874Y010733D03*
X001913Y012072D03*
X002386Y012072D03*
X002346Y012741D03*
X002346Y013410D03*
X001874Y013410D03*
X001874Y012741D03*
X003409Y015064D03*
X003882Y015064D03*
X005732Y011678D03*
X006205Y011678D03*
X006165Y010851D03*
X005693Y010851D03*
X005575Y010103D03*
X005102Y010103D03*
X008134Y016639D03*
X008134Y017111D03*
X009275Y018646D03*
X009748Y018646D03*
X010614Y018804D03*
X010614Y019276D03*
X010693Y019828D03*
X010693Y020300D03*
X010024Y020418D03*
X010024Y019828D03*
X009551Y019828D03*
X009551Y020418D03*
X009354Y021206D03*
X008882Y021206D03*
X008882Y020379D03*
X008882Y019906D03*
X008291Y020182D03*
X007819Y020182D03*
X006520Y019631D03*
X006520Y019158D03*
X005968Y019158D03*
X005968Y019631D03*
X005575Y020024D03*
X005575Y020733D03*
X005102Y020733D03*
X005102Y020024D03*
X005102Y021520D03*
X005575Y021520D03*
X005575Y022032D03*
X005575Y022505D03*
X008449Y022387D03*
X008921Y022387D03*
X009197Y022977D03*
X009197Y023450D03*
X009590Y022387D03*
X009590Y021914D03*
X011401Y019276D03*
X011401Y018804D03*
X011953Y019434D03*
X011953Y019906D03*
X011953Y016599D03*
X012425Y016599D03*
X012149Y010654D03*
X011677Y010654D03*
X011677Y009631D03*
X012149Y009631D03*
X012976Y009749D03*
X012976Y010221D03*
X012701Y005969D03*
X012228Y005969D03*
X011559Y004946D03*
X011559Y004473D03*
D13*
X005811Y017209D03*
X005811Y017879D03*
X003370Y016973D03*
X003370Y016304D03*
X012228Y022485D03*
X012228Y023154D03*
D14*
X001047Y017918D03*
X001047Y015910D03*
D15*
X002464Y015202D03*
X002464Y016816D03*
D16*
X010594Y024828D03*
X010968Y023961D03*
X011342Y024828D03*
X012858Y020103D03*
X012484Y019237D03*
X013232Y019237D03*
X012858Y018331D03*
X012484Y017465D03*
X013232Y017465D03*
D17*
X013240Y023980D02*
X013240Y024573D01*
X012240Y024573D02*
X012240Y023980D01*
X001895Y006036D02*
X001301Y006036D01*
X001301Y005036D02*
X001895Y005036D01*
D18*
X010949Y023135D03*
X011618Y023135D03*
X009335Y024237D03*
X008665Y024237D03*
X008744Y024867D03*
X008075Y024867D03*
D19*
X009256Y024867D03*
X009925Y024867D03*
X004886Y005930D03*
X004886Y005143D03*
X004216Y005143D03*
X004216Y005930D03*
D20*
X002307Y017800D03*
X002307Y018548D03*
D21*
X004256Y017741D03*
X005004Y017741D03*
D22*
X003252Y018646D03*
X001283Y018646D03*
D23*
X007819Y005654D03*
D24*
X007917Y004810D02*
X007917Y004648D01*
X007720Y004648D02*
X007720Y004810D01*
X007524Y004810D02*
X007524Y004648D01*
X007327Y004648D02*
X007327Y004810D01*
X007130Y004810D02*
X007130Y004648D01*
X006975Y004965D02*
X006813Y004965D01*
X006813Y005162D02*
X006975Y005162D01*
X006975Y005359D02*
X006813Y005359D01*
X006813Y005556D02*
X006975Y005556D01*
X006975Y005753D02*
X006813Y005753D01*
X006813Y005950D02*
X006975Y005950D01*
X006975Y006146D02*
X006813Y006146D01*
X006813Y006343D02*
X006975Y006343D01*
X007130Y006499D02*
X007130Y006661D01*
X007327Y006661D02*
X007327Y006499D01*
X007524Y006499D02*
X007524Y006661D01*
X007720Y006661D02*
X007720Y006499D01*
X007917Y006499D02*
X007917Y006661D01*
X008114Y006661D02*
X008114Y006499D01*
X008311Y006499D02*
X008311Y006661D01*
X008508Y006661D02*
X008508Y006499D01*
X008663Y006343D02*
X008825Y006343D01*
X008825Y006146D02*
X008663Y006146D01*
X008663Y005950D02*
X008825Y005950D01*
X008825Y005753D02*
X008663Y005753D01*
X008663Y005556D02*
X008825Y005556D01*
X008825Y005359D02*
X008663Y005359D01*
X008663Y005162D02*
X008825Y005162D01*
X008825Y004965D02*
X008663Y004965D01*
X008508Y004810D02*
X008508Y004648D01*
X008311Y004648D02*
X008311Y004810D01*
X008114Y004810D02*
X008114Y004648D01*
D25*
X010122Y004454D03*
X010122Y005438D03*
X010870Y005438D03*
X010870Y004454D03*
D26*
X001086Y008686D03*
X001086Y009686D03*
X001086Y010607D03*
X001086Y011607D03*
X001086Y012607D03*
X001086Y014119D03*
X001086Y015119D03*
D27*
X003094Y013804D03*
X003961Y014178D03*
X003961Y013430D03*
X003961Y012643D03*
X003961Y011894D03*
X003961Y011107D03*
X003961Y010359D03*
X003961Y009572D03*
X003961Y008824D03*
X003961Y008036D03*
X003961Y007288D03*
X003094Y007662D03*
X003094Y009198D03*
X003094Y010733D03*
X003094Y012269D03*
X006244Y024493D03*
X006244Y025241D03*
X007110Y024867D03*
X012031Y007406D03*
X012031Y006658D03*
X012898Y007032D03*
D28*
X011843Y008499D02*
X011758Y008414D01*
X011758Y008696D01*
X011956Y008894D01*
X012238Y008894D01*
X012436Y008696D01*
X012436Y008414D01*
X012238Y008216D01*
X011956Y008216D01*
X011758Y008414D01*
X011885Y008468D01*
X011885Y008642D01*
X012010Y008767D01*
X012184Y008767D01*
X012309Y008642D01*
X012309Y008468D01*
X012184Y008343D01*
X012010Y008343D01*
X011885Y008468D01*
X012013Y008520D01*
X012013Y008590D01*
X012062Y008639D01*
X012132Y008639D01*
X012181Y008590D01*
X012181Y008520D01*
X012132Y008471D01*
X012062Y008471D01*
X012013Y008520D01*
X010451Y007107D02*
X010366Y007022D01*
X010366Y007304D01*
X010564Y007502D01*
X010846Y007502D01*
X011044Y007304D01*
X011044Y007022D01*
X010846Y006824D01*
X010564Y006824D01*
X010366Y007022D01*
X010493Y007076D01*
X010493Y007250D01*
X010618Y007375D01*
X010792Y007375D01*
X010917Y007250D01*
X010917Y007076D01*
X010792Y006951D01*
X010618Y006951D01*
X010493Y007076D01*
X010621Y007128D01*
X010621Y007198D01*
X010670Y007247D01*
X010740Y007247D01*
X010789Y007198D01*
X010789Y007128D01*
X010740Y007079D01*
X010670Y007079D01*
X010621Y007128D01*
D29*
G36*
X011038Y008379D02*
X011233Y008184D01*
X011038Y007989D01*
X010843Y008184D01*
X011038Y008379D01*
G37*
G36*
X011372Y008045D02*
X011567Y007850D01*
X011372Y007655D01*
X011177Y007850D01*
X011372Y008045D01*
G37*
D30*
X010791Y008725D03*
X010791Y009040D03*
X010791Y009355D03*
X010791Y009670D03*
X010791Y009985D03*
X010791Y010300D03*
X010791Y010615D03*
X010791Y010930D03*
X007445Y010930D03*
X007445Y010615D03*
X007445Y010300D03*
X007445Y009985D03*
X007445Y009670D03*
X007445Y009355D03*
X007445Y009040D03*
X007445Y008725D03*
D31*
X008016Y008154D03*
X008331Y008154D03*
X008646Y008154D03*
X008961Y008154D03*
X009275Y008154D03*
X009590Y008154D03*
X009905Y008154D03*
X010220Y008154D03*
X010220Y011501D03*
X009905Y011501D03*
X009590Y011501D03*
X009275Y011501D03*
X008961Y011501D03*
X008646Y011501D03*
X008331Y011501D03*
X008016Y011501D03*
D32*
X012637Y011646D02*
X013237Y011646D01*
X013237Y012646D02*
X012637Y012646D01*
X012637Y013646D02*
X013237Y013646D01*
X013237Y014646D02*
X012637Y014646D01*
X012637Y015646D02*
X013237Y015646D01*
D33*
X007346Y015950D03*
X006756Y015950D03*
X006756Y017170D03*
X007346Y017170D03*
D34*
X012386Y020831D03*
X012386Y021501D03*
X013331Y021501D03*
X013331Y020831D03*
D35*
X010791Y017820D03*
X010535Y017820D03*
X010279Y017820D03*
X010024Y017820D03*
X009768Y017820D03*
X009512Y017820D03*
X009256Y017820D03*
X009256Y015615D03*
X009512Y015615D03*
X009768Y015615D03*
X010024Y015615D03*
X010279Y015615D03*
X010535Y015615D03*
X010791Y015615D03*
X007878Y020891D03*
X007622Y020891D03*
X007366Y020891D03*
X007110Y020891D03*
X006854Y020891D03*
X006598Y020891D03*
X006342Y020891D03*
X006342Y023095D03*
X006598Y023095D03*
X006854Y023095D03*
X007110Y023095D03*
X007366Y023095D03*
X007622Y023095D03*
X007878Y023095D03*
D36*
X005122Y016973D03*
X005122Y016225D03*
X004059Y016225D03*
X004059Y016599D03*
X004059Y016973D03*
D37*
X006165Y020182D03*
X007189Y019080D03*
X009984Y014591D03*
X009827Y013568D03*
X011126Y014040D03*
X011520Y018135D03*
X010220Y021442D03*
X010220Y022977D03*
X007366Y024198D03*
D38*
X013252Y005398D03*
X013252Y005103D03*
X013252Y004808D03*
D39*
X011559Y004946D02*
X011559Y005182D01*
X011283Y005438D02*
X010870Y005438D01*
X010772Y004946D02*
X009709Y004946D01*
X009630Y004867D01*
X009630Y004749D01*
X009157Y004276D01*
X008094Y004276D01*
X007917Y004454D01*
X007917Y004729D01*
X008114Y004729D02*
X008114Y004572D01*
X008212Y004473D01*
X009079Y004473D01*
X009433Y004828D01*
X009433Y004946D01*
X009925Y005438D01*
X009787Y005576D01*
X009787Y005635D01*
X009925Y005438D02*
X010122Y005438D01*
X009590Y005379D02*
X009590Y008154D01*
X009590Y009552D01*
X009275Y009198D02*
X009275Y008154D01*
X009275Y006324D01*
X009098Y006146D01*
X008744Y006146D01*
X008744Y005950D02*
X008744Y005753D01*
X008744Y005556D01*
X009020Y005556D01*
X009157Y005418D01*
X009197Y005753D02*
X008744Y005753D01*
X008744Y006343D02*
X008823Y006343D01*
X009000Y006520D01*
X008508Y006580D02*
X008311Y006580D01*
X008114Y006580D01*
X008114Y006776D01*
X007976Y006914D01*
X007720Y006894D02*
X007720Y006580D01*
X007917Y006580D01*
X007720Y006894D02*
X007622Y006993D01*
X007524Y006737D02*
X007524Y006580D01*
X007524Y006737D02*
X007346Y006914D01*
X007346Y007347D01*
X007779Y007780D02*
X008016Y008017D01*
X008016Y008154D01*
X007445Y009040D02*
X006716Y009040D01*
X006244Y008568D01*
X004984Y008568D01*
X004827Y008410D01*
X003094Y008410D01*
X003094Y007662D01*
X003626Y007288D02*
X003961Y007288D01*
X004197Y006520D02*
X004787Y006520D01*
X005260Y006520D02*
X005260Y006284D01*
X004905Y005950D02*
X006146Y005950D01*
X006205Y006009D01*
X006441Y006009D01*
X006500Y005950D01*
X006894Y005950D01*
X006894Y006146D02*
X006579Y006146D01*
X006480Y006245D01*
X006126Y006245D02*
X006126Y006717D01*
X006323Y006914D01*
X006716Y006520D02*
X006894Y006343D01*
X006894Y005753D02*
X006323Y005753D01*
X006165Y005497D02*
X006520Y005497D01*
X006579Y005556D01*
X006894Y005556D01*
X006894Y005359D02*
X007327Y005359D01*
X007425Y005261D01*
X007327Y004729D02*
X007327Y004394D01*
X007130Y004729D02*
X006874Y004473D01*
X006126Y004473D01*
X005614Y003961D01*
X005142Y003961D01*
X005260Y004513D02*
X005260Y004749D01*
X004886Y005143D02*
X004886Y005280D01*
X005338Y005733D01*
X005929Y005733D01*
X006165Y005497D01*
X005870Y005162D02*
X005693Y005339D01*
X005693Y005457D01*
X005870Y005162D02*
X006894Y005162D01*
X006894Y004965D02*
X006756Y004828D01*
X006480Y004828D01*
X005693Y006206D02*
X005693Y006757D01*
X005535Y006914D01*
X004905Y005950D02*
X004886Y005930D01*
X004236Y005950D02*
X003685Y005950D01*
X004216Y005930D02*
X004236Y005950D01*
X004236Y006245D01*
X004197Y006284D01*
X004197Y006520D01*
X003724Y006520D02*
X003134Y006520D01*
X003134Y005930D01*
X002661Y005930D02*
X002425Y005930D01*
X002319Y006036D01*
X001598Y006036D01*
X001598Y005036D02*
X002319Y005036D01*
X002425Y005143D01*
X002661Y005143D01*
X002661Y004513D02*
X002661Y004276D01*
X003134Y004513D02*
X003134Y005143D01*
X003134Y004513D02*
X003724Y004513D01*
X004197Y004513D02*
X004787Y004513D01*
X004197Y004513D02*
X004197Y004749D01*
X004236Y004788D01*
X004236Y005123D01*
X004216Y005143D01*
X002661Y006520D02*
X002661Y006757D01*
X001913Y007662D02*
X001913Y008331D01*
X002386Y008331D02*
X002937Y008331D01*
X003016Y008410D01*
X003094Y008410D01*
X003094Y009198D02*
X004551Y009198D01*
X004984Y008765D01*
X006047Y008765D01*
X006638Y009355D01*
X007445Y009355D01*
X007445Y009670D02*
X006913Y009670D01*
X006480Y010103D01*
X005575Y010103D01*
X005102Y010103D02*
X004827Y010103D01*
X004571Y010359D01*
X003961Y010359D01*
X003961Y011107D02*
X004335Y011107D01*
X005004Y010851D02*
X003961Y011894D01*
X003961Y012643D02*
X004335Y012643D01*
X004453Y013430D02*
X003961Y013430D01*
X004453Y013430D02*
X005732Y012150D01*
X005732Y011678D01*
X006205Y011678D02*
X006323Y011678D01*
X006520Y011481D01*
X006520Y010694D01*
X006913Y010300D01*
X007445Y010300D01*
X007445Y009985D02*
X006913Y009985D01*
X006165Y010733D01*
X006165Y010851D01*
X005693Y010851D02*
X005004Y010851D01*
X004335Y008824D02*
X003961Y008824D01*
X003094Y009198D02*
X002386Y009198D01*
X001913Y009198D02*
X001913Y009867D01*
X001512Y010607D02*
X001638Y010733D01*
X001874Y010733D01*
X001992Y011048D02*
X002268Y011048D01*
X002346Y010969D01*
X002346Y010733D01*
X003094Y010733D01*
X002504Y012072D02*
X002386Y012072D01*
X002386Y012347D01*
X002307Y012426D01*
X001992Y012426D01*
X001874Y012544D01*
X001874Y012741D01*
X001874Y013410D02*
X001559Y013410D01*
X001086Y012938D01*
X001086Y012607D01*
X001913Y012072D02*
X001449Y011607D01*
X001086Y011607D01*
X001086Y010607D02*
X001512Y010607D01*
X001992Y011048D02*
X001874Y011166D01*
X001874Y011363D01*
X002504Y012072D02*
X002701Y012269D01*
X003094Y012269D01*
X002701Y013410D02*
X002346Y013410D01*
X002701Y013410D02*
X003094Y013804D01*
X003094Y014513D01*
X003409Y014828D01*
X003409Y015064D01*
X003961Y014178D02*
X004335Y014178D01*
X004197Y017564D02*
X004256Y017623D01*
X004256Y017741D01*
X004275Y017721D01*
X004275Y017623D01*
X006756Y016206D02*
X006756Y015950D01*
X006756Y016206D02*
X006953Y016402D01*
X007661Y016402D01*
X007779Y016284D01*
X008252Y016284D01*
X008803Y015733D01*
X008803Y014985D01*
X009315Y014473D01*
X009315Y011954D01*
X009275Y011914D01*
X009275Y011501D01*
X008961Y011501D02*
X008961Y011954D01*
X009118Y012111D01*
X009118Y014394D01*
X008606Y014906D01*
X008606Y015654D01*
X008311Y015950D01*
X007346Y015950D01*
X007898Y016639D02*
X008134Y016639D01*
X008134Y017111D02*
X008134Y019631D01*
X008252Y019749D01*
X008527Y019749D01*
X008685Y019906D01*
X008882Y019906D01*
X009157Y018646D02*
X009275Y018646D01*
X009748Y018646D02*
X010024Y018371D01*
X010024Y017820D01*
X009256Y017820D02*
X009256Y017170D01*
X008882Y016796D01*
X008882Y015969D01*
X009000Y015851D01*
X009000Y015064D01*
X009512Y014552D01*
X009512Y014276D01*
X009827Y013961D01*
X009827Y013568D01*
X009827Y013095D01*
X009590Y012859D01*
X009590Y011501D01*
X009905Y011501D02*
X009905Y012702D01*
X011126Y013922D01*
X011126Y014040D01*
X011126Y014591D01*
X010791Y014926D01*
X010791Y015615D01*
X010535Y015615D02*
X010535Y014709D01*
X010653Y014591D01*
X009984Y014591D02*
X009984Y014867D01*
X009945Y014906D01*
X009472Y014906D01*
X009256Y015123D01*
X009256Y015615D01*
X009256Y016127D01*
X009512Y016284D02*
X009157Y016639D01*
X009512Y016284D02*
X009512Y015615D01*
X010024Y015615D02*
X010024Y015143D01*
X011638Y016284D02*
X011638Y013961D01*
X010220Y012544D01*
X010220Y011501D01*
X010791Y010950D02*
X011086Y011245D01*
X011086Y012583D01*
X012149Y013646D01*
X012149Y014198D01*
X012598Y014646D01*
X012937Y014646D01*
X012937Y013646D02*
X012583Y013646D01*
X011362Y012426D01*
X011362Y010772D01*
X011205Y010615D01*
X010791Y010615D01*
X010791Y010930D02*
X010791Y010950D01*
X010791Y009985D02*
X011323Y009985D01*
X011677Y009631D01*
X011638Y009237D02*
X012464Y009237D01*
X012976Y009749D01*
X013173Y009749D01*
X013291Y009867D01*
X013291Y010418D01*
X012740Y010969D01*
X012189Y010969D01*
X011874Y011284D01*
X011874Y012229D01*
X012291Y012646D01*
X012937Y012646D01*
X012386Y010654D02*
X012149Y010654D01*
X012149Y009631D02*
X012464Y009631D01*
X011638Y009237D02*
X011441Y009040D01*
X010791Y009040D01*
X011038Y008184D02*
X010250Y008184D01*
X010220Y008154D01*
X009275Y009198D02*
X008921Y009552D01*
X007445Y010930D02*
X006992Y010930D01*
X008331Y006914D02*
X008311Y006894D01*
X008311Y006580D01*
X009590Y005379D02*
X008941Y004729D01*
X008508Y004729D01*
X009709Y004454D02*
X010122Y004454D01*
X010772Y004946D02*
X010870Y004847D01*
X010870Y004454D01*
X010890Y004473D01*
X011559Y004473D01*
X011815Y007406D02*
X011372Y007850D01*
X011815Y007406D02*
X012031Y007406D01*
X011638Y016284D02*
X011953Y016599D01*
X012425Y016599D02*
X012425Y016993D01*
X012484Y017052D01*
X012484Y017465D01*
X013232Y017465D02*
X013232Y017032D01*
X012484Y019099D02*
X012484Y019237D01*
X012858Y020103D02*
X012858Y020654D01*
X012524Y022485D02*
X012228Y022485D01*
X011638Y023154D02*
X011618Y023135D01*
X010949Y023942D02*
X010968Y023961D01*
X011342Y024828D02*
X011342Y025241D01*
X012228Y024265D02*
X012240Y024276D01*
X010220Y021442D02*
X010220Y021363D01*
X009590Y022387D02*
X008921Y022387D01*
X009335Y024237D02*
X009590Y024237D01*
X009964Y024828D02*
X009925Y024867D01*
X007307Y024867D02*
X007110Y024867D01*
X005575Y022032D02*
X005575Y021520D01*
X007819Y020182D02*
X007819Y020103D01*
X007819Y020182D02*
X007878Y020241D01*
X010614Y019749D02*
X010693Y019828D01*
X010693Y019316D02*
X010653Y019276D01*
X010614Y019276D01*
X010693Y019198D01*
X011008Y018371D02*
X010968Y018331D01*
X011401Y018765D02*
X011401Y018804D01*
X011323Y019198D02*
X011401Y019276D01*
X001913Y009198D02*
X001677Y009198D01*
X001189Y009686D01*
X001086Y009686D01*
X001086Y008686D02*
X001086Y008174D01*
X001598Y007662D01*
X001913Y007662D01*
D40*
X002661Y006757D03*
X003626Y007288D03*
X003685Y005950D03*
X002661Y004276D03*
X005142Y003961D03*
X005260Y004749D03*
X005693Y005457D03*
X005693Y006206D03*
X006126Y006245D03*
X006480Y006245D03*
X006716Y006520D03*
X006323Y006914D03*
X006323Y005753D03*
X006480Y004828D03*
X007327Y004394D03*
X007976Y006914D03*
X007622Y006993D03*
X007346Y007347D03*
X007779Y007780D03*
X008331Y006914D03*
X009000Y006520D03*
X009197Y005753D03*
X009157Y005418D03*
X009787Y005635D03*
X009709Y004454D03*
X011283Y005438D03*
X011559Y005182D03*
X012031Y006402D03*
X013252Y004257D03*
X012976Y009316D03*
X012464Y009631D03*
X012661Y009985D03*
X012386Y010654D03*
X010338Y009670D03*
X009590Y009552D03*
X008921Y009552D03*
X007898Y010615D03*
X006992Y010930D03*
X005575Y009040D03*
X005575Y008213D03*
X006323Y008213D03*
X005535Y006914D03*
X005260Y006284D03*
X004335Y008824D03*
X004335Y011107D03*
X004335Y012643D03*
X004335Y014178D03*
X006323Y016914D03*
X006756Y017623D03*
X007346Y017623D03*
X007858Y017820D03*
X008409Y017820D03*
X008921Y018292D03*
X009275Y018272D03*
X009768Y018272D03*
X009669Y019040D03*
X009275Y019828D03*
X008449Y020457D03*
X007504Y019946D03*
X007858Y019158D03*
X008409Y019158D03*
X009630Y017308D03*
X009157Y016639D03*
X009256Y016127D03*
X010024Y017072D03*
X010968Y018331D03*
X010535Y018489D03*
X010968Y019473D03*
X010693Y020536D03*
X010024Y020694D03*
X009669Y021206D03*
X009079Y021914D03*
X009669Y022977D03*
X009197Y023725D03*
X009590Y024237D03*
X010457Y024237D03*
X011342Y025241D03*
X012524Y022485D03*
X012898Y021501D03*
X012858Y020654D03*
X012386Y019788D03*
X011953Y020182D03*
X012858Y018725D03*
X013232Y017032D03*
X011244Y017623D03*
X010024Y015143D03*
X010653Y014591D03*
X011126Y014591D03*
X007898Y016639D03*
X006520Y018883D03*
X005968Y018883D03*
X005811Y018135D03*
X005004Y018115D03*
X005102Y018765D03*
X004236Y018568D03*
X003961Y018292D03*
X003921Y017564D03*
X004551Y017524D03*
X005102Y020457D03*
X006067Y021245D03*
X006953Y020221D03*
X007543Y021481D03*
X008409Y022938D03*
X007701Y023725D03*
X007110Y025182D03*
X006244Y024867D03*
X006638Y023883D03*
X005968Y022820D03*
X005338Y022977D03*
X005063Y023883D03*
D41*
X006638Y023883D01*
X006953Y023883D01*
X007110Y023725D01*
X007110Y023095D01*
X006854Y023095D02*
X006854Y023509D01*
X006756Y023607D01*
X005811Y023607D01*
X005338Y023135D01*
X005338Y022977D01*
X005575Y022820D02*
X005850Y023095D01*
X006342Y023095D01*
X006598Y023095D01*
X006598Y022544D01*
X006756Y022387D01*
X008449Y022387D01*
X008449Y021009D01*
X008567Y020891D01*
X008882Y020576D01*
X008882Y020379D01*
X008567Y020891D02*
X009748Y020891D01*
X010220Y021363D01*
X009669Y021206D02*
X009354Y021206D01*
X008882Y021206D02*
X008882Y021599D01*
X009079Y021796D01*
X009079Y021914D01*
X009590Y021914D01*
X009669Y022977D02*
X009197Y022977D01*
X008724Y022977D01*
X008685Y022938D01*
X008409Y022938D01*
X008252Y023095D01*
X007878Y023095D01*
X007622Y023095D02*
X007622Y023646D01*
X007701Y023725D01*
X009197Y023725D01*
X009197Y023450D01*
X009669Y022977D02*
X010220Y022977D01*
X010024Y020694D02*
X010024Y020418D01*
X010024Y019828D02*
X010693Y019828D01*
X010614Y019749D02*
X010614Y019276D01*
X010693Y019198D02*
X011323Y019198D01*
X011401Y018765D02*
X010968Y018331D01*
X010791Y018154D01*
X010791Y017820D01*
X011047Y017820D01*
X011244Y017623D01*
X010535Y017820D02*
X010535Y018489D01*
X010614Y018568D01*
X010614Y018804D01*
X010279Y018391D02*
X010279Y017820D01*
X010279Y017070D01*
X010278Y017072D01*
X010024Y017072D01*
X010279Y017070D02*
X010279Y016245D01*
X010279Y015615D01*
X010279Y016245D02*
X009866Y016245D01*
X009768Y016146D01*
X009768Y015615D01*
X009630Y017308D02*
X009512Y017426D01*
X009512Y017820D01*
X009768Y017820D02*
X009768Y018272D01*
X010181Y018489D02*
X010279Y018391D01*
X010181Y018489D02*
X010181Y019276D01*
X009551Y019828D02*
X009551Y020418D01*
X009551Y019828D02*
X009275Y019828D01*
X008449Y020339D02*
X008449Y020457D01*
X008449Y020339D02*
X008291Y020182D01*
X007878Y020241D02*
X007878Y020891D01*
X007622Y020891D02*
X007622Y021442D01*
X007583Y021481D01*
X007543Y021481D01*
X007366Y020891D02*
X007366Y020241D01*
X007110Y019985D01*
X007110Y019631D01*
X006953Y020221D02*
X007110Y020379D01*
X007110Y020891D01*
X006854Y020891D02*
X006854Y020517D01*
X006716Y020379D01*
X006362Y020379D01*
X006165Y020182D01*
X005968Y020379D01*
X005968Y020851D01*
X005575Y021245D01*
X005575Y021520D01*
X005457Y021048D02*
X005220Y021048D01*
X005102Y021166D01*
X005102Y021520D01*
X005457Y021048D02*
X005575Y020930D01*
X005575Y020733D01*
X005102Y020733D02*
X005102Y020457D01*
X006067Y021087D02*
X006067Y021245D01*
X006067Y022721D01*
X005968Y022820D01*
X005575Y022820D02*
X005575Y022505D01*
X006067Y021087D02*
X006264Y020891D01*
X006342Y020891D01*
X006598Y020891D01*
X007504Y019946D02*
X007661Y019946D01*
X007819Y020103D01*
X009157Y018646D02*
X008921Y018410D01*
X008921Y018292D01*
X009256Y018272D02*
X009256Y017820D01*
X009256Y018272D02*
X009275Y018272D01*
X010693Y020300D02*
X010693Y020536D01*
X007366Y023095D02*
X007366Y024198D01*
X007366Y024808D01*
X007307Y024867D01*
X005004Y025241D02*
X004984Y025221D01*
D42*
X003252Y018646D02*
X003153Y018548D01*
X002307Y018548D01*
X002307Y017800D02*
X002307Y017741D01*
X002307Y017308D01*
X002464Y017150D01*
X002464Y016816D01*
X002307Y017800D02*
X001165Y017800D01*
X001047Y017918D01*
X001146Y017820D01*
X005850Y016973D02*
X005850Y015733D01*
X006244Y015339D01*
X006913Y015339D01*
X006913Y015340D02*
X006997Y015338D01*
X007081Y015332D01*
X007165Y015322D01*
X007248Y015308D01*
X007331Y015290D01*
X007412Y015268D01*
X007493Y015243D01*
X007572Y015213D01*
X007649Y015180D01*
X007725Y015143D01*
X007799Y015103D01*
X007871Y015059D01*
X007941Y015011D01*
X008008Y014961D01*
X008073Y014907D01*
X008136Y014850D01*
X008195Y014791D01*
X008252Y014728D01*
X008306Y014663D01*
X008356Y014596D01*
X008404Y014526D01*
X008448Y014454D01*
X008488Y014380D01*
X008525Y014304D01*
X008558Y014227D01*
X008588Y014148D01*
X008613Y014067D01*
X008635Y013986D01*
X008653Y013903D01*
X008667Y013820D01*
X008677Y013736D01*
X008683Y013652D01*
X008685Y013568D01*
X008685Y012229D01*
X008685Y010812D02*
X008685Y010024D01*
X008370Y009709D01*
X008370Y009080D01*
X008094Y008804D01*
X007504Y008213D02*
X006323Y008213D01*
X005575Y008213D01*
X008685Y010812D02*
X010102Y010812D01*
X010142Y010851D01*
D43*
X006323Y016914D02*
X006264Y016973D01*
X005850Y016973D01*
X005850Y017209D01*
X005811Y017209D01*
X005850Y016973D02*
X005122Y016973D01*
X004512Y016835D02*
X004512Y016363D01*
X004374Y016225D01*
X004059Y016225D01*
X004059Y016599D02*
X003665Y016599D01*
X003370Y016304D01*
X003370Y016973D02*
X004059Y016973D01*
X004374Y016973D01*
X004512Y016835D01*
X004059Y016973D02*
X004059Y017426D01*
X003921Y017564D01*
X004197Y017564D01*
X004275Y017623D02*
X004374Y017524D01*
X004551Y017524D01*
X004256Y017741D02*
X004256Y018076D01*
X004709Y018528D01*
X004709Y024946D01*
X004984Y025221D01*
X005004Y025241D02*
X006244Y025241D01*
X006244Y024867D01*
X006244Y024493D01*
X005575Y020733D02*
X005575Y020024D01*
X005575Y019788D01*
X005732Y019631D01*
X005968Y019631D01*
X006520Y019631D01*
X007110Y019631D01*
X007386Y019631D01*
X007858Y019158D01*
X008409Y019158D02*
X008685Y019434D01*
X010024Y019434D01*
X010181Y019276D01*
X009748Y018922D02*
X009748Y018646D01*
X009748Y018922D02*
X009630Y019040D01*
X008842Y019040D01*
X008567Y018765D01*
X008567Y017977D01*
X008409Y017820D01*
X007858Y017820D02*
X007504Y018174D01*
X006520Y018174D01*
X006205Y018489D01*
X005378Y018489D01*
X005102Y018765D01*
X005102Y020024D01*
X004236Y018568D02*
X003961Y018292D01*
X003409Y017741D01*
X002307Y017741D01*
X005004Y017741D02*
X005004Y018115D01*
X005811Y018135D02*
X005811Y017879D01*
X010968Y019473D02*
X011401Y019906D01*
X011953Y019906D01*
D44*
X006913Y013607D03*
D45*
X004984Y015379D03*
D46*
X006756Y017170D02*
X006756Y017623D01*
X007346Y017623D02*
X007346Y017170D01*
X006520Y018883D02*
X006520Y019158D01*
X005968Y019158D02*
X005968Y018883D01*
X008665Y024237D02*
X008665Y024493D01*
X008744Y024572D01*
X008744Y024867D01*
X009256Y024867D01*
X009964Y024828D02*
X010594Y024828D01*
X010594Y024375D01*
X010457Y024237D01*
X010949Y023942D02*
X010949Y023135D01*
X011638Y023154D02*
X012228Y023154D01*
X012228Y024265D01*
X013240Y024276D02*
X013240Y021887D01*
X013331Y021796D01*
X013331Y021501D01*
X012898Y021501D01*
X012386Y021501D01*
X012386Y020831D02*
X012386Y019788D01*
X011953Y019434D02*
X012149Y019237D01*
X012484Y019237D01*
X012484Y019099D02*
X012858Y018725D01*
X012858Y018331D01*
X013232Y019237D02*
X013232Y019650D01*
X013331Y019749D01*
X013331Y020831D01*
X008075Y024867D02*
X007307Y024867D01*
X007110Y024867D02*
X007110Y025182D01*
D47*
X002464Y015202D02*
X002464Y014631D01*
X001953Y014119D01*
X001086Y014119D01*
D48*
X003961Y008036D02*
X004709Y008036D01*
X005398Y008036D01*
X005575Y008213D01*
X005575Y007702D01*
X006323Y007741D02*
X006323Y008213D01*
X007445Y010615D02*
X007898Y010615D01*
X008252Y010930D02*
X008370Y010812D01*
X008685Y010812D01*
X008252Y010930D02*
X007445Y010930D01*
X010142Y010851D02*
X010142Y010418D01*
X010260Y010300D01*
X010791Y010300D01*
X011677Y010300D01*
X012583Y010300D01*
X012661Y010221D01*
X012661Y009985D01*
X012661Y010221D02*
X012976Y010221D01*
X011677Y010300D02*
X011677Y010654D01*
X010791Y009670D02*
X010338Y009670D01*
X009669Y019040D02*
X009630Y019040D01*
X011953Y019906D02*
X011953Y020182D01*
D49*
X003370Y016304D02*
X003370Y016087D01*
X003252Y015969D01*
X002583Y015969D01*
X002464Y015851D01*
X002464Y015202D01*
D50*
X007504Y008213D03*
X008094Y008804D03*
X008685Y010812D03*
X008685Y012229D03*
X010142Y010851D03*
X010614Y011363D03*
X008212Y006048D03*
X008212Y005654D03*
X008212Y005261D03*
X007819Y005261D03*
X007819Y005654D03*
X007425Y005654D03*
X007425Y005261D03*
X007425Y006048D03*
X007819Y006048D03*
D51*
X005575Y009040D02*
X005043Y009572D01*
X003961Y009572D01*
X003508Y009572D01*
X003212Y009867D01*
X002386Y009867D01*
X002386Y007662D02*
X002386Y007308D01*
X002583Y007111D01*
X003094Y007111D01*
X003331Y006875D01*
X004551Y006875D01*
X004709Y007032D01*
X004709Y008036D01*
X010614Y011363D02*
X010614Y012544D01*
X011894Y013824D01*
X011894Y015241D01*
X012299Y015646D01*
X012937Y015646D01*
X012976Y009316D02*
X013449Y008843D01*
X013449Y006009D01*
X013252Y005812D01*
X013252Y005398D01*
X013252Y005103D02*
X012622Y005103D01*
X012228Y005497D01*
X012228Y005969D01*
X011899Y005969D01*
X010705Y007163D01*
X012031Y006658D02*
X012031Y006402D01*
X012701Y005969D02*
X012898Y006166D01*
X012898Y007032D01*
X012898Y007755D01*
X012097Y008555D01*
D52*
X013252Y004808D02*
X013252Y004257D01*
X008685Y006619D02*
X008685Y007229D01*
X008449Y007465D01*
X008055Y007465D01*
X007661Y007465D01*
X007504Y007623D01*
X007504Y008213D01*
X007661Y007465D02*
X007976Y007150D01*
X007976Y006914D01*
X008331Y007190D02*
X008055Y007465D01*
X008331Y007190D02*
X008331Y006914D01*
X008508Y006580D02*
X008646Y006580D01*
X008685Y006619D01*
X006323Y006914D02*
X006323Y007269D01*
X005575Y007229D02*
X005535Y007190D01*
X005535Y006914D01*
X003331Y011363D02*
X002346Y011363D01*
X003331Y011363D02*
X003527Y011560D01*
X003527Y012741D01*
X002346Y012741D01*
X003527Y012741D02*
X003527Y014513D01*
X003882Y014867D01*
X003882Y015064D01*
X003882Y015418D01*
X004059Y015595D01*
X004059Y016225D01*
D53*
X001283Y018646D02*
X001047Y018410D01*
X001047Y017918D01*
D54*
X001047Y015910D02*
X001047Y015182D01*
X001071Y015158D01*
X001126Y015158D01*
X001086Y015119D01*
M02*
