%
M48
M72
T01C0.0118
T02C0.0197
T03C0.0236
T04C0.0315
T05C0.0394
T06C0.0400
T07C0.0787
T08C0.2362
%
T01
X3961Y18292
X4236Y18568
X3921Y17564
X4551Y17524
X5004Y18115
X5102Y18765
X5811Y18135
X5968Y18883
X6520Y18883
X6756Y17623
X6323Y16914
X7346Y17623
X7858Y17820
X8409Y17820
X8921Y18292
X9275Y18272
X9768Y18272
X9669Y19040
X9275Y19828
X8449Y20457
X7504Y19946
X7858Y19158
X8409Y19158
X9630Y17308
X9157Y16639
X9256Y16127
X10024Y17072
X10968Y18331
X10535Y18489
X10968Y19473
X10693Y20536
X10024Y20694
X9669Y21206
X9079Y21914
X9669Y22977
X9197Y23725
X9590Y24237
X10457Y24237
X11342Y25241
X12524Y22485
X12898Y21501
X12858Y20654
X12386Y19788
X11953Y20182
X12858Y18725
X13232Y17032
X11244Y17623
X10024Y15143
X10653Y14591
X11126Y14591
X12386Y10654
X12661Y9985
X12464Y9631
X12976Y9316
X12031Y6402
X11283Y5438
X11559Y5182
X13252Y4257
X9709Y4454
X9157Y5418
X9197Y5753
X9787Y5635
X9000Y6520
X8331Y6914
X7976Y6914
X7622Y6993
X7346Y7347
X7779Y7780
X6716Y6520
X6480Y6245
X6126Y6245
X5693Y6206
X5693Y5457
X5260Y4749
X5142Y3961
X6480Y4828
X6323Y5753
X6323Y6914
X5535Y6914
X5260Y6284
X5575Y8213
X5575Y9040
X6323Y8213
X7898Y10615
X6992Y10930
X8921Y9552
X9590Y9552
X10338Y9670
X7327Y4394
X4335Y8824
X3626Y7288
X2661Y6757
X3685Y5950
X2661Y4276
X4335Y11107
X4335Y12643
X4335Y14178
X7898Y16639
X6953Y20221
X6067Y21245
X5102Y20457
X5968Y22820
X5338Y22977
X5063Y23883
X6244Y24867
X6638Y23883
X7110Y25182
X7701Y23725
X8409Y22938
X7543Y21481
T02
X7504Y8213
X8094Y8804
X8685Y10812
X8685Y12229
X10142Y10851
X10614Y11363
X8212Y6048
X8212Y5654
X8212Y5261
X7819Y5261
X7819Y5654
X7425Y5654
X7425Y5261
X7425Y6048
X7819Y6048
T03
X3252Y18646
X1283Y18646
T04
X1086Y15119
X1086Y14119
X1086Y12607
X1086Y11607
X1086Y10607
X1086Y9686
X1086Y8686
X7189Y19080
X6165Y20182
X7366Y24198
X10220Y22977
X10220Y21442
X11520Y18135
X9984Y14591
X9827Y13568
X11126Y14040
T05
X1598Y6036
X1598Y5036
X12240Y24276
X13240Y24276
T06
X10705Y7163
X12097Y8555
X12937Y11646
X12937Y12646
X12937Y13646
X12937Y14646
X12937Y15646
T07
X4984Y15379
X4984Y11835
T08
X6913Y13607
M30
