G75*
G70*
%OFA0B0*%
%FSLAX24Y24*%
%IPPOS*%
%LPD*%
%AMOC8*
5,1,8,0,0,1.08239X$1,22.5*
%
%ADD10C,0.0000*%
%ADD11C,0.0030*%
%ADD12C,0.0080*%
%ADD13C,0.0040*%
%ADD14C,0.0060*%
%ADD15C,0.0100*%
%ADD16C,0.0047*%
%ADD17C,0.0118*%
D10*
X000260Y003292D02*
X000260Y019119D01*
X004394Y019119D01*
X004394Y025615D01*
X013842Y025615D01*
X013842Y003292D01*
X000260Y003292D01*
X004590Y011835D02*
X004592Y011874D01*
X004598Y011913D01*
X004608Y011951D01*
X004621Y011988D01*
X004638Y012023D01*
X004658Y012057D01*
X004682Y012088D01*
X004709Y012117D01*
X004738Y012143D01*
X004770Y012166D01*
X004804Y012186D01*
X004840Y012202D01*
X004877Y012214D01*
X004916Y012223D01*
X004955Y012228D01*
X004994Y012229D01*
X005033Y012226D01*
X005072Y012219D01*
X005109Y012208D01*
X005146Y012194D01*
X005181Y012176D01*
X005214Y012155D01*
X005245Y012130D01*
X005273Y012103D01*
X005298Y012073D01*
X005320Y012040D01*
X005339Y012006D01*
X005354Y011970D01*
X005366Y011932D01*
X005374Y011894D01*
X005378Y011855D01*
X005378Y011815D01*
X005374Y011776D01*
X005366Y011738D01*
X005354Y011700D01*
X005339Y011664D01*
X005320Y011630D01*
X005298Y011597D01*
X005273Y011567D01*
X005245Y011540D01*
X005214Y011515D01*
X005181Y011494D01*
X005146Y011476D01*
X005109Y011462D01*
X005072Y011451D01*
X005033Y011444D01*
X004994Y011441D01*
X004955Y011442D01*
X004916Y011447D01*
X004877Y011456D01*
X004840Y011468D01*
X004804Y011484D01*
X004770Y011504D01*
X004738Y011527D01*
X004709Y011553D01*
X004682Y011582D01*
X004658Y011613D01*
X004638Y011647D01*
X004621Y011682D01*
X004608Y011719D01*
X004598Y011757D01*
X004592Y011796D01*
X004590Y011835D01*
D11*
X005648Y010230D02*
X005613Y010195D01*
X005613Y010055D01*
X005648Y010020D01*
X005718Y010020D01*
X005753Y010055D01*
X005753Y010195D01*
X005718Y010230D01*
X005648Y010230D01*
X005737Y010374D02*
X005701Y010409D01*
X005701Y010444D01*
X005737Y010479D01*
X005772Y010479D01*
X005737Y010479D02*
X005701Y010514D01*
X005701Y010549D01*
X005737Y010584D01*
X005807Y010584D01*
X005842Y010549D01*
X005922Y010584D02*
X005922Y010444D01*
X005993Y010374D01*
X006063Y010444D01*
X006063Y010584D01*
X006143Y010549D02*
X006143Y010514D01*
X006178Y010479D01*
X006143Y010444D01*
X006143Y010409D01*
X006178Y010374D01*
X006249Y010374D01*
X006284Y010409D01*
X006214Y010479D02*
X006178Y010479D01*
X006143Y010549D02*
X006178Y010584D01*
X006249Y010584D01*
X006284Y010549D01*
X006364Y010479D02*
X006505Y010479D01*
X006435Y010549D02*
X006435Y010409D01*
X006459Y010230D02*
X006529Y010230D01*
X006564Y010195D01*
X006564Y010160D01*
X006529Y010125D01*
X006459Y010125D01*
X006424Y010090D01*
X006424Y010055D01*
X006459Y010020D01*
X006529Y010020D01*
X006564Y010055D01*
X006596Y009876D02*
X006666Y009876D01*
X006701Y009841D01*
X006701Y009806D01*
X006666Y009770D01*
X006596Y009770D01*
X006561Y009735D01*
X006561Y009700D01*
X006596Y009665D01*
X006666Y009665D01*
X006701Y009700D01*
X006561Y009841D02*
X006596Y009876D01*
X006480Y009876D02*
X006480Y009665D01*
X006410Y009735D01*
X006340Y009665D01*
X006340Y009876D01*
X006259Y009876D02*
X006259Y009665D01*
X006154Y009665D01*
X006119Y009700D01*
X006119Y009841D01*
X006154Y009876D01*
X006259Y009876D01*
X006203Y010020D02*
X006203Y010230D01*
X006122Y010230D02*
X006122Y010020D01*
X006017Y010020D01*
X005982Y010055D01*
X005982Y010195D01*
X006017Y010230D01*
X006122Y010230D01*
X006273Y010090D02*
X006203Y010020D01*
X006273Y010090D02*
X006343Y010020D01*
X006343Y010230D01*
X006424Y010195D02*
X006459Y010230D01*
X006038Y009841D02*
X006038Y009700D01*
X006003Y009665D01*
X005933Y009665D01*
X005898Y009700D01*
X005817Y009665D02*
X005817Y009876D01*
X005898Y009841D02*
X005933Y009876D01*
X006003Y009876D01*
X006038Y009841D01*
X005901Y010020D02*
X005831Y010020D01*
X005866Y010020D02*
X005866Y010230D01*
X005901Y010230D02*
X005831Y010230D01*
X005807Y010374D02*
X005842Y010409D01*
X005807Y010374D02*
X005737Y010374D01*
X005596Y009876D02*
X005596Y009665D01*
X005596Y009735D02*
X005456Y009876D01*
X005561Y009770D02*
X005456Y009665D01*
X005513Y009502D02*
X006618Y009502D01*
X006603Y009443D02*
X006498Y009443D01*
X006463Y009407D01*
X006463Y009337D01*
X006498Y009302D01*
X006603Y009302D01*
X006603Y009232D02*
X006603Y009443D01*
X006533Y009302D02*
X006463Y009232D01*
X006382Y009232D02*
X006242Y009232D01*
X006161Y009267D02*
X006126Y009232D01*
X006056Y009232D01*
X006021Y009267D01*
X006021Y009302D01*
X006056Y009337D01*
X006126Y009337D01*
X006161Y009372D01*
X006161Y009407D01*
X006126Y009443D01*
X006056Y009443D01*
X006021Y009407D01*
X005940Y009443D02*
X005940Y009232D01*
X005800Y009232D01*
X005870Y009337D02*
X005940Y009337D01*
X005940Y009443D02*
X005800Y009443D01*
X005719Y009443D02*
X005579Y009443D01*
X005649Y009443D02*
X005649Y009232D01*
X005800Y009088D02*
X005765Y009053D01*
X005765Y008913D01*
X005800Y008878D01*
X005905Y008878D01*
X005905Y009088D01*
X005800Y009088D01*
X005986Y009088D02*
X005986Y008878D01*
X006126Y009088D01*
X006126Y008878D01*
X006207Y008913D02*
X006207Y008983D01*
X006277Y008983D01*
X006207Y008913D02*
X006242Y008878D01*
X006312Y008878D01*
X006347Y008913D01*
X006347Y009053D01*
X006312Y009088D01*
X006242Y009088D01*
X006207Y009053D01*
X006382Y009232D02*
X006382Y009443D01*
X006242Y009443D01*
X006312Y009337D02*
X006382Y009337D01*
X006607Y008303D02*
X006572Y008268D01*
X006712Y008128D01*
X006677Y008093D01*
X006607Y008093D01*
X006572Y008128D01*
X006572Y008268D01*
X006607Y008303D02*
X006677Y008303D01*
X006712Y008268D01*
X006712Y008128D01*
X006793Y008128D02*
X006828Y008093D01*
X006898Y008093D01*
X006933Y008128D01*
X007014Y008128D02*
X007049Y008093D01*
X007119Y008093D01*
X007154Y008128D01*
X007154Y008268D01*
X007119Y008303D01*
X007049Y008303D01*
X007014Y008268D01*
X006933Y008268D02*
X006898Y008303D01*
X006828Y008303D01*
X006793Y008268D01*
X006793Y008233D01*
X006828Y008198D01*
X006793Y008163D01*
X006793Y008128D01*
X006828Y008198D02*
X006863Y008198D01*
X006838Y007586D02*
X006768Y007586D01*
X006733Y007551D01*
X006652Y007516D02*
X006582Y007586D01*
X006582Y007376D01*
X006652Y007376D02*
X006512Y007376D01*
X006431Y007376D02*
X006291Y007376D01*
X006361Y007376D02*
X006361Y007586D01*
X006431Y007516D01*
X006733Y007411D02*
X006768Y007376D01*
X006838Y007376D01*
X006873Y007411D01*
X006873Y007551D01*
X006838Y007586D01*
X007983Y006606D02*
X007983Y006571D01*
X008019Y006536D01*
X007983Y006501D01*
X007983Y006466D01*
X008019Y006431D01*
X008089Y006431D01*
X008124Y006466D01*
X008204Y006466D02*
X008204Y006501D01*
X008240Y006536D01*
X008275Y006536D01*
X008240Y006536D02*
X008204Y006571D01*
X008204Y006606D01*
X008240Y006641D01*
X008310Y006641D01*
X008345Y006606D01*
X008425Y006606D02*
X008461Y006641D01*
X008531Y006641D01*
X008566Y006606D01*
X008566Y006466D01*
X008531Y006431D01*
X008461Y006431D01*
X008425Y006466D01*
X008345Y006466D02*
X008310Y006431D01*
X008240Y006431D01*
X008204Y006466D01*
X008124Y006606D02*
X008089Y006641D01*
X008019Y006641D01*
X007983Y006606D01*
X008019Y006536D02*
X008054Y006536D01*
X008753Y007029D02*
X008788Y006994D01*
X008928Y006994D01*
X008963Y007029D01*
X008963Y007099D01*
X008928Y007134D01*
X008928Y007215D02*
X008963Y007250D01*
X008963Y007320D01*
X008928Y007355D01*
X008893Y007355D01*
X008858Y007320D01*
X008823Y007355D01*
X008788Y007355D01*
X008753Y007320D01*
X008753Y007250D01*
X008788Y007215D01*
X008788Y007134D02*
X008753Y007099D01*
X008753Y007029D01*
X008858Y007285D02*
X008858Y007320D01*
X008928Y007436D02*
X008963Y007471D01*
X008963Y007541D01*
X008928Y007576D01*
X008893Y007576D01*
X008753Y007436D01*
X008753Y007576D01*
X008648Y009986D02*
X008438Y009986D01*
X008508Y009986D02*
X008508Y010091D01*
X008543Y010126D01*
X008613Y010126D01*
X008648Y010091D01*
X008648Y009986D01*
X008508Y010056D02*
X008438Y010126D01*
X008438Y010207D02*
X008438Y010347D01*
X008438Y010277D02*
X008648Y010277D01*
X008578Y010207D01*
X007735Y011150D02*
X007665Y011150D01*
X007630Y011185D01*
X007549Y011255D02*
X007409Y011255D01*
X007328Y011325D02*
X007293Y011360D01*
X007223Y011360D01*
X007188Y011325D01*
X007188Y011290D01*
X007328Y011150D01*
X007188Y011150D01*
X007444Y011150D02*
X007444Y011360D01*
X007549Y011255D01*
X007630Y011325D02*
X007665Y011360D01*
X007735Y011360D01*
X007770Y011325D01*
X007770Y011185D01*
X007735Y011150D01*
X006347Y011061D02*
X006347Y011026D01*
X006312Y010991D01*
X006242Y010991D01*
X006207Y010956D01*
X006207Y010921D01*
X006242Y010886D01*
X006312Y010886D01*
X006347Y010921D01*
X006347Y011061D02*
X006312Y011096D01*
X006242Y011096D01*
X006207Y011061D01*
X006126Y011096D02*
X006126Y010886D01*
X006056Y010956D01*
X005986Y010886D01*
X005986Y011096D01*
X005905Y011096D02*
X005800Y011096D01*
X005765Y011061D01*
X005765Y010921D01*
X005800Y010886D01*
X005905Y010886D01*
X005905Y011096D01*
X005817Y009665D02*
X005677Y009665D01*
X004751Y007980D02*
X004786Y007945D01*
X004786Y007805D01*
X004751Y007770D01*
X004681Y007770D01*
X004646Y007805D01*
X004565Y007805D02*
X004530Y007770D01*
X004460Y007770D01*
X004425Y007805D01*
X004425Y007840D01*
X004460Y007875D01*
X004495Y007875D01*
X004460Y007875D02*
X004425Y007910D01*
X004425Y007945D01*
X004460Y007980D01*
X004530Y007980D01*
X004565Y007945D01*
X004646Y007945D02*
X004681Y007980D01*
X004751Y007980D01*
X004344Y007910D02*
X004274Y007980D01*
X004274Y007770D01*
X004344Y007770D02*
X004204Y007770D01*
X004200Y007271D02*
X004165Y007236D01*
X004305Y007096D01*
X004270Y007061D01*
X004200Y007061D01*
X004165Y007096D01*
X004165Y007236D01*
X004200Y007271D02*
X004270Y007271D01*
X004305Y007236D01*
X004305Y007096D01*
X004386Y007061D02*
X004526Y007061D01*
X004456Y007061D02*
X004456Y007271D01*
X004526Y007201D01*
X004607Y007236D02*
X004642Y007271D01*
X004712Y007271D01*
X004747Y007236D01*
X004747Y007096D01*
X004712Y007061D01*
X004642Y007061D01*
X004607Y007096D01*
X004168Y005681D02*
X004133Y005611D01*
X004063Y005541D01*
X004063Y005646D01*
X004028Y005681D01*
X003993Y005681D01*
X003958Y005646D01*
X003958Y005576D01*
X003993Y005541D01*
X004063Y005541D01*
X004098Y005460D02*
X004133Y005460D01*
X004168Y005425D01*
X004168Y005355D01*
X004133Y005320D01*
X004133Y005239D02*
X004063Y005239D01*
X004028Y005204D01*
X004028Y005099D01*
X004028Y005169D02*
X003958Y005239D01*
X003958Y005320D02*
X004098Y005460D01*
X003958Y005460D02*
X003958Y005320D01*
X004133Y005239D02*
X004168Y005204D01*
X004168Y005099D01*
X003958Y005099D01*
X003914Y004287D02*
X004019Y004182D01*
X003879Y004182D01*
X003798Y004112D02*
X003658Y004252D01*
X003658Y004112D01*
X003693Y004077D01*
X003763Y004077D01*
X003798Y004112D01*
X003798Y004252D01*
X003763Y004287D01*
X003693Y004287D01*
X003658Y004252D01*
X003914Y004287D02*
X003914Y004077D01*
X004100Y004112D02*
X004135Y004077D01*
X004205Y004077D01*
X004240Y004112D01*
X004240Y004252D01*
X004205Y004287D01*
X004135Y004287D01*
X004100Y004252D01*
X005351Y004051D02*
X005351Y004016D01*
X005491Y003876D01*
X005491Y003841D01*
X005572Y003841D02*
X005712Y003841D01*
X005572Y003981D01*
X005572Y004016D01*
X005607Y004051D01*
X005677Y004051D01*
X005712Y004016D01*
X005793Y004016D02*
X005793Y003946D01*
X005828Y003911D01*
X005933Y003911D01*
X005863Y003911D02*
X005793Y003841D01*
X005933Y003841D02*
X005933Y004051D01*
X005828Y004051D01*
X005793Y004016D01*
X005491Y004051D02*
X005351Y004051D01*
X006251Y003833D02*
X006391Y003833D01*
X006321Y003833D02*
X006321Y004043D01*
X006391Y003973D01*
X006472Y003938D02*
X006612Y003938D01*
X006507Y004043D01*
X006507Y003833D01*
X006693Y003868D02*
X006728Y003833D01*
X006798Y003833D01*
X006833Y003868D01*
X006833Y004008D01*
X006798Y004043D01*
X006728Y004043D01*
X006693Y004008D01*
X009824Y005040D02*
X009824Y005110D01*
X009859Y005145D01*
X009859Y005226D02*
X009824Y005261D01*
X009824Y005331D01*
X009859Y005366D01*
X009999Y005366D01*
X010034Y005331D01*
X010034Y005261D01*
X009999Y005226D01*
X009964Y005226D01*
X009929Y005261D01*
X009929Y005366D01*
X009999Y005145D02*
X010034Y005110D01*
X010034Y005040D01*
X009999Y005005D01*
X009859Y005005D01*
X009824Y005040D01*
X011771Y007089D02*
X011870Y007188D01*
X011821Y007139D02*
X011672Y007287D01*
X011771Y007287D01*
X011853Y007320D02*
X011903Y007369D01*
X011853Y007320D02*
X011903Y007270D01*
X011952Y007270D01*
X012002Y007320D01*
X012002Y007369D01*
X011903Y007468D01*
X011853Y007468D01*
X011804Y007419D01*
X011804Y007369D01*
X011960Y007526D02*
X011960Y007575D01*
X012009Y007625D01*
X012059Y007625D01*
X012084Y007600D01*
X012084Y007550D01*
X012034Y007501D01*
X012034Y007451D01*
X012059Y007426D01*
X012109Y007426D01*
X012158Y007476D01*
X012158Y007526D01*
X009711Y010616D02*
X009711Y010721D01*
X009676Y010756D01*
X009606Y010756D01*
X009571Y010721D01*
X009571Y010616D01*
X009501Y010616D02*
X009711Y010616D01*
X009571Y010686D02*
X009501Y010756D01*
X009501Y010837D02*
X009641Y010977D01*
X009676Y010977D01*
X009711Y010942D01*
X009711Y010872D01*
X009676Y010837D01*
X009501Y010837D02*
X009501Y010977D01*
X008920Y014974D02*
X008920Y015185D01*
X008815Y015185D01*
X008780Y015150D01*
X008780Y015080D01*
X008815Y015045D01*
X008920Y015045D01*
X008850Y015045D02*
X008780Y014974D01*
X008699Y015009D02*
X008664Y014974D01*
X008594Y014974D01*
X008559Y015009D01*
X008559Y015080D01*
X008594Y015115D01*
X008629Y015115D01*
X008699Y015080D01*
X008699Y015185D01*
X008559Y015185D01*
X008478Y015150D02*
X008443Y015185D01*
X008373Y015185D01*
X008338Y015150D01*
X008338Y015115D01*
X008478Y014974D01*
X008338Y014974D01*
X008097Y015919D02*
X008027Y015919D01*
X007992Y015954D01*
X007912Y016024D02*
X007771Y016024D01*
X007691Y015989D02*
X007656Y016024D01*
X007585Y016024D01*
X007550Y015989D01*
X007550Y015954D01*
X007585Y015919D01*
X007656Y015919D01*
X007691Y015954D01*
X007691Y015989D01*
X007656Y016024D02*
X007691Y016059D01*
X007691Y016094D01*
X007656Y016130D01*
X007585Y016130D01*
X007550Y016094D01*
X007550Y016059D01*
X007585Y016024D01*
X007806Y015919D02*
X007806Y016130D01*
X007912Y016024D01*
X007992Y016094D02*
X008027Y016130D01*
X008097Y016130D01*
X008133Y016094D01*
X008133Y015954D01*
X008097Y015919D01*
X007830Y016871D02*
X007619Y016871D01*
X007689Y016871D02*
X007689Y016976D01*
X007724Y017011D01*
X007795Y017011D01*
X007830Y016976D01*
X007830Y016871D01*
X007689Y016941D02*
X007619Y017011D01*
X007724Y017092D02*
X007724Y017232D01*
X007795Y017313D02*
X007830Y017348D01*
X007830Y017418D01*
X007795Y017453D01*
X007759Y017453D01*
X007619Y017313D01*
X007619Y017453D01*
X007619Y017197D02*
X007830Y017197D01*
X007724Y017092D01*
X008259Y017074D02*
X008259Y017039D01*
X008399Y016899D01*
X008399Y016864D01*
X008515Y016864D02*
X008515Y017074D01*
X008620Y016969D01*
X008480Y016969D01*
X008399Y017074D02*
X008259Y017074D01*
X008701Y017039D02*
X008736Y017074D01*
X008806Y017074D01*
X008841Y017039D01*
X008841Y016899D01*
X008806Y016864D01*
X008736Y016864D01*
X008701Y016899D01*
X008722Y017264D02*
X008932Y017264D01*
X008932Y017369D01*
X008897Y017404D01*
X008827Y017404D01*
X008792Y017369D01*
X008792Y017264D01*
X008792Y017334D02*
X008722Y017404D01*
X008757Y017485D02*
X008722Y017520D01*
X008722Y017590D01*
X008757Y017625D01*
X008827Y017625D01*
X008862Y017590D01*
X008862Y017555D01*
X008827Y017485D01*
X008932Y017485D01*
X008932Y017625D01*
X008897Y017706D02*
X008757Y017706D01*
X008897Y017846D01*
X008757Y017846D01*
X008722Y017811D01*
X008722Y017741D01*
X008757Y017706D01*
X008897Y017706D02*
X008932Y017741D01*
X008932Y017811D01*
X008897Y017846D01*
X008903Y018486D02*
X008973Y018556D01*
X008938Y018556D02*
X009044Y018556D01*
X009044Y018486D02*
X009044Y018697D01*
X008938Y018697D01*
X008903Y018662D01*
X008903Y018592D01*
X008938Y018556D01*
X008823Y018592D02*
X008682Y018592D01*
X008602Y018627D02*
X008567Y018592D01*
X008461Y018592D01*
X008461Y018662D02*
X008496Y018697D01*
X008567Y018697D01*
X008602Y018662D01*
X008602Y018627D01*
X008602Y018521D02*
X008567Y018486D01*
X008496Y018486D01*
X008461Y018521D01*
X008461Y018662D01*
X008717Y018697D02*
X008717Y018486D01*
X008823Y018592D02*
X008717Y018697D01*
X008182Y019904D02*
X008112Y019904D01*
X008077Y019939D01*
X007996Y019904D02*
X007856Y020044D01*
X007856Y020079D01*
X007891Y020114D01*
X007961Y020114D01*
X007996Y020079D01*
X008077Y020079D02*
X008112Y020114D01*
X008182Y020114D01*
X008217Y020079D01*
X008217Y019939D01*
X008182Y019904D01*
X007996Y019904D02*
X007856Y019904D01*
X007775Y019904D02*
X007775Y019939D01*
X007635Y020079D01*
X007635Y020114D01*
X007775Y020114D01*
X007763Y020604D02*
X007763Y020815D01*
X007833Y020744D01*
X007914Y020709D02*
X007949Y020674D01*
X008054Y020674D01*
X008054Y020604D02*
X008054Y020815D01*
X007949Y020815D01*
X007914Y020780D01*
X007914Y020709D01*
X007984Y020674D02*
X007914Y020604D01*
X007833Y020604D02*
X007693Y020604D01*
X007612Y020639D02*
X007612Y020674D01*
X007577Y020709D01*
X007507Y020709D01*
X007472Y020674D01*
X007472Y020639D01*
X007507Y020604D01*
X007577Y020604D01*
X007612Y020639D01*
X007577Y020709D02*
X007612Y020744D01*
X007612Y020780D01*
X007577Y020815D01*
X007507Y020815D01*
X007472Y020780D01*
X007472Y020744D01*
X007507Y020709D01*
X007160Y020716D02*
X007125Y020751D01*
X007055Y020751D01*
X007020Y020716D01*
X007020Y020611D01*
X007020Y020681D02*
X006950Y020751D01*
X006950Y020832D02*
X006950Y020972D01*
X006950Y020902D02*
X007160Y020902D01*
X007090Y020832D01*
X007160Y020716D02*
X007160Y020611D01*
X006950Y020611D01*
X006570Y020650D02*
X006570Y020755D01*
X006535Y020790D01*
X006465Y020790D01*
X006430Y020755D01*
X006430Y020650D01*
X006430Y020720D02*
X006360Y020790D01*
X006360Y020871D02*
X006360Y021011D01*
X006360Y020941D02*
X006570Y020941D01*
X006500Y020871D01*
X006535Y021092D02*
X006570Y021127D01*
X006570Y021197D01*
X006535Y021232D01*
X006500Y021232D01*
X006465Y021197D01*
X006430Y021232D01*
X006395Y021232D01*
X006360Y021197D01*
X006360Y021127D01*
X006395Y021092D01*
X006465Y021162D02*
X006465Y021197D01*
X006360Y020650D02*
X006570Y020650D01*
X006950Y021053D02*
X007090Y021193D01*
X007125Y021193D01*
X007160Y021158D01*
X007160Y021088D01*
X007125Y021053D01*
X006950Y021053D02*
X006950Y021193D01*
X007713Y021479D02*
X007854Y021479D01*
X007713Y021619D01*
X007713Y021654D01*
X007748Y021689D01*
X007818Y021689D01*
X007854Y021654D01*
X007934Y021654D02*
X007969Y021689D01*
X008039Y021689D01*
X008074Y021654D01*
X008155Y021654D02*
X008190Y021689D01*
X008260Y021689D01*
X008295Y021654D01*
X008295Y021514D01*
X008260Y021479D01*
X008190Y021479D01*
X008155Y021514D01*
X008074Y021479D02*
X007934Y021619D01*
X007934Y021654D01*
X007934Y021479D02*
X008074Y021479D01*
X008491Y022415D02*
X008456Y022450D01*
X008456Y022591D01*
X008596Y022450D01*
X008561Y022415D01*
X008491Y022415D01*
X008596Y022450D02*
X008596Y022591D01*
X008561Y022626D01*
X008491Y022626D01*
X008456Y022591D01*
X008677Y022415D02*
X008817Y022415D01*
X008747Y022415D02*
X008747Y022626D01*
X008817Y022556D01*
X008898Y022591D02*
X008898Y022520D01*
X008933Y022485D01*
X009038Y022485D01*
X009038Y022415D02*
X009038Y022626D01*
X008933Y022626D01*
X008898Y022591D01*
X008968Y022485D02*
X008898Y022415D01*
X008867Y021592D02*
X008832Y021557D01*
X008832Y021487D01*
X008867Y021452D01*
X008937Y021452D02*
X008972Y021522D01*
X008972Y021557D01*
X008937Y021592D01*
X008867Y021592D01*
X008937Y021452D02*
X009042Y021452D01*
X009042Y021592D01*
X009007Y021371D02*
X008972Y021371D01*
X008832Y021231D01*
X008832Y021371D01*
X009007Y021371D02*
X009042Y021336D01*
X009042Y021266D01*
X009007Y021231D01*
X009007Y021150D02*
X009042Y021115D01*
X009042Y021045D01*
X009007Y021010D01*
X008867Y021010D01*
X008832Y021045D01*
X008832Y021115D01*
X008867Y021150D01*
X008803Y020271D02*
X008733Y020271D01*
X008698Y020236D01*
X008838Y020096D01*
X008803Y020061D01*
X008733Y020061D01*
X008698Y020096D01*
X008698Y020236D01*
X008803Y020271D02*
X008838Y020236D01*
X008838Y020096D01*
X008919Y020061D02*
X009059Y020061D01*
X008919Y020201D01*
X008919Y020236D01*
X008954Y020271D01*
X009024Y020271D01*
X009059Y020236D01*
X009140Y020236D02*
X009140Y020166D01*
X009175Y020131D01*
X009280Y020131D01*
X009280Y020061D02*
X009280Y020271D01*
X009175Y020271D01*
X009140Y020236D01*
X009210Y020131D02*
X009140Y020061D01*
X009501Y021404D02*
X009711Y021404D01*
X009711Y021509D01*
X009676Y021544D01*
X009606Y021544D01*
X009571Y021509D01*
X009571Y021404D01*
X009571Y021474D02*
X009501Y021544D01*
X009501Y021625D02*
X009501Y021765D01*
X009501Y021695D02*
X009711Y021695D01*
X009641Y021625D01*
X009711Y021846D02*
X009711Y021986D01*
X009676Y021986D01*
X009536Y021846D01*
X009501Y021846D01*
X009930Y023293D02*
X009895Y023328D01*
X009895Y023398D01*
X009930Y023433D01*
X009895Y023514D02*
X009895Y023654D01*
X009895Y023584D02*
X010105Y023584D01*
X010035Y023514D01*
X010070Y023433D02*
X010105Y023398D01*
X010105Y023328D01*
X010070Y023293D01*
X009930Y023293D01*
X009930Y023735D02*
X009895Y023770D01*
X009895Y023840D01*
X009930Y023875D01*
X010070Y023875D01*
X010105Y023840D01*
X010105Y023770D01*
X010070Y023735D01*
X010035Y023735D01*
X010000Y023770D01*
X010000Y023875D01*
X009830Y025171D02*
X009760Y025171D01*
X009725Y025206D01*
X009644Y025171D02*
X009504Y025171D01*
X009574Y025171D02*
X009574Y025381D01*
X009644Y025311D01*
X009725Y025346D02*
X009760Y025381D01*
X009830Y025381D01*
X009865Y025346D01*
X009865Y025206D01*
X009830Y025171D01*
X009423Y025276D02*
X009283Y025276D01*
X009318Y025171D02*
X009318Y025381D01*
X009423Y025276D01*
X008810Y024545D02*
X008845Y024510D01*
X008845Y024440D01*
X008810Y024405D01*
X008775Y024405D01*
X008740Y024440D01*
X008740Y024510D01*
X008705Y024545D01*
X008670Y024545D01*
X008635Y024510D01*
X008635Y024440D01*
X008670Y024405D01*
X008705Y024405D01*
X008740Y024440D01*
X008740Y024510D02*
X008775Y024545D01*
X008810Y024545D01*
X008635Y024324D02*
X008635Y024184D01*
X008635Y024254D02*
X008845Y024254D01*
X008775Y024184D01*
X008810Y024103D02*
X008845Y024068D01*
X008845Y023998D01*
X008810Y023963D01*
X008670Y023963D01*
X008635Y023998D01*
X008635Y024068D01*
X008670Y024103D01*
X008176Y024068D02*
X008141Y024103D01*
X008071Y024103D01*
X008036Y024068D01*
X008036Y023963D01*
X008036Y024033D02*
X007966Y024103D01*
X008071Y024184D02*
X008071Y024324D01*
X008176Y024289D02*
X008071Y024184D01*
X007966Y024289D02*
X008176Y024289D01*
X008176Y024068D02*
X008176Y023963D01*
X007966Y023963D01*
X007546Y023254D02*
X007336Y023254D01*
X007336Y023184D02*
X007336Y023324D01*
X007476Y023184D02*
X007546Y023254D01*
X007511Y023103D02*
X007546Y023068D01*
X007546Y022998D01*
X007511Y022963D01*
X007511Y022882D02*
X007546Y022847D01*
X007546Y022777D01*
X007511Y022742D01*
X007371Y022742D01*
X007336Y022777D01*
X007336Y022847D01*
X007371Y022882D01*
X007336Y022963D02*
X007476Y023103D01*
X007511Y023103D01*
X007336Y023103D02*
X007336Y022963D01*
X006916Y022944D02*
X006916Y023014D01*
X006881Y023049D01*
X006741Y022909D01*
X006706Y022944D01*
X006706Y023014D01*
X006741Y023049D01*
X006881Y023049D01*
X006916Y022944D02*
X006881Y022909D01*
X006741Y022909D01*
X006706Y022828D02*
X006706Y022688D01*
X006846Y022828D01*
X006881Y022828D01*
X006916Y022793D01*
X006916Y022723D01*
X006881Y022688D01*
X006881Y022607D02*
X006916Y022572D01*
X006916Y022502D01*
X006881Y022467D01*
X006741Y022467D01*
X006706Y022502D01*
X006706Y022572D01*
X006741Y022607D01*
X006371Y023526D02*
X006301Y023526D01*
X006266Y023561D01*
X006185Y023561D02*
X006150Y023526D01*
X006080Y023526D01*
X006045Y023561D01*
X006045Y023631D01*
X006080Y023666D01*
X006115Y023666D01*
X006185Y023631D01*
X006185Y023736D01*
X006045Y023736D01*
X005964Y023701D02*
X005929Y023736D01*
X005859Y023736D01*
X005824Y023701D01*
X005824Y023666D01*
X005859Y023631D01*
X005824Y023596D01*
X005824Y023561D01*
X005859Y023526D01*
X005929Y023526D01*
X005964Y023561D01*
X005894Y023631D02*
X005859Y023631D01*
X005862Y024030D02*
X005827Y024065D01*
X005862Y024030D02*
X005932Y024030D01*
X005967Y024065D01*
X005967Y024205D01*
X005932Y024240D01*
X005862Y024240D01*
X005827Y024205D01*
X005746Y024170D02*
X005676Y024240D01*
X005676Y024030D01*
X005746Y024030D02*
X005606Y024030D01*
X005525Y024030D02*
X005525Y024065D01*
X005385Y024205D01*
X005385Y024240D01*
X005525Y024240D01*
X006266Y023701D02*
X006301Y023736D01*
X006371Y023736D01*
X006406Y023701D01*
X006406Y023561D01*
X006371Y023526D01*
X005731Y022862D02*
X005731Y022652D01*
X005731Y022722D02*
X005626Y022722D01*
X005591Y022757D01*
X005591Y022827D01*
X005626Y022862D01*
X005731Y022862D01*
X005661Y022722D02*
X005591Y022652D01*
X005510Y022652D02*
X005370Y022652D01*
X005440Y022652D02*
X005440Y022862D01*
X005510Y022792D01*
X005289Y022792D02*
X005219Y022862D01*
X005219Y022652D01*
X005289Y022652D02*
X005149Y022652D01*
X005070Y022104D02*
X005035Y022104D01*
X005000Y022069D01*
X004965Y022104D01*
X004930Y022104D01*
X004895Y022069D01*
X004895Y021999D01*
X004930Y021964D01*
X004895Y021883D02*
X004895Y021743D01*
X005035Y021883D01*
X005070Y021883D01*
X005105Y021848D01*
X005105Y021778D01*
X005070Y021743D01*
X005070Y021662D02*
X005105Y021627D01*
X005105Y021557D01*
X005070Y021522D01*
X004930Y021522D01*
X004895Y021557D01*
X004895Y021627D01*
X004930Y021662D01*
X005070Y021964D02*
X005105Y021999D01*
X005105Y022069D01*
X005070Y022104D01*
X005000Y022069D02*
X005000Y022034D01*
X006725Y019641D02*
X006690Y019606D01*
X006690Y019571D01*
X006725Y019536D01*
X006795Y019536D01*
X006830Y019571D01*
X006830Y019606D01*
X006795Y019641D01*
X006725Y019641D01*
X006725Y019536D02*
X006690Y019501D01*
X006690Y019466D01*
X006725Y019431D01*
X006795Y019431D01*
X006830Y019466D01*
X006830Y019501D01*
X006795Y019536D01*
X006911Y019571D02*
X006911Y019606D01*
X006946Y019641D01*
X007016Y019641D01*
X007051Y019606D01*
X007132Y019606D02*
X007167Y019641D01*
X007237Y019641D01*
X007272Y019606D01*
X007272Y019466D01*
X007237Y019431D01*
X007167Y019431D01*
X007132Y019466D01*
X007051Y019431D02*
X006911Y019431D01*
X007051Y019431D02*
X006911Y019571D01*
X006312Y017734D02*
X006312Y017594D01*
X006312Y017664D02*
X006522Y017664D01*
X006452Y017594D01*
X006417Y017513D02*
X006417Y017373D01*
X006522Y017478D01*
X006312Y017478D01*
X006312Y017292D02*
X006382Y017222D01*
X006382Y017257D02*
X006382Y017152D01*
X006312Y017152D02*
X006522Y017152D01*
X006522Y017257D01*
X006487Y017292D01*
X006417Y017292D01*
X006382Y017257D01*
X009446Y016339D02*
X009446Y016304D01*
X009481Y016269D01*
X009446Y016234D01*
X009446Y016199D01*
X009481Y016164D01*
X009551Y016164D01*
X009586Y016199D01*
X009667Y016199D02*
X009702Y016164D01*
X009772Y016164D01*
X009807Y016199D01*
X009807Y016269D02*
X009737Y016304D01*
X009702Y016304D01*
X009667Y016269D01*
X009667Y016199D01*
X009807Y016269D02*
X009807Y016374D01*
X009667Y016374D01*
X009586Y016339D02*
X009551Y016374D01*
X009481Y016374D01*
X009446Y016339D01*
X009481Y016269D02*
X009516Y016269D01*
X009888Y016269D02*
X009923Y016234D01*
X010028Y016234D01*
X009958Y016234D02*
X009888Y016164D01*
X009888Y016269D02*
X009888Y016339D01*
X009923Y016374D01*
X010028Y016374D01*
X010028Y016164D01*
X010092Y016001D02*
X010092Y015861D01*
X010092Y015931D02*
X010302Y015931D01*
X010232Y015861D01*
X010197Y015780D02*
X010127Y015780D01*
X010092Y015745D01*
X010092Y015675D01*
X010127Y015640D01*
X010197Y015640D02*
X010232Y015710D01*
X010232Y015745D01*
X010197Y015780D01*
X010302Y015780D02*
X010302Y015640D01*
X010197Y015640D01*
X010267Y015559D02*
X010302Y015524D01*
X010302Y015454D01*
X010267Y015419D01*
X010127Y015419D01*
X010092Y015454D01*
X010092Y015524D01*
X010127Y015559D01*
X010263Y017337D02*
X010228Y017372D01*
X010228Y017512D01*
X010263Y017547D01*
X010333Y017547D01*
X010368Y017512D01*
X010368Y017477D01*
X010333Y017442D01*
X010228Y017442D01*
X010263Y017337D02*
X010333Y017337D01*
X010368Y017372D01*
X010449Y017442D02*
X010589Y017442D01*
X010484Y017547D01*
X010484Y017337D01*
X010670Y017372D02*
X010705Y017337D01*
X010775Y017337D01*
X010810Y017372D01*
X010810Y017512D01*
X010775Y017547D01*
X010705Y017547D01*
X010670Y017512D01*
X011470Y017384D02*
X011680Y017384D01*
X011575Y017279D01*
X011575Y017419D01*
X011575Y017198D02*
X011505Y017198D01*
X011470Y017163D01*
X011470Y017093D01*
X011505Y017058D01*
X011575Y017058D02*
X011610Y017128D01*
X011610Y017163D01*
X011575Y017198D01*
X011680Y017198D02*
X011680Y017058D01*
X011575Y017058D01*
X011575Y016977D02*
X011540Y016942D01*
X011540Y016837D01*
X011540Y016907D02*
X011470Y016977D01*
X011575Y016977D02*
X011645Y016977D01*
X011680Y016942D01*
X011680Y016837D01*
X011470Y016837D01*
X011465Y016041D02*
X011430Y016006D01*
X011430Y015936D01*
X011465Y015901D01*
X011605Y016041D01*
X011465Y016041D01*
X011465Y015901D02*
X011605Y015901D01*
X011640Y015936D01*
X011640Y016006D01*
X011605Y016041D01*
X011640Y015820D02*
X011640Y015680D01*
X011535Y015680D01*
X011570Y015750D01*
X011570Y015785D01*
X011535Y015820D01*
X011465Y015820D01*
X011430Y015785D01*
X011430Y015715D01*
X011465Y015680D01*
X011465Y015599D02*
X011430Y015564D01*
X011430Y015494D01*
X011465Y015459D01*
X011605Y015459D01*
X011640Y015494D01*
X011640Y015564D01*
X011605Y015599D01*
X011590Y015027D02*
X011730Y015027D01*
X011730Y014922D01*
X011660Y014957D01*
X011625Y014957D01*
X011590Y014922D01*
X011590Y014852D01*
X011625Y014817D01*
X011695Y014817D01*
X011730Y014852D01*
X011811Y014817D02*
X011881Y014887D01*
X011846Y014887D02*
X011951Y014887D01*
X011951Y014817D02*
X011951Y015027D01*
X011846Y015027D01*
X011811Y014992D01*
X011811Y014922D01*
X011846Y014887D01*
X011509Y014852D02*
X011474Y014817D01*
X011404Y014817D01*
X011369Y014852D01*
X011369Y014887D01*
X011404Y014922D01*
X011509Y014922D01*
X011509Y014852D01*
X011509Y014922D02*
X011439Y014992D01*
X011369Y015027D01*
X012068Y016044D02*
X012278Y016044D01*
X012278Y016149D01*
X012243Y016184D01*
X012173Y016184D01*
X012138Y016149D01*
X012138Y016044D01*
X012138Y016114D02*
X012068Y016184D01*
X012103Y016265D02*
X012068Y016300D01*
X012068Y016370D01*
X012103Y016405D01*
X012173Y016405D01*
X012208Y016370D01*
X012208Y016335D01*
X012173Y016265D01*
X012278Y016265D01*
X012278Y016405D01*
X012278Y016486D02*
X012173Y016486D01*
X012208Y016556D01*
X012208Y016591D01*
X012173Y016626D01*
X012103Y016626D01*
X012068Y016591D01*
X012068Y016521D01*
X012103Y016486D01*
X012278Y016486D02*
X012278Y016626D01*
X011764Y018683D02*
X011694Y018683D01*
X011659Y018718D01*
X011578Y018788D02*
X011438Y018788D01*
X011357Y018788D02*
X011287Y018823D01*
X011252Y018823D01*
X011217Y018788D01*
X011217Y018718D01*
X011252Y018683D01*
X011322Y018683D01*
X011357Y018718D01*
X011357Y018788D02*
X011357Y018893D01*
X011217Y018893D01*
X011473Y018893D02*
X011578Y018788D01*
X011659Y018858D02*
X011694Y018893D01*
X011764Y018893D01*
X011799Y018858D01*
X011799Y018718D01*
X011764Y018683D01*
X011473Y018683D02*
X011473Y018893D01*
X011958Y019481D02*
X011923Y019516D01*
X011923Y019586D01*
X011958Y019621D01*
X012098Y019621D01*
X012133Y019586D01*
X012133Y019516D01*
X012098Y019481D01*
X011958Y019481D01*
X011993Y019551D02*
X011923Y019621D01*
X011923Y019702D02*
X012063Y019842D01*
X012098Y019842D01*
X012133Y019807D01*
X012133Y019737D01*
X012098Y019702D01*
X011923Y019702D02*
X011923Y019842D01*
X012582Y022669D02*
X012722Y022879D01*
X012803Y022879D02*
X012943Y022879D01*
X012873Y022879D02*
X012873Y022669D01*
X012803Y022739D01*
X012722Y022669D02*
X012582Y022879D01*
X011452Y024178D02*
X011452Y024283D01*
X011417Y024318D01*
X011347Y024318D01*
X011311Y024283D01*
X011311Y024178D01*
X011241Y024178D02*
X011452Y024178D01*
X011311Y024248D02*
X011241Y024318D01*
X011276Y024399D02*
X011241Y024434D01*
X011241Y024504D01*
X011276Y024539D01*
X011311Y024539D01*
X011347Y024504D01*
X011347Y024399D01*
X011276Y024399D01*
X011347Y024399D02*
X011417Y024469D01*
X011452Y024539D01*
X006873Y025093D02*
X006873Y025303D01*
X006768Y025303D01*
X006733Y025268D01*
X006733Y025198D01*
X006768Y025163D01*
X006873Y025163D01*
X006803Y025163D02*
X006733Y025093D01*
X006652Y025128D02*
X006652Y025163D01*
X006617Y025198D01*
X006547Y025198D01*
X006512Y025163D01*
X006512Y025128D01*
X006547Y025093D01*
X006617Y025093D01*
X006652Y025128D01*
X006617Y025198D02*
X006652Y025233D01*
X006652Y025268D01*
X006617Y025303D01*
X006547Y025303D01*
X006512Y025268D01*
X006512Y025233D01*
X006547Y025198D01*
X003276Y015446D02*
X003276Y015271D01*
X003241Y015236D01*
X003171Y015236D01*
X003136Y015271D01*
X003136Y015446D01*
X003055Y015411D02*
X003020Y015446D01*
X002950Y015446D01*
X002915Y015411D01*
X002915Y015376D01*
X002950Y015341D01*
X002915Y015306D01*
X002915Y015271D01*
X002950Y015236D01*
X003020Y015236D01*
X003055Y015271D01*
X002985Y015341D02*
X002950Y015341D01*
X000796Y005683D02*
X000832Y005648D01*
X000832Y005578D01*
X000796Y005543D01*
X000832Y005462D02*
X000621Y005322D01*
X000621Y005462D02*
X000832Y005322D01*
X000621Y005543D02*
X000761Y005683D01*
X000796Y005683D01*
X000621Y005683D02*
X000621Y005543D01*
D12*
X005220Y008706D02*
X006913Y008706D01*
X006913Y010753D01*
X005220Y010753D01*
X005220Y008706D01*
X005220Y010753D02*
X005220Y011225D01*
X006913Y011225D01*
X006913Y010753D01*
D13*
X005580Y016167D02*
X005440Y016167D01*
X005393Y016214D01*
X005440Y016261D01*
X005393Y016307D01*
X005440Y016354D01*
X005580Y016354D01*
X005580Y016462D02*
X005440Y016462D01*
X005393Y016509D01*
X005440Y016555D01*
X005393Y016602D01*
X005440Y016649D01*
X005580Y016649D01*
X005580Y016757D02*
X005440Y016757D01*
X005393Y016803D01*
X005440Y016850D01*
X005393Y016897D01*
X005440Y016943D01*
X005580Y016943D01*
X005440Y017051D02*
X005440Y017098D01*
X005393Y017098D01*
X005393Y017051D01*
X005440Y017051D01*
X005440Y017199D02*
X005393Y017245D01*
X005393Y017385D01*
X005440Y017493D02*
X005393Y017540D01*
X005393Y017633D01*
X005440Y017680D01*
X005533Y017680D01*
X005580Y017633D01*
X005580Y017540D01*
X005533Y017493D01*
X005440Y017493D01*
X005580Y017385D02*
X005580Y017245D01*
X005533Y017199D01*
X005440Y017199D01*
X005393Y017788D02*
X005580Y017788D01*
X005580Y017928D01*
X005533Y017975D01*
X005393Y017975D01*
X005440Y018129D02*
X005393Y018176D01*
X005440Y018129D02*
X005626Y018129D01*
X005580Y018083D02*
X005580Y018176D01*
X005580Y018279D02*
X005393Y018279D01*
X005486Y018279D02*
X005580Y018372D01*
X005580Y018419D01*
X005533Y018525D02*
X005440Y018525D01*
X005393Y018571D01*
X005393Y018665D01*
X005440Y018711D01*
X005533Y018711D01*
X005580Y018665D01*
X005580Y018571D01*
X005533Y018525D01*
X005673Y018819D02*
X005673Y018866D01*
X005393Y018866D01*
X005393Y018819D02*
X005393Y018913D01*
X005393Y019016D02*
X005393Y019109D01*
X005393Y019062D02*
X005580Y019062D01*
X005580Y019016D01*
X005673Y019062D02*
X005720Y019062D01*
X005533Y019212D02*
X005580Y019259D01*
X005580Y019399D01*
X005673Y019399D02*
X005393Y019399D01*
X005393Y019259D01*
X005440Y019212D01*
X005533Y019212D01*
X005440Y019507D02*
X005440Y019553D01*
X005393Y019553D01*
X005393Y019507D01*
X005440Y019507D01*
X005440Y019654D02*
X005393Y019701D01*
X005393Y019841D01*
X005440Y019949D02*
X005393Y019995D01*
X005393Y020089D01*
X005440Y020136D01*
X005533Y020136D01*
X005580Y020089D01*
X005580Y019995D01*
X005533Y019949D01*
X005440Y019949D01*
X005580Y019841D02*
X005580Y019701D01*
X005533Y019654D01*
X005440Y019654D01*
X005393Y020243D02*
X005580Y020243D01*
X005580Y020290D01*
X005533Y020337D01*
X005580Y020383D01*
X005533Y020430D01*
X005393Y020430D01*
X005393Y020337D02*
X005533Y020337D01*
X005440Y020538D02*
X005440Y020585D01*
X005393Y020585D01*
X005393Y020538D01*
X005440Y020538D01*
X005393Y020685D02*
X005393Y020825D01*
X005440Y020872D01*
X005533Y020872D01*
X005580Y020825D01*
X005580Y020685D01*
X005673Y020685D02*
X005393Y020685D01*
X005393Y020980D02*
X005580Y020980D01*
X005580Y021073D02*
X005580Y021120D01*
X005580Y021073D02*
X005486Y020980D01*
X010041Y003910D02*
X010041Y003863D01*
X010041Y003770D02*
X010041Y003583D01*
X010087Y003583D02*
X009994Y003583D01*
X009891Y003629D02*
X009891Y003723D01*
X009844Y003770D01*
X009704Y003770D01*
X009704Y003863D02*
X009704Y003583D01*
X009844Y003583D01*
X009891Y003629D01*
X010041Y003770D02*
X010087Y003770D01*
X010237Y003863D02*
X010237Y003583D01*
X010284Y003583D02*
X010190Y003583D01*
X010392Y003629D02*
X010392Y003723D01*
X010438Y003770D01*
X010532Y003770D01*
X010578Y003723D01*
X010578Y003629D01*
X010532Y003583D01*
X010438Y003583D01*
X010392Y003629D01*
X010284Y003863D02*
X010237Y003863D01*
X010684Y003770D02*
X010731Y003770D01*
X010824Y003676D01*
X010824Y003583D02*
X010824Y003770D01*
X010927Y003770D02*
X011020Y003770D01*
X010974Y003816D02*
X010974Y003629D01*
X010927Y003583D01*
X011128Y003583D02*
X011128Y003723D01*
X011175Y003770D01*
X011315Y003770D01*
X011315Y003583D01*
X011423Y003629D02*
X011423Y003723D01*
X011470Y003770D01*
X011563Y003770D01*
X011610Y003723D01*
X011610Y003629D01*
X011563Y003583D01*
X011470Y003583D01*
X011423Y003629D01*
X011718Y003583D02*
X011858Y003583D01*
X011904Y003629D01*
X011904Y003723D01*
X011858Y003770D01*
X011718Y003770D01*
X012005Y003629D02*
X012005Y003583D01*
X012052Y003583D01*
X012052Y003629D01*
X012005Y003629D01*
X012160Y003629D02*
X012160Y003770D01*
X012160Y003629D02*
X012206Y003583D01*
X012253Y003629D01*
X012300Y003583D01*
X012346Y003629D01*
X012346Y003770D01*
X012454Y003770D02*
X012454Y003629D01*
X012501Y003583D01*
X012548Y003629D01*
X012594Y003583D01*
X012641Y003629D01*
X012641Y003770D01*
X012749Y003770D02*
X012749Y003629D01*
X012796Y003583D01*
X012842Y003629D01*
X012889Y003583D01*
X012936Y003629D01*
X012936Y003770D01*
X009596Y003629D02*
X009550Y003629D01*
X009550Y003583D01*
X009596Y003583D01*
X009596Y003629D01*
X009449Y003629D02*
X009449Y003723D01*
X009402Y003770D01*
X009262Y003770D01*
X009154Y003723D02*
X009154Y003629D01*
X009108Y003583D01*
X009014Y003583D01*
X008968Y003629D01*
X008968Y003723D01*
X009014Y003770D01*
X009108Y003770D01*
X009154Y003723D01*
X009262Y003583D02*
X009402Y003583D01*
X009449Y003629D01*
X008860Y003583D02*
X008860Y003770D01*
X008813Y003770D01*
X008766Y003723D01*
X008720Y003770D01*
X008673Y003723D01*
X008673Y003583D01*
X008766Y003583D02*
X008766Y003723D01*
X008565Y003629D02*
X008518Y003629D01*
X008518Y003583D01*
X008565Y003583D01*
X008565Y003629D01*
X008418Y003583D02*
X008418Y003863D01*
X008418Y003770D02*
X008278Y003770D01*
X008231Y003723D01*
X008231Y003629D01*
X008278Y003583D01*
X008418Y003583D01*
X008123Y003583D02*
X008123Y003770D01*
X008030Y003770D02*
X007983Y003770D01*
X008030Y003770D02*
X008123Y003676D01*
D14*
X010901Y007859D02*
X010903Y007903D01*
X010909Y007947D01*
X010919Y007990D01*
X010932Y008032D01*
X010949Y008073D01*
X010970Y008112D01*
X010994Y008149D01*
X011021Y008184D01*
X011051Y008216D01*
X011084Y008246D01*
X011120Y008272D01*
X011157Y008296D01*
X011197Y008315D01*
X011238Y008332D01*
X011281Y008344D01*
X011324Y008353D01*
X011368Y008358D01*
X011412Y008359D01*
X011456Y008356D01*
X011500Y008349D01*
X011543Y008338D01*
X011585Y008324D01*
X011625Y008306D01*
X011664Y008284D01*
X011700Y008260D01*
X011734Y008232D01*
X011766Y008201D01*
X011795Y008167D01*
X011821Y008131D01*
X011843Y008093D01*
X011862Y008053D01*
X011877Y008011D01*
X011889Y007969D01*
X011897Y007925D01*
X011901Y007881D01*
X011901Y007837D01*
X011897Y007793D01*
X011889Y007749D01*
X011877Y007707D01*
X011862Y007665D01*
X011843Y007625D01*
X011821Y007587D01*
X011795Y007551D01*
X011766Y007517D01*
X011734Y007486D01*
X011700Y007458D01*
X011664Y007434D01*
X011625Y007412D01*
X011585Y007394D01*
X011543Y007380D01*
X011500Y007369D01*
X011456Y007362D01*
X011412Y007359D01*
X011368Y007360D01*
X011324Y007365D01*
X011281Y007374D01*
X011238Y007386D01*
X011197Y007403D01*
X011157Y007422D01*
X011120Y007446D01*
X011084Y007472D01*
X011051Y007502D01*
X011021Y007534D01*
X010994Y007569D01*
X010970Y007606D01*
X010949Y007645D01*
X010932Y007686D01*
X010919Y007728D01*
X010909Y007771D01*
X010903Y007815D01*
X010901Y007859D01*
X009039Y007859D02*
X009042Y007975D01*
X009050Y008091D01*
X009065Y008206D01*
X009084Y008320D01*
X009110Y008433D01*
X009141Y008545D01*
X009177Y008655D01*
X009219Y008763D01*
X009266Y008869D01*
X009318Y008972D01*
X009375Y009073D01*
X009437Y009171D01*
X009504Y009266D01*
X009575Y009357D01*
X009651Y009445D01*
X009731Y009529D01*
X009815Y009609D01*
X009903Y009685D01*
X009994Y009756D01*
X010089Y009823D01*
X010187Y009885D01*
X010288Y009942D01*
X010391Y009994D01*
X010497Y010041D01*
X010605Y010083D01*
X010715Y010119D01*
X010827Y010150D01*
X010940Y010176D01*
X011054Y010195D01*
X011169Y010210D01*
X011285Y010218D01*
X011401Y010221D01*
X011517Y010218D01*
X011633Y010210D01*
X011748Y010195D01*
X011862Y010176D01*
X011975Y010150D01*
X012087Y010119D01*
X012197Y010083D01*
X012305Y010041D01*
X012411Y009994D01*
X012514Y009942D01*
X012615Y009885D01*
X012713Y009823D01*
X012808Y009756D01*
X012899Y009685D01*
X012987Y009609D01*
X013071Y009529D01*
X013151Y009445D01*
X013227Y009357D01*
X013298Y009266D01*
X013365Y009171D01*
X013427Y009073D01*
X013484Y008972D01*
X013536Y008869D01*
X013583Y008763D01*
X013625Y008655D01*
X013661Y008545D01*
X013692Y008433D01*
X013718Y008320D01*
X013737Y008206D01*
X013752Y008091D01*
X013760Y007975D01*
X013763Y007859D01*
X013760Y007743D01*
X013752Y007627D01*
X013737Y007512D01*
X013718Y007398D01*
X013692Y007285D01*
X013661Y007173D01*
X013625Y007063D01*
X013583Y006955D01*
X013536Y006849D01*
X013484Y006746D01*
X013427Y006645D01*
X013365Y006547D01*
X013298Y006452D01*
X013227Y006361D01*
X013151Y006273D01*
X013071Y006189D01*
X012987Y006109D01*
X012899Y006033D01*
X012808Y005962D01*
X012713Y005895D01*
X012615Y005833D01*
X012514Y005776D01*
X012411Y005724D01*
X012305Y005677D01*
X012197Y005635D01*
X012087Y005599D01*
X011975Y005568D01*
X011862Y005542D01*
X011748Y005523D01*
X011633Y005508D01*
X011517Y005500D01*
X011401Y005497D01*
X011285Y005500D01*
X011169Y005508D01*
X011054Y005523D01*
X010940Y005542D01*
X010827Y005568D01*
X010715Y005599D01*
X010605Y005635D01*
X010497Y005677D01*
X010391Y005724D01*
X010288Y005776D01*
X010187Y005833D01*
X010089Y005895D01*
X009994Y005962D01*
X009903Y006033D01*
X009815Y006109D01*
X009731Y006189D01*
X009651Y006273D01*
X009575Y006361D01*
X009504Y006452D01*
X009437Y006547D01*
X009375Y006645D01*
X009318Y006746D01*
X009266Y006849D01*
X009219Y006955D01*
X009177Y007063D01*
X009141Y007173D01*
X009110Y007285D01*
X009084Y007398D01*
X009065Y007512D01*
X009050Y007627D01*
X009042Y007743D01*
X009039Y007859D01*
X004690Y012428D02*
X004523Y012428D01*
X004468Y012484D01*
X004468Y012707D01*
X004523Y012762D01*
X004690Y012762D01*
X004690Y012428D01*
X004328Y012484D02*
X004105Y012707D01*
X004105Y012484D01*
X004161Y012428D01*
X004272Y012428D01*
X004328Y012484D01*
X004328Y012707D01*
X004272Y012762D01*
X004161Y012762D01*
X004105Y012707D01*
X003965Y012428D02*
X003743Y012762D01*
X003603Y012762D02*
X003380Y012762D01*
X003491Y012762D02*
X003491Y012428D01*
X003240Y012428D02*
X003018Y012762D01*
X003240Y012762D02*
X003018Y012428D01*
X002878Y012428D02*
X002655Y012762D01*
X002515Y012707D02*
X002515Y012484D01*
X002460Y012428D01*
X002348Y012428D01*
X002293Y012484D01*
X002153Y012428D02*
X001930Y012428D01*
X001790Y012428D02*
X001790Y012762D01*
X001735Y012595D02*
X001568Y012428D01*
X001790Y012540D02*
X001568Y012762D01*
X002153Y012762D02*
X002153Y012428D01*
X002293Y012707D02*
X002348Y012762D01*
X002460Y012762D01*
X002515Y012707D01*
X002405Y011786D02*
X002293Y011675D01*
X002293Y011452D01*
X002293Y011619D02*
X002516Y011619D01*
X002516Y011675D02*
X002405Y011786D01*
X002516Y011675D02*
X002516Y011452D01*
X002656Y011508D02*
X002656Y011730D01*
X002711Y011786D01*
X002878Y011786D01*
X002878Y011452D01*
X002711Y011452D01*
X002656Y011508D01*
X003018Y011786D02*
X003241Y011452D01*
X003381Y011452D02*
X003603Y011452D01*
X003492Y011452D02*
X003492Y011786D01*
X003603Y011675D01*
X003743Y011730D02*
X003743Y011508D01*
X003799Y011452D01*
X003966Y011452D01*
X003966Y011786D01*
X003799Y011786D01*
X003743Y011730D01*
X003815Y010802D02*
X003926Y010802D01*
X003982Y010746D01*
X003982Y010523D01*
X003926Y010468D01*
X003815Y010468D01*
X003759Y010523D01*
X003619Y010468D02*
X003619Y010690D01*
X003508Y010802D01*
X003397Y010690D01*
X003397Y010468D01*
X003257Y010468D02*
X003257Y010802D01*
X003090Y010802D01*
X003034Y010746D01*
X003034Y010635D01*
X003090Y010579D01*
X003257Y010579D01*
X003145Y010579D02*
X003034Y010468D01*
X002894Y010468D02*
X002894Y010802D01*
X002727Y010802D01*
X002671Y010746D01*
X002671Y010523D01*
X002727Y010468D01*
X002894Y010468D01*
X002532Y010468D02*
X002532Y010802D01*
X002365Y010802D01*
X002309Y010746D01*
X002309Y010635D01*
X002365Y010579D01*
X002532Y010579D01*
X002169Y010579D02*
X002002Y010579D01*
X001946Y010635D01*
X001946Y010746D01*
X002002Y010802D01*
X002169Y010802D01*
X002169Y010468D01*
X002058Y010579D02*
X001946Y010468D01*
X001807Y010523D02*
X001751Y010468D01*
X001640Y010468D01*
X001584Y010523D01*
X001584Y010579D01*
X001640Y010635D01*
X001751Y010635D01*
X001807Y010690D01*
X001807Y010746D01*
X001751Y010802D01*
X001640Y010802D01*
X001584Y010746D01*
X001568Y011452D02*
X001568Y011675D01*
X001680Y011786D01*
X001791Y011675D01*
X001791Y011452D01*
X001791Y011619D02*
X001568Y011619D01*
X001931Y011786D02*
X002153Y011786D01*
X002042Y011786D02*
X002042Y011452D01*
X002042Y009857D02*
X002154Y009857D01*
X002098Y009857D02*
X002098Y009523D01*
X002154Y009523D02*
X002042Y009523D01*
X001912Y009523D02*
X001912Y009857D01*
X001689Y009523D01*
X001689Y009857D01*
X002294Y009690D02*
X002516Y009690D01*
X002656Y009801D02*
X002712Y009857D01*
X002879Y009857D01*
X002879Y009523D01*
X002712Y009523D01*
X002656Y009579D01*
X002656Y009801D01*
X003019Y009857D02*
X003241Y009857D01*
X003241Y009523D01*
X003019Y009523D01*
X003130Y009690D02*
X003241Y009690D01*
X003381Y009523D02*
X003604Y009523D01*
X003604Y009857D01*
X003619Y010635D02*
X003397Y010635D01*
X003759Y010746D02*
X003815Y010802D01*
X003854Y008833D02*
X003798Y008778D01*
X003798Y008555D01*
X003854Y008499D01*
X003965Y008499D01*
X004021Y008555D01*
X004021Y008778D01*
X003965Y008833D01*
X003854Y008833D01*
X003658Y008833D02*
X003658Y008499D01*
X003491Y008499D01*
X003436Y008555D01*
X003436Y008778D01*
X003491Y008833D01*
X003658Y008833D01*
X003296Y008833D02*
X003296Y008499D01*
X003073Y008499D01*
X003184Y008666D02*
X003296Y008666D01*
X003296Y008833D02*
X003073Y008833D01*
X002933Y008666D02*
X002711Y008666D01*
X002571Y008722D02*
X002515Y008666D01*
X002404Y008666D01*
X002348Y008611D01*
X002348Y008555D01*
X002404Y008499D01*
X002515Y008499D01*
X002571Y008555D01*
X002571Y008722D02*
X002571Y008778D01*
X002515Y008833D01*
X002404Y008833D01*
X002348Y008778D01*
X002208Y008833D02*
X002208Y008499D01*
X001986Y008499D01*
X001846Y008499D02*
X001623Y008499D01*
X001846Y008499D02*
X001846Y008833D01*
X001986Y008833D02*
X002208Y008833D01*
X002208Y008666D02*
X002097Y008666D01*
X004161Y008833D02*
X004161Y008499D01*
X004383Y008499D02*
X004383Y008833D01*
X004272Y008722D01*
X004161Y008833D01*
X002548Y013980D02*
X002437Y013980D01*
X002381Y014035D01*
X002381Y014147D01*
X002492Y014147D01*
X002381Y014258D02*
X002437Y014314D01*
X002548Y014314D01*
X002604Y014258D01*
X002604Y014035D01*
X002548Y013980D01*
X002241Y013980D02*
X002241Y014314D01*
X002019Y013980D01*
X002019Y014314D01*
X001879Y014314D02*
X001712Y014314D01*
X001656Y014258D01*
X001656Y014035D01*
X001712Y013980D01*
X001879Y013980D01*
X001879Y014314D01*
X001799Y014924D02*
X001688Y014924D01*
X001632Y014980D01*
X001799Y014924D02*
X001855Y014980D01*
X001855Y015203D01*
X001799Y015258D01*
X001688Y015258D01*
X001632Y015203D01*
X001995Y015203D02*
X002051Y015258D01*
X002162Y015258D01*
X002218Y015203D01*
X002218Y014980D01*
X002162Y014924D01*
X002051Y014924D01*
X001995Y014980D01*
X002357Y015036D02*
X002357Y015258D01*
X002357Y015036D02*
X002469Y014924D01*
X002580Y015036D01*
X002580Y015258D01*
X012298Y019610D02*
X012298Y019930D01*
X012518Y019930D01*
X013198Y019930D02*
X013418Y019930D01*
X013418Y019610D01*
D15*
X013740Y023026D02*
X011740Y023026D01*
X011740Y024776D01*
X013740Y024776D01*
X013740Y025526D01*
X011740Y025526D01*
X011740Y024776D01*
X013740Y024776D02*
X013740Y023026D01*
X002848Y006536D02*
X001098Y006536D01*
X001098Y004536D01*
X002848Y004536D01*
X002848Y006536D01*
X001098Y006536D02*
X000348Y006536D01*
X000348Y004536D01*
X001098Y004536D01*
D16*
X002484Y015595D02*
X003626Y015595D01*
X003626Y018154D01*
X002484Y018154D01*
X002484Y015595D01*
D17*
X002662Y015812D02*
X002664Y015824D01*
X002669Y015835D01*
X002678Y015844D01*
X002689Y015849D01*
X002701Y015851D01*
X002713Y015849D01*
X002724Y015844D01*
X002733Y015835D01*
X002738Y015824D01*
X002740Y015812D01*
X002738Y015800D01*
X002733Y015789D01*
X002724Y015780D01*
X002713Y015775D01*
X002701Y015773D01*
X002689Y015775D01*
X002678Y015780D01*
X002669Y015789D01*
X002664Y015800D01*
X002662Y015812D01*
X001677Y015536D02*
X001679Y015548D01*
X001684Y015559D01*
X001693Y015568D01*
X001704Y015573D01*
X001716Y015575D01*
X001728Y015573D01*
X001739Y015568D01*
X001748Y015559D01*
X001753Y015548D01*
X001755Y015536D01*
X001753Y015524D01*
X001748Y015513D01*
X001739Y015504D01*
X001728Y015499D01*
X001716Y015497D01*
X001704Y015499D01*
X001693Y015504D01*
X001684Y015513D01*
X001679Y015524D01*
X001677Y015536D01*
M02*
