%
M48
M72
T01C0.0157
T02C0.0236
T03C0.0276
T04C0.0315
T05C0.0394
T06C0.0400
T07C0.0512
T08C0.0984
T09C0.2362
%
T01
X1203Y2305
X1203Y2895
X1203Y3486
X1203Y4076
X1203Y4667
X1794Y4667
X1794Y4076
X1794Y3486
X1794Y2895
X1794Y2305
X2384Y2895
X2384Y3486
X2384Y4076
X2384Y4667
X2384Y5258
X2975Y2108
X2975Y1517
X2975Y927
X2384Y927
X2384Y1517
X3565Y1517
X3565Y927
X3565Y2108
X4353Y3998
X5455Y6990
X6085Y6045
X6518Y5258
X6833Y5572
X7109Y5021
X7620Y6281
X7896Y6557
X8171Y6832
X8171Y6281
X7620Y6832
X8093Y8604
X8368Y9313
X8723Y10218
X9116Y10572
X9668Y9982
X10022Y10258
X9195Y9588
X9038Y8250
X8920Y7580
X9234Y6832
X9392Y7620
X10022Y7226
X10809Y7029
X10849Y6596
X11203Y6832
X11912Y8289
X11912Y8801
X11912Y9313
X11479Y9037
X11479Y8643
X10888Y8742
X11754Y11321
X11046Y12147
X10770Y12580
X11046Y12935
X11439Y12935
X11439Y12541
X11439Y13328
X11833Y13840
X10612Y13053
X10297Y12698
X9038Y12659
X8723Y13013
X8093Y13013
X7266Y12108
X6794Y11006
X6597Y10691
X7109Y10258
X7227Y10887
X7030Y9628
X6754Y9234
X6675Y7580
X6518Y6852
X6557Y6439
X7935Y5061
X8093Y3250
X8526Y3250
X9510Y4352
X9510Y4746
X6321Y11360
X5927Y11360
X5927Y12305
X5927Y12659
X6321Y12659
X5494Y12659
X4746Y12935
X4746Y13525
X4353Y14116
X4353Y14706
X3762Y14116
X3171Y14903
X3171Y15494
X2581Y15494
X2581Y16084
X2581Y16675
X2581Y17265
X3171Y17265
X2581Y14903
X2581Y14313
X1990Y15494
X1990Y16084
X1990Y16675
X2227Y12856
X2305Y12226
X2660Y11439
X3486Y10100
X3959Y9549
X4353Y8604
X4825Y9509
X5258Y10258
X4628Y11714
X7266Y16754
X7384Y17659
X7384Y18092
X6951Y17659
X6242Y18761
X5219Y19234
X5534Y20730
X4746Y22541
X4746Y22935
X4746Y23328
X5652Y23328
X6085Y23328
X6538Y23919
X7738Y23250
X9077Y22974
X9471Y22187
X10416Y24352
X9707Y25887
X9097Y25002
X11518Y21399
X12384Y22502
X12384Y22994
X12384Y25002
X12384Y25494
X12837Y25277
X10691Y19628
X10376Y17698
X10494Y16793
X9648Y18446
X9274Y17659
X8526Y17344
X8762Y19273
X7778Y19234
X11833Y16872
X12620Y17502
T02
X10534Y10887
X10416Y9903
X9038Y11321
X3880Y11006
X3841Y24509
X1872Y24509
T03
X2187Y20612
X4156Y20612
T04
X6675Y25336
X6912Y22462
X1400Y19037
X1400Y17856
X1400Y16675
X1400Y15494
X1400Y14313
X1400Y13132
X1400Y11950
X1400Y10769
X1400Y9588
X1400Y8407
T05
X7002Y1478
X8002Y1478
X12502Y18970
X12502Y19970
T06
X13053Y16206
X13053Y15206
X13053Y14206
X13053Y13206
X13053Y12072
X13053Y11072
X13053Y10072
X13053Y9072
X13053Y7939
X13053Y6939
X13053Y5939
X13053Y4939
X11242Y3525
X11242Y1557
T07
X4396Y1206
X4396Y5616
X4396Y7206
X1396Y6206
X1396Y1206
T08
X3762Y13132
X3762Y16281
T09
X6124Y14706
X10061Y14706
M30
