G75*
G70*
%OFA0B0*%
%FSLAX24Y24*%
%IPPOS*%
%LPD*%
%AMOC8*
5,1,8,0,0,1.08239X$1,22.5*
%
%ADD10C,0.0000*%
%ADD11R,0.0217X0.0610*%
%ADD12R,0.0610X0.0217*%
%ADD13R,0.0846X0.1280*%
%ADD14R,0.0846X0.0374*%
%ADD15R,0.0709X0.0472*%
%ADD16R,0.0709X0.0866*%
%ADD17R,0.0709X0.0669*%
%ADD18R,0.0551X0.0394*%
%ADD19R,0.0197X0.0236*%
%ADD20R,0.0236X0.0236*%
%ADD21R,0.0236X0.0197*%
%ADD22R,0.0472X0.0551*%
%ADD23R,0.0236X0.0591*%
%ADD24R,0.0394X0.0551*%
D10*
X000219Y000139D02*
X000219Y026517D01*
X013801Y026517D01*
X013801Y000139D01*
X000219Y000139D01*
D11*
X008408Y008742D03*
X008723Y008742D03*
X009038Y008742D03*
X009353Y008742D03*
X009668Y008742D03*
X009983Y008742D03*
X010297Y008742D03*
X010612Y008742D03*
X010612Y012088D03*
X010297Y012088D03*
X009983Y012088D03*
X009668Y012088D03*
X009353Y012088D03*
X009038Y012088D03*
X008723Y012088D03*
X008408Y012088D03*
D12*
X007837Y011517D03*
X007837Y011202D03*
X007837Y010887D03*
X007837Y010572D03*
X007837Y010258D03*
X007837Y009943D03*
X007837Y009628D03*
X007837Y009313D03*
X011183Y009313D03*
X011183Y009628D03*
X011183Y009943D03*
X011183Y010258D03*
X011183Y010572D03*
X011183Y010887D03*
X011183Y011202D03*
X011183Y011517D03*
D13*
X007738Y021990D03*
X007738Y024824D03*
D14*
X005455Y024824D03*
X005455Y025730D03*
X005455Y023919D03*
X005455Y022895D03*
X005455Y021990D03*
X005455Y021084D03*
D15*
X004116Y021793D03*
X004116Y022974D03*
X002896Y024509D03*
X002896Y025691D03*
D16*
X002404Y019391D03*
X004412Y019391D03*
D17*
X004412Y018210D03*
X002797Y018210D03*
D18*
X005691Y008978D03*
X005691Y008230D03*
X004825Y008604D03*
X003526Y003269D03*
X003526Y002521D03*
X004392Y002895D03*
X011833Y017324D03*
X011833Y018072D03*
X010967Y017698D03*
X009628Y019982D03*
X008762Y020356D03*
X008762Y019608D03*
D19*
X008920Y017659D03*
X008526Y017659D03*
X009510Y017226D03*
X009904Y017226D03*
X012030Y021990D03*
X012423Y021990D03*
X012738Y024313D03*
X013132Y024313D03*
X011951Y025927D03*
X011557Y025927D03*
X010927Y025454D03*
X010534Y025454D03*
X006636Y019785D03*
X006636Y019234D03*
X006242Y019234D03*
X006242Y019785D03*
X007542Y012108D03*
X007935Y012108D03*
X004628Y009824D03*
X004353Y009234D03*
X004234Y009824D03*
X003959Y009234D03*
X003920Y003998D03*
X003526Y003998D03*
X008880Y003250D03*
X009274Y003250D03*
X011046Y002541D03*
X011439Y002541D03*
D20*
X009904Y003525D03*
X009904Y003998D03*
X009116Y004273D03*
X009116Y004824D03*
X008644Y004824D03*
X008644Y004273D03*
X009234Y006084D03*
X009234Y006557D03*
X009904Y006321D03*
X009904Y005848D03*
X006360Y004824D03*
X006360Y004273D03*
X005888Y004273D03*
X005888Y004824D03*
X010219Y019234D03*
X010219Y019982D03*
X010219Y020454D03*
X010770Y020454D03*
X010770Y020927D03*
X010691Y019234D03*
X009471Y022502D03*
X009471Y022974D03*
X009431Y023998D03*
X009904Y023998D03*
X009589Y025021D03*
X009589Y025494D03*
X010494Y025927D03*
X010967Y025927D03*
X012699Y025612D03*
X012699Y024903D03*
X013171Y024903D03*
X013171Y025612D03*
D21*
X011990Y025454D03*
X011990Y025061D03*
X012030Y022935D03*
X012030Y022541D03*
X011518Y022384D03*
X011518Y021990D03*
X010534Y023565D03*
X010534Y023958D03*
X010061Y022935D03*
X010061Y022541D03*
X010061Y025061D03*
X010061Y025454D03*
X004628Y010966D03*
X004628Y010572D03*
X006616Y008624D03*
X006616Y008230D03*
X007109Y004746D03*
X007109Y004352D03*
X007896Y004352D03*
X007896Y004746D03*
X009904Y004903D03*
X009904Y005297D03*
X012738Y004195D03*
X012738Y003801D03*
D22*
X006085Y006439D03*
X005455Y006439D03*
X005455Y007305D03*
X006085Y007305D03*
D23*
X007305Y018643D03*
X007699Y018643D03*
X007699Y020061D03*
X007305Y020061D03*
D24*
X006183Y010809D03*
X005809Y009943D03*
X005435Y010809D03*
X012010Y002895D03*
X012384Y002029D03*
X012758Y002895D03*
M02*
