G75*
G70*
%OFA0B0*%
%FSLAX24Y24*%
%IPPOS*%
%LPD*%
%AMOC8*
5,1,8,0,0,1.08239X$1,22.5*
%
%ADD10C,0.0000*%
%ADD11C,0.0040*%
%ADD12C,0.0060*%
%ADD13C,0.0100*%
%ADD14C,0.0079*%
%ADD15C,0.0170*%
%ADD16C,0.0150*%
%ADD17C,0.0050*%
D10*
X000219Y000139D02*
X000219Y026517D01*
X013801Y026517D01*
X013801Y000139D01*
X000219Y000139D01*
D11*
X003448Y008020D02*
X003402Y008066D01*
X003402Y008157D01*
X003448Y008203D01*
X003493Y008203D01*
X003585Y008157D01*
X003585Y008295D01*
X003402Y008295D01*
X003448Y008020D02*
X003539Y008020D01*
X003585Y008066D01*
X003692Y008066D02*
X003738Y008020D01*
X003829Y008020D01*
X003875Y008066D01*
X003982Y008020D02*
X004074Y008111D01*
X004028Y008111D02*
X004165Y008111D01*
X004165Y008020D02*
X004165Y008295D01*
X004028Y008295D01*
X003982Y008249D01*
X003982Y008157D01*
X004028Y008111D01*
X003875Y008249D02*
X003829Y008295D01*
X003738Y008295D01*
X003692Y008249D01*
X003692Y008203D01*
X003738Y008157D01*
X003692Y008111D01*
X003692Y008066D01*
X003738Y008157D02*
X003783Y008157D01*
X003532Y010366D02*
X003256Y010366D01*
X003348Y010366D02*
X003348Y010504D01*
X003394Y010550D01*
X003486Y010550D01*
X003532Y010504D01*
X003532Y010366D01*
X003348Y010458D02*
X003256Y010550D01*
X003302Y010656D02*
X003256Y010702D01*
X003256Y010794D01*
X003302Y010840D01*
X003348Y010840D01*
X003394Y010794D01*
X003394Y010748D01*
X003394Y010794D02*
X003440Y010840D01*
X003486Y010840D01*
X003532Y010794D01*
X003532Y010702D01*
X003486Y010656D01*
X003486Y010946D02*
X003440Y010946D01*
X003394Y010992D01*
X003394Y011130D01*
X003302Y011130D02*
X003486Y011130D01*
X003532Y011084D01*
X003532Y010992D01*
X003486Y010946D01*
X003302Y010946D02*
X003256Y010992D01*
X003256Y011084D01*
X003302Y011130D01*
X003644Y011602D02*
X003599Y011648D01*
X003599Y011694D01*
X003644Y011740D01*
X003782Y011740D01*
X003782Y011648D01*
X003736Y011602D01*
X003644Y011602D01*
X003782Y011740D02*
X003690Y011832D01*
X003599Y011878D01*
X003889Y011832D02*
X003889Y011786D01*
X003934Y011740D01*
X003889Y011694D01*
X003889Y011648D01*
X003934Y011602D01*
X004026Y011602D01*
X004072Y011648D01*
X004179Y011602D02*
X004270Y011694D01*
X004224Y011694D02*
X004362Y011694D01*
X004362Y011602D02*
X004362Y011878D01*
X004224Y011878D01*
X004179Y011832D01*
X004179Y011740D01*
X004224Y011694D01*
X004072Y011832D02*
X004026Y011878D01*
X003934Y011878D01*
X003889Y011832D01*
X003934Y011740D02*
X003980Y011740D01*
X004337Y010881D02*
X004292Y010836D01*
X004292Y010790D01*
X004337Y010744D01*
X004429Y010744D01*
X004475Y010790D01*
X004475Y010836D01*
X004429Y010881D01*
X004337Y010881D01*
X004337Y010744D02*
X004292Y010698D01*
X004292Y010652D01*
X004337Y010606D01*
X004429Y010606D01*
X004475Y010652D01*
X004475Y010698D01*
X004429Y010744D01*
X004582Y010790D02*
X004582Y010836D01*
X004627Y010881D01*
X004719Y010881D01*
X004765Y010836D01*
X004872Y010836D02*
X004872Y010744D01*
X004917Y010698D01*
X005055Y010698D01*
X004963Y010698D02*
X004872Y010606D01*
X004765Y010652D02*
X004719Y010606D01*
X004627Y010606D01*
X004582Y010652D01*
X004582Y010698D01*
X004627Y010744D01*
X004673Y010744D01*
X004627Y010744D02*
X004582Y010790D01*
X004872Y010836D02*
X004917Y010881D01*
X005055Y010881D01*
X005055Y010606D01*
X006060Y010593D02*
X006060Y010501D01*
X006105Y010455D01*
X006060Y010349D02*
X006151Y010257D01*
X006151Y010303D02*
X006151Y010165D01*
X006060Y010165D02*
X006335Y010165D01*
X006335Y010303D01*
X006289Y010349D01*
X006197Y010349D01*
X006151Y010303D01*
X006289Y010455D02*
X006335Y010501D01*
X006335Y010593D01*
X006289Y010639D01*
X006243Y010639D01*
X006197Y010593D01*
X006151Y010639D01*
X006105Y010639D01*
X006060Y010593D01*
X006197Y010593D02*
X006197Y010547D01*
X006197Y010745D02*
X006197Y010929D01*
X006060Y010883D02*
X006335Y010883D01*
X006197Y010745D01*
X006688Y012559D02*
X006642Y012605D01*
X006642Y012651D01*
X006688Y012697D01*
X006825Y012697D01*
X006825Y012605D01*
X006780Y012559D01*
X006688Y012559D01*
X006825Y012697D02*
X006734Y012788D01*
X006642Y012834D01*
X006932Y012788D02*
X006932Y012605D01*
X006978Y012559D01*
X007070Y012559D01*
X007115Y012605D01*
X007115Y012788D01*
X007070Y012834D01*
X006978Y012834D01*
X006932Y012788D01*
X007024Y012651D02*
X006932Y012559D01*
X005252Y012606D02*
X005206Y012652D01*
X005115Y012652D01*
X005069Y012606D01*
X005069Y012468D01*
X004977Y012468D02*
X005252Y012468D01*
X005252Y012606D01*
X005206Y012758D02*
X005252Y012804D01*
X005252Y012896D01*
X005206Y012942D01*
X005160Y012942D01*
X005115Y012896D01*
X005069Y012942D01*
X005023Y012942D01*
X004977Y012896D01*
X004977Y012804D01*
X005023Y012758D01*
X004977Y012652D02*
X005069Y012560D01*
X005115Y012850D02*
X005115Y012896D01*
X005023Y013048D02*
X005206Y013048D01*
X005252Y013094D01*
X005252Y013186D01*
X005206Y013232D01*
X005023Y013048D01*
X004977Y013094D01*
X004977Y013186D01*
X005023Y013232D01*
X005206Y013232D01*
X006255Y016614D02*
X006346Y016614D01*
X006392Y016660D01*
X006392Y016752D02*
X006301Y016798D01*
X006255Y016798D01*
X006209Y016752D01*
X006209Y016660D01*
X006255Y016614D01*
X006392Y016752D02*
X006392Y016889D01*
X006209Y016889D01*
X006499Y016843D02*
X006499Y016660D01*
X006545Y016614D01*
X006682Y016614D01*
X006682Y016889D01*
X006545Y016889D01*
X006499Y016843D01*
X005606Y017654D02*
X005606Y017929D01*
X005469Y017929D01*
X005423Y017883D01*
X005423Y017791D01*
X005469Y017745D01*
X005606Y017745D01*
X005514Y017745D02*
X005423Y017654D01*
X005316Y017654D02*
X005133Y017837D01*
X005133Y017883D01*
X005179Y017929D01*
X005270Y017929D01*
X005316Y017883D01*
X005316Y017654D02*
X005133Y017654D01*
X005026Y017699D02*
X005026Y017745D01*
X004980Y017791D01*
X004889Y017791D01*
X004843Y017745D01*
X004843Y017699D01*
X004889Y017654D01*
X004980Y017654D01*
X005026Y017699D01*
X004980Y017791D02*
X005026Y017837D01*
X005026Y017883D01*
X004980Y017929D01*
X004889Y017929D01*
X004843Y017883D01*
X004843Y017837D01*
X004889Y017791D01*
X004162Y018161D02*
X004162Y018299D01*
X004116Y018345D01*
X004024Y018345D01*
X003978Y018299D01*
X003978Y018161D01*
X003886Y018161D02*
X004162Y018161D01*
X004024Y018451D02*
X004024Y018635D01*
X004116Y018741D02*
X004162Y018787D01*
X004162Y018879D01*
X004116Y018925D01*
X003932Y018741D01*
X003886Y018787D01*
X003886Y018879D01*
X003932Y018925D01*
X004116Y018925D01*
X004116Y018741D02*
X003932Y018741D01*
X003886Y018589D02*
X004162Y018589D01*
X004024Y018451D01*
X003886Y018345D02*
X003978Y018253D01*
X005763Y021880D02*
X005763Y021926D01*
X005580Y022109D01*
X005580Y022155D01*
X005763Y022155D01*
X005870Y022109D02*
X005915Y022155D01*
X006007Y022155D01*
X006053Y022109D01*
X006053Y021926D01*
X006007Y021880D01*
X005915Y021880D01*
X005870Y021926D01*
X007063Y020303D02*
X007155Y020257D01*
X007247Y020165D01*
X007109Y020165D01*
X007063Y020119D01*
X007063Y020073D01*
X007109Y020028D01*
X007201Y020028D01*
X007247Y020073D01*
X007247Y020165D01*
X007353Y020165D02*
X007353Y020257D01*
X007399Y020303D01*
X007537Y020303D01*
X007537Y020028D01*
X007537Y020119D02*
X007399Y020119D01*
X007353Y020165D01*
X007445Y020119D02*
X007353Y020028D01*
X007358Y019818D02*
X007450Y019818D01*
X007496Y019773D01*
X007496Y019589D01*
X007450Y019543D01*
X007358Y019543D01*
X007313Y019589D01*
X007206Y019543D02*
X007023Y019543D01*
X007114Y019543D02*
X007114Y019818D01*
X007206Y019727D01*
X007313Y019773D02*
X007358Y019818D01*
X006916Y019681D02*
X006732Y019681D01*
X006778Y019818D02*
X006778Y019543D01*
X006916Y019681D02*
X006778Y019818D01*
X007501Y020803D02*
X007593Y020803D01*
X007639Y020849D01*
X007639Y020895D01*
X007593Y020941D01*
X007501Y020941D01*
X007456Y020895D01*
X007456Y020849D01*
X007501Y020803D01*
X007501Y020941D02*
X007456Y020987D01*
X007456Y021032D01*
X007501Y021078D01*
X007593Y021078D01*
X007639Y021032D01*
X007639Y020987D01*
X007593Y020941D01*
X007746Y020941D02*
X007791Y020895D01*
X007929Y020895D01*
X007837Y020895D02*
X007746Y020803D01*
X007746Y020941D02*
X007746Y021032D01*
X007791Y021078D01*
X007929Y021078D01*
X007929Y020803D01*
X007954Y021709D02*
X007771Y021709D01*
X007862Y021709D02*
X007862Y021984D01*
X007954Y021892D01*
X008061Y021938D02*
X008106Y021984D01*
X008198Y021984D01*
X008244Y021938D01*
X008244Y021754D01*
X008198Y021709D01*
X008106Y021709D01*
X008061Y021754D01*
X007923Y022272D02*
X007739Y022272D01*
X007693Y022317D01*
X007693Y022409D01*
X007739Y022455D01*
X007693Y022562D02*
X007877Y022745D01*
X007923Y022745D01*
X007969Y022699D01*
X007969Y022607D01*
X007923Y022562D01*
X007923Y022455D02*
X007969Y022409D01*
X007969Y022317D01*
X007923Y022272D01*
X007693Y022562D02*
X007693Y022745D01*
X007831Y022852D02*
X007831Y023035D01*
X007693Y022989D02*
X007969Y022989D01*
X007831Y022852D01*
X007664Y021984D02*
X007481Y021984D01*
X007481Y021938D01*
X007664Y021754D01*
X007664Y021709D01*
X008520Y020618D02*
X008520Y020572D01*
X008703Y020388D01*
X008703Y020342D01*
X008810Y020342D02*
X008902Y020434D01*
X008856Y020434D02*
X008993Y020434D01*
X008993Y020342D02*
X008993Y020618D01*
X008856Y020618D01*
X008810Y020572D01*
X008810Y020480D01*
X008856Y020434D01*
X008703Y020618D02*
X008520Y020618D01*
X008926Y021980D02*
X009201Y021980D01*
X009201Y022118D01*
X009155Y022164D01*
X009063Y022164D01*
X009017Y022118D01*
X009017Y021980D01*
X009017Y022072D02*
X008926Y022164D01*
X008926Y022270D02*
X008926Y022454D01*
X008926Y022362D02*
X009201Y022362D01*
X009109Y022270D01*
X009155Y022560D02*
X008972Y022560D01*
X009155Y022744D01*
X008972Y022744D01*
X008926Y022698D01*
X008926Y022606D01*
X008972Y022560D01*
X009155Y022560D02*
X009201Y022606D01*
X009201Y022698D01*
X009155Y022744D01*
X008238Y023768D02*
X008284Y023814D01*
X008284Y023905D01*
X008238Y023951D01*
X008192Y024058D02*
X008284Y024149D01*
X008008Y024149D01*
X008008Y024058D02*
X008008Y024241D01*
X008054Y024348D02*
X008100Y024348D01*
X008146Y024394D01*
X008146Y024485D01*
X008100Y024531D01*
X008054Y024531D01*
X008008Y024485D01*
X008008Y024394D01*
X008054Y024348D01*
X008146Y024394D02*
X008192Y024348D01*
X008238Y024348D01*
X008284Y024394D01*
X008284Y024485D01*
X008238Y024531D01*
X008192Y024531D01*
X008146Y024485D01*
X008054Y023951D02*
X008008Y023905D01*
X008008Y023814D01*
X008054Y023768D01*
X008238Y023768D01*
X007738Y024854D02*
X007554Y024854D01*
X007508Y024900D01*
X007508Y024992D01*
X007554Y025038D01*
X007508Y025144D02*
X007692Y025328D01*
X007738Y025328D01*
X007784Y025282D01*
X007784Y025190D01*
X007738Y025144D01*
X007738Y025038D02*
X007784Y024992D01*
X007784Y024900D01*
X007738Y024854D01*
X007508Y025144D02*
X007508Y025328D01*
X007508Y025434D02*
X007692Y025618D01*
X007738Y025618D01*
X007784Y025572D01*
X007784Y025480D01*
X007738Y025434D01*
X007508Y025434D02*
X007508Y025618D01*
X008875Y025593D02*
X008875Y025777D01*
X008875Y025685D02*
X009150Y025685D01*
X009058Y025593D01*
X009012Y025487D02*
X008966Y025441D01*
X008966Y025303D01*
X008875Y025303D02*
X009150Y025303D01*
X009150Y025441D01*
X009104Y025487D01*
X009012Y025487D01*
X008966Y025395D02*
X008875Y025487D01*
X009012Y025883D02*
X009012Y026067D01*
X008875Y026021D02*
X009150Y026021D01*
X009012Y025883D01*
X010467Y022178D02*
X010559Y022178D01*
X010605Y022132D01*
X010711Y022132D02*
X010757Y022178D01*
X010849Y022178D01*
X010895Y022132D01*
X010895Y021949D01*
X010849Y021903D01*
X010757Y021903D01*
X010711Y021949D01*
X010605Y021903D02*
X010421Y022086D01*
X010421Y022132D01*
X010467Y022178D01*
X010421Y021903D02*
X010605Y021903D01*
X010997Y021903D02*
X011088Y021903D01*
X011042Y021903D02*
X011042Y022178D01*
X010997Y022178D02*
X011088Y022178D01*
X011193Y021129D02*
X011285Y021129D01*
X011331Y021084D01*
X011331Y020900D01*
X011285Y020854D01*
X011193Y020854D01*
X011147Y020900D01*
X011041Y020854D02*
X010857Y020854D01*
X010949Y020854D02*
X010949Y021129D01*
X011041Y021038D01*
X011147Y021084D02*
X011193Y021129D01*
X010751Y020992D02*
X010613Y020992D01*
X010567Y020946D01*
X010567Y020900D01*
X010613Y020854D01*
X010705Y020854D01*
X010751Y020900D01*
X010751Y020992D01*
X010659Y021084D01*
X010567Y021129D01*
X009950Y020275D02*
X009950Y020000D01*
X009812Y020000D01*
X009767Y020046D01*
X009767Y020229D01*
X009812Y020275D01*
X009950Y020275D01*
X009660Y020138D02*
X009477Y020138D01*
X009522Y020275D02*
X009522Y020000D01*
X009660Y020138D02*
X009522Y020275D01*
X010479Y019110D02*
X010434Y019064D01*
X010434Y018972D01*
X010479Y018926D01*
X010479Y018820D02*
X010434Y018774D01*
X010434Y018682D01*
X010479Y018636D01*
X010663Y018636D01*
X010709Y018682D01*
X010709Y018774D01*
X010663Y018820D01*
X010479Y018820D01*
X010434Y018820D02*
X010525Y018728D01*
X010663Y018926D02*
X010709Y018972D01*
X010709Y019064D01*
X010663Y019110D01*
X010617Y019110D01*
X010571Y019064D01*
X010525Y019110D01*
X010479Y019110D01*
X010571Y019064D02*
X010571Y019018D01*
X011322Y016485D02*
X011276Y016439D01*
X011276Y016348D01*
X011322Y016302D01*
X011414Y016302D02*
X011460Y016394D01*
X011460Y016439D01*
X011414Y016485D01*
X011322Y016485D01*
X011414Y016302D02*
X011551Y016302D01*
X011551Y016485D01*
X011505Y016195D02*
X011414Y016195D01*
X011368Y016149D01*
X011368Y016012D01*
X011368Y016104D02*
X011276Y016195D01*
X011276Y016012D02*
X011551Y016012D01*
X011551Y016149D01*
X011505Y016195D01*
X013048Y018077D02*
X013232Y018077D01*
X013140Y018077D02*
X013140Y018352D01*
X013232Y018260D01*
X013338Y018352D02*
X013522Y018077D01*
X013338Y018077D02*
X013522Y018352D01*
X013546Y017681D02*
X013500Y017635D01*
X013454Y017681D01*
X013409Y017681D01*
X013363Y017635D01*
X013363Y017543D01*
X013409Y017497D01*
X013363Y017391D02*
X013363Y017207D01*
X013546Y017391D01*
X013592Y017391D01*
X013638Y017345D01*
X013638Y017253D01*
X013592Y017207D01*
X013592Y017101D02*
X013500Y017101D01*
X013454Y017055D01*
X013454Y016917D01*
X013363Y016917D02*
X013638Y016917D01*
X013638Y017055D01*
X013592Y017101D01*
X013454Y017009D02*
X013363Y017101D01*
X013592Y017497D02*
X013638Y017543D01*
X013638Y017635D01*
X013592Y017681D01*
X013546Y017681D01*
X013500Y017635D02*
X013500Y017589D01*
X013295Y020642D02*
X013020Y020642D01*
X013112Y020642D02*
X013112Y020779D01*
X013158Y020825D01*
X013250Y020825D01*
X013295Y020779D01*
X013295Y020642D01*
X013112Y020733D02*
X013020Y020825D01*
X013020Y020932D02*
X013204Y021115D01*
X013250Y021115D01*
X013295Y021069D01*
X013295Y020978D01*
X013250Y020932D01*
X013204Y021222D02*
X013295Y021313D01*
X013020Y021313D01*
X013020Y021222D02*
X013020Y021405D01*
X013020Y021115D02*
X013020Y020932D01*
X012781Y021917D02*
X012689Y021917D01*
X012643Y021963D01*
X012537Y021917D02*
X012353Y022101D01*
X012353Y022147D01*
X012399Y022192D01*
X012491Y022192D01*
X012537Y022147D01*
X012643Y022147D02*
X012689Y022192D01*
X012781Y022192D01*
X012827Y022147D01*
X012827Y021963D01*
X012781Y021917D01*
X012537Y021917D02*
X012353Y021917D01*
X012247Y021963D02*
X012201Y021917D01*
X012109Y021917D01*
X012063Y021963D01*
X012063Y022147D01*
X012109Y022192D01*
X012201Y022192D01*
X012247Y022147D01*
X012247Y022101D01*
X012201Y022055D01*
X012063Y022055D01*
X012436Y023437D02*
X012390Y023483D01*
X012390Y023575D01*
X012436Y023620D01*
X012390Y023727D02*
X012574Y023910D01*
X012620Y023910D01*
X012666Y023865D01*
X012666Y023773D01*
X012620Y023727D01*
X012620Y023620D02*
X012666Y023575D01*
X012666Y023483D01*
X012620Y023437D01*
X012436Y023437D01*
X012390Y023727D02*
X012390Y023910D01*
X012390Y024017D02*
X012436Y024017D01*
X012620Y024200D01*
X012666Y024200D01*
X012666Y024017D01*
X013323Y023973D02*
X013323Y023882D01*
X013369Y023836D01*
X013415Y023836D01*
X013461Y023882D01*
X013461Y023973D01*
X013415Y024019D01*
X013369Y024019D01*
X013323Y023973D01*
X013461Y023973D02*
X013507Y024019D01*
X013553Y024019D01*
X013599Y023973D01*
X013599Y023882D01*
X013553Y023836D01*
X013507Y023836D01*
X013461Y023882D01*
X013507Y023729D02*
X013323Y023546D01*
X013323Y023729D01*
X013507Y023729D02*
X013553Y023729D01*
X013599Y023683D01*
X013599Y023592D01*
X013553Y023546D01*
X013553Y023439D02*
X013599Y023393D01*
X013599Y023302D01*
X013553Y023256D01*
X013369Y023256D01*
X013323Y023302D01*
X013323Y023393D01*
X013369Y023439D01*
X013348Y024382D02*
X013348Y024519D01*
X013394Y024565D01*
X013486Y024565D01*
X013532Y024519D01*
X013532Y024382D01*
X013256Y024382D01*
X013348Y024474D02*
X013256Y024565D01*
X013256Y024672D02*
X013256Y024855D01*
X013256Y024764D02*
X013532Y024764D01*
X013440Y024672D01*
X013486Y024962D02*
X013532Y025008D01*
X013532Y025100D01*
X013486Y025145D01*
X013440Y025145D01*
X013256Y024962D01*
X013256Y025145D01*
X008891Y017063D02*
X008937Y017017D01*
X008937Y016925D01*
X008891Y016879D01*
X008891Y016773D02*
X008708Y016773D01*
X008662Y016727D01*
X008662Y016635D01*
X008708Y016589D01*
X008891Y016589D01*
X008937Y016635D01*
X008937Y016727D01*
X008891Y016773D01*
X008754Y016681D02*
X008662Y016773D01*
X008662Y016879D02*
X008845Y017063D01*
X008891Y017063D01*
X008662Y017063D02*
X008662Y016879D01*
X009983Y011800D02*
X009938Y011754D01*
X009938Y011663D01*
X009983Y011617D01*
X009983Y011510D02*
X009938Y011464D01*
X009938Y011373D01*
X009983Y011327D01*
X010167Y011327D01*
X010213Y011373D01*
X010213Y011464D01*
X010167Y011510D01*
X010167Y011617D02*
X010213Y011663D01*
X010213Y011754D01*
X010167Y011800D01*
X010121Y011800D01*
X010075Y011754D01*
X010029Y011800D01*
X009983Y011800D01*
X010075Y011754D02*
X010075Y011708D01*
X010731Y009830D02*
X010823Y009830D01*
X010869Y009784D01*
X010975Y009784D02*
X011021Y009830D01*
X011113Y009830D01*
X011159Y009784D01*
X011159Y009601D01*
X011113Y009555D01*
X011021Y009555D01*
X010975Y009601D01*
X010869Y009555D02*
X010685Y009739D01*
X010685Y009784D01*
X010731Y009830D01*
X010685Y009555D02*
X010869Y009555D01*
X010480Y008191D02*
X010526Y008145D01*
X010526Y008053D01*
X010480Y008007D01*
X010388Y007901D02*
X010388Y007717D01*
X010526Y007855D01*
X010251Y007855D01*
X010251Y008007D02*
X010434Y008191D01*
X010480Y008191D01*
X010251Y008191D02*
X010251Y008007D01*
X010296Y007611D02*
X010251Y007565D01*
X010251Y007473D01*
X010296Y007427D01*
X010480Y007427D01*
X010526Y007473D01*
X010526Y007565D01*
X010480Y007611D01*
X009937Y008638D02*
X009753Y008638D01*
X009647Y008684D02*
X009601Y008638D01*
X009509Y008638D01*
X009463Y008684D01*
X009463Y008729D01*
X009509Y008775D01*
X009647Y008775D01*
X009647Y008684D01*
X009647Y008775D02*
X009555Y008867D01*
X009463Y008913D01*
X009937Y008913D02*
X009937Y008638D01*
X009864Y006484D02*
X009818Y006484D01*
X009772Y006438D01*
X009726Y006484D01*
X009680Y006484D01*
X009634Y006438D01*
X009634Y006346D01*
X009680Y006300D01*
X009680Y006194D02*
X009634Y006148D01*
X009634Y006056D01*
X009680Y006010D01*
X009680Y005904D02*
X009634Y005858D01*
X009634Y005766D01*
X009680Y005720D01*
X009864Y005720D01*
X009910Y005766D01*
X009910Y005858D01*
X009864Y005904D01*
X009864Y006010D02*
X009910Y006056D01*
X009910Y006148D01*
X009864Y006194D01*
X009818Y006194D01*
X009772Y006148D01*
X009726Y006194D01*
X009680Y006194D01*
X009772Y006148D02*
X009772Y006102D01*
X009864Y006300D02*
X009910Y006346D01*
X009910Y006438D01*
X009864Y006484D01*
X009772Y006438D02*
X009772Y006392D01*
X009261Y004228D02*
X009169Y004228D01*
X009124Y004182D01*
X009017Y004182D02*
X008971Y004228D01*
X008879Y004228D01*
X008834Y004182D01*
X008834Y004136D01*
X008879Y004090D01*
X008834Y004044D01*
X008834Y003999D01*
X008879Y003953D01*
X008971Y003953D01*
X009017Y003999D01*
X009124Y003999D02*
X009169Y003953D01*
X009261Y003953D01*
X009307Y003999D01*
X009307Y004182D01*
X009261Y004228D01*
X008925Y004090D02*
X008879Y004090D01*
X008727Y004090D02*
X008635Y004136D01*
X008589Y004136D01*
X008544Y004090D01*
X008544Y003999D01*
X008589Y003953D01*
X008681Y003953D01*
X008727Y003999D01*
X008727Y004090D02*
X008727Y004228D01*
X008544Y004228D01*
X008453Y004751D02*
X008178Y004751D01*
X008178Y004934D01*
X008224Y005041D02*
X008178Y005087D01*
X008178Y005178D01*
X008224Y005224D01*
X008315Y005224D01*
X008361Y005178D01*
X008361Y005132D01*
X008315Y005041D01*
X008453Y005041D01*
X008453Y005224D01*
X007469Y003367D02*
X007331Y003230D01*
X007331Y003413D01*
X007193Y003367D02*
X007469Y003367D01*
X007193Y003123D02*
X007193Y002940D01*
X007469Y002940D01*
X006584Y003992D02*
X006492Y003992D01*
X006446Y004038D01*
X006340Y004038D02*
X006294Y003992D01*
X006202Y003992D01*
X006156Y004038D01*
X006156Y004084D01*
X006202Y004130D01*
X006248Y004130D01*
X006202Y004130D02*
X006156Y004176D01*
X006156Y004221D01*
X006202Y004267D01*
X006294Y004267D01*
X006340Y004221D01*
X006446Y004221D02*
X006492Y004267D01*
X006584Y004267D01*
X006630Y004221D01*
X006630Y004038D01*
X006584Y003992D01*
X006163Y004554D02*
X006209Y004600D01*
X006209Y004691D01*
X006163Y004737D01*
X006209Y004844D02*
X006071Y004844D01*
X006117Y004936D01*
X006117Y004981D01*
X006071Y005027D01*
X005979Y005027D01*
X005934Y004981D01*
X005934Y004890D01*
X005979Y004844D01*
X005979Y004737D02*
X005934Y004691D01*
X005934Y004600D01*
X005979Y004554D01*
X006163Y004554D01*
X006209Y004844D02*
X006209Y005027D01*
X005912Y004267D02*
X006050Y004130D01*
X005866Y004130D01*
X005912Y004267D02*
X005912Y003992D01*
X005734Y003374D02*
X005642Y003374D01*
X005596Y003328D01*
X005489Y003328D02*
X005444Y003374D01*
X005352Y003374D01*
X005306Y003328D01*
X005306Y003282D01*
X005352Y003236D01*
X005306Y003190D01*
X005306Y003144D01*
X005352Y003098D01*
X005444Y003098D01*
X005489Y003144D01*
X005596Y003144D02*
X005642Y003098D01*
X005734Y003098D01*
X005779Y003144D01*
X005779Y003328D01*
X005734Y003374D01*
X005398Y003236D02*
X005352Y003236D01*
X005199Y003236D02*
X005062Y003236D01*
X005016Y003190D01*
X005016Y003144D01*
X005062Y003098D01*
X005154Y003098D01*
X005199Y003144D01*
X005199Y003236D01*
X005108Y003328D01*
X005016Y003374D01*
X004971Y002862D02*
X004879Y002862D01*
X004833Y002816D01*
X004833Y002770D01*
X004879Y002724D01*
X004833Y002678D01*
X004833Y002632D01*
X004879Y002587D01*
X004971Y002587D01*
X005017Y002632D01*
X005124Y002632D02*
X005169Y002587D01*
X005261Y002587D01*
X005307Y002632D01*
X005307Y002816D01*
X005261Y002862D01*
X005169Y002862D01*
X005124Y002816D01*
X005017Y002816D02*
X004971Y002862D01*
X004925Y002724D02*
X004879Y002724D01*
X004727Y002770D02*
X004681Y002724D01*
X004543Y002724D01*
X004543Y002632D02*
X004543Y002816D01*
X004589Y002862D01*
X004681Y002862D01*
X004727Y002816D01*
X004727Y002770D01*
X004727Y002632D02*
X004681Y002587D01*
X004589Y002587D01*
X004543Y002632D01*
X005501Y002186D02*
X005776Y002186D01*
X005638Y002049D01*
X005638Y002232D01*
X005684Y001942D02*
X005730Y001942D01*
X005776Y001896D01*
X005776Y001804D01*
X005730Y001759D01*
X005730Y001652D02*
X005638Y001652D01*
X005592Y001606D01*
X005592Y001469D01*
X005592Y001560D02*
X005501Y001652D01*
X005501Y001759D02*
X005684Y001942D01*
X005501Y001942D02*
X005501Y001759D01*
X005501Y001469D02*
X005776Y001469D01*
X005776Y001606D01*
X005730Y001652D01*
X006069Y000932D02*
X006069Y000749D01*
X006253Y000932D01*
X006299Y000932D01*
X006345Y000886D01*
X006345Y000794D01*
X006299Y000749D01*
X006345Y000642D02*
X006069Y000459D01*
X006069Y000642D02*
X006345Y000459D01*
X005572Y004711D02*
X005389Y004711D01*
X005343Y004757D01*
X005343Y004849D01*
X005389Y004895D01*
X005389Y005001D02*
X005343Y005047D01*
X005343Y005139D01*
X005389Y005185D01*
X005572Y005185D01*
X005618Y005139D01*
X005618Y005047D01*
X005572Y005001D01*
X005527Y005001D01*
X005481Y005047D01*
X005481Y005185D01*
X005572Y004895D02*
X005618Y004849D01*
X005618Y004757D01*
X005572Y004711D01*
X005686Y007350D02*
X005961Y007350D01*
X005961Y007488D01*
X005915Y007534D01*
X005823Y007534D01*
X005777Y007488D01*
X005777Y007350D01*
X005777Y007442D02*
X005686Y007534D01*
X005686Y007640D02*
X005869Y007824D01*
X005915Y007824D01*
X005961Y007778D01*
X005961Y007686D01*
X005915Y007640D01*
X005686Y007640D02*
X005686Y007824D01*
X005455Y008110D02*
X005501Y008156D01*
X005501Y008340D01*
X005455Y008385D01*
X005364Y008385D01*
X005318Y008340D01*
X005318Y008156D01*
X005364Y008110D01*
X005455Y008110D01*
X005409Y008202D02*
X005318Y008110D01*
X005211Y008110D02*
X005211Y008156D01*
X005028Y008340D01*
X005028Y008385D01*
X005211Y008385D01*
X007416Y008362D02*
X007600Y008362D01*
X007508Y008362D02*
X007508Y008637D01*
X007600Y008546D01*
X007706Y008591D02*
X007752Y008637D01*
X007890Y008637D01*
X007890Y008362D01*
X007890Y008454D02*
X007752Y008454D01*
X007706Y008500D01*
X007706Y008591D01*
X007798Y008454D02*
X007706Y008362D01*
X009567Y003362D02*
X009567Y003316D01*
X009751Y003132D01*
X009751Y003087D01*
X009857Y003132D02*
X009903Y003087D01*
X009995Y003087D01*
X010041Y003132D01*
X010147Y003132D02*
X010193Y003087D01*
X010285Y003087D01*
X010331Y003132D01*
X010331Y003316D01*
X010285Y003362D01*
X010193Y003362D01*
X010147Y003316D01*
X010041Y003316D02*
X009995Y003362D01*
X009903Y003362D01*
X009857Y003316D01*
X009857Y003270D01*
X009903Y003224D01*
X009857Y003178D01*
X009857Y003132D01*
X009903Y003224D02*
X009949Y003224D01*
X009751Y003362D02*
X009567Y003362D01*
X009613Y002889D02*
X009567Y002843D01*
X009567Y002798D01*
X009613Y002752D01*
X009705Y002752D01*
X009751Y002798D01*
X009751Y002843D01*
X009705Y002889D01*
X009613Y002889D01*
X009613Y002752D02*
X009567Y002706D01*
X009567Y002660D01*
X009613Y002614D01*
X009705Y002614D01*
X009751Y002660D01*
X009751Y002706D01*
X009705Y002752D01*
X009857Y002798D02*
X009903Y002752D01*
X009857Y002706D01*
X009857Y002660D01*
X009903Y002614D01*
X009995Y002614D01*
X010041Y002660D01*
X010147Y002660D02*
X010193Y002614D01*
X010285Y002614D01*
X010331Y002660D01*
X010331Y002843D01*
X010285Y002889D01*
X010193Y002889D01*
X010147Y002843D01*
X010041Y002843D02*
X009995Y002889D01*
X009903Y002889D01*
X009857Y002843D01*
X009857Y002798D01*
X009903Y002752D02*
X009949Y002752D01*
X009437Y002232D02*
X009437Y002049D01*
X009300Y002049D01*
X009345Y002140D01*
X009345Y002186D01*
X009300Y002232D01*
X009208Y002232D01*
X009162Y002186D01*
X009162Y002094D01*
X009208Y002049D01*
X009162Y001942D02*
X009162Y001759D01*
X009345Y001942D01*
X009391Y001942D01*
X009437Y001896D01*
X009437Y001804D01*
X009391Y001759D01*
X009391Y001652D02*
X009300Y001652D01*
X009254Y001606D01*
X009254Y001469D01*
X009254Y001560D02*
X009162Y001652D01*
X009162Y001469D02*
X009437Y001469D01*
X009437Y001606D01*
X009391Y001652D01*
X011965Y002287D02*
X012011Y002241D01*
X011965Y002287D02*
X011965Y002379D01*
X012011Y002425D01*
X012057Y002425D01*
X012103Y002379D01*
X012103Y002287D01*
X012149Y002241D01*
X012194Y002241D01*
X012240Y002287D01*
X012240Y002379D01*
X012194Y002425D01*
X012194Y002531D02*
X012011Y002531D01*
X011965Y002577D01*
X011965Y002669D01*
X012011Y002715D01*
X012103Y002715D01*
X012103Y002623D01*
X012194Y002531D02*
X012240Y002577D01*
X012240Y002669D01*
X012194Y002715D01*
X012149Y002821D02*
X012240Y002913D01*
X011965Y002913D01*
X011965Y002821D02*
X011965Y003005D01*
X005283Y024568D02*
X005100Y024568D01*
X005054Y024613D01*
X005054Y024705D01*
X005100Y024751D01*
X005191Y024858D02*
X005191Y025041D01*
X005054Y024995D02*
X005329Y024995D01*
X005191Y024858D01*
X005283Y024751D02*
X005329Y024705D01*
X005329Y024613D01*
X005283Y024568D01*
D12*
X005919Y017837D02*
X005919Y017517D01*
X006139Y017517D01*
X006819Y017517D02*
X007039Y017517D01*
X007039Y017837D01*
X009147Y017486D02*
X009147Y017166D01*
X009147Y017486D02*
X009367Y017486D01*
X010047Y017486D02*
X010267Y017486D01*
X010267Y017166D01*
X010267Y020864D02*
X010047Y020864D01*
X010267Y020864D02*
X010267Y021184D01*
X009367Y020864D02*
X009147Y020864D01*
X009147Y021184D01*
X006420Y012353D02*
X006100Y012353D01*
X006100Y012133D01*
X006100Y011453D02*
X006100Y011233D01*
X006420Y011233D01*
X005318Y009676D02*
X004998Y009676D01*
X004998Y009456D01*
X004998Y008776D02*
X004998Y008556D01*
X005318Y008556D01*
X010742Y002541D02*
X010744Y002585D01*
X010750Y002629D01*
X010760Y002672D01*
X010773Y002714D01*
X010790Y002755D01*
X010811Y002794D01*
X010835Y002831D01*
X010862Y002866D01*
X010892Y002898D01*
X010925Y002928D01*
X010961Y002954D01*
X010998Y002978D01*
X011038Y002997D01*
X011079Y003014D01*
X011122Y003026D01*
X011165Y003035D01*
X011209Y003040D01*
X011253Y003041D01*
X011297Y003038D01*
X011341Y003031D01*
X011384Y003020D01*
X011426Y003006D01*
X011466Y002988D01*
X011505Y002966D01*
X011541Y002942D01*
X011575Y002914D01*
X011607Y002883D01*
X011636Y002849D01*
X011662Y002813D01*
X011684Y002775D01*
X011703Y002735D01*
X011718Y002693D01*
X011730Y002651D01*
X011738Y002607D01*
X011742Y002563D01*
X011742Y002519D01*
X011738Y002475D01*
X011730Y002431D01*
X011718Y002389D01*
X011703Y002347D01*
X011684Y002307D01*
X011662Y002269D01*
X011636Y002233D01*
X011607Y002199D01*
X011575Y002168D01*
X011541Y002140D01*
X011505Y002116D01*
X011466Y002094D01*
X011426Y002076D01*
X011384Y002062D01*
X011341Y002051D01*
X011297Y002044D01*
X011253Y002041D01*
X011209Y002042D01*
X011165Y002047D01*
X011122Y002056D01*
X011079Y002068D01*
X011038Y002085D01*
X010998Y002104D01*
X010961Y002128D01*
X010925Y002154D01*
X010892Y002184D01*
X010862Y002216D01*
X010835Y002251D01*
X010811Y002288D01*
X010790Y002327D01*
X010773Y002368D01*
X010760Y002410D01*
X010750Y002453D01*
X010744Y002497D01*
X010742Y002541D01*
X008880Y002541D02*
X008883Y002657D01*
X008891Y002773D01*
X008906Y002888D01*
X008925Y003002D01*
X008951Y003115D01*
X008982Y003227D01*
X009018Y003337D01*
X009060Y003445D01*
X009107Y003551D01*
X009159Y003654D01*
X009216Y003755D01*
X009278Y003853D01*
X009345Y003948D01*
X009416Y004039D01*
X009492Y004127D01*
X009572Y004211D01*
X009656Y004291D01*
X009744Y004367D01*
X009835Y004438D01*
X009930Y004505D01*
X010028Y004567D01*
X010129Y004624D01*
X010232Y004676D01*
X010338Y004723D01*
X010446Y004765D01*
X010556Y004801D01*
X010668Y004832D01*
X010781Y004858D01*
X010895Y004877D01*
X011010Y004892D01*
X011126Y004900D01*
X011242Y004903D01*
X011358Y004900D01*
X011474Y004892D01*
X011589Y004877D01*
X011703Y004858D01*
X011816Y004832D01*
X011928Y004801D01*
X012038Y004765D01*
X012146Y004723D01*
X012252Y004676D01*
X012355Y004624D01*
X012456Y004567D01*
X012554Y004505D01*
X012649Y004438D01*
X012740Y004367D01*
X012828Y004291D01*
X012912Y004211D01*
X012992Y004127D01*
X013068Y004039D01*
X013139Y003948D01*
X013206Y003853D01*
X013268Y003755D01*
X013325Y003654D01*
X013377Y003551D01*
X013424Y003445D01*
X013466Y003337D01*
X013502Y003227D01*
X013533Y003115D01*
X013559Y003002D01*
X013578Y002888D01*
X013593Y002773D01*
X013601Y002657D01*
X013604Y002541D01*
X013601Y002425D01*
X013593Y002309D01*
X013578Y002194D01*
X013559Y002080D01*
X013533Y001967D01*
X013502Y001855D01*
X013466Y001745D01*
X013424Y001637D01*
X013377Y001531D01*
X013325Y001428D01*
X013268Y001327D01*
X013206Y001229D01*
X013139Y001134D01*
X013068Y001043D01*
X012992Y000955D01*
X012912Y000871D01*
X012828Y000791D01*
X012740Y000715D01*
X012649Y000644D01*
X012554Y000577D01*
X012456Y000515D01*
X012355Y000458D01*
X012252Y000406D01*
X012146Y000359D01*
X012038Y000317D01*
X011928Y000281D01*
X011816Y000250D01*
X011703Y000224D01*
X011589Y000205D01*
X011474Y000190D01*
X011358Y000182D01*
X011242Y000179D01*
X011126Y000182D01*
X011010Y000190D01*
X010895Y000205D01*
X010781Y000224D01*
X010668Y000250D01*
X010556Y000281D01*
X010446Y000317D01*
X010338Y000359D01*
X010232Y000406D01*
X010129Y000458D01*
X010028Y000515D01*
X009930Y000577D01*
X009835Y000644D01*
X009744Y000715D01*
X009656Y000791D01*
X009572Y000871D01*
X009492Y000955D01*
X009416Y001043D01*
X009345Y001134D01*
X009278Y001229D01*
X009216Y001327D01*
X009159Y001428D01*
X009107Y001531D01*
X009060Y001637D01*
X009018Y001745D01*
X008982Y001855D01*
X008951Y001967D01*
X008925Y002080D01*
X008906Y002194D01*
X008891Y002309D01*
X008883Y002425D01*
X008880Y002541D01*
D13*
X008502Y002728D02*
X006502Y002728D01*
X006502Y000978D01*
X008502Y000978D01*
X008502Y002728D01*
X008502Y000978D02*
X008502Y000228D01*
X006502Y000228D01*
X006502Y000978D01*
X011252Y018470D02*
X013002Y018470D01*
X013002Y020470D01*
X011252Y020470D01*
X011252Y018470D01*
X013002Y018470D02*
X013752Y018470D01*
X013752Y020470D01*
X013002Y020470D01*
D14*
X001399Y020612D02*
X001401Y020699D01*
X001408Y020786D01*
X001418Y020872D01*
X001433Y020958D01*
X001452Y021043D01*
X001475Y021126D01*
X001503Y021209D01*
X001534Y021290D01*
X001569Y021370D01*
X001608Y021447D01*
X001651Y021523D01*
X001698Y021596D01*
X001748Y021668D01*
X001801Y021736D01*
X001858Y021802D01*
X001918Y021865D01*
X001981Y021925D01*
X002047Y021982D01*
X002115Y022035D01*
X002187Y022085D01*
X002260Y022132D01*
X002336Y022175D01*
X002413Y022214D01*
X002493Y022249D01*
X002574Y022280D01*
X002657Y022308D01*
X002740Y022331D01*
X002825Y022350D01*
X002911Y022365D01*
X002997Y022375D01*
X003084Y022382D01*
X003171Y022384D01*
X003258Y022382D01*
X003345Y022375D01*
X003431Y022365D01*
X003517Y022350D01*
X003602Y022331D01*
X003685Y022308D01*
X003768Y022280D01*
X003849Y022249D01*
X003929Y022214D01*
X004006Y022175D01*
X004082Y022132D01*
X004155Y022085D01*
X004227Y022035D01*
X004295Y021982D01*
X004361Y021925D01*
X004424Y021865D01*
X004484Y021802D01*
X004541Y021736D01*
X004594Y021668D01*
X004644Y021596D01*
X004691Y021523D01*
X004734Y021447D01*
X004773Y021370D01*
X004808Y021290D01*
X004839Y021209D01*
X004867Y021126D01*
X004890Y021043D01*
X004909Y020958D01*
X004924Y020872D01*
X004934Y020786D01*
X004941Y020699D01*
X004943Y020612D01*
X004941Y020525D01*
X004934Y020438D01*
X004924Y020352D01*
X004909Y020266D01*
X004890Y020181D01*
X004867Y020098D01*
X004839Y020015D01*
X004808Y019934D01*
X004773Y019854D01*
X004734Y019777D01*
X004691Y019701D01*
X004644Y019628D01*
X004594Y019556D01*
X004541Y019488D01*
X004484Y019422D01*
X004424Y019359D01*
X004361Y019299D01*
X004295Y019242D01*
X004227Y019189D01*
X004155Y019139D01*
X004082Y019092D01*
X004006Y019049D01*
X003929Y019010D01*
X003849Y018975D01*
X003768Y018944D01*
X003685Y018916D01*
X003602Y018893D01*
X003517Y018874D01*
X003431Y018859D01*
X003345Y018849D01*
X003258Y018842D01*
X003171Y018840D01*
X003084Y018842D01*
X002997Y018849D01*
X002911Y018859D01*
X002825Y018874D01*
X002740Y018893D01*
X002657Y018916D01*
X002574Y018944D01*
X002493Y018975D01*
X002413Y019010D01*
X002336Y019049D01*
X002260Y019092D01*
X002187Y019139D01*
X002115Y019189D01*
X002047Y019242D01*
X001981Y019299D01*
X001918Y019359D01*
X001858Y019422D01*
X001801Y019488D01*
X001748Y019556D01*
X001698Y019628D01*
X001651Y019701D01*
X001608Y019777D01*
X001569Y019854D01*
X001534Y019934D01*
X001503Y020015D01*
X001475Y020098D01*
X001452Y020181D01*
X001433Y020266D01*
X001418Y020352D01*
X001408Y020438D01*
X001401Y020525D01*
X001399Y020612D01*
X000888Y024509D02*
X000890Y024606D01*
X000897Y024702D01*
X000909Y024798D01*
X000926Y024893D01*
X000947Y024987D01*
X000973Y025081D01*
X001003Y025172D01*
X001038Y025263D01*
X001077Y025351D01*
X001120Y025437D01*
X001168Y025521D01*
X001220Y025603D01*
X001275Y025682D01*
X001335Y025758D01*
X001398Y025831D01*
X001465Y025901D01*
X001535Y025968D01*
X001608Y026031D01*
X001684Y026091D01*
X001763Y026146D01*
X001845Y026198D01*
X001929Y026246D01*
X002015Y026289D01*
X002103Y026328D01*
X002194Y026363D01*
X002285Y026393D01*
X002379Y026419D01*
X002473Y026440D01*
X002568Y026457D01*
X002664Y026469D01*
X002760Y026476D01*
X002857Y026478D01*
X002954Y026476D01*
X003050Y026469D01*
X003146Y026457D01*
X003241Y026440D01*
X003335Y026419D01*
X003429Y026393D01*
X003520Y026363D01*
X003611Y026328D01*
X003699Y026289D01*
X003785Y026246D01*
X003869Y026198D01*
X003951Y026146D01*
X004030Y026091D01*
X004106Y026031D01*
X004179Y025968D01*
X004249Y025901D01*
X004316Y025831D01*
X004379Y025758D01*
X004439Y025682D01*
X004494Y025603D01*
X004546Y025521D01*
X004594Y025437D01*
X004637Y025351D01*
X004676Y025263D01*
X004711Y025172D01*
X004741Y025081D01*
X004767Y024987D01*
X004788Y024893D01*
X004805Y024798D01*
X004817Y024702D01*
X004824Y024606D01*
X004826Y024509D01*
X004824Y024412D01*
X004817Y024316D01*
X004805Y024220D01*
X004788Y024125D01*
X004767Y024031D01*
X004741Y023937D01*
X004711Y023846D01*
X004676Y023755D01*
X004637Y023667D01*
X004594Y023581D01*
X004546Y023497D01*
X004494Y023415D01*
X004439Y023336D01*
X004379Y023260D01*
X004316Y023187D01*
X004249Y023117D01*
X004179Y023050D01*
X004106Y022987D01*
X004030Y022927D01*
X003951Y022872D01*
X003869Y022820D01*
X003785Y022772D01*
X003699Y022729D01*
X003611Y022690D01*
X003520Y022655D01*
X003429Y022625D01*
X003335Y022599D01*
X003241Y022578D01*
X003146Y022561D01*
X003050Y022549D01*
X002954Y022542D01*
X002857Y022540D01*
X002760Y022542D01*
X002664Y022549D01*
X002568Y022561D01*
X002473Y022578D01*
X002379Y022599D01*
X002285Y022625D01*
X002194Y022655D01*
X002103Y022690D01*
X002015Y022729D01*
X001929Y022772D01*
X001845Y022820D01*
X001763Y022872D01*
X001684Y022927D01*
X001608Y022987D01*
X001535Y023050D01*
X001465Y023117D01*
X001398Y023187D01*
X001335Y023260D01*
X001275Y023336D01*
X001220Y023415D01*
X001168Y023497D01*
X001120Y023581D01*
X001077Y023667D01*
X001038Y023755D01*
X001003Y023846D01*
X000973Y023937D01*
X000947Y024031D01*
X000926Y024125D01*
X000909Y024220D01*
X000897Y024316D01*
X000890Y024412D01*
X000888Y024509D01*
D15*
X001515Y025028D02*
X001515Y025488D01*
D16*
X004034Y023916D02*
X004508Y023916D01*
X004271Y023679D02*
X004271Y024153D01*
D17*
X001124Y023584D02*
X001124Y025435D01*
X001085Y025336D02*
X001085Y023761D01*
X001046Y023761D01*
X001046Y025258D01*
X001006Y025139D02*
X001006Y023880D01*
X000967Y023998D02*
X000967Y025021D01*
X000927Y024824D02*
X000927Y024195D01*
X001085Y023761D02*
X001085Y023683D01*
X006912Y007541D02*
X006912Y005572D01*
X008880Y005572D01*
X008880Y007384D01*
X008723Y007541D01*
X006912Y007541D01*
X008723Y007541D02*
X008880Y007541D01*
X008880Y007384D01*
M02*
