G75*
G70*
%OFA0B0*%
%FSLAX24Y24*%
%IPPOS*%
%LPD*%
%AMOC8*
5,1,8,0,0,1.08239X$1,22.5*
%
%ADD10C,0.0000*%
%ADD11C,0.0090*%
%ADD12C,0.0551*%
%ADD13C,0.0669*%
%ADD14C,0.0591*%
%ADD15C,0.0436*%
%ADD16C,0.0787*%
%ADD17C,0.0520*%
%ADD18C,0.2762*%
%ADD19C,0.1181*%
%ADD20C,0.0238*%
%ADD21C,0.0098*%
%ADD22C,0.0118*%
%ADD23C,0.0080*%
D10*
X000100Y000100D02*
X002069Y000100D01*
X002069Y002069D01*
X042817Y002069D01*
X042817Y046714D01*
X002069Y046714D01*
X002069Y002069D01*
X000100Y002069D01*
X000100Y024391D01*
X044785Y024391D01*
X044785Y002069D01*
X042817Y002069D01*
X042817Y000100D01*
X029234Y000100D01*
X029234Y048683D01*
X042817Y048683D01*
X042817Y046714D01*
X044785Y046714D01*
X044785Y024391D01*
X042817Y024391D02*
X029234Y024391D01*
X029234Y040218D01*
X033368Y040218D01*
X033368Y046714D01*
X042817Y046714D01*
X042817Y024391D01*
X042817Y002069D01*
X029234Y002069D01*
X029234Y017895D01*
X033368Y017895D01*
X033368Y024391D01*
X042817Y024391D01*
X041832Y024982D02*
X041834Y025021D01*
X041840Y025060D01*
X041850Y025098D01*
X041863Y025135D01*
X041880Y025170D01*
X041900Y025204D01*
X041924Y025235D01*
X041951Y025264D01*
X041980Y025290D01*
X042012Y025313D01*
X042046Y025333D01*
X042082Y025349D01*
X042119Y025361D01*
X042158Y025370D01*
X042197Y025375D01*
X042236Y025376D01*
X042275Y025373D01*
X042314Y025366D01*
X042351Y025355D01*
X042388Y025341D01*
X042423Y025323D01*
X042456Y025302D01*
X042487Y025277D01*
X042515Y025250D01*
X042540Y025220D01*
X042562Y025187D01*
X042581Y025153D01*
X042596Y025117D01*
X042608Y025079D01*
X042616Y025041D01*
X042620Y025002D01*
X042620Y024962D01*
X042616Y024923D01*
X042608Y024885D01*
X042596Y024847D01*
X042581Y024811D01*
X042562Y024777D01*
X042540Y024744D01*
X042515Y024714D01*
X042487Y024687D01*
X042456Y024662D01*
X042423Y024641D01*
X042388Y024623D01*
X042351Y024609D01*
X042314Y024598D01*
X042275Y024591D01*
X042236Y024588D01*
X042197Y024589D01*
X042158Y024594D01*
X042119Y024603D01*
X042082Y024615D01*
X042046Y024631D01*
X042012Y024651D01*
X041980Y024674D01*
X041951Y024700D01*
X041924Y024729D01*
X041900Y024760D01*
X041880Y024794D01*
X041863Y024829D01*
X041850Y024866D01*
X041840Y024904D01*
X041834Y024943D01*
X041832Y024982D01*
X039076Y020848D02*
X039078Y020887D01*
X039084Y020926D01*
X039094Y020964D01*
X039107Y021001D01*
X039124Y021036D01*
X039144Y021070D01*
X039168Y021101D01*
X039195Y021130D01*
X039224Y021156D01*
X039256Y021179D01*
X039290Y021199D01*
X039326Y021215D01*
X039363Y021227D01*
X039402Y021236D01*
X039441Y021241D01*
X039480Y021242D01*
X039519Y021239D01*
X039558Y021232D01*
X039595Y021221D01*
X039632Y021207D01*
X039667Y021189D01*
X039700Y021168D01*
X039731Y021143D01*
X039759Y021116D01*
X039784Y021086D01*
X039806Y021053D01*
X039825Y021019D01*
X039840Y020983D01*
X039852Y020945D01*
X039860Y020907D01*
X039864Y020868D01*
X039864Y020828D01*
X039860Y020789D01*
X039852Y020751D01*
X039840Y020713D01*
X039825Y020677D01*
X039806Y020643D01*
X039784Y020610D01*
X039759Y020580D01*
X039731Y020553D01*
X039700Y020528D01*
X039667Y020507D01*
X039632Y020489D01*
X039595Y020475D01*
X039558Y020464D01*
X039519Y020457D01*
X039480Y020454D01*
X039441Y020455D01*
X039402Y020460D01*
X039363Y020469D01*
X039326Y020481D01*
X039290Y020497D01*
X039256Y020517D01*
X039224Y020540D01*
X039195Y020566D01*
X039168Y020595D01*
X039144Y020626D01*
X039124Y020660D01*
X039107Y020695D01*
X039094Y020732D01*
X039084Y020770D01*
X039078Y020809D01*
X039076Y020848D01*
X033564Y023722D02*
X033566Y023761D01*
X033572Y023800D01*
X033582Y023838D01*
X033595Y023875D01*
X033612Y023910D01*
X033632Y023944D01*
X033656Y023975D01*
X033683Y024004D01*
X033712Y024030D01*
X033744Y024053D01*
X033778Y024073D01*
X033814Y024089D01*
X033851Y024101D01*
X033890Y024110D01*
X033929Y024115D01*
X033968Y024116D01*
X034007Y024113D01*
X034046Y024106D01*
X034083Y024095D01*
X034120Y024081D01*
X034155Y024063D01*
X034188Y024042D01*
X034219Y024017D01*
X034247Y023990D01*
X034272Y023960D01*
X034294Y023927D01*
X034313Y023893D01*
X034328Y023857D01*
X034340Y023819D01*
X034348Y023781D01*
X034352Y023742D01*
X034352Y023702D01*
X034348Y023663D01*
X034340Y023625D01*
X034328Y023587D01*
X034313Y023551D01*
X034294Y023517D01*
X034272Y023484D01*
X034247Y023454D01*
X034219Y023427D01*
X034188Y023402D01*
X034155Y023381D01*
X034120Y023363D01*
X034083Y023349D01*
X034046Y023338D01*
X034007Y023331D01*
X033968Y023328D01*
X033929Y023329D01*
X033890Y023334D01*
X033851Y023343D01*
X033814Y023355D01*
X033778Y023371D01*
X033744Y023391D01*
X033712Y023414D01*
X033683Y023440D01*
X033656Y023469D01*
X033632Y023500D01*
X033612Y023534D01*
X033595Y023569D01*
X033582Y023606D01*
X033572Y023644D01*
X033566Y023683D01*
X033564Y023722D01*
X029430Y024982D02*
X029432Y025021D01*
X029438Y025060D01*
X029448Y025098D01*
X029461Y025135D01*
X029478Y025170D01*
X029498Y025204D01*
X029522Y025235D01*
X029549Y025264D01*
X029578Y025290D01*
X029610Y025313D01*
X029644Y025333D01*
X029680Y025349D01*
X029717Y025361D01*
X029756Y025370D01*
X029795Y025375D01*
X029834Y025376D01*
X029873Y025373D01*
X029912Y025366D01*
X029949Y025355D01*
X029986Y025341D01*
X030021Y025323D01*
X030054Y025302D01*
X030085Y025277D01*
X030113Y025250D01*
X030138Y025220D01*
X030160Y025187D01*
X030179Y025153D01*
X030194Y025117D01*
X030206Y025079D01*
X030214Y025041D01*
X030218Y025002D01*
X030218Y024962D01*
X030214Y024923D01*
X030206Y024885D01*
X030194Y024847D01*
X030179Y024811D01*
X030160Y024777D01*
X030138Y024744D01*
X030113Y024714D01*
X030085Y024687D01*
X030054Y024662D01*
X030021Y024641D01*
X029986Y024623D01*
X029949Y024609D01*
X029912Y024598D01*
X029873Y024591D01*
X029834Y024588D01*
X029795Y024589D01*
X029756Y024594D01*
X029717Y024603D01*
X029680Y024615D01*
X029644Y024631D01*
X029610Y024651D01*
X029578Y024674D01*
X029549Y024700D01*
X029522Y024729D01*
X029498Y024760D01*
X029478Y024794D01*
X029461Y024829D01*
X029448Y024866D01*
X029438Y024904D01*
X029432Y024943D01*
X029430Y024982D01*
X029234Y024391D02*
X015651Y024391D01*
X015651Y040218D01*
X019785Y040218D01*
X019785Y046714D01*
X029234Y046714D01*
X029234Y024391D01*
X029234Y002069D01*
X015651Y002069D01*
X015651Y017895D01*
X019785Y017895D01*
X019785Y024391D01*
X029234Y024391D01*
X028249Y024982D02*
X028251Y025021D01*
X028257Y025060D01*
X028267Y025098D01*
X028280Y025135D01*
X028297Y025170D01*
X028317Y025204D01*
X028341Y025235D01*
X028368Y025264D01*
X028397Y025290D01*
X028429Y025313D01*
X028463Y025333D01*
X028499Y025349D01*
X028536Y025361D01*
X028575Y025370D01*
X028614Y025375D01*
X028653Y025376D01*
X028692Y025373D01*
X028731Y025366D01*
X028768Y025355D01*
X028805Y025341D01*
X028840Y025323D01*
X028873Y025302D01*
X028904Y025277D01*
X028932Y025250D01*
X028957Y025220D01*
X028979Y025187D01*
X028998Y025153D01*
X029013Y025117D01*
X029025Y025079D01*
X029033Y025041D01*
X029037Y025002D01*
X029037Y024962D01*
X029033Y024923D01*
X029025Y024885D01*
X029013Y024847D01*
X028998Y024811D01*
X028979Y024777D01*
X028957Y024744D01*
X028932Y024714D01*
X028904Y024687D01*
X028873Y024662D01*
X028840Y024641D01*
X028805Y024623D01*
X028768Y024609D01*
X028731Y024598D01*
X028692Y024591D01*
X028653Y024588D01*
X028614Y024589D01*
X028575Y024594D01*
X028536Y024603D01*
X028499Y024615D01*
X028463Y024631D01*
X028429Y024651D01*
X028397Y024674D01*
X028368Y024700D01*
X028341Y024729D01*
X028317Y024760D01*
X028297Y024794D01*
X028280Y024829D01*
X028267Y024866D01*
X028257Y024904D01*
X028251Y024943D01*
X028249Y024982D01*
X025493Y020848D02*
X025495Y020887D01*
X025501Y020926D01*
X025511Y020964D01*
X025524Y021001D01*
X025541Y021036D01*
X025561Y021070D01*
X025585Y021101D01*
X025612Y021130D01*
X025641Y021156D01*
X025673Y021179D01*
X025707Y021199D01*
X025743Y021215D01*
X025780Y021227D01*
X025819Y021236D01*
X025858Y021241D01*
X025897Y021242D01*
X025936Y021239D01*
X025975Y021232D01*
X026012Y021221D01*
X026049Y021207D01*
X026084Y021189D01*
X026117Y021168D01*
X026148Y021143D01*
X026176Y021116D01*
X026201Y021086D01*
X026223Y021053D01*
X026242Y021019D01*
X026257Y020983D01*
X026269Y020945D01*
X026277Y020907D01*
X026281Y020868D01*
X026281Y020828D01*
X026277Y020789D01*
X026269Y020751D01*
X026257Y020713D01*
X026242Y020677D01*
X026223Y020643D01*
X026201Y020610D01*
X026176Y020580D01*
X026148Y020553D01*
X026117Y020528D01*
X026084Y020507D01*
X026049Y020489D01*
X026012Y020475D01*
X025975Y020464D01*
X025936Y020457D01*
X025897Y020454D01*
X025858Y020455D01*
X025819Y020460D01*
X025780Y020469D01*
X025743Y020481D01*
X025707Y020497D01*
X025673Y020517D01*
X025641Y020540D01*
X025612Y020566D01*
X025585Y020595D01*
X025561Y020626D01*
X025541Y020660D01*
X025524Y020695D01*
X025511Y020732D01*
X025501Y020770D01*
X025495Y020809D01*
X025493Y020848D01*
X019982Y023722D02*
X019984Y023761D01*
X019990Y023800D01*
X020000Y023838D01*
X020013Y023875D01*
X020030Y023910D01*
X020050Y023944D01*
X020074Y023975D01*
X020101Y024004D01*
X020130Y024030D01*
X020162Y024053D01*
X020196Y024073D01*
X020232Y024089D01*
X020269Y024101D01*
X020308Y024110D01*
X020347Y024115D01*
X020386Y024116D01*
X020425Y024113D01*
X020464Y024106D01*
X020501Y024095D01*
X020538Y024081D01*
X020573Y024063D01*
X020606Y024042D01*
X020637Y024017D01*
X020665Y023990D01*
X020690Y023960D01*
X020712Y023927D01*
X020731Y023893D01*
X020746Y023857D01*
X020758Y023819D01*
X020766Y023781D01*
X020770Y023742D01*
X020770Y023702D01*
X020766Y023663D01*
X020758Y023625D01*
X020746Y023587D01*
X020731Y023551D01*
X020712Y023517D01*
X020690Y023484D01*
X020665Y023454D01*
X020637Y023427D01*
X020606Y023402D01*
X020573Y023381D01*
X020538Y023363D01*
X020501Y023349D01*
X020464Y023338D01*
X020425Y023331D01*
X020386Y023328D01*
X020347Y023329D01*
X020308Y023334D01*
X020269Y023343D01*
X020232Y023355D01*
X020196Y023371D01*
X020162Y023391D01*
X020130Y023414D01*
X020101Y023440D01*
X020074Y023469D01*
X020050Y023500D01*
X020030Y023534D01*
X020013Y023569D01*
X020000Y023606D01*
X019990Y023644D01*
X019984Y023683D01*
X019982Y023722D01*
X015848Y024982D02*
X015850Y025021D01*
X015856Y025060D01*
X015866Y025098D01*
X015879Y025135D01*
X015896Y025170D01*
X015916Y025204D01*
X015940Y025235D01*
X015967Y025264D01*
X015996Y025290D01*
X016028Y025313D01*
X016062Y025333D01*
X016098Y025349D01*
X016135Y025361D01*
X016174Y025370D01*
X016213Y025375D01*
X016252Y025376D01*
X016291Y025373D01*
X016330Y025366D01*
X016367Y025355D01*
X016404Y025341D01*
X016439Y025323D01*
X016472Y025302D01*
X016503Y025277D01*
X016531Y025250D01*
X016556Y025220D01*
X016578Y025187D01*
X016597Y025153D01*
X016612Y025117D01*
X016624Y025079D01*
X016632Y025041D01*
X016636Y025002D01*
X016636Y024962D01*
X016632Y024923D01*
X016624Y024885D01*
X016612Y024847D01*
X016597Y024811D01*
X016578Y024777D01*
X016556Y024744D01*
X016531Y024714D01*
X016503Y024687D01*
X016472Y024662D01*
X016439Y024641D01*
X016404Y024623D01*
X016367Y024609D01*
X016330Y024598D01*
X016291Y024591D01*
X016252Y024588D01*
X016213Y024589D01*
X016174Y024594D01*
X016135Y024603D01*
X016098Y024615D01*
X016062Y024631D01*
X016028Y024651D01*
X015996Y024674D01*
X015967Y024700D01*
X015940Y024729D01*
X015916Y024760D01*
X015896Y024794D01*
X015879Y024829D01*
X015866Y024866D01*
X015856Y024904D01*
X015850Y024943D01*
X015848Y024982D01*
X015651Y024391D02*
X002069Y024391D01*
X002069Y040218D01*
X006202Y040218D01*
X006202Y046714D01*
X015651Y046714D01*
X015651Y024391D01*
X015651Y002069D01*
X002069Y002069D01*
X002069Y017895D01*
X006202Y017895D01*
X006202Y024391D01*
X015651Y024391D01*
X014667Y024982D02*
X014669Y025021D01*
X014675Y025060D01*
X014685Y025098D01*
X014698Y025135D01*
X014715Y025170D01*
X014735Y025204D01*
X014759Y025235D01*
X014786Y025264D01*
X014815Y025290D01*
X014847Y025313D01*
X014881Y025333D01*
X014917Y025349D01*
X014954Y025361D01*
X014993Y025370D01*
X015032Y025375D01*
X015071Y025376D01*
X015110Y025373D01*
X015149Y025366D01*
X015186Y025355D01*
X015223Y025341D01*
X015258Y025323D01*
X015291Y025302D01*
X015322Y025277D01*
X015350Y025250D01*
X015375Y025220D01*
X015397Y025187D01*
X015416Y025153D01*
X015431Y025117D01*
X015443Y025079D01*
X015451Y025041D01*
X015455Y025002D01*
X015455Y024962D01*
X015451Y024923D01*
X015443Y024885D01*
X015431Y024847D01*
X015416Y024811D01*
X015397Y024777D01*
X015375Y024744D01*
X015350Y024714D01*
X015322Y024687D01*
X015291Y024662D01*
X015258Y024641D01*
X015223Y024623D01*
X015186Y024609D01*
X015149Y024598D01*
X015110Y024591D01*
X015071Y024588D01*
X015032Y024589D01*
X014993Y024594D01*
X014954Y024603D01*
X014917Y024615D01*
X014881Y024631D01*
X014847Y024651D01*
X014815Y024674D01*
X014786Y024700D01*
X014759Y024729D01*
X014735Y024760D01*
X014715Y024794D01*
X014698Y024829D01*
X014685Y024866D01*
X014675Y024904D01*
X014669Y024943D01*
X014667Y024982D01*
X011911Y020848D02*
X011913Y020887D01*
X011919Y020926D01*
X011929Y020964D01*
X011942Y021001D01*
X011959Y021036D01*
X011979Y021070D01*
X012003Y021101D01*
X012030Y021130D01*
X012059Y021156D01*
X012091Y021179D01*
X012125Y021199D01*
X012161Y021215D01*
X012198Y021227D01*
X012237Y021236D01*
X012276Y021241D01*
X012315Y021242D01*
X012354Y021239D01*
X012393Y021232D01*
X012430Y021221D01*
X012467Y021207D01*
X012502Y021189D01*
X012535Y021168D01*
X012566Y021143D01*
X012594Y021116D01*
X012619Y021086D01*
X012641Y021053D01*
X012660Y021019D01*
X012675Y020983D01*
X012687Y020945D01*
X012695Y020907D01*
X012699Y020868D01*
X012699Y020828D01*
X012695Y020789D01*
X012687Y020751D01*
X012675Y020713D01*
X012660Y020677D01*
X012641Y020643D01*
X012619Y020610D01*
X012594Y020580D01*
X012566Y020553D01*
X012535Y020528D01*
X012502Y020507D01*
X012467Y020489D01*
X012430Y020475D01*
X012393Y020464D01*
X012354Y020457D01*
X012315Y020454D01*
X012276Y020455D01*
X012237Y020460D01*
X012198Y020469D01*
X012161Y020481D01*
X012125Y020497D01*
X012091Y020517D01*
X012059Y020540D01*
X012030Y020566D01*
X012003Y020595D01*
X011979Y020626D01*
X011959Y020660D01*
X011942Y020695D01*
X011929Y020732D01*
X011919Y020770D01*
X011913Y020809D01*
X011911Y020848D01*
X006399Y023722D02*
X006401Y023761D01*
X006407Y023800D01*
X006417Y023838D01*
X006430Y023875D01*
X006447Y023910D01*
X006467Y023944D01*
X006491Y023975D01*
X006518Y024004D01*
X006547Y024030D01*
X006579Y024053D01*
X006613Y024073D01*
X006649Y024089D01*
X006686Y024101D01*
X006725Y024110D01*
X006764Y024115D01*
X006803Y024116D01*
X006842Y024113D01*
X006881Y024106D01*
X006918Y024095D01*
X006955Y024081D01*
X006990Y024063D01*
X007023Y024042D01*
X007054Y024017D01*
X007082Y023990D01*
X007107Y023960D01*
X007129Y023927D01*
X007148Y023893D01*
X007163Y023857D01*
X007175Y023819D01*
X007183Y023781D01*
X007187Y023742D01*
X007187Y023702D01*
X007183Y023663D01*
X007175Y023625D01*
X007163Y023587D01*
X007148Y023551D01*
X007129Y023517D01*
X007107Y023484D01*
X007082Y023454D01*
X007054Y023427D01*
X007023Y023402D01*
X006990Y023381D01*
X006955Y023363D01*
X006918Y023349D01*
X006881Y023338D01*
X006842Y023331D01*
X006803Y023328D01*
X006764Y023329D01*
X006725Y023334D01*
X006686Y023343D01*
X006649Y023355D01*
X006613Y023371D01*
X006579Y023391D01*
X006547Y023414D01*
X006518Y023440D01*
X006491Y023469D01*
X006467Y023500D01*
X006447Y023534D01*
X006430Y023569D01*
X006417Y023606D01*
X006407Y023644D01*
X006401Y023683D01*
X006399Y023722D01*
X002265Y024982D02*
X002267Y025021D01*
X002273Y025060D01*
X002283Y025098D01*
X002296Y025135D01*
X002313Y025170D01*
X002333Y025204D01*
X002357Y025235D01*
X002384Y025264D01*
X002413Y025290D01*
X002445Y025313D01*
X002479Y025333D01*
X002515Y025349D01*
X002552Y025361D01*
X002591Y025370D01*
X002630Y025375D01*
X002669Y025376D01*
X002708Y025373D01*
X002747Y025366D01*
X002784Y025355D01*
X002821Y025341D01*
X002856Y025323D01*
X002889Y025302D01*
X002920Y025277D01*
X002948Y025250D01*
X002973Y025220D01*
X002995Y025187D01*
X003014Y025153D01*
X003029Y025117D01*
X003041Y025079D01*
X003049Y025041D01*
X003053Y025002D01*
X003053Y024962D01*
X003049Y024923D01*
X003041Y024885D01*
X003029Y024847D01*
X003014Y024811D01*
X002995Y024777D01*
X002973Y024744D01*
X002948Y024714D01*
X002920Y024687D01*
X002889Y024662D01*
X002856Y024641D01*
X002821Y024623D01*
X002784Y024609D01*
X002747Y024598D01*
X002708Y024591D01*
X002669Y024588D01*
X002630Y024589D01*
X002591Y024594D01*
X002552Y024603D01*
X002515Y024615D01*
X002479Y024631D01*
X002445Y024651D01*
X002413Y024674D01*
X002384Y024700D01*
X002357Y024729D01*
X002333Y024760D01*
X002313Y024794D01*
X002296Y024829D01*
X002283Y024866D01*
X002273Y024904D01*
X002267Y024943D01*
X002265Y024982D01*
X000100Y024391D02*
X000100Y046714D01*
X002069Y046714D01*
X002069Y048683D01*
X015651Y048683D01*
X015651Y000100D01*
X002069Y000100D01*
X000100Y000100D02*
X000100Y002069D01*
X002265Y002659D02*
X002267Y002698D01*
X002273Y002737D01*
X002283Y002775D01*
X002296Y002812D01*
X002313Y002847D01*
X002333Y002881D01*
X002357Y002912D01*
X002384Y002941D01*
X002413Y002967D01*
X002445Y002990D01*
X002479Y003010D01*
X002515Y003026D01*
X002552Y003038D01*
X002591Y003047D01*
X002630Y003052D01*
X002669Y003053D01*
X002708Y003050D01*
X002747Y003043D01*
X002784Y003032D01*
X002821Y003018D01*
X002856Y003000D01*
X002889Y002979D01*
X002920Y002954D01*
X002948Y002927D01*
X002973Y002897D01*
X002995Y002864D01*
X003014Y002830D01*
X003029Y002794D01*
X003041Y002756D01*
X003049Y002718D01*
X003053Y002679D01*
X003053Y002639D01*
X003049Y002600D01*
X003041Y002562D01*
X003029Y002524D01*
X003014Y002488D01*
X002995Y002454D01*
X002973Y002421D01*
X002948Y002391D01*
X002920Y002364D01*
X002889Y002339D01*
X002856Y002318D01*
X002821Y002300D01*
X002784Y002286D01*
X002747Y002275D01*
X002708Y002268D01*
X002669Y002265D01*
X002630Y002266D01*
X002591Y002271D01*
X002552Y002280D01*
X002515Y002292D01*
X002479Y002308D01*
X002445Y002328D01*
X002413Y002351D01*
X002384Y002377D01*
X002357Y002406D01*
X002333Y002437D01*
X002313Y002471D01*
X002296Y002506D01*
X002283Y002543D01*
X002273Y002581D01*
X002267Y002620D01*
X002265Y002659D01*
X006399Y010612D02*
X006401Y010651D01*
X006407Y010690D01*
X006417Y010728D01*
X006430Y010765D01*
X006447Y010800D01*
X006467Y010834D01*
X006491Y010865D01*
X006518Y010894D01*
X006547Y010920D01*
X006579Y010943D01*
X006613Y010963D01*
X006649Y010979D01*
X006686Y010991D01*
X006725Y011000D01*
X006764Y011005D01*
X006803Y011006D01*
X006842Y011003D01*
X006881Y010996D01*
X006918Y010985D01*
X006955Y010971D01*
X006990Y010953D01*
X007023Y010932D01*
X007054Y010907D01*
X007082Y010880D01*
X007107Y010850D01*
X007129Y010817D01*
X007148Y010783D01*
X007163Y010747D01*
X007175Y010709D01*
X007183Y010671D01*
X007187Y010632D01*
X007187Y010592D01*
X007183Y010553D01*
X007175Y010515D01*
X007163Y010477D01*
X007148Y010441D01*
X007129Y010407D01*
X007107Y010374D01*
X007082Y010344D01*
X007054Y010317D01*
X007023Y010292D01*
X006990Y010271D01*
X006955Y010253D01*
X006918Y010239D01*
X006881Y010228D01*
X006842Y010221D01*
X006803Y010218D01*
X006764Y010219D01*
X006725Y010224D01*
X006686Y010233D01*
X006649Y010245D01*
X006613Y010261D01*
X006579Y010281D01*
X006547Y010304D01*
X006518Y010330D01*
X006491Y010359D01*
X006467Y010390D01*
X006447Y010424D01*
X006430Y010459D01*
X006417Y010496D01*
X006407Y010534D01*
X006401Y010573D01*
X006399Y010612D01*
X014667Y002659D02*
X014669Y002698D01*
X014675Y002737D01*
X014685Y002775D01*
X014698Y002812D01*
X014715Y002847D01*
X014735Y002881D01*
X014759Y002912D01*
X014786Y002941D01*
X014815Y002967D01*
X014847Y002990D01*
X014881Y003010D01*
X014917Y003026D01*
X014954Y003038D01*
X014993Y003047D01*
X015032Y003052D01*
X015071Y003053D01*
X015110Y003050D01*
X015149Y003043D01*
X015186Y003032D01*
X015223Y003018D01*
X015258Y003000D01*
X015291Y002979D01*
X015322Y002954D01*
X015350Y002927D01*
X015375Y002897D01*
X015397Y002864D01*
X015416Y002830D01*
X015431Y002794D01*
X015443Y002756D01*
X015451Y002718D01*
X015455Y002679D01*
X015455Y002639D01*
X015451Y002600D01*
X015443Y002562D01*
X015431Y002524D01*
X015416Y002488D01*
X015397Y002454D01*
X015375Y002421D01*
X015350Y002391D01*
X015322Y002364D01*
X015291Y002339D01*
X015258Y002318D01*
X015223Y002300D01*
X015186Y002286D01*
X015149Y002275D01*
X015110Y002268D01*
X015071Y002265D01*
X015032Y002266D01*
X014993Y002271D01*
X014954Y002280D01*
X014917Y002292D01*
X014881Y002308D01*
X014847Y002328D01*
X014815Y002351D01*
X014786Y002377D01*
X014759Y002406D01*
X014735Y002437D01*
X014715Y002471D01*
X014698Y002506D01*
X014685Y002543D01*
X014675Y002581D01*
X014669Y002620D01*
X014667Y002659D01*
X015848Y002659D02*
X015850Y002698D01*
X015856Y002737D01*
X015866Y002775D01*
X015879Y002812D01*
X015896Y002847D01*
X015916Y002881D01*
X015940Y002912D01*
X015967Y002941D01*
X015996Y002967D01*
X016028Y002990D01*
X016062Y003010D01*
X016098Y003026D01*
X016135Y003038D01*
X016174Y003047D01*
X016213Y003052D01*
X016252Y003053D01*
X016291Y003050D01*
X016330Y003043D01*
X016367Y003032D01*
X016404Y003018D01*
X016439Y003000D01*
X016472Y002979D01*
X016503Y002954D01*
X016531Y002927D01*
X016556Y002897D01*
X016578Y002864D01*
X016597Y002830D01*
X016612Y002794D01*
X016624Y002756D01*
X016632Y002718D01*
X016636Y002679D01*
X016636Y002639D01*
X016632Y002600D01*
X016624Y002562D01*
X016612Y002524D01*
X016597Y002488D01*
X016578Y002454D01*
X016556Y002421D01*
X016531Y002391D01*
X016503Y002364D01*
X016472Y002339D01*
X016439Y002318D01*
X016404Y002300D01*
X016367Y002286D01*
X016330Y002275D01*
X016291Y002268D01*
X016252Y002265D01*
X016213Y002266D01*
X016174Y002271D01*
X016135Y002280D01*
X016098Y002292D01*
X016062Y002308D01*
X016028Y002328D01*
X015996Y002351D01*
X015967Y002377D01*
X015940Y002406D01*
X015916Y002437D01*
X015896Y002471D01*
X015879Y002506D01*
X015866Y002543D01*
X015856Y002581D01*
X015850Y002620D01*
X015848Y002659D01*
X015651Y000100D02*
X029234Y000100D01*
X029430Y002659D02*
X029432Y002698D01*
X029438Y002737D01*
X029448Y002775D01*
X029461Y002812D01*
X029478Y002847D01*
X029498Y002881D01*
X029522Y002912D01*
X029549Y002941D01*
X029578Y002967D01*
X029610Y002990D01*
X029644Y003010D01*
X029680Y003026D01*
X029717Y003038D01*
X029756Y003047D01*
X029795Y003052D01*
X029834Y003053D01*
X029873Y003050D01*
X029912Y003043D01*
X029949Y003032D01*
X029986Y003018D01*
X030021Y003000D01*
X030054Y002979D01*
X030085Y002954D01*
X030113Y002927D01*
X030138Y002897D01*
X030160Y002864D01*
X030179Y002830D01*
X030194Y002794D01*
X030206Y002756D01*
X030214Y002718D01*
X030218Y002679D01*
X030218Y002639D01*
X030214Y002600D01*
X030206Y002562D01*
X030194Y002524D01*
X030179Y002488D01*
X030160Y002454D01*
X030138Y002421D01*
X030113Y002391D01*
X030085Y002364D01*
X030054Y002339D01*
X030021Y002318D01*
X029986Y002300D01*
X029949Y002286D01*
X029912Y002275D01*
X029873Y002268D01*
X029834Y002265D01*
X029795Y002266D01*
X029756Y002271D01*
X029717Y002280D01*
X029680Y002292D01*
X029644Y002308D01*
X029610Y002328D01*
X029578Y002351D01*
X029549Y002377D01*
X029522Y002406D01*
X029498Y002437D01*
X029478Y002471D01*
X029461Y002506D01*
X029448Y002543D01*
X029438Y002581D01*
X029432Y002620D01*
X029430Y002659D01*
X028249Y002659D02*
X028251Y002698D01*
X028257Y002737D01*
X028267Y002775D01*
X028280Y002812D01*
X028297Y002847D01*
X028317Y002881D01*
X028341Y002912D01*
X028368Y002941D01*
X028397Y002967D01*
X028429Y002990D01*
X028463Y003010D01*
X028499Y003026D01*
X028536Y003038D01*
X028575Y003047D01*
X028614Y003052D01*
X028653Y003053D01*
X028692Y003050D01*
X028731Y003043D01*
X028768Y003032D01*
X028805Y003018D01*
X028840Y003000D01*
X028873Y002979D01*
X028904Y002954D01*
X028932Y002927D01*
X028957Y002897D01*
X028979Y002864D01*
X028998Y002830D01*
X029013Y002794D01*
X029025Y002756D01*
X029033Y002718D01*
X029037Y002679D01*
X029037Y002639D01*
X029033Y002600D01*
X029025Y002562D01*
X029013Y002524D01*
X028998Y002488D01*
X028979Y002454D01*
X028957Y002421D01*
X028932Y002391D01*
X028904Y002364D01*
X028873Y002339D01*
X028840Y002318D01*
X028805Y002300D01*
X028768Y002286D01*
X028731Y002275D01*
X028692Y002268D01*
X028653Y002265D01*
X028614Y002266D01*
X028575Y002271D01*
X028536Y002280D01*
X028499Y002292D01*
X028463Y002308D01*
X028429Y002328D01*
X028397Y002351D01*
X028368Y002377D01*
X028341Y002406D01*
X028317Y002437D01*
X028297Y002471D01*
X028280Y002506D01*
X028267Y002543D01*
X028257Y002581D01*
X028251Y002620D01*
X028249Y002659D01*
X033564Y010612D02*
X033566Y010651D01*
X033572Y010690D01*
X033582Y010728D01*
X033595Y010765D01*
X033612Y010800D01*
X033632Y010834D01*
X033656Y010865D01*
X033683Y010894D01*
X033712Y010920D01*
X033744Y010943D01*
X033778Y010963D01*
X033814Y010979D01*
X033851Y010991D01*
X033890Y011000D01*
X033929Y011005D01*
X033968Y011006D01*
X034007Y011003D01*
X034046Y010996D01*
X034083Y010985D01*
X034120Y010971D01*
X034155Y010953D01*
X034188Y010932D01*
X034219Y010907D01*
X034247Y010880D01*
X034272Y010850D01*
X034294Y010817D01*
X034313Y010783D01*
X034328Y010747D01*
X034340Y010709D01*
X034348Y010671D01*
X034352Y010632D01*
X034352Y010592D01*
X034348Y010553D01*
X034340Y010515D01*
X034328Y010477D01*
X034313Y010441D01*
X034294Y010407D01*
X034272Y010374D01*
X034247Y010344D01*
X034219Y010317D01*
X034188Y010292D01*
X034155Y010271D01*
X034120Y010253D01*
X034083Y010239D01*
X034046Y010228D01*
X034007Y010221D01*
X033968Y010218D01*
X033929Y010219D01*
X033890Y010224D01*
X033851Y010233D01*
X033814Y010245D01*
X033778Y010261D01*
X033744Y010281D01*
X033712Y010304D01*
X033683Y010330D01*
X033656Y010359D01*
X033632Y010390D01*
X033612Y010424D01*
X033595Y010459D01*
X033582Y010496D01*
X033572Y010534D01*
X033566Y010573D01*
X033564Y010612D01*
X041832Y002659D02*
X041834Y002698D01*
X041840Y002737D01*
X041850Y002775D01*
X041863Y002812D01*
X041880Y002847D01*
X041900Y002881D01*
X041924Y002912D01*
X041951Y002941D01*
X041980Y002967D01*
X042012Y002990D01*
X042046Y003010D01*
X042082Y003026D01*
X042119Y003038D01*
X042158Y003047D01*
X042197Y003052D01*
X042236Y003053D01*
X042275Y003050D01*
X042314Y003043D01*
X042351Y003032D01*
X042388Y003018D01*
X042423Y003000D01*
X042456Y002979D01*
X042487Y002954D01*
X042515Y002927D01*
X042540Y002897D01*
X042562Y002864D01*
X042581Y002830D01*
X042596Y002794D01*
X042608Y002756D01*
X042616Y002718D01*
X042620Y002679D01*
X042620Y002639D01*
X042616Y002600D01*
X042608Y002562D01*
X042596Y002524D01*
X042581Y002488D01*
X042562Y002454D01*
X042540Y002421D01*
X042515Y002391D01*
X042487Y002364D01*
X042456Y002339D01*
X042423Y002318D01*
X042388Y002300D01*
X042351Y002286D01*
X042314Y002275D01*
X042275Y002268D01*
X042236Y002265D01*
X042197Y002266D01*
X042158Y002271D01*
X042119Y002280D01*
X042082Y002292D01*
X042046Y002308D01*
X042012Y002328D01*
X041980Y002351D01*
X041951Y002377D01*
X041924Y002406D01*
X041900Y002437D01*
X041880Y002471D01*
X041863Y002506D01*
X041850Y002543D01*
X041840Y002581D01*
X041834Y002620D01*
X041832Y002659D01*
X042817Y000100D02*
X044785Y000100D01*
X044785Y002069D01*
X019982Y010612D02*
X019984Y010651D01*
X019990Y010690D01*
X020000Y010728D01*
X020013Y010765D01*
X020030Y010800D01*
X020050Y010834D01*
X020074Y010865D01*
X020101Y010894D01*
X020130Y010920D01*
X020162Y010943D01*
X020196Y010963D01*
X020232Y010979D01*
X020269Y010991D01*
X020308Y011000D01*
X020347Y011005D01*
X020386Y011006D01*
X020425Y011003D01*
X020464Y010996D01*
X020501Y010985D01*
X020538Y010971D01*
X020573Y010953D01*
X020606Y010932D01*
X020637Y010907D01*
X020665Y010880D01*
X020690Y010850D01*
X020712Y010817D01*
X020731Y010783D01*
X020746Y010747D01*
X020758Y010709D01*
X020766Y010671D01*
X020770Y010632D01*
X020770Y010592D01*
X020766Y010553D01*
X020758Y010515D01*
X020746Y010477D01*
X020731Y010441D01*
X020712Y010407D01*
X020690Y010374D01*
X020665Y010344D01*
X020637Y010317D01*
X020606Y010292D01*
X020573Y010271D01*
X020538Y010253D01*
X020501Y010239D01*
X020464Y010228D01*
X020425Y010221D01*
X020386Y010218D01*
X020347Y010219D01*
X020308Y010224D01*
X020269Y010233D01*
X020232Y010245D01*
X020196Y010261D01*
X020162Y010281D01*
X020130Y010304D01*
X020101Y010330D01*
X020074Y010359D01*
X020050Y010390D01*
X020030Y010424D01*
X020013Y010459D01*
X020000Y010496D01*
X019990Y010534D01*
X019984Y010573D01*
X019982Y010612D01*
X019982Y032935D02*
X019984Y032974D01*
X019990Y033013D01*
X020000Y033051D01*
X020013Y033088D01*
X020030Y033123D01*
X020050Y033157D01*
X020074Y033188D01*
X020101Y033217D01*
X020130Y033243D01*
X020162Y033266D01*
X020196Y033286D01*
X020232Y033302D01*
X020269Y033314D01*
X020308Y033323D01*
X020347Y033328D01*
X020386Y033329D01*
X020425Y033326D01*
X020464Y033319D01*
X020501Y033308D01*
X020538Y033294D01*
X020573Y033276D01*
X020606Y033255D01*
X020637Y033230D01*
X020665Y033203D01*
X020690Y033173D01*
X020712Y033140D01*
X020731Y033106D01*
X020746Y033070D01*
X020758Y033032D01*
X020766Y032994D01*
X020770Y032955D01*
X020770Y032915D01*
X020766Y032876D01*
X020758Y032838D01*
X020746Y032800D01*
X020731Y032764D01*
X020712Y032730D01*
X020690Y032697D01*
X020665Y032667D01*
X020637Y032640D01*
X020606Y032615D01*
X020573Y032594D01*
X020538Y032576D01*
X020501Y032562D01*
X020464Y032551D01*
X020425Y032544D01*
X020386Y032541D01*
X020347Y032542D01*
X020308Y032547D01*
X020269Y032556D01*
X020232Y032568D01*
X020196Y032584D01*
X020162Y032604D01*
X020130Y032627D01*
X020101Y032653D01*
X020074Y032682D01*
X020050Y032713D01*
X020030Y032747D01*
X020013Y032782D01*
X020000Y032819D01*
X019990Y032857D01*
X019984Y032896D01*
X019982Y032935D01*
X025493Y043171D02*
X025495Y043210D01*
X025501Y043249D01*
X025511Y043287D01*
X025524Y043324D01*
X025541Y043359D01*
X025561Y043393D01*
X025585Y043424D01*
X025612Y043453D01*
X025641Y043479D01*
X025673Y043502D01*
X025707Y043522D01*
X025743Y043538D01*
X025780Y043550D01*
X025819Y043559D01*
X025858Y043564D01*
X025897Y043565D01*
X025936Y043562D01*
X025975Y043555D01*
X026012Y043544D01*
X026049Y043530D01*
X026084Y043512D01*
X026117Y043491D01*
X026148Y043466D01*
X026176Y043439D01*
X026201Y043409D01*
X026223Y043376D01*
X026242Y043342D01*
X026257Y043306D01*
X026269Y043268D01*
X026277Y043230D01*
X026281Y043191D01*
X026281Y043151D01*
X026277Y043112D01*
X026269Y043074D01*
X026257Y043036D01*
X026242Y043000D01*
X026223Y042966D01*
X026201Y042933D01*
X026176Y042903D01*
X026148Y042876D01*
X026117Y042851D01*
X026084Y042830D01*
X026049Y042812D01*
X026012Y042798D01*
X025975Y042787D01*
X025936Y042780D01*
X025897Y042777D01*
X025858Y042778D01*
X025819Y042783D01*
X025780Y042792D01*
X025743Y042804D01*
X025707Y042820D01*
X025673Y042840D01*
X025641Y042863D01*
X025612Y042889D01*
X025585Y042918D01*
X025561Y042949D01*
X025541Y042983D01*
X025524Y043018D01*
X025511Y043055D01*
X025501Y043093D01*
X025495Y043132D01*
X025493Y043171D01*
X019982Y046045D02*
X019984Y046084D01*
X019990Y046123D01*
X020000Y046161D01*
X020013Y046198D01*
X020030Y046233D01*
X020050Y046267D01*
X020074Y046298D01*
X020101Y046327D01*
X020130Y046353D01*
X020162Y046376D01*
X020196Y046396D01*
X020232Y046412D01*
X020269Y046424D01*
X020308Y046433D01*
X020347Y046438D01*
X020386Y046439D01*
X020425Y046436D01*
X020464Y046429D01*
X020501Y046418D01*
X020538Y046404D01*
X020573Y046386D01*
X020606Y046365D01*
X020637Y046340D01*
X020665Y046313D01*
X020690Y046283D01*
X020712Y046250D01*
X020731Y046216D01*
X020746Y046180D01*
X020758Y046142D01*
X020766Y046104D01*
X020770Y046065D01*
X020770Y046025D01*
X020766Y045986D01*
X020758Y045948D01*
X020746Y045910D01*
X020731Y045874D01*
X020712Y045840D01*
X020690Y045807D01*
X020665Y045777D01*
X020637Y045750D01*
X020606Y045725D01*
X020573Y045704D01*
X020538Y045686D01*
X020501Y045672D01*
X020464Y045661D01*
X020425Y045654D01*
X020386Y045651D01*
X020347Y045652D01*
X020308Y045657D01*
X020269Y045666D01*
X020232Y045678D01*
X020196Y045694D01*
X020162Y045714D01*
X020130Y045737D01*
X020101Y045763D01*
X020074Y045792D01*
X020050Y045823D01*
X020030Y045857D01*
X020013Y045892D01*
X020000Y045929D01*
X019990Y045967D01*
X019984Y046006D01*
X019982Y046045D01*
X015651Y048683D02*
X029234Y048683D01*
X033564Y046045D02*
X033566Y046084D01*
X033572Y046123D01*
X033582Y046161D01*
X033595Y046198D01*
X033612Y046233D01*
X033632Y046267D01*
X033656Y046298D01*
X033683Y046327D01*
X033712Y046353D01*
X033744Y046376D01*
X033778Y046396D01*
X033814Y046412D01*
X033851Y046424D01*
X033890Y046433D01*
X033929Y046438D01*
X033968Y046439D01*
X034007Y046436D01*
X034046Y046429D01*
X034083Y046418D01*
X034120Y046404D01*
X034155Y046386D01*
X034188Y046365D01*
X034219Y046340D01*
X034247Y046313D01*
X034272Y046283D01*
X034294Y046250D01*
X034313Y046216D01*
X034328Y046180D01*
X034340Y046142D01*
X034348Y046104D01*
X034352Y046065D01*
X034352Y046025D01*
X034348Y045986D01*
X034340Y045948D01*
X034328Y045910D01*
X034313Y045874D01*
X034294Y045840D01*
X034272Y045807D01*
X034247Y045777D01*
X034219Y045750D01*
X034188Y045725D01*
X034155Y045704D01*
X034120Y045686D01*
X034083Y045672D01*
X034046Y045661D01*
X034007Y045654D01*
X033968Y045651D01*
X033929Y045652D01*
X033890Y045657D01*
X033851Y045666D01*
X033814Y045678D01*
X033778Y045694D01*
X033744Y045714D01*
X033712Y045737D01*
X033683Y045763D01*
X033656Y045792D01*
X033632Y045823D01*
X033612Y045857D01*
X033595Y045892D01*
X033582Y045929D01*
X033572Y045967D01*
X033566Y046006D01*
X033564Y046045D01*
X039076Y043171D02*
X039078Y043210D01*
X039084Y043249D01*
X039094Y043287D01*
X039107Y043324D01*
X039124Y043359D01*
X039144Y043393D01*
X039168Y043424D01*
X039195Y043453D01*
X039224Y043479D01*
X039256Y043502D01*
X039290Y043522D01*
X039326Y043538D01*
X039363Y043550D01*
X039402Y043559D01*
X039441Y043564D01*
X039480Y043565D01*
X039519Y043562D01*
X039558Y043555D01*
X039595Y043544D01*
X039632Y043530D01*
X039667Y043512D01*
X039700Y043491D01*
X039731Y043466D01*
X039759Y043439D01*
X039784Y043409D01*
X039806Y043376D01*
X039825Y043342D01*
X039840Y043306D01*
X039852Y043268D01*
X039860Y043230D01*
X039864Y043191D01*
X039864Y043151D01*
X039860Y043112D01*
X039852Y043074D01*
X039840Y043036D01*
X039825Y043000D01*
X039806Y042966D01*
X039784Y042933D01*
X039759Y042903D01*
X039731Y042876D01*
X039700Y042851D01*
X039667Y042830D01*
X039632Y042812D01*
X039595Y042798D01*
X039558Y042787D01*
X039519Y042780D01*
X039480Y042777D01*
X039441Y042778D01*
X039402Y042783D01*
X039363Y042792D01*
X039326Y042804D01*
X039290Y042820D01*
X039256Y042840D01*
X039224Y042863D01*
X039195Y042889D01*
X039168Y042918D01*
X039144Y042949D01*
X039124Y042983D01*
X039107Y043018D01*
X039094Y043055D01*
X039084Y043093D01*
X039078Y043132D01*
X039076Y043171D01*
X042817Y048683D02*
X044785Y048683D01*
X044785Y046714D01*
X033564Y032935D02*
X033566Y032974D01*
X033572Y033013D01*
X033582Y033051D01*
X033595Y033088D01*
X033612Y033123D01*
X033632Y033157D01*
X033656Y033188D01*
X033683Y033217D01*
X033712Y033243D01*
X033744Y033266D01*
X033778Y033286D01*
X033814Y033302D01*
X033851Y033314D01*
X033890Y033323D01*
X033929Y033328D01*
X033968Y033329D01*
X034007Y033326D01*
X034046Y033319D01*
X034083Y033308D01*
X034120Y033294D01*
X034155Y033276D01*
X034188Y033255D01*
X034219Y033230D01*
X034247Y033203D01*
X034272Y033173D01*
X034294Y033140D01*
X034313Y033106D01*
X034328Y033070D01*
X034340Y033032D01*
X034348Y032994D01*
X034352Y032955D01*
X034352Y032915D01*
X034348Y032876D01*
X034340Y032838D01*
X034328Y032800D01*
X034313Y032764D01*
X034294Y032730D01*
X034272Y032697D01*
X034247Y032667D01*
X034219Y032640D01*
X034188Y032615D01*
X034155Y032594D01*
X034120Y032576D01*
X034083Y032562D01*
X034046Y032551D01*
X034007Y032544D01*
X033968Y032541D01*
X033929Y032542D01*
X033890Y032547D01*
X033851Y032556D01*
X033814Y032568D01*
X033778Y032584D01*
X033744Y032604D01*
X033712Y032627D01*
X033683Y032653D01*
X033656Y032682D01*
X033632Y032713D01*
X033612Y032747D01*
X033595Y032782D01*
X033582Y032819D01*
X033572Y032857D01*
X033566Y032896D01*
X033564Y032935D01*
X011911Y043171D02*
X011913Y043210D01*
X011919Y043249D01*
X011929Y043287D01*
X011942Y043324D01*
X011959Y043359D01*
X011979Y043393D01*
X012003Y043424D01*
X012030Y043453D01*
X012059Y043479D01*
X012091Y043502D01*
X012125Y043522D01*
X012161Y043538D01*
X012198Y043550D01*
X012237Y043559D01*
X012276Y043564D01*
X012315Y043565D01*
X012354Y043562D01*
X012393Y043555D01*
X012430Y043544D01*
X012467Y043530D01*
X012502Y043512D01*
X012535Y043491D01*
X012566Y043466D01*
X012594Y043439D01*
X012619Y043409D01*
X012641Y043376D01*
X012660Y043342D01*
X012675Y043306D01*
X012687Y043268D01*
X012695Y043230D01*
X012699Y043191D01*
X012699Y043151D01*
X012695Y043112D01*
X012687Y043074D01*
X012675Y043036D01*
X012660Y043000D01*
X012641Y042966D01*
X012619Y042933D01*
X012594Y042903D01*
X012566Y042876D01*
X012535Y042851D01*
X012502Y042830D01*
X012467Y042812D01*
X012430Y042798D01*
X012393Y042787D01*
X012354Y042780D01*
X012315Y042777D01*
X012276Y042778D01*
X012237Y042783D01*
X012198Y042792D01*
X012161Y042804D01*
X012125Y042820D01*
X012091Y042840D01*
X012059Y042863D01*
X012030Y042889D01*
X012003Y042918D01*
X011979Y042949D01*
X011959Y042983D01*
X011942Y043018D01*
X011929Y043055D01*
X011919Y043093D01*
X011913Y043132D01*
X011911Y043171D01*
X006399Y046045D02*
X006401Y046084D01*
X006407Y046123D01*
X006417Y046161D01*
X006430Y046198D01*
X006447Y046233D01*
X006467Y046267D01*
X006491Y046298D01*
X006518Y046327D01*
X006547Y046353D01*
X006579Y046376D01*
X006613Y046396D01*
X006649Y046412D01*
X006686Y046424D01*
X006725Y046433D01*
X006764Y046438D01*
X006803Y046439D01*
X006842Y046436D01*
X006881Y046429D01*
X006918Y046418D01*
X006955Y046404D01*
X006990Y046386D01*
X007023Y046365D01*
X007054Y046340D01*
X007082Y046313D01*
X007107Y046283D01*
X007129Y046250D01*
X007148Y046216D01*
X007163Y046180D01*
X007175Y046142D01*
X007183Y046104D01*
X007187Y046065D01*
X007187Y046025D01*
X007183Y045986D01*
X007175Y045948D01*
X007163Y045910D01*
X007148Y045874D01*
X007129Y045840D01*
X007107Y045807D01*
X007082Y045777D01*
X007054Y045750D01*
X007023Y045725D01*
X006990Y045704D01*
X006955Y045686D01*
X006918Y045672D01*
X006881Y045661D01*
X006842Y045654D01*
X006803Y045651D01*
X006764Y045652D01*
X006725Y045657D01*
X006686Y045666D01*
X006649Y045678D01*
X006613Y045694D01*
X006579Y045714D01*
X006547Y045737D01*
X006518Y045763D01*
X006491Y045792D01*
X006467Y045823D01*
X006447Y045857D01*
X006430Y045892D01*
X006417Y045929D01*
X006407Y045967D01*
X006401Y046006D01*
X006399Y046045D01*
X002069Y048683D02*
X000100Y048683D01*
X000100Y046714D01*
X006399Y032935D02*
X006401Y032974D01*
X006407Y033013D01*
X006417Y033051D01*
X006430Y033088D01*
X006447Y033123D01*
X006467Y033157D01*
X006491Y033188D01*
X006518Y033217D01*
X006547Y033243D01*
X006579Y033266D01*
X006613Y033286D01*
X006649Y033302D01*
X006686Y033314D01*
X006725Y033323D01*
X006764Y033328D01*
X006803Y033329D01*
X006842Y033326D01*
X006881Y033319D01*
X006918Y033308D01*
X006955Y033294D01*
X006990Y033276D01*
X007023Y033255D01*
X007054Y033230D01*
X007082Y033203D01*
X007107Y033173D01*
X007129Y033140D01*
X007148Y033106D01*
X007163Y033070D01*
X007175Y033032D01*
X007183Y032994D01*
X007187Y032955D01*
X007187Y032915D01*
X007183Y032876D01*
X007175Y032838D01*
X007163Y032800D01*
X007148Y032764D01*
X007129Y032730D01*
X007107Y032697D01*
X007082Y032667D01*
X007054Y032640D01*
X007023Y032615D01*
X006990Y032594D01*
X006955Y032576D01*
X006918Y032562D01*
X006881Y032551D01*
X006842Y032544D01*
X006803Y032541D01*
X006764Y032542D01*
X006725Y032547D01*
X006686Y032556D01*
X006649Y032568D01*
X006613Y032584D01*
X006579Y032604D01*
X006547Y032627D01*
X006518Y032653D01*
X006491Y032682D01*
X006467Y032713D01*
X006447Y032747D01*
X006430Y032782D01*
X006417Y032819D01*
X006407Y032857D01*
X006401Y032896D01*
X006399Y032935D01*
D11*
X009694Y025140D02*
X009849Y025140D01*
X009849Y024830D01*
X009694Y024830D01*
X009642Y024882D01*
X009642Y025089D01*
X009694Y025140D01*
X010043Y025140D02*
X010043Y025192D01*
X010043Y025037D02*
X010043Y024830D01*
X010094Y024830D02*
X009991Y024830D01*
X010043Y025037D02*
X010094Y025037D01*
X012713Y024104D02*
X012713Y023897D01*
X012765Y023846D01*
X012920Y023846D01*
X012920Y024156D01*
X012765Y024156D01*
X012713Y024104D01*
X013114Y024053D02*
X013114Y023846D01*
X013165Y023846D02*
X013062Y023846D01*
X013114Y024053D02*
X013165Y024053D01*
X013114Y024156D02*
X013114Y024208D01*
X023225Y024882D02*
X023276Y024830D01*
X023432Y024830D01*
X023432Y025140D01*
X023276Y025140D01*
X023225Y025089D01*
X023225Y024882D01*
X023574Y024830D02*
X023677Y024830D01*
X023625Y024830D02*
X023625Y025037D01*
X023677Y025037D01*
X023625Y025140D02*
X023625Y025192D01*
X026296Y024104D02*
X026296Y023897D01*
X026347Y023846D01*
X026502Y023846D01*
X026502Y024156D01*
X026347Y024156D01*
X026296Y024104D01*
X026696Y024053D02*
X026696Y023846D01*
X026748Y023846D02*
X026644Y023846D01*
X026696Y024053D02*
X026748Y024053D01*
X026696Y024156D02*
X026696Y024208D01*
X036807Y024882D02*
X036859Y024830D01*
X037014Y024830D01*
X037014Y025140D01*
X036859Y025140D01*
X036807Y025089D01*
X036807Y024882D01*
X037156Y024830D02*
X037260Y024830D01*
X037208Y024830D02*
X037208Y025037D01*
X037260Y025037D01*
X037208Y025140D02*
X037208Y025192D01*
X039878Y024104D02*
X039878Y023897D01*
X039930Y023846D01*
X040085Y023846D01*
X040085Y024156D01*
X039930Y024156D01*
X039878Y024104D01*
X040279Y024053D02*
X040279Y023846D01*
X040331Y023846D02*
X040227Y023846D01*
X040279Y024053D02*
X040331Y024053D01*
X040279Y024156D02*
X040279Y024208D01*
X037208Y002869D02*
X037208Y002817D01*
X037208Y002714D02*
X037208Y002507D01*
X037260Y002507D02*
X037156Y002507D01*
X037014Y002507D02*
X036859Y002507D01*
X036807Y002559D01*
X036807Y002766D01*
X036859Y002817D01*
X037014Y002817D01*
X037014Y002507D01*
X037208Y002714D02*
X037260Y002714D01*
X023677Y002714D02*
X023625Y002714D01*
X023625Y002507D01*
X023574Y002507D02*
X023677Y002507D01*
X023432Y002507D02*
X023276Y002507D01*
X023225Y002559D01*
X023225Y002766D01*
X023276Y002817D01*
X023432Y002817D01*
X023432Y002507D01*
X023625Y002817D02*
X023625Y002869D01*
X010094Y002714D02*
X010043Y002714D01*
X010043Y002507D01*
X010094Y002507D02*
X009991Y002507D01*
X009849Y002507D02*
X009694Y002507D01*
X009642Y002559D01*
X009642Y002766D01*
X009694Y002817D01*
X009849Y002817D01*
X009849Y002507D01*
X010043Y002817D02*
X010043Y002869D01*
X012765Y046169D02*
X012713Y046220D01*
X012713Y046427D01*
X012765Y046479D01*
X012920Y046479D01*
X012920Y046169D01*
X012765Y046169D01*
X013062Y046169D02*
X013165Y046169D01*
X013114Y046169D02*
X013114Y046375D01*
X013165Y046375D01*
X013114Y046479D02*
X013114Y046531D01*
X026296Y046427D02*
X026296Y046220D01*
X026347Y046169D01*
X026502Y046169D01*
X026502Y046479D01*
X026347Y046479D01*
X026296Y046427D01*
X026696Y046375D02*
X026696Y046169D01*
X026748Y046169D02*
X026644Y046169D01*
X026696Y046375D02*
X026748Y046375D01*
X026696Y046479D02*
X026696Y046531D01*
X039878Y046427D02*
X039878Y046220D01*
X039930Y046169D01*
X040085Y046169D01*
X040085Y046479D01*
X039930Y046479D01*
X039878Y046427D01*
X040279Y046375D02*
X040279Y046169D01*
X040331Y046169D02*
X040227Y046169D01*
X040279Y046375D02*
X040331Y046375D01*
X040279Y046479D02*
X040279Y046531D01*
D12*
X032226Y039746D03*
X030257Y039746D03*
X018643Y039746D03*
X016675Y039746D03*
X005061Y039746D03*
X003092Y039746D03*
X003092Y017423D03*
X005061Y017423D03*
X016675Y017423D03*
X018643Y017423D03*
X030257Y017423D03*
X032226Y017423D03*
D13*
X030061Y013998D03*
X030061Y012935D03*
X030061Y011793D03*
X030061Y010454D03*
X030061Y009116D03*
X030061Y007777D03*
X030061Y006439D03*
X028604Y008257D03*
X028604Y009257D03*
X028604Y010257D03*
X028604Y011257D03*
X028604Y012257D03*
X016478Y011793D03*
X016478Y012935D03*
X016478Y013998D03*
X015021Y012257D03*
X015021Y011257D03*
X015021Y010257D03*
X015021Y009257D03*
X015021Y008257D03*
X016478Y007777D03*
X016478Y006439D03*
X016478Y009116D03*
X016478Y010454D03*
X002895Y010454D03*
X002895Y009116D03*
X002895Y007777D03*
X002895Y006439D03*
X002895Y011793D03*
X002895Y012935D03*
X002895Y013998D03*
X002895Y028761D03*
X002895Y030100D03*
X002895Y031439D03*
X002895Y032777D03*
X002895Y034116D03*
X002895Y035257D03*
X002895Y036320D03*
X015021Y034580D03*
X015021Y033580D03*
X015021Y032580D03*
X015021Y031580D03*
X015021Y030580D03*
X016478Y030100D03*
X016478Y028761D03*
X016478Y031439D03*
X016478Y032777D03*
X016478Y034116D03*
X016478Y035257D03*
X016478Y036320D03*
X028604Y034580D03*
X028604Y033580D03*
X028604Y032580D03*
X028604Y031580D03*
X028604Y030580D03*
X030061Y030100D03*
X030061Y028761D03*
X030061Y031439D03*
X030061Y032777D03*
X030061Y034116D03*
X030061Y035257D03*
X030061Y036320D03*
X042187Y034580D03*
X042187Y033580D03*
X042187Y032580D03*
X042187Y031580D03*
X042187Y030580D03*
X042187Y012257D03*
X042187Y011257D03*
X042187Y010257D03*
X042187Y009257D03*
X042187Y008257D03*
D14*
X041072Y006544D03*
X039680Y005152D03*
X043801Y001084D03*
X027489Y006544D03*
X026097Y005152D03*
X013906Y006544D03*
X012514Y005152D03*
X001084Y001084D03*
X012514Y027475D03*
X013906Y028867D03*
X026097Y027475D03*
X027489Y028867D03*
X039680Y027475D03*
X041072Y028867D03*
X001084Y047698D03*
D15*
X008860Y042163D03*
X008860Y041163D03*
X008860Y040163D03*
X022443Y040163D03*
X022443Y041163D03*
X022443Y042163D03*
X036025Y042163D03*
X036025Y041163D03*
X036025Y040163D03*
X036025Y019840D03*
X036025Y018840D03*
X036025Y017840D03*
X022443Y017840D03*
X022443Y018840D03*
X022443Y019840D03*
X008860Y019840D03*
X008860Y018840D03*
X008860Y017840D03*
D16*
X008946Y023643D03*
X007946Y023643D03*
X002895Y026254D03*
X002895Y027254D03*
X016478Y027254D03*
X016478Y026254D03*
X021529Y023643D03*
X022529Y023643D03*
X030061Y026254D03*
X030061Y027254D03*
X035112Y023643D03*
X036112Y023643D03*
X030061Y004931D03*
X030061Y003931D03*
X016478Y003931D03*
X016478Y004931D03*
X002895Y004931D03*
X002895Y003931D03*
X007946Y045966D03*
X008946Y045966D03*
X021529Y045966D03*
X022529Y045966D03*
X035112Y045966D03*
X036112Y045966D03*
D17*
X035971Y029037D03*
X034071Y029037D03*
X022389Y029037D03*
X020489Y029037D03*
X008806Y029037D03*
X006906Y029037D03*
X006906Y006714D03*
X008806Y006714D03*
X020489Y006714D03*
X022389Y006714D03*
X034071Y006714D03*
X035971Y006714D03*
D18*
X035887Y012383D03*
X022305Y012383D03*
X008722Y012383D03*
X008722Y034706D03*
X022305Y034706D03*
X035887Y034706D03*
D19*
X033958Y036478D03*
X020376Y036478D03*
X006793Y036478D03*
X006793Y014155D03*
X020376Y014155D03*
X033958Y014155D03*
D20*
X034824Y014628D03*
X034982Y015612D03*
X035297Y015986D03*
X035533Y015651D03*
X035887Y015651D03*
X035710Y016301D03*
X035651Y016675D03*
X035651Y017029D03*
X034982Y017029D03*
X034155Y016950D03*
X034155Y016635D03*
X033722Y017935D03*
X034194Y018210D03*
X034549Y018840D03*
X034903Y019549D03*
X035376Y019628D03*
X035376Y018722D03*
X035376Y018407D03*
X035376Y018092D03*
X035651Y018250D03*
X035651Y018565D03*
X036596Y019903D03*
X037305Y019313D03*
X037305Y018880D03*
X037541Y017187D03*
X036439Y016754D03*
X036163Y014194D03*
X037541Y014116D03*
X037502Y013250D03*
X037974Y013250D03*
X038407Y013525D03*
X038761Y014628D03*
X039411Y015100D03*
X039746Y015218D03*
X040080Y015100D03*
X040691Y014864D03*
X040002Y014057D03*
X041084Y013328D03*
X042069Y014313D03*
X042069Y017029D03*
X040494Y018860D03*
X040494Y019194D03*
X040494Y019529D03*
X041006Y020179D03*
X041084Y021320D03*
X041635Y021439D03*
X042187Y021399D03*
X042305Y022935D03*
X041911Y022935D03*
X040336Y022856D03*
X039943Y022856D03*
X038761Y021163D03*
X038368Y020297D03*
X037344Y020927D03*
X039352Y019450D03*
X039273Y018939D03*
X039667Y016517D03*
X042265Y019313D03*
X037935Y023328D03*
X037462Y023328D03*
X036990Y023328D03*
X035966Y024903D03*
X035848Y025257D03*
X035494Y025454D03*
X035572Y025769D03*
X035139Y025100D03*
X034706Y025179D03*
X034076Y025100D03*
X034234Y026242D03*
X033880Y026301D03*
X033880Y027206D03*
X034313Y027108D03*
X034864Y026773D03*
X035494Y027423D03*
X035809Y027659D03*
X035336Y028250D03*
X034746Y028210D03*
X034313Y028210D03*
X033840Y028525D03*
X033309Y028387D03*
X033309Y029135D03*
X033309Y029726D03*
X033309Y030474D03*
X034391Y029687D03*
X035651Y029687D03*
X036517Y028604D03*
X036990Y028604D03*
X037462Y028525D03*
X037285Y027954D03*
X037777Y027698D03*
X038171Y027738D03*
X038525Y027620D03*
X038151Y027364D03*
X037187Y027069D03*
X036793Y027069D03*
X036399Y027069D03*
X036399Y026675D03*
X036399Y026281D03*
X036793Y026281D03*
X037187Y026281D03*
X037187Y026675D03*
X036793Y026675D03*
X037777Y025691D03*
X039155Y026478D03*
X039785Y025533D03*
X040100Y024864D03*
X041084Y025061D03*
X041950Y025651D03*
X041084Y026576D03*
X039352Y028171D03*
X037305Y029746D03*
X039273Y030769D03*
X039273Y031399D03*
X040730Y033643D03*
X041439Y033643D03*
X041320Y031517D03*
X041675Y029746D03*
X039470Y033801D03*
X038683Y033801D03*
X039706Y034943D03*
X040002Y036380D03*
X040080Y037423D03*
X039746Y037541D03*
X039411Y037423D03*
X038761Y036950D03*
X038407Y035848D03*
X037974Y035572D03*
X037502Y035572D03*
X037541Y036439D03*
X036163Y036517D03*
X034824Y036950D03*
X034982Y037935D03*
X035297Y038309D03*
X035533Y037974D03*
X035887Y037974D03*
X035710Y038624D03*
X035651Y038998D03*
X035651Y039352D03*
X034982Y039352D03*
X034155Y039273D03*
X034155Y038958D03*
X033722Y040257D03*
X034194Y040533D03*
X034549Y041163D03*
X034903Y041872D03*
X035376Y041950D03*
X035376Y041045D03*
X035376Y040730D03*
X035376Y040415D03*
X035651Y040572D03*
X035651Y040887D03*
X036596Y042226D03*
X037305Y041635D03*
X037305Y041202D03*
X038368Y042620D03*
X038761Y043486D03*
X037344Y043250D03*
X039352Y041773D03*
X039273Y041261D03*
X040494Y041183D03*
X040494Y041517D03*
X040494Y041852D03*
X041006Y042502D03*
X041084Y043643D03*
X041635Y043761D03*
X042187Y043722D03*
X042305Y045257D03*
X041911Y045257D03*
X040336Y045179D03*
X039943Y045179D03*
X037935Y045651D03*
X037462Y045651D03*
X036990Y045651D03*
X034785Y043643D03*
X034194Y043210D03*
X036439Y039076D03*
X037541Y039509D03*
X039667Y038840D03*
X040691Y037187D03*
X042069Y036635D03*
X041084Y035651D03*
X042069Y039352D03*
X042265Y041635D03*
X036360Y032856D03*
X036419Y032305D03*
X036911Y031714D03*
X033348Y031813D03*
X033348Y033151D03*
X033348Y034490D03*
X030809Y034864D03*
X030809Y033565D03*
X030809Y032226D03*
X031399Y030769D03*
X032226Y031006D03*
X032226Y029667D03*
X031399Y029431D03*
X030907Y028131D03*
X031891Y026754D03*
X031891Y025218D03*
X030907Y025376D03*
X028368Y025651D03*
X027502Y025061D03*
X026517Y024864D03*
X026202Y025533D03*
X025572Y026478D03*
X024943Y027620D03*
X024588Y027738D03*
X024569Y027364D03*
X024194Y027698D03*
X023702Y027954D03*
X023880Y028525D03*
X023407Y028604D03*
X022935Y028604D03*
X022226Y027659D03*
X021911Y027423D03*
X021754Y028250D03*
X021163Y028210D03*
X020730Y028210D03*
X020257Y028525D03*
X019726Y028387D03*
X019726Y029135D03*
X019726Y029726D03*
X019726Y030474D03*
X018643Y031006D03*
X017817Y030769D03*
X017817Y029431D03*
X018643Y029667D03*
X017324Y028131D03*
X018309Y026754D03*
X017324Y025376D03*
X018309Y025218D03*
X020494Y025100D03*
X021124Y025179D03*
X021557Y025100D03*
X021911Y025454D03*
X021990Y025769D03*
X022265Y025257D03*
X022383Y024903D03*
X022817Y026281D03*
X023210Y026281D03*
X023210Y026675D03*
X022817Y026675D03*
X022817Y027069D03*
X023210Y027069D03*
X023604Y027069D03*
X023604Y026675D03*
X023604Y026281D03*
X024194Y025691D03*
X024352Y023328D03*
X023880Y023328D03*
X023407Y023328D03*
X025179Y021163D03*
X024785Y020297D03*
X025769Y019450D03*
X025691Y018939D03*
X026911Y018860D03*
X026911Y019194D03*
X026911Y019529D03*
X027423Y020179D03*
X027502Y021320D03*
X028053Y021439D03*
X028604Y021399D03*
X028722Y022935D03*
X028328Y022935D03*
X026754Y022856D03*
X026360Y022856D03*
X023761Y020927D03*
X023013Y019903D03*
X023722Y019313D03*
X023722Y018880D03*
X022069Y018565D03*
X022069Y018250D03*
X021793Y018407D03*
X021793Y018092D03*
X021793Y018722D03*
X020966Y018840D03*
X020612Y018210D03*
X020139Y017935D03*
X020572Y016950D03*
X020572Y016635D03*
X021399Y017029D03*
X022069Y017029D03*
X022069Y016675D03*
X022128Y016301D03*
X021714Y015986D03*
X021950Y015651D03*
X022305Y015651D03*
X021399Y015612D03*
X021242Y014628D03*
X022580Y014194D03*
X023958Y014116D03*
X023919Y013250D03*
X024391Y013250D03*
X024824Y013525D03*
X025179Y014628D03*
X025828Y015100D03*
X026163Y015218D03*
X026498Y015100D03*
X027108Y014864D03*
X026419Y014057D03*
X027502Y013328D03*
X028486Y014313D03*
X028486Y017029D03*
X028683Y019313D03*
X026084Y016517D03*
X023958Y017187D03*
X022856Y016754D03*
X021793Y019628D03*
X021320Y019549D03*
X020612Y020887D03*
X021202Y021320D03*
X020651Y026242D03*
X020297Y026301D03*
X020297Y027206D03*
X020730Y027108D03*
X021281Y026773D03*
X020809Y029687D03*
X022069Y029687D03*
X023722Y029746D03*
X023328Y031714D03*
X022836Y032305D03*
X022777Y032856D03*
X025100Y033801D03*
X025887Y033801D03*
X026124Y034943D03*
X026419Y036380D03*
X026498Y037423D03*
X026163Y037541D03*
X025828Y037423D03*
X025179Y036950D03*
X024824Y035848D03*
X024391Y035572D03*
X023919Y035572D03*
X023958Y036439D03*
X022580Y036517D03*
X021242Y036950D03*
X021399Y037935D03*
X021714Y038309D03*
X021950Y037974D03*
X022305Y037974D03*
X022128Y038624D03*
X022069Y038998D03*
X022069Y039352D03*
X022856Y039076D03*
X021793Y040415D03*
X021793Y040730D03*
X021793Y041045D03*
X022069Y040887D03*
X022069Y040572D03*
X021793Y041950D03*
X021320Y041872D03*
X020966Y041163D03*
X020612Y040533D03*
X020139Y040257D03*
X020572Y039273D03*
X020572Y038958D03*
X021399Y039352D03*
X019431Y037935D03*
X019116Y037935D03*
X018801Y037935D03*
X018486Y037935D03*
X018131Y038525D03*
X017817Y038525D03*
X017502Y038525D03*
X014903Y039352D03*
X013328Y041183D03*
X013328Y041517D03*
X013328Y041852D03*
X013840Y042502D03*
X013919Y043643D03*
X014470Y043761D03*
X015021Y043722D03*
X015139Y045257D03*
X014746Y045257D03*
X013171Y045179D03*
X012777Y045179D03*
X011596Y043486D03*
X011202Y042620D03*
X010179Y043250D03*
X009431Y042226D03*
X010139Y041635D03*
X010139Y041202D03*
X008486Y040887D03*
X008486Y040572D03*
X008210Y040415D03*
X008210Y040730D03*
X008210Y041045D03*
X008210Y041950D03*
X007738Y041872D03*
X007383Y041163D03*
X007029Y040533D03*
X006557Y040257D03*
X006990Y039273D03*
X006990Y038958D03*
X007817Y039352D03*
X008486Y039352D03*
X008486Y038998D03*
X008545Y038624D03*
X008131Y038309D03*
X008368Y037974D03*
X008722Y037974D03*
X007817Y037935D03*
X007659Y036950D03*
X008998Y036517D03*
X010376Y036439D03*
X010336Y035572D03*
X010809Y035572D03*
X011242Y035848D03*
X011596Y036950D03*
X012246Y037423D03*
X012580Y037541D03*
X012915Y037423D03*
X013525Y037187D03*
X012836Y036380D03*
X013919Y035651D03*
X014903Y036635D03*
X017226Y034864D03*
X017226Y033565D03*
X017226Y032226D03*
X019765Y031813D03*
X019765Y033151D03*
X019765Y034490D03*
X023958Y039509D03*
X023722Y041202D03*
X023722Y041635D03*
X023013Y042226D03*
X023761Y043250D03*
X024785Y042620D03*
X025179Y043486D03*
X026360Y045179D03*
X026754Y045179D03*
X027502Y043643D03*
X028053Y043761D03*
X028604Y043722D03*
X027423Y042502D03*
X026911Y041852D03*
X026911Y041517D03*
X026911Y041183D03*
X025691Y041261D03*
X025769Y041773D03*
X028683Y041635D03*
X028486Y039352D03*
X027108Y037187D03*
X028486Y036635D03*
X027502Y035651D03*
X027856Y033643D03*
X027147Y033643D03*
X027738Y031517D03*
X028092Y029746D03*
X025691Y030769D03*
X025691Y031399D03*
X025769Y028171D03*
X027502Y026576D03*
X034194Y020887D03*
X034785Y021320D03*
X031714Y016202D03*
X031399Y016202D03*
X031084Y016202D03*
X032069Y015612D03*
X032383Y015612D03*
X032698Y015612D03*
X033013Y015612D03*
X030809Y012541D03*
X030809Y011242D03*
X030809Y009903D03*
X031399Y008446D03*
X032226Y008683D03*
X032226Y007344D03*
X031399Y007108D03*
X030907Y005809D03*
X031891Y004431D03*
X030907Y003053D03*
X031891Y002895D03*
X034076Y002777D03*
X034706Y002856D03*
X035139Y002777D03*
X035494Y003131D03*
X035572Y003446D03*
X035848Y002935D03*
X035966Y002580D03*
X036399Y003958D03*
X036793Y003958D03*
X037187Y003958D03*
X037187Y004352D03*
X037187Y004746D03*
X036793Y004746D03*
X036399Y004746D03*
X036399Y004352D03*
X036793Y004352D03*
X035809Y005336D03*
X035494Y005100D03*
X035336Y005927D03*
X034746Y005887D03*
X034313Y005887D03*
X033840Y006202D03*
X033309Y006065D03*
X033309Y006813D03*
X033309Y007403D03*
X033309Y008151D03*
X034391Y007364D03*
X035651Y007364D03*
X036517Y006281D03*
X036990Y006281D03*
X037462Y006202D03*
X037285Y005631D03*
X037777Y005376D03*
X038171Y005415D03*
X038525Y005297D03*
X038151Y005041D03*
X039155Y004155D03*
X039785Y003210D03*
X040100Y002541D03*
X041084Y002738D03*
X041950Y003328D03*
X041084Y004254D03*
X039352Y005848D03*
X037305Y007423D03*
X036911Y009391D03*
X036419Y009982D03*
X036360Y010533D03*
X038683Y011478D03*
X039470Y011478D03*
X039706Y012620D03*
X040730Y011320D03*
X041439Y011320D03*
X041320Y009194D03*
X041675Y007423D03*
X039273Y008446D03*
X039273Y009076D03*
X034864Y004450D03*
X034313Y004785D03*
X033880Y004883D03*
X033880Y003978D03*
X034234Y003919D03*
X037777Y003368D03*
X033348Y009490D03*
X033348Y010828D03*
X033348Y012167D03*
X027856Y011320D03*
X027147Y011320D03*
X026124Y012620D03*
X025887Y011478D03*
X025100Y011478D03*
X023328Y009391D03*
X022836Y009982D03*
X022777Y010533D03*
X019765Y010828D03*
X019765Y012167D03*
X019765Y009490D03*
X019726Y008151D03*
X019726Y007403D03*
X019726Y006813D03*
X019726Y006065D03*
X020257Y006202D03*
X020730Y005887D03*
X021163Y005887D03*
X021754Y005927D03*
X022226Y005336D03*
X021911Y005100D03*
X021281Y004450D03*
X020730Y004785D03*
X020297Y004883D03*
X020297Y003978D03*
X020651Y003919D03*
X021990Y003446D03*
X021911Y003131D03*
X022265Y002935D03*
X022383Y002580D03*
X021557Y002777D03*
X021124Y002856D03*
X020494Y002777D03*
X018309Y002895D03*
X017324Y003053D03*
X018309Y004431D03*
X017324Y005809D03*
X017817Y007108D03*
X018643Y007344D03*
X018643Y008683D03*
X017817Y008446D03*
X017226Y009903D03*
X017226Y011242D03*
X017226Y012541D03*
X014903Y014313D03*
X013919Y013328D03*
X012836Y014057D03*
X012915Y015100D03*
X012580Y015218D03*
X012246Y015100D03*
X011596Y014628D03*
X011242Y013525D03*
X010809Y013250D03*
X010336Y013250D03*
X010376Y014116D03*
X008998Y014194D03*
X007659Y014628D03*
X007817Y015612D03*
X008131Y015986D03*
X008368Y015651D03*
X008722Y015651D03*
X008545Y016301D03*
X008486Y016675D03*
X008486Y017029D03*
X007817Y017029D03*
X006990Y016950D03*
X006990Y016635D03*
X006557Y017935D03*
X007029Y018210D03*
X007383Y018840D03*
X007738Y019549D03*
X008210Y019628D03*
X008210Y018722D03*
X008210Y018407D03*
X008210Y018092D03*
X008486Y018250D03*
X008486Y018565D03*
X009431Y019903D03*
X010139Y019313D03*
X010139Y018880D03*
X010376Y017187D03*
X009273Y016754D03*
X012108Y018939D03*
X012187Y019450D03*
X013328Y019529D03*
X013328Y019194D03*
X013328Y018860D03*
X013840Y020179D03*
X013919Y021320D03*
X014470Y021439D03*
X015021Y021399D03*
X015139Y022935D03*
X014746Y022935D03*
X013171Y022856D03*
X012777Y022856D03*
X011596Y021163D03*
X011202Y020297D03*
X010179Y020927D03*
X010297Y023328D03*
X010769Y023328D03*
X009824Y023328D03*
X008801Y024903D03*
X008683Y025257D03*
X008328Y025454D03*
X008407Y025769D03*
X007974Y025100D03*
X007541Y025179D03*
X006911Y025100D03*
X007069Y026242D03*
X006714Y026301D03*
X006714Y027206D03*
X007147Y027108D03*
X007698Y026773D03*
X008328Y027423D03*
X008643Y027659D03*
X008171Y028250D03*
X007580Y028210D03*
X007147Y028210D03*
X006675Y028525D03*
X006143Y028387D03*
X006143Y029135D03*
X006143Y029726D03*
X006143Y030474D03*
X005061Y031006D03*
X004234Y030769D03*
X004234Y029431D03*
X005061Y029667D03*
X003742Y028131D03*
X004726Y026754D03*
X003742Y025376D03*
X004726Y025218D03*
X007620Y021320D03*
X007029Y020887D03*
X004549Y016202D03*
X004234Y016202D03*
X003919Y016202D03*
X004903Y015612D03*
X005218Y015612D03*
X005533Y015612D03*
X005848Y015612D03*
X003643Y012541D03*
X003643Y011242D03*
X003643Y009903D03*
X004234Y008446D03*
X005061Y008683D03*
X006143Y008151D03*
X006143Y007403D03*
X006143Y006813D03*
X006143Y006065D03*
X006675Y006202D03*
X007147Y005887D03*
X007580Y005887D03*
X008171Y005927D03*
X008643Y005336D03*
X008328Y005100D03*
X007698Y004450D03*
X007147Y004785D03*
X006714Y004883D03*
X006714Y003978D03*
X007069Y003919D03*
X006911Y002777D03*
X007541Y002856D03*
X007974Y002777D03*
X008328Y003131D03*
X008407Y003446D03*
X008683Y002935D03*
X008801Y002580D03*
X009234Y003958D03*
X009628Y003958D03*
X010021Y003958D03*
X010021Y004352D03*
X009628Y004352D03*
X009628Y004746D03*
X010021Y004746D03*
X009234Y004746D03*
X009234Y004352D03*
X010120Y005631D03*
X010612Y005376D03*
X011006Y005415D03*
X011360Y005297D03*
X010986Y005041D03*
X011990Y004155D03*
X012620Y003210D03*
X012935Y002541D03*
X013919Y002738D03*
X014785Y003328D03*
X013919Y004254D03*
X012187Y005848D03*
X010297Y006202D03*
X009824Y006281D03*
X009352Y006281D03*
X008486Y007364D03*
X007226Y007364D03*
X006183Y009490D03*
X006183Y010828D03*
X006183Y012167D03*
X009194Y010533D03*
X009254Y009982D03*
X009746Y009391D03*
X010139Y007423D03*
X012108Y008446D03*
X012108Y009076D03*
X014155Y009194D03*
X014509Y007423D03*
X014273Y011320D03*
X013565Y011320D03*
X012305Y011478D03*
X011517Y011478D03*
X012541Y012620D03*
X013525Y014864D03*
X012502Y016517D03*
X014903Y017029D03*
X015100Y019313D03*
X017502Y016202D03*
X017817Y016202D03*
X018131Y016202D03*
X018486Y015612D03*
X018801Y015612D03*
X019116Y015612D03*
X019431Y015612D03*
X025691Y009076D03*
X025691Y008446D03*
X027738Y009194D03*
X028092Y007423D03*
X025769Y005848D03*
X024943Y005297D03*
X024588Y005415D03*
X024569Y005041D03*
X024194Y005376D03*
X023702Y005631D03*
X023880Y006202D03*
X023407Y006281D03*
X022935Y006281D03*
X022069Y007364D03*
X020809Y007364D03*
X023722Y007423D03*
X023604Y004746D03*
X023210Y004746D03*
X022817Y004746D03*
X022817Y004352D03*
X023210Y004352D03*
X023210Y003958D03*
X022817Y003958D03*
X023604Y003958D03*
X023604Y004352D03*
X024194Y003368D03*
X025572Y004155D03*
X026202Y003210D03*
X026517Y002541D03*
X027502Y002738D03*
X028368Y003328D03*
X027502Y004254D03*
X010612Y003368D03*
X005061Y007344D03*
X004234Y007108D03*
X003742Y005809D03*
X004726Y004431D03*
X003742Y003053D03*
X004726Y002895D03*
X012935Y024864D03*
X012620Y025533D03*
X011990Y026478D03*
X011360Y027620D03*
X011006Y027738D03*
X010986Y027364D03*
X010612Y027698D03*
X010120Y027954D03*
X010297Y028525D03*
X009824Y028604D03*
X009352Y028604D03*
X008486Y029687D03*
X007226Y029687D03*
X006183Y031813D03*
X006183Y033151D03*
X006183Y034490D03*
X003643Y034864D03*
X003643Y033565D03*
X003643Y032226D03*
X004903Y037935D03*
X005218Y037935D03*
X005533Y037935D03*
X005848Y037935D03*
X004549Y038525D03*
X004234Y038525D03*
X003919Y038525D03*
X007029Y043210D03*
X007620Y043643D03*
X009824Y045651D03*
X010297Y045651D03*
X010769Y045651D03*
X012187Y041773D03*
X012108Y041261D03*
X010376Y039509D03*
X009273Y039076D03*
X012502Y038840D03*
X015100Y041635D03*
X020612Y043210D03*
X021202Y043643D03*
X023407Y045651D03*
X023880Y045651D03*
X024352Y045651D03*
X028328Y045257D03*
X028722Y045257D03*
X026084Y038840D03*
X031084Y038525D03*
X031399Y038525D03*
X031714Y038525D03*
X032069Y037935D03*
X032383Y037935D03*
X032698Y037935D03*
X033013Y037935D03*
X014509Y029746D03*
X014155Y031517D03*
X014273Y033643D03*
X013565Y033643D03*
X012305Y033801D03*
X011517Y033801D03*
X012541Y034943D03*
X009746Y031714D03*
X009254Y032305D03*
X009194Y032856D03*
X012108Y031399D03*
X012108Y030769D03*
X010139Y029746D03*
X012187Y028171D03*
X013919Y026576D03*
X014785Y025651D03*
X013919Y025061D03*
X010612Y025691D03*
X010021Y026281D03*
X009628Y026281D03*
X009628Y026675D03*
X010021Y026675D03*
X010021Y027069D03*
X009628Y027069D03*
X009234Y027069D03*
X009234Y026675D03*
X009234Y026281D03*
D21*
X013939Y024569D02*
X014273Y024903D01*
X014273Y025454D01*
X014470Y025651D01*
X014785Y025651D01*
X013939Y024569D02*
X003584Y024569D01*
X003368Y024785D01*
X003368Y025336D01*
X003092Y025612D01*
X002659Y025612D01*
X002364Y025907D01*
X002364Y039017D01*
X003092Y039746D01*
X015946Y039017D02*
X015946Y025907D01*
X016242Y025612D01*
X016675Y025612D01*
X016950Y025336D01*
X016950Y024785D01*
X017167Y024569D01*
X027521Y024569D01*
X027856Y024903D01*
X027856Y025454D01*
X028053Y025651D01*
X028368Y025651D01*
X029529Y025907D02*
X029529Y039017D01*
X030257Y039746D01*
X029529Y025907D02*
X029824Y025612D01*
X030257Y025612D01*
X030533Y025336D01*
X030533Y024785D01*
X030750Y024569D01*
X041104Y024569D01*
X041439Y024903D01*
X041439Y025454D01*
X041635Y025651D01*
X041950Y025651D01*
X030257Y017423D02*
X029529Y016694D01*
X029529Y003584D01*
X029824Y003289D01*
X030257Y003289D01*
X030533Y003013D01*
X030533Y002462D01*
X030750Y002246D01*
X041104Y002246D01*
X041439Y002580D01*
X041439Y003131D01*
X041635Y003328D01*
X041950Y003328D01*
X028368Y003328D02*
X028053Y003328D01*
X027856Y003131D01*
X027856Y002580D01*
X027521Y002246D01*
X017167Y002246D01*
X016950Y002462D01*
X016950Y003013D01*
X016675Y003289D01*
X016242Y003289D01*
X015946Y003584D01*
X015946Y016694D01*
X016675Y017423D01*
X014785Y003328D02*
X014470Y003328D01*
X014273Y003131D01*
X014273Y002580D01*
X013939Y002246D01*
X003584Y002246D01*
X003368Y002462D01*
X003368Y003013D01*
X003092Y003289D01*
X002659Y003289D01*
X002364Y003584D01*
X002364Y016694D01*
X003092Y017423D01*
X015946Y039017D02*
X016675Y039746D01*
D22*
X013525Y037187D02*
X013368Y037187D01*
X013250Y037305D01*
X013250Y039116D01*
X010730Y041635D01*
X010139Y041635D01*
X023722Y041635D02*
X024313Y041635D01*
X026832Y039116D01*
X026832Y037305D01*
X026950Y037187D01*
X027108Y037187D01*
X037305Y041635D02*
X037895Y041635D01*
X040415Y039116D01*
X040415Y037305D01*
X040533Y037187D01*
X040691Y037187D01*
X037895Y019313D02*
X037305Y019313D01*
X037895Y019313D02*
X040415Y016793D01*
X040415Y014982D01*
X040533Y014864D01*
X040691Y014864D01*
X027108Y014864D02*
X026950Y014864D01*
X026832Y014982D01*
X026832Y016793D01*
X024313Y019313D01*
X023722Y019313D01*
X013525Y014864D02*
X013368Y014864D01*
X013250Y014982D01*
X013250Y016793D01*
X010730Y019313D01*
X010139Y019313D01*
D23*
X009273Y019509D02*
X008943Y019840D01*
X008860Y019840D01*
X009273Y019509D02*
X009273Y017344D01*
X009549Y017069D01*
X009549Y014509D01*
X010809Y013250D01*
X010966Y013525D02*
X011242Y013525D01*
X010966Y013525D02*
X010376Y014116D01*
X010336Y013250D02*
X009234Y014352D01*
X009234Y016202D01*
X008860Y016576D01*
X008860Y017840D01*
X006557Y017935D02*
X006557Y015454D01*
X005966Y014864D01*
X005966Y013683D01*
X006832Y012817D01*
X006832Y011754D01*
X008053Y010533D01*
X009194Y010533D01*
X011124Y011281D02*
X011360Y011045D01*
X012029Y011045D01*
X012305Y011320D01*
X012305Y011478D01*
X011124Y011281D02*
X011124Y013013D01*
X011596Y013486D01*
X011596Y014628D01*
X013565Y011320D02*
X013919Y011320D01*
X014470Y011872D01*
X014470Y012462D01*
X015415Y013407D01*
X015415Y019628D01*
X014785Y020257D01*
X013919Y020257D01*
X013840Y020179D01*
X012187Y019470D02*
X011596Y020061D01*
X011596Y021163D01*
X012187Y019470D02*
X012187Y019450D01*
X008250Y024824D02*
X007305Y024824D01*
X007029Y025100D01*
X006911Y025100D01*
X007974Y025100D02*
X007974Y025651D01*
X008092Y025769D01*
X008407Y025769D01*
X008683Y025257D02*
X008250Y024824D01*
X007698Y026773D02*
X007285Y026773D01*
X007147Y026911D01*
X007147Y027108D01*
X006675Y028525D02*
X008919Y028525D01*
X010139Y029746D01*
X011360Y027620D02*
X011360Y026439D01*
X010612Y025691D01*
X004726Y025218D02*
X004726Y026754D01*
X008053Y032856D02*
X006832Y034076D01*
X006832Y035139D01*
X005966Y036006D01*
X005966Y037187D01*
X006557Y037777D01*
X006557Y040257D01*
X008860Y040163D02*
X008860Y038899D01*
X009234Y038525D01*
X009234Y036675D01*
X010336Y035572D01*
X010809Y035572D02*
X009549Y036832D01*
X009549Y039391D01*
X009273Y039667D01*
X009273Y041832D01*
X008943Y042163D01*
X008860Y042163D01*
X011596Y042383D02*
X012187Y041793D01*
X012187Y041773D01*
X011596Y042383D02*
X011596Y043486D01*
X013840Y042502D02*
X013919Y042580D01*
X014785Y042580D01*
X015415Y041950D01*
X015415Y035730D01*
X014470Y034785D01*
X014470Y034194D01*
X013919Y033643D01*
X013565Y033643D01*
X012305Y033643D02*
X012305Y033801D01*
X012305Y033643D02*
X012029Y033368D01*
X011360Y033368D01*
X011124Y033604D01*
X011124Y035336D01*
X011596Y035809D01*
X011596Y036950D01*
X011242Y035848D02*
X010966Y035848D01*
X010376Y036439D01*
X009194Y032856D02*
X008053Y032856D01*
X018309Y026754D02*
X018309Y025218D01*
X020494Y025100D02*
X020612Y025100D01*
X020887Y024824D01*
X021832Y024824D01*
X022265Y025257D01*
X021990Y025769D02*
X021675Y025769D01*
X021557Y025651D01*
X021557Y025100D01*
X021281Y026773D02*
X020868Y026773D01*
X020730Y026911D01*
X020730Y027108D01*
X020257Y028525D02*
X022502Y028525D01*
X023722Y029746D01*
X024943Y027620D02*
X024943Y026439D01*
X024194Y025691D01*
X025179Y021163D02*
X025179Y020061D01*
X025769Y019470D01*
X025769Y019450D01*
X027423Y020179D02*
X027502Y020257D01*
X028368Y020257D01*
X028998Y019628D01*
X028998Y013407D01*
X028053Y012462D01*
X028053Y011872D01*
X027502Y011320D01*
X027147Y011320D01*
X025887Y011320D02*
X025612Y011045D01*
X024943Y011045D01*
X024706Y011281D01*
X024706Y013013D01*
X025179Y013486D01*
X025179Y014628D01*
X024824Y013525D02*
X024549Y013525D01*
X023958Y014116D01*
X023919Y013250D02*
X022817Y014352D01*
X022817Y016202D01*
X022443Y016576D01*
X022443Y017840D01*
X022856Y017344D02*
X022856Y019509D01*
X022525Y019840D01*
X022443Y019840D01*
X022856Y017344D02*
X023131Y017069D01*
X023131Y014509D01*
X024391Y013250D01*
X025887Y011478D02*
X025887Y011320D01*
X022777Y010533D02*
X021635Y010533D01*
X020415Y011754D01*
X020415Y012817D01*
X019549Y013683D01*
X019549Y014864D01*
X020139Y015454D01*
X020139Y017935D01*
X023722Y007423D02*
X022502Y006202D01*
X020257Y006202D01*
X020730Y004785D02*
X020730Y004588D01*
X020868Y004450D01*
X021281Y004450D01*
X021675Y003446D02*
X021990Y003446D01*
X021675Y003446D02*
X021557Y003328D01*
X021557Y002777D01*
X021832Y002502D02*
X022265Y002935D01*
X021832Y002502D02*
X020887Y002502D01*
X020612Y002777D01*
X020494Y002777D01*
X018309Y002895D02*
X018309Y004431D01*
X024194Y003368D02*
X024943Y004116D01*
X024943Y005297D01*
X031891Y004431D02*
X031891Y002895D01*
X034076Y002777D02*
X034194Y002777D01*
X034470Y002502D01*
X035415Y002502D01*
X035848Y002935D01*
X035572Y003446D02*
X035257Y003446D01*
X035139Y003328D01*
X035139Y002777D01*
X034864Y004450D02*
X034450Y004450D01*
X034313Y004588D01*
X034313Y004785D01*
X033840Y006202D02*
X036084Y006202D01*
X037305Y007423D01*
X038525Y005297D02*
X038525Y004116D01*
X037777Y003368D01*
X036360Y010533D02*
X035218Y010533D01*
X033998Y011754D01*
X033998Y012817D01*
X033131Y013683D01*
X033131Y014864D01*
X033722Y015454D01*
X033722Y017935D01*
X036025Y017840D02*
X036025Y016576D01*
X036399Y016202D01*
X036399Y014352D01*
X037502Y013250D01*
X037974Y013250D02*
X036714Y014509D01*
X036714Y017069D01*
X036439Y017344D01*
X036439Y019509D01*
X036108Y019840D01*
X036025Y019840D01*
X038761Y020061D02*
X039352Y019470D01*
X039352Y019450D01*
X038761Y020061D02*
X038761Y021163D01*
X041006Y020179D02*
X041084Y020257D01*
X041950Y020257D01*
X042580Y019628D01*
X042580Y013407D01*
X041635Y012462D01*
X041635Y011872D01*
X041084Y011320D01*
X040730Y011320D01*
X039470Y011320D02*
X039194Y011045D01*
X038525Y011045D01*
X038289Y011281D01*
X038289Y013013D01*
X038761Y013486D01*
X038761Y014628D01*
X038407Y013525D02*
X038131Y013525D01*
X037541Y014116D01*
X039470Y011478D02*
X039470Y011320D01*
X035415Y024824D02*
X034470Y024824D01*
X034194Y025100D01*
X034076Y025100D01*
X035139Y025100D02*
X035139Y025651D01*
X035257Y025769D01*
X035572Y025769D01*
X035848Y025257D02*
X035415Y024824D01*
X034864Y026773D02*
X034450Y026773D01*
X034313Y026911D01*
X034313Y027108D01*
X033840Y028525D02*
X036084Y028525D01*
X037305Y029746D01*
X038525Y027620D02*
X038525Y026439D01*
X037777Y025691D01*
X031891Y025218D02*
X031891Y026754D01*
X035218Y032856D02*
X033998Y034076D01*
X033998Y035139D01*
X033131Y036006D01*
X033131Y037187D01*
X033722Y037777D01*
X033722Y040257D01*
X036025Y040163D02*
X036025Y038899D01*
X036399Y038525D01*
X036399Y036675D01*
X037502Y035572D01*
X037974Y035572D02*
X036714Y036832D01*
X036714Y039391D01*
X036439Y039667D01*
X036439Y041832D01*
X036108Y042163D01*
X036025Y042163D01*
X038761Y042383D02*
X039352Y041793D01*
X039352Y041773D01*
X038761Y042383D02*
X038761Y043486D01*
X041006Y042502D02*
X041084Y042580D01*
X041950Y042580D01*
X042580Y041950D01*
X042580Y035730D01*
X041635Y034785D01*
X041635Y034194D01*
X041084Y033643D01*
X040730Y033643D01*
X039470Y033643D02*
X039470Y033801D01*
X039470Y033643D02*
X039194Y033368D01*
X038525Y033368D01*
X038289Y033604D01*
X038289Y035336D01*
X038761Y035809D01*
X038761Y036950D01*
X038407Y035848D02*
X038131Y035848D01*
X037541Y036439D01*
X036360Y032856D02*
X035218Y032856D01*
X028998Y035730D02*
X028053Y034785D01*
X028053Y034194D01*
X027502Y033643D01*
X027147Y033643D01*
X025887Y033643D02*
X025887Y033801D01*
X025887Y033643D02*
X025612Y033368D01*
X024943Y033368D01*
X024706Y033604D01*
X024706Y035336D01*
X025179Y035809D01*
X025179Y036950D01*
X024824Y035848D02*
X024549Y035848D01*
X023958Y036439D01*
X023919Y035572D02*
X022817Y036675D01*
X022817Y038525D01*
X022443Y038899D01*
X022443Y040163D01*
X022856Y039667D02*
X022856Y041832D01*
X022525Y042163D01*
X022443Y042163D01*
X022856Y039667D02*
X023131Y039391D01*
X023131Y036832D01*
X024391Y035572D01*
X022777Y032856D02*
X021635Y032856D01*
X020415Y034076D01*
X020415Y035139D01*
X019549Y036006D01*
X019549Y037187D01*
X020139Y037777D01*
X020139Y040257D01*
X025179Y042383D02*
X025769Y041793D01*
X025769Y041773D01*
X025179Y042383D02*
X025179Y043486D01*
X027423Y042502D02*
X027502Y042580D01*
X028368Y042580D01*
X028998Y041950D01*
X028998Y035730D01*
X010139Y007423D02*
X008919Y006202D01*
X006675Y006202D01*
X007147Y004785D02*
X007147Y004588D01*
X007285Y004450D01*
X007698Y004450D01*
X008092Y003446D02*
X008407Y003446D01*
X008092Y003446D02*
X007974Y003328D01*
X007974Y002777D01*
X008250Y002502D02*
X007305Y002502D01*
X007029Y002777D01*
X006911Y002777D01*
X008250Y002502D02*
X008683Y002935D01*
X010612Y003368D02*
X011360Y004116D01*
X011360Y005297D01*
X004726Y004431D02*
X004726Y002895D01*
M02*
