G75*
G70*
%OFA0B0*%
%FSLAX24Y24*%
%IPPOS*%
%LPD*%
%AMOC8*
5,1,8,0,0,1.08239X$1,22.5*
%
%ADD10C,0.0000*%
%ADD11C,0.0090*%
%ADD12C,0.0551*%
%ADD13C,0.0669*%
%ADD14C,0.0591*%
%ADD15C,0.0436*%
%ADD16C,0.0787*%
%ADD17C,0.0520*%
%ADD18C,0.2762*%
%ADD19C,0.1181*%
%ADD20C,0.0238*%
%ADD21C,0.0098*%
%ADD22C,0.0118*%
%ADD23C,0.0080*%
D10*
X000260Y000617D02*
X000260Y016444D01*
X004394Y016444D01*
X004394Y022940D01*
X013842Y022940D01*
X013842Y000617D01*
X000260Y000617D01*
X000456Y001207D02*
X000458Y001246D01*
X000464Y001285D01*
X000474Y001323D01*
X000487Y001360D01*
X000504Y001395D01*
X000524Y001429D01*
X000548Y001460D01*
X000575Y001489D01*
X000604Y001515D01*
X000636Y001538D01*
X000670Y001558D01*
X000706Y001574D01*
X000743Y001586D01*
X000782Y001595D01*
X000821Y001600D01*
X000860Y001601D01*
X000899Y001598D01*
X000938Y001591D01*
X000975Y001580D01*
X001012Y001566D01*
X001047Y001548D01*
X001080Y001527D01*
X001111Y001502D01*
X001139Y001475D01*
X001164Y001445D01*
X001186Y001412D01*
X001205Y001378D01*
X001220Y001342D01*
X001232Y001304D01*
X001240Y001266D01*
X001244Y001227D01*
X001244Y001187D01*
X001240Y001148D01*
X001232Y001110D01*
X001220Y001072D01*
X001205Y001036D01*
X001186Y001002D01*
X001164Y000969D01*
X001139Y000939D01*
X001111Y000912D01*
X001080Y000887D01*
X001047Y000866D01*
X001012Y000848D01*
X000975Y000834D01*
X000938Y000823D01*
X000899Y000816D01*
X000860Y000813D01*
X000821Y000814D01*
X000782Y000819D01*
X000743Y000828D01*
X000706Y000840D01*
X000670Y000856D01*
X000636Y000876D01*
X000604Y000899D01*
X000575Y000925D01*
X000548Y000954D01*
X000524Y000985D01*
X000504Y001019D01*
X000487Y001054D01*
X000474Y001091D01*
X000464Y001129D01*
X000458Y001168D01*
X000456Y001207D01*
X004590Y009160D02*
X004592Y009199D01*
X004598Y009238D01*
X004608Y009276D01*
X004621Y009313D01*
X004638Y009348D01*
X004658Y009382D01*
X004682Y009413D01*
X004709Y009442D01*
X004738Y009468D01*
X004770Y009491D01*
X004804Y009511D01*
X004840Y009527D01*
X004877Y009539D01*
X004916Y009548D01*
X004955Y009553D01*
X004994Y009554D01*
X005033Y009551D01*
X005072Y009544D01*
X005109Y009533D01*
X005146Y009519D01*
X005181Y009501D01*
X005214Y009480D01*
X005245Y009455D01*
X005273Y009428D01*
X005298Y009398D01*
X005320Y009365D01*
X005339Y009331D01*
X005354Y009295D01*
X005366Y009257D01*
X005374Y009219D01*
X005378Y009180D01*
X005378Y009140D01*
X005374Y009101D01*
X005366Y009063D01*
X005354Y009025D01*
X005339Y008989D01*
X005320Y008955D01*
X005298Y008922D01*
X005273Y008892D01*
X005245Y008865D01*
X005214Y008840D01*
X005181Y008819D01*
X005146Y008801D01*
X005109Y008787D01*
X005072Y008776D01*
X005033Y008769D01*
X004994Y008766D01*
X004955Y008767D01*
X004916Y008772D01*
X004877Y008781D01*
X004840Y008793D01*
X004804Y008809D01*
X004770Y008829D01*
X004738Y008852D01*
X004709Y008878D01*
X004682Y008907D01*
X004658Y008938D01*
X004638Y008972D01*
X004621Y009007D01*
X004608Y009044D01*
X004598Y009082D01*
X004592Y009121D01*
X004590Y009160D01*
X010102Y019396D02*
X010104Y019435D01*
X010110Y019474D01*
X010120Y019512D01*
X010133Y019549D01*
X010150Y019584D01*
X010170Y019618D01*
X010194Y019649D01*
X010221Y019678D01*
X010250Y019704D01*
X010282Y019727D01*
X010316Y019747D01*
X010352Y019763D01*
X010389Y019775D01*
X010428Y019784D01*
X010467Y019789D01*
X010506Y019790D01*
X010545Y019787D01*
X010584Y019780D01*
X010621Y019769D01*
X010658Y019755D01*
X010693Y019737D01*
X010726Y019716D01*
X010757Y019691D01*
X010785Y019664D01*
X010810Y019634D01*
X010832Y019601D01*
X010851Y019567D01*
X010866Y019531D01*
X010878Y019493D01*
X010886Y019455D01*
X010890Y019416D01*
X010890Y019376D01*
X010886Y019337D01*
X010878Y019299D01*
X010866Y019261D01*
X010851Y019225D01*
X010832Y019191D01*
X010810Y019158D01*
X010785Y019128D01*
X010757Y019101D01*
X010726Y019076D01*
X010693Y019055D01*
X010658Y019037D01*
X010621Y019023D01*
X010584Y019012D01*
X010545Y019005D01*
X010506Y019002D01*
X010467Y019003D01*
X010428Y019008D01*
X010389Y019017D01*
X010352Y019029D01*
X010316Y019045D01*
X010282Y019065D01*
X010250Y019088D01*
X010221Y019114D01*
X010194Y019143D01*
X010170Y019174D01*
X010150Y019208D01*
X010133Y019243D01*
X010120Y019280D01*
X010110Y019318D01*
X010104Y019357D01*
X010102Y019396D01*
X004590Y022270D02*
X004592Y022309D01*
X004598Y022348D01*
X004608Y022386D01*
X004621Y022423D01*
X004638Y022458D01*
X004658Y022492D01*
X004682Y022523D01*
X004709Y022552D01*
X004738Y022578D01*
X004770Y022601D01*
X004804Y022621D01*
X004840Y022637D01*
X004877Y022649D01*
X004916Y022658D01*
X004955Y022663D01*
X004994Y022664D01*
X005033Y022661D01*
X005072Y022654D01*
X005109Y022643D01*
X005146Y022629D01*
X005181Y022611D01*
X005214Y022590D01*
X005245Y022565D01*
X005273Y022538D01*
X005298Y022508D01*
X005320Y022475D01*
X005339Y022441D01*
X005354Y022405D01*
X005366Y022367D01*
X005374Y022329D01*
X005378Y022290D01*
X005378Y022250D01*
X005374Y022211D01*
X005366Y022173D01*
X005354Y022135D01*
X005339Y022099D01*
X005320Y022065D01*
X005298Y022032D01*
X005273Y022002D01*
X005245Y021975D01*
X005214Y021950D01*
X005181Y021929D01*
X005146Y021911D01*
X005109Y021897D01*
X005072Y021886D01*
X005033Y021879D01*
X004994Y021876D01*
X004955Y021877D01*
X004916Y021882D01*
X004877Y021891D01*
X004840Y021903D01*
X004804Y021919D01*
X004770Y021939D01*
X004738Y021962D01*
X004709Y021988D01*
X004682Y022017D01*
X004658Y022048D01*
X004638Y022082D01*
X004621Y022117D01*
X004608Y022154D01*
X004598Y022192D01*
X004592Y022231D01*
X004590Y022270D01*
X012858Y001207D02*
X012860Y001246D01*
X012866Y001285D01*
X012876Y001323D01*
X012889Y001360D01*
X012906Y001395D01*
X012926Y001429D01*
X012950Y001460D01*
X012977Y001489D01*
X013006Y001515D01*
X013038Y001538D01*
X013072Y001558D01*
X013108Y001574D01*
X013145Y001586D01*
X013184Y001595D01*
X013223Y001600D01*
X013262Y001601D01*
X013301Y001598D01*
X013340Y001591D01*
X013377Y001580D01*
X013414Y001566D01*
X013449Y001548D01*
X013482Y001527D01*
X013513Y001502D01*
X013541Y001475D01*
X013566Y001445D01*
X013588Y001412D01*
X013607Y001378D01*
X013622Y001342D01*
X013634Y001304D01*
X013642Y001266D01*
X013646Y001227D01*
X013646Y001187D01*
X013642Y001148D01*
X013634Y001110D01*
X013622Y001072D01*
X013607Y001036D01*
X013588Y001002D01*
X013566Y000969D01*
X013541Y000939D01*
X013513Y000912D01*
X013482Y000887D01*
X013449Y000866D01*
X013414Y000848D01*
X013377Y000834D01*
X013340Y000823D01*
X013301Y000816D01*
X013262Y000813D01*
X013223Y000814D01*
X013184Y000819D01*
X013145Y000828D01*
X013108Y000840D01*
X013072Y000856D01*
X013038Y000876D01*
X013006Y000899D01*
X012977Y000925D01*
X012950Y000954D01*
X012926Y000985D01*
X012906Y001019D01*
X012889Y001054D01*
X012876Y001091D01*
X012866Y001129D01*
X012860Y001168D01*
X012858Y001207D01*
D11*
X008286Y001262D02*
X008234Y001262D01*
X008234Y001056D01*
X008286Y001056D02*
X008182Y001056D01*
X008040Y001056D02*
X008040Y001366D01*
X007885Y001366D01*
X007833Y001314D01*
X007833Y001107D01*
X007885Y001056D01*
X008040Y001056D01*
X008234Y001366D02*
X008234Y001418D01*
X010956Y022394D02*
X010904Y022446D01*
X010904Y022653D01*
X010956Y022704D01*
X011111Y022704D01*
X011111Y022394D01*
X010956Y022394D01*
X011253Y022394D02*
X011356Y022394D01*
X011305Y022394D02*
X011305Y022601D01*
X011356Y022601D01*
X011305Y022704D02*
X011305Y022756D01*
D12*
X003252Y015971D03*
X001283Y015971D03*
D13*
X001086Y012546D03*
X001086Y011483D03*
X001086Y010341D03*
X001086Y009003D03*
X001086Y007664D03*
X001086Y006326D03*
X001086Y004987D03*
X013212Y006806D03*
X013212Y007806D03*
X013212Y008806D03*
X013212Y009806D03*
X013212Y010806D03*
D14*
X012097Y005092D03*
X010705Y003700D03*
D15*
X007051Y016389D03*
X007051Y017389D03*
X007051Y018389D03*
D16*
X007138Y022192D03*
X006138Y022192D03*
X001086Y003479D03*
X001086Y002479D03*
D17*
X005097Y005263D03*
X006997Y005263D03*
D18*
X006913Y010932D03*
D19*
X004984Y012704D03*
D20*
X005850Y013176D03*
X006008Y014160D03*
X006323Y014534D03*
X006559Y014200D03*
X006913Y014200D03*
X006736Y014849D03*
X006677Y015223D03*
X006677Y015578D03*
X006008Y015578D03*
X005181Y015499D03*
X005181Y015184D03*
X004748Y016483D03*
X005220Y016759D03*
X005575Y017389D03*
X005929Y018097D03*
X006401Y018176D03*
X006401Y017270D03*
X006401Y016956D03*
X006401Y016641D03*
X006677Y016798D03*
X006677Y017113D03*
X007622Y018452D03*
X008331Y017861D03*
X008331Y017428D03*
X008567Y015735D03*
X007464Y015302D03*
X007189Y012743D03*
X008567Y012664D03*
X008527Y011798D03*
X009000Y011798D03*
X009433Y012074D03*
X009787Y013176D03*
X010437Y013648D03*
X010772Y013767D03*
X011106Y013648D03*
X011716Y013412D03*
X011027Y012605D03*
X010732Y011168D03*
X010496Y010026D03*
X009709Y010026D03*
X010299Y007625D03*
X010299Y006995D03*
X010378Y004396D03*
X009551Y003845D03*
X009197Y003963D03*
X009177Y003589D03*
X008803Y003924D03*
X008311Y004180D03*
X008488Y004751D03*
X008016Y004830D03*
X007543Y004830D03*
X006835Y003885D03*
X006520Y003648D03*
X006362Y004475D03*
X005772Y004436D03*
X005338Y004436D03*
X004866Y004751D03*
X004335Y004613D03*
X004335Y005361D03*
X004335Y005952D03*
X004335Y006700D03*
X004374Y008038D03*
X004374Y009377D03*
X004374Y010715D03*
X004039Y014160D03*
X003724Y014160D03*
X003409Y014160D03*
X003094Y014160D03*
X002740Y014751D03*
X002425Y014751D03*
X002110Y014751D03*
X001835Y011089D03*
X001835Y009790D03*
X001835Y008452D03*
X002425Y006995D03*
X003252Y007231D03*
X003252Y005893D03*
X002425Y005656D03*
X001933Y004357D03*
X002917Y002979D03*
X002917Y001444D03*
X001933Y001601D03*
X004905Y002526D03*
X005260Y002467D03*
X005890Y002999D03*
X005338Y003333D03*
X004905Y003432D03*
X005732Y001404D03*
X006165Y001326D03*
X006520Y001680D03*
X006598Y001995D03*
X006874Y001483D03*
X006992Y001129D03*
X007425Y002507D03*
X007425Y002900D03*
X007819Y002900D03*
X007819Y002507D03*
X008212Y002507D03*
X008212Y002900D03*
X008212Y003294D03*
X007819Y003294D03*
X007425Y003294D03*
X008803Y001916D03*
X010181Y002704D03*
X010811Y001759D03*
X011126Y001089D03*
X012110Y001286D03*
X012976Y001877D03*
X012110Y002802D03*
X012701Y005971D03*
X012346Y007743D03*
X012464Y009869D03*
X011756Y009869D03*
X012110Y011877D03*
X013094Y012861D03*
X013094Y015578D03*
X013291Y017861D03*
X012031Y018727D03*
X011520Y018078D03*
X011520Y017743D03*
X011520Y017408D03*
X010299Y017487D03*
X010378Y017999D03*
X009394Y018845D03*
X009787Y019711D03*
X010968Y021404D03*
X011362Y021404D03*
X012110Y019869D03*
X012661Y019987D03*
X013212Y019948D03*
X013331Y021483D03*
X012937Y021483D03*
X008961Y021877D03*
X008488Y021877D03*
X008016Y021877D03*
X008370Y019475D03*
X005811Y019869D03*
X005220Y019436D03*
X010693Y015066D03*
X007386Y009081D03*
X007445Y008530D03*
X007937Y007940D03*
X008331Y005971D03*
X006677Y005912D03*
X005417Y005912D03*
X005102Y001326D03*
D21*
X001775Y000794D02*
X001559Y001011D01*
X001559Y001562D01*
X001283Y001837D01*
X000850Y001837D01*
X000555Y002133D01*
X000555Y015243D01*
X001283Y015971D01*
X001775Y000794D02*
X012130Y000794D01*
X012464Y001129D01*
X012464Y001680D01*
X012661Y001877D01*
X012976Y001877D01*
D22*
X011716Y013412D02*
X011559Y013412D01*
X011441Y013530D01*
X011441Y015341D01*
X008921Y017861D01*
X008331Y017861D01*
D23*
X007464Y018058D02*
X007134Y018389D01*
X007051Y018389D01*
X007464Y018058D02*
X007464Y015893D01*
X007740Y015617D01*
X007740Y013058D01*
X009000Y011798D01*
X009157Y012074D02*
X009433Y012074D01*
X009157Y012074D02*
X008567Y012664D01*
X008527Y011798D02*
X007425Y012900D01*
X007425Y014751D01*
X007051Y015125D01*
X007051Y016389D01*
X004748Y016483D02*
X004748Y014003D01*
X004157Y013412D01*
X004157Y012231D01*
X005024Y011365D01*
X005024Y010302D01*
X006244Y009081D01*
X007386Y009081D01*
X009315Y009830D02*
X009551Y009593D01*
X010220Y009593D01*
X010496Y009869D01*
X010496Y010026D01*
X009315Y009830D02*
X009315Y011562D01*
X009787Y012034D01*
X009787Y013176D01*
X011756Y009869D02*
X012110Y009869D01*
X012661Y010420D01*
X012661Y011011D01*
X013606Y011956D01*
X013606Y018176D01*
X012976Y018806D01*
X012110Y018806D01*
X012031Y018727D01*
X010378Y018019D02*
X009787Y018609D01*
X009787Y019711D01*
X010378Y018019D02*
X010378Y017999D01*
X008331Y005971D02*
X007110Y004751D01*
X004866Y004751D01*
X005338Y003333D02*
X005338Y003137D01*
X005476Y002999D01*
X005890Y002999D01*
X006283Y001995D02*
X006165Y001877D01*
X006165Y001326D01*
X006441Y001050D02*
X006874Y001483D01*
X006598Y001995D02*
X006283Y001995D01*
X006441Y001050D02*
X005496Y001050D01*
X005220Y001326D01*
X005102Y001326D01*
X002917Y001444D02*
X002917Y002979D01*
X008803Y001916D02*
X009551Y002664D01*
X009551Y003845D01*
M02*
