G75*
G70*
%OFA0B0*%
%FSLAX24Y24*%
%IPPOS*%
%LPD*%
%AMOC8*
5,1,8,0,0,1.08239X$1,22.5*
%
%ADD10C,0.0000*%
%ADD11C,0.0906*%
%ADD12C,0.0090*%
%ADD13C,0.1024*%
%ADD14C,0.0080*%
%ADD15C,0.0591*%
%ADD16C,0.0709*%
%ADD17C,0.0631*%
%ADD18C,0.0476*%
%ADD19C,0.0827*%
%ADD20C,0.0560*%
%ADD21C,0.0500*%
%ADD22C,0.2881*%
D10*
X000100Y000100D02*
X002069Y000100D01*
X002069Y002069D01*
X042817Y002069D01*
X042817Y046714D01*
X002069Y046714D01*
X002069Y002069D01*
X000100Y002069D01*
X000100Y024391D01*
X044785Y024391D01*
X044785Y002069D01*
X042817Y002069D01*
X042817Y000100D01*
X029234Y000100D01*
X029234Y048683D01*
X042817Y048683D01*
X042817Y046714D01*
X044785Y046714D01*
X044785Y024391D01*
X042817Y024391D02*
X029234Y024391D01*
X029234Y040218D01*
X033368Y040218D01*
X033368Y046714D01*
X042817Y046714D01*
X042817Y024391D01*
X042817Y002069D01*
X029234Y002069D01*
X029234Y017895D01*
X033368Y017895D01*
X033368Y024391D01*
X042817Y024391D01*
X041439Y023506D02*
X041441Y023550D01*
X041447Y023594D01*
X041457Y023637D01*
X041470Y023679D01*
X041488Y023719D01*
X041509Y023758D01*
X041533Y023795D01*
X041560Y023830D01*
X041591Y023862D01*
X041624Y023891D01*
X041660Y023917D01*
X041698Y023939D01*
X041738Y023958D01*
X041779Y023974D01*
X041822Y023986D01*
X041865Y023994D01*
X041909Y023998D01*
X041953Y023998D01*
X041997Y023994D01*
X042040Y023986D01*
X042083Y023974D01*
X042124Y023958D01*
X042164Y023939D01*
X042202Y023917D01*
X042238Y023891D01*
X042271Y023862D01*
X042302Y023830D01*
X042329Y023795D01*
X042353Y023758D01*
X042374Y023719D01*
X042392Y023679D01*
X042405Y023637D01*
X042415Y023594D01*
X042421Y023550D01*
X042423Y023506D01*
X042421Y023462D01*
X042415Y023418D01*
X042405Y023375D01*
X042392Y023333D01*
X042374Y023293D01*
X042353Y023254D01*
X042329Y023217D01*
X042302Y023182D01*
X042271Y023150D01*
X042238Y023121D01*
X042202Y023095D01*
X042164Y023073D01*
X042124Y023054D01*
X042083Y023038D01*
X042040Y023026D01*
X041997Y023018D01*
X041953Y023014D01*
X041909Y023014D01*
X041865Y023018D01*
X041822Y023026D01*
X041779Y023038D01*
X041738Y023054D01*
X041698Y023073D01*
X041660Y023095D01*
X041624Y023121D01*
X041591Y023150D01*
X041560Y023182D01*
X041533Y023217D01*
X041509Y023254D01*
X041488Y023293D01*
X041470Y023333D01*
X041457Y023375D01*
X041447Y023418D01*
X041441Y023462D01*
X041439Y023506D01*
X041439Y025277D02*
X041441Y025321D01*
X041447Y025365D01*
X041457Y025408D01*
X041470Y025450D01*
X041488Y025490D01*
X041509Y025529D01*
X041533Y025566D01*
X041560Y025601D01*
X041591Y025633D01*
X041624Y025662D01*
X041660Y025688D01*
X041698Y025710D01*
X041738Y025729D01*
X041779Y025745D01*
X041822Y025757D01*
X041865Y025765D01*
X041909Y025769D01*
X041953Y025769D01*
X041997Y025765D01*
X042040Y025757D01*
X042083Y025745D01*
X042124Y025729D01*
X042164Y025710D01*
X042202Y025688D01*
X042238Y025662D01*
X042271Y025633D01*
X042302Y025601D01*
X042329Y025566D01*
X042353Y025529D01*
X042374Y025490D01*
X042392Y025450D01*
X042405Y025408D01*
X042415Y025365D01*
X042421Y025321D01*
X042423Y025277D01*
X042421Y025233D01*
X042415Y025189D01*
X042405Y025146D01*
X042392Y025104D01*
X042374Y025064D01*
X042353Y025025D01*
X042329Y024988D01*
X042302Y024953D01*
X042271Y024921D01*
X042238Y024892D01*
X042202Y024866D01*
X042164Y024844D01*
X042124Y024825D01*
X042083Y024809D01*
X042040Y024797D01*
X041997Y024789D01*
X041953Y024785D01*
X041909Y024785D01*
X041865Y024789D01*
X041822Y024797D01*
X041779Y024809D01*
X041738Y024825D01*
X041698Y024844D01*
X041660Y024866D01*
X041624Y024892D01*
X041591Y024921D01*
X041560Y024953D01*
X041533Y024988D01*
X041509Y025025D01*
X041488Y025064D01*
X041470Y025104D01*
X041457Y025146D01*
X041447Y025189D01*
X041441Y025233D01*
X041439Y025277D01*
X033762Y023506D02*
X033764Y023550D01*
X033770Y023594D01*
X033780Y023637D01*
X033793Y023679D01*
X033811Y023719D01*
X033832Y023758D01*
X033856Y023795D01*
X033883Y023830D01*
X033914Y023862D01*
X033947Y023891D01*
X033983Y023917D01*
X034021Y023939D01*
X034061Y023958D01*
X034102Y023974D01*
X034145Y023986D01*
X034188Y023994D01*
X034232Y023998D01*
X034276Y023998D01*
X034320Y023994D01*
X034363Y023986D01*
X034406Y023974D01*
X034447Y023958D01*
X034487Y023939D01*
X034525Y023917D01*
X034561Y023891D01*
X034594Y023862D01*
X034625Y023830D01*
X034652Y023795D01*
X034676Y023758D01*
X034697Y023719D01*
X034715Y023679D01*
X034728Y023637D01*
X034738Y023594D01*
X034744Y023550D01*
X034746Y023506D01*
X034744Y023462D01*
X034738Y023418D01*
X034728Y023375D01*
X034715Y023333D01*
X034697Y023293D01*
X034676Y023254D01*
X034652Y023217D01*
X034625Y023182D01*
X034594Y023150D01*
X034561Y023121D01*
X034525Y023095D01*
X034487Y023073D01*
X034447Y023054D01*
X034406Y023038D01*
X034363Y023026D01*
X034320Y023018D01*
X034276Y023014D01*
X034232Y023014D01*
X034188Y023018D01*
X034145Y023026D01*
X034102Y023038D01*
X034061Y023054D01*
X034021Y023073D01*
X033983Y023095D01*
X033947Y023121D01*
X033914Y023150D01*
X033883Y023182D01*
X033856Y023217D01*
X033832Y023254D01*
X033811Y023293D01*
X033793Y023333D01*
X033780Y023375D01*
X033770Y023418D01*
X033764Y023462D01*
X033762Y023506D01*
X029628Y025277D02*
X029630Y025321D01*
X029636Y025365D01*
X029646Y025408D01*
X029659Y025450D01*
X029677Y025490D01*
X029698Y025529D01*
X029722Y025566D01*
X029749Y025601D01*
X029780Y025633D01*
X029813Y025662D01*
X029849Y025688D01*
X029887Y025710D01*
X029927Y025729D01*
X029968Y025745D01*
X030011Y025757D01*
X030054Y025765D01*
X030098Y025769D01*
X030142Y025769D01*
X030186Y025765D01*
X030229Y025757D01*
X030272Y025745D01*
X030313Y025729D01*
X030353Y025710D01*
X030391Y025688D01*
X030427Y025662D01*
X030460Y025633D01*
X030491Y025601D01*
X030518Y025566D01*
X030542Y025529D01*
X030563Y025490D01*
X030581Y025450D01*
X030594Y025408D01*
X030604Y025365D01*
X030610Y025321D01*
X030612Y025277D01*
X030610Y025233D01*
X030604Y025189D01*
X030594Y025146D01*
X030581Y025104D01*
X030563Y025064D01*
X030542Y025025D01*
X030518Y024988D01*
X030491Y024953D01*
X030460Y024921D01*
X030427Y024892D01*
X030391Y024866D01*
X030353Y024844D01*
X030313Y024825D01*
X030272Y024809D01*
X030229Y024797D01*
X030186Y024789D01*
X030142Y024785D01*
X030098Y024785D01*
X030054Y024789D01*
X030011Y024797D01*
X029968Y024809D01*
X029927Y024825D01*
X029887Y024844D01*
X029849Y024866D01*
X029813Y024892D01*
X029780Y024921D01*
X029749Y024953D01*
X029722Y024988D01*
X029698Y025025D01*
X029677Y025064D01*
X029659Y025104D01*
X029646Y025146D01*
X029636Y025189D01*
X029630Y025233D01*
X029628Y025277D01*
X029234Y024391D02*
X015651Y024391D01*
X015651Y040218D01*
X019785Y040218D01*
X019785Y046714D01*
X029234Y046714D01*
X029234Y024391D01*
X029234Y002069D01*
X015651Y002069D01*
X015651Y017895D01*
X019785Y017895D01*
X019785Y024391D01*
X029234Y024391D01*
X027856Y023506D02*
X027858Y023550D01*
X027864Y023594D01*
X027874Y023637D01*
X027887Y023679D01*
X027905Y023719D01*
X027926Y023758D01*
X027950Y023795D01*
X027977Y023830D01*
X028008Y023862D01*
X028041Y023891D01*
X028077Y023917D01*
X028115Y023939D01*
X028155Y023958D01*
X028196Y023974D01*
X028239Y023986D01*
X028282Y023994D01*
X028326Y023998D01*
X028370Y023998D01*
X028414Y023994D01*
X028457Y023986D01*
X028500Y023974D01*
X028541Y023958D01*
X028581Y023939D01*
X028619Y023917D01*
X028655Y023891D01*
X028688Y023862D01*
X028719Y023830D01*
X028746Y023795D01*
X028770Y023758D01*
X028791Y023719D01*
X028809Y023679D01*
X028822Y023637D01*
X028832Y023594D01*
X028838Y023550D01*
X028840Y023506D01*
X028838Y023462D01*
X028832Y023418D01*
X028822Y023375D01*
X028809Y023333D01*
X028791Y023293D01*
X028770Y023254D01*
X028746Y023217D01*
X028719Y023182D01*
X028688Y023150D01*
X028655Y023121D01*
X028619Y023095D01*
X028581Y023073D01*
X028541Y023054D01*
X028500Y023038D01*
X028457Y023026D01*
X028414Y023018D01*
X028370Y023014D01*
X028326Y023014D01*
X028282Y023018D01*
X028239Y023026D01*
X028196Y023038D01*
X028155Y023054D01*
X028115Y023073D01*
X028077Y023095D01*
X028041Y023121D01*
X028008Y023150D01*
X027977Y023182D01*
X027950Y023217D01*
X027926Y023254D01*
X027905Y023293D01*
X027887Y023333D01*
X027874Y023375D01*
X027864Y023418D01*
X027858Y023462D01*
X027856Y023506D01*
X027856Y025277D02*
X027858Y025321D01*
X027864Y025365D01*
X027874Y025408D01*
X027887Y025450D01*
X027905Y025490D01*
X027926Y025529D01*
X027950Y025566D01*
X027977Y025601D01*
X028008Y025633D01*
X028041Y025662D01*
X028077Y025688D01*
X028115Y025710D01*
X028155Y025729D01*
X028196Y025745D01*
X028239Y025757D01*
X028282Y025765D01*
X028326Y025769D01*
X028370Y025769D01*
X028414Y025765D01*
X028457Y025757D01*
X028500Y025745D01*
X028541Y025729D01*
X028581Y025710D01*
X028619Y025688D01*
X028655Y025662D01*
X028688Y025633D01*
X028719Y025601D01*
X028746Y025566D01*
X028770Y025529D01*
X028791Y025490D01*
X028809Y025450D01*
X028822Y025408D01*
X028832Y025365D01*
X028838Y025321D01*
X028840Y025277D01*
X028838Y025233D01*
X028832Y025189D01*
X028822Y025146D01*
X028809Y025104D01*
X028791Y025064D01*
X028770Y025025D01*
X028746Y024988D01*
X028719Y024953D01*
X028688Y024921D01*
X028655Y024892D01*
X028619Y024866D01*
X028581Y024844D01*
X028541Y024825D01*
X028500Y024809D01*
X028457Y024797D01*
X028414Y024789D01*
X028370Y024785D01*
X028326Y024785D01*
X028282Y024789D01*
X028239Y024797D01*
X028196Y024809D01*
X028155Y024825D01*
X028115Y024844D01*
X028077Y024866D01*
X028041Y024892D01*
X028008Y024921D01*
X027977Y024953D01*
X027950Y024988D01*
X027926Y025025D01*
X027905Y025064D01*
X027887Y025104D01*
X027874Y025146D01*
X027864Y025189D01*
X027858Y025233D01*
X027856Y025277D01*
X020179Y023506D02*
X020181Y023550D01*
X020187Y023594D01*
X020197Y023637D01*
X020210Y023679D01*
X020228Y023719D01*
X020249Y023758D01*
X020273Y023795D01*
X020300Y023830D01*
X020331Y023862D01*
X020364Y023891D01*
X020400Y023917D01*
X020438Y023939D01*
X020478Y023958D01*
X020519Y023974D01*
X020562Y023986D01*
X020605Y023994D01*
X020649Y023998D01*
X020693Y023998D01*
X020737Y023994D01*
X020780Y023986D01*
X020823Y023974D01*
X020864Y023958D01*
X020904Y023939D01*
X020942Y023917D01*
X020978Y023891D01*
X021011Y023862D01*
X021042Y023830D01*
X021069Y023795D01*
X021093Y023758D01*
X021114Y023719D01*
X021132Y023679D01*
X021145Y023637D01*
X021155Y023594D01*
X021161Y023550D01*
X021163Y023506D01*
X021161Y023462D01*
X021155Y023418D01*
X021145Y023375D01*
X021132Y023333D01*
X021114Y023293D01*
X021093Y023254D01*
X021069Y023217D01*
X021042Y023182D01*
X021011Y023150D01*
X020978Y023121D01*
X020942Y023095D01*
X020904Y023073D01*
X020864Y023054D01*
X020823Y023038D01*
X020780Y023026D01*
X020737Y023018D01*
X020693Y023014D01*
X020649Y023014D01*
X020605Y023018D01*
X020562Y023026D01*
X020519Y023038D01*
X020478Y023054D01*
X020438Y023073D01*
X020400Y023095D01*
X020364Y023121D01*
X020331Y023150D01*
X020300Y023182D01*
X020273Y023217D01*
X020249Y023254D01*
X020228Y023293D01*
X020210Y023333D01*
X020197Y023375D01*
X020187Y023418D01*
X020181Y023462D01*
X020179Y023506D01*
X016045Y025277D02*
X016047Y025321D01*
X016053Y025365D01*
X016063Y025408D01*
X016076Y025450D01*
X016094Y025490D01*
X016115Y025529D01*
X016139Y025566D01*
X016166Y025601D01*
X016197Y025633D01*
X016230Y025662D01*
X016266Y025688D01*
X016304Y025710D01*
X016344Y025729D01*
X016385Y025745D01*
X016428Y025757D01*
X016471Y025765D01*
X016515Y025769D01*
X016559Y025769D01*
X016603Y025765D01*
X016646Y025757D01*
X016689Y025745D01*
X016730Y025729D01*
X016770Y025710D01*
X016808Y025688D01*
X016844Y025662D01*
X016877Y025633D01*
X016908Y025601D01*
X016935Y025566D01*
X016959Y025529D01*
X016980Y025490D01*
X016998Y025450D01*
X017011Y025408D01*
X017021Y025365D01*
X017027Y025321D01*
X017029Y025277D01*
X017027Y025233D01*
X017021Y025189D01*
X017011Y025146D01*
X016998Y025104D01*
X016980Y025064D01*
X016959Y025025D01*
X016935Y024988D01*
X016908Y024953D01*
X016877Y024921D01*
X016844Y024892D01*
X016808Y024866D01*
X016770Y024844D01*
X016730Y024825D01*
X016689Y024809D01*
X016646Y024797D01*
X016603Y024789D01*
X016559Y024785D01*
X016515Y024785D01*
X016471Y024789D01*
X016428Y024797D01*
X016385Y024809D01*
X016344Y024825D01*
X016304Y024844D01*
X016266Y024866D01*
X016230Y024892D01*
X016197Y024921D01*
X016166Y024953D01*
X016139Y024988D01*
X016115Y025025D01*
X016094Y025064D01*
X016076Y025104D01*
X016063Y025146D01*
X016053Y025189D01*
X016047Y025233D01*
X016045Y025277D01*
X015651Y024391D02*
X002069Y024391D01*
X002069Y040218D01*
X006202Y040218D01*
X006202Y046714D01*
X015651Y046714D01*
X015651Y024391D01*
X015651Y002069D01*
X002069Y002069D01*
X002069Y017895D01*
X006202Y017895D01*
X006202Y024391D01*
X015651Y024391D01*
X014273Y023506D02*
X014275Y023550D01*
X014281Y023594D01*
X014291Y023637D01*
X014304Y023679D01*
X014322Y023719D01*
X014343Y023758D01*
X014367Y023795D01*
X014394Y023830D01*
X014425Y023862D01*
X014458Y023891D01*
X014494Y023917D01*
X014532Y023939D01*
X014572Y023958D01*
X014613Y023974D01*
X014656Y023986D01*
X014699Y023994D01*
X014743Y023998D01*
X014787Y023998D01*
X014831Y023994D01*
X014874Y023986D01*
X014917Y023974D01*
X014958Y023958D01*
X014998Y023939D01*
X015036Y023917D01*
X015072Y023891D01*
X015105Y023862D01*
X015136Y023830D01*
X015163Y023795D01*
X015187Y023758D01*
X015208Y023719D01*
X015226Y023679D01*
X015239Y023637D01*
X015249Y023594D01*
X015255Y023550D01*
X015257Y023506D01*
X015255Y023462D01*
X015249Y023418D01*
X015239Y023375D01*
X015226Y023333D01*
X015208Y023293D01*
X015187Y023254D01*
X015163Y023217D01*
X015136Y023182D01*
X015105Y023150D01*
X015072Y023121D01*
X015036Y023095D01*
X014998Y023073D01*
X014958Y023054D01*
X014917Y023038D01*
X014874Y023026D01*
X014831Y023018D01*
X014787Y023014D01*
X014743Y023014D01*
X014699Y023018D01*
X014656Y023026D01*
X014613Y023038D01*
X014572Y023054D01*
X014532Y023073D01*
X014494Y023095D01*
X014458Y023121D01*
X014425Y023150D01*
X014394Y023182D01*
X014367Y023217D01*
X014343Y023254D01*
X014322Y023293D01*
X014304Y023333D01*
X014291Y023375D01*
X014281Y023418D01*
X014275Y023462D01*
X014273Y023506D01*
X014273Y025277D02*
X014275Y025321D01*
X014281Y025365D01*
X014291Y025408D01*
X014304Y025450D01*
X014322Y025490D01*
X014343Y025529D01*
X014367Y025566D01*
X014394Y025601D01*
X014425Y025633D01*
X014458Y025662D01*
X014494Y025688D01*
X014532Y025710D01*
X014572Y025729D01*
X014613Y025745D01*
X014656Y025757D01*
X014699Y025765D01*
X014743Y025769D01*
X014787Y025769D01*
X014831Y025765D01*
X014874Y025757D01*
X014917Y025745D01*
X014958Y025729D01*
X014998Y025710D01*
X015036Y025688D01*
X015072Y025662D01*
X015105Y025633D01*
X015136Y025601D01*
X015163Y025566D01*
X015187Y025529D01*
X015208Y025490D01*
X015226Y025450D01*
X015239Y025408D01*
X015249Y025365D01*
X015255Y025321D01*
X015257Y025277D01*
X015255Y025233D01*
X015249Y025189D01*
X015239Y025146D01*
X015226Y025104D01*
X015208Y025064D01*
X015187Y025025D01*
X015163Y024988D01*
X015136Y024953D01*
X015105Y024921D01*
X015072Y024892D01*
X015036Y024866D01*
X014998Y024844D01*
X014958Y024825D01*
X014917Y024809D01*
X014874Y024797D01*
X014831Y024789D01*
X014787Y024785D01*
X014743Y024785D01*
X014699Y024789D01*
X014656Y024797D01*
X014613Y024809D01*
X014572Y024825D01*
X014532Y024844D01*
X014494Y024866D01*
X014458Y024892D01*
X014425Y024921D01*
X014394Y024953D01*
X014367Y024988D01*
X014343Y025025D01*
X014322Y025064D01*
X014304Y025104D01*
X014291Y025146D01*
X014281Y025189D01*
X014275Y025233D01*
X014273Y025277D01*
X006596Y023506D02*
X006598Y023550D01*
X006604Y023594D01*
X006614Y023637D01*
X006627Y023679D01*
X006645Y023719D01*
X006666Y023758D01*
X006690Y023795D01*
X006717Y023830D01*
X006748Y023862D01*
X006781Y023891D01*
X006817Y023917D01*
X006855Y023939D01*
X006895Y023958D01*
X006936Y023974D01*
X006979Y023986D01*
X007022Y023994D01*
X007066Y023998D01*
X007110Y023998D01*
X007154Y023994D01*
X007197Y023986D01*
X007240Y023974D01*
X007281Y023958D01*
X007321Y023939D01*
X007359Y023917D01*
X007395Y023891D01*
X007428Y023862D01*
X007459Y023830D01*
X007486Y023795D01*
X007510Y023758D01*
X007531Y023719D01*
X007549Y023679D01*
X007562Y023637D01*
X007572Y023594D01*
X007578Y023550D01*
X007580Y023506D01*
X007578Y023462D01*
X007572Y023418D01*
X007562Y023375D01*
X007549Y023333D01*
X007531Y023293D01*
X007510Y023254D01*
X007486Y023217D01*
X007459Y023182D01*
X007428Y023150D01*
X007395Y023121D01*
X007359Y023095D01*
X007321Y023073D01*
X007281Y023054D01*
X007240Y023038D01*
X007197Y023026D01*
X007154Y023018D01*
X007110Y023014D01*
X007066Y023014D01*
X007022Y023018D01*
X006979Y023026D01*
X006936Y023038D01*
X006895Y023054D01*
X006855Y023073D01*
X006817Y023095D01*
X006781Y023121D01*
X006748Y023150D01*
X006717Y023182D01*
X006690Y023217D01*
X006666Y023254D01*
X006645Y023293D01*
X006627Y023333D01*
X006614Y023375D01*
X006604Y023418D01*
X006598Y023462D01*
X006596Y023506D01*
X002462Y025277D02*
X002464Y025321D01*
X002470Y025365D01*
X002480Y025408D01*
X002493Y025450D01*
X002511Y025490D01*
X002532Y025529D01*
X002556Y025566D01*
X002583Y025601D01*
X002614Y025633D01*
X002647Y025662D01*
X002683Y025688D01*
X002721Y025710D01*
X002761Y025729D01*
X002802Y025745D01*
X002845Y025757D01*
X002888Y025765D01*
X002932Y025769D01*
X002976Y025769D01*
X003020Y025765D01*
X003063Y025757D01*
X003106Y025745D01*
X003147Y025729D01*
X003187Y025710D01*
X003225Y025688D01*
X003261Y025662D01*
X003294Y025633D01*
X003325Y025601D01*
X003352Y025566D01*
X003376Y025529D01*
X003397Y025490D01*
X003415Y025450D01*
X003428Y025408D01*
X003438Y025365D01*
X003444Y025321D01*
X003446Y025277D01*
X003444Y025233D01*
X003438Y025189D01*
X003428Y025146D01*
X003415Y025104D01*
X003397Y025064D01*
X003376Y025025D01*
X003352Y024988D01*
X003325Y024953D01*
X003294Y024921D01*
X003261Y024892D01*
X003225Y024866D01*
X003187Y024844D01*
X003147Y024825D01*
X003106Y024809D01*
X003063Y024797D01*
X003020Y024789D01*
X002976Y024785D01*
X002932Y024785D01*
X002888Y024789D01*
X002845Y024797D01*
X002802Y024809D01*
X002761Y024825D01*
X002721Y024844D01*
X002683Y024866D01*
X002647Y024892D01*
X002614Y024921D01*
X002583Y024953D01*
X002556Y024988D01*
X002532Y025025D01*
X002511Y025064D01*
X002493Y025104D01*
X002480Y025146D01*
X002470Y025189D01*
X002464Y025233D01*
X002462Y025277D01*
X000100Y024391D02*
X000100Y046714D01*
X002069Y046714D01*
X002069Y048683D01*
X015651Y048683D01*
X015651Y000100D01*
X002069Y000100D01*
X000100Y000100D02*
X000100Y002069D01*
X002462Y002954D02*
X002464Y002998D01*
X002470Y003042D01*
X002480Y003085D01*
X002493Y003127D01*
X002511Y003167D01*
X002532Y003206D01*
X002556Y003243D01*
X002583Y003278D01*
X002614Y003310D01*
X002647Y003339D01*
X002683Y003365D01*
X002721Y003387D01*
X002761Y003406D01*
X002802Y003422D01*
X002845Y003434D01*
X002888Y003442D01*
X002932Y003446D01*
X002976Y003446D01*
X003020Y003442D01*
X003063Y003434D01*
X003106Y003422D01*
X003147Y003406D01*
X003187Y003387D01*
X003225Y003365D01*
X003261Y003339D01*
X003294Y003310D01*
X003325Y003278D01*
X003352Y003243D01*
X003376Y003206D01*
X003397Y003167D01*
X003415Y003127D01*
X003428Y003085D01*
X003438Y003042D01*
X003444Y002998D01*
X003446Y002954D01*
X003444Y002910D01*
X003438Y002866D01*
X003428Y002823D01*
X003415Y002781D01*
X003397Y002741D01*
X003376Y002702D01*
X003352Y002665D01*
X003325Y002630D01*
X003294Y002598D01*
X003261Y002569D01*
X003225Y002543D01*
X003187Y002521D01*
X003147Y002502D01*
X003106Y002486D01*
X003063Y002474D01*
X003020Y002466D01*
X002976Y002462D01*
X002932Y002462D01*
X002888Y002466D01*
X002845Y002474D01*
X002802Y002486D01*
X002761Y002502D01*
X002721Y002521D01*
X002683Y002543D01*
X002647Y002569D01*
X002614Y002598D01*
X002583Y002630D01*
X002556Y002665D01*
X002532Y002702D01*
X002511Y002741D01*
X002493Y002781D01*
X002480Y002823D01*
X002470Y002866D01*
X002464Y002910D01*
X002462Y002954D01*
X006360Y010612D02*
X006362Y010653D01*
X006368Y010694D01*
X006378Y010734D01*
X006391Y010773D01*
X006408Y010810D01*
X006429Y010846D01*
X006453Y010880D01*
X006480Y010911D01*
X006509Y010939D01*
X006542Y010965D01*
X006576Y010987D01*
X006613Y011006D01*
X006651Y011021D01*
X006691Y011033D01*
X006731Y011041D01*
X006772Y011045D01*
X006814Y011045D01*
X006855Y011041D01*
X006895Y011033D01*
X006935Y011021D01*
X006973Y011006D01*
X007009Y010987D01*
X007044Y010965D01*
X007077Y010939D01*
X007106Y010911D01*
X007133Y010880D01*
X007157Y010846D01*
X007178Y010810D01*
X007195Y010773D01*
X007208Y010734D01*
X007218Y010694D01*
X007224Y010653D01*
X007226Y010612D01*
X007224Y010571D01*
X007218Y010530D01*
X007208Y010490D01*
X007195Y010451D01*
X007178Y010414D01*
X007157Y010378D01*
X007133Y010344D01*
X007106Y010313D01*
X007077Y010285D01*
X007044Y010259D01*
X007010Y010237D01*
X006973Y010218D01*
X006935Y010203D01*
X006895Y010191D01*
X006855Y010183D01*
X006814Y010179D01*
X006772Y010179D01*
X006731Y010183D01*
X006691Y010191D01*
X006651Y010203D01*
X006613Y010218D01*
X006577Y010237D01*
X006542Y010259D01*
X006509Y010285D01*
X006480Y010313D01*
X006453Y010344D01*
X006429Y010378D01*
X006408Y010414D01*
X006391Y010451D01*
X006378Y010490D01*
X006368Y010530D01*
X006362Y010571D01*
X006360Y010612D01*
X014273Y002954D02*
X014275Y002998D01*
X014281Y003042D01*
X014291Y003085D01*
X014304Y003127D01*
X014322Y003167D01*
X014343Y003206D01*
X014367Y003243D01*
X014394Y003278D01*
X014425Y003310D01*
X014458Y003339D01*
X014494Y003365D01*
X014532Y003387D01*
X014572Y003406D01*
X014613Y003422D01*
X014656Y003434D01*
X014699Y003442D01*
X014743Y003446D01*
X014787Y003446D01*
X014831Y003442D01*
X014874Y003434D01*
X014917Y003422D01*
X014958Y003406D01*
X014998Y003387D01*
X015036Y003365D01*
X015072Y003339D01*
X015105Y003310D01*
X015136Y003278D01*
X015163Y003243D01*
X015187Y003206D01*
X015208Y003167D01*
X015226Y003127D01*
X015239Y003085D01*
X015249Y003042D01*
X015255Y002998D01*
X015257Y002954D01*
X015255Y002910D01*
X015249Y002866D01*
X015239Y002823D01*
X015226Y002781D01*
X015208Y002741D01*
X015187Y002702D01*
X015163Y002665D01*
X015136Y002630D01*
X015105Y002598D01*
X015072Y002569D01*
X015036Y002543D01*
X014998Y002521D01*
X014958Y002502D01*
X014917Y002486D01*
X014874Y002474D01*
X014831Y002466D01*
X014787Y002462D01*
X014743Y002462D01*
X014699Y002466D01*
X014656Y002474D01*
X014613Y002486D01*
X014572Y002502D01*
X014532Y002521D01*
X014494Y002543D01*
X014458Y002569D01*
X014425Y002598D01*
X014394Y002630D01*
X014367Y002665D01*
X014343Y002702D01*
X014322Y002741D01*
X014304Y002781D01*
X014291Y002823D01*
X014281Y002866D01*
X014275Y002910D01*
X014273Y002954D01*
X016045Y002954D02*
X016047Y002998D01*
X016053Y003042D01*
X016063Y003085D01*
X016076Y003127D01*
X016094Y003167D01*
X016115Y003206D01*
X016139Y003243D01*
X016166Y003278D01*
X016197Y003310D01*
X016230Y003339D01*
X016266Y003365D01*
X016304Y003387D01*
X016344Y003406D01*
X016385Y003422D01*
X016428Y003434D01*
X016471Y003442D01*
X016515Y003446D01*
X016559Y003446D01*
X016603Y003442D01*
X016646Y003434D01*
X016689Y003422D01*
X016730Y003406D01*
X016770Y003387D01*
X016808Y003365D01*
X016844Y003339D01*
X016877Y003310D01*
X016908Y003278D01*
X016935Y003243D01*
X016959Y003206D01*
X016980Y003167D01*
X016998Y003127D01*
X017011Y003085D01*
X017021Y003042D01*
X017027Y002998D01*
X017029Y002954D01*
X017027Y002910D01*
X017021Y002866D01*
X017011Y002823D01*
X016998Y002781D01*
X016980Y002741D01*
X016959Y002702D01*
X016935Y002665D01*
X016908Y002630D01*
X016877Y002598D01*
X016844Y002569D01*
X016808Y002543D01*
X016770Y002521D01*
X016730Y002502D01*
X016689Y002486D01*
X016646Y002474D01*
X016603Y002466D01*
X016559Y002462D01*
X016515Y002462D01*
X016471Y002466D01*
X016428Y002474D01*
X016385Y002486D01*
X016344Y002502D01*
X016304Y002521D01*
X016266Y002543D01*
X016230Y002569D01*
X016197Y002598D01*
X016166Y002630D01*
X016139Y002665D01*
X016115Y002702D01*
X016094Y002741D01*
X016076Y002781D01*
X016063Y002823D01*
X016053Y002866D01*
X016047Y002910D01*
X016045Y002954D01*
X015651Y000100D02*
X029234Y000100D01*
X029628Y002954D02*
X029630Y002998D01*
X029636Y003042D01*
X029646Y003085D01*
X029659Y003127D01*
X029677Y003167D01*
X029698Y003206D01*
X029722Y003243D01*
X029749Y003278D01*
X029780Y003310D01*
X029813Y003339D01*
X029849Y003365D01*
X029887Y003387D01*
X029927Y003406D01*
X029968Y003422D01*
X030011Y003434D01*
X030054Y003442D01*
X030098Y003446D01*
X030142Y003446D01*
X030186Y003442D01*
X030229Y003434D01*
X030272Y003422D01*
X030313Y003406D01*
X030353Y003387D01*
X030391Y003365D01*
X030427Y003339D01*
X030460Y003310D01*
X030491Y003278D01*
X030518Y003243D01*
X030542Y003206D01*
X030563Y003167D01*
X030581Y003127D01*
X030594Y003085D01*
X030604Y003042D01*
X030610Y002998D01*
X030612Y002954D01*
X030610Y002910D01*
X030604Y002866D01*
X030594Y002823D01*
X030581Y002781D01*
X030563Y002741D01*
X030542Y002702D01*
X030518Y002665D01*
X030491Y002630D01*
X030460Y002598D01*
X030427Y002569D01*
X030391Y002543D01*
X030353Y002521D01*
X030313Y002502D01*
X030272Y002486D01*
X030229Y002474D01*
X030186Y002466D01*
X030142Y002462D01*
X030098Y002462D01*
X030054Y002466D01*
X030011Y002474D01*
X029968Y002486D01*
X029927Y002502D01*
X029887Y002521D01*
X029849Y002543D01*
X029813Y002569D01*
X029780Y002598D01*
X029749Y002630D01*
X029722Y002665D01*
X029698Y002702D01*
X029677Y002741D01*
X029659Y002781D01*
X029646Y002823D01*
X029636Y002866D01*
X029630Y002910D01*
X029628Y002954D01*
X027856Y002954D02*
X027858Y002998D01*
X027864Y003042D01*
X027874Y003085D01*
X027887Y003127D01*
X027905Y003167D01*
X027926Y003206D01*
X027950Y003243D01*
X027977Y003278D01*
X028008Y003310D01*
X028041Y003339D01*
X028077Y003365D01*
X028115Y003387D01*
X028155Y003406D01*
X028196Y003422D01*
X028239Y003434D01*
X028282Y003442D01*
X028326Y003446D01*
X028370Y003446D01*
X028414Y003442D01*
X028457Y003434D01*
X028500Y003422D01*
X028541Y003406D01*
X028581Y003387D01*
X028619Y003365D01*
X028655Y003339D01*
X028688Y003310D01*
X028719Y003278D01*
X028746Y003243D01*
X028770Y003206D01*
X028791Y003167D01*
X028809Y003127D01*
X028822Y003085D01*
X028832Y003042D01*
X028838Y002998D01*
X028840Y002954D01*
X028838Y002910D01*
X028832Y002866D01*
X028822Y002823D01*
X028809Y002781D01*
X028791Y002741D01*
X028770Y002702D01*
X028746Y002665D01*
X028719Y002630D01*
X028688Y002598D01*
X028655Y002569D01*
X028619Y002543D01*
X028581Y002521D01*
X028541Y002502D01*
X028500Y002486D01*
X028457Y002474D01*
X028414Y002466D01*
X028370Y002462D01*
X028326Y002462D01*
X028282Y002466D01*
X028239Y002474D01*
X028196Y002486D01*
X028155Y002502D01*
X028115Y002521D01*
X028077Y002543D01*
X028041Y002569D01*
X028008Y002598D01*
X027977Y002630D01*
X027950Y002665D01*
X027926Y002702D01*
X027905Y002741D01*
X027887Y002781D01*
X027874Y002823D01*
X027864Y002866D01*
X027858Y002910D01*
X027856Y002954D01*
X033525Y010612D02*
X033527Y010653D01*
X033533Y010694D01*
X033543Y010734D01*
X033556Y010773D01*
X033573Y010810D01*
X033594Y010846D01*
X033618Y010880D01*
X033645Y010911D01*
X033674Y010939D01*
X033707Y010965D01*
X033741Y010987D01*
X033778Y011006D01*
X033816Y011021D01*
X033856Y011033D01*
X033896Y011041D01*
X033937Y011045D01*
X033979Y011045D01*
X034020Y011041D01*
X034060Y011033D01*
X034100Y011021D01*
X034138Y011006D01*
X034174Y010987D01*
X034209Y010965D01*
X034242Y010939D01*
X034271Y010911D01*
X034298Y010880D01*
X034322Y010846D01*
X034343Y010810D01*
X034360Y010773D01*
X034373Y010734D01*
X034383Y010694D01*
X034389Y010653D01*
X034391Y010612D01*
X034389Y010571D01*
X034383Y010530D01*
X034373Y010490D01*
X034360Y010451D01*
X034343Y010414D01*
X034322Y010378D01*
X034298Y010344D01*
X034271Y010313D01*
X034242Y010285D01*
X034209Y010259D01*
X034175Y010237D01*
X034138Y010218D01*
X034100Y010203D01*
X034060Y010191D01*
X034020Y010183D01*
X033979Y010179D01*
X033937Y010179D01*
X033896Y010183D01*
X033856Y010191D01*
X033816Y010203D01*
X033778Y010218D01*
X033742Y010237D01*
X033707Y010259D01*
X033674Y010285D01*
X033645Y010313D01*
X033618Y010344D01*
X033594Y010378D01*
X033573Y010414D01*
X033556Y010451D01*
X033543Y010490D01*
X033533Y010530D01*
X033527Y010571D01*
X033525Y010612D01*
X041439Y002954D02*
X041441Y002998D01*
X041447Y003042D01*
X041457Y003085D01*
X041470Y003127D01*
X041488Y003167D01*
X041509Y003206D01*
X041533Y003243D01*
X041560Y003278D01*
X041591Y003310D01*
X041624Y003339D01*
X041660Y003365D01*
X041698Y003387D01*
X041738Y003406D01*
X041779Y003422D01*
X041822Y003434D01*
X041865Y003442D01*
X041909Y003446D01*
X041953Y003446D01*
X041997Y003442D01*
X042040Y003434D01*
X042083Y003422D01*
X042124Y003406D01*
X042164Y003387D01*
X042202Y003365D01*
X042238Y003339D01*
X042271Y003310D01*
X042302Y003278D01*
X042329Y003243D01*
X042353Y003206D01*
X042374Y003167D01*
X042392Y003127D01*
X042405Y003085D01*
X042415Y003042D01*
X042421Y002998D01*
X042423Y002954D01*
X042421Y002910D01*
X042415Y002866D01*
X042405Y002823D01*
X042392Y002781D01*
X042374Y002741D01*
X042353Y002702D01*
X042329Y002665D01*
X042302Y002630D01*
X042271Y002598D01*
X042238Y002569D01*
X042202Y002543D01*
X042164Y002521D01*
X042124Y002502D01*
X042083Y002486D01*
X042040Y002474D01*
X041997Y002466D01*
X041953Y002462D01*
X041909Y002462D01*
X041865Y002466D01*
X041822Y002474D01*
X041779Y002486D01*
X041738Y002502D01*
X041698Y002521D01*
X041660Y002543D01*
X041624Y002569D01*
X041591Y002598D01*
X041560Y002630D01*
X041533Y002665D01*
X041509Y002702D01*
X041488Y002741D01*
X041470Y002781D01*
X041457Y002823D01*
X041447Y002866D01*
X041441Y002910D01*
X041439Y002954D01*
X042817Y000100D02*
X044785Y000100D01*
X044785Y002069D01*
X019943Y010612D02*
X019945Y010653D01*
X019951Y010694D01*
X019961Y010734D01*
X019974Y010773D01*
X019991Y010810D01*
X020012Y010846D01*
X020036Y010880D01*
X020063Y010911D01*
X020092Y010939D01*
X020125Y010965D01*
X020159Y010987D01*
X020196Y011006D01*
X020234Y011021D01*
X020274Y011033D01*
X020314Y011041D01*
X020355Y011045D01*
X020397Y011045D01*
X020438Y011041D01*
X020478Y011033D01*
X020518Y011021D01*
X020556Y011006D01*
X020592Y010987D01*
X020627Y010965D01*
X020660Y010939D01*
X020689Y010911D01*
X020716Y010880D01*
X020740Y010846D01*
X020761Y010810D01*
X020778Y010773D01*
X020791Y010734D01*
X020801Y010694D01*
X020807Y010653D01*
X020809Y010612D01*
X020807Y010571D01*
X020801Y010530D01*
X020791Y010490D01*
X020778Y010451D01*
X020761Y010414D01*
X020740Y010378D01*
X020716Y010344D01*
X020689Y010313D01*
X020660Y010285D01*
X020627Y010259D01*
X020593Y010237D01*
X020556Y010218D01*
X020518Y010203D01*
X020478Y010191D01*
X020438Y010183D01*
X020397Y010179D01*
X020355Y010179D01*
X020314Y010183D01*
X020274Y010191D01*
X020234Y010203D01*
X020196Y010218D01*
X020160Y010237D01*
X020125Y010259D01*
X020092Y010285D01*
X020063Y010313D01*
X020036Y010344D01*
X020012Y010378D01*
X019991Y010414D01*
X019974Y010451D01*
X019961Y010490D01*
X019951Y010530D01*
X019945Y010571D01*
X019943Y010612D01*
X019943Y032935D02*
X019945Y032976D01*
X019951Y033017D01*
X019961Y033057D01*
X019974Y033096D01*
X019991Y033133D01*
X020012Y033169D01*
X020036Y033203D01*
X020063Y033234D01*
X020092Y033262D01*
X020125Y033288D01*
X020159Y033310D01*
X020196Y033329D01*
X020234Y033344D01*
X020274Y033356D01*
X020314Y033364D01*
X020355Y033368D01*
X020397Y033368D01*
X020438Y033364D01*
X020478Y033356D01*
X020518Y033344D01*
X020556Y033329D01*
X020592Y033310D01*
X020627Y033288D01*
X020660Y033262D01*
X020689Y033234D01*
X020716Y033203D01*
X020740Y033169D01*
X020761Y033133D01*
X020778Y033096D01*
X020791Y033057D01*
X020801Y033017D01*
X020807Y032976D01*
X020809Y032935D01*
X020807Y032894D01*
X020801Y032853D01*
X020791Y032813D01*
X020778Y032774D01*
X020761Y032737D01*
X020740Y032701D01*
X020716Y032667D01*
X020689Y032636D01*
X020660Y032608D01*
X020627Y032582D01*
X020593Y032560D01*
X020556Y032541D01*
X020518Y032526D01*
X020478Y032514D01*
X020438Y032506D01*
X020397Y032502D01*
X020355Y032502D01*
X020314Y032506D01*
X020274Y032514D01*
X020234Y032526D01*
X020196Y032541D01*
X020160Y032560D01*
X020125Y032582D01*
X020092Y032608D01*
X020063Y032636D01*
X020036Y032667D01*
X020012Y032701D01*
X019991Y032737D01*
X019974Y032774D01*
X019961Y032813D01*
X019951Y032853D01*
X019945Y032894D01*
X019943Y032935D01*
X020179Y045828D02*
X020181Y045872D01*
X020187Y045916D01*
X020197Y045959D01*
X020210Y046001D01*
X020228Y046041D01*
X020249Y046080D01*
X020273Y046117D01*
X020300Y046152D01*
X020331Y046184D01*
X020364Y046213D01*
X020400Y046239D01*
X020438Y046261D01*
X020478Y046280D01*
X020519Y046296D01*
X020562Y046308D01*
X020605Y046316D01*
X020649Y046320D01*
X020693Y046320D01*
X020737Y046316D01*
X020780Y046308D01*
X020823Y046296D01*
X020864Y046280D01*
X020904Y046261D01*
X020942Y046239D01*
X020978Y046213D01*
X021011Y046184D01*
X021042Y046152D01*
X021069Y046117D01*
X021093Y046080D01*
X021114Y046041D01*
X021132Y046001D01*
X021145Y045959D01*
X021155Y045916D01*
X021161Y045872D01*
X021163Y045828D01*
X021161Y045784D01*
X021155Y045740D01*
X021145Y045697D01*
X021132Y045655D01*
X021114Y045615D01*
X021093Y045576D01*
X021069Y045539D01*
X021042Y045504D01*
X021011Y045472D01*
X020978Y045443D01*
X020942Y045417D01*
X020904Y045395D01*
X020864Y045376D01*
X020823Y045360D01*
X020780Y045348D01*
X020737Y045340D01*
X020693Y045336D01*
X020649Y045336D01*
X020605Y045340D01*
X020562Y045348D01*
X020519Y045360D01*
X020478Y045376D01*
X020438Y045395D01*
X020400Y045417D01*
X020364Y045443D01*
X020331Y045472D01*
X020300Y045504D01*
X020273Y045539D01*
X020249Y045576D01*
X020228Y045615D01*
X020210Y045655D01*
X020197Y045697D01*
X020187Y045740D01*
X020181Y045784D01*
X020179Y045828D01*
X015651Y048683D02*
X029234Y048683D01*
X027856Y045828D02*
X027858Y045872D01*
X027864Y045916D01*
X027874Y045959D01*
X027887Y046001D01*
X027905Y046041D01*
X027926Y046080D01*
X027950Y046117D01*
X027977Y046152D01*
X028008Y046184D01*
X028041Y046213D01*
X028077Y046239D01*
X028115Y046261D01*
X028155Y046280D01*
X028196Y046296D01*
X028239Y046308D01*
X028282Y046316D01*
X028326Y046320D01*
X028370Y046320D01*
X028414Y046316D01*
X028457Y046308D01*
X028500Y046296D01*
X028541Y046280D01*
X028581Y046261D01*
X028619Y046239D01*
X028655Y046213D01*
X028688Y046184D01*
X028719Y046152D01*
X028746Y046117D01*
X028770Y046080D01*
X028791Y046041D01*
X028809Y046001D01*
X028822Y045959D01*
X028832Y045916D01*
X028838Y045872D01*
X028840Y045828D01*
X028838Y045784D01*
X028832Y045740D01*
X028822Y045697D01*
X028809Y045655D01*
X028791Y045615D01*
X028770Y045576D01*
X028746Y045539D01*
X028719Y045504D01*
X028688Y045472D01*
X028655Y045443D01*
X028619Y045417D01*
X028581Y045395D01*
X028541Y045376D01*
X028500Y045360D01*
X028457Y045348D01*
X028414Y045340D01*
X028370Y045336D01*
X028326Y045336D01*
X028282Y045340D01*
X028239Y045348D01*
X028196Y045360D01*
X028155Y045376D01*
X028115Y045395D01*
X028077Y045417D01*
X028041Y045443D01*
X028008Y045472D01*
X027977Y045504D01*
X027950Y045539D01*
X027926Y045576D01*
X027905Y045615D01*
X027887Y045655D01*
X027874Y045697D01*
X027864Y045740D01*
X027858Y045784D01*
X027856Y045828D01*
X033762Y045828D02*
X033764Y045872D01*
X033770Y045916D01*
X033780Y045959D01*
X033793Y046001D01*
X033811Y046041D01*
X033832Y046080D01*
X033856Y046117D01*
X033883Y046152D01*
X033914Y046184D01*
X033947Y046213D01*
X033983Y046239D01*
X034021Y046261D01*
X034061Y046280D01*
X034102Y046296D01*
X034145Y046308D01*
X034188Y046316D01*
X034232Y046320D01*
X034276Y046320D01*
X034320Y046316D01*
X034363Y046308D01*
X034406Y046296D01*
X034447Y046280D01*
X034487Y046261D01*
X034525Y046239D01*
X034561Y046213D01*
X034594Y046184D01*
X034625Y046152D01*
X034652Y046117D01*
X034676Y046080D01*
X034697Y046041D01*
X034715Y046001D01*
X034728Y045959D01*
X034738Y045916D01*
X034744Y045872D01*
X034746Y045828D01*
X034744Y045784D01*
X034738Y045740D01*
X034728Y045697D01*
X034715Y045655D01*
X034697Y045615D01*
X034676Y045576D01*
X034652Y045539D01*
X034625Y045504D01*
X034594Y045472D01*
X034561Y045443D01*
X034525Y045417D01*
X034487Y045395D01*
X034447Y045376D01*
X034406Y045360D01*
X034363Y045348D01*
X034320Y045340D01*
X034276Y045336D01*
X034232Y045336D01*
X034188Y045340D01*
X034145Y045348D01*
X034102Y045360D01*
X034061Y045376D01*
X034021Y045395D01*
X033983Y045417D01*
X033947Y045443D01*
X033914Y045472D01*
X033883Y045504D01*
X033856Y045539D01*
X033832Y045576D01*
X033811Y045615D01*
X033793Y045655D01*
X033780Y045697D01*
X033770Y045740D01*
X033764Y045784D01*
X033762Y045828D01*
X041439Y045828D02*
X041441Y045872D01*
X041447Y045916D01*
X041457Y045959D01*
X041470Y046001D01*
X041488Y046041D01*
X041509Y046080D01*
X041533Y046117D01*
X041560Y046152D01*
X041591Y046184D01*
X041624Y046213D01*
X041660Y046239D01*
X041698Y046261D01*
X041738Y046280D01*
X041779Y046296D01*
X041822Y046308D01*
X041865Y046316D01*
X041909Y046320D01*
X041953Y046320D01*
X041997Y046316D01*
X042040Y046308D01*
X042083Y046296D01*
X042124Y046280D01*
X042164Y046261D01*
X042202Y046239D01*
X042238Y046213D01*
X042271Y046184D01*
X042302Y046152D01*
X042329Y046117D01*
X042353Y046080D01*
X042374Y046041D01*
X042392Y046001D01*
X042405Y045959D01*
X042415Y045916D01*
X042421Y045872D01*
X042423Y045828D01*
X042421Y045784D01*
X042415Y045740D01*
X042405Y045697D01*
X042392Y045655D01*
X042374Y045615D01*
X042353Y045576D01*
X042329Y045539D01*
X042302Y045504D01*
X042271Y045472D01*
X042238Y045443D01*
X042202Y045417D01*
X042164Y045395D01*
X042124Y045376D01*
X042083Y045360D01*
X042040Y045348D01*
X041997Y045340D01*
X041953Y045336D01*
X041909Y045336D01*
X041865Y045340D01*
X041822Y045348D01*
X041779Y045360D01*
X041738Y045376D01*
X041698Y045395D01*
X041660Y045417D01*
X041624Y045443D01*
X041591Y045472D01*
X041560Y045504D01*
X041533Y045539D01*
X041509Y045576D01*
X041488Y045615D01*
X041470Y045655D01*
X041457Y045697D01*
X041447Y045740D01*
X041441Y045784D01*
X041439Y045828D01*
X042817Y048683D02*
X044785Y048683D01*
X044785Y046714D01*
X033525Y032935D02*
X033527Y032976D01*
X033533Y033017D01*
X033543Y033057D01*
X033556Y033096D01*
X033573Y033133D01*
X033594Y033169D01*
X033618Y033203D01*
X033645Y033234D01*
X033674Y033262D01*
X033707Y033288D01*
X033741Y033310D01*
X033778Y033329D01*
X033816Y033344D01*
X033856Y033356D01*
X033896Y033364D01*
X033937Y033368D01*
X033979Y033368D01*
X034020Y033364D01*
X034060Y033356D01*
X034100Y033344D01*
X034138Y033329D01*
X034174Y033310D01*
X034209Y033288D01*
X034242Y033262D01*
X034271Y033234D01*
X034298Y033203D01*
X034322Y033169D01*
X034343Y033133D01*
X034360Y033096D01*
X034373Y033057D01*
X034383Y033017D01*
X034389Y032976D01*
X034391Y032935D01*
X034389Y032894D01*
X034383Y032853D01*
X034373Y032813D01*
X034360Y032774D01*
X034343Y032737D01*
X034322Y032701D01*
X034298Y032667D01*
X034271Y032636D01*
X034242Y032608D01*
X034209Y032582D01*
X034175Y032560D01*
X034138Y032541D01*
X034100Y032526D01*
X034060Y032514D01*
X034020Y032506D01*
X033979Y032502D01*
X033937Y032502D01*
X033896Y032506D01*
X033856Y032514D01*
X033816Y032526D01*
X033778Y032541D01*
X033742Y032560D01*
X033707Y032582D01*
X033674Y032608D01*
X033645Y032636D01*
X033618Y032667D01*
X033594Y032701D01*
X033573Y032737D01*
X033556Y032774D01*
X033543Y032813D01*
X033533Y032853D01*
X033527Y032894D01*
X033525Y032935D01*
X014273Y045828D02*
X014275Y045872D01*
X014281Y045916D01*
X014291Y045959D01*
X014304Y046001D01*
X014322Y046041D01*
X014343Y046080D01*
X014367Y046117D01*
X014394Y046152D01*
X014425Y046184D01*
X014458Y046213D01*
X014494Y046239D01*
X014532Y046261D01*
X014572Y046280D01*
X014613Y046296D01*
X014656Y046308D01*
X014699Y046316D01*
X014743Y046320D01*
X014787Y046320D01*
X014831Y046316D01*
X014874Y046308D01*
X014917Y046296D01*
X014958Y046280D01*
X014998Y046261D01*
X015036Y046239D01*
X015072Y046213D01*
X015105Y046184D01*
X015136Y046152D01*
X015163Y046117D01*
X015187Y046080D01*
X015208Y046041D01*
X015226Y046001D01*
X015239Y045959D01*
X015249Y045916D01*
X015255Y045872D01*
X015257Y045828D01*
X015255Y045784D01*
X015249Y045740D01*
X015239Y045697D01*
X015226Y045655D01*
X015208Y045615D01*
X015187Y045576D01*
X015163Y045539D01*
X015136Y045504D01*
X015105Y045472D01*
X015072Y045443D01*
X015036Y045417D01*
X014998Y045395D01*
X014958Y045376D01*
X014917Y045360D01*
X014874Y045348D01*
X014831Y045340D01*
X014787Y045336D01*
X014743Y045336D01*
X014699Y045340D01*
X014656Y045348D01*
X014613Y045360D01*
X014572Y045376D01*
X014532Y045395D01*
X014494Y045417D01*
X014458Y045443D01*
X014425Y045472D01*
X014394Y045504D01*
X014367Y045539D01*
X014343Y045576D01*
X014322Y045615D01*
X014304Y045655D01*
X014291Y045697D01*
X014281Y045740D01*
X014275Y045784D01*
X014273Y045828D01*
X006596Y045828D02*
X006598Y045872D01*
X006604Y045916D01*
X006614Y045959D01*
X006627Y046001D01*
X006645Y046041D01*
X006666Y046080D01*
X006690Y046117D01*
X006717Y046152D01*
X006748Y046184D01*
X006781Y046213D01*
X006817Y046239D01*
X006855Y046261D01*
X006895Y046280D01*
X006936Y046296D01*
X006979Y046308D01*
X007022Y046316D01*
X007066Y046320D01*
X007110Y046320D01*
X007154Y046316D01*
X007197Y046308D01*
X007240Y046296D01*
X007281Y046280D01*
X007321Y046261D01*
X007359Y046239D01*
X007395Y046213D01*
X007428Y046184D01*
X007459Y046152D01*
X007486Y046117D01*
X007510Y046080D01*
X007531Y046041D01*
X007549Y046001D01*
X007562Y045959D01*
X007572Y045916D01*
X007578Y045872D01*
X007580Y045828D01*
X007578Y045784D01*
X007572Y045740D01*
X007562Y045697D01*
X007549Y045655D01*
X007531Y045615D01*
X007510Y045576D01*
X007486Y045539D01*
X007459Y045504D01*
X007428Y045472D01*
X007395Y045443D01*
X007359Y045417D01*
X007321Y045395D01*
X007281Y045376D01*
X007240Y045360D01*
X007197Y045348D01*
X007154Y045340D01*
X007110Y045336D01*
X007066Y045336D01*
X007022Y045340D01*
X006979Y045348D01*
X006936Y045360D01*
X006895Y045376D01*
X006855Y045395D01*
X006817Y045417D01*
X006781Y045443D01*
X006748Y045472D01*
X006717Y045504D01*
X006690Y045539D01*
X006666Y045576D01*
X006645Y045615D01*
X006627Y045655D01*
X006614Y045697D01*
X006604Y045740D01*
X006598Y045784D01*
X006596Y045828D01*
X002069Y048683D02*
X000100Y048683D01*
X000100Y046714D01*
X006360Y032935D02*
X006362Y032976D01*
X006368Y033017D01*
X006378Y033057D01*
X006391Y033096D01*
X006408Y033133D01*
X006429Y033169D01*
X006453Y033203D01*
X006480Y033234D01*
X006509Y033262D01*
X006542Y033288D01*
X006576Y033310D01*
X006613Y033329D01*
X006651Y033344D01*
X006691Y033356D01*
X006731Y033364D01*
X006772Y033368D01*
X006814Y033368D01*
X006855Y033364D01*
X006895Y033356D01*
X006935Y033344D01*
X006973Y033329D01*
X007009Y033310D01*
X007044Y033288D01*
X007077Y033262D01*
X007106Y033234D01*
X007133Y033203D01*
X007157Y033169D01*
X007178Y033133D01*
X007195Y033096D01*
X007208Y033057D01*
X007218Y033017D01*
X007224Y032976D01*
X007226Y032935D01*
X007224Y032894D01*
X007218Y032853D01*
X007208Y032813D01*
X007195Y032774D01*
X007178Y032737D01*
X007157Y032701D01*
X007133Y032667D01*
X007106Y032636D01*
X007077Y032608D01*
X007044Y032582D01*
X007010Y032560D01*
X006973Y032541D01*
X006935Y032526D01*
X006895Y032514D01*
X006855Y032506D01*
X006814Y032502D01*
X006772Y032502D01*
X006731Y032506D01*
X006691Y032514D01*
X006651Y032526D01*
X006613Y032541D01*
X006577Y032560D01*
X006542Y032582D01*
X006509Y032608D01*
X006480Y032636D01*
X006453Y032667D01*
X006429Y032701D01*
X006408Y032737D01*
X006391Y032774D01*
X006378Y032813D01*
X006368Y032853D01*
X006362Y032894D01*
X006360Y032935D01*
D11*
X006793Y032935D03*
X020376Y032935D03*
X033958Y032935D03*
X033958Y010612D03*
X020376Y010612D03*
X006793Y010612D03*
D12*
X009694Y002817D02*
X009849Y002817D01*
X009849Y002507D01*
X009694Y002507D01*
X009642Y002559D01*
X009642Y002766D01*
X009694Y002817D01*
X010043Y002817D02*
X010043Y002869D01*
X010043Y002714D02*
X010043Y002507D01*
X010094Y002507D02*
X009991Y002507D01*
X010043Y002714D02*
X010094Y002714D01*
X023225Y002766D02*
X023276Y002817D01*
X023432Y002817D01*
X023432Y002507D01*
X023276Y002507D01*
X023225Y002559D01*
X023225Y002766D01*
X023625Y002817D02*
X023625Y002869D01*
X023625Y002714D02*
X023625Y002507D01*
X023574Y002507D02*
X023677Y002507D01*
X023677Y002714D02*
X023625Y002714D01*
X036807Y002766D02*
X036859Y002817D01*
X037014Y002817D01*
X037014Y002507D01*
X036859Y002507D01*
X036807Y002559D01*
X036807Y002766D01*
X037208Y002817D02*
X037208Y002869D01*
X037208Y002714D02*
X037208Y002507D01*
X037260Y002507D02*
X037156Y002507D01*
X037208Y002714D02*
X037260Y002714D01*
X037646Y021799D02*
X037595Y021850D01*
X037595Y022057D01*
X037646Y022109D01*
X037802Y022109D01*
X037802Y021799D01*
X037646Y021799D01*
X037944Y021799D02*
X038047Y021799D01*
X037995Y021799D02*
X037995Y022005D01*
X038047Y022005D01*
X037995Y022109D02*
X037995Y022161D01*
X037260Y024830D02*
X037156Y024830D01*
X037208Y024830D02*
X037208Y025037D01*
X037260Y025037D01*
X037208Y025140D02*
X037208Y025192D01*
X037014Y025140D02*
X036859Y025140D01*
X036807Y025089D01*
X036807Y024882D01*
X036859Y024830D01*
X037014Y024830D01*
X037014Y025140D01*
X024464Y022005D02*
X024413Y022005D01*
X024413Y021799D01*
X024464Y021799D02*
X024361Y021799D01*
X024219Y021799D02*
X024219Y022109D01*
X024064Y022109D01*
X024012Y022057D01*
X024012Y021850D01*
X024064Y021799D01*
X024219Y021799D01*
X024413Y022109D02*
X024413Y022161D01*
X023677Y024830D02*
X023574Y024830D01*
X023625Y024830D02*
X023625Y025037D01*
X023677Y025037D01*
X023625Y025140D02*
X023625Y025192D01*
X023432Y025140D02*
X023432Y024830D01*
X023276Y024830D01*
X023225Y024882D01*
X023225Y025089D01*
X023276Y025140D01*
X023432Y025140D01*
X010882Y022005D02*
X010830Y022005D01*
X010830Y021799D01*
X010882Y021799D02*
X010778Y021799D01*
X010636Y021799D02*
X010481Y021799D01*
X010429Y021850D01*
X010429Y022057D01*
X010481Y022109D01*
X010636Y022109D01*
X010636Y021799D01*
X010830Y022109D02*
X010830Y022161D01*
X010094Y024830D02*
X009991Y024830D01*
X010043Y024830D02*
X010043Y025037D01*
X010094Y025037D01*
X010043Y025140D02*
X010043Y025192D01*
X009849Y025140D02*
X009849Y024830D01*
X009694Y024830D01*
X009642Y024882D01*
X009642Y025089D01*
X009694Y025140D01*
X009849Y025140D01*
X010481Y044121D02*
X010429Y044173D01*
X010429Y044380D01*
X010481Y044432D01*
X010636Y044432D01*
X010636Y044121D01*
X010481Y044121D01*
X010778Y044121D02*
X010882Y044121D01*
X010830Y044121D02*
X010830Y044328D01*
X010882Y044328D01*
X010830Y044432D02*
X010830Y044483D01*
X024012Y044380D02*
X024064Y044432D01*
X024219Y044432D01*
X024219Y044121D01*
X024064Y044121D01*
X024012Y044173D01*
X024012Y044380D01*
X024413Y044432D02*
X024413Y044483D01*
X024413Y044328D02*
X024413Y044121D01*
X024464Y044121D02*
X024361Y044121D01*
X024413Y044328D02*
X024464Y044328D01*
X037595Y044380D02*
X037646Y044432D01*
X037802Y044432D01*
X037802Y044121D01*
X037646Y044121D01*
X037595Y044173D01*
X037595Y044380D01*
X037995Y044432D02*
X037995Y044483D01*
X037995Y044328D02*
X037995Y044121D01*
X037944Y044121D02*
X038047Y044121D01*
X038047Y044328D02*
X037995Y044328D01*
D13*
X041931Y045828D03*
X034254Y045828D03*
X028348Y045828D03*
X020671Y045828D03*
X014765Y045828D03*
X007088Y045828D03*
X002954Y025277D03*
X007088Y023506D03*
X014765Y023506D03*
X014765Y025277D03*
X016537Y025277D03*
X020671Y023506D03*
X028348Y023506D03*
X028348Y025277D03*
X030120Y025277D03*
X034254Y023506D03*
X041931Y023506D03*
X041931Y025277D03*
X041931Y002954D03*
X030120Y002954D03*
X028348Y002954D03*
X016537Y002954D03*
X014765Y002954D03*
X002954Y002954D03*
D14*
X010738Y016080D02*
X010845Y016080D01*
X010898Y016134D01*
X010898Y016294D01*
X010898Y016187D02*
X011005Y016080D01*
X011005Y016294D02*
X010685Y016294D01*
X010685Y016134D01*
X010738Y016080D01*
X010738Y016449D02*
X010685Y016502D01*
X010685Y016609D01*
X010738Y016662D01*
X010952Y016662D01*
X011005Y016609D01*
X011005Y016502D01*
X010952Y016449D01*
X010738Y016449D01*
X010685Y016817D02*
X010685Y017031D01*
X010685Y016924D02*
X011005Y016924D01*
X011005Y017169D02*
X011005Y017276D01*
X011005Y017223D02*
X010685Y017223D01*
X010685Y017276D02*
X010685Y017169D01*
X010685Y017431D02*
X010685Y017644D01*
X011005Y017644D01*
X011005Y017431D01*
X010845Y017538D02*
X010845Y017644D01*
X011005Y017799D02*
X011005Y018013D01*
X010685Y018013D01*
X024267Y018013D02*
X024588Y018013D01*
X024588Y017799D01*
X024588Y017644D02*
X024588Y017431D01*
X024588Y017276D02*
X024588Y017169D01*
X024588Y017223D02*
X024267Y017223D01*
X024267Y017276D02*
X024267Y017169D01*
X024267Y017031D02*
X024267Y016817D01*
X024267Y016924D02*
X024588Y016924D01*
X024534Y016662D02*
X024588Y016609D01*
X024588Y016502D01*
X024534Y016449D01*
X024321Y016449D01*
X024267Y016502D01*
X024267Y016609D01*
X024321Y016662D01*
X024534Y016662D01*
X024481Y016294D02*
X024481Y016134D01*
X024427Y016080D01*
X024321Y016080D01*
X024267Y016134D01*
X024267Y016294D01*
X024588Y016294D01*
X024481Y016187D02*
X024588Y016080D01*
X024267Y017431D02*
X024267Y017644D01*
X024588Y017644D01*
X024427Y017644D02*
X024427Y017538D01*
X037850Y017431D02*
X037850Y017644D01*
X038170Y017644D01*
X038170Y017431D01*
X038170Y017276D02*
X038170Y017169D01*
X038170Y017223D02*
X037850Y017223D01*
X037850Y017276D02*
X037850Y017169D01*
X037850Y017031D02*
X037850Y016817D01*
X037850Y016924D02*
X038170Y016924D01*
X038117Y016662D02*
X038170Y016609D01*
X038170Y016502D01*
X038117Y016449D01*
X037903Y016449D01*
X037850Y016502D01*
X037850Y016609D01*
X037903Y016662D01*
X038117Y016662D01*
X038170Y016294D02*
X037850Y016294D01*
X037850Y016134D01*
X037903Y016080D01*
X038010Y016080D01*
X038063Y016134D01*
X038063Y016294D01*
X038063Y016187D02*
X038170Y016080D01*
X038010Y017538D02*
X038010Y017644D01*
X038170Y017799D02*
X038170Y018013D01*
X037850Y018013D01*
X037903Y038403D02*
X037850Y038457D01*
X037850Y038617D01*
X038170Y038617D01*
X038063Y038617D02*
X038063Y038457D01*
X038010Y038403D01*
X037903Y038403D01*
X038063Y038510D02*
X038170Y038403D01*
X038117Y038772D02*
X037903Y038772D01*
X037850Y038825D01*
X037850Y038932D01*
X037903Y038985D01*
X038117Y038985D01*
X038170Y038932D01*
X038170Y038825D01*
X038117Y038772D01*
X037850Y039140D02*
X037850Y039353D01*
X037850Y039247D02*
X038170Y039247D01*
X038170Y039492D02*
X038170Y039599D01*
X038170Y039546D02*
X037850Y039546D01*
X037850Y039599D02*
X037850Y039492D01*
X037850Y039754D02*
X037850Y039967D01*
X038170Y039967D01*
X038170Y039754D01*
X038010Y039861D02*
X038010Y039967D01*
X038170Y040122D02*
X038170Y040336D01*
X037850Y040336D01*
X024588Y040336D02*
X024588Y040122D01*
X024588Y039967D02*
X024267Y039967D01*
X024267Y039754D01*
X024267Y039599D02*
X024267Y039492D01*
X024267Y039546D02*
X024588Y039546D01*
X024588Y039599D02*
X024588Y039492D01*
X024588Y039247D02*
X024267Y039247D01*
X024267Y039353D02*
X024267Y039140D01*
X024321Y038985D02*
X024534Y038985D01*
X024588Y038932D01*
X024588Y038825D01*
X024534Y038772D01*
X024321Y038772D01*
X024267Y038825D01*
X024267Y038932D01*
X024321Y038985D01*
X024267Y038617D02*
X024267Y038457D01*
X024321Y038403D01*
X024427Y038403D01*
X024481Y038457D01*
X024481Y038617D01*
X024588Y038617D02*
X024267Y038617D01*
X024481Y038510D02*
X024588Y038403D01*
X024588Y039754D02*
X024588Y039967D01*
X024427Y039967D02*
X024427Y039861D01*
X024267Y040336D02*
X024588Y040336D01*
X011005Y040336D02*
X011005Y040122D01*
X011005Y039967D02*
X010685Y039967D01*
X010685Y039754D01*
X010685Y039599D02*
X010685Y039492D01*
X010685Y039546D02*
X011005Y039546D01*
X011005Y039599D02*
X011005Y039492D01*
X011005Y039247D02*
X010685Y039247D01*
X010685Y039353D02*
X010685Y039140D01*
X010738Y038985D02*
X010952Y038985D01*
X011005Y038932D01*
X011005Y038825D01*
X010952Y038772D01*
X010738Y038772D01*
X010685Y038825D01*
X010685Y038932D01*
X010738Y038985D01*
X010685Y038617D02*
X010685Y038457D01*
X010738Y038403D01*
X010845Y038403D01*
X010898Y038457D01*
X010898Y038617D01*
X011005Y038617D02*
X010685Y038617D01*
X010898Y038510D02*
X011005Y038403D01*
X011005Y039754D02*
X011005Y039967D01*
X010845Y039967D02*
X010845Y039861D01*
X010685Y040336D02*
X011005Y040336D01*
D15*
X016675Y039746D03*
X018643Y039746D03*
X030257Y039746D03*
X032226Y039746D03*
X032226Y017423D03*
X030257Y017423D03*
X018643Y017423D03*
X016675Y017423D03*
X005061Y017423D03*
X003092Y017423D03*
X003092Y039746D03*
X005061Y039746D03*
D16*
X002895Y036320D03*
X002895Y035257D03*
X002895Y034116D03*
X002895Y032777D03*
X002895Y031439D03*
X002895Y030100D03*
X002895Y028761D03*
X015021Y030580D03*
X015021Y031580D03*
X015021Y032580D03*
X015021Y033580D03*
X015021Y034580D03*
X016478Y034116D03*
X016478Y032777D03*
X016478Y031439D03*
X016478Y030100D03*
X016478Y028761D03*
X016478Y035257D03*
X016478Y036320D03*
X028604Y034580D03*
X028604Y033580D03*
X028604Y032580D03*
X028604Y031580D03*
X028604Y030580D03*
X030061Y030100D03*
X030061Y028761D03*
X030061Y031439D03*
X030061Y032777D03*
X030061Y034116D03*
X030061Y035257D03*
X030061Y036320D03*
X042187Y034580D03*
X042187Y033580D03*
X042187Y032580D03*
X042187Y031580D03*
X042187Y030580D03*
X030061Y013998D03*
X030061Y012935D03*
X030061Y011793D03*
X030061Y010454D03*
X030061Y009116D03*
X030061Y007777D03*
X030061Y006439D03*
X028604Y008257D03*
X028604Y009257D03*
X028604Y010257D03*
X028604Y011257D03*
X028604Y012257D03*
X016478Y011793D03*
X016478Y012935D03*
X016478Y013998D03*
X015021Y012257D03*
X015021Y011257D03*
X015021Y010257D03*
X015021Y009257D03*
X015021Y008257D03*
X016478Y007777D03*
X016478Y006439D03*
X016478Y009116D03*
X016478Y010454D03*
X002895Y010454D03*
X002895Y009116D03*
X002895Y007777D03*
X002895Y006439D03*
X002895Y011793D03*
X002895Y012935D03*
X002895Y013998D03*
X042187Y012257D03*
X042187Y011257D03*
X042187Y010257D03*
X042187Y009257D03*
X042187Y008257D03*
D17*
X041072Y006544D03*
X039680Y005152D03*
X043801Y001084D03*
X027489Y006544D03*
X026097Y005152D03*
X013906Y006544D03*
X012514Y005152D03*
X001084Y001084D03*
X012514Y027475D03*
X013906Y028867D03*
X026097Y027475D03*
X027489Y028867D03*
X039680Y027475D03*
X041072Y028867D03*
X001084Y047698D03*
D18*
X008860Y042163D03*
X008860Y041163D03*
X008860Y040163D03*
X022443Y040163D03*
X022443Y041163D03*
X022443Y042163D03*
X036025Y042163D03*
X036025Y041163D03*
X036025Y040163D03*
X036025Y019840D03*
X036025Y018840D03*
X036025Y017840D03*
X022443Y017840D03*
X022443Y018840D03*
X022443Y019840D03*
X008860Y019840D03*
X008860Y018840D03*
X008860Y017840D03*
D19*
X008446Y023761D03*
X013407Y023761D03*
X016439Y026805D03*
X016439Y027805D03*
X022029Y023761D03*
X026990Y023761D03*
X030021Y026805D03*
X030021Y027805D03*
X035612Y023761D03*
X040572Y023761D03*
X030021Y005482D03*
X030021Y004482D03*
X016439Y004482D03*
X016439Y005482D03*
X002856Y005482D03*
X002856Y004482D03*
X002856Y026805D03*
X002856Y027805D03*
X008446Y046084D03*
X013407Y046084D03*
X022029Y046084D03*
X026990Y046084D03*
X035612Y046084D03*
X040572Y046084D03*
D20*
X035971Y029037D03*
X034071Y029037D03*
X022389Y029037D03*
X020489Y029037D03*
X008806Y029037D03*
X006906Y029037D03*
X006906Y006714D03*
X008806Y006714D03*
X020489Y006714D03*
X022389Y006714D03*
X034071Y006714D03*
X035971Y006714D03*
D21*
X043445Y001084D02*
X043447Y001121D01*
X043453Y001158D01*
X043462Y001194D01*
X043476Y001229D01*
X043493Y001262D01*
X043513Y001293D01*
X043536Y001322D01*
X043563Y001349D01*
X043592Y001372D01*
X043623Y001392D01*
X043656Y001409D01*
X043691Y001423D01*
X043727Y001432D01*
X043764Y001438D01*
X043801Y001440D01*
X043838Y001438D01*
X043875Y001432D01*
X043911Y001423D01*
X043946Y001409D01*
X043979Y001392D01*
X044010Y001372D01*
X044039Y001349D01*
X044066Y001322D01*
X044089Y001293D01*
X044109Y001262D01*
X044126Y001229D01*
X044140Y001194D01*
X044149Y001158D01*
X044155Y001121D01*
X044157Y001084D01*
X044155Y001047D01*
X044149Y001010D01*
X044140Y000974D01*
X044126Y000939D01*
X044109Y000906D01*
X044089Y000875D01*
X044066Y000846D01*
X044039Y000819D01*
X044010Y000796D01*
X043979Y000776D01*
X043946Y000759D01*
X043911Y000745D01*
X043875Y000736D01*
X043838Y000730D01*
X043801Y000728D01*
X043764Y000730D01*
X043727Y000736D01*
X043691Y000745D01*
X043656Y000759D01*
X043623Y000776D01*
X043592Y000796D01*
X043563Y000819D01*
X043536Y000846D01*
X043513Y000875D01*
X043493Y000906D01*
X043476Y000939D01*
X043462Y000974D01*
X043453Y001010D01*
X043447Y001047D01*
X043445Y001084D01*
X000728Y001084D02*
X000730Y001121D01*
X000736Y001158D01*
X000745Y001194D01*
X000759Y001229D01*
X000776Y001262D01*
X000796Y001293D01*
X000819Y001322D01*
X000846Y001349D01*
X000875Y001372D01*
X000906Y001392D01*
X000939Y001409D01*
X000974Y001423D01*
X001010Y001432D01*
X001047Y001438D01*
X001084Y001440D01*
X001121Y001438D01*
X001158Y001432D01*
X001194Y001423D01*
X001229Y001409D01*
X001262Y001392D01*
X001293Y001372D01*
X001322Y001349D01*
X001349Y001322D01*
X001372Y001293D01*
X001392Y001262D01*
X001409Y001229D01*
X001423Y001194D01*
X001432Y001158D01*
X001438Y001121D01*
X001440Y001084D01*
X001438Y001047D01*
X001432Y001010D01*
X001423Y000974D01*
X001409Y000939D01*
X001392Y000906D01*
X001372Y000875D01*
X001349Y000846D01*
X001322Y000819D01*
X001293Y000796D01*
X001262Y000776D01*
X001229Y000759D01*
X001194Y000745D01*
X001158Y000736D01*
X001121Y000730D01*
X001084Y000728D01*
X001047Y000730D01*
X001010Y000736D01*
X000974Y000745D01*
X000939Y000759D01*
X000906Y000776D01*
X000875Y000796D01*
X000846Y000819D01*
X000819Y000846D01*
X000796Y000875D01*
X000776Y000906D01*
X000759Y000939D01*
X000745Y000974D01*
X000736Y001010D01*
X000730Y001047D01*
X000728Y001084D01*
X000728Y047698D02*
X000730Y047735D01*
X000736Y047772D01*
X000745Y047808D01*
X000759Y047843D01*
X000776Y047876D01*
X000796Y047907D01*
X000819Y047936D01*
X000846Y047963D01*
X000875Y047986D01*
X000906Y048006D01*
X000939Y048023D01*
X000974Y048037D01*
X001010Y048046D01*
X001047Y048052D01*
X001084Y048054D01*
X001121Y048052D01*
X001158Y048046D01*
X001194Y048037D01*
X001229Y048023D01*
X001262Y048006D01*
X001293Y047986D01*
X001322Y047963D01*
X001349Y047936D01*
X001372Y047907D01*
X001392Y047876D01*
X001409Y047843D01*
X001423Y047808D01*
X001432Y047772D01*
X001438Y047735D01*
X001440Y047698D01*
X001438Y047661D01*
X001432Y047624D01*
X001423Y047588D01*
X001409Y047553D01*
X001392Y047520D01*
X001372Y047489D01*
X001349Y047460D01*
X001322Y047433D01*
X001293Y047410D01*
X001262Y047390D01*
X001229Y047373D01*
X001194Y047359D01*
X001158Y047350D01*
X001121Y047344D01*
X001084Y047342D01*
X001047Y047344D01*
X001010Y047350D01*
X000974Y047359D01*
X000939Y047373D01*
X000906Y047390D01*
X000875Y047410D01*
X000846Y047433D01*
X000819Y047460D01*
X000796Y047489D01*
X000776Y047520D01*
X000759Y047553D01*
X000745Y047588D01*
X000736Y047624D01*
X000730Y047661D01*
X000728Y047698D01*
D22*
X008722Y034706D03*
X022305Y034706D03*
X035887Y034706D03*
X035887Y012383D03*
X022305Y012383D03*
X008722Y012383D03*
M02*
