G75*
G70*
%OFA0B0*%
%FSLAX24Y24*%
%IPPOS*%
%LPD*%
%AMOC8*
5,1,8,0,0,1.08239X$1,22.5*
%
%ADD10C,0.0000*%
%ADD11C,0.0090*%
%ADD12C,0.0080*%
%ADD13C,0.0551*%
%ADD14C,0.0669*%
%ADD15C,0.0591*%
%ADD16C,0.0436*%
%ADD17C,0.0787*%
%ADD18C,0.0520*%
%ADD19C,0.2841*%
%ADD20C,0.1266*%
%ADD21C,0.0238*%
%ADD22C,0.0098*%
%ADD23C,0.0118*%
%ADD24C,0.0660*%
%ADD25C,0.0500*%
D10*
X000100Y000100D02*
X002069Y000100D01*
X002069Y002069D01*
X042817Y002069D01*
X042817Y046714D01*
X002069Y046714D01*
X002069Y002069D01*
X000100Y002069D01*
X000100Y024391D01*
X044785Y024391D01*
X044785Y002069D01*
X042817Y002069D01*
X042817Y000100D01*
X029234Y000100D01*
X029234Y048683D01*
X042817Y048683D01*
X042817Y046714D01*
X044785Y046714D01*
X044785Y024391D01*
X042817Y024391D02*
X029234Y024391D01*
X029234Y040218D01*
X033368Y040218D01*
X033368Y046714D01*
X042817Y046714D01*
X042817Y024391D01*
X042817Y002069D01*
X029234Y002069D01*
X029234Y017895D01*
X033368Y017895D01*
X033368Y024391D01*
X042817Y024391D01*
X041439Y023506D02*
X041441Y023550D01*
X041447Y023594D01*
X041457Y023637D01*
X041470Y023679D01*
X041488Y023719D01*
X041509Y023758D01*
X041533Y023795D01*
X041560Y023830D01*
X041591Y023862D01*
X041624Y023891D01*
X041660Y023917D01*
X041698Y023939D01*
X041738Y023958D01*
X041779Y023974D01*
X041822Y023986D01*
X041865Y023994D01*
X041909Y023998D01*
X041953Y023998D01*
X041997Y023994D01*
X042040Y023986D01*
X042083Y023974D01*
X042124Y023958D01*
X042164Y023939D01*
X042202Y023917D01*
X042238Y023891D01*
X042271Y023862D01*
X042302Y023830D01*
X042329Y023795D01*
X042353Y023758D01*
X042374Y023719D01*
X042392Y023679D01*
X042405Y023637D01*
X042415Y023594D01*
X042421Y023550D01*
X042423Y023506D01*
X042421Y023462D01*
X042415Y023418D01*
X042405Y023375D01*
X042392Y023333D01*
X042374Y023293D01*
X042353Y023254D01*
X042329Y023217D01*
X042302Y023182D01*
X042271Y023150D01*
X042238Y023121D01*
X042202Y023095D01*
X042164Y023073D01*
X042124Y023054D01*
X042083Y023038D01*
X042040Y023026D01*
X041997Y023018D01*
X041953Y023014D01*
X041909Y023014D01*
X041865Y023018D01*
X041822Y023026D01*
X041779Y023038D01*
X041738Y023054D01*
X041698Y023073D01*
X041660Y023095D01*
X041624Y023121D01*
X041591Y023150D01*
X041560Y023182D01*
X041533Y023217D01*
X041509Y023254D01*
X041488Y023293D01*
X041470Y023333D01*
X041457Y023375D01*
X041447Y023418D01*
X041441Y023462D01*
X041439Y023506D01*
X041439Y025277D02*
X041441Y025321D01*
X041447Y025365D01*
X041457Y025408D01*
X041470Y025450D01*
X041488Y025490D01*
X041509Y025529D01*
X041533Y025566D01*
X041560Y025601D01*
X041591Y025633D01*
X041624Y025662D01*
X041660Y025688D01*
X041698Y025710D01*
X041738Y025729D01*
X041779Y025745D01*
X041822Y025757D01*
X041865Y025765D01*
X041909Y025769D01*
X041953Y025769D01*
X041997Y025765D01*
X042040Y025757D01*
X042083Y025745D01*
X042124Y025729D01*
X042164Y025710D01*
X042202Y025688D01*
X042238Y025662D01*
X042271Y025633D01*
X042302Y025601D01*
X042329Y025566D01*
X042353Y025529D01*
X042374Y025490D01*
X042392Y025450D01*
X042405Y025408D01*
X042415Y025365D01*
X042421Y025321D01*
X042423Y025277D01*
X042421Y025233D01*
X042415Y025189D01*
X042405Y025146D01*
X042392Y025104D01*
X042374Y025064D01*
X042353Y025025D01*
X042329Y024988D01*
X042302Y024953D01*
X042271Y024921D01*
X042238Y024892D01*
X042202Y024866D01*
X042164Y024844D01*
X042124Y024825D01*
X042083Y024809D01*
X042040Y024797D01*
X041997Y024789D01*
X041953Y024785D01*
X041909Y024785D01*
X041865Y024789D01*
X041822Y024797D01*
X041779Y024809D01*
X041738Y024825D01*
X041698Y024844D01*
X041660Y024866D01*
X041624Y024892D01*
X041591Y024921D01*
X041560Y024953D01*
X041533Y024988D01*
X041509Y025025D01*
X041488Y025064D01*
X041470Y025104D01*
X041457Y025146D01*
X041447Y025189D01*
X041441Y025233D01*
X041439Y025277D01*
X033762Y023506D02*
X033764Y023550D01*
X033770Y023594D01*
X033780Y023637D01*
X033793Y023679D01*
X033811Y023719D01*
X033832Y023758D01*
X033856Y023795D01*
X033883Y023830D01*
X033914Y023862D01*
X033947Y023891D01*
X033983Y023917D01*
X034021Y023939D01*
X034061Y023958D01*
X034102Y023974D01*
X034145Y023986D01*
X034188Y023994D01*
X034232Y023998D01*
X034276Y023998D01*
X034320Y023994D01*
X034363Y023986D01*
X034406Y023974D01*
X034447Y023958D01*
X034487Y023939D01*
X034525Y023917D01*
X034561Y023891D01*
X034594Y023862D01*
X034625Y023830D01*
X034652Y023795D01*
X034676Y023758D01*
X034697Y023719D01*
X034715Y023679D01*
X034728Y023637D01*
X034738Y023594D01*
X034744Y023550D01*
X034746Y023506D01*
X034744Y023462D01*
X034738Y023418D01*
X034728Y023375D01*
X034715Y023333D01*
X034697Y023293D01*
X034676Y023254D01*
X034652Y023217D01*
X034625Y023182D01*
X034594Y023150D01*
X034561Y023121D01*
X034525Y023095D01*
X034487Y023073D01*
X034447Y023054D01*
X034406Y023038D01*
X034363Y023026D01*
X034320Y023018D01*
X034276Y023014D01*
X034232Y023014D01*
X034188Y023018D01*
X034145Y023026D01*
X034102Y023038D01*
X034061Y023054D01*
X034021Y023073D01*
X033983Y023095D01*
X033947Y023121D01*
X033914Y023150D01*
X033883Y023182D01*
X033856Y023217D01*
X033832Y023254D01*
X033811Y023293D01*
X033793Y023333D01*
X033780Y023375D01*
X033770Y023418D01*
X033764Y023462D01*
X033762Y023506D01*
X029628Y025277D02*
X029630Y025321D01*
X029636Y025365D01*
X029646Y025408D01*
X029659Y025450D01*
X029677Y025490D01*
X029698Y025529D01*
X029722Y025566D01*
X029749Y025601D01*
X029780Y025633D01*
X029813Y025662D01*
X029849Y025688D01*
X029887Y025710D01*
X029927Y025729D01*
X029968Y025745D01*
X030011Y025757D01*
X030054Y025765D01*
X030098Y025769D01*
X030142Y025769D01*
X030186Y025765D01*
X030229Y025757D01*
X030272Y025745D01*
X030313Y025729D01*
X030353Y025710D01*
X030391Y025688D01*
X030427Y025662D01*
X030460Y025633D01*
X030491Y025601D01*
X030518Y025566D01*
X030542Y025529D01*
X030563Y025490D01*
X030581Y025450D01*
X030594Y025408D01*
X030604Y025365D01*
X030610Y025321D01*
X030612Y025277D01*
X030610Y025233D01*
X030604Y025189D01*
X030594Y025146D01*
X030581Y025104D01*
X030563Y025064D01*
X030542Y025025D01*
X030518Y024988D01*
X030491Y024953D01*
X030460Y024921D01*
X030427Y024892D01*
X030391Y024866D01*
X030353Y024844D01*
X030313Y024825D01*
X030272Y024809D01*
X030229Y024797D01*
X030186Y024789D01*
X030142Y024785D01*
X030098Y024785D01*
X030054Y024789D01*
X030011Y024797D01*
X029968Y024809D01*
X029927Y024825D01*
X029887Y024844D01*
X029849Y024866D01*
X029813Y024892D01*
X029780Y024921D01*
X029749Y024953D01*
X029722Y024988D01*
X029698Y025025D01*
X029677Y025064D01*
X029659Y025104D01*
X029646Y025146D01*
X029636Y025189D01*
X029630Y025233D01*
X029628Y025277D01*
X029234Y024391D02*
X015651Y024391D01*
X015651Y040218D01*
X019785Y040218D01*
X019785Y046714D01*
X029234Y046714D01*
X029234Y024391D01*
X029234Y002069D01*
X015651Y002069D01*
X015651Y017895D01*
X019785Y017895D01*
X019785Y024391D01*
X029234Y024391D01*
X027856Y023506D02*
X027858Y023550D01*
X027864Y023594D01*
X027874Y023637D01*
X027887Y023679D01*
X027905Y023719D01*
X027926Y023758D01*
X027950Y023795D01*
X027977Y023830D01*
X028008Y023862D01*
X028041Y023891D01*
X028077Y023917D01*
X028115Y023939D01*
X028155Y023958D01*
X028196Y023974D01*
X028239Y023986D01*
X028282Y023994D01*
X028326Y023998D01*
X028370Y023998D01*
X028414Y023994D01*
X028457Y023986D01*
X028500Y023974D01*
X028541Y023958D01*
X028581Y023939D01*
X028619Y023917D01*
X028655Y023891D01*
X028688Y023862D01*
X028719Y023830D01*
X028746Y023795D01*
X028770Y023758D01*
X028791Y023719D01*
X028809Y023679D01*
X028822Y023637D01*
X028832Y023594D01*
X028838Y023550D01*
X028840Y023506D01*
X028838Y023462D01*
X028832Y023418D01*
X028822Y023375D01*
X028809Y023333D01*
X028791Y023293D01*
X028770Y023254D01*
X028746Y023217D01*
X028719Y023182D01*
X028688Y023150D01*
X028655Y023121D01*
X028619Y023095D01*
X028581Y023073D01*
X028541Y023054D01*
X028500Y023038D01*
X028457Y023026D01*
X028414Y023018D01*
X028370Y023014D01*
X028326Y023014D01*
X028282Y023018D01*
X028239Y023026D01*
X028196Y023038D01*
X028155Y023054D01*
X028115Y023073D01*
X028077Y023095D01*
X028041Y023121D01*
X028008Y023150D01*
X027977Y023182D01*
X027950Y023217D01*
X027926Y023254D01*
X027905Y023293D01*
X027887Y023333D01*
X027874Y023375D01*
X027864Y023418D01*
X027858Y023462D01*
X027856Y023506D01*
X027856Y025277D02*
X027858Y025321D01*
X027864Y025365D01*
X027874Y025408D01*
X027887Y025450D01*
X027905Y025490D01*
X027926Y025529D01*
X027950Y025566D01*
X027977Y025601D01*
X028008Y025633D01*
X028041Y025662D01*
X028077Y025688D01*
X028115Y025710D01*
X028155Y025729D01*
X028196Y025745D01*
X028239Y025757D01*
X028282Y025765D01*
X028326Y025769D01*
X028370Y025769D01*
X028414Y025765D01*
X028457Y025757D01*
X028500Y025745D01*
X028541Y025729D01*
X028581Y025710D01*
X028619Y025688D01*
X028655Y025662D01*
X028688Y025633D01*
X028719Y025601D01*
X028746Y025566D01*
X028770Y025529D01*
X028791Y025490D01*
X028809Y025450D01*
X028822Y025408D01*
X028832Y025365D01*
X028838Y025321D01*
X028840Y025277D01*
X028838Y025233D01*
X028832Y025189D01*
X028822Y025146D01*
X028809Y025104D01*
X028791Y025064D01*
X028770Y025025D01*
X028746Y024988D01*
X028719Y024953D01*
X028688Y024921D01*
X028655Y024892D01*
X028619Y024866D01*
X028581Y024844D01*
X028541Y024825D01*
X028500Y024809D01*
X028457Y024797D01*
X028414Y024789D01*
X028370Y024785D01*
X028326Y024785D01*
X028282Y024789D01*
X028239Y024797D01*
X028196Y024809D01*
X028155Y024825D01*
X028115Y024844D01*
X028077Y024866D01*
X028041Y024892D01*
X028008Y024921D01*
X027977Y024953D01*
X027950Y024988D01*
X027926Y025025D01*
X027905Y025064D01*
X027887Y025104D01*
X027874Y025146D01*
X027864Y025189D01*
X027858Y025233D01*
X027856Y025277D01*
X020179Y023506D02*
X020181Y023550D01*
X020187Y023594D01*
X020197Y023637D01*
X020210Y023679D01*
X020228Y023719D01*
X020249Y023758D01*
X020273Y023795D01*
X020300Y023830D01*
X020331Y023862D01*
X020364Y023891D01*
X020400Y023917D01*
X020438Y023939D01*
X020478Y023958D01*
X020519Y023974D01*
X020562Y023986D01*
X020605Y023994D01*
X020649Y023998D01*
X020693Y023998D01*
X020737Y023994D01*
X020780Y023986D01*
X020823Y023974D01*
X020864Y023958D01*
X020904Y023939D01*
X020942Y023917D01*
X020978Y023891D01*
X021011Y023862D01*
X021042Y023830D01*
X021069Y023795D01*
X021093Y023758D01*
X021114Y023719D01*
X021132Y023679D01*
X021145Y023637D01*
X021155Y023594D01*
X021161Y023550D01*
X021163Y023506D01*
X021161Y023462D01*
X021155Y023418D01*
X021145Y023375D01*
X021132Y023333D01*
X021114Y023293D01*
X021093Y023254D01*
X021069Y023217D01*
X021042Y023182D01*
X021011Y023150D01*
X020978Y023121D01*
X020942Y023095D01*
X020904Y023073D01*
X020864Y023054D01*
X020823Y023038D01*
X020780Y023026D01*
X020737Y023018D01*
X020693Y023014D01*
X020649Y023014D01*
X020605Y023018D01*
X020562Y023026D01*
X020519Y023038D01*
X020478Y023054D01*
X020438Y023073D01*
X020400Y023095D01*
X020364Y023121D01*
X020331Y023150D01*
X020300Y023182D01*
X020273Y023217D01*
X020249Y023254D01*
X020228Y023293D01*
X020210Y023333D01*
X020197Y023375D01*
X020187Y023418D01*
X020181Y023462D01*
X020179Y023506D01*
X016045Y025277D02*
X016047Y025321D01*
X016053Y025365D01*
X016063Y025408D01*
X016076Y025450D01*
X016094Y025490D01*
X016115Y025529D01*
X016139Y025566D01*
X016166Y025601D01*
X016197Y025633D01*
X016230Y025662D01*
X016266Y025688D01*
X016304Y025710D01*
X016344Y025729D01*
X016385Y025745D01*
X016428Y025757D01*
X016471Y025765D01*
X016515Y025769D01*
X016559Y025769D01*
X016603Y025765D01*
X016646Y025757D01*
X016689Y025745D01*
X016730Y025729D01*
X016770Y025710D01*
X016808Y025688D01*
X016844Y025662D01*
X016877Y025633D01*
X016908Y025601D01*
X016935Y025566D01*
X016959Y025529D01*
X016980Y025490D01*
X016998Y025450D01*
X017011Y025408D01*
X017021Y025365D01*
X017027Y025321D01*
X017029Y025277D01*
X017027Y025233D01*
X017021Y025189D01*
X017011Y025146D01*
X016998Y025104D01*
X016980Y025064D01*
X016959Y025025D01*
X016935Y024988D01*
X016908Y024953D01*
X016877Y024921D01*
X016844Y024892D01*
X016808Y024866D01*
X016770Y024844D01*
X016730Y024825D01*
X016689Y024809D01*
X016646Y024797D01*
X016603Y024789D01*
X016559Y024785D01*
X016515Y024785D01*
X016471Y024789D01*
X016428Y024797D01*
X016385Y024809D01*
X016344Y024825D01*
X016304Y024844D01*
X016266Y024866D01*
X016230Y024892D01*
X016197Y024921D01*
X016166Y024953D01*
X016139Y024988D01*
X016115Y025025D01*
X016094Y025064D01*
X016076Y025104D01*
X016063Y025146D01*
X016053Y025189D01*
X016047Y025233D01*
X016045Y025277D01*
X015651Y024391D02*
X002069Y024391D01*
X002069Y040218D01*
X006202Y040218D01*
X006202Y046714D01*
X015651Y046714D01*
X015651Y024391D01*
X015651Y002069D01*
X002069Y002069D01*
X002069Y017895D01*
X006202Y017895D01*
X006202Y024391D01*
X015651Y024391D01*
X014273Y023506D02*
X014275Y023550D01*
X014281Y023594D01*
X014291Y023637D01*
X014304Y023679D01*
X014322Y023719D01*
X014343Y023758D01*
X014367Y023795D01*
X014394Y023830D01*
X014425Y023862D01*
X014458Y023891D01*
X014494Y023917D01*
X014532Y023939D01*
X014572Y023958D01*
X014613Y023974D01*
X014656Y023986D01*
X014699Y023994D01*
X014743Y023998D01*
X014787Y023998D01*
X014831Y023994D01*
X014874Y023986D01*
X014917Y023974D01*
X014958Y023958D01*
X014998Y023939D01*
X015036Y023917D01*
X015072Y023891D01*
X015105Y023862D01*
X015136Y023830D01*
X015163Y023795D01*
X015187Y023758D01*
X015208Y023719D01*
X015226Y023679D01*
X015239Y023637D01*
X015249Y023594D01*
X015255Y023550D01*
X015257Y023506D01*
X015255Y023462D01*
X015249Y023418D01*
X015239Y023375D01*
X015226Y023333D01*
X015208Y023293D01*
X015187Y023254D01*
X015163Y023217D01*
X015136Y023182D01*
X015105Y023150D01*
X015072Y023121D01*
X015036Y023095D01*
X014998Y023073D01*
X014958Y023054D01*
X014917Y023038D01*
X014874Y023026D01*
X014831Y023018D01*
X014787Y023014D01*
X014743Y023014D01*
X014699Y023018D01*
X014656Y023026D01*
X014613Y023038D01*
X014572Y023054D01*
X014532Y023073D01*
X014494Y023095D01*
X014458Y023121D01*
X014425Y023150D01*
X014394Y023182D01*
X014367Y023217D01*
X014343Y023254D01*
X014322Y023293D01*
X014304Y023333D01*
X014291Y023375D01*
X014281Y023418D01*
X014275Y023462D01*
X014273Y023506D01*
X014273Y025277D02*
X014275Y025321D01*
X014281Y025365D01*
X014291Y025408D01*
X014304Y025450D01*
X014322Y025490D01*
X014343Y025529D01*
X014367Y025566D01*
X014394Y025601D01*
X014425Y025633D01*
X014458Y025662D01*
X014494Y025688D01*
X014532Y025710D01*
X014572Y025729D01*
X014613Y025745D01*
X014656Y025757D01*
X014699Y025765D01*
X014743Y025769D01*
X014787Y025769D01*
X014831Y025765D01*
X014874Y025757D01*
X014917Y025745D01*
X014958Y025729D01*
X014998Y025710D01*
X015036Y025688D01*
X015072Y025662D01*
X015105Y025633D01*
X015136Y025601D01*
X015163Y025566D01*
X015187Y025529D01*
X015208Y025490D01*
X015226Y025450D01*
X015239Y025408D01*
X015249Y025365D01*
X015255Y025321D01*
X015257Y025277D01*
X015255Y025233D01*
X015249Y025189D01*
X015239Y025146D01*
X015226Y025104D01*
X015208Y025064D01*
X015187Y025025D01*
X015163Y024988D01*
X015136Y024953D01*
X015105Y024921D01*
X015072Y024892D01*
X015036Y024866D01*
X014998Y024844D01*
X014958Y024825D01*
X014917Y024809D01*
X014874Y024797D01*
X014831Y024789D01*
X014787Y024785D01*
X014743Y024785D01*
X014699Y024789D01*
X014656Y024797D01*
X014613Y024809D01*
X014572Y024825D01*
X014532Y024844D01*
X014494Y024866D01*
X014458Y024892D01*
X014425Y024921D01*
X014394Y024953D01*
X014367Y024988D01*
X014343Y025025D01*
X014322Y025064D01*
X014304Y025104D01*
X014291Y025146D01*
X014281Y025189D01*
X014275Y025233D01*
X014273Y025277D01*
X006596Y023506D02*
X006598Y023550D01*
X006604Y023594D01*
X006614Y023637D01*
X006627Y023679D01*
X006645Y023719D01*
X006666Y023758D01*
X006690Y023795D01*
X006717Y023830D01*
X006748Y023862D01*
X006781Y023891D01*
X006817Y023917D01*
X006855Y023939D01*
X006895Y023958D01*
X006936Y023974D01*
X006979Y023986D01*
X007022Y023994D01*
X007066Y023998D01*
X007110Y023998D01*
X007154Y023994D01*
X007197Y023986D01*
X007240Y023974D01*
X007281Y023958D01*
X007321Y023939D01*
X007359Y023917D01*
X007395Y023891D01*
X007428Y023862D01*
X007459Y023830D01*
X007486Y023795D01*
X007510Y023758D01*
X007531Y023719D01*
X007549Y023679D01*
X007562Y023637D01*
X007572Y023594D01*
X007578Y023550D01*
X007580Y023506D01*
X007578Y023462D01*
X007572Y023418D01*
X007562Y023375D01*
X007549Y023333D01*
X007531Y023293D01*
X007510Y023254D01*
X007486Y023217D01*
X007459Y023182D01*
X007428Y023150D01*
X007395Y023121D01*
X007359Y023095D01*
X007321Y023073D01*
X007281Y023054D01*
X007240Y023038D01*
X007197Y023026D01*
X007154Y023018D01*
X007110Y023014D01*
X007066Y023014D01*
X007022Y023018D01*
X006979Y023026D01*
X006936Y023038D01*
X006895Y023054D01*
X006855Y023073D01*
X006817Y023095D01*
X006781Y023121D01*
X006748Y023150D01*
X006717Y023182D01*
X006690Y023217D01*
X006666Y023254D01*
X006645Y023293D01*
X006627Y023333D01*
X006614Y023375D01*
X006604Y023418D01*
X006598Y023462D01*
X006596Y023506D01*
X002462Y025277D02*
X002464Y025321D01*
X002470Y025365D01*
X002480Y025408D01*
X002493Y025450D01*
X002511Y025490D01*
X002532Y025529D01*
X002556Y025566D01*
X002583Y025601D01*
X002614Y025633D01*
X002647Y025662D01*
X002683Y025688D01*
X002721Y025710D01*
X002761Y025729D01*
X002802Y025745D01*
X002845Y025757D01*
X002888Y025765D01*
X002932Y025769D01*
X002976Y025769D01*
X003020Y025765D01*
X003063Y025757D01*
X003106Y025745D01*
X003147Y025729D01*
X003187Y025710D01*
X003225Y025688D01*
X003261Y025662D01*
X003294Y025633D01*
X003325Y025601D01*
X003352Y025566D01*
X003376Y025529D01*
X003397Y025490D01*
X003415Y025450D01*
X003428Y025408D01*
X003438Y025365D01*
X003444Y025321D01*
X003446Y025277D01*
X003444Y025233D01*
X003438Y025189D01*
X003428Y025146D01*
X003415Y025104D01*
X003397Y025064D01*
X003376Y025025D01*
X003352Y024988D01*
X003325Y024953D01*
X003294Y024921D01*
X003261Y024892D01*
X003225Y024866D01*
X003187Y024844D01*
X003147Y024825D01*
X003106Y024809D01*
X003063Y024797D01*
X003020Y024789D01*
X002976Y024785D01*
X002932Y024785D01*
X002888Y024789D01*
X002845Y024797D01*
X002802Y024809D01*
X002761Y024825D01*
X002721Y024844D01*
X002683Y024866D01*
X002647Y024892D01*
X002614Y024921D01*
X002583Y024953D01*
X002556Y024988D01*
X002532Y025025D01*
X002511Y025064D01*
X002493Y025104D01*
X002480Y025146D01*
X002470Y025189D01*
X002464Y025233D01*
X002462Y025277D01*
X000100Y024391D02*
X000100Y046714D01*
X002069Y046714D01*
X002069Y048683D01*
X015651Y048683D01*
X015651Y000100D01*
X002069Y000100D01*
X000100Y000100D02*
X000100Y002069D01*
X002462Y002954D02*
X002464Y002998D01*
X002470Y003042D01*
X002480Y003085D01*
X002493Y003127D01*
X002511Y003167D01*
X002532Y003206D01*
X002556Y003243D01*
X002583Y003278D01*
X002614Y003310D01*
X002647Y003339D01*
X002683Y003365D01*
X002721Y003387D01*
X002761Y003406D01*
X002802Y003422D01*
X002845Y003434D01*
X002888Y003442D01*
X002932Y003446D01*
X002976Y003446D01*
X003020Y003442D01*
X003063Y003434D01*
X003106Y003422D01*
X003147Y003406D01*
X003187Y003387D01*
X003225Y003365D01*
X003261Y003339D01*
X003294Y003310D01*
X003325Y003278D01*
X003352Y003243D01*
X003376Y003206D01*
X003397Y003167D01*
X003415Y003127D01*
X003428Y003085D01*
X003438Y003042D01*
X003444Y002998D01*
X003446Y002954D01*
X003444Y002910D01*
X003438Y002866D01*
X003428Y002823D01*
X003415Y002781D01*
X003397Y002741D01*
X003376Y002702D01*
X003352Y002665D01*
X003325Y002630D01*
X003294Y002598D01*
X003261Y002569D01*
X003225Y002543D01*
X003187Y002521D01*
X003147Y002502D01*
X003106Y002486D01*
X003063Y002474D01*
X003020Y002466D01*
X002976Y002462D01*
X002932Y002462D01*
X002888Y002466D01*
X002845Y002474D01*
X002802Y002486D01*
X002761Y002502D01*
X002721Y002521D01*
X002683Y002543D01*
X002647Y002569D01*
X002614Y002598D01*
X002583Y002630D01*
X002556Y002665D01*
X002532Y002702D01*
X002511Y002741D01*
X002493Y002781D01*
X002480Y002823D01*
X002470Y002866D01*
X002464Y002910D01*
X002462Y002954D01*
X006360Y010612D02*
X006362Y010653D01*
X006368Y010694D01*
X006378Y010734D01*
X006391Y010773D01*
X006408Y010810D01*
X006429Y010846D01*
X006453Y010880D01*
X006480Y010911D01*
X006509Y010939D01*
X006542Y010965D01*
X006576Y010987D01*
X006613Y011006D01*
X006651Y011021D01*
X006691Y011033D01*
X006731Y011041D01*
X006772Y011045D01*
X006814Y011045D01*
X006855Y011041D01*
X006895Y011033D01*
X006935Y011021D01*
X006973Y011006D01*
X007009Y010987D01*
X007044Y010965D01*
X007077Y010939D01*
X007106Y010911D01*
X007133Y010880D01*
X007157Y010846D01*
X007178Y010810D01*
X007195Y010773D01*
X007208Y010734D01*
X007218Y010694D01*
X007224Y010653D01*
X007226Y010612D01*
X007224Y010571D01*
X007218Y010530D01*
X007208Y010490D01*
X007195Y010451D01*
X007178Y010414D01*
X007157Y010378D01*
X007133Y010344D01*
X007106Y010313D01*
X007077Y010285D01*
X007044Y010259D01*
X007010Y010237D01*
X006973Y010218D01*
X006935Y010203D01*
X006895Y010191D01*
X006855Y010183D01*
X006814Y010179D01*
X006772Y010179D01*
X006731Y010183D01*
X006691Y010191D01*
X006651Y010203D01*
X006613Y010218D01*
X006577Y010237D01*
X006542Y010259D01*
X006509Y010285D01*
X006480Y010313D01*
X006453Y010344D01*
X006429Y010378D01*
X006408Y010414D01*
X006391Y010451D01*
X006378Y010490D01*
X006368Y010530D01*
X006362Y010571D01*
X006360Y010612D01*
X014273Y002954D02*
X014275Y002998D01*
X014281Y003042D01*
X014291Y003085D01*
X014304Y003127D01*
X014322Y003167D01*
X014343Y003206D01*
X014367Y003243D01*
X014394Y003278D01*
X014425Y003310D01*
X014458Y003339D01*
X014494Y003365D01*
X014532Y003387D01*
X014572Y003406D01*
X014613Y003422D01*
X014656Y003434D01*
X014699Y003442D01*
X014743Y003446D01*
X014787Y003446D01*
X014831Y003442D01*
X014874Y003434D01*
X014917Y003422D01*
X014958Y003406D01*
X014998Y003387D01*
X015036Y003365D01*
X015072Y003339D01*
X015105Y003310D01*
X015136Y003278D01*
X015163Y003243D01*
X015187Y003206D01*
X015208Y003167D01*
X015226Y003127D01*
X015239Y003085D01*
X015249Y003042D01*
X015255Y002998D01*
X015257Y002954D01*
X015255Y002910D01*
X015249Y002866D01*
X015239Y002823D01*
X015226Y002781D01*
X015208Y002741D01*
X015187Y002702D01*
X015163Y002665D01*
X015136Y002630D01*
X015105Y002598D01*
X015072Y002569D01*
X015036Y002543D01*
X014998Y002521D01*
X014958Y002502D01*
X014917Y002486D01*
X014874Y002474D01*
X014831Y002466D01*
X014787Y002462D01*
X014743Y002462D01*
X014699Y002466D01*
X014656Y002474D01*
X014613Y002486D01*
X014572Y002502D01*
X014532Y002521D01*
X014494Y002543D01*
X014458Y002569D01*
X014425Y002598D01*
X014394Y002630D01*
X014367Y002665D01*
X014343Y002702D01*
X014322Y002741D01*
X014304Y002781D01*
X014291Y002823D01*
X014281Y002866D01*
X014275Y002910D01*
X014273Y002954D01*
X016045Y002954D02*
X016047Y002998D01*
X016053Y003042D01*
X016063Y003085D01*
X016076Y003127D01*
X016094Y003167D01*
X016115Y003206D01*
X016139Y003243D01*
X016166Y003278D01*
X016197Y003310D01*
X016230Y003339D01*
X016266Y003365D01*
X016304Y003387D01*
X016344Y003406D01*
X016385Y003422D01*
X016428Y003434D01*
X016471Y003442D01*
X016515Y003446D01*
X016559Y003446D01*
X016603Y003442D01*
X016646Y003434D01*
X016689Y003422D01*
X016730Y003406D01*
X016770Y003387D01*
X016808Y003365D01*
X016844Y003339D01*
X016877Y003310D01*
X016908Y003278D01*
X016935Y003243D01*
X016959Y003206D01*
X016980Y003167D01*
X016998Y003127D01*
X017011Y003085D01*
X017021Y003042D01*
X017027Y002998D01*
X017029Y002954D01*
X017027Y002910D01*
X017021Y002866D01*
X017011Y002823D01*
X016998Y002781D01*
X016980Y002741D01*
X016959Y002702D01*
X016935Y002665D01*
X016908Y002630D01*
X016877Y002598D01*
X016844Y002569D01*
X016808Y002543D01*
X016770Y002521D01*
X016730Y002502D01*
X016689Y002486D01*
X016646Y002474D01*
X016603Y002466D01*
X016559Y002462D01*
X016515Y002462D01*
X016471Y002466D01*
X016428Y002474D01*
X016385Y002486D01*
X016344Y002502D01*
X016304Y002521D01*
X016266Y002543D01*
X016230Y002569D01*
X016197Y002598D01*
X016166Y002630D01*
X016139Y002665D01*
X016115Y002702D01*
X016094Y002741D01*
X016076Y002781D01*
X016063Y002823D01*
X016053Y002866D01*
X016047Y002910D01*
X016045Y002954D01*
X015651Y000100D02*
X029234Y000100D01*
X029628Y002954D02*
X029630Y002998D01*
X029636Y003042D01*
X029646Y003085D01*
X029659Y003127D01*
X029677Y003167D01*
X029698Y003206D01*
X029722Y003243D01*
X029749Y003278D01*
X029780Y003310D01*
X029813Y003339D01*
X029849Y003365D01*
X029887Y003387D01*
X029927Y003406D01*
X029968Y003422D01*
X030011Y003434D01*
X030054Y003442D01*
X030098Y003446D01*
X030142Y003446D01*
X030186Y003442D01*
X030229Y003434D01*
X030272Y003422D01*
X030313Y003406D01*
X030353Y003387D01*
X030391Y003365D01*
X030427Y003339D01*
X030460Y003310D01*
X030491Y003278D01*
X030518Y003243D01*
X030542Y003206D01*
X030563Y003167D01*
X030581Y003127D01*
X030594Y003085D01*
X030604Y003042D01*
X030610Y002998D01*
X030612Y002954D01*
X030610Y002910D01*
X030604Y002866D01*
X030594Y002823D01*
X030581Y002781D01*
X030563Y002741D01*
X030542Y002702D01*
X030518Y002665D01*
X030491Y002630D01*
X030460Y002598D01*
X030427Y002569D01*
X030391Y002543D01*
X030353Y002521D01*
X030313Y002502D01*
X030272Y002486D01*
X030229Y002474D01*
X030186Y002466D01*
X030142Y002462D01*
X030098Y002462D01*
X030054Y002466D01*
X030011Y002474D01*
X029968Y002486D01*
X029927Y002502D01*
X029887Y002521D01*
X029849Y002543D01*
X029813Y002569D01*
X029780Y002598D01*
X029749Y002630D01*
X029722Y002665D01*
X029698Y002702D01*
X029677Y002741D01*
X029659Y002781D01*
X029646Y002823D01*
X029636Y002866D01*
X029630Y002910D01*
X029628Y002954D01*
X027856Y002954D02*
X027858Y002998D01*
X027864Y003042D01*
X027874Y003085D01*
X027887Y003127D01*
X027905Y003167D01*
X027926Y003206D01*
X027950Y003243D01*
X027977Y003278D01*
X028008Y003310D01*
X028041Y003339D01*
X028077Y003365D01*
X028115Y003387D01*
X028155Y003406D01*
X028196Y003422D01*
X028239Y003434D01*
X028282Y003442D01*
X028326Y003446D01*
X028370Y003446D01*
X028414Y003442D01*
X028457Y003434D01*
X028500Y003422D01*
X028541Y003406D01*
X028581Y003387D01*
X028619Y003365D01*
X028655Y003339D01*
X028688Y003310D01*
X028719Y003278D01*
X028746Y003243D01*
X028770Y003206D01*
X028791Y003167D01*
X028809Y003127D01*
X028822Y003085D01*
X028832Y003042D01*
X028838Y002998D01*
X028840Y002954D01*
X028838Y002910D01*
X028832Y002866D01*
X028822Y002823D01*
X028809Y002781D01*
X028791Y002741D01*
X028770Y002702D01*
X028746Y002665D01*
X028719Y002630D01*
X028688Y002598D01*
X028655Y002569D01*
X028619Y002543D01*
X028581Y002521D01*
X028541Y002502D01*
X028500Y002486D01*
X028457Y002474D01*
X028414Y002466D01*
X028370Y002462D01*
X028326Y002462D01*
X028282Y002466D01*
X028239Y002474D01*
X028196Y002486D01*
X028155Y002502D01*
X028115Y002521D01*
X028077Y002543D01*
X028041Y002569D01*
X028008Y002598D01*
X027977Y002630D01*
X027950Y002665D01*
X027926Y002702D01*
X027905Y002741D01*
X027887Y002781D01*
X027874Y002823D01*
X027864Y002866D01*
X027858Y002910D01*
X027856Y002954D01*
X033525Y010612D02*
X033527Y010653D01*
X033533Y010694D01*
X033543Y010734D01*
X033556Y010773D01*
X033573Y010810D01*
X033594Y010846D01*
X033618Y010880D01*
X033645Y010911D01*
X033674Y010939D01*
X033707Y010965D01*
X033741Y010987D01*
X033778Y011006D01*
X033816Y011021D01*
X033856Y011033D01*
X033896Y011041D01*
X033937Y011045D01*
X033979Y011045D01*
X034020Y011041D01*
X034060Y011033D01*
X034100Y011021D01*
X034138Y011006D01*
X034174Y010987D01*
X034209Y010965D01*
X034242Y010939D01*
X034271Y010911D01*
X034298Y010880D01*
X034322Y010846D01*
X034343Y010810D01*
X034360Y010773D01*
X034373Y010734D01*
X034383Y010694D01*
X034389Y010653D01*
X034391Y010612D01*
X034389Y010571D01*
X034383Y010530D01*
X034373Y010490D01*
X034360Y010451D01*
X034343Y010414D01*
X034322Y010378D01*
X034298Y010344D01*
X034271Y010313D01*
X034242Y010285D01*
X034209Y010259D01*
X034175Y010237D01*
X034138Y010218D01*
X034100Y010203D01*
X034060Y010191D01*
X034020Y010183D01*
X033979Y010179D01*
X033937Y010179D01*
X033896Y010183D01*
X033856Y010191D01*
X033816Y010203D01*
X033778Y010218D01*
X033742Y010237D01*
X033707Y010259D01*
X033674Y010285D01*
X033645Y010313D01*
X033618Y010344D01*
X033594Y010378D01*
X033573Y010414D01*
X033556Y010451D01*
X033543Y010490D01*
X033533Y010530D01*
X033527Y010571D01*
X033525Y010612D01*
X041439Y002954D02*
X041441Y002998D01*
X041447Y003042D01*
X041457Y003085D01*
X041470Y003127D01*
X041488Y003167D01*
X041509Y003206D01*
X041533Y003243D01*
X041560Y003278D01*
X041591Y003310D01*
X041624Y003339D01*
X041660Y003365D01*
X041698Y003387D01*
X041738Y003406D01*
X041779Y003422D01*
X041822Y003434D01*
X041865Y003442D01*
X041909Y003446D01*
X041953Y003446D01*
X041997Y003442D01*
X042040Y003434D01*
X042083Y003422D01*
X042124Y003406D01*
X042164Y003387D01*
X042202Y003365D01*
X042238Y003339D01*
X042271Y003310D01*
X042302Y003278D01*
X042329Y003243D01*
X042353Y003206D01*
X042374Y003167D01*
X042392Y003127D01*
X042405Y003085D01*
X042415Y003042D01*
X042421Y002998D01*
X042423Y002954D01*
X042421Y002910D01*
X042415Y002866D01*
X042405Y002823D01*
X042392Y002781D01*
X042374Y002741D01*
X042353Y002702D01*
X042329Y002665D01*
X042302Y002630D01*
X042271Y002598D01*
X042238Y002569D01*
X042202Y002543D01*
X042164Y002521D01*
X042124Y002502D01*
X042083Y002486D01*
X042040Y002474D01*
X041997Y002466D01*
X041953Y002462D01*
X041909Y002462D01*
X041865Y002466D01*
X041822Y002474D01*
X041779Y002486D01*
X041738Y002502D01*
X041698Y002521D01*
X041660Y002543D01*
X041624Y002569D01*
X041591Y002598D01*
X041560Y002630D01*
X041533Y002665D01*
X041509Y002702D01*
X041488Y002741D01*
X041470Y002781D01*
X041457Y002823D01*
X041447Y002866D01*
X041441Y002910D01*
X041439Y002954D01*
X042817Y000100D02*
X044785Y000100D01*
X044785Y002069D01*
X019943Y010612D02*
X019945Y010653D01*
X019951Y010694D01*
X019961Y010734D01*
X019974Y010773D01*
X019991Y010810D01*
X020012Y010846D01*
X020036Y010880D01*
X020063Y010911D01*
X020092Y010939D01*
X020125Y010965D01*
X020159Y010987D01*
X020196Y011006D01*
X020234Y011021D01*
X020274Y011033D01*
X020314Y011041D01*
X020355Y011045D01*
X020397Y011045D01*
X020438Y011041D01*
X020478Y011033D01*
X020518Y011021D01*
X020556Y011006D01*
X020592Y010987D01*
X020627Y010965D01*
X020660Y010939D01*
X020689Y010911D01*
X020716Y010880D01*
X020740Y010846D01*
X020761Y010810D01*
X020778Y010773D01*
X020791Y010734D01*
X020801Y010694D01*
X020807Y010653D01*
X020809Y010612D01*
X020807Y010571D01*
X020801Y010530D01*
X020791Y010490D01*
X020778Y010451D01*
X020761Y010414D01*
X020740Y010378D01*
X020716Y010344D01*
X020689Y010313D01*
X020660Y010285D01*
X020627Y010259D01*
X020593Y010237D01*
X020556Y010218D01*
X020518Y010203D01*
X020478Y010191D01*
X020438Y010183D01*
X020397Y010179D01*
X020355Y010179D01*
X020314Y010183D01*
X020274Y010191D01*
X020234Y010203D01*
X020196Y010218D01*
X020160Y010237D01*
X020125Y010259D01*
X020092Y010285D01*
X020063Y010313D01*
X020036Y010344D01*
X020012Y010378D01*
X019991Y010414D01*
X019974Y010451D01*
X019961Y010490D01*
X019951Y010530D01*
X019945Y010571D01*
X019943Y010612D01*
X019943Y032935D02*
X019945Y032976D01*
X019951Y033017D01*
X019961Y033057D01*
X019974Y033096D01*
X019991Y033133D01*
X020012Y033169D01*
X020036Y033203D01*
X020063Y033234D01*
X020092Y033262D01*
X020125Y033288D01*
X020159Y033310D01*
X020196Y033329D01*
X020234Y033344D01*
X020274Y033356D01*
X020314Y033364D01*
X020355Y033368D01*
X020397Y033368D01*
X020438Y033364D01*
X020478Y033356D01*
X020518Y033344D01*
X020556Y033329D01*
X020592Y033310D01*
X020627Y033288D01*
X020660Y033262D01*
X020689Y033234D01*
X020716Y033203D01*
X020740Y033169D01*
X020761Y033133D01*
X020778Y033096D01*
X020791Y033057D01*
X020801Y033017D01*
X020807Y032976D01*
X020809Y032935D01*
X020807Y032894D01*
X020801Y032853D01*
X020791Y032813D01*
X020778Y032774D01*
X020761Y032737D01*
X020740Y032701D01*
X020716Y032667D01*
X020689Y032636D01*
X020660Y032608D01*
X020627Y032582D01*
X020593Y032560D01*
X020556Y032541D01*
X020518Y032526D01*
X020478Y032514D01*
X020438Y032506D01*
X020397Y032502D01*
X020355Y032502D01*
X020314Y032506D01*
X020274Y032514D01*
X020234Y032526D01*
X020196Y032541D01*
X020160Y032560D01*
X020125Y032582D01*
X020092Y032608D01*
X020063Y032636D01*
X020036Y032667D01*
X020012Y032701D01*
X019991Y032737D01*
X019974Y032774D01*
X019961Y032813D01*
X019951Y032853D01*
X019945Y032894D01*
X019943Y032935D01*
X020179Y045828D02*
X020181Y045872D01*
X020187Y045916D01*
X020197Y045959D01*
X020210Y046001D01*
X020228Y046041D01*
X020249Y046080D01*
X020273Y046117D01*
X020300Y046152D01*
X020331Y046184D01*
X020364Y046213D01*
X020400Y046239D01*
X020438Y046261D01*
X020478Y046280D01*
X020519Y046296D01*
X020562Y046308D01*
X020605Y046316D01*
X020649Y046320D01*
X020693Y046320D01*
X020737Y046316D01*
X020780Y046308D01*
X020823Y046296D01*
X020864Y046280D01*
X020904Y046261D01*
X020942Y046239D01*
X020978Y046213D01*
X021011Y046184D01*
X021042Y046152D01*
X021069Y046117D01*
X021093Y046080D01*
X021114Y046041D01*
X021132Y046001D01*
X021145Y045959D01*
X021155Y045916D01*
X021161Y045872D01*
X021163Y045828D01*
X021161Y045784D01*
X021155Y045740D01*
X021145Y045697D01*
X021132Y045655D01*
X021114Y045615D01*
X021093Y045576D01*
X021069Y045539D01*
X021042Y045504D01*
X021011Y045472D01*
X020978Y045443D01*
X020942Y045417D01*
X020904Y045395D01*
X020864Y045376D01*
X020823Y045360D01*
X020780Y045348D01*
X020737Y045340D01*
X020693Y045336D01*
X020649Y045336D01*
X020605Y045340D01*
X020562Y045348D01*
X020519Y045360D01*
X020478Y045376D01*
X020438Y045395D01*
X020400Y045417D01*
X020364Y045443D01*
X020331Y045472D01*
X020300Y045504D01*
X020273Y045539D01*
X020249Y045576D01*
X020228Y045615D01*
X020210Y045655D01*
X020197Y045697D01*
X020187Y045740D01*
X020181Y045784D01*
X020179Y045828D01*
X015651Y048683D02*
X029234Y048683D01*
X027856Y045828D02*
X027858Y045872D01*
X027864Y045916D01*
X027874Y045959D01*
X027887Y046001D01*
X027905Y046041D01*
X027926Y046080D01*
X027950Y046117D01*
X027977Y046152D01*
X028008Y046184D01*
X028041Y046213D01*
X028077Y046239D01*
X028115Y046261D01*
X028155Y046280D01*
X028196Y046296D01*
X028239Y046308D01*
X028282Y046316D01*
X028326Y046320D01*
X028370Y046320D01*
X028414Y046316D01*
X028457Y046308D01*
X028500Y046296D01*
X028541Y046280D01*
X028581Y046261D01*
X028619Y046239D01*
X028655Y046213D01*
X028688Y046184D01*
X028719Y046152D01*
X028746Y046117D01*
X028770Y046080D01*
X028791Y046041D01*
X028809Y046001D01*
X028822Y045959D01*
X028832Y045916D01*
X028838Y045872D01*
X028840Y045828D01*
X028838Y045784D01*
X028832Y045740D01*
X028822Y045697D01*
X028809Y045655D01*
X028791Y045615D01*
X028770Y045576D01*
X028746Y045539D01*
X028719Y045504D01*
X028688Y045472D01*
X028655Y045443D01*
X028619Y045417D01*
X028581Y045395D01*
X028541Y045376D01*
X028500Y045360D01*
X028457Y045348D01*
X028414Y045340D01*
X028370Y045336D01*
X028326Y045336D01*
X028282Y045340D01*
X028239Y045348D01*
X028196Y045360D01*
X028155Y045376D01*
X028115Y045395D01*
X028077Y045417D01*
X028041Y045443D01*
X028008Y045472D01*
X027977Y045504D01*
X027950Y045539D01*
X027926Y045576D01*
X027905Y045615D01*
X027887Y045655D01*
X027874Y045697D01*
X027864Y045740D01*
X027858Y045784D01*
X027856Y045828D01*
X033762Y045828D02*
X033764Y045872D01*
X033770Y045916D01*
X033780Y045959D01*
X033793Y046001D01*
X033811Y046041D01*
X033832Y046080D01*
X033856Y046117D01*
X033883Y046152D01*
X033914Y046184D01*
X033947Y046213D01*
X033983Y046239D01*
X034021Y046261D01*
X034061Y046280D01*
X034102Y046296D01*
X034145Y046308D01*
X034188Y046316D01*
X034232Y046320D01*
X034276Y046320D01*
X034320Y046316D01*
X034363Y046308D01*
X034406Y046296D01*
X034447Y046280D01*
X034487Y046261D01*
X034525Y046239D01*
X034561Y046213D01*
X034594Y046184D01*
X034625Y046152D01*
X034652Y046117D01*
X034676Y046080D01*
X034697Y046041D01*
X034715Y046001D01*
X034728Y045959D01*
X034738Y045916D01*
X034744Y045872D01*
X034746Y045828D01*
X034744Y045784D01*
X034738Y045740D01*
X034728Y045697D01*
X034715Y045655D01*
X034697Y045615D01*
X034676Y045576D01*
X034652Y045539D01*
X034625Y045504D01*
X034594Y045472D01*
X034561Y045443D01*
X034525Y045417D01*
X034487Y045395D01*
X034447Y045376D01*
X034406Y045360D01*
X034363Y045348D01*
X034320Y045340D01*
X034276Y045336D01*
X034232Y045336D01*
X034188Y045340D01*
X034145Y045348D01*
X034102Y045360D01*
X034061Y045376D01*
X034021Y045395D01*
X033983Y045417D01*
X033947Y045443D01*
X033914Y045472D01*
X033883Y045504D01*
X033856Y045539D01*
X033832Y045576D01*
X033811Y045615D01*
X033793Y045655D01*
X033780Y045697D01*
X033770Y045740D01*
X033764Y045784D01*
X033762Y045828D01*
X041439Y045828D02*
X041441Y045872D01*
X041447Y045916D01*
X041457Y045959D01*
X041470Y046001D01*
X041488Y046041D01*
X041509Y046080D01*
X041533Y046117D01*
X041560Y046152D01*
X041591Y046184D01*
X041624Y046213D01*
X041660Y046239D01*
X041698Y046261D01*
X041738Y046280D01*
X041779Y046296D01*
X041822Y046308D01*
X041865Y046316D01*
X041909Y046320D01*
X041953Y046320D01*
X041997Y046316D01*
X042040Y046308D01*
X042083Y046296D01*
X042124Y046280D01*
X042164Y046261D01*
X042202Y046239D01*
X042238Y046213D01*
X042271Y046184D01*
X042302Y046152D01*
X042329Y046117D01*
X042353Y046080D01*
X042374Y046041D01*
X042392Y046001D01*
X042405Y045959D01*
X042415Y045916D01*
X042421Y045872D01*
X042423Y045828D01*
X042421Y045784D01*
X042415Y045740D01*
X042405Y045697D01*
X042392Y045655D01*
X042374Y045615D01*
X042353Y045576D01*
X042329Y045539D01*
X042302Y045504D01*
X042271Y045472D01*
X042238Y045443D01*
X042202Y045417D01*
X042164Y045395D01*
X042124Y045376D01*
X042083Y045360D01*
X042040Y045348D01*
X041997Y045340D01*
X041953Y045336D01*
X041909Y045336D01*
X041865Y045340D01*
X041822Y045348D01*
X041779Y045360D01*
X041738Y045376D01*
X041698Y045395D01*
X041660Y045417D01*
X041624Y045443D01*
X041591Y045472D01*
X041560Y045504D01*
X041533Y045539D01*
X041509Y045576D01*
X041488Y045615D01*
X041470Y045655D01*
X041457Y045697D01*
X041447Y045740D01*
X041441Y045784D01*
X041439Y045828D01*
X042817Y048683D02*
X044785Y048683D01*
X044785Y046714D01*
X033525Y032935D02*
X033527Y032976D01*
X033533Y033017D01*
X033543Y033057D01*
X033556Y033096D01*
X033573Y033133D01*
X033594Y033169D01*
X033618Y033203D01*
X033645Y033234D01*
X033674Y033262D01*
X033707Y033288D01*
X033741Y033310D01*
X033778Y033329D01*
X033816Y033344D01*
X033856Y033356D01*
X033896Y033364D01*
X033937Y033368D01*
X033979Y033368D01*
X034020Y033364D01*
X034060Y033356D01*
X034100Y033344D01*
X034138Y033329D01*
X034174Y033310D01*
X034209Y033288D01*
X034242Y033262D01*
X034271Y033234D01*
X034298Y033203D01*
X034322Y033169D01*
X034343Y033133D01*
X034360Y033096D01*
X034373Y033057D01*
X034383Y033017D01*
X034389Y032976D01*
X034391Y032935D01*
X034389Y032894D01*
X034383Y032853D01*
X034373Y032813D01*
X034360Y032774D01*
X034343Y032737D01*
X034322Y032701D01*
X034298Y032667D01*
X034271Y032636D01*
X034242Y032608D01*
X034209Y032582D01*
X034175Y032560D01*
X034138Y032541D01*
X034100Y032526D01*
X034060Y032514D01*
X034020Y032506D01*
X033979Y032502D01*
X033937Y032502D01*
X033896Y032506D01*
X033856Y032514D01*
X033816Y032526D01*
X033778Y032541D01*
X033742Y032560D01*
X033707Y032582D01*
X033674Y032608D01*
X033645Y032636D01*
X033618Y032667D01*
X033594Y032701D01*
X033573Y032737D01*
X033556Y032774D01*
X033543Y032813D01*
X033533Y032853D01*
X033527Y032894D01*
X033525Y032935D01*
X014273Y045828D02*
X014275Y045872D01*
X014281Y045916D01*
X014291Y045959D01*
X014304Y046001D01*
X014322Y046041D01*
X014343Y046080D01*
X014367Y046117D01*
X014394Y046152D01*
X014425Y046184D01*
X014458Y046213D01*
X014494Y046239D01*
X014532Y046261D01*
X014572Y046280D01*
X014613Y046296D01*
X014656Y046308D01*
X014699Y046316D01*
X014743Y046320D01*
X014787Y046320D01*
X014831Y046316D01*
X014874Y046308D01*
X014917Y046296D01*
X014958Y046280D01*
X014998Y046261D01*
X015036Y046239D01*
X015072Y046213D01*
X015105Y046184D01*
X015136Y046152D01*
X015163Y046117D01*
X015187Y046080D01*
X015208Y046041D01*
X015226Y046001D01*
X015239Y045959D01*
X015249Y045916D01*
X015255Y045872D01*
X015257Y045828D01*
X015255Y045784D01*
X015249Y045740D01*
X015239Y045697D01*
X015226Y045655D01*
X015208Y045615D01*
X015187Y045576D01*
X015163Y045539D01*
X015136Y045504D01*
X015105Y045472D01*
X015072Y045443D01*
X015036Y045417D01*
X014998Y045395D01*
X014958Y045376D01*
X014917Y045360D01*
X014874Y045348D01*
X014831Y045340D01*
X014787Y045336D01*
X014743Y045336D01*
X014699Y045340D01*
X014656Y045348D01*
X014613Y045360D01*
X014572Y045376D01*
X014532Y045395D01*
X014494Y045417D01*
X014458Y045443D01*
X014425Y045472D01*
X014394Y045504D01*
X014367Y045539D01*
X014343Y045576D01*
X014322Y045615D01*
X014304Y045655D01*
X014291Y045697D01*
X014281Y045740D01*
X014275Y045784D01*
X014273Y045828D01*
X006596Y045828D02*
X006598Y045872D01*
X006604Y045916D01*
X006614Y045959D01*
X006627Y046001D01*
X006645Y046041D01*
X006666Y046080D01*
X006690Y046117D01*
X006717Y046152D01*
X006748Y046184D01*
X006781Y046213D01*
X006817Y046239D01*
X006855Y046261D01*
X006895Y046280D01*
X006936Y046296D01*
X006979Y046308D01*
X007022Y046316D01*
X007066Y046320D01*
X007110Y046320D01*
X007154Y046316D01*
X007197Y046308D01*
X007240Y046296D01*
X007281Y046280D01*
X007321Y046261D01*
X007359Y046239D01*
X007395Y046213D01*
X007428Y046184D01*
X007459Y046152D01*
X007486Y046117D01*
X007510Y046080D01*
X007531Y046041D01*
X007549Y046001D01*
X007562Y045959D01*
X007572Y045916D01*
X007578Y045872D01*
X007580Y045828D01*
X007578Y045784D01*
X007572Y045740D01*
X007562Y045697D01*
X007549Y045655D01*
X007531Y045615D01*
X007510Y045576D01*
X007486Y045539D01*
X007459Y045504D01*
X007428Y045472D01*
X007395Y045443D01*
X007359Y045417D01*
X007321Y045395D01*
X007281Y045376D01*
X007240Y045360D01*
X007197Y045348D01*
X007154Y045340D01*
X007110Y045336D01*
X007066Y045336D01*
X007022Y045340D01*
X006979Y045348D01*
X006936Y045360D01*
X006895Y045376D01*
X006855Y045395D01*
X006817Y045417D01*
X006781Y045443D01*
X006748Y045472D01*
X006717Y045504D01*
X006690Y045539D01*
X006666Y045576D01*
X006645Y045615D01*
X006627Y045655D01*
X006614Y045697D01*
X006604Y045740D01*
X006598Y045784D01*
X006596Y045828D01*
X002069Y048683D02*
X000100Y048683D01*
X000100Y046714D01*
X006360Y032935D02*
X006362Y032976D01*
X006368Y033017D01*
X006378Y033057D01*
X006391Y033096D01*
X006408Y033133D01*
X006429Y033169D01*
X006453Y033203D01*
X006480Y033234D01*
X006509Y033262D01*
X006542Y033288D01*
X006576Y033310D01*
X006613Y033329D01*
X006651Y033344D01*
X006691Y033356D01*
X006731Y033364D01*
X006772Y033368D01*
X006814Y033368D01*
X006855Y033364D01*
X006895Y033356D01*
X006935Y033344D01*
X006973Y033329D01*
X007009Y033310D01*
X007044Y033288D01*
X007077Y033262D01*
X007106Y033234D01*
X007133Y033203D01*
X007157Y033169D01*
X007178Y033133D01*
X007195Y033096D01*
X007208Y033057D01*
X007218Y033017D01*
X007224Y032976D01*
X007226Y032935D01*
X007224Y032894D01*
X007218Y032853D01*
X007208Y032813D01*
X007195Y032774D01*
X007178Y032737D01*
X007157Y032701D01*
X007133Y032667D01*
X007106Y032636D01*
X007077Y032608D01*
X007044Y032582D01*
X007010Y032560D01*
X006973Y032541D01*
X006935Y032526D01*
X006895Y032514D01*
X006855Y032506D01*
X006814Y032502D01*
X006772Y032502D01*
X006731Y032506D01*
X006691Y032514D01*
X006651Y032526D01*
X006613Y032541D01*
X006577Y032560D01*
X006542Y032582D01*
X006509Y032608D01*
X006480Y032636D01*
X006453Y032667D01*
X006429Y032701D01*
X006408Y032737D01*
X006391Y032774D01*
X006378Y032813D01*
X006368Y032853D01*
X006362Y032894D01*
X006360Y032935D01*
D11*
X009694Y025140D02*
X009849Y025140D01*
X009849Y024830D01*
X009694Y024830D01*
X009642Y024882D01*
X009642Y025089D01*
X009694Y025140D01*
X010043Y025140D02*
X010043Y025192D01*
X010043Y025037D02*
X010043Y024830D01*
X010094Y024830D02*
X009991Y024830D01*
X010043Y025037D02*
X010094Y025037D01*
X010481Y022109D02*
X010636Y022109D01*
X010636Y021799D01*
X010481Y021799D01*
X010429Y021850D01*
X010429Y022057D01*
X010481Y022109D01*
X010830Y022109D02*
X010830Y022161D01*
X010830Y022005D02*
X010830Y021799D01*
X010882Y021799D02*
X010778Y021799D01*
X010830Y022005D02*
X010882Y022005D01*
X023225Y024882D02*
X023276Y024830D01*
X023432Y024830D01*
X023432Y025140D01*
X023276Y025140D01*
X023225Y025089D01*
X023225Y024882D01*
X023574Y024830D02*
X023677Y024830D01*
X023625Y024830D02*
X023625Y025037D01*
X023677Y025037D01*
X023625Y025140D02*
X023625Y025192D01*
X024064Y022109D02*
X024219Y022109D01*
X024219Y021799D01*
X024064Y021799D01*
X024012Y021850D01*
X024012Y022057D01*
X024064Y022109D01*
X024413Y022109D02*
X024413Y022161D01*
X024413Y022005D02*
X024413Y021799D01*
X024464Y021799D02*
X024361Y021799D01*
X024413Y022005D02*
X024464Y022005D01*
X036807Y024882D02*
X036859Y024830D01*
X037014Y024830D01*
X037014Y025140D01*
X036859Y025140D01*
X036807Y025089D01*
X036807Y024882D01*
X037156Y024830D02*
X037260Y024830D01*
X037208Y024830D02*
X037208Y025037D01*
X037260Y025037D01*
X037208Y025140D02*
X037208Y025192D01*
X037646Y022109D02*
X037802Y022109D01*
X037802Y021799D01*
X037646Y021799D01*
X037595Y021850D01*
X037595Y022057D01*
X037646Y022109D01*
X037995Y022109D02*
X037995Y022161D01*
X037995Y022005D02*
X037995Y021799D01*
X037944Y021799D02*
X038047Y021799D01*
X038047Y022005D02*
X037995Y022005D01*
X037208Y002869D02*
X037208Y002817D01*
X037208Y002714D02*
X037208Y002507D01*
X037260Y002507D02*
X037156Y002507D01*
X037014Y002507D02*
X036859Y002507D01*
X036807Y002559D01*
X036807Y002766D01*
X036859Y002817D01*
X037014Y002817D01*
X037014Y002507D01*
X037208Y002714D02*
X037260Y002714D01*
X023677Y002714D02*
X023625Y002714D01*
X023625Y002507D01*
X023574Y002507D02*
X023677Y002507D01*
X023432Y002507D02*
X023276Y002507D01*
X023225Y002559D01*
X023225Y002766D01*
X023276Y002817D01*
X023432Y002817D01*
X023432Y002507D01*
X023625Y002817D02*
X023625Y002869D01*
X010094Y002714D02*
X010043Y002714D01*
X010043Y002507D01*
X010094Y002507D02*
X009991Y002507D01*
X009849Y002507D02*
X009694Y002507D01*
X009642Y002559D01*
X009642Y002766D01*
X009694Y002817D01*
X009849Y002817D01*
X009849Y002507D01*
X010043Y002817D02*
X010043Y002869D01*
X010481Y044121D02*
X010429Y044173D01*
X010429Y044380D01*
X010481Y044432D01*
X010636Y044432D01*
X010636Y044121D01*
X010481Y044121D01*
X010778Y044121D02*
X010882Y044121D01*
X010830Y044121D02*
X010830Y044328D01*
X010882Y044328D01*
X010830Y044432D02*
X010830Y044483D01*
X024012Y044380D02*
X024064Y044432D01*
X024219Y044432D01*
X024219Y044121D01*
X024064Y044121D01*
X024012Y044173D01*
X024012Y044380D01*
X024413Y044432D02*
X024413Y044483D01*
X024413Y044328D02*
X024413Y044121D01*
X024464Y044121D02*
X024361Y044121D01*
X024413Y044328D02*
X024464Y044328D01*
X037595Y044380D02*
X037646Y044432D01*
X037802Y044432D01*
X037802Y044121D01*
X037646Y044121D01*
X037595Y044173D01*
X037595Y044380D01*
X037995Y044432D02*
X037995Y044483D01*
X037995Y044328D02*
X037995Y044121D01*
X037944Y044121D02*
X038047Y044121D01*
X038047Y044328D02*
X037995Y044328D01*
D12*
X038250Y043171D02*
X041517Y043171D01*
X041872Y043525D01*
X041872Y044234D01*
X041950Y042580D02*
X041084Y042580D01*
X041006Y042502D01*
X041950Y042580D02*
X042580Y041950D01*
X042580Y035730D01*
X041635Y034785D01*
X041635Y034194D01*
X041084Y033643D01*
X040730Y033643D01*
X039470Y033643D02*
X039470Y033801D01*
X039470Y033643D02*
X039194Y033368D01*
X038525Y033368D01*
X038289Y033604D01*
X038289Y035336D01*
X038761Y035809D01*
X038761Y036950D01*
X038407Y035848D02*
X038131Y035848D01*
X037541Y036439D01*
X037502Y035572D02*
X036399Y036675D01*
X036399Y038525D01*
X036025Y038899D01*
X036025Y040163D01*
X036439Y039667D02*
X036439Y041832D01*
X036108Y042163D01*
X036025Y042163D01*
X037738Y042383D02*
X037935Y042187D01*
X039352Y042187D01*
X038170Y040336D02*
X037850Y040336D01*
X038170Y040336D02*
X038170Y040122D01*
X038170Y039967D02*
X037850Y039967D01*
X037850Y039754D01*
X037850Y039599D02*
X037850Y039492D01*
X037850Y039546D02*
X038170Y039546D01*
X038170Y039599D02*
X038170Y039492D01*
X038170Y039247D02*
X037850Y039247D01*
X037850Y039353D02*
X037850Y039140D01*
X037903Y038985D02*
X037850Y038932D01*
X037850Y038825D01*
X037903Y038772D01*
X038117Y038772D01*
X038170Y038825D01*
X038170Y038932D01*
X038117Y038985D01*
X037903Y038985D01*
X037850Y038617D02*
X038170Y038617D01*
X038063Y038617D02*
X038063Y038457D01*
X038010Y038403D01*
X037903Y038403D01*
X037850Y038457D01*
X037850Y038617D01*
X038063Y038510D02*
X038170Y038403D01*
X038170Y039754D02*
X038170Y039967D01*
X038010Y039967D02*
X038010Y039861D01*
X036714Y039391D02*
X036439Y039667D01*
X036714Y039391D02*
X036714Y036832D01*
X037974Y035572D01*
X036360Y032856D02*
X035218Y032856D01*
X033998Y034076D01*
X033998Y035139D01*
X033131Y036006D01*
X033131Y037187D01*
X033722Y037777D01*
X033722Y040257D01*
X032147Y037187D02*
X031084Y037187D01*
X030572Y036911D01*
X031399Y036124D01*
X032817Y036124D01*
X032895Y036202D01*
X032895Y036439D01*
X032147Y037187D01*
X032176Y037158D02*
X031031Y037158D01*
X030886Y037080D02*
X032254Y037080D01*
X032333Y037001D02*
X030740Y037001D01*
X030594Y036923D02*
X032411Y036923D01*
X032490Y036844D02*
X030643Y036844D01*
X030725Y036766D02*
X032568Y036766D01*
X032647Y036687D02*
X030808Y036687D01*
X030890Y036609D02*
X032725Y036609D01*
X032804Y036530D02*
X030972Y036530D01*
X031055Y036452D02*
X032882Y036452D01*
X032895Y036373D02*
X031137Y036373D01*
X031220Y036295D02*
X032895Y036295D01*
X032895Y036216D02*
X031302Y036216D01*
X031385Y036138D02*
X032831Y036138D01*
X028998Y035730D02*
X028053Y034785D01*
X028053Y034194D01*
X027502Y033643D01*
X027147Y033643D01*
X025887Y033643D02*
X025887Y033801D01*
X025887Y033643D02*
X025612Y033368D01*
X024943Y033368D01*
X024706Y033604D01*
X024706Y035336D01*
X025179Y035809D01*
X025179Y036950D01*
X024824Y035848D02*
X024549Y035848D01*
X023958Y036439D01*
X023919Y035572D02*
X022817Y036675D01*
X022817Y038525D01*
X022443Y038899D01*
X022443Y040163D01*
X022856Y039667D02*
X022856Y041832D01*
X022525Y042163D01*
X022443Y042163D01*
X024155Y042383D02*
X024352Y042187D01*
X025769Y042187D01*
X024667Y043171D02*
X027935Y043171D01*
X028289Y043525D01*
X028289Y044234D01*
X028368Y042580D02*
X027502Y042580D01*
X027423Y042502D01*
X028368Y042580D02*
X028998Y041950D01*
X028998Y035730D01*
X024391Y035572D02*
X023131Y036832D01*
X023131Y039391D01*
X022856Y039667D01*
X024267Y039599D02*
X024267Y039492D01*
X024267Y039546D02*
X024588Y039546D01*
X024588Y039599D02*
X024588Y039492D01*
X024588Y039247D02*
X024267Y039247D01*
X024267Y039353D02*
X024267Y039140D01*
X024321Y038985D02*
X024534Y038985D01*
X024588Y038932D01*
X024588Y038825D01*
X024534Y038772D01*
X024321Y038772D01*
X024267Y038825D01*
X024267Y038932D01*
X024321Y038985D01*
X024267Y038617D02*
X024267Y038457D01*
X024321Y038403D01*
X024427Y038403D01*
X024481Y038457D01*
X024481Y038617D01*
X024588Y038617D02*
X024267Y038617D01*
X024481Y038510D02*
X024588Y038403D01*
X024588Y039754D02*
X024588Y039967D01*
X024267Y039967D01*
X024267Y039754D01*
X024427Y039861D02*
X024427Y039967D01*
X024588Y040122D02*
X024588Y040336D01*
X024267Y040336D01*
X020139Y040257D02*
X020139Y037777D01*
X019549Y037187D01*
X019549Y036006D01*
X020415Y035139D01*
X020415Y034076D01*
X021635Y032856D01*
X022777Y032856D01*
X023722Y029746D02*
X022502Y028525D01*
X020257Y028525D01*
X020730Y027108D02*
X020730Y026911D01*
X020868Y026773D01*
X021281Y026773D01*
X021675Y025769D02*
X021557Y025651D01*
X021557Y025100D01*
X021832Y024824D02*
X020887Y024824D01*
X020612Y025100D01*
X020494Y025100D01*
X021675Y025769D02*
X021990Y025769D01*
X022265Y025257D02*
X021832Y024824D01*
X024194Y025691D02*
X024943Y026439D01*
X024943Y027620D01*
X028289Y021911D02*
X028289Y021202D01*
X027935Y020848D01*
X024667Y020848D01*
X024155Y020061D02*
X024352Y019864D01*
X025769Y019864D01*
X027423Y020179D02*
X027502Y020257D01*
X028368Y020257D01*
X028998Y019628D01*
X028998Y013407D01*
X028053Y012462D01*
X028053Y011872D01*
X027502Y011320D01*
X027147Y011320D01*
X025887Y011320D02*
X025887Y011478D01*
X025887Y011320D02*
X025612Y011045D01*
X024943Y011045D01*
X024706Y011281D01*
X024706Y013013D01*
X025179Y013486D01*
X025179Y014628D01*
X024824Y013525D02*
X024549Y013525D01*
X023958Y014116D01*
X023919Y013250D02*
X022817Y014352D01*
X022817Y016202D01*
X022443Y016576D01*
X022443Y017840D01*
X022856Y017344D02*
X022856Y019509D01*
X022525Y019840D01*
X022443Y019840D01*
X024267Y018013D02*
X024588Y018013D01*
X024588Y017799D01*
X024588Y017644D02*
X024588Y017431D01*
X024588Y017276D02*
X024588Y017169D01*
X024588Y017223D02*
X024267Y017223D01*
X024267Y017276D02*
X024267Y017169D01*
X024267Y017031D02*
X024267Y016817D01*
X024267Y016924D02*
X024588Y016924D01*
X024534Y016662D02*
X024588Y016609D01*
X024588Y016502D01*
X024534Y016449D01*
X024321Y016449D01*
X024267Y016502D01*
X024267Y016609D01*
X024321Y016662D01*
X024534Y016662D01*
X024481Y016294D02*
X024481Y016134D01*
X024427Y016080D01*
X024321Y016080D01*
X024267Y016134D01*
X024267Y016294D01*
X024588Y016294D01*
X024481Y016187D02*
X024588Y016080D01*
X024267Y017431D02*
X024267Y017644D01*
X024588Y017644D01*
X024427Y017644D02*
X024427Y017538D01*
X023131Y017069D02*
X022856Y017344D01*
X023131Y017069D02*
X023131Y014509D01*
X024391Y013250D01*
X022777Y010533D02*
X021635Y010533D01*
X020415Y011754D01*
X020415Y012817D01*
X019549Y013683D01*
X019549Y014864D01*
X020139Y015454D01*
X020139Y017935D01*
X018565Y014864D02*
X017502Y014864D01*
X016990Y014588D01*
X017817Y013801D01*
X019234Y013801D01*
X019313Y013880D01*
X019313Y014116D01*
X018565Y014864D01*
X018643Y014786D02*
X017356Y014786D01*
X017210Y014707D02*
X018721Y014707D01*
X018800Y014629D02*
X017065Y014629D01*
X017030Y014550D02*
X018878Y014550D01*
X018957Y014472D02*
X017112Y014472D01*
X017195Y014393D02*
X019035Y014393D01*
X019114Y014315D02*
X017277Y014315D01*
X017360Y014236D02*
X019192Y014236D01*
X019271Y014158D02*
X017442Y014158D01*
X017524Y014079D02*
X019313Y014079D01*
X019313Y014001D02*
X017607Y014001D01*
X017689Y013922D02*
X019313Y013922D01*
X019277Y013844D02*
X017772Y013844D01*
X015415Y013407D02*
X014470Y012462D01*
X014470Y011872D01*
X013919Y011320D01*
X013565Y011320D01*
X012305Y011320D02*
X012305Y011478D01*
X012305Y011320D02*
X012029Y011045D01*
X011360Y011045D01*
X011124Y011281D01*
X011124Y013013D01*
X011596Y013486D01*
X011596Y014628D01*
X011242Y013525D02*
X010966Y013525D01*
X010376Y014116D01*
X010336Y013250D02*
X009234Y014352D01*
X009234Y016202D01*
X008860Y016576D01*
X008860Y017840D01*
X009273Y017344D02*
X009273Y019509D01*
X008943Y019840D01*
X008860Y019840D01*
X010572Y020061D02*
X010769Y019864D01*
X012187Y019864D01*
X011084Y020848D02*
X014352Y020848D01*
X014706Y021202D01*
X014706Y021911D01*
X014785Y020257D02*
X013919Y020257D01*
X013840Y020179D01*
X014785Y020257D02*
X015415Y019628D01*
X015415Y013407D01*
X011005Y016080D02*
X010898Y016187D01*
X010898Y016134D02*
X010898Y016294D01*
X011005Y016294D02*
X010685Y016294D01*
X010685Y016134D01*
X010738Y016080D01*
X010845Y016080D01*
X010898Y016134D01*
X010952Y016449D02*
X010738Y016449D01*
X010685Y016502D01*
X010685Y016609D01*
X010738Y016662D01*
X010952Y016662D01*
X011005Y016609D01*
X011005Y016502D01*
X010952Y016449D01*
X010685Y016817D02*
X010685Y017031D01*
X010685Y016924D02*
X011005Y016924D01*
X011005Y017169D02*
X011005Y017276D01*
X011005Y017223D02*
X010685Y017223D01*
X010685Y017276D02*
X010685Y017169D01*
X010685Y017431D02*
X010685Y017644D01*
X011005Y017644D01*
X011005Y017431D01*
X010845Y017538D02*
X010845Y017644D01*
X011005Y017799D02*
X011005Y018013D01*
X010685Y018013D01*
X009549Y017069D02*
X009273Y017344D01*
X009549Y017069D02*
X009549Y014509D01*
X010809Y013250D01*
X009194Y010533D02*
X008053Y010533D01*
X006832Y011754D01*
X006832Y012817D01*
X005966Y013683D01*
X005966Y014864D01*
X006557Y015454D01*
X006557Y017935D01*
X004982Y014864D02*
X003919Y014864D01*
X003407Y014588D01*
X004234Y013801D01*
X005651Y013801D01*
X005730Y013880D01*
X005730Y014116D01*
X004982Y014864D01*
X005060Y014786D02*
X003774Y014786D01*
X003628Y014707D02*
X005139Y014707D01*
X005217Y014629D02*
X003482Y014629D01*
X003447Y014550D02*
X005296Y014550D01*
X005374Y014472D02*
X003530Y014472D01*
X003612Y014393D02*
X005453Y014393D01*
X005531Y014315D02*
X003694Y014315D01*
X003777Y014236D02*
X005610Y014236D01*
X005688Y014158D02*
X003859Y014158D01*
X003942Y014079D02*
X005730Y014079D01*
X005730Y014001D02*
X004024Y014001D01*
X004107Y013922D02*
X005730Y013922D01*
X005694Y013844D02*
X004189Y013844D01*
X010139Y007423D02*
X008919Y006202D01*
X006675Y006202D01*
X007147Y004785D02*
X007147Y004588D01*
X007285Y004450D01*
X007698Y004450D01*
X008092Y003446D02*
X008407Y003446D01*
X008092Y003446D02*
X007974Y003328D01*
X007974Y002777D01*
X008250Y002502D02*
X007305Y002502D01*
X007029Y002777D01*
X006911Y002777D01*
X008250Y002502D02*
X008683Y002935D01*
X010612Y003368D02*
X011360Y004116D01*
X011360Y005297D01*
X004726Y004431D02*
X004726Y002895D01*
X018309Y002895D02*
X018309Y004431D01*
X020257Y006202D02*
X022502Y006202D01*
X023722Y007423D01*
X024943Y005297D02*
X024943Y004116D01*
X024194Y003368D01*
X022265Y002935D02*
X021832Y002502D01*
X020887Y002502D01*
X020612Y002777D01*
X020494Y002777D01*
X021557Y002777D02*
X021557Y003328D01*
X021675Y003446D01*
X021990Y003446D01*
X021281Y004450D02*
X020868Y004450D01*
X020730Y004588D01*
X020730Y004785D01*
X030572Y014588D02*
X031084Y014864D01*
X032147Y014864D01*
X032895Y014116D01*
X032895Y013880D01*
X032817Y013801D01*
X031399Y013801D01*
X030572Y014588D01*
X030612Y014550D02*
X032461Y014550D01*
X032539Y014472D02*
X030695Y014472D01*
X030777Y014393D02*
X032618Y014393D01*
X032696Y014315D02*
X030860Y014315D01*
X030942Y014236D02*
X032775Y014236D01*
X032853Y014158D02*
X031025Y014158D01*
X031107Y014079D02*
X032895Y014079D01*
X032895Y014001D02*
X031189Y014001D01*
X031272Y013922D02*
X032895Y013922D01*
X032859Y013844D02*
X031354Y013844D01*
X030939Y014786D02*
X032225Y014786D01*
X032304Y014707D02*
X030793Y014707D01*
X030647Y014629D02*
X032382Y014629D01*
X033131Y014864D02*
X033131Y013683D01*
X033998Y012817D01*
X033998Y011754D01*
X035218Y010533D01*
X036360Y010533D01*
X038289Y011281D02*
X038525Y011045D01*
X039194Y011045D01*
X039470Y011320D01*
X039470Y011478D01*
X038289Y011281D02*
X038289Y013013D01*
X038761Y013486D01*
X038761Y014628D01*
X038407Y013525D02*
X038131Y013525D01*
X037541Y014116D01*
X037502Y013250D02*
X036399Y014352D01*
X036399Y016202D01*
X036025Y016576D01*
X036025Y017840D01*
X036439Y017344D02*
X036439Y019509D01*
X036108Y019840D01*
X036025Y019840D01*
X037738Y020061D02*
X037935Y019864D01*
X039352Y019864D01*
X038250Y020848D02*
X041517Y020848D01*
X041872Y021202D01*
X041872Y021911D01*
X041950Y020257D02*
X041084Y020257D01*
X041006Y020179D01*
X041950Y020257D02*
X042580Y019628D01*
X042580Y013407D01*
X041635Y012462D01*
X041635Y011872D01*
X041084Y011320D01*
X040730Y011320D01*
X037974Y013250D02*
X036714Y014509D01*
X036714Y017069D01*
X036439Y017344D01*
X037850Y017276D02*
X037850Y017169D01*
X037850Y017223D02*
X038170Y017223D01*
X038170Y017276D02*
X038170Y017169D01*
X038170Y016924D02*
X037850Y016924D01*
X037850Y017031D02*
X037850Y016817D01*
X037903Y016662D02*
X037850Y016609D01*
X037850Y016502D01*
X037903Y016449D01*
X038117Y016449D01*
X038170Y016502D01*
X038170Y016609D01*
X038117Y016662D01*
X037903Y016662D01*
X037850Y016294D02*
X037850Y016134D01*
X037903Y016080D01*
X038010Y016080D01*
X038063Y016134D01*
X038063Y016294D01*
X038063Y016187D02*
X038170Y016080D01*
X038170Y016294D02*
X037850Y016294D01*
X037850Y017431D02*
X037850Y017644D01*
X038170Y017644D01*
X038170Y017431D01*
X038010Y017538D02*
X038010Y017644D01*
X038170Y017799D02*
X038170Y018013D01*
X037850Y018013D01*
X033722Y017935D02*
X033722Y015454D01*
X033131Y014864D01*
X037305Y007423D02*
X036084Y006202D01*
X033840Y006202D01*
X034313Y004785D02*
X034313Y004588D01*
X034450Y004450D01*
X034864Y004450D01*
X035257Y003446D02*
X035572Y003446D01*
X035257Y003446D02*
X035139Y003328D01*
X035139Y002777D01*
X035415Y002502D02*
X034470Y002502D01*
X034194Y002777D01*
X034076Y002777D01*
X035415Y002502D02*
X035848Y002935D01*
X037777Y003368D02*
X038525Y004116D01*
X038525Y005297D01*
X031891Y004431D02*
X031891Y002895D01*
X034470Y024824D02*
X035415Y024824D01*
X035848Y025257D01*
X035572Y025769D02*
X035257Y025769D01*
X035139Y025651D01*
X035139Y025100D01*
X034470Y024824D02*
X034194Y025100D01*
X034076Y025100D01*
X034450Y026773D02*
X034313Y026911D01*
X034313Y027108D01*
X034450Y026773D02*
X034864Y026773D01*
X033840Y028525D02*
X036084Y028525D01*
X037305Y029746D01*
X038525Y027620D02*
X038525Y026439D01*
X037777Y025691D01*
X031891Y025218D02*
X031891Y026754D01*
X019313Y036202D02*
X019234Y036124D01*
X017817Y036124D01*
X016990Y036911D01*
X017502Y037187D01*
X018565Y037187D01*
X019313Y036439D01*
X019313Y036202D01*
X019313Y036216D02*
X017719Y036216D01*
X017637Y036295D02*
X019313Y036295D01*
X019313Y036373D02*
X017555Y036373D01*
X017472Y036452D02*
X019300Y036452D01*
X019221Y036530D02*
X017390Y036530D01*
X017307Y036609D02*
X019143Y036609D01*
X019064Y036687D02*
X017225Y036687D01*
X017142Y036766D02*
X018986Y036766D01*
X018907Y036844D02*
X017060Y036844D01*
X017011Y036923D02*
X018829Y036923D01*
X018750Y037001D02*
X017157Y037001D01*
X017303Y037080D02*
X018672Y037080D01*
X018593Y037158D02*
X017449Y037158D01*
X017802Y036138D02*
X019248Y036138D01*
X015415Y035730D02*
X014470Y034785D01*
X014470Y034194D01*
X013919Y033643D01*
X013565Y033643D01*
X012305Y033643D02*
X012305Y033801D01*
X012305Y033643D02*
X012029Y033368D01*
X011360Y033368D01*
X011124Y033604D01*
X011124Y035336D01*
X011596Y035809D01*
X011596Y036950D01*
X011242Y035848D02*
X010966Y035848D01*
X010376Y036439D01*
X010336Y035572D02*
X009234Y036675D01*
X009234Y038525D01*
X008860Y038899D01*
X008860Y040163D01*
X009273Y039667D02*
X009273Y041832D01*
X008943Y042163D01*
X008860Y042163D01*
X010572Y042383D02*
X010769Y042187D01*
X012187Y042187D01*
X011084Y043171D02*
X014352Y043171D01*
X014706Y043525D01*
X014706Y044234D01*
X014785Y042580D02*
X013919Y042580D01*
X013840Y042502D01*
X014785Y042580D02*
X015415Y041950D01*
X015415Y035730D01*
X011005Y038403D02*
X010898Y038510D01*
X010898Y038457D02*
X010898Y038617D01*
X011005Y038617D02*
X010685Y038617D01*
X010685Y038457D01*
X010738Y038403D01*
X010845Y038403D01*
X010898Y038457D01*
X010952Y038772D02*
X010738Y038772D01*
X010685Y038825D01*
X010685Y038932D01*
X010738Y038985D01*
X010952Y038985D01*
X011005Y038932D01*
X011005Y038825D01*
X010952Y038772D01*
X010685Y039140D02*
X010685Y039353D01*
X010685Y039247D02*
X011005Y039247D01*
X011005Y039492D02*
X011005Y039599D01*
X011005Y039546D02*
X010685Y039546D01*
X010685Y039599D02*
X010685Y039492D01*
X010685Y039754D02*
X010685Y039967D01*
X011005Y039967D01*
X011005Y039754D01*
X010845Y039861D02*
X010845Y039967D01*
X011005Y040122D02*
X011005Y040336D01*
X010685Y040336D01*
X009549Y039391D02*
X009273Y039667D01*
X009549Y039391D02*
X009549Y036832D01*
X010809Y035572D01*
X009194Y032856D02*
X008053Y032856D01*
X006832Y034076D01*
X006832Y035139D01*
X005966Y036006D01*
X005966Y037187D01*
X006557Y037777D01*
X006557Y040257D01*
X004982Y037187D02*
X003919Y037187D01*
X003407Y036911D01*
X004234Y036124D01*
X005651Y036124D01*
X005730Y036202D01*
X005730Y036439D01*
X004982Y037187D01*
X005010Y037158D02*
X003866Y037158D01*
X003720Y037080D02*
X005089Y037080D01*
X005167Y037001D02*
X003574Y037001D01*
X003429Y036923D02*
X005246Y036923D01*
X005324Y036844D02*
X003477Y036844D01*
X003560Y036766D02*
X005403Y036766D01*
X005481Y036687D02*
X003642Y036687D01*
X003725Y036609D02*
X005560Y036609D01*
X005638Y036530D02*
X003807Y036530D01*
X003889Y036452D02*
X005717Y036452D01*
X005730Y036373D02*
X003972Y036373D01*
X004054Y036295D02*
X005730Y036295D01*
X005730Y036216D02*
X004137Y036216D01*
X004219Y036138D02*
X005665Y036138D01*
X010139Y029746D02*
X008919Y028525D01*
X006675Y028525D01*
X007147Y027108D02*
X007147Y026911D01*
X007285Y026773D01*
X007698Y026773D01*
X008092Y025769D02*
X008407Y025769D01*
X008092Y025769D02*
X007974Y025651D01*
X007974Y025100D01*
X008250Y024824D02*
X007305Y024824D01*
X007029Y025100D01*
X006911Y025100D01*
X008250Y024824D02*
X008683Y025257D01*
X010612Y025691D02*
X011360Y026439D01*
X011360Y027620D01*
X004726Y026754D02*
X004726Y025218D01*
X018309Y025218D02*
X018309Y026754D01*
D13*
X018643Y017423D03*
X016675Y017423D03*
X005061Y017423D03*
X003092Y017423D03*
X003092Y039746D03*
X005061Y039746D03*
X016675Y039746D03*
X018643Y039746D03*
X030257Y039746D03*
X032226Y039746D03*
X032226Y017423D03*
X030257Y017423D03*
D14*
X030061Y013998D03*
X030061Y012935D03*
X030061Y011793D03*
X030061Y010454D03*
X030061Y009116D03*
X030061Y007777D03*
X030061Y006439D03*
X028604Y008257D03*
X028604Y009257D03*
X028604Y010257D03*
X028604Y011257D03*
X028604Y012257D03*
X016478Y011793D03*
X016478Y012935D03*
X016478Y013998D03*
X015021Y012257D03*
X015021Y011257D03*
X015021Y010257D03*
X015021Y009257D03*
X015021Y008257D03*
X016478Y007777D03*
X016478Y006439D03*
X016478Y009116D03*
X016478Y010454D03*
X002895Y010454D03*
X002895Y009116D03*
X002895Y007777D03*
X002895Y006439D03*
X002895Y011793D03*
X002895Y012935D03*
X002895Y013998D03*
X002895Y028761D03*
X002895Y030100D03*
X002895Y031439D03*
X002895Y032777D03*
X002895Y034116D03*
X002895Y035257D03*
X002895Y036320D03*
X015021Y034580D03*
X015021Y033580D03*
X015021Y032580D03*
X015021Y031580D03*
X015021Y030580D03*
X016478Y030100D03*
X016478Y028761D03*
X016478Y031439D03*
X016478Y032777D03*
X016478Y034116D03*
X016478Y035257D03*
X016478Y036320D03*
X028604Y034580D03*
X028604Y033580D03*
X028604Y032580D03*
X028604Y031580D03*
X028604Y030580D03*
X030061Y030100D03*
X030061Y028761D03*
X030061Y031439D03*
X030061Y032777D03*
X030061Y034116D03*
X030061Y035257D03*
X030061Y036320D03*
X042187Y034580D03*
X042187Y033580D03*
X042187Y032580D03*
X042187Y031580D03*
X042187Y030580D03*
X042187Y012257D03*
X042187Y011257D03*
X042187Y010257D03*
X042187Y009257D03*
X042187Y008257D03*
D15*
X041072Y006544D03*
X039680Y005152D03*
X043801Y001084D03*
X027489Y006544D03*
X026097Y005152D03*
X013906Y006544D03*
X012514Y005152D03*
X001084Y001084D03*
X012514Y027475D03*
X013906Y028867D03*
X026097Y027475D03*
X027489Y028867D03*
X039680Y027475D03*
X041072Y028867D03*
X001084Y047698D03*
D16*
X008860Y042163D03*
X008860Y041163D03*
X008860Y040163D03*
X022443Y040163D03*
X022443Y041163D03*
X022443Y042163D03*
X036025Y042163D03*
X036025Y041163D03*
X036025Y040163D03*
X036025Y019840D03*
X036025Y018840D03*
X036025Y017840D03*
X022443Y017840D03*
X022443Y018840D03*
X022443Y019840D03*
X008860Y019840D03*
X008860Y018840D03*
X008860Y017840D03*
D17*
X008446Y023761D03*
X013407Y023761D03*
X016439Y026805D03*
X016439Y027805D03*
X022029Y023761D03*
X026990Y023761D03*
X030021Y026805D03*
X030021Y027805D03*
X035612Y023761D03*
X040572Y023761D03*
X030021Y005482D03*
X030021Y004482D03*
X016439Y004482D03*
X016439Y005482D03*
X002856Y005482D03*
X002856Y004482D03*
X002856Y026805D03*
X002856Y027805D03*
X008446Y046084D03*
X013407Y046084D03*
X022029Y046084D03*
X026990Y046084D03*
X035612Y046084D03*
X040572Y046084D03*
D18*
X035971Y029037D03*
X034071Y029037D03*
X022389Y029037D03*
X020489Y029037D03*
X008806Y029037D03*
X006906Y029037D03*
X006906Y006714D03*
X008806Y006714D03*
X020489Y006714D03*
X022389Y006714D03*
X034071Y006714D03*
X035971Y006714D03*
D19*
X035887Y012383D03*
X022305Y012383D03*
X008722Y012383D03*
X008722Y034706D03*
X022305Y034706D03*
X035887Y034706D03*
D20*
X033958Y036478D03*
X020376Y036478D03*
X006793Y036478D03*
X006793Y014155D03*
X020376Y014155D03*
X033958Y014155D03*
D21*
X034824Y014628D03*
X034982Y015612D03*
X035297Y015986D03*
X035533Y015651D03*
X035887Y015651D03*
X035710Y016301D03*
X035651Y016675D03*
X035651Y017029D03*
X036439Y016754D03*
X037541Y017187D03*
X037305Y018880D03*
X037305Y019313D03*
X036635Y019785D03*
X036675Y020533D03*
X037738Y020061D03*
X037895Y020572D03*
X038250Y020848D03*
X039352Y019864D03*
X039273Y018939D03*
X040494Y018860D03*
X040494Y019194D03*
X040494Y019529D03*
X041006Y020179D03*
X041242Y021320D03*
X041163Y021675D03*
X041163Y022226D03*
X041596Y022344D03*
X041872Y021911D03*
X042443Y021793D03*
X041163Y022738D03*
X039706Y025080D03*
X040257Y026084D03*
X041084Y026576D03*
X039352Y028171D03*
X038525Y027620D03*
X038171Y027738D03*
X038151Y027364D03*
X037777Y027698D03*
X037285Y027954D03*
X037462Y028525D03*
X036990Y028604D03*
X036517Y028604D03*
X035809Y027659D03*
X035494Y027423D03*
X035336Y028250D03*
X034746Y028210D03*
X034313Y028210D03*
X033840Y028525D03*
X033309Y028387D03*
X033309Y029135D03*
X033309Y029726D03*
X033309Y030474D03*
X032344Y031006D03*
X031399Y030769D03*
X031399Y029431D03*
X032344Y029667D03*
X030907Y028131D03*
X031891Y026754D03*
X031891Y025218D03*
X031399Y024756D03*
X034076Y025100D03*
X034706Y025179D03*
X035139Y025100D03*
X035494Y025454D03*
X035572Y025769D03*
X035848Y025257D03*
X035966Y024903D03*
X036399Y026281D03*
X036399Y026675D03*
X036399Y027069D03*
X036793Y027069D03*
X037187Y027069D03*
X037187Y026675D03*
X037187Y026281D03*
X036793Y026281D03*
X036793Y026675D03*
X037777Y025691D03*
X038092Y024824D03*
X036242Y023368D03*
X036517Y022895D03*
X036478Y022462D03*
X036754Y021950D03*
X035021Y020966D03*
X034509Y021006D03*
X034903Y019431D03*
X035494Y019509D03*
X035376Y018722D03*
X035376Y018407D03*
X035376Y018092D03*
X035651Y018250D03*
X035651Y018565D03*
X034549Y018840D03*
X034194Y018210D03*
X033722Y017935D03*
X034155Y016950D03*
X034155Y016635D03*
X034982Y017029D03*
X033013Y015612D03*
X032698Y015612D03*
X032383Y015612D03*
X032069Y015612D03*
X031714Y016202D03*
X031399Y016202D03*
X031084Y016202D03*
X032029Y014706D03*
X032029Y014352D03*
X031675Y014352D03*
X032029Y013998D03*
X032383Y013998D03*
X032383Y014352D03*
X032738Y013998D03*
X033348Y012167D03*
X033309Y010828D03*
X033348Y009490D03*
X032344Y008683D03*
X031399Y008446D03*
X032344Y007344D03*
X033309Y007403D03*
X033309Y008151D03*
X034391Y007364D03*
X033309Y006813D03*
X033309Y006065D03*
X033840Y006202D03*
X034313Y005887D03*
X034746Y005887D03*
X035336Y005927D03*
X035809Y005336D03*
X035494Y005100D03*
X034864Y004450D03*
X034313Y004785D03*
X033880Y004883D03*
X033880Y003978D03*
X034234Y003919D03*
X034076Y002777D03*
X034706Y002856D03*
X035139Y002777D03*
X035494Y003131D03*
X035572Y003446D03*
X035848Y002935D03*
X035966Y002580D03*
X036399Y003958D03*
X036793Y003958D03*
X037187Y003958D03*
X037187Y004352D03*
X037187Y004746D03*
X036793Y004746D03*
X036399Y004746D03*
X036399Y004352D03*
X036793Y004352D03*
X037777Y003368D03*
X038092Y002502D03*
X039706Y002757D03*
X040257Y003761D03*
X041084Y004254D03*
X039352Y005848D03*
X038525Y005297D03*
X038171Y005415D03*
X038151Y005041D03*
X037777Y005376D03*
X037285Y005631D03*
X037462Y006202D03*
X036990Y006281D03*
X036517Y006281D03*
X035651Y007364D03*
X037305Y007423D03*
X036911Y009391D03*
X036419Y009982D03*
X036360Y010533D03*
X038683Y011478D03*
X039470Y011478D03*
X039706Y012620D03*
X040730Y011320D03*
X041439Y011320D03*
X041084Y013328D03*
X042069Y014313D03*
X040691Y014864D03*
X040080Y015100D03*
X039746Y015218D03*
X039411Y015100D03*
X038761Y014628D03*
X038407Y013525D03*
X037974Y013250D03*
X037502Y013250D03*
X037541Y014116D03*
X036163Y014194D03*
X039667Y016517D03*
X040002Y014057D03*
X042069Y017029D03*
X042265Y019313D03*
X038958Y027187D03*
X037305Y029746D03*
X035651Y029687D03*
X034391Y029687D03*
X033348Y031813D03*
X033309Y033151D03*
X033348Y034490D03*
X032738Y036320D03*
X032383Y036320D03*
X032029Y036320D03*
X032029Y036675D03*
X032029Y037029D03*
X031675Y036675D03*
X032383Y036675D03*
X032383Y037935D03*
X032069Y037935D03*
X032698Y037935D03*
X033013Y037935D03*
X034155Y038958D03*
X034155Y039273D03*
X034982Y039352D03*
X035651Y039352D03*
X035651Y038998D03*
X035710Y038624D03*
X035297Y038309D03*
X035533Y037974D03*
X035887Y037974D03*
X034982Y037935D03*
X034824Y036950D03*
X036163Y036517D03*
X037541Y036439D03*
X037502Y035572D03*
X037974Y035572D03*
X038407Y035848D03*
X038761Y036950D03*
X039411Y037423D03*
X039746Y037541D03*
X040080Y037423D03*
X040691Y037187D03*
X040002Y036380D03*
X041084Y035651D03*
X042069Y036635D03*
X042069Y039352D03*
X040494Y041183D03*
X040494Y041517D03*
X040494Y041852D03*
X041006Y042502D03*
X041242Y043643D03*
X041163Y043998D03*
X041163Y044549D03*
X041596Y044667D03*
X041872Y044234D03*
X042443Y044116D03*
X041163Y045061D03*
X039352Y042187D03*
X039273Y041261D03*
X037895Y042895D03*
X038250Y043171D03*
X037738Y042383D03*
X037305Y041635D03*
X037305Y041202D03*
X036635Y042108D03*
X036675Y042856D03*
X036754Y044273D03*
X036478Y044785D03*
X036517Y045218D03*
X036242Y045691D03*
X035021Y043289D03*
X034509Y043328D03*
X034903Y041754D03*
X035494Y041832D03*
X035376Y041045D03*
X035376Y040730D03*
X035376Y040415D03*
X035651Y040572D03*
X035651Y040887D03*
X034549Y041163D03*
X034194Y040533D03*
X033722Y040257D03*
X031714Y038525D03*
X031399Y038525D03*
X031084Y038525D03*
X028486Y039352D03*
X026911Y041183D03*
X026911Y041517D03*
X026911Y041852D03*
X027423Y042502D03*
X027659Y043643D03*
X027580Y043998D03*
X027580Y044549D03*
X028013Y044667D03*
X028289Y044234D03*
X028860Y044116D03*
X027580Y045061D03*
X025769Y042187D03*
X025691Y041261D03*
X024155Y042383D03*
X024313Y042895D03*
X024667Y043171D03*
X023092Y042856D03*
X023053Y042108D03*
X023722Y041635D03*
X023722Y041202D03*
X022069Y040887D03*
X022069Y040572D03*
X021793Y040415D03*
X021793Y040730D03*
X021793Y041045D03*
X021911Y041832D03*
X021320Y041754D03*
X020966Y041163D03*
X020612Y040533D03*
X020139Y040257D03*
X020572Y039273D03*
X020572Y038958D03*
X021399Y039352D03*
X022069Y039352D03*
X022069Y038998D03*
X022128Y038624D03*
X021714Y038309D03*
X021950Y037974D03*
X022305Y037974D03*
X021399Y037935D03*
X021242Y036950D03*
X022580Y036517D03*
X023958Y036439D03*
X023919Y035572D03*
X024391Y035572D03*
X024824Y035848D03*
X025179Y036950D03*
X025828Y037423D03*
X026163Y037541D03*
X026498Y037423D03*
X027108Y037187D03*
X026419Y036380D03*
X027502Y035651D03*
X028486Y036635D03*
X030809Y034864D03*
X030809Y033565D03*
X030809Y032226D03*
X028092Y029746D03*
X028368Y029116D03*
X027738Y031517D03*
X027856Y033643D03*
X027147Y033643D03*
X025887Y033801D03*
X025100Y033801D03*
X026124Y034943D03*
X023328Y031714D03*
X022836Y032305D03*
X022777Y032856D03*
X025691Y031399D03*
X025691Y030769D03*
X023722Y029746D03*
X023407Y028604D03*
X022935Y028604D03*
X023880Y028525D03*
X023702Y027954D03*
X024194Y027698D03*
X024588Y027738D03*
X024943Y027620D03*
X024569Y027364D03*
X025376Y027187D03*
X025769Y028171D03*
X027502Y026576D03*
X026675Y026084D03*
X026124Y025080D03*
X024509Y024824D03*
X024194Y025691D03*
X023604Y026281D03*
X023210Y026281D03*
X022817Y026281D03*
X022817Y026675D03*
X023210Y026675D03*
X023210Y027069D03*
X022817Y027069D03*
X022226Y027659D03*
X021911Y027423D03*
X021754Y028250D03*
X021163Y028210D03*
X020730Y028210D03*
X020257Y028525D03*
X019726Y028387D03*
X019726Y029135D03*
X019726Y029726D03*
X019726Y030474D03*
X018761Y031006D03*
X017817Y030769D03*
X017817Y029431D03*
X018761Y029667D03*
X017324Y028131D03*
X018309Y026754D03*
X018309Y025218D03*
X017817Y024756D03*
X020297Y026301D03*
X020651Y026242D03*
X021281Y026773D03*
X020730Y027108D03*
X020297Y027206D03*
X020494Y025100D03*
X021124Y025179D03*
X021557Y025100D03*
X021911Y025454D03*
X021990Y025769D03*
X022265Y025257D03*
X022383Y024903D03*
X023604Y026675D03*
X023604Y027069D03*
X022069Y029687D03*
X020809Y029687D03*
X019765Y031813D03*
X019726Y033151D03*
X019765Y034490D03*
X019155Y036320D03*
X018801Y036320D03*
X018446Y036320D03*
X018446Y036675D03*
X018092Y036675D03*
X018446Y037029D03*
X018801Y036675D03*
X018801Y037935D03*
X019116Y037935D03*
X019431Y037935D03*
X018486Y037935D03*
X018131Y038525D03*
X017817Y038525D03*
X017502Y038525D03*
X014903Y039352D03*
X013328Y041183D03*
X013328Y041517D03*
X013328Y041852D03*
X013840Y042502D03*
X014076Y043643D03*
X013998Y043998D03*
X013998Y044549D03*
X014431Y044667D03*
X014706Y044234D03*
X015277Y044116D03*
X013998Y045061D03*
X012187Y042187D03*
X012108Y041261D03*
X010572Y042383D03*
X010730Y042895D03*
X011084Y043171D03*
X009509Y042856D03*
X009470Y042108D03*
X010139Y041635D03*
X010139Y041202D03*
X008486Y040887D03*
X008486Y040572D03*
X008210Y040415D03*
X008210Y040730D03*
X008210Y041045D03*
X008328Y041832D03*
X007738Y041754D03*
X007383Y041163D03*
X007029Y040533D03*
X006557Y040257D03*
X006990Y039273D03*
X006990Y038958D03*
X007817Y039352D03*
X008486Y039352D03*
X008486Y038998D03*
X008545Y038624D03*
X008131Y038309D03*
X008368Y037974D03*
X008722Y037974D03*
X007817Y037935D03*
X007659Y036950D03*
X008998Y036517D03*
X010336Y035572D03*
X010809Y035572D03*
X011242Y035848D03*
X010376Y036439D03*
X011596Y036950D03*
X012246Y037423D03*
X012580Y037541D03*
X012915Y037423D03*
X013525Y037187D03*
X012836Y036380D03*
X013919Y035651D03*
X014903Y036635D03*
X017226Y034864D03*
X017226Y033565D03*
X017226Y032226D03*
X014509Y029746D03*
X014785Y029116D03*
X014155Y031517D03*
X014273Y033643D03*
X013565Y033643D03*
X012305Y033801D03*
X011517Y033801D03*
X012541Y034943D03*
X009746Y031714D03*
X009254Y032305D03*
X009194Y032856D03*
X012108Y031399D03*
X012108Y030769D03*
X010139Y029746D03*
X009824Y028604D03*
X009352Y028604D03*
X010297Y028525D03*
X010120Y027954D03*
X010612Y027698D03*
X011006Y027738D03*
X011360Y027620D03*
X010986Y027364D03*
X011793Y027187D03*
X012187Y028171D03*
X013919Y026576D03*
X013092Y026084D03*
X012541Y025080D03*
X010927Y024824D03*
X010612Y025691D03*
X010021Y026281D03*
X009628Y026281D03*
X009628Y026675D03*
X010021Y026675D03*
X010021Y027069D03*
X009628Y027069D03*
X009234Y027069D03*
X009234Y026675D03*
X009234Y026281D03*
X008407Y025769D03*
X008328Y025454D03*
X008683Y025257D03*
X008801Y024903D03*
X007974Y025100D03*
X007541Y025179D03*
X006911Y025100D03*
X007069Y026242D03*
X006714Y026301D03*
X006714Y027206D03*
X007147Y027108D03*
X007698Y026773D03*
X008328Y027423D03*
X008643Y027659D03*
X008171Y028250D03*
X007580Y028210D03*
X007147Y028210D03*
X006675Y028525D03*
X006143Y028387D03*
X006143Y029135D03*
X006143Y029726D03*
X006143Y030474D03*
X005179Y031006D03*
X004234Y030769D03*
X004234Y029431D03*
X005179Y029667D03*
X003742Y028131D03*
X004726Y026754D03*
X004726Y025218D03*
X004234Y024756D03*
X007344Y021006D03*
X007856Y020966D03*
X008328Y019509D03*
X007738Y019431D03*
X007383Y018840D03*
X007029Y018210D03*
X006557Y017935D03*
X006990Y016950D03*
X006990Y016635D03*
X007817Y017029D03*
X008486Y017029D03*
X008486Y016675D03*
X008545Y016301D03*
X008131Y015986D03*
X008368Y015651D03*
X008722Y015651D03*
X007817Y015612D03*
X007659Y014628D03*
X008998Y014194D03*
X010336Y013250D03*
X010809Y013250D03*
X011242Y013525D03*
X010376Y014116D03*
X011596Y014628D03*
X012246Y015100D03*
X012580Y015218D03*
X012915Y015100D03*
X013525Y014864D03*
X012836Y014057D03*
X013919Y013328D03*
X014903Y014313D03*
X014903Y017029D03*
X013328Y018860D03*
X013328Y019194D03*
X013328Y019529D03*
X013840Y020179D03*
X014076Y021320D03*
X013998Y021675D03*
X013998Y022226D03*
X014431Y022344D03*
X014706Y021911D03*
X015277Y021793D03*
X013998Y022738D03*
X012187Y019864D03*
X012108Y018939D03*
X010572Y020061D03*
X010730Y020572D03*
X011084Y020848D03*
X009509Y020533D03*
X009470Y019785D03*
X010139Y019313D03*
X010139Y018880D03*
X010376Y017187D03*
X009273Y016754D03*
X008486Y018250D03*
X008486Y018565D03*
X008210Y018722D03*
X008210Y018407D03*
X008210Y018092D03*
X005848Y015612D03*
X005533Y015612D03*
X005218Y015612D03*
X004903Y015612D03*
X004549Y016202D03*
X004234Y016202D03*
X003919Y016202D03*
X004864Y014706D03*
X004864Y014352D03*
X005218Y014352D03*
X005218Y013998D03*
X004864Y013998D03*
X004509Y014352D03*
X005572Y013998D03*
X006183Y012167D03*
X006143Y010828D03*
X006183Y009490D03*
X005179Y008683D03*
X004234Y008446D03*
X005179Y007344D03*
X006143Y007403D03*
X006143Y008151D03*
X006143Y006813D03*
X006143Y006065D03*
X006675Y006202D03*
X007147Y005887D03*
X007580Y005887D03*
X008171Y005927D03*
X008643Y005336D03*
X008328Y005100D03*
X007698Y004450D03*
X007147Y004785D03*
X006714Y004883D03*
X006714Y003978D03*
X007069Y003919D03*
X006911Y002777D03*
X007541Y002856D03*
X007974Y002777D03*
X008328Y003131D03*
X008407Y003446D03*
X008683Y002935D03*
X008801Y002580D03*
X009234Y003958D03*
X009628Y003958D03*
X010021Y003958D03*
X010021Y004352D03*
X009628Y004352D03*
X009628Y004746D03*
X010021Y004746D03*
X009234Y004746D03*
X009234Y004352D03*
X010120Y005631D03*
X010612Y005376D03*
X011006Y005415D03*
X011360Y005297D03*
X010986Y005041D03*
X011793Y004864D03*
X012187Y005848D03*
X013919Y004254D03*
X013092Y003761D03*
X012541Y002757D03*
X010927Y002502D03*
X010612Y003368D03*
X010297Y006202D03*
X009824Y006281D03*
X009352Y006281D03*
X008486Y007364D03*
X007226Y007364D03*
X009746Y009391D03*
X009254Y009982D03*
X009194Y010533D03*
X011517Y011478D03*
X012305Y011478D03*
X012541Y012620D03*
X013565Y011320D03*
X014273Y011320D03*
X014155Y009194D03*
X014509Y007423D03*
X014785Y006793D03*
X017324Y005809D03*
X018309Y004431D03*
X019726Y006065D03*
X020257Y006202D03*
X020730Y005887D03*
X021163Y005887D03*
X021754Y005927D03*
X022226Y005336D03*
X021911Y005100D03*
X021281Y004450D03*
X020730Y004785D03*
X020297Y004883D03*
X020297Y003978D03*
X020651Y003919D03*
X020494Y002777D03*
X021124Y002856D03*
X021557Y002777D03*
X021911Y003131D03*
X021990Y003446D03*
X022265Y002935D03*
X022383Y002580D03*
X022817Y003958D03*
X023210Y003958D03*
X023604Y003958D03*
X023604Y004352D03*
X023604Y004746D03*
X023210Y004746D03*
X022817Y004746D03*
X022817Y004352D03*
X023210Y004352D03*
X024194Y003368D03*
X024509Y002502D03*
X026124Y002757D03*
X026675Y003761D03*
X027502Y004254D03*
X025769Y005848D03*
X024943Y005297D03*
X024588Y005415D03*
X024569Y005041D03*
X024194Y005376D03*
X023702Y005631D03*
X023880Y006202D03*
X023407Y006281D03*
X022935Y006281D03*
X022069Y007364D03*
X020809Y007364D03*
X019726Y007403D03*
X019726Y008151D03*
X018761Y008683D03*
X017817Y008446D03*
X018761Y007344D03*
X017817Y007108D03*
X019726Y006813D03*
X019765Y009490D03*
X019726Y010828D03*
X019765Y012167D03*
X019155Y013998D03*
X018801Y013998D03*
X018801Y014352D03*
X018446Y014352D03*
X018092Y014352D03*
X018446Y014706D03*
X018446Y013998D03*
X017226Y012541D03*
X017226Y011242D03*
X017226Y009903D03*
X021242Y014628D03*
X021399Y015612D03*
X021714Y015986D03*
X021950Y015651D03*
X022305Y015651D03*
X022128Y016301D03*
X022069Y016675D03*
X022069Y017029D03*
X021399Y017029D03*
X020572Y016950D03*
X020572Y016635D03*
X020139Y017935D03*
X020612Y018210D03*
X020966Y018840D03*
X021320Y019431D03*
X021911Y019509D03*
X021793Y018722D03*
X021793Y018407D03*
X021793Y018092D03*
X022069Y018250D03*
X022069Y018565D03*
X023053Y019785D03*
X023722Y019313D03*
X023722Y018880D03*
X024155Y020061D03*
X024313Y020572D03*
X024667Y020848D03*
X025769Y019864D03*
X025691Y018939D03*
X026911Y018860D03*
X026911Y019194D03*
X026911Y019529D03*
X027423Y020179D03*
X027659Y021320D03*
X027580Y021675D03*
X027580Y022226D03*
X028013Y022344D03*
X028289Y021911D03*
X028860Y021793D03*
X027580Y022738D03*
X028683Y019313D03*
X028486Y017029D03*
X027108Y014864D03*
X026498Y015100D03*
X026163Y015218D03*
X025828Y015100D03*
X025179Y014628D03*
X024824Y013525D03*
X024391Y013250D03*
X023919Y013250D03*
X023958Y014116D03*
X022580Y014194D03*
X022856Y016754D03*
X023958Y017187D03*
X026084Y016517D03*
X026419Y014057D03*
X027502Y013328D03*
X028486Y014313D03*
X030809Y012541D03*
X030809Y011242D03*
X030809Y009903D03*
X031399Y007108D03*
X030907Y005809D03*
X031891Y004431D03*
X031891Y002895D03*
X031399Y002433D03*
X028368Y006793D03*
X028092Y007423D03*
X027738Y009194D03*
X025691Y009076D03*
X025691Y008446D03*
X023722Y007423D03*
X023328Y009391D03*
X022836Y009982D03*
X022777Y010533D03*
X025100Y011478D03*
X025887Y011478D03*
X026124Y012620D03*
X027147Y011320D03*
X027856Y011320D03*
X025376Y004864D03*
X018309Y002895D03*
X017817Y002433D03*
X012108Y008446D03*
X012108Y009076D03*
X010139Y007423D03*
X004726Y004431D03*
X003742Y005809D03*
X004234Y007108D03*
X003643Y009903D03*
X003643Y011242D03*
X003643Y012541D03*
X012502Y016517D03*
X015100Y019313D03*
X017502Y016202D03*
X017817Y016202D03*
X018131Y016202D03*
X018486Y015612D03*
X018801Y015612D03*
X019116Y015612D03*
X019431Y015612D03*
X021439Y020966D03*
X020927Y021006D03*
X022895Y022462D03*
X022935Y022895D03*
X022659Y023368D03*
X023171Y021950D03*
X023092Y020533D03*
X033880Y026301D03*
X034234Y026242D03*
X034864Y026773D03*
X034313Y027108D03*
X033880Y027206D03*
X036911Y031714D03*
X036419Y032305D03*
X036360Y032856D03*
X038683Y033801D03*
X039470Y033801D03*
X039706Y034943D03*
X040730Y033643D03*
X041439Y033643D03*
X041320Y031517D03*
X041675Y029746D03*
X041950Y029116D03*
X039273Y030769D03*
X039273Y031399D03*
X039667Y038840D03*
X037541Y039509D03*
X036439Y039076D03*
X042265Y041635D03*
X028683Y041635D03*
X026084Y038840D03*
X023958Y039509D03*
X022856Y039076D03*
X021439Y043289D03*
X020927Y043328D03*
X022895Y044785D03*
X022935Y045218D03*
X022659Y045691D03*
X023171Y044273D03*
X015100Y041635D03*
X012502Y038840D03*
X010376Y039509D03*
X009273Y039076D03*
X005848Y037935D03*
X005533Y037935D03*
X005218Y037935D03*
X004903Y037935D03*
X004549Y038525D03*
X004234Y038525D03*
X003919Y038525D03*
X004864Y037029D03*
X004864Y036675D03*
X005218Y036675D03*
X005218Y036320D03*
X004864Y036320D03*
X004509Y036675D03*
X005572Y036320D03*
X006183Y034490D03*
X006143Y033151D03*
X006183Y031813D03*
X007226Y029687D03*
X008486Y029687D03*
X003643Y032226D03*
X003643Y033565D03*
X003643Y034864D03*
X007344Y043328D03*
X007856Y043289D03*
X009313Y044785D03*
X009352Y045218D03*
X009076Y045691D03*
X009588Y044273D03*
X009076Y023368D03*
X009352Y022895D03*
X009313Y022462D03*
X009588Y021950D03*
X004726Y002895D03*
X004234Y002433D03*
X038958Y004864D03*
X041675Y007423D03*
X041950Y006793D03*
X041320Y009194D03*
X039273Y009076D03*
X039273Y008446D03*
D22*
X041950Y006793D02*
X041950Y006439D01*
X040769Y005257D01*
X040769Y005179D01*
X040743Y005152D01*
X039680Y005152D01*
X040769Y005179D02*
X040769Y002383D01*
X040631Y002246D01*
X033348Y002246D01*
X033053Y002541D01*
X033053Y005218D01*
X032777Y005494D01*
X032777Y013958D01*
X032738Y013998D01*
X028368Y006793D02*
X028368Y006439D01*
X027187Y005257D01*
X027187Y005179D01*
X027160Y005152D01*
X026097Y005152D01*
X027187Y005179D02*
X027187Y002383D01*
X027049Y002246D01*
X019765Y002246D01*
X019470Y002541D01*
X019470Y005218D01*
X019194Y005494D01*
X019194Y013958D01*
X019155Y013998D01*
X014785Y006793D02*
X014785Y006439D01*
X013604Y005257D01*
X013604Y005179D01*
X013577Y005152D01*
X012514Y005152D01*
X013604Y005179D02*
X013604Y002383D01*
X013466Y002246D01*
X006183Y002246D01*
X005887Y002541D01*
X005887Y005218D01*
X005612Y005494D01*
X005612Y013958D01*
X005572Y013998D01*
X006183Y024569D02*
X005887Y024864D01*
X005887Y027541D01*
X005612Y027817D01*
X005612Y036281D01*
X005572Y036320D01*
X012514Y027475D02*
X013577Y027475D01*
X013604Y027502D01*
X013604Y027580D01*
X014785Y028761D01*
X014785Y029116D01*
X013604Y027502D02*
X013604Y024706D01*
X013466Y024569D01*
X006183Y024569D01*
X019194Y027817D02*
X019194Y036281D01*
X019155Y036320D01*
X019194Y027817D02*
X019470Y027541D01*
X019470Y024864D01*
X019765Y024569D01*
X027049Y024569D01*
X027187Y024706D01*
X027187Y027502D01*
X027160Y027475D01*
X026097Y027475D01*
X027187Y027502D02*
X027187Y027580D01*
X028368Y028761D01*
X028368Y029116D01*
X032777Y027817D02*
X032777Y036281D01*
X032738Y036320D01*
X032777Y027817D02*
X033053Y027541D01*
X033053Y024864D01*
X033348Y024569D01*
X040631Y024569D01*
X040769Y024706D01*
X040769Y027502D01*
X040743Y027475D01*
X039680Y027475D01*
X040769Y027502D02*
X040769Y027580D01*
X041950Y028761D01*
X041950Y029116D01*
D23*
X040691Y037187D02*
X040533Y037187D01*
X040415Y037305D01*
X040415Y039116D01*
X037895Y041635D01*
X037305Y041635D01*
X027108Y037187D02*
X026950Y037187D01*
X026832Y037305D01*
X026832Y039116D01*
X024313Y041635D01*
X023722Y041635D01*
X013250Y039116D02*
X013250Y037305D01*
X013368Y037187D01*
X013525Y037187D01*
X013250Y039116D02*
X010730Y041635D01*
X010139Y041635D01*
X010139Y019313D02*
X010730Y019313D01*
X013250Y016793D01*
X013250Y014982D01*
X013368Y014864D01*
X013525Y014864D01*
X023722Y019313D02*
X024313Y019313D01*
X026832Y016793D01*
X026832Y014982D01*
X026950Y014864D01*
X027108Y014864D01*
X037305Y019313D02*
X037895Y019313D01*
X040415Y016793D01*
X040415Y014982D01*
X040533Y014864D01*
X040691Y014864D01*
D24*
X031320Y014352D02*
X030257Y015415D01*
X030257Y017423D01*
X017738Y014352D02*
X016675Y015415D01*
X016675Y017423D01*
X004155Y014352D02*
X003092Y015415D01*
X003092Y017423D01*
X004155Y036675D02*
X003092Y037738D01*
X003092Y039746D01*
X016675Y039746D02*
X016675Y037738D01*
X017738Y036675D01*
X030257Y037738D02*
X031320Y036675D01*
X030257Y037738D02*
X030257Y039746D01*
D25*
X031320Y036675D02*
X032029Y036675D01*
X018446Y036675D02*
X017738Y036675D01*
X004864Y036675D02*
X004155Y036675D01*
X004155Y014352D02*
X004864Y014352D01*
X017738Y014352D02*
X018446Y014352D01*
X031320Y014352D02*
X032029Y014352D01*
M02*
