G75*
G70*
%OFA0B0*%
%FSLAX24Y24*%
%IPPOS*%
%LPD*%
%AMOC8*
5,1,8,0,0,1.08239X$1,22.5*
%
%ADD10C,0.0000*%
%ADD11C,0.0906*%
%ADD12C,0.0100*%
%ADD13C,0.1024*%
%ADD14C,0.0090*%
%ADD15R,0.1142X0.1457*%
%ADD16R,0.2795X0.0512*%
%ADD17R,0.0551X0.0709*%
%ADD18C,0.0050*%
%ADD19R,0.0316X0.0316*%
%ADD20R,0.0355X0.0434*%
%ADD21R,0.0434X0.0355*%
%ADD22R,0.0749X0.0709*%
%ADD23R,0.1732X0.0787*%
%ADD24R,0.0355X0.0394*%
%ADD25R,0.0886X0.1320*%
%ADD26R,0.0886X0.0414*%
%ADD27R,0.0414X0.0631*%
%ADD28C,0.0591*%
%ADD29R,0.1221X0.1221*%
%ADD30C,0.0150*%
%ADD31C,0.0709*%
%ADD32R,0.0473X0.0355*%
%ADD33C,0.0631*%
%ADD34R,0.0316X0.0316*%
%ADD35R,0.0650X0.0257*%
%ADD36R,0.0257X0.0650*%
%ADD37R,0.0394X0.0355*%
%ADD38R,0.0453X0.0276*%
%ADD39R,0.2362X0.1417*%
%ADD40R,0.0670X0.0178*%
%ADD41R,0.0178X0.0670*%
%ADD42R,0.0355X0.0473*%
%ADD43C,0.0476*%
%ADD44R,0.0709X0.1024*%
%ADD45R,0.1024X0.0709*%
%ADD46C,0.0827*%
%ADD47C,0.0560*%
%ADD48R,0.0512X0.0709*%
%ADD49C,0.0500*%
%ADD50C,0.2881*%
D10*
X000100Y000100D02*
X002069Y000100D01*
X002069Y002069D01*
X042817Y002069D01*
X042817Y046714D01*
X002069Y046714D01*
X002069Y002069D01*
X000100Y002069D01*
X000100Y024391D01*
X044785Y024391D01*
X044785Y002069D01*
X042817Y002069D01*
X042817Y000100D01*
X029234Y000100D01*
X029234Y048683D01*
X042817Y048683D01*
X042817Y046714D01*
X044785Y046714D01*
X044785Y024391D01*
X042817Y024391D02*
X029234Y024391D01*
X029234Y040218D01*
X033368Y040218D01*
X033368Y046714D01*
X042817Y046714D01*
X042817Y024391D01*
X042817Y002069D01*
X029234Y002069D01*
X029234Y017895D01*
X033368Y017895D01*
X033368Y024391D01*
X042817Y024391D01*
X041439Y023506D02*
X041441Y023550D01*
X041447Y023594D01*
X041457Y023637D01*
X041470Y023679D01*
X041488Y023719D01*
X041509Y023758D01*
X041533Y023795D01*
X041560Y023830D01*
X041591Y023862D01*
X041624Y023891D01*
X041660Y023917D01*
X041698Y023939D01*
X041738Y023958D01*
X041779Y023974D01*
X041822Y023986D01*
X041865Y023994D01*
X041909Y023998D01*
X041953Y023998D01*
X041997Y023994D01*
X042040Y023986D01*
X042083Y023974D01*
X042124Y023958D01*
X042164Y023939D01*
X042202Y023917D01*
X042238Y023891D01*
X042271Y023862D01*
X042302Y023830D01*
X042329Y023795D01*
X042353Y023758D01*
X042374Y023719D01*
X042392Y023679D01*
X042405Y023637D01*
X042415Y023594D01*
X042421Y023550D01*
X042423Y023506D01*
X042421Y023462D01*
X042415Y023418D01*
X042405Y023375D01*
X042392Y023333D01*
X042374Y023293D01*
X042353Y023254D01*
X042329Y023217D01*
X042302Y023182D01*
X042271Y023150D01*
X042238Y023121D01*
X042202Y023095D01*
X042164Y023073D01*
X042124Y023054D01*
X042083Y023038D01*
X042040Y023026D01*
X041997Y023018D01*
X041953Y023014D01*
X041909Y023014D01*
X041865Y023018D01*
X041822Y023026D01*
X041779Y023038D01*
X041738Y023054D01*
X041698Y023073D01*
X041660Y023095D01*
X041624Y023121D01*
X041591Y023150D01*
X041560Y023182D01*
X041533Y023217D01*
X041509Y023254D01*
X041488Y023293D01*
X041470Y023333D01*
X041457Y023375D01*
X041447Y023418D01*
X041441Y023462D01*
X041439Y023506D01*
X041439Y025277D02*
X041441Y025321D01*
X041447Y025365D01*
X041457Y025408D01*
X041470Y025450D01*
X041488Y025490D01*
X041509Y025529D01*
X041533Y025566D01*
X041560Y025601D01*
X041591Y025633D01*
X041624Y025662D01*
X041660Y025688D01*
X041698Y025710D01*
X041738Y025729D01*
X041779Y025745D01*
X041822Y025757D01*
X041865Y025765D01*
X041909Y025769D01*
X041953Y025769D01*
X041997Y025765D01*
X042040Y025757D01*
X042083Y025745D01*
X042124Y025729D01*
X042164Y025710D01*
X042202Y025688D01*
X042238Y025662D01*
X042271Y025633D01*
X042302Y025601D01*
X042329Y025566D01*
X042353Y025529D01*
X042374Y025490D01*
X042392Y025450D01*
X042405Y025408D01*
X042415Y025365D01*
X042421Y025321D01*
X042423Y025277D01*
X042421Y025233D01*
X042415Y025189D01*
X042405Y025146D01*
X042392Y025104D01*
X042374Y025064D01*
X042353Y025025D01*
X042329Y024988D01*
X042302Y024953D01*
X042271Y024921D01*
X042238Y024892D01*
X042202Y024866D01*
X042164Y024844D01*
X042124Y024825D01*
X042083Y024809D01*
X042040Y024797D01*
X041997Y024789D01*
X041953Y024785D01*
X041909Y024785D01*
X041865Y024789D01*
X041822Y024797D01*
X041779Y024809D01*
X041738Y024825D01*
X041698Y024844D01*
X041660Y024866D01*
X041624Y024892D01*
X041591Y024921D01*
X041560Y024953D01*
X041533Y024988D01*
X041509Y025025D01*
X041488Y025064D01*
X041470Y025104D01*
X041457Y025146D01*
X041447Y025189D01*
X041441Y025233D01*
X041439Y025277D01*
X033762Y023506D02*
X033764Y023550D01*
X033770Y023594D01*
X033780Y023637D01*
X033793Y023679D01*
X033811Y023719D01*
X033832Y023758D01*
X033856Y023795D01*
X033883Y023830D01*
X033914Y023862D01*
X033947Y023891D01*
X033983Y023917D01*
X034021Y023939D01*
X034061Y023958D01*
X034102Y023974D01*
X034145Y023986D01*
X034188Y023994D01*
X034232Y023998D01*
X034276Y023998D01*
X034320Y023994D01*
X034363Y023986D01*
X034406Y023974D01*
X034447Y023958D01*
X034487Y023939D01*
X034525Y023917D01*
X034561Y023891D01*
X034594Y023862D01*
X034625Y023830D01*
X034652Y023795D01*
X034676Y023758D01*
X034697Y023719D01*
X034715Y023679D01*
X034728Y023637D01*
X034738Y023594D01*
X034744Y023550D01*
X034746Y023506D01*
X034744Y023462D01*
X034738Y023418D01*
X034728Y023375D01*
X034715Y023333D01*
X034697Y023293D01*
X034676Y023254D01*
X034652Y023217D01*
X034625Y023182D01*
X034594Y023150D01*
X034561Y023121D01*
X034525Y023095D01*
X034487Y023073D01*
X034447Y023054D01*
X034406Y023038D01*
X034363Y023026D01*
X034320Y023018D01*
X034276Y023014D01*
X034232Y023014D01*
X034188Y023018D01*
X034145Y023026D01*
X034102Y023038D01*
X034061Y023054D01*
X034021Y023073D01*
X033983Y023095D01*
X033947Y023121D01*
X033914Y023150D01*
X033883Y023182D01*
X033856Y023217D01*
X033832Y023254D01*
X033811Y023293D01*
X033793Y023333D01*
X033780Y023375D01*
X033770Y023418D01*
X033764Y023462D01*
X033762Y023506D01*
X029628Y025277D02*
X029630Y025321D01*
X029636Y025365D01*
X029646Y025408D01*
X029659Y025450D01*
X029677Y025490D01*
X029698Y025529D01*
X029722Y025566D01*
X029749Y025601D01*
X029780Y025633D01*
X029813Y025662D01*
X029849Y025688D01*
X029887Y025710D01*
X029927Y025729D01*
X029968Y025745D01*
X030011Y025757D01*
X030054Y025765D01*
X030098Y025769D01*
X030142Y025769D01*
X030186Y025765D01*
X030229Y025757D01*
X030272Y025745D01*
X030313Y025729D01*
X030353Y025710D01*
X030391Y025688D01*
X030427Y025662D01*
X030460Y025633D01*
X030491Y025601D01*
X030518Y025566D01*
X030542Y025529D01*
X030563Y025490D01*
X030581Y025450D01*
X030594Y025408D01*
X030604Y025365D01*
X030610Y025321D01*
X030612Y025277D01*
X030610Y025233D01*
X030604Y025189D01*
X030594Y025146D01*
X030581Y025104D01*
X030563Y025064D01*
X030542Y025025D01*
X030518Y024988D01*
X030491Y024953D01*
X030460Y024921D01*
X030427Y024892D01*
X030391Y024866D01*
X030353Y024844D01*
X030313Y024825D01*
X030272Y024809D01*
X030229Y024797D01*
X030186Y024789D01*
X030142Y024785D01*
X030098Y024785D01*
X030054Y024789D01*
X030011Y024797D01*
X029968Y024809D01*
X029927Y024825D01*
X029887Y024844D01*
X029849Y024866D01*
X029813Y024892D01*
X029780Y024921D01*
X029749Y024953D01*
X029722Y024988D01*
X029698Y025025D01*
X029677Y025064D01*
X029659Y025104D01*
X029646Y025146D01*
X029636Y025189D01*
X029630Y025233D01*
X029628Y025277D01*
X029234Y024391D02*
X015651Y024391D01*
X015651Y040218D01*
X019785Y040218D01*
X019785Y046714D01*
X029234Y046714D01*
X029234Y024391D01*
X029234Y002069D01*
X015651Y002069D01*
X015651Y017895D01*
X019785Y017895D01*
X019785Y024391D01*
X029234Y024391D01*
X027856Y023506D02*
X027858Y023550D01*
X027864Y023594D01*
X027874Y023637D01*
X027887Y023679D01*
X027905Y023719D01*
X027926Y023758D01*
X027950Y023795D01*
X027977Y023830D01*
X028008Y023862D01*
X028041Y023891D01*
X028077Y023917D01*
X028115Y023939D01*
X028155Y023958D01*
X028196Y023974D01*
X028239Y023986D01*
X028282Y023994D01*
X028326Y023998D01*
X028370Y023998D01*
X028414Y023994D01*
X028457Y023986D01*
X028500Y023974D01*
X028541Y023958D01*
X028581Y023939D01*
X028619Y023917D01*
X028655Y023891D01*
X028688Y023862D01*
X028719Y023830D01*
X028746Y023795D01*
X028770Y023758D01*
X028791Y023719D01*
X028809Y023679D01*
X028822Y023637D01*
X028832Y023594D01*
X028838Y023550D01*
X028840Y023506D01*
X028838Y023462D01*
X028832Y023418D01*
X028822Y023375D01*
X028809Y023333D01*
X028791Y023293D01*
X028770Y023254D01*
X028746Y023217D01*
X028719Y023182D01*
X028688Y023150D01*
X028655Y023121D01*
X028619Y023095D01*
X028581Y023073D01*
X028541Y023054D01*
X028500Y023038D01*
X028457Y023026D01*
X028414Y023018D01*
X028370Y023014D01*
X028326Y023014D01*
X028282Y023018D01*
X028239Y023026D01*
X028196Y023038D01*
X028155Y023054D01*
X028115Y023073D01*
X028077Y023095D01*
X028041Y023121D01*
X028008Y023150D01*
X027977Y023182D01*
X027950Y023217D01*
X027926Y023254D01*
X027905Y023293D01*
X027887Y023333D01*
X027874Y023375D01*
X027864Y023418D01*
X027858Y023462D01*
X027856Y023506D01*
X027856Y025277D02*
X027858Y025321D01*
X027864Y025365D01*
X027874Y025408D01*
X027887Y025450D01*
X027905Y025490D01*
X027926Y025529D01*
X027950Y025566D01*
X027977Y025601D01*
X028008Y025633D01*
X028041Y025662D01*
X028077Y025688D01*
X028115Y025710D01*
X028155Y025729D01*
X028196Y025745D01*
X028239Y025757D01*
X028282Y025765D01*
X028326Y025769D01*
X028370Y025769D01*
X028414Y025765D01*
X028457Y025757D01*
X028500Y025745D01*
X028541Y025729D01*
X028581Y025710D01*
X028619Y025688D01*
X028655Y025662D01*
X028688Y025633D01*
X028719Y025601D01*
X028746Y025566D01*
X028770Y025529D01*
X028791Y025490D01*
X028809Y025450D01*
X028822Y025408D01*
X028832Y025365D01*
X028838Y025321D01*
X028840Y025277D01*
X028838Y025233D01*
X028832Y025189D01*
X028822Y025146D01*
X028809Y025104D01*
X028791Y025064D01*
X028770Y025025D01*
X028746Y024988D01*
X028719Y024953D01*
X028688Y024921D01*
X028655Y024892D01*
X028619Y024866D01*
X028581Y024844D01*
X028541Y024825D01*
X028500Y024809D01*
X028457Y024797D01*
X028414Y024789D01*
X028370Y024785D01*
X028326Y024785D01*
X028282Y024789D01*
X028239Y024797D01*
X028196Y024809D01*
X028155Y024825D01*
X028115Y024844D01*
X028077Y024866D01*
X028041Y024892D01*
X028008Y024921D01*
X027977Y024953D01*
X027950Y024988D01*
X027926Y025025D01*
X027905Y025064D01*
X027887Y025104D01*
X027874Y025146D01*
X027864Y025189D01*
X027858Y025233D01*
X027856Y025277D01*
X020179Y023506D02*
X020181Y023550D01*
X020187Y023594D01*
X020197Y023637D01*
X020210Y023679D01*
X020228Y023719D01*
X020249Y023758D01*
X020273Y023795D01*
X020300Y023830D01*
X020331Y023862D01*
X020364Y023891D01*
X020400Y023917D01*
X020438Y023939D01*
X020478Y023958D01*
X020519Y023974D01*
X020562Y023986D01*
X020605Y023994D01*
X020649Y023998D01*
X020693Y023998D01*
X020737Y023994D01*
X020780Y023986D01*
X020823Y023974D01*
X020864Y023958D01*
X020904Y023939D01*
X020942Y023917D01*
X020978Y023891D01*
X021011Y023862D01*
X021042Y023830D01*
X021069Y023795D01*
X021093Y023758D01*
X021114Y023719D01*
X021132Y023679D01*
X021145Y023637D01*
X021155Y023594D01*
X021161Y023550D01*
X021163Y023506D01*
X021161Y023462D01*
X021155Y023418D01*
X021145Y023375D01*
X021132Y023333D01*
X021114Y023293D01*
X021093Y023254D01*
X021069Y023217D01*
X021042Y023182D01*
X021011Y023150D01*
X020978Y023121D01*
X020942Y023095D01*
X020904Y023073D01*
X020864Y023054D01*
X020823Y023038D01*
X020780Y023026D01*
X020737Y023018D01*
X020693Y023014D01*
X020649Y023014D01*
X020605Y023018D01*
X020562Y023026D01*
X020519Y023038D01*
X020478Y023054D01*
X020438Y023073D01*
X020400Y023095D01*
X020364Y023121D01*
X020331Y023150D01*
X020300Y023182D01*
X020273Y023217D01*
X020249Y023254D01*
X020228Y023293D01*
X020210Y023333D01*
X020197Y023375D01*
X020187Y023418D01*
X020181Y023462D01*
X020179Y023506D01*
X016045Y025277D02*
X016047Y025321D01*
X016053Y025365D01*
X016063Y025408D01*
X016076Y025450D01*
X016094Y025490D01*
X016115Y025529D01*
X016139Y025566D01*
X016166Y025601D01*
X016197Y025633D01*
X016230Y025662D01*
X016266Y025688D01*
X016304Y025710D01*
X016344Y025729D01*
X016385Y025745D01*
X016428Y025757D01*
X016471Y025765D01*
X016515Y025769D01*
X016559Y025769D01*
X016603Y025765D01*
X016646Y025757D01*
X016689Y025745D01*
X016730Y025729D01*
X016770Y025710D01*
X016808Y025688D01*
X016844Y025662D01*
X016877Y025633D01*
X016908Y025601D01*
X016935Y025566D01*
X016959Y025529D01*
X016980Y025490D01*
X016998Y025450D01*
X017011Y025408D01*
X017021Y025365D01*
X017027Y025321D01*
X017029Y025277D01*
X017027Y025233D01*
X017021Y025189D01*
X017011Y025146D01*
X016998Y025104D01*
X016980Y025064D01*
X016959Y025025D01*
X016935Y024988D01*
X016908Y024953D01*
X016877Y024921D01*
X016844Y024892D01*
X016808Y024866D01*
X016770Y024844D01*
X016730Y024825D01*
X016689Y024809D01*
X016646Y024797D01*
X016603Y024789D01*
X016559Y024785D01*
X016515Y024785D01*
X016471Y024789D01*
X016428Y024797D01*
X016385Y024809D01*
X016344Y024825D01*
X016304Y024844D01*
X016266Y024866D01*
X016230Y024892D01*
X016197Y024921D01*
X016166Y024953D01*
X016139Y024988D01*
X016115Y025025D01*
X016094Y025064D01*
X016076Y025104D01*
X016063Y025146D01*
X016053Y025189D01*
X016047Y025233D01*
X016045Y025277D01*
X015651Y024391D02*
X002069Y024391D01*
X002069Y040218D01*
X006202Y040218D01*
X006202Y046714D01*
X015651Y046714D01*
X015651Y024391D01*
X015651Y002069D01*
X002069Y002069D01*
X002069Y017895D01*
X006202Y017895D01*
X006202Y024391D01*
X015651Y024391D01*
X014273Y023506D02*
X014275Y023550D01*
X014281Y023594D01*
X014291Y023637D01*
X014304Y023679D01*
X014322Y023719D01*
X014343Y023758D01*
X014367Y023795D01*
X014394Y023830D01*
X014425Y023862D01*
X014458Y023891D01*
X014494Y023917D01*
X014532Y023939D01*
X014572Y023958D01*
X014613Y023974D01*
X014656Y023986D01*
X014699Y023994D01*
X014743Y023998D01*
X014787Y023998D01*
X014831Y023994D01*
X014874Y023986D01*
X014917Y023974D01*
X014958Y023958D01*
X014998Y023939D01*
X015036Y023917D01*
X015072Y023891D01*
X015105Y023862D01*
X015136Y023830D01*
X015163Y023795D01*
X015187Y023758D01*
X015208Y023719D01*
X015226Y023679D01*
X015239Y023637D01*
X015249Y023594D01*
X015255Y023550D01*
X015257Y023506D01*
X015255Y023462D01*
X015249Y023418D01*
X015239Y023375D01*
X015226Y023333D01*
X015208Y023293D01*
X015187Y023254D01*
X015163Y023217D01*
X015136Y023182D01*
X015105Y023150D01*
X015072Y023121D01*
X015036Y023095D01*
X014998Y023073D01*
X014958Y023054D01*
X014917Y023038D01*
X014874Y023026D01*
X014831Y023018D01*
X014787Y023014D01*
X014743Y023014D01*
X014699Y023018D01*
X014656Y023026D01*
X014613Y023038D01*
X014572Y023054D01*
X014532Y023073D01*
X014494Y023095D01*
X014458Y023121D01*
X014425Y023150D01*
X014394Y023182D01*
X014367Y023217D01*
X014343Y023254D01*
X014322Y023293D01*
X014304Y023333D01*
X014291Y023375D01*
X014281Y023418D01*
X014275Y023462D01*
X014273Y023506D01*
X014273Y025277D02*
X014275Y025321D01*
X014281Y025365D01*
X014291Y025408D01*
X014304Y025450D01*
X014322Y025490D01*
X014343Y025529D01*
X014367Y025566D01*
X014394Y025601D01*
X014425Y025633D01*
X014458Y025662D01*
X014494Y025688D01*
X014532Y025710D01*
X014572Y025729D01*
X014613Y025745D01*
X014656Y025757D01*
X014699Y025765D01*
X014743Y025769D01*
X014787Y025769D01*
X014831Y025765D01*
X014874Y025757D01*
X014917Y025745D01*
X014958Y025729D01*
X014998Y025710D01*
X015036Y025688D01*
X015072Y025662D01*
X015105Y025633D01*
X015136Y025601D01*
X015163Y025566D01*
X015187Y025529D01*
X015208Y025490D01*
X015226Y025450D01*
X015239Y025408D01*
X015249Y025365D01*
X015255Y025321D01*
X015257Y025277D01*
X015255Y025233D01*
X015249Y025189D01*
X015239Y025146D01*
X015226Y025104D01*
X015208Y025064D01*
X015187Y025025D01*
X015163Y024988D01*
X015136Y024953D01*
X015105Y024921D01*
X015072Y024892D01*
X015036Y024866D01*
X014998Y024844D01*
X014958Y024825D01*
X014917Y024809D01*
X014874Y024797D01*
X014831Y024789D01*
X014787Y024785D01*
X014743Y024785D01*
X014699Y024789D01*
X014656Y024797D01*
X014613Y024809D01*
X014572Y024825D01*
X014532Y024844D01*
X014494Y024866D01*
X014458Y024892D01*
X014425Y024921D01*
X014394Y024953D01*
X014367Y024988D01*
X014343Y025025D01*
X014322Y025064D01*
X014304Y025104D01*
X014291Y025146D01*
X014281Y025189D01*
X014275Y025233D01*
X014273Y025277D01*
X006596Y023506D02*
X006598Y023550D01*
X006604Y023594D01*
X006614Y023637D01*
X006627Y023679D01*
X006645Y023719D01*
X006666Y023758D01*
X006690Y023795D01*
X006717Y023830D01*
X006748Y023862D01*
X006781Y023891D01*
X006817Y023917D01*
X006855Y023939D01*
X006895Y023958D01*
X006936Y023974D01*
X006979Y023986D01*
X007022Y023994D01*
X007066Y023998D01*
X007110Y023998D01*
X007154Y023994D01*
X007197Y023986D01*
X007240Y023974D01*
X007281Y023958D01*
X007321Y023939D01*
X007359Y023917D01*
X007395Y023891D01*
X007428Y023862D01*
X007459Y023830D01*
X007486Y023795D01*
X007510Y023758D01*
X007531Y023719D01*
X007549Y023679D01*
X007562Y023637D01*
X007572Y023594D01*
X007578Y023550D01*
X007580Y023506D01*
X007578Y023462D01*
X007572Y023418D01*
X007562Y023375D01*
X007549Y023333D01*
X007531Y023293D01*
X007510Y023254D01*
X007486Y023217D01*
X007459Y023182D01*
X007428Y023150D01*
X007395Y023121D01*
X007359Y023095D01*
X007321Y023073D01*
X007281Y023054D01*
X007240Y023038D01*
X007197Y023026D01*
X007154Y023018D01*
X007110Y023014D01*
X007066Y023014D01*
X007022Y023018D01*
X006979Y023026D01*
X006936Y023038D01*
X006895Y023054D01*
X006855Y023073D01*
X006817Y023095D01*
X006781Y023121D01*
X006748Y023150D01*
X006717Y023182D01*
X006690Y023217D01*
X006666Y023254D01*
X006645Y023293D01*
X006627Y023333D01*
X006614Y023375D01*
X006604Y023418D01*
X006598Y023462D01*
X006596Y023506D01*
X002462Y025277D02*
X002464Y025321D01*
X002470Y025365D01*
X002480Y025408D01*
X002493Y025450D01*
X002511Y025490D01*
X002532Y025529D01*
X002556Y025566D01*
X002583Y025601D01*
X002614Y025633D01*
X002647Y025662D01*
X002683Y025688D01*
X002721Y025710D01*
X002761Y025729D01*
X002802Y025745D01*
X002845Y025757D01*
X002888Y025765D01*
X002932Y025769D01*
X002976Y025769D01*
X003020Y025765D01*
X003063Y025757D01*
X003106Y025745D01*
X003147Y025729D01*
X003187Y025710D01*
X003225Y025688D01*
X003261Y025662D01*
X003294Y025633D01*
X003325Y025601D01*
X003352Y025566D01*
X003376Y025529D01*
X003397Y025490D01*
X003415Y025450D01*
X003428Y025408D01*
X003438Y025365D01*
X003444Y025321D01*
X003446Y025277D01*
X003444Y025233D01*
X003438Y025189D01*
X003428Y025146D01*
X003415Y025104D01*
X003397Y025064D01*
X003376Y025025D01*
X003352Y024988D01*
X003325Y024953D01*
X003294Y024921D01*
X003261Y024892D01*
X003225Y024866D01*
X003187Y024844D01*
X003147Y024825D01*
X003106Y024809D01*
X003063Y024797D01*
X003020Y024789D01*
X002976Y024785D01*
X002932Y024785D01*
X002888Y024789D01*
X002845Y024797D01*
X002802Y024809D01*
X002761Y024825D01*
X002721Y024844D01*
X002683Y024866D01*
X002647Y024892D01*
X002614Y024921D01*
X002583Y024953D01*
X002556Y024988D01*
X002532Y025025D01*
X002511Y025064D01*
X002493Y025104D01*
X002480Y025146D01*
X002470Y025189D01*
X002464Y025233D01*
X002462Y025277D01*
X000100Y024391D02*
X000100Y046714D01*
X002069Y046714D01*
X002069Y048683D01*
X015651Y048683D01*
X015651Y000100D01*
X002069Y000100D01*
X000100Y000100D02*
X000100Y002069D01*
X002462Y002954D02*
X002464Y002998D01*
X002470Y003042D01*
X002480Y003085D01*
X002493Y003127D01*
X002511Y003167D01*
X002532Y003206D01*
X002556Y003243D01*
X002583Y003278D01*
X002614Y003310D01*
X002647Y003339D01*
X002683Y003365D01*
X002721Y003387D01*
X002761Y003406D01*
X002802Y003422D01*
X002845Y003434D01*
X002888Y003442D01*
X002932Y003446D01*
X002976Y003446D01*
X003020Y003442D01*
X003063Y003434D01*
X003106Y003422D01*
X003147Y003406D01*
X003187Y003387D01*
X003225Y003365D01*
X003261Y003339D01*
X003294Y003310D01*
X003325Y003278D01*
X003352Y003243D01*
X003376Y003206D01*
X003397Y003167D01*
X003415Y003127D01*
X003428Y003085D01*
X003438Y003042D01*
X003444Y002998D01*
X003446Y002954D01*
X003444Y002910D01*
X003438Y002866D01*
X003428Y002823D01*
X003415Y002781D01*
X003397Y002741D01*
X003376Y002702D01*
X003352Y002665D01*
X003325Y002630D01*
X003294Y002598D01*
X003261Y002569D01*
X003225Y002543D01*
X003187Y002521D01*
X003147Y002502D01*
X003106Y002486D01*
X003063Y002474D01*
X003020Y002466D01*
X002976Y002462D01*
X002932Y002462D01*
X002888Y002466D01*
X002845Y002474D01*
X002802Y002486D01*
X002761Y002502D01*
X002721Y002521D01*
X002683Y002543D01*
X002647Y002569D01*
X002614Y002598D01*
X002583Y002630D01*
X002556Y002665D01*
X002532Y002702D01*
X002511Y002741D01*
X002493Y002781D01*
X002480Y002823D01*
X002470Y002866D01*
X002464Y002910D01*
X002462Y002954D01*
X006360Y010612D02*
X006362Y010653D01*
X006368Y010694D01*
X006378Y010734D01*
X006391Y010773D01*
X006408Y010810D01*
X006429Y010846D01*
X006453Y010880D01*
X006480Y010911D01*
X006509Y010939D01*
X006542Y010965D01*
X006576Y010987D01*
X006613Y011006D01*
X006651Y011021D01*
X006691Y011033D01*
X006731Y011041D01*
X006772Y011045D01*
X006814Y011045D01*
X006855Y011041D01*
X006895Y011033D01*
X006935Y011021D01*
X006973Y011006D01*
X007009Y010987D01*
X007044Y010965D01*
X007077Y010939D01*
X007106Y010911D01*
X007133Y010880D01*
X007157Y010846D01*
X007178Y010810D01*
X007195Y010773D01*
X007208Y010734D01*
X007218Y010694D01*
X007224Y010653D01*
X007226Y010612D01*
X007224Y010571D01*
X007218Y010530D01*
X007208Y010490D01*
X007195Y010451D01*
X007178Y010414D01*
X007157Y010378D01*
X007133Y010344D01*
X007106Y010313D01*
X007077Y010285D01*
X007044Y010259D01*
X007010Y010237D01*
X006973Y010218D01*
X006935Y010203D01*
X006895Y010191D01*
X006855Y010183D01*
X006814Y010179D01*
X006772Y010179D01*
X006731Y010183D01*
X006691Y010191D01*
X006651Y010203D01*
X006613Y010218D01*
X006577Y010237D01*
X006542Y010259D01*
X006509Y010285D01*
X006480Y010313D01*
X006453Y010344D01*
X006429Y010378D01*
X006408Y010414D01*
X006391Y010451D01*
X006378Y010490D01*
X006368Y010530D01*
X006362Y010571D01*
X006360Y010612D01*
X014273Y002954D02*
X014275Y002998D01*
X014281Y003042D01*
X014291Y003085D01*
X014304Y003127D01*
X014322Y003167D01*
X014343Y003206D01*
X014367Y003243D01*
X014394Y003278D01*
X014425Y003310D01*
X014458Y003339D01*
X014494Y003365D01*
X014532Y003387D01*
X014572Y003406D01*
X014613Y003422D01*
X014656Y003434D01*
X014699Y003442D01*
X014743Y003446D01*
X014787Y003446D01*
X014831Y003442D01*
X014874Y003434D01*
X014917Y003422D01*
X014958Y003406D01*
X014998Y003387D01*
X015036Y003365D01*
X015072Y003339D01*
X015105Y003310D01*
X015136Y003278D01*
X015163Y003243D01*
X015187Y003206D01*
X015208Y003167D01*
X015226Y003127D01*
X015239Y003085D01*
X015249Y003042D01*
X015255Y002998D01*
X015257Y002954D01*
X015255Y002910D01*
X015249Y002866D01*
X015239Y002823D01*
X015226Y002781D01*
X015208Y002741D01*
X015187Y002702D01*
X015163Y002665D01*
X015136Y002630D01*
X015105Y002598D01*
X015072Y002569D01*
X015036Y002543D01*
X014998Y002521D01*
X014958Y002502D01*
X014917Y002486D01*
X014874Y002474D01*
X014831Y002466D01*
X014787Y002462D01*
X014743Y002462D01*
X014699Y002466D01*
X014656Y002474D01*
X014613Y002486D01*
X014572Y002502D01*
X014532Y002521D01*
X014494Y002543D01*
X014458Y002569D01*
X014425Y002598D01*
X014394Y002630D01*
X014367Y002665D01*
X014343Y002702D01*
X014322Y002741D01*
X014304Y002781D01*
X014291Y002823D01*
X014281Y002866D01*
X014275Y002910D01*
X014273Y002954D01*
X016045Y002954D02*
X016047Y002998D01*
X016053Y003042D01*
X016063Y003085D01*
X016076Y003127D01*
X016094Y003167D01*
X016115Y003206D01*
X016139Y003243D01*
X016166Y003278D01*
X016197Y003310D01*
X016230Y003339D01*
X016266Y003365D01*
X016304Y003387D01*
X016344Y003406D01*
X016385Y003422D01*
X016428Y003434D01*
X016471Y003442D01*
X016515Y003446D01*
X016559Y003446D01*
X016603Y003442D01*
X016646Y003434D01*
X016689Y003422D01*
X016730Y003406D01*
X016770Y003387D01*
X016808Y003365D01*
X016844Y003339D01*
X016877Y003310D01*
X016908Y003278D01*
X016935Y003243D01*
X016959Y003206D01*
X016980Y003167D01*
X016998Y003127D01*
X017011Y003085D01*
X017021Y003042D01*
X017027Y002998D01*
X017029Y002954D01*
X017027Y002910D01*
X017021Y002866D01*
X017011Y002823D01*
X016998Y002781D01*
X016980Y002741D01*
X016959Y002702D01*
X016935Y002665D01*
X016908Y002630D01*
X016877Y002598D01*
X016844Y002569D01*
X016808Y002543D01*
X016770Y002521D01*
X016730Y002502D01*
X016689Y002486D01*
X016646Y002474D01*
X016603Y002466D01*
X016559Y002462D01*
X016515Y002462D01*
X016471Y002466D01*
X016428Y002474D01*
X016385Y002486D01*
X016344Y002502D01*
X016304Y002521D01*
X016266Y002543D01*
X016230Y002569D01*
X016197Y002598D01*
X016166Y002630D01*
X016139Y002665D01*
X016115Y002702D01*
X016094Y002741D01*
X016076Y002781D01*
X016063Y002823D01*
X016053Y002866D01*
X016047Y002910D01*
X016045Y002954D01*
X015651Y000100D02*
X029234Y000100D01*
X029628Y002954D02*
X029630Y002998D01*
X029636Y003042D01*
X029646Y003085D01*
X029659Y003127D01*
X029677Y003167D01*
X029698Y003206D01*
X029722Y003243D01*
X029749Y003278D01*
X029780Y003310D01*
X029813Y003339D01*
X029849Y003365D01*
X029887Y003387D01*
X029927Y003406D01*
X029968Y003422D01*
X030011Y003434D01*
X030054Y003442D01*
X030098Y003446D01*
X030142Y003446D01*
X030186Y003442D01*
X030229Y003434D01*
X030272Y003422D01*
X030313Y003406D01*
X030353Y003387D01*
X030391Y003365D01*
X030427Y003339D01*
X030460Y003310D01*
X030491Y003278D01*
X030518Y003243D01*
X030542Y003206D01*
X030563Y003167D01*
X030581Y003127D01*
X030594Y003085D01*
X030604Y003042D01*
X030610Y002998D01*
X030612Y002954D01*
X030610Y002910D01*
X030604Y002866D01*
X030594Y002823D01*
X030581Y002781D01*
X030563Y002741D01*
X030542Y002702D01*
X030518Y002665D01*
X030491Y002630D01*
X030460Y002598D01*
X030427Y002569D01*
X030391Y002543D01*
X030353Y002521D01*
X030313Y002502D01*
X030272Y002486D01*
X030229Y002474D01*
X030186Y002466D01*
X030142Y002462D01*
X030098Y002462D01*
X030054Y002466D01*
X030011Y002474D01*
X029968Y002486D01*
X029927Y002502D01*
X029887Y002521D01*
X029849Y002543D01*
X029813Y002569D01*
X029780Y002598D01*
X029749Y002630D01*
X029722Y002665D01*
X029698Y002702D01*
X029677Y002741D01*
X029659Y002781D01*
X029646Y002823D01*
X029636Y002866D01*
X029630Y002910D01*
X029628Y002954D01*
X027856Y002954D02*
X027858Y002998D01*
X027864Y003042D01*
X027874Y003085D01*
X027887Y003127D01*
X027905Y003167D01*
X027926Y003206D01*
X027950Y003243D01*
X027977Y003278D01*
X028008Y003310D01*
X028041Y003339D01*
X028077Y003365D01*
X028115Y003387D01*
X028155Y003406D01*
X028196Y003422D01*
X028239Y003434D01*
X028282Y003442D01*
X028326Y003446D01*
X028370Y003446D01*
X028414Y003442D01*
X028457Y003434D01*
X028500Y003422D01*
X028541Y003406D01*
X028581Y003387D01*
X028619Y003365D01*
X028655Y003339D01*
X028688Y003310D01*
X028719Y003278D01*
X028746Y003243D01*
X028770Y003206D01*
X028791Y003167D01*
X028809Y003127D01*
X028822Y003085D01*
X028832Y003042D01*
X028838Y002998D01*
X028840Y002954D01*
X028838Y002910D01*
X028832Y002866D01*
X028822Y002823D01*
X028809Y002781D01*
X028791Y002741D01*
X028770Y002702D01*
X028746Y002665D01*
X028719Y002630D01*
X028688Y002598D01*
X028655Y002569D01*
X028619Y002543D01*
X028581Y002521D01*
X028541Y002502D01*
X028500Y002486D01*
X028457Y002474D01*
X028414Y002466D01*
X028370Y002462D01*
X028326Y002462D01*
X028282Y002466D01*
X028239Y002474D01*
X028196Y002486D01*
X028155Y002502D01*
X028115Y002521D01*
X028077Y002543D01*
X028041Y002569D01*
X028008Y002598D01*
X027977Y002630D01*
X027950Y002665D01*
X027926Y002702D01*
X027905Y002741D01*
X027887Y002781D01*
X027874Y002823D01*
X027864Y002866D01*
X027858Y002910D01*
X027856Y002954D01*
X033525Y010612D02*
X033527Y010653D01*
X033533Y010694D01*
X033543Y010734D01*
X033556Y010773D01*
X033573Y010810D01*
X033594Y010846D01*
X033618Y010880D01*
X033645Y010911D01*
X033674Y010939D01*
X033707Y010965D01*
X033741Y010987D01*
X033778Y011006D01*
X033816Y011021D01*
X033856Y011033D01*
X033896Y011041D01*
X033937Y011045D01*
X033979Y011045D01*
X034020Y011041D01*
X034060Y011033D01*
X034100Y011021D01*
X034138Y011006D01*
X034174Y010987D01*
X034209Y010965D01*
X034242Y010939D01*
X034271Y010911D01*
X034298Y010880D01*
X034322Y010846D01*
X034343Y010810D01*
X034360Y010773D01*
X034373Y010734D01*
X034383Y010694D01*
X034389Y010653D01*
X034391Y010612D01*
X034389Y010571D01*
X034383Y010530D01*
X034373Y010490D01*
X034360Y010451D01*
X034343Y010414D01*
X034322Y010378D01*
X034298Y010344D01*
X034271Y010313D01*
X034242Y010285D01*
X034209Y010259D01*
X034175Y010237D01*
X034138Y010218D01*
X034100Y010203D01*
X034060Y010191D01*
X034020Y010183D01*
X033979Y010179D01*
X033937Y010179D01*
X033896Y010183D01*
X033856Y010191D01*
X033816Y010203D01*
X033778Y010218D01*
X033742Y010237D01*
X033707Y010259D01*
X033674Y010285D01*
X033645Y010313D01*
X033618Y010344D01*
X033594Y010378D01*
X033573Y010414D01*
X033556Y010451D01*
X033543Y010490D01*
X033533Y010530D01*
X033527Y010571D01*
X033525Y010612D01*
X041439Y002954D02*
X041441Y002998D01*
X041447Y003042D01*
X041457Y003085D01*
X041470Y003127D01*
X041488Y003167D01*
X041509Y003206D01*
X041533Y003243D01*
X041560Y003278D01*
X041591Y003310D01*
X041624Y003339D01*
X041660Y003365D01*
X041698Y003387D01*
X041738Y003406D01*
X041779Y003422D01*
X041822Y003434D01*
X041865Y003442D01*
X041909Y003446D01*
X041953Y003446D01*
X041997Y003442D01*
X042040Y003434D01*
X042083Y003422D01*
X042124Y003406D01*
X042164Y003387D01*
X042202Y003365D01*
X042238Y003339D01*
X042271Y003310D01*
X042302Y003278D01*
X042329Y003243D01*
X042353Y003206D01*
X042374Y003167D01*
X042392Y003127D01*
X042405Y003085D01*
X042415Y003042D01*
X042421Y002998D01*
X042423Y002954D01*
X042421Y002910D01*
X042415Y002866D01*
X042405Y002823D01*
X042392Y002781D01*
X042374Y002741D01*
X042353Y002702D01*
X042329Y002665D01*
X042302Y002630D01*
X042271Y002598D01*
X042238Y002569D01*
X042202Y002543D01*
X042164Y002521D01*
X042124Y002502D01*
X042083Y002486D01*
X042040Y002474D01*
X041997Y002466D01*
X041953Y002462D01*
X041909Y002462D01*
X041865Y002466D01*
X041822Y002474D01*
X041779Y002486D01*
X041738Y002502D01*
X041698Y002521D01*
X041660Y002543D01*
X041624Y002569D01*
X041591Y002598D01*
X041560Y002630D01*
X041533Y002665D01*
X041509Y002702D01*
X041488Y002741D01*
X041470Y002781D01*
X041457Y002823D01*
X041447Y002866D01*
X041441Y002910D01*
X041439Y002954D01*
X042817Y000100D02*
X044785Y000100D01*
X044785Y002069D01*
X019943Y010612D02*
X019945Y010653D01*
X019951Y010694D01*
X019961Y010734D01*
X019974Y010773D01*
X019991Y010810D01*
X020012Y010846D01*
X020036Y010880D01*
X020063Y010911D01*
X020092Y010939D01*
X020125Y010965D01*
X020159Y010987D01*
X020196Y011006D01*
X020234Y011021D01*
X020274Y011033D01*
X020314Y011041D01*
X020355Y011045D01*
X020397Y011045D01*
X020438Y011041D01*
X020478Y011033D01*
X020518Y011021D01*
X020556Y011006D01*
X020592Y010987D01*
X020627Y010965D01*
X020660Y010939D01*
X020689Y010911D01*
X020716Y010880D01*
X020740Y010846D01*
X020761Y010810D01*
X020778Y010773D01*
X020791Y010734D01*
X020801Y010694D01*
X020807Y010653D01*
X020809Y010612D01*
X020807Y010571D01*
X020801Y010530D01*
X020791Y010490D01*
X020778Y010451D01*
X020761Y010414D01*
X020740Y010378D01*
X020716Y010344D01*
X020689Y010313D01*
X020660Y010285D01*
X020627Y010259D01*
X020593Y010237D01*
X020556Y010218D01*
X020518Y010203D01*
X020478Y010191D01*
X020438Y010183D01*
X020397Y010179D01*
X020355Y010179D01*
X020314Y010183D01*
X020274Y010191D01*
X020234Y010203D01*
X020196Y010218D01*
X020160Y010237D01*
X020125Y010259D01*
X020092Y010285D01*
X020063Y010313D01*
X020036Y010344D01*
X020012Y010378D01*
X019991Y010414D01*
X019974Y010451D01*
X019961Y010490D01*
X019951Y010530D01*
X019945Y010571D01*
X019943Y010612D01*
X019943Y032935D02*
X019945Y032976D01*
X019951Y033017D01*
X019961Y033057D01*
X019974Y033096D01*
X019991Y033133D01*
X020012Y033169D01*
X020036Y033203D01*
X020063Y033234D01*
X020092Y033262D01*
X020125Y033288D01*
X020159Y033310D01*
X020196Y033329D01*
X020234Y033344D01*
X020274Y033356D01*
X020314Y033364D01*
X020355Y033368D01*
X020397Y033368D01*
X020438Y033364D01*
X020478Y033356D01*
X020518Y033344D01*
X020556Y033329D01*
X020592Y033310D01*
X020627Y033288D01*
X020660Y033262D01*
X020689Y033234D01*
X020716Y033203D01*
X020740Y033169D01*
X020761Y033133D01*
X020778Y033096D01*
X020791Y033057D01*
X020801Y033017D01*
X020807Y032976D01*
X020809Y032935D01*
X020807Y032894D01*
X020801Y032853D01*
X020791Y032813D01*
X020778Y032774D01*
X020761Y032737D01*
X020740Y032701D01*
X020716Y032667D01*
X020689Y032636D01*
X020660Y032608D01*
X020627Y032582D01*
X020593Y032560D01*
X020556Y032541D01*
X020518Y032526D01*
X020478Y032514D01*
X020438Y032506D01*
X020397Y032502D01*
X020355Y032502D01*
X020314Y032506D01*
X020274Y032514D01*
X020234Y032526D01*
X020196Y032541D01*
X020160Y032560D01*
X020125Y032582D01*
X020092Y032608D01*
X020063Y032636D01*
X020036Y032667D01*
X020012Y032701D01*
X019991Y032737D01*
X019974Y032774D01*
X019961Y032813D01*
X019951Y032853D01*
X019945Y032894D01*
X019943Y032935D01*
X020179Y045828D02*
X020181Y045872D01*
X020187Y045916D01*
X020197Y045959D01*
X020210Y046001D01*
X020228Y046041D01*
X020249Y046080D01*
X020273Y046117D01*
X020300Y046152D01*
X020331Y046184D01*
X020364Y046213D01*
X020400Y046239D01*
X020438Y046261D01*
X020478Y046280D01*
X020519Y046296D01*
X020562Y046308D01*
X020605Y046316D01*
X020649Y046320D01*
X020693Y046320D01*
X020737Y046316D01*
X020780Y046308D01*
X020823Y046296D01*
X020864Y046280D01*
X020904Y046261D01*
X020942Y046239D01*
X020978Y046213D01*
X021011Y046184D01*
X021042Y046152D01*
X021069Y046117D01*
X021093Y046080D01*
X021114Y046041D01*
X021132Y046001D01*
X021145Y045959D01*
X021155Y045916D01*
X021161Y045872D01*
X021163Y045828D01*
X021161Y045784D01*
X021155Y045740D01*
X021145Y045697D01*
X021132Y045655D01*
X021114Y045615D01*
X021093Y045576D01*
X021069Y045539D01*
X021042Y045504D01*
X021011Y045472D01*
X020978Y045443D01*
X020942Y045417D01*
X020904Y045395D01*
X020864Y045376D01*
X020823Y045360D01*
X020780Y045348D01*
X020737Y045340D01*
X020693Y045336D01*
X020649Y045336D01*
X020605Y045340D01*
X020562Y045348D01*
X020519Y045360D01*
X020478Y045376D01*
X020438Y045395D01*
X020400Y045417D01*
X020364Y045443D01*
X020331Y045472D01*
X020300Y045504D01*
X020273Y045539D01*
X020249Y045576D01*
X020228Y045615D01*
X020210Y045655D01*
X020197Y045697D01*
X020187Y045740D01*
X020181Y045784D01*
X020179Y045828D01*
X015651Y048683D02*
X029234Y048683D01*
X027856Y045828D02*
X027858Y045872D01*
X027864Y045916D01*
X027874Y045959D01*
X027887Y046001D01*
X027905Y046041D01*
X027926Y046080D01*
X027950Y046117D01*
X027977Y046152D01*
X028008Y046184D01*
X028041Y046213D01*
X028077Y046239D01*
X028115Y046261D01*
X028155Y046280D01*
X028196Y046296D01*
X028239Y046308D01*
X028282Y046316D01*
X028326Y046320D01*
X028370Y046320D01*
X028414Y046316D01*
X028457Y046308D01*
X028500Y046296D01*
X028541Y046280D01*
X028581Y046261D01*
X028619Y046239D01*
X028655Y046213D01*
X028688Y046184D01*
X028719Y046152D01*
X028746Y046117D01*
X028770Y046080D01*
X028791Y046041D01*
X028809Y046001D01*
X028822Y045959D01*
X028832Y045916D01*
X028838Y045872D01*
X028840Y045828D01*
X028838Y045784D01*
X028832Y045740D01*
X028822Y045697D01*
X028809Y045655D01*
X028791Y045615D01*
X028770Y045576D01*
X028746Y045539D01*
X028719Y045504D01*
X028688Y045472D01*
X028655Y045443D01*
X028619Y045417D01*
X028581Y045395D01*
X028541Y045376D01*
X028500Y045360D01*
X028457Y045348D01*
X028414Y045340D01*
X028370Y045336D01*
X028326Y045336D01*
X028282Y045340D01*
X028239Y045348D01*
X028196Y045360D01*
X028155Y045376D01*
X028115Y045395D01*
X028077Y045417D01*
X028041Y045443D01*
X028008Y045472D01*
X027977Y045504D01*
X027950Y045539D01*
X027926Y045576D01*
X027905Y045615D01*
X027887Y045655D01*
X027874Y045697D01*
X027864Y045740D01*
X027858Y045784D01*
X027856Y045828D01*
X033762Y045828D02*
X033764Y045872D01*
X033770Y045916D01*
X033780Y045959D01*
X033793Y046001D01*
X033811Y046041D01*
X033832Y046080D01*
X033856Y046117D01*
X033883Y046152D01*
X033914Y046184D01*
X033947Y046213D01*
X033983Y046239D01*
X034021Y046261D01*
X034061Y046280D01*
X034102Y046296D01*
X034145Y046308D01*
X034188Y046316D01*
X034232Y046320D01*
X034276Y046320D01*
X034320Y046316D01*
X034363Y046308D01*
X034406Y046296D01*
X034447Y046280D01*
X034487Y046261D01*
X034525Y046239D01*
X034561Y046213D01*
X034594Y046184D01*
X034625Y046152D01*
X034652Y046117D01*
X034676Y046080D01*
X034697Y046041D01*
X034715Y046001D01*
X034728Y045959D01*
X034738Y045916D01*
X034744Y045872D01*
X034746Y045828D01*
X034744Y045784D01*
X034738Y045740D01*
X034728Y045697D01*
X034715Y045655D01*
X034697Y045615D01*
X034676Y045576D01*
X034652Y045539D01*
X034625Y045504D01*
X034594Y045472D01*
X034561Y045443D01*
X034525Y045417D01*
X034487Y045395D01*
X034447Y045376D01*
X034406Y045360D01*
X034363Y045348D01*
X034320Y045340D01*
X034276Y045336D01*
X034232Y045336D01*
X034188Y045340D01*
X034145Y045348D01*
X034102Y045360D01*
X034061Y045376D01*
X034021Y045395D01*
X033983Y045417D01*
X033947Y045443D01*
X033914Y045472D01*
X033883Y045504D01*
X033856Y045539D01*
X033832Y045576D01*
X033811Y045615D01*
X033793Y045655D01*
X033780Y045697D01*
X033770Y045740D01*
X033764Y045784D01*
X033762Y045828D01*
X041439Y045828D02*
X041441Y045872D01*
X041447Y045916D01*
X041457Y045959D01*
X041470Y046001D01*
X041488Y046041D01*
X041509Y046080D01*
X041533Y046117D01*
X041560Y046152D01*
X041591Y046184D01*
X041624Y046213D01*
X041660Y046239D01*
X041698Y046261D01*
X041738Y046280D01*
X041779Y046296D01*
X041822Y046308D01*
X041865Y046316D01*
X041909Y046320D01*
X041953Y046320D01*
X041997Y046316D01*
X042040Y046308D01*
X042083Y046296D01*
X042124Y046280D01*
X042164Y046261D01*
X042202Y046239D01*
X042238Y046213D01*
X042271Y046184D01*
X042302Y046152D01*
X042329Y046117D01*
X042353Y046080D01*
X042374Y046041D01*
X042392Y046001D01*
X042405Y045959D01*
X042415Y045916D01*
X042421Y045872D01*
X042423Y045828D01*
X042421Y045784D01*
X042415Y045740D01*
X042405Y045697D01*
X042392Y045655D01*
X042374Y045615D01*
X042353Y045576D01*
X042329Y045539D01*
X042302Y045504D01*
X042271Y045472D01*
X042238Y045443D01*
X042202Y045417D01*
X042164Y045395D01*
X042124Y045376D01*
X042083Y045360D01*
X042040Y045348D01*
X041997Y045340D01*
X041953Y045336D01*
X041909Y045336D01*
X041865Y045340D01*
X041822Y045348D01*
X041779Y045360D01*
X041738Y045376D01*
X041698Y045395D01*
X041660Y045417D01*
X041624Y045443D01*
X041591Y045472D01*
X041560Y045504D01*
X041533Y045539D01*
X041509Y045576D01*
X041488Y045615D01*
X041470Y045655D01*
X041457Y045697D01*
X041447Y045740D01*
X041441Y045784D01*
X041439Y045828D01*
X042817Y048683D02*
X044785Y048683D01*
X044785Y046714D01*
X033525Y032935D02*
X033527Y032976D01*
X033533Y033017D01*
X033543Y033057D01*
X033556Y033096D01*
X033573Y033133D01*
X033594Y033169D01*
X033618Y033203D01*
X033645Y033234D01*
X033674Y033262D01*
X033707Y033288D01*
X033741Y033310D01*
X033778Y033329D01*
X033816Y033344D01*
X033856Y033356D01*
X033896Y033364D01*
X033937Y033368D01*
X033979Y033368D01*
X034020Y033364D01*
X034060Y033356D01*
X034100Y033344D01*
X034138Y033329D01*
X034174Y033310D01*
X034209Y033288D01*
X034242Y033262D01*
X034271Y033234D01*
X034298Y033203D01*
X034322Y033169D01*
X034343Y033133D01*
X034360Y033096D01*
X034373Y033057D01*
X034383Y033017D01*
X034389Y032976D01*
X034391Y032935D01*
X034389Y032894D01*
X034383Y032853D01*
X034373Y032813D01*
X034360Y032774D01*
X034343Y032737D01*
X034322Y032701D01*
X034298Y032667D01*
X034271Y032636D01*
X034242Y032608D01*
X034209Y032582D01*
X034175Y032560D01*
X034138Y032541D01*
X034100Y032526D01*
X034060Y032514D01*
X034020Y032506D01*
X033979Y032502D01*
X033937Y032502D01*
X033896Y032506D01*
X033856Y032514D01*
X033816Y032526D01*
X033778Y032541D01*
X033742Y032560D01*
X033707Y032582D01*
X033674Y032608D01*
X033645Y032636D01*
X033618Y032667D01*
X033594Y032701D01*
X033573Y032737D01*
X033556Y032774D01*
X033543Y032813D01*
X033533Y032853D01*
X033527Y032894D01*
X033525Y032935D01*
X014273Y045828D02*
X014275Y045872D01*
X014281Y045916D01*
X014291Y045959D01*
X014304Y046001D01*
X014322Y046041D01*
X014343Y046080D01*
X014367Y046117D01*
X014394Y046152D01*
X014425Y046184D01*
X014458Y046213D01*
X014494Y046239D01*
X014532Y046261D01*
X014572Y046280D01*
X014613Y046296D01*
X014656Y046308D01*
X014699Y046316D01*
X014743Y046320D01*
X014787Y046320D01*
X014831Y046316D01*
X014874Y046308D01*
X014917Y046296D01*
X014958Y046280D01*
X014998Y046261D01*
X015036Y046239D01*
X015072Y046213D01*
X015105Y046184D01*
X015136Y046152D01*
X015163Y046117D01*
X015187Y046080D01*
X015208Y046041D01*
X015226Y046001D01*
X015239Y045959D01*
X015249Y045916D01*
X015255Y045872D01*
X015257Y045828D01*
X015255Y045784D01*
X015249Y045740D01*
X015239Y045697D01*
X015226Y045655D01*
X015208Y045615D01*
X015187Y045576D01*
X015163Y045539D01*
X015136Y045504D01*
X015105Y045472D01*
X015072Y045443D01*
X015036Y045417D01*
X014998Y045395D01*
X014958Y045376D01*
X014917Y045360D01*
X014874Y045348D01*
X014831Y045340D01*
X014787Y045336D01*
X014743Y045336D01*
X014699Y045340D01*
X014656Y045348D01*
X014613Y045360D01*
X014572Y045376D01*
X014532Y045395D01*
X014494Y045417D01*
X014458Y045443D01*
X014425Y045472D01*
X014394Y045504D01*
X014367Y045539D01*
X014343Y045576D01*
X014322Y045615D01*
X014304Y045655D01*
X014291Y045697D01*
X014281Y045740D01*
X014275Y045784D01*
X014273Y045828D01*
X006596Y045828D02*
X006598Y045872D01*
X006604Y045916D01*
X006614Y045959D01*
X006627Y046001D01*
X006645Y046041D01*
X006666Y046080D01*
X006690Y046117D01*
X006717Y046152D01*
X006748Y046184D01*
X006781Y046213D01*
X006817Y046239D01*
X006855Y046261D01*
X006895Y046280D01*
X006936Y046296D01*
X006979Y046308D01*
X007022Y046316D01*
X007066Y046320D01*
X007110Y046320D01*
X007154Y046316D01*
X007197Y046308D01*
X007240Y046296D01*
X007281Y046280D01*
X007321Y046261D01*
X007359Y046239D01*
X007395Y046213D01*
X007428Y046184D01*
X007459Y046152D01*
X007486Y046117D01*
X007510Y046080D01*
X007531Y046041D01*
X007549Y046001D01*
X007562Y045959D01*
X007572Y045916D01*
X007578Y045872D01*
X007580Y045828D01*
X007578Y045784D01*
X007572Y045740D01*
X007562Y045697D01*
X007549Y045655D01*
X007531Y045615D01*
X007510Y045576D01*
X007486Y045539D01*
X007459Y045504D01*
X007428Y045472D01*
X007395Y045443D01*
X007359Y045417D01*
X007321Y045395D01*
X007281Y045376D01*
X007240Y045360D01*
X007197Y045348D01*
X007154Y045340D01*
X007110Y045336D01*
X007066Y045336D01*
X007022Y045340D01*
X006979Y045348D01*
X006936Y045360D01*
X006895Y045376D01*
X006855Y045395D01*
X006817Y045417D01*
X006781Y045443D01*
X006748Y045472D01*
X006717Y045504D01*
X006690Y045539D01*
X006666Y045576D01*
X006645Y045615D01*
X006627Y045655D01*
X006614Y045697D01*
X006604Y045740D01*
X006598Y045784D01*
X006596Y045828D01*
X002069Y048683D02*
X000100Y048683D01*
X000100Y046714D01*
X006360Y032935D02*
X006362Y032976D01*
X006368Y033017D01*
X006378Y033057D01*
X006391Y033096D01*
X006408Y033133D01*
X006429Y033169D01*
X006453Y033203D01*
X006480Y033234D01*
X006509Y033262D01*
X006542Y033288D01*
X006576Y033310D01*
X006613Y033329D01*
X006651Y033344D01*
X006691Y033356D01*
X006731Y033364D01*
X006772Y033368D01*
X006814Y033368D01*
X006855Y033364D01*
X006895Y033356D01*
X006935Y033344D01*
X006973Y033329D01*
X007009Y033310D01*
X007044Y033288D01*
X007077Y033262D01*
X007106Y033234D01*
X007133Y033203D01*
X007157Y033169D01*
X007178Y033133D01*
X007195Y033096D01*
X007208Y033057D01*
X007218Y033017D01*
X007224Y032976D01*
X007226Y032935D01*
X007224Y032894D01*
X007218Y032853D01*
X007208Y032813D01*
X007195Y032774D01*
X007178Y032737D01*
X007157Y032701D01*
X007133Y032667D01*
X007106Y032636D01*
X007077Y032608D01*
X007044Y032582D01*
X007010Y032560D01*
X006973Y032541D01*
X006935Y032526D01*
X006895Y032514D01*
X006855Y032506D01*
X006814Y032502D01*
X006772Y032502D01*
X006731Y032506D01*
X006691Y032514D01*
X006651Y032526D01*
X006613Y032541D01*
X006577Y032560D01*
X006542Y032582D01*
X006509Y032608D01*
X006480Y032636D01*
X006453Y032667D01*
X006429Y032701D01*
X006408Y032737D01*
X006391Y032774D01*
X006378Y032813D01*
X006368Y032853D01*
X006362Y032894D01*
X006360Y032935D01*
D11*
X006793Y032935D03*
X020376Y032935D03*
X033958Y032935D03*
X033958Y010612D03*
X020376Y010612D03*
X006793Y010612D03*
D12*
X008122Y010515D02*
X008256Y010649D01*
X008389Y010515D01*
X008389Y010248D01*
X008583Y010248D02*
X008583Y010649D01*
X008850Y010248D01*
X008850Y010649D01*
X008389Y010449D02*
X008122Y010449D01*
X008122Y010515D02*
X008122Y010248D01*
X012689Y007145D02*
X012689Y006744D01*
X012890Y006744D01*
X012956Y006811D01*
X012956Y007078D01*
X012890Y007145D01*
X012689Y007145D01*
X013150Y007145D02*
X013417Y006744D01*
X013417Y007145D01*
X013150Y007145D02*
X013150Y006744D01*
X010626Y002708D02*
X010626Y002307D01*
X010359Y002708D01*
X010359Y002307D01*
X010165Y002374D02*
X010165Y002508D01*
X010032Y002508D01*
X010165Y002641D02*
X010099Y002708D01*
X009965Y002708D01*
X009899Y002641D01*
X009899Y002374D01*
X009965Y002307D01*
X010099Y002307D01*
X010165Y002374D01*
X009705Y002307D02*
X009705Y002574D01*
X009572Y002708D01*
X009438Y002574D01*
X009438Y002307D01*
X009438Y002508D02*
X009705Y002508D01*
X021705Y010248D02*
X021705Y010515D01*
X021839Y010649D01*
X021972Y010515D01*
X021972Y010248D01*
X022166Y010248D02*
X022166Y010649D01*
X022432Y010248D01*
X022432Y010649D01*
X021972Y010449D02*
X021705Y010449D01*
X026272Y007145D02*
X026272Y006744D01*
X026472Y006744D01*
X026539Y006811D01*
X026539Y007078D01*
X026472Y007145D01*
X026272Y007145D01*
X026732Y007145D02*
X026999Y006744D01*
X026999Y007145D01*
X026732Y007145D02*
X026732Y006744D01*
X024208Y002708D02*
X024208Y002307D01*
X023942Y002708D01*
X023942Y002307D01*
X023748Y002374D02*
X023748Y002508D01*
X023615Y002508D01*
X023748Y002641D02*
X023681Y002708D01*
X023548Y002708D01*
X023481Y002641D01*
X023481Y002374D01*
X023548Y002307D01*
X023681Y002307D01*
X023748Y002374D01*
X023288Y002307D02*
X023288Y002574D01*
X023154Y002708D01*
X023021Y002574D01*
X023021Y002307D01*
X023021Y002508D02*
X023288Y002508D01*
X035288Y010248D02*
X035288Y010515D01*
X035421Y010649D01*
X035555Y010515D01*
X035555Y010248D01*
X035748Y010248D02*
X035748Y010649D01*
X036015Y010248D01*
X036015Y010649D01*
X035555Y010449D02*
X035288Y010449D01*
X039855Y007145D02*
X039855Y006744D01*
X040055Y006744D01*
X040122Y006811D01*
X040122Y007078D01*
X040055Y007145D01*
X039855Y007145D01*
X040315Y007145D02*
X040582Y006744D01*
X040582Y007145D01*
X040315Y007145D02*
X040315Y006744D01*
X037791Y002708D02*
X037791Y002307D01*
X037524Y002708D01*
X037524Y002307D01*
X037331Y002374D02*
X037331Y002508D01*
X037197Y002508D01*
X037064Y002641D02*
X037064Y002374D01*
X037131Y002307D01*
X037264Y002307D01*
X037331Y002374D01*
X037331Y002641D02*
X037264Y002708D01*
X037131Y002708D01*
X037064Y002641D01*
X036870Y002574D02*
X036870Y002307D01*
X036870Y002508D02*
X036603Y002508D01*
X036603Y002574D02*
X036737Y002708D01*
X036870Y002574D01*
X036603Y002574D02*
X036603Y002307D01*
X036603Y024630D02*
X036603Y024897D01*
X036737Y025031D01*
X036870Y024897D01*
X036870Y024630D01*
X036870Y024830D02*
X036603Y024830D01*
X037064Y024697D02*
X037064Y024964D01*
X037131Y025031D01*
X037264Y025031D01*
X037331Y024964D01*
X037331Y024830D02*
X037197Y024830D01*
X037331Y024830D02*
X037331Y024697D01*
X037264Y024630D01*
X037131Y024630D01*
X037064Y024697D01*
X037524Y024630D02*
X037524Y025031D01*
X037791Y024630D01*
X037791Y025031D01*
X039855Y029067D02*
X040055Y029067D01*
X040122Y029134D01*
X040122Y029401D01*
X040055Y029468D01*
X039855Y029468D01*
X039855Y029067D01*
X040315Y029067D02*
X040315Y029468D01*
X040582Y029067D01*
X040582Y029468D01*
X036015Y032571D02*
X036015Y032972D01*
X035748Y032972D02*
X036015Y032571D01*
X035748Y032571D02*
X035748Y032972D01*
X035555Y032838D02*
X035555Y032571D01*
X035555Y032771D02*
X035288Y032771D01*
X035288Y032838D02*
X035421Y032972D01*
X035555Y032838D01*
X035288Y032838D02*
X035288Y032571D01*
X026999Y029468D02*
X026999Y029067D01*
X026732Y029468D01*
X026732Y029067D01*
X026539Y029134D02*
X026539Y029401D01*
X026472Y029468D01*
X026272Y029468D01*
X026272Y029067D01*
X026472Y029067D01*
X026539Y029134D01*
X024208Y025031D02*
X024208Y024630D01*
X023942Y025031D01*
X023942Y024630D01*
X023748Y024697D02*
X023748Y024830D01*
X023615Y024830D01*
X023748Y024697D02*
X023681Y024630D01*
X023548Y024630D01*
X023481Y024697D01*
X023481Y024964D01*
X023548Y025031D01*
X023681Y025031D01*
X023748Y024964D01*
X023288Y024897D02*
X023288Y024630D01*
X023288Y024830D02*
X023021Y024830D01*
X023021Y024897D02*
X023021Y024630D01*
X023021Y024897D02*
X023154Y025031D01*
X023288Y024897D01*
X022432Y032571D02*
X022432Y032972D01*
X022166Y032972D02*
X022432Y032571D01*
X022166Y032571D02*
X022166Y032972D01*
X021972Y032838D02*
X021972Y032571D01*
X021972Y032771D02*
X021705Y032771D01*
X021705Y032838D02*
X021839Y032972D01*
X021972Y032838D01*
X021705Y032838D02*
X021705Y032571D01*
X013417Y029468D02*
X013417Y029067D01*
X013150Y029468D01*
X013150Y029067D01*
X012956Y029134D02*
X012956Y029401D01*
X012890Y029468D01*
X012689Y029468D01*
X012689Y029067D01*
X012890Y029067D01*
X012956Y029134D01*
X010626Y025031D02*
X010626Y024630D01*
X010359Y025031D01*
X010359Y024630D01*
X010165Y024697D02*
X010165Y024830D01*
X010032Y024830D01*
X010165Y024697D02*
X010099Y024630D01*
X009965Y024630D01*
X009899Y024697D01*
X009899Y024964D01*
X009965Y025031D01*
X010099Y025031D01*
X010165Y024964D01*
X009705Y024897D02*
X009705Y024630D01*
X009705Y024830D02*
X009438Y024830D01*
X009438Y024897D02*
X009438Y024630D01*
X009438Y024897D02*
X009572Y025031D01*
X009705Y024897D01*
X008850Y032571D02*
X008850Y032972D01*
X008583Y032972D02*
X008850Y032571D01*
X008583Y032571D02*
X008583Y032972D01*
X008389Y032838D02*
X008389Y032571D01*
X008389Y032771D02*
X008122Y032771D01*
X008122Y032838D02*
X008256Y032972D01*
X008389Y032838D01*
X008122Y032838D02*
X008122Y032571D01*
D13*
X002954Y025277D03*
X007088Y023506D03*
X014765Y023506D03*
X014765Y025277D03*
X016537Y025277D03*
X020671Y023506D03*
X028348Y023506D03*
X028348Y025277D03*
X030120Y025277D03*
X034254Y023506D03*
X041931Y023506D03*
X041931Y025277D03*
X041931Y045828D03*
X034254Y045828D03*
X028348Y045828D03*
X020671Y045828D03*
X014765Y045828D03*
X007088Y045828D03*
X002954Y002954D03*
X014765Y002954D03*
X016537Y002954D03*
X028348Y002954D03*
X030120Y002954D03*
X041931Y002954D03*
D14*
X042401Y004170D02*
X042350Y004221D01*
X042350Y004376D01*
X042660Y004376D01*
X042660Y004221D01*
X042608Y004170D01*
X042401Y004170D01*
X042350Y004519D02*
X042350Y004622D01*
X042350Y004570D02*
X042557Y004570D01*
X042557Y004622D01*
X042660Y004570D02*
X042712Y004570D01*
X029129Y004570D02*
X029077Y004570D01*
X028974Y004570D02*
X028767Y004570D01*
X028767Y004519D02*
X028767Y004622D01*
X028974Y004622D02*
X028974Y004570D01*
X029077Y004376D02*
X028767Y004376D01*
X028767Y004221D01*
X028819Y004170D01*
X029026Y004170D01*
X029077Y004221D01*
X029077Y004376D01*
X015546Y004570D02*
X015495Y004570D01*
X015391Y004570D02*
X015184Y004570D01*
X015184Y004519D02*
X015184Y004622D01*
X015391Y004622D02*
X015391Y004570D01*
X015495Y004376D02*
X015184Y004376D01*
X015184Y004221D01*
X015236Y004170D01*
X015443Y004170D01*
X015495Y004221D01*
X015495Y004376D01*
X015443Y026492D02*
X015236Y026492D01*
X015184Y026544D01*
X015184Y026699D01*
X015495Y026699D01*
X015495Y026544D01*
X015443Y026492D01*
X015495Y026893D02*
X015546Y026893D01*
X015391Y026893D02*
X015184Y026893D01*
X015184Y026945D02*
X015184Y026841D01*
X015391Y026893D02*
X015391Y026945D01*
X028767Y026945D02*
X028767Y026841D01*
X028767Y026893D02*
X028974Y026893D01*
X028974Y026945D01*
X029077Y026893D02*
X029129Y026893D01*
X029077Y026699D02*
X028767Y026699D01*
X028767Y026544D01*
X028819Y026492D01*
X029026Y026492D01*
X029077Y026544D01*
X029077Y026699D01*
X042350Y026699D02*
X042350Y026544D01*
X042401Y026492D01*
X042608Y026492D01*
X042660Y026544D01*
X042660Y026699D01*
X042350Y026699D01*
X042350Y026841D02*
X042350Y026945D01*
X042350Y026893D02*
X042557Y026893D01*
X042557Y026945D01*
X042660Y026893D02*
X042712Y026893D01*
D15*
X040710Y023663D03*
X027128Y023663D03*
X013545Y023663D03*
X013545Y045986D03*
X027128Y045986D03*
X040710Y045986D03*
D16*
X038624Y043584D03*
X025041Y043584D03*
X011458Y043584D03*
X011458Y021261D03*
X025041Y021261D03*
X038624Y021261D03*
D17*
X036990Y024037D03*
X023407Y024037D03*
X009824Y024037D03*
X009824Y046360D03*
X023407Y046360D03*
X036990Y046360D03*
D18*
X037466Y045670D02*
X037619Y045670D01*
X037587Y045622D02*
X037390Y045622D01*
X037315Y045573D02*
X037603Y045573D01*
X037580Y045612D02*
X037659Y045730D01*
X037620Y045769D01*
X037069Y045415D01*
X037069Y044982D01*
X037305Y044628D01*
X037738Y044470D01*
X038171Y043761D01*
X038998Y043761D01*
X038998Y045179D01*
X038683Y044864D01*
X038013Y044864D01*
X037580Y045612D01*
X037631Y045525D02*
X037239Y045525D01*
X037164Y045476D02*
X037659Y045476D01*
X037687Y045428D02*
X037088Y045428D01*
X037069Y045379D02*
X037715Y045379D01*
X037743Y045331D02*
X037069Y045331D01*
X037069Y045282D02*
X037771Y045282D01*
X037799Y045234D02*
X037069Y045234D01*
X037069Y045185D02*
X037827Y045185D01*
X037855Y045137D02*
X037069Y045137D01*
X037069Y045088D02*
X037883Y045088D01*
X037912Y045040D02*
X037069Y045040D01*
X037069Y044991D02*
X037940Y044991D01*
X037968Y044943D02*
X037095Y044943D01*
X037127Y044894D02*
X037996Y044894D01*
X037745Y044458D02*
X038998Y044458D01*
X038998Y044506D02*
X037638Y044506D01*
X037505Y044555D02*
X038998Y044555D01*
X038998Y044603D02*
X037372Y044603D01*
X037289Y044652D02*
X038998Y044652D01*
X038998Y044700D02*
X037256Y044700D01*
X037224Y044749D02*
X038998Y044749D01*
X038998Y044797D02*
X037192Y044797D01*
X037159Y044846D02*
X038998Y044846D01*
X038998Y044894D02*
X038713Y044894D01*
X038762Y044943D02*
X038998Y044943D01*
X038998Y044991D02*
X038810Y044991D01*
X038859Y045040D02*
X038998Y045040D01*
X038998Y045088D02*
X038907Y045088D01*
X038956Y045137D02*
X038998Y045137D01*
X038998Y044409D02*
X037775Y044409D01*
X037805Y044361D02*
X038998Y044361D01*
X038998Y044312D02*
X037834Y044312D01*
X037864Y044264D02*
X038998Y044264D01*
X038998Y044215D02*
X037894Y044215D01*
X037923Y044167D02*
X038998Y044167D01*
X038998Y044118D02*
X037953Y044118D01*
X037982Y044070D02*
X038998Y044070D01*
X038998Y044021D02*
X038012Y044021D01*
X038042Y043973D02*
X038998Y043973D01*
X038998Y043924D02*
X038071Y043924D01*
X038101Y043876D02*
X038998Y043876D01*
X038998Y043827D02*
X038131Y043827D01*
X038160Y043779D02*
X038998Y043779D01*
X037652Y045719D02*
X037541Y045719D01*
X037616Y045767D02*
X037622Y045767D01*
X025415Y045179D02*
X025415Y043761D01*
X024588Y043761D01*
X024155Y044470D01*
X023722Y044628D01*
X023486Y044982D01*
X023486Y045415D01*
X024037Y045769D01*
X024076Y045730D01*
X023998Y045612D01*
X024431Y044864D01*
X025100Y044864D01*
X025415Y045179D01*
X025415Y045137D02*
X025373Y045137D01*
X025415Y045088D02*
X025324Y045088D01*
X025276Y045040D02*
X025415Y045040D01*
X025415Y044991D02*
X025227Y044991D01*
X025179Y044943D02*
X025415Y044943D01*
X025415Y044894D02*
X025130Y044894D01*
X025415Y044846D02*
X023577Y044846D01*
X023544Y044894D02*
X024413Y044894D01*
X024385Y044943D02*
X023512Y044943D01*
X023486Y044991D02*
X024357Y044991D01*
X024329Y045040D02*
X023486Y045040D01*
X023486Y045088D02*
X024301Y045088D01*
X024273Y045137D02*
X023486Y045137D01*
X023486Y045185D02*
X024245Y045185D01*
X024217Y045234D02*
X023486Y045234D01*
X023486Y045282D02*
X024188Y045282D01*
X024160Y045331D02*
X023486Y045331D01*
X023486Y045379D02*
X024132Y045379D01*
X024104Y045428D02*
X023506Y045428D01*
X023581Y045476D02*
X024076Y045476D01*
X024048Y045525D02*
X023657Y045525D01*
X023732Y045573D02*
X024020Y045573D01*
X024004Y045622D02*
X023807Y045622D01*
X023883Y045670D02*
X024037Y045670D01*
X024069Y045719D02*
X023958Y045719D01*
X024034Y045767D02*
X024039Y045767D01*
X023609Y044797D02*
X025415Y044797D01*
X025415Y044749D02*
X023641Y044749D01*
X023674Y044700D02*
X025415Y044700D01*
X025415Y044652D02*
X023706Y044652D01*
X023789Y044603D02*
X025415Y044603D01*
X025415Y044555D02*
X023922Y044555D01*
X024056Y044506D02*
X025415Y044506D01*
X025415Y044458D02*
X024163Y044458D01*
X024192Y044409D02*
X025415Y044409D01*
X025415Y044361D02*
X024222Y044361D01*
X024252Y044312D02*
X025415Y044312D01*
X025415Y044264D02*
X024281Y044264D01*
X024311Y044215D02*
X025415Y044215D01*
X025415Y044167D02*
X024341Y044167D01*
X024370Y044118D02*
X025415Y044118D01*
X025415Y044070D02*
X024400Y044070D01*
X024429Y044021D02*
X025415Y044021D01*
X025415Y043973D02*
X024459Y043973D01*
X024489Y043924D02*
X025415Y043924D01*
X025415Y043876D02*
X024518Y043876D01*
X024548Y043827D02*
X025415Y043827D01*
X025415Y043779D02*
X024578Y043779D01*
X011832Y043779D02*
X010995Y043779D01*
X011006Y043761D02*
X011832Y043761D01*
X011832Y045179D01*
X011517Y044864D01*
X010848Y044864D01*
X010415Y045612D01*
X010494Y045730D01*
X010454Y045769D01*
X009903Y045415D01*
X009903Y044982D01*
X010139Y044628D01*
X010572Y044470D01*
X011006Y043761D01*
X010965Y043827D02*
X011832Y043827D01*
X011832Y043876D02*
X010936Y043876D01*
X010906Y043924D02*
X011832Y043924D01*
X011832Y043973D02*
X010876Y043973D01*
X010847Y044021D02*
X011832Y044021D01*
X011832Y044070D02*
X010817Y044070D01*
X010787Y044118D02*
X011832Y044118D01*
X011832Y044167D02*
X010758Y044167D01*
X010728Y044215D02*
X011832Y044215D01*
X011832Y044264D02*
X010699Y044264D01*
X010669Y044312D02*
X011832Y044312D01*
X011832Y044361D02*
X010639Y044361D01*
X010610Y044409D02*
X011832Y044409D01*
X011832Y044458D02*
X010580Y044458D01*
X010473Y044506D02*
X011832Y044506D01*
X011832Y044555D02*
X010340Y044555D01*
X010206Y044603D02*
X011832Y044603D01*
X011832Y044652D02*
X010123Y044652D01*
X010091Y044700D02*
X011832Y044700D01*
X011832Y044749D02*
X010059Y044749D01*
X010026Y044797D02*
X011832Y044797D01*
X011832Y044846D02*
X009994Y044846D01*
X009962Y044894D02*
X010830Y044894D01*
X010802Y044943D02*
X009929Y044943D01*
X009903Y044991D02*
X010774Y044991D01*
X010746Y045040D02*
X009903Y045040D01*
X009903Y045088D02*
X010718Y045088D01*
X010690Y045137D02*
X009903Y045137D01*
X009903Y045185D02*
X010662Y045185D01*
X010634Y045234D02*
X009903Y045234D01*
X009903Y045282D02*
X010606Y045282D01*
X010578Y045331D02*
X009903Y045331D01*
X009903Y045379D02*
X010550Y045379D01*
X010522Y045428D02*
X009923Y045428D01*
X009998Y045476D02*
X010493Y045476D01*
X010465Y045525D02*
X010074Y045525D01*
X010149Y045573D02*
X010437Y045573D01*
X010422Y045622D02*
X010225Y045622D01*
X010300Y045670D02*
X010454Y045670D01*
X010486Y045719D02*
X010376Y045719D01*
X010451Y045767D02*
X010456Y045767D01*
X011548Y044894D02*
X011832Y044894D01*
X011832Y044943D02*
X011596Y044943D01*
X011645Y044991D02*
X011832Y044991D01*
X011832Y045040D02*
X011693Y045040D01*
X011742Y045088D02*
X011832Y045088D01*
X011832Y045137D02*
X011790Y045137D01*
X010454Y023446D02*
X009903Y023092D01*
X009903Y022659D01*
X010139Y022305D01*
X010572Y022147D01*
X011006Y021439D01*
X011832Y021439D01*
X011832Y022856D01*
X011517Y022541D01*
X010848Y022541D01*
X010415Y023289D01*
X010494Y023407D01*
X010454Y023446D01*
X010492Y023409D02*
X010395Y023409D01*
X010462Y023360D02*
X010320Y023360D01*
X010245Y023312D02*
X010430Y023312D01*
X010430Y023263D02*
X010169Y023263D01*
X010094Y023215D02*
X010458Y023215D01*
X010486Y023166D02*
X010018Y023166D01*
X009943Y023118D02*
X010514Y023118D01*
X010542Y023069D02*
X009903Y023069D01*
X009903Y023021D02*
X010570Y023021D01*
X010598Y022972D02*
X009903Y022972D01*
X009903Y022924D02*
X010626Y022924D01*
X010655Y022875D02*
X009903Y022875D01*
X009903Y022827D02*
X010683Y022827D01*
X010711Y022778D02*
X009903Y022778D01*
X009903Y022730D02*
X010739Y022730D01*
X010767Y022681D02*
X009903Y022681D01*
X009921Y022633D02*
X010795Y022633D01*
X010823Y022584D02*
X009953Y022584D01*
X009985Y022536D02*
X011832Y022536D01*
X011832Y022584D02*
X011560Y022584D01*
X011609Y022633D02*
X011832Y022633D01*
X011832Y022681D02*
X011657Y022681D01*
X011706Y022730D02*
X011832Y022730D01*
X011832Y022778D02*
X011754Y022778D01*
X011803Y022827D02*
X011832Y022827D01*
X011832Y022487D02*
X010018Y022487D01*
X010050Y022439D02*
X011832Y022439D01*
X011832Y022390D02*
X010082Y022390D01*
X010115Y022342D02*
X011832Y022342D01*
X011832Y022293D02*
X010171Y022293D01*
X010305Y022245D02*
X011832Y022245D01*
X011832Y022196D02*
X010438Y022196D01*
X010571Y022148D02*
X011832Y022148D01*
X011832Y022099D02*
X010602Y022099D01*
X010631Y022051D02*
X011832Y022051D01*
X011832Y022002D02*
X010661Y022002D01*
X010691Y021954D02*
X011832Y021954D01*
X011832Y021905D02*
X010720Y021905D01*
X010750Y021857D02*
X011832Y021857D01*
X011832Y021808D02*
X010780Y021808D01*
X010809Y021760D02*
X011832Y021760D01*
X011832Y021711D02*
X010839Y021711D01*
X010869Y021663D02*
X011832Y021663D01*
X011832Y021614D02*
X010898Y021614D01*
X010928Y021566D02*
X011832Y021566D01*
X011832Y021517D02*
X010958Y021517D01*
X010987Y021469D02*
X011832Y021469D01*
X023486Y022659D02*
X023722Y022305D01*
X024155Y022147D01*
X024588Y021439D01*
X025415Y021439D01*
X025415Y022856D01*
X025100Y022541D01*
X024431Y022541D01*
X023998Y023289D01*
X024076Y023407D01*
X024037Y023446D01*
X023486Y023092D01*
X023486Y022659D01*
X023486Y022681D02*
X024350Y022681D01*
X024378Y022633D02*
X023503Y022633D01*
X023536Y022584D02*
X024406Y022584D01*
X024321Y022730D02*
X023486Y022730D01*
X023486Y022778D02*
X024293Y022778D01*
X024265Y022827D02*
X023486Y022827D01*
X023486Y022875D02*
X024237Y022875D01*
X024209Y022924D02*
X023486Y022924D01*
X023486Y022972D02*
X024181Y022972D01*
X024153Y023021D02*
X023486Y023021D01*
X023486Y023069D02*
X024125Y023069D01*
X024097Y023118D02*
X023525Y023118D01*
X023601Y023166D02*
X024069Y023166D01*
X024041Y023215D02*
X023676Y023215D01*
X023752Y023263D02*
X024013Y023263D01*
X024013Y023312D02*
X023827Y023312D01*
X023903Y023360D02*
X024045Y023360D01*
X024075Y023409D02*
X023978Y023409D01*
X023568Y022536D02*
X025415Y022536D01*
X025415Y022584D02*
X025143Y022584D01*
X025192Y022633D02*
X025415Y022633D01*
X025415Y022681D02*
X025240Y022681D01*
X025289Y022730D02*
X025415Y022730D01*
X025415Y022778D02*
X025337Y022778D01*
X025386Y022827D02*
X025415Y022827D01*
X025415Y022487D02*
X023600Y022487D01*
X023633Y022439D02*
X025415Y022439D01*
X025415Y022390D02*
X023665Y022390D01*
X023697Y022342D02*
X025415Y022342D01*
X025415Y022293D02*
X023754Y022293D01*
X023887Y022245D02*
X025415Y022245D01*
X025415Y022196D02*
X024021Y022196D01*
X024154Y022148D02*
X025415Y022148D01*
X025415Y022099D02*
X024185Y022099D01*
X024214Y022051D02*
X025415Y022051D01*
X025415Y022002D02*
X024244Y022002D01*
X024273Y021954D02*
X025415Y021954D01*
X025415Y021905D02*
X024303Y021905D01*
X024333Y021857D02*
X025415Y021857D01*
X025415Y021808D02*
X024362Y021808D01*
X024392Y021760D02*
X025415Y021760D01*
X025415Y021711D02*
X024422Y021711D01*
X024451Y021663D02*
X025415Y021663D01*
X025415Y021614D02*
X024481Y021614D01*
X024511Y021566D02*
X025415Y021566D01*
X025415Y021517D02*
X024540Y021517D01*
X024570Y021469D02*
X025415Y021469D01*
X037069Y022659D02*
X037305Y022305D01*
X037738Y022147D01*
X038171Y021439D01*
X038998Y021439D01*
X038998Y022856D01*
X038683Y022541D01*
X038013Y022541D01*
X037580Y023289D01*
X037659Y023407D01*
X037620Y023446D01*
X037069Y023092D01*
X037069Y022659D01*
X037069Y022681D02*
X037932Y022681D01*
X037904Y022730D02*
X037069Y022730D01*
X037069Y022778D02*
X037876Y022778D01*
X037848Y022827D02*
X037069Y022827D01*
X037069Y022875D02*
X037820Y022875D01*
X037792Y022924D02*
X037069Y022924D01*
X037069Y022972D02*
X037764Y022972D01*
X037736Y023021D02*
X037069Y023021D01*
X037069Y023069D02*
X037708Y023069D01*
X037680Y023118D02*
X037108Y023118D01*
X037184Y023166D02*
X037651Y023166D01*
X037623Y023215D02*
X037259Y023215D01*
X037334Y023263D02*
X037595Y023263D01*
X037595Y023312D02*
X037410Y023312D01*
X037485Y023360D02*
X037628Y023360D01*
X037658Y023409D02*
X037561Y023409D01*
X037960Y022633D02*
X037086Y022633D01*
X037118Y022584D02*
X037988Y022584D01*
X037737Y022148D02*
X038998Y022148D01*
X038998Y022196D02*
X037603Y022196D01*
X037470Y022245D02*
X038998Y022245D01*
X038998Y022293D02*
X037337Y022293D01*
X037280Y022342D02*
X038998Y022342D01*
X038998Y022390D02*
X037248Y022390D01*
X037215Y022439D02*
X038998Y022439D01*
X038998Y022487D02*
X037183Y022487D01*
X037151Y022536D02*
X038998Y022536D01*
X038998Y022584D02*
X038726Y022584D01*
X038774Y022633D02*
X038998Y022633D01*
X038998Y022681D02*
X038823Y022681D01*
X038871Y022730D02*
X038998Y022730D01*
X038998Y022778D02*
X038920Y022778D01*
X038968Y022827D02*
X038998Y022827D01*
X038998Y022099D02*
X037767Y022099D01*
X037797Y022051D02*
X038998Y022051D01*
X038998Y022002D02*
X037826Y022002D01*
X037856Y021954D02*
X038998Y021954D01*
X038998Y021905D02*
X037886Y021905D01*
X037915Y021857D02*
X038998Y021857D01*
X038998Y021808D02*
X037945Y021808D01*
X037975Y021760D02*
X038998Y021760D01*
X038998Y021711D02*
X038004Y021711D01*
X038034Y021663D02*
X038998Y021663D01*
X038998Y021614D02*
X038064Y021614D01*
X038093Y021566D02*
X038998Y021566D01*
X038998Y021517D02*
X038123Y021517D01*
X038153Y021469D02*
X038998Y021469D01*
D19*
X038958Y020572D03*
X038486Y020572D03*
X038092Y020257D03*
X038092Y019785D03*
X038092Y019313D03*
X037620Y019313D03*
X037541Y019785D03*
X037069Y019785D03*
X037029Y020415D03*
X037502Y020415D03*
X037620Y018801D03*
X038092Y018801D03*
X038092Y018368D03*
X038092Y017895D03*
X037541Y017777D03*
X037069Y017777D03*
X037069Y018328D03*
X037541Y018328D03*
X038683Y017895D03*
X039155Y017895D03*
X039667Y017895D03*
X040139Y017895D03*
X039982Y017383D03*
X039982Y016911D03*
X040533Y016911D03*
X040533Y017383D03*
X040769Y017895D03*
X041242Y017895D03*
X041911Y018092D03*
X042383Y018092D03*
X042383Y018565D03*
X041911Y018565D03*
X041793Y019076D03*
X042265Y019076D03*
X041754Y019549D03*
X041754Y020021D03*
X041754Y020533D03*
X042226Y020533D03*
X042226Y021006D03*
X041754Y021006D03*
X041242Y021045D03*
X041242Y020572D03*
X040809Y020572D03*
X040336Y020572D03*
X039903Y020572D03*
X039431Y020572D03*
X041950Y022344D03*
X042423Y022344D03*
X042383Y017502D03*
X042383Y017029D03*
X042069Y016163D03*
X041596Y016163D03*
X041084Y016124D03*
X041084Y015651D03*
X041084Y015139D03*
X041084Y014667D03*
X041596Y014628D03*
X041596Y015100D03*
X042069Y015100D03*
X042069Y014628D03*
X041596Y014037D03*
X041596Y013565D03*
X041084Y013643D03*
X041084Y014116D03*
X040612Y012817D03*
X040730Y012305D03*
X040730Y011832D03*
X040376Y011320D03*
X040376Y010848D03*
X039746Y010848D03*
X039746Y011320D03*
X039667Y011832D03*
X040100Y011832D03*
X040100Y012305D03*
X039667Y012305D03*
X039037Y012305D03*
X039037Y011832D03*
X039155Y011202D03*
X038683Y011202D03*
X038250Y012344D03*
X038250Y012817D03*
X037698Y012817D03*
X037698Y012344D03*
X038801Y012817D03*
X039273Y012817D03*
X040139Y012817D03*
X041124Y011320D03*
X041124Y010848D03*
X041045Y009194D03*
X040572Y009194D03*
X040730Y008683D03*
X040730Y008210D03*
X040887Y007423D03*
X041360Y007423D03*
X041950Y006439D03*
X041950Y005966D03*
X039352Y006124D03*
X038880Y006124D03*
X038250Y006202D03*
X037777Y006202D03*
X037698Y005730D03*
X038171Y005730D03*
X036990Y005966D03*
X036517Y005966D03*
X035769Y006124D03*
X035769Y005651D03*
X035179Y005572D03*
X034746Y005572D03*
X034313Y005572D03*
X034313Y005100D03*
X034746Y005100D03*
X035179Y005100D03*
X035179Y003604D03*
X035179Y003131D03*
X034706Y003131D03*
X034234Y003131D03*
X034234Y003604D03*
X034706Y003604D03*
X034549Y002502D03*
X034076Y002502D03*
X033446Y002502D03*
X032974Y002502D03*
X032423Y002502D03*
X031950Y002502D03*
X035139Y002502D03*
X035612Y002502D03*
X031990Y006872D03*
X031990Y007344D03*
X031990Y008210D03*
X031990Y008683D03*
X031281Y009628D03*
X030809Y009628D03*
X030809Y010966D03*
X031281Y010966D03*
X031281Y012265D03*
X030809Y012265D03*
X028486Y014628D03*
X028486Y015100D03*
X028013Y015100D03*
X028013Y014628D03*
X028013Y014037D03*
X028013Y013565D03*
X027502Y013643D03*
X027502Y014116D03*
X027502Y014667D03*
X027502Y015139D03*
X027502Y015651D03*
X027502Y016124D03*
X027502Y016635D03*
X027502Y017108D03*
X026950Y016911D03*
X026950Y017383D03*
X026399Y017383D03*
X026399Y016911D03*
X025691Y016911D03*
X025691Y017383D03*
X025572Y017895D03*
X025100Y017895D03*
X025139Y017383D03*
X025139Y016911D03*
X025179Y016439D03*
X025651Y016439D03*
X024706Y015927D03*
X024234Y015927D03*
X024234Y015454D03*
X024706Y015454D03*
X024509Y014943D03*
X024509Y014470D03*
X023683Y015454D03*
X023210Y015454D03*
X023210Y015927D03*
X023683Y015927D03*
X023880Y016439D03*
X023880Y016911D03*
X023407Y016911D03*
X023407Y016439D03*
X022541Y016754D03*
X022541Y017226D03*
X021832Y017265D03*
X021360Y017265D03*
X021360Y017738D03*
X021360Y018210D03*
X020887Y018210D03*
X020730Y017738D03*
X020730Y017265D03*
X020139Y018250D03*
X020139Y018722D03*
X021439Y020198D03*
X021439Y020671D03*
X021911Y020415D03*
X021911Y019943D03*
X023446Y020415D03*
X023486Y019785D03*
X023958Y019785D03*
X024037Y019313D03*
X024509Y019313D03*
X024509Y019785D03*
X024509Y020257D03*
X024903Y020572D03*
X025376Y020572D03*
X025848Y020572D03*
X026320Y020572D03*
X026754Y020572D03*
X027226Y020572D03*
X027659Y020572D03*
X027659Y021045D03*
X028171Y021006D03*
X028643Y021006D03*
X028643Y020533D03*
X028171Y020533D03*
X028171Y020021D03*
X028171Y019549D03*
X028210Y019076D03*
X028683Y019076D03*
X028801Y018565D03*
X028328Y018565D03*
X028328Y018092D03*
X028801Y018092D03*
X028801Y017502D03*
X028801Y017029D03*
X028486Y016163D03*
X028013Y016163D03*
X028013Y015612D03*
X028486Y015612D03*
X027659Y017895D03*
X027187Y017895D03*
X026557Y017895D03*
X026084Y017895D03*
X024509Y017895D03*
X024509Y018368D03*
X024509Y018801D03*
X024037Y018801D03*
X023958Y018328D03*
X023486Y018328D03*
X023486Y017777D03*
X023958Y017777D03*
X024509Y016911D03*
X024509Y016439D03*
X023407Y014943D03*
X023407Y014470D03*
X022029Y014628D03*
X021557Y014628D03*
X024116Y012817D03*
X024116Y012344D03*
X024667Y012344D03*
X024667Y012817D03*
X025218Y012817D03*
X025691Y012817D03*
X025454Y012305D03*
X025454Y011832D03*
X026084Y011832D03*
X026517Y011832D03*
X026517Y012305D03*
X026084Y012305D03*
X026557Y012817D03*
X027029Y012817D03*
X027147Y012305D03*
X027147Y011832D03*
X026793Y011320D03*
X026793Y010848D03*
X026163Y010848D03*
X026163Y011320D03*
X025572Y011202D03*
X025100Y011202D03*
X026990Y009194D03*
X027462Y009194D03*
X027147Y008683D03*
X027147Y008210D03*
X027305Y007423D03*
X027777Y007423D03*
X028368Y006439D03*
X028368Y005966D03*
X025769Y006124D03*
X025297Y006124D03*
X024667Y006202D03*
X024194Y006202D03*
X024116Y005730D03*
X024588Y005730D03*
X023407Y005966D03*
X022935Y005966D03*
X022187Y006124D03*
X022187Y005651D03*
X021596Y005572D03*
X021163Y005572D03*
X020730Y005572D03*
X020730Y005100D03*
X021163Y005100D03*
X021596Y005100D03*
X021596Y003604D03*
X021124Y003604D03*
X021124Y003131D03*
X021596Y003131D03*
X021557Y002502D03*
X022029Y002502D03*
X020966Y002502D03*
X020494Y002502D03*
X019864Y002502D03*
X020651Y003131D03*
X020651Y003604D03*
X019391Y002502D03*
X018840Y002502D03*
X018368Y002502D03*
X014785Y005966D03*
X014785Y006439D03*
X014194Y007423D03*
X013722Y007423D03*
X013565Y008210D03*
X013565Y008683D03*
X013407Y009194D03*
X013880Y009194D03*
X013958Y010848D03*
X013958Y011320D03*
X013565Y011832D03*
X013565Y012305D03*
X013446Y012817D03*
X012974Y012817D03*
X012935Y012305D03*
X012502Y012305D03*
X012502Y011832D03*
X012935Y011832D03*
X013210Y011320D03*
X013210Y010848D03*
X012580Y010848D03*
X012580Y011320D03*
X011990Y011202D03*
X011517Y011202D03*
X011872Y011832D03*
X011872Y012305D03*
X012108Y012817D03*
X011635Y012817D03*
X011084Y012817D03*
X011084Y012344D03*
X010533Y012344D03*
X010533Y012817D03*
X010927Y014470D03*
X010927Y014943D03*
X011124Y015454D03*
X011124Y015927D03*
X010651Y015927D03*
X010651Y015454D03*
X010100Y015454D03*
X009628Y015454D03*
X009628Y015927D03*
X010100Y015927D03*
X010297Y016439D03*
X010297Y016911D03*
X009824Y016911D03*
X009824Y016439D03*
X008958Y016754D03*
X008958Y017226D03*
X008250Y017265D03*
X008250Y017738D03*
X007777Y017738D03*
X007777Y018210D03*
X007305Y018210D03*
X007147Y017738D03*
X007147Y017265D03*
X007777Y017265D03*
X006557Y018250D03*
X006557Y018722D03*
X007856Y020198D03*
X007856Y020671D03*
X008328Y020415D03*
X008328Y019943D03*
X009903Y019785D03*
X009864Y020415D03*
X010336Y020415D03*
X010376Y019785D03*
X010454Y019313D03*
X010927Y019313D03*
X010927Y019785D03*
X010927Y020257D03*
X011320Y020572D03*
X011793Y020572D03*
X012265Y020572D03*
X012738Y020572D03*
X013171Y020572D03*
X013643Y020572D03*
X014076Y020572D03*
X014076Y021045D03*
X014588Y021006D03*
X015061Y021006D03*
X015061Y020533D03*
X014588Y020533D03*
X014588Y020021D03*
X014588Y019549D03*
X014628Y019076D03*
X015100Y019076D03*
X015218Y018565D03*
X014746Y018565D03*
X014746Y018092D03*
X015218Y018092D03*
X015218Y017502D03*
X015218Y017029D03*
X014903Y016163D03*
X014903Y015612D03*
X014431Y015612D03*
X013919Y015651D03*
X013919Y016124D03*
X013919Y016635D03*
X013919Y017108D03*
X013368Y016911D03*
X013368Y017383D03*
X012817Y017383D03*
X012817Y016911D03*
X012108Y016911D03*
X012108Y017383D03*
X011990Y017895D03*
X011517Y017895D03*
X011557Y017383D03*
X011557Y016911D03*
X011596Y016439D03*
X012069Y016439D03*
X010927Y016439D03*
X010927Y016911D03*
X010927Y017895D03*
X010927Y018368D03*
X010927Y018801D03*
X010454Y018801D03*
X010376Y018328D03*
X010376Y017777D03*
X009903Y017777D03*
X009903Y018328D03*
X012502Y017895D03*
X012974Y017895D03*
X013604Y017895D03*
X014076Y017895D03*
X014431Y016163D03*
X013919Y015139D03*
X013919Y014667D03*
X014431Y014628D03*
X014431Y015100D03*
X014903Y015100D03*
X014903Y014628D03*
X014431Y014037D03*
X014431Y013565D03*
X013919Y013643D03*
X013919Y014116D03*
X017226Y012265D03*
X017698Y012265D03*
X017698Y010966D03*
X017226Y010966D03*
X017226Y009628D03*
X017698Y009628D03*
X018407Y008683D03*
X018407Y008210D03*
X018407Y007344D03*
X018407Y006872D03*
X020297Y008565D03*
X020769Y008565D03*
X020533Y009352D03*
X020533Y009824D03*
X021320Y009982D03*
X021320Y010454D03*
X022029Y009785D03*
X022029Y009313D03*
X027541Y010848D03*
X027541Y011320D03*
X021832Y017738D03*
X023919Y020415D03*
X022029Y024824D03*
X021557Y024824D03*
X020966Y024824D03*
X020494Y024824D03*
X019864Y024824D03*
X019391Y024824D03*
X018840Y024824D03*
X018368Y024824D03*
X020651Y025454D03*
X021124Y025454D03*
X021596Y025454D03*
X021596Y025927D03*
X021124Y025927D03*
X020651Y025927D03*
X020730Y027423D03*
X021163Y027423D03*
X021596Y027423D03*
X021596Y027895D03*
X021163Y027895D03*
X020730Y027895D03*
X022187Y027974D03*
X022187Y028446D03*
X022935Y028289D03*
X023407Y028289D03*
X024116Y028053D03*
X024588Y028053D03*
X024667Y028525D03*
X024194Y028525D03*
X025297Y028446D03*
X025769Y028446D03*
X027305Y029746D03*
X027777Y029746D03*
X027147Y030533D03*
X027147Y031006D03*
X026990Y031517D03*
X027462Y031517D03*
X027541Y033171D03*
X027541Y033643D03*
X027147Y034155D03*
X027147Y034628D03*
X027029Y035139D03*
X026557Y035139D03*
X026517Y034628D03*
X026084Y034628D03*
X026084Y034155D03*
X026517Y034155D03*
X026793Y033643D03*
X026793Y033171D03*
X026163Y033171D03*
X026163Y033643D03*
X025572Y033525D03*
X025100Y033525D03*
X025454Y034155D03*
X025454Y034628D03*
X025218Y035139D03*
X025691Y035139D03*
X024667Y035139D03*
X024667Y034667D03*
X024116Y034667D03*
X024116Y035139D03*
X024509Y036793D03*
X024509Y037265D03*
X024706Y037777D03*
X024234Y037777D03*
X024234Y038250D03*
X024706Y038250D03*
X024509Y038761D03*
X024509Y039234D03*
X025139Y039234D03*
X025139Y039706D03*
X025100Y040218D03*
X025572Y040218D03*
X026084Y040218D03*
X026557Y040218D03*
X026399Y039706D03*
X026399Y039234D03*
X026950Y039234D03*
X026950Y039706D03*
X027187Y040218D03*
X027659Y040218D03*
X028328Y040415D03*
X028328Y040887D03*
X028801Y040887D03*
X028801Y040415D03*
X028801Y039824D03*
X028801Y039352D03*
X028486Y038486D03*
X028013Y038486D03*
X028013Y037935D03*
X028486Y037935D03*
X028486Y037423D03*
X028486Y036950D03*
X028013Y036950D03*
X028013Y037423D03*
X027502Y037462D03*
X027502Y036990D03*
X027502Y036439D03*
X027502Y035966D03*
X028013Y035887D03*
X028013Y036360D03*
X027502Y037974D03*
X027502Y038446D03*
X027502Y038958D03*
X027502Y039431D03*
X025691Y039234D03*
X025691Y039706D03*
X025651Y038761D03*
X025179Y038761D03*
X023880Y038761D03*
X023880Y039234D03*
X023407Y039234D03*
X023407Y038761D03*
X023210Y038250D03*
X023683Y038250D03*
X023683Y037777D03*
X023210Y037777D03*
X023407Y037265D03*
X023407Y036793D03*
X022029Y036950D03*
X021557Y036950D03*
X022541Y039076D03*
X022541Y039549D03*
X021832Y039588D03*
X021360Y039588D03*
X021360Y040061D03*
X021360Y040533D03*
X020887Y040533D03*
X020730Y040061D03*
X020730Y039588D03*
X020139Y040572D03*
X020139Y041045D03*
X021439Y042521D03*
X021439Y042994D03*
X021911Y042738D03*
X021911Y042265D03*
X023446Y042738D03*
X023486Y042108D03*
X023958Y042108D03*
X024037Y041635D03*
X024509Y041635D03*
X024509Y042108D03*
X024509Y042580D03*
X024903Y042895D03*
X025376Y042895D03*
X025848Y042895D03*
X026320Y042895D03*
X026754Y042895D03*
X027226Y042895D03*
X027659Y042895D03*
X027659Y043368D03*
X028171Y043328D03*
X028171Y042856D03*
X028643Y042856D03*
X028643Y043328D03*
X028171Y042344D03*
X028171Y041872D03*
X028210Y041399D03*
X028683Y041399D03*
X028840Y044667D03*
X028368Y044667D03*
X024509Y041124D03*
X024509Y040691D03*
X024509Y040218D03*
X023958Y040100D03*
X023486Y040100D03*
X023486Y040651D03*
X023958Y040651D03*
X024037Y041124D03*
X023919Y042738D03*
X021832Y040061D03*
X017698Y034588D03*
X017226Y034588D03*
X017226Y033289D03*
X017698Y033289D03*
X017698Y031950D03*
X017226Y031950D03*
X018407Y031006D03*
X018407Y030533D03*
X018407Y029667D03*
X018407Y029194D03*
X020297Y030887D03*
X020533Y031675D03*
X020533Y032147D03*
X021320Y032305D03*
X021320Y032777D03*
X022029Y032108D03*
X022029Y031635D03*
X020769Y030887D03*
X014903Y036950D03*
X014903Y037423D03*
X014903Y037935D03*
X014903Y038486D03*
X014431Y038486D03*
X013919Y038446D03*
X013919Y037974D03*
X013919Y037462D03*
X013919Y036990D03*
X014431Y036950D03*
X014431Y037423D03*
X014431Y037935D03*
X013919Y038958D03*
X013919Y039431D03*
X013368Y039234D03*
X013368Y039706D03*
X012817Y039706D03*
X012817Y039234D03*
X012108Y039234D03*
X012108Y039706D03*
X011990Y040218D03*
X011517Y040218D03*
X011557Y039706D03*
X011557Y039234D03*
X011596Y038761D03*
X012069Y038761D03*
X011124Y038250D03*
X010651Y038250D03*
X010651Y037777D03*
X011124Y037777D03*
X010927Y037265D03*
X010927Y036793D03*
X010100Y037777D03*
X009628Y037777D03*
X009628Y038250D03*
X010100Y038250D03*
X010297Y038761D03*
X009824Y038761D03*
X009824Y039234D03*
X010297Y039234D03*
X010927Y039234D03*
X010927Y038761D03*
X010376Y040100D03*
X010376Y040651D03*
X010454Y041124D03*
X010927Y041124D03*
X010927Y040691D03*
X010927Y040218D03*
X009903Y040100D03*
X009903Y040651D03*
X010454Y041635D03*
X010927Y041635D03*
X010927Y042108D03*
X010927Y042580D03*
X011320Y042895D03*
X011793Y042895D03*
X012265Y042895D03*
X012738Y042895D03*
X013171Y042895D03*
X013643Y042895D03*
X014076Y042895D03*
X014076Y043368D03*
X014588Y043328D03*
X014588Y042856D03*
X015061Y042856D03*
X015061Y043328D03*
X014588Y042344D03*
X014588Y041872D03*
X014628Y041399D03*
X015100Y041399D03*
X015218Y040887D03*
X015218Y040415D03*
X014746Y040415D03*
X014746Y040887D03*
X014076Y040218D03*
X013604Y040218D03*
X012974Y040218D03*
X012502Y040218D03*
X010376Y042108D03*
X010336Y042738D03*
X009864Y042738D03*
X009903Y042108D03*
X008328Y042265D03*
X008328Y042738D03*
X007856Y042521D03*
X007856Y042994D03*
X006557Y041045D03*
X006557Y040572D03*
X007147Y040061D03*
X007147Y039588D03*
X007777Y039588D03*
X008250Y039588D03*
X008250Y040061D03*
X007777Y040061D03*
X007777Y040533D03*
X007305Y040533D03*
X008958Y039549D03*
X008958Y039076D03*
X009824Y037265D03*
X009824Y036793D03*
X008446Y036950D03*
X007974Y036950D03*
X010533Y035139D03*
X010533Y034667D03*
X011084Y034667D03*
X011084Y035139D03*
X011635Y035139D03*
X012108Y035139D03*
X011872Y034628D03*
X011872Y034155D03*
X012502Y034155D03*
X012935Y034155D03*
X012935Y034628D03*
X012502Y034628D03*
X012974Y035139D03*
X013446Y035139D03*
X013919Y035966D03*
X013919Y036439D03*
X014431Y036360D03*
X014431Y035887D03*
X013565Y034628D03*
X013565Y034155D03*
X013210Y033643D03*
X013210Y033171D03*
X013958Y033171D03*
X013958Y033643D03*
X012580Y033643D03*
X012580Y033171D03*
X011990Y033525D03*
X011517Y033525D03*
X013407Y031517D03*
X013880Y031517D03*
X013565Y031006D03*
X013565Y030533D03*
X013722Y029746D03*
X014194Y029746D03*
X014785Y028761D03*
X014785Y028289D03*
X012187Y028446D03*
X011714Y028446D03*
X011084Y028525D03*
X010612Y028525D03*
X010533Y028053D03*
X011006Y028053D03*
X009824Y028289D03*
X009352Y028289D03*
X008604Y028446D03*
X008604Y027974D03*
X008013Y027895D03*
X007580Y027895D03*
X007147Y027895D03*
X007147Y027423D03*
X007580Y027423D03*
X008013Y027423D03*
X008013Y025927D03*
X007541Y025927D03*
X007069Y025927D03*
X007069Y025454D03*
X007541Y025454D03*
X008013Y025454D03*
X007974Y024824D03*
X008446Y024824D03*
X007383Y024824D03*
X006911Y024824D03*
X006281Y024824D03*
X005809Y024824D03*
X005257Y024824D03*
X004785Y024824D03*
X004824Y029194D03*
X004824Y029667D03*
X004824Y030533D03*
X004824Y031006D03*
X004116Y031950D03*
X003643Y031950D03*
X003643Y033289D03*
X004116Y033289D03*
X004116Y034588D03*
X003643Y034588D03*
X006950Y032147D03*
X006950Y031675D03*
X006714Y030887D03*
X007187Y030887D03*
X008446Y031635D03*
X008446Y032108D03*
X007738Y032305D03*
X007738Y032777D03*
X015218Y039352D03*
X015218Y039824D03*
X015257Y044667D03*
X014785Y044667D03*
X028368Y028761D03*
X028368Y028289D03*
X031990Y029194D03*
X031990Y029667D03*
X031990Y030533D03*
X031990Y031006D03*
X031281Y031950D03*
X030809Y031950D03*
X030809Y033289D03*
X031281Y033289D03*
X031281Y034588D03*
X030809Y034588D03*
X034116Y032147D03*
X034116Y031675D03*
X034352Y030887D03*
X033880Y030887D03*
X034903Y032305D03*
X034903Y032777D03*
X035612Y032108D03*
X035612Y031635D03*
X035769Y028446D03*
X035769Y027974D03*
X036517Y028289D03*
X036990Y028289D03*
X037698Y028053D03*
X038171Y028053D03*
X038250Y028525D03*
X037777Y028525D03*
X038880Y028446D03*
X039352Y028446D03*
X040887Y029746D03*
X041360Y029746D03*
X040730Y030533D03*
X040730Y031006D03*
X040572Y031517D03*
X041045Y031517D03*
X041124Y033171D03*
X041124Y033643D03*
X040730Y034155D03*
X040730Y034628D03*
X040612Y035139D03*
X041084Y035966D03*
X041084Y036439D03*
X041596Y036360D03*
X041596Y035887D03*
X041596Y036950D03*
X042069Y036950D03*
X042069Y037423D03*
X041596Y037423D03*
X041596Y037935D03*
X042069Y037935D03*
X042069Y038486D03*
X041596Y038486D03*
X041084Y038446D03*
X041084Y037974D03*
X041084Y037462D03*
X041084Y036990D03*
X040139Y035139D03*
X039273Y035139D03*
X038801Y035139D03*
X038250Y035139D03*
X038250Y034667D03*
X037698Y034667D03*
X037698Y035139D03*
X039037Y034628D03*
X039037Y034155D03*
X039667Y034155D03*
X040100Y034155D03*
X040100Y034628D03*
X039667Y034628D03*
X039746Y033643D03*
X039746Y033171D03*
X040376Y033171D03*
X040376Y033643D03*
X039155Y033525D03*
X038683Y033525D03*
X038092Y036793D03*
X038092Y037265D03*
X038289Y037777D03*
X037817Y037777D03*
X037817Y038250D03*
X038289Y038250D03*
X038092Y038761D03*
X038092Y039234D03*
X037462Y039234D03*
X036990Y039234D03*
X036990Y038761D03*
X037462Y038761D03*
X037265Y038250D03*
X036793Y038250D03*
X036793Y037777D03*
X037265Y037777D03*
X036990Y037265D03*
X036990Y036793D03*
X035612Y036950D03*
X035139Y036950D03*
X036124Y039076D03*
X036124Y039549D03*
X035415Y039588D03*
X034943Y039588D03*
X034943Y040061D03*
X035415Y040061D03*
X034943Y040533D03*
X034470Y040533D03*
X034313Y040061D03*
X034313Y039588D03*
X033722Y040572D03*
X033722Y041045D03*
X035021Y042521D03*
X035021Y042994D03*
X035494Y042738D03*
X035494Y042265D03*
X037069Y042108D03*
X037541Y042108D03*
X037620Y041635D03*
X038092Y041635D03*
X038092Y042108D03*
X038092Y042580D03*
X038486Y042895D03*
X038958Y042895D03*
X039431Y042895D03*
X039903Y042895D03*
X040336Y042895D03*
X040809Y042895D03*
X041242Y042895D03*
X041242Y043368D03*
X041754Y043328D03*
X042226Y043328D03*
X042226Y042856D03*
X041754Y042856D03*
X041754Y042344D03*
X041754Y041872D03*
X041793Y041399D03*
X042265Y041399D03*
X042383Y040887D03*
X041911Y040887D03*
X041911Y040415D03*
X042383Y040415D03*
X042383Y039824D03*
X042383Y039352D03*
X041084Y039431D03*
X041084Y038958D03*
X040533Y039234D03*
X040533Y039706D03*
X039982Y039706D03*
X039982Y039234D03*
X039273Y039234D03*
X039273Y039706D03*
X039155Y040218D03*
X038683Y040218D03*
X038722Y039706D03*
X038722Y039234D03*
X038761Y038761D03*
X039234Y038761D03*
X039667Y040218D03*
X040139Y040218D03*
X040769Y040218D03*
X041242Y040218D03*
X038092Y040218D03*
X038092Y040691D03*
X038092Y041124D03*
X037620Y041124D03*
X037541Y040651D03*
X037069Y040651D03*
X037069Y040100D03*
X037541Y040100D03*
X037502Y042738D03*
X037029Y042738D03*
X041950Y044667D03*
X042423Y044667D03*
X041950Y028761D03*
X041950Y028289D03*
X035612Y024824D03*
X035139Y024824D03*
X034549Y024824D03*
X034076Y024824D03*
X033446Y024824D03*
X032974Y024824D03*
X032423Y024824D03*
X031950Y024824D03*
X034234Y025454D03*
X034706Y025454D03*
X035179Y025454D03*
X035179Y025927D03*
X034706Y025927D03*
X034234Y025927D03*
X034313Y027423D03*
X034746Y027423D03*
X035179Y027423D03*
X035179Y027895D03*
X034746Y027895D03*
X034313Y027895D03*
X028840Y022344D03*
X028368Y022344D03*
X033722Y018722D03*
X033722Y018250D03*
X034470Y018210D03*
X034943Y018210D03*
X034943Y017738D03*
X035415Y017738D03*
X035415Y017265D03*
X034943Y017265D03*
X034313Y017265D03*
X034313Y017738D03*
X036124Y017226D03*
X036124Y016754D03*
X036990Y016911D03*
X037462Y016911D03*
X037462Y016439D03*
X036990Y016439D03*
X036793Y015927D03*
X037265Y015927D03*
X037265Y015454D03*
X036793Y015454D03*
X036990Y014943D03*
X036990Y014470D03*
X038092Y014470D03*
X038092Y014943D03*
X038289Y015454D03*
X037817Y015454D03*
X037817Y015927D03*
X038289Y015927D03*
X038092Y016439D03*
X038092Y016911D03*
X038722Y016911D03*
X038722Y017383D03*
X039273Y017383D03*
X039273Y016911D03*
X039234Y016439D03*
X038761Y016439D03*
X041084Y016635D03*
X041084Y017108D03*
X041596Y015612D03*
X042069Y015612D03*
X035612Y014628D03*
X035139Y014628D03*
X034903Y010454D03*
X034903Y009982D03*
X035612Y009785D03*
X035612Y009313D03*
X034352Y008565D03*
X033880Y008565D03*
X034116Y009352D03*
X034116Y009824D03*
X035494Y019943D03*
X035494Y020415D03*
X035021Y020198D03*
X035021Y020671D03*
X015257Y022344D03*
X014785Y022344D03*
X009824Y014943D03*
X009824Y014470D03*
X008446Y014628D03*
X007974Y014628D03*
X007738Y010454D03*
X007738Y009982D03*
X008446Y009785D03*
X008446Y009313D03*
X007187Y008565D03*
X006714Y008565D03*
X006950Y009352D03*
X006950Y009824D03*
X004824Y008683D03*
X004824Y008210D03*
X004824Y007344D03*
X004824Y006872D03*
X007147Y005572D03*
X007580Y005572D03*
X008013Y005572D03*
X008013Y005100D03*
X007580Y005100D03*
X007147Y005100D03*
X007069Y003604D03*
X007541Y003604D03*
X008013Y003604D03*
X008013Y003131D03*
X007541Y003131D03*
X007069Y003131D03*
X006911Y002502D03*
X007383Y002502D03*
X007974Y002502D03*
X008446Y002502D03*
X006281Y002502D03*
X005809Y002502D03*
X005257Y002502D03*
X004785Y002502D03*
X008604Y005651D03*
X008604Y006124D03*
X009352Y005966D03*
X009824Y005966D03*
X010533Y005730D03*
X011006Y005730D03*
X011084Y006202D03*
X010612Y006202D03*
X011714Y006124D03*
X012187Y006124D03*
X004116Y009628D03*
X003643Y009628D03*
X003643Y010966D03*
X004116Y010966D03*
X004116Y012265D03*
X003643Y012265D03*
D20*
X007482Y016675D03*
X008151Y016675D03*
G36*
X009324Y019822D02*
X009074Y020072D01*
X009380Y020378D01*
X009630Y020128D01*
X009324Y019822D01*
G37*
G36*
X008851Y020295D02*
X008601Y020545D01*
X008907Y020851D01*
X009157Y020601D01*
X008851Y020295D01*
G37*
X005710Y025730D03*
X005041Y025730D03*
X005041Y027777D03*
X005710Y027777D03*
X004411Y027777D03*
X003742Y027777D03*
X007482Y038998D03*
X008151Y038998D03*
G36*
X009324Y042144D02*
X009074Y042394D01*
X009380Y042700D01*
X009630Y042450D01*
X009324Y042144D01*
G37*
G36*
X008851Y042618D02*
X008601Y042868D01*
X008907Y043174D01*
X009157Y042924D01*
X008851Y042618D01*
G37*
X021065Y038998D03*
X021734Y038998D03*
G36*
X022907Y042144D02*
X022657Y042394D01*
X022963Y042700D01*
X023213Y042450D01*
X022907Y042144D01*
G37*
G36*
X022434Y042618D02*
X022184Y042868D01*
X022490Y043174D01*
X022740Y042924D01*
X022434Y042618D01*
G37*
X034647Y038998D03*
X035317Y038998D03*
G36*
X036490Y042144D02*
X036240Y042394D01*
X036546Y042700D01*
X036796Y042450D01*
X036490Y042144D01*
G37*
G36*
X036016Y042618D02*
X035766Y042868D01*
X036072Y043174D01*
X036322Y042924D01*
X036016Y042618D01*
G37*
X032876Y027777D03*
X032206Y027777D03*
X031576Y027777D03*
X030907Y027777D03*
X032206Y025730D03*
X032876Y025730D03*
G36*
X036016Y020295D02*
X035766Y020545D01*
X036072Y020851D01*
X036322Y020601D01*
X036016Y020295D01*
G37*
G36*
X036490Y019822D02*
X036240Y020072D01*
X036546Y020378D01*
X036796Y020128D01*
X036490Y019822D01*
G37*
X035317Y016675D03*
X034647Y016675D03*
X032876Y005454D03*
X032206Y005454D03*
X031576Y005454D03*
X030907Y005454D03*
X032206Y003407D03*
X032876Y003407D03*
X021734Y016675D03*
X021065Y016675D03*
G36*
X022907Y019822D02*
X022657Y020072D01*
X022963Y020378D01*
X023213Y020128D01*
X022907Y019822D01*
G37*
G36*
X022434Y020295D02*
X022184Y020545D01*
X022490Y020851D01*
X022740Y020601D01*
X022434Y020295D01*
G37*
X019293Y025730D03*
X018624Y025730D03*
X018624Y027777D03*
X019293Y027777D03*
X017994Y027777D03*
X017324Y027777D03*
X017324Y005454D03*
X017994Y005454D03*
X018624Y005454D03*
X019293Y005454D03*
X019293Y003407D03*
X018624Y003407D03*
X005710Y003407D03*
X005041Y003407D03*
X005041Y005454D03*
X005710Y005454D03*
X004411Y005454D03*
X003742Y005454D03*
D21*
X004234Y003427D03*
X004234Y002757D03*
X006360Y003309D03*
X006360Y003978D03*
X006360Y004883D03*
X006360Y005553D03*
X007541Y006694D03*
X008171Y006694D03*
X008171Y007364D03*
X007541Y007364D03*
X011439Y004490D03*
X011439Y003820D03*
X011439Y003230D03*
X011439Y002561D03*
X017817Y002757D03*
X017817Y003427D03*
X019943Y003309D03*
X019943Y003978D03*
X019943Y004883D03*
X019943Y005553D03*
X021124Y006694D03*
X021754Y006694D03*
X021754Y007364D03*
X021124Y007364D03*
X025021Y004490D03*
X025021Y003820D03*
X025021Y003230D03*
X025021Y002561D03*
X031399Y002757D03*
X031399Y003427D03*
X033525Y003309D03*
X033525Y003978D03*
X033525Y004883D03*
X033525Y005553D03*
X034706Y006694D03*
X035336Y006694D03*
X035336Y007364D03*
X034706Y007364D03*
X038604Y004490D03*
X038604Y003820D03*
X038604Y003230D03*
X038604Y002561D03*
X036281Y014569D03*
X036281Y015238D03*
X038604Y024883D03*
X038604Y025553D03*
X038604Y026143D03*
X038604Y026813D03*
X035336Y029017D03*
X035336Y029687D03*
X034706Y029687D03*
X034706Y029017D03*
X033525Y027876D03*
X033525Y027206D03*
X033525Y026301D03*
X033525Y025631D03*
X031399Y025750D03*
X031399Y025080D03*
X025021Y024883D03*
X025021Y025553D03*
X025021Y026143D03*
X025021Y026813D03*
X021754Y029017D03*
X021754Y029687D03*
X021124Y029687D03*
X021124Y029017D03*
X019943Y027876D03*
X019943Y027206D03*
X019943Y026301D03*
X019943Y025631D03*
X017817Y025750D03*
X017817Y025080D03*
X011439Y024883D03*
X011439Y025553D03*
X011439Y026143D03*
X011439Y026813D03*
X008171Y029017D03*
X008171Y029687D03*
X007541Y029687D03*
X007541Y029017D03*
X006360Y027876D03*
X006360Y027206D03*
X006360Y026301D03*
X006360Y025631D03*
X004234Y025750D03*
X004234Y025080D03*
X009116Y015238D03*
X009116Y014569D03*
X022698Y014569D03*
X022698Y015238D03*
X022698Y036891D03*
X022698Y037561D03*
X009116Y037561D03*
X009116Y036891D03*
X036281Y036891D03*
X036281Y037561D03*
D22*
X032639Y035730D03*
X031025Y035730D03*
X019057Y035730D03*
X017443Y035730D03*
X005474Y035730D03*
X003860Y035730D03*
X003860Y013407D03*
X005474Y013407D03*
X017443Y013407D03*
X019057Y013407D03*
X031025Y013407D03*
X032639Y013407D03*
D23*
G36*
X036890Y021583D02*
X038389Y022448D01*
X038782Y021767D01*
X037283Y020902D01*
X036890Y021583D01*
G37*
G36*
X037975Y022515D02*
X036476Y021650D01*
X036083Y022331D01*
X037582Y023196D01*
X037975Y022515D01*
G37*
G36*
X035768Y023236D02*
X037267Y024101D01*
X037660Y023420D01*
X036161Y022555D01*
X035768Y023236D01*
G37*
G36*
X023308Y021583D02*
X024807Y022448D01*
X025200Y021767D01*
X023701Y020902D01*
X023308Y021583D01*
G37*
G36*
X024392Y022515D02*
X022893Y021650D01*
X022500Y022331D01*
X023999Y023196D01*
X024392Y022515D01*
G37*
G36*
X022185Y023236D02*
X023684Y024101D01*
X024077Y023420D01*
X022578Y022555D01*
X022185Y023236D01*
G37*
G36*
X009725Y021583D02*
X011224Y022448D01*
X011617Y021767D01*
X010118Y020902D01*
X009725Y021583D01*
G37*
G36*
X010810Y022515D02*
X009311Y021650D01*
X008918Y022331D01*
X010417Y023196D01*
X010810Y022515D01*
G37*
G36*
X008603Y023236D02*
X010102Y024101D01*
X010495Y023420D01*
X008996Y022555D01*
X008603Y023236D01*
G37*
G36*
X009725Y043906D02*
X011224Y044771D01*
X011617Y044090D01*
X010118Y043225D01*
X009725Y043906D01*
G37*
G36*
X010810Y044838D02*
X009311Y043973D01*
X008918Y044654D01*
X010417Y045519D01*
X010810Y044838D01*
G37*
G36*
X008603Y045559D02*
X010102Y046424D01*
X010495Y045743D01*
X008996Y044878D01*
X008603Y045559D01*
G37*
G36*
X022185Y045559D02*
X023684Y046424D01*
X024077Y045743D01*
X022578Y044878D01*
X022185Y045559D01*
G37*
G36*
X024392Y044838D02*
X022893Y043973D01*
X022500Y044654D01*
X023999Y045519D01*
X024392Y044838D01*
G37*
G36*
X023308Y043906D02*
X024807Y044771D01*
X025200Y044090D01*
X023701Y043225D01*
X023308Y043906D01*
G37*
G36*
X035768Y045559D02*
X037267Y046424D01*
X037660Y045743D01*
X036161Y044878D01*
X035768Y045559D01*
G37*
G36*
X037975Y044838D02*
X036476Y043973D01*
X036083Y044654D01*
X037582Y045519D01*
X037975Y044838D01*
G37*
G36*
X036890Y043906D02*
X038389Y044771D01*
X038782Y044090D01*
X037283Y043225D01*
X036890Y043906D01*
G37*
D24*
X034529Y044746D03*
X033860Y044746D03*
X028860Y043801D03*
X028191Y043801D03*
X020946Y044746D03*
X020277Y044746D03*
X015277Y043801D03*
X014608Y043801D03*
X007364Y044746D03*
X006694Y044746D03*
X004214Y034116D03*
X003545Y034116D03*
X003545Y032777D03*
X004214Y032777D03*
X004214Y031439D03*
X003939Y030769D03*
X003269Y030769D03*
X003545Y031439D03*
X003545Y030100D03*
X003269Y029431D03*
X003939Y029431D03*
X004214Y030100D03*
X004214Y028761D03*
X003545Y028761D03*
X003742Y027108D03*
X004411Y027108D03*
X004411Y026399D03*
X003742Y026399D03*
X005041Y026399D03*
X005710Y026399D03*
X005710Y027108D03*
X005041Y027108D03*
X006694Y022423D03*
X007364Y022423D03*
X014608Y021478D03*
X015277Y021478D03*
X017324Y026399D03*
X017994Y026399D03*
X017994Y027108D03*
X017324Y027108D03*
X018624Y027108D03*
X019293Y027108D03*
X019293Y026399D03*
X018624Y026399D03*
X017797Y028761D03*
X017128Y028761D03*
X016852Y029431D03*
X017521Y029431D03*
X017797Y030100D03*
X017128Y030100D03*
X016852Y030769D03*
X017521Y030769D03*
X017797Y031439D03*
X017128Y031439D03*
X017128Y032777D03*
X017797Y032777D03*
X017797Y034116D03*
X017128Y034116D03*
X020277Y022423D03*
X020946Y022423D03*
X028191Y021478D03*
X028860Y021478D03*
X030907Y026399D03*
X030907Y027108D03*
X031576Y027108D03*
X032206Y027108D03*
X032876Y027108D03*
X032876Y026399D03*
X032206Y026399D03*
X031576Y026399D03*
X031380Y028761D03*
X030710Y028761D03*
X030435Y029431D03*
X031104Y029431D03*
X031380Y030100D03*
X030710Y030100D03*
X030435Y030769D03*
X031104Y030769D03*
X031380Y031439D03*
X030710Y031439D03*
X030710Y032777D03*
X031380Y032777D03*
X031380Y034116D03*
X030710Y034116D03*
X033860Y022423D03*
X034529Y022423D03*
X041773Y021478D03*
X042443Y021478D03*
X031380Y011793D03*
X030710Y011793D03*
X030710Y010454D03*
X031380Y010454D03*
X031380Y009116D03*
X030710Y009116D03*
X030435Y008446D03*
X031104Y008446D03*
X031380Y007777D03*
X030710Y007777D03*
X030435Y007108D03*
X031104Y007108D03*
X031380Y006439D03*
X030710Y006439D03*
X030907Y004785D03*
X030907Y004076D03*
X031576Y004076D03*
X032206Y004076D03*
X032876Y004076D03*
X032876Y004785D03*
X032206Y004785D03*
X031576Y004785D03*
X019293Y004785D03*
X018624Y004785D03*
X018624Y004076D03*
X019293Y004076D03*
X017994Y004076D03*
X017324Y004076D03*
X017324Y004785D03*
X017994Y004785D03*
X017797Y006439D03*
X017521Y007108D03*
X016852Y007108D03*
X017128Y007777D03*
X017797Y007777D03*
X017521Y008446D03*
X016852Y008446D03*
X017128Y009116D03*
X017797Y009116D03*
X017797Y010454D03*
X017128Y010454D03*
X017128Y011793D03*
X017797Y011793D03*
X017128Y006439D03*
X005710Y004785D03*
X005041Y004785D03*
X005041Y004076D03*
X005710Y004076D03*
X004411Y004076D03*
X003742Y004076D03*
X003742Y004785D03*
X004411Y004785D03*
X004214Y006439D03*
X003939Y007108D03*
X003269Y007108D03*
X003545Y007777D03*
X004214Y007777D03*
X003939Y008446D03*
X003269Y008446D03*
X003545Y009116D03*
X004214Y009116D03*
X004214Y010454D03*
X003545Y010454D03*
X003545Y011793D03*
X004214Y011793D03*
X003545Y006439D03*
X041773Y043801D03*
X042443Y043801D03*
D25*
X033683Y037935D03*
X020100Y037935D03*
X006517Y037935D03*
X006517Y015612D03*
X020100Y015612D03*
X033683Y015612D03*
D26*
X031399Y015612D03*
X031399Y016517D03*
X031399Y014706D03*
X017817Y014706D03*
X017817Y015612D03*
X017817Y016517D03*
X004234Y016517D03*
X004234Y015612D03*
X004234Y014706D03*
X004234Y037029D03*
X004234Y037935D03*
X004234Y038840D03*
X017817Y038840D03*
X017817Y037935D03*
X017817Y037029D03*
X031399Y037029D03*
X031399Y037935D03*
X031399Y038840D03*
D27*
X031616Y039746D03*
X030868Y039746D03*
X032915Y039746D03*
X033663Y039746D03*
X034254Y041163D03*
X035002Y041163D03*
X021419Y041163D03*
X020671Y041163D03*
X020080Y039746D03*
X019332Y039746D03*
X018033Y039746D03*
X017285Y039746D03*
X007836Y041163D03*
X007088Y041163D03*
X006498Y039746D03*
X005750Y039746D03*
X004450Y039746D03*
X003702Y039746D03*
X007088Y018840D03*
X007836Y018840D03*
X006498Y017423D03*
X005750Y017423D03*
X004450Y017423D03*
X003702Y017423D03*
X017285Y017423D03*
X018033Y017423D03*
X019332Y017423D03*
X020080Y017423D03*
X020671Y018840D03*
X021419Y018840D03*
X030868Y017423D03*
X031616Y017423D03*
X032915Y017423D03*
X033663Y017423D03*
X034254Y018840D03*
X035002Y018840D03*
D28*
X032226Y017423D03*
X030257Y017423D03*
X018643Y017423D03*
X016675Y017423D03*
X005061Y017423D03*
X003092Y017423D03*
X003092Y039746D03*
X005061Y039746D03*
X016675Y039746D03*
X018643Y039746D03*
X030257Y039746D03*
X032226Y039746D03*
D29*
X036793Y026675D03*
X023210Y026675D03*
X009628Y026675D03*
X009628Y004352D03*
X023210Y004352D03*
X036793Y004352D03*
D30*
X036891Y003508D02*
X036891Y003346D01*
X036694Y003346D02*
X036694Y003508D01*
X036498Y003508D02*
X036498Y003346D01*
X036301Y003346D02*
X036301Y003508D01*
X036104Y003508D02*
X036104Y003346D01*
X035949Y003663D02*
X035787Y003663D01*
X035787Y003860D02*
X035949Y003860D01*
X035949Y004057D02*
X035787Y004057D01*
X035787Y004254D02*
X035949Y004254D01*
X035949Y004450D02*
X035787Y004450D01*
X035787Y004647D02*
X035949Y004647D01*
X035949Y004844D02*
X035787Y004844D01*
X035787Y005041D02*
X035949Y005041D01*
X036104Y005196D02*
X036104Y005358D01*
X036301Y005358D02*
X036301Y005196D01*
X036498Y005196D02*
X036498Y005358D01*
X036694Y005358D02*
X036694Y005196D01*
X036891Y005196D02*
X036891Y005358D01*
X037088Y005358D02*
X037088Y005196D01*
X037285Y005196D02*
X037285Y005358D01*
X037482Y005358D02*
X037482Y005196D01*
X037637Y005041D02*
X037799Y005041D01*
X037799Y004844D02*
X037637Y004844D01*
X037637Y004647D02*
X037799Y004647D01*
X037799Y004450D02*
X037637Y004450D01*
X037637Y004254D02*
X037799Y004254D01*
X037799Y004057D02*
X037637Y004057D01*
X037637Y003860D02*
X037799Y003860D01*
X037799Y003663D02*
X037637Y003663D01*
X037482Y003508D02*
X037482Y003346D01*
X037285Y003346D02*
X037285Y003508D01*
X037088Y003508D02*
X037088Y003346D01*
X024216Y003663D02*
X024054Y003663D01*
X024054Y003860D02*
X024216Y003860D01*
X024216Y004057D02*
X024054Y004057D01*
X024054Y004254D02*
X024216Y004254D01*
X024216Y004450D02*
X024054Y004450D01*
X024054Y004647D02*
X024216Y004647D01*
X024216Y004844D02*
X024054Y004844D01*
X024054Y005041D02*
X024216Y005041D01*
X023899Y005196D02*
X023899Y005358D01*
X023702Y005358D02*
X023702Y005196D01*
X023506Y005196D02*
X023506Y005358D01*
X023309Y005358D02*
X023309Y005196D01*
X023112Y005196D02*
X023112Y005358D01*
X022915Y005358D02*
X022915Y005196D01*
X022718Y005196D02*
X022718Y005358D01*
X022521Y005358D02*
X022521Y005196D01*
X022366Y005041D02*
X022204Y005041D01*
X022204Y004844D02*
X022366Y004844D01*
X022366Y004647D02*
X022204Y004647D01*
X022204Y004450D02*
X022366Y004450D01*
X022366Y004254D02*
X022204Y004254D01*
X022204Y004057D02*
X022366Y004057D01*
X022366Y003860D02*
X022204Y003860D01*
X022204Y003663D02*
X022366Y003663D01*
X022521Y003508D02*
X022521Y003346D01*
X022718Y003346D02*
X022718Y003508D01*
X022915Y003508D02*
X022915Y003346D01*
X023112Y003346D02*
X023112Y003508D01*
X023309Y003508D02*
X023309Y003346D01*
X023506Y003346D02*
X023506Y003508D01*
X023702Y003508D02*
X023702Y003346D01*
X023899Y003346D02*
X023899Y003508D01*
X010634Y003663D02*
X010472Y003663D01*
X010472Y003860D02*
X010634Y003860D01*
X010634Y004057D02*
X010472Y004057D01*
X010472Y004254D02*
X010634Y004254D01*
X010634Y004450D02*
X010472Y004450D01*
X010472Y004647D02*
X010634Y004647D01*
X010634Y004844D02*
X010472Y004844D01*
X010472Y005041D02*
X010634Y005041D01*
X010317Y005196D02*
X010317Y005358D01*
X010120Y005358D02*
X010120Y005196D01*
X009923Y005196D02*
X009923Y005358D01*
X009726Y005358D02*
X009726Y005196D01*
X009529Y005196D02*
X009529Y005358D01*
X009332Y005358D02*
X009332Y005196D01*
X009135Y005196D02*
X009135Y005358D01*
X008939Y005358D02*
X008939Y005196D01*
X008783Y005041D02*
X008621Y005041D01*
X008621Y004844D02*
X008783Y004844D01*
X008783Y004647D02*
X008621Y004647D01*
X008621Y004450D02*
X008783Y004450D01*
X008783Y004254D02*
X008621Y004254D01*
X008621Y004057D02*
X008783Y004057D01*
X008783Y003860D02*
X008621Y003860D01*
X008621Y003663D02*
X008783Y003663D01*
X008939Y003508D02*
X008939Y003346D01*
X009135Y003346D02*
X009135Y003508D01*
X009332Y003508D02*
X009332Y003346D01*
X009529Y003346D02*
X009529Y003508D01*
X009726Y003508D02*
X009726Y003346D01*
X009923Y003346D02*
X009923Y003508D01*
X010120Y003508D02*
X010120Y003346D01*
X010317Y003346D02*
X010317Y003508D01*
X010317Y025669D02*
X010317Y025831D01*
X010120Y025831D02*
X010120Y025669D01*
X009923Y025669D02*
X009923Y025831D01*
X009726Y025831D02*
X009726Y025669D01*
X009529Y025669D02*
X009529Y025831D01*
X009332Y025831D02*
X009332Y025669D01*
X009135Y025669D02*
X009135Y025831D01*
X008939Y025831D02*
X008939Y025669D01*
X008783Y025986D02*
X008621Y025986D01*
X008621Y026183D02*
X008783Y026183D01*
X008783Y026380D02*
X008621Y026380D01*
X008621Y026576D02*
X008783Y026576D01*
X008783Y026773D02*
X008621Y026773D01*
X008621Y026970D02*
X008783Y026970D01*
X008783Y027167D02*
X008621Y027167D01*
X008621Y027364D02*
X008783Y027364D01*
X008939Y027519D02*
X008939Y027681D01*
X009135Y027681D02*
X009135Y027519D01*
X009332Y027519D02*
X009332Y027681D01*
X009529Y027681D02*
X009529Y027519D01*
X009726Y027519D02*
X009726Y027681D01*
X009923Y027681D02*
X009923Y027519D01*
X010120Y027519D02*
X010120Y027681D01*
X010317Y027681D02*
X010317Y027519D01*
X010472Y027364D02*
X010634Y027364D01*
X010634Y027167D02*
X010472Y027167D01*
X010472Y026970D02*
X010634Y026970D01*
X010634Y026773D02*
X010472Y026773D01*
X010472Y026576D02*
X010634Y026576D01*
X010634Y026380D02*
X010472Y026380D01*
X010472Y026183D02*
X010634Y026183D01*
X010634Y025986D02*
X010472Y025986D01*
X022204Y025986D02*
X022366Y025986D01*
X022366Y026183D02*
X022204Y026183D01*
X022204Y026380D02*
X022366Y026380D01*
X022366Y026576D02*
X022204Y026576D01*
X022204Y026773D02*
X022366Y026773D01*
X022366Y026970D02*
X022204Y026970D01*
X022204Y027167D02*
X022366Y027167D01*
X022366Y027364D02*
X022204Y027364D01*
X022521Y027519D02*
X022521Y027681D01*
X022718Y027681D02*
X022718Y027519D01*
X022915Y027519D02*
X022915Y027681D01*
X023112Y027681D02*
X023112Y027519D01*
X023309Y027519D02*
X023309Y027681D01*
X023506Y027681D02*
X023506Y027519D01*
X023702Y027519D02*
X023702Y027681D01*
X023899Y027681D02*
X023899Y027519D01*
X024054Y027364D02*
X024216Y027364D01*
X024216Y027167D02*
X024054Y027167D01*
X024054Y026970D02*
X024216Y026970D01*
X024216Y026773D02*
X024054Y026773D01*
X024054Y026576D02*
X024216Y026576D01*
X024216Y026380D02*
X024054Y026380D01*
X024054Y026183D02*
X024216Y026183D01*
X024216Y025986D02*
X024054Y025986D01*
X023899Y025831D02*
X023899Y025669D01*
X023702Y025669D02*
X023702Y025831D01*
X023506Y025831D02*
X023506Y025669D01*
X023309Y025669D02*
X023309Y025831D01*
X023112Y025831D02*
X023112Y025669D01*
X022915Y025669D02*
X022915Y025831D01*
X022718Y025831D02*
X022718Y025669D01*
X022521Y025669D02*
X022521Y025831D01*
X035787Y025986D02*
X035949Y025986D01*
X035949Y026183D02*
X035787Y026183D01*
X035787Y026380D02*
X035949Y026380D01*
X035949Y026576D02*
X035787Y026576D01*
X035787Y026773D02*
X035949Y026773D01*
X035949Y026970D02*
X035787Y026970D01*
X035787Y027167D02*
X035949Y027167D01*
X035949Y027364D02*
X035787Y027364D01*
X036104Y027519D02*
X036104Y027681D01*
X036301Y027681D02*
X036301Y027519D01*
X036498Y027519D02*
X036498Y027681D01*
X036694Y027681D02*
X036694Y027519D01*
X036891Y027519D02*
X036891Y027681D01*
X037088Y027681D02*
X037088Y027519D01*
X037285Y027519D02*
X037285Y027681D01*
X037482Y027681D02*
X037482Y027519D01*
X037637Y027364D02*
X037799Y027364D01*
X037799Y027167D02*
X037637Y027167D01*
X037637Y026970D02*
X037799Y026970D01*
X037799Y026773D02*
X037637Y026773D01*
X037637Y026576D02*
X037799Y026576D01*
X037799Y026380D02*
X037637Y026380D01*
X037637Y026183D02*
X037799Y026183D01*
X037799Y025986D02*
X037637Y025986D01*
X037482Y025831D02*
X037482Y025669D01*
X037285Y025669D02*
X037285Y025831D01*
X037088Y025831D02*
X037088Y025669D01*
X036891Y025669D02*
X036891Y025831D01*
X036694Y025831D02*
X036694Y025669D01*
X036498Y025669D02*
X036498Y025831D01*
X036301Y025831D02*
X036301Y025669D01*
X036104Y025669D02*
X036104Y025831D01*
D31*
X042187Y030580D03*
X042187Y031580D03*
X042187Y032580D03*
X042187Y033580D03*
X042187Y034580D03*
X030061Y034116D03*
X030061Y032777D03*
X030061Y031439D03*
X030061Y030100D03*
X030061Y028761D03*
X028604Y030580D03*
X028604Y031580D03*
X028604Y032580D03*
X028604Y033580D03*
X028604Y034580D03*
X030061Y035257D03*
X030061Y036320D03*
X016478Y036320D03*
X016478Y035257D03*
X016478Y034116D03*
X016478Y032777D03*
X016478Y031439D03*
X016478Y030100D03*
X016478Y028761D03*
X015021Y030580D03*
X015021Y031580D03*
X015021Y032580D03*
X015021Y033580D03*
X015021Y034580D03*
X002895Y034116D03*
X002895Y032777D03*
X002895Y031439D03*
X002895Y030100D03*
X002895Y028761D03*
X002895Y035257D03*
X002895Y036320D03*
X002895Y013998D03*
X002895Y012935D03*
X002895Y011793D03*
X002895Y010454D03*
X002895Y009116D03*
X002895Y007777D03*
X002895Y006439D03*
X015021Y008257D03*
X015021Y009257D03*
X015021Y010257D03*
X015021Y011257D03*
X015021Y012257D03*
X016478Y011793D03*
X016478Y012935D03*
X016478Y013998D03*
X016478Y010454D03*
X016478Y009116D03*
X016478Y007777D03*
X016478Y006439D03*
X028604Y008257D03*
X028604Y009257D03*
X028604Y010257D03*
X028604Y011257D03*
X028604Y012257D03*
X030061Y011793D03*
X030061Y012935D03*
X030061Y013998D03*
X030061Y010454D03*
X030061Y009116D03*
X030061Y007777D03*
X030061Y006439D03*
X042187Y008257D03*
X042187Y009257D03*
X042187Y010257D03*
X042187Y011257D03*
X042187Y012257D03*
D32*
X041084Y005277D03*
X041084Y004529D03*
X041950Y004903D03*
X032935Y006065D03*
X032935Y006813D03*
X032935Y007403D03*
X032935Y008151D03*
X032935Y008742D03*
X032935Y009490D03*
X032935Y010080D03*
X032935Y010828D03*
X032935Y011419D03*
X032935Y012167D03*
X032069Y011793D03*
X032069Y010454D03*
X032069Y009116D03*
X032069Y007777D03*
X032069Y006439D03*
X028368Y004903D03*
X027502Y004529D03*
X027502Y005277D03*
X019352Y006065D03*
X019352Y006813D03*
X019352Y007403D03*
X019352Y008151D03*
X019352Y008742D03*
X019352Y009490D03*
X019352Y010080D03*
X019352Y010828D03*
X019352Y011419D03*
X019352Y012167D03*
X018486Y011793D03*
X018486Y010454D03*
X018486Y009116D03*
X018486Y007777D03*
X018486Y006439D03*
X014785Y004903D03*
X013919Y004529D03*
X013919Y005277D03*
X005769Y006065D03*
X005769Y006813D03*
X005769Y007403D03*
X005769Y008151D03*
X005769Y008742D03*
X005769Y009490D03*
X005769Y010080D03*
X005769Y010828D03*
X005769Y011419D03*
X005769Y012167D03*
X004903Y011793D03*
X004903Y010454D03*
X004903Y009116D03*
X004903Y007777D03*
X004903Y006439D03*
X013919Y026852D03*
X013919Y027600D03*
X014785Y027226D03*
X018486Y028761D03*
X019352Y028387D03*
X019352Y029135D03*
X019352Y029726D03*
X019352Y030474D03*
X019352Y031065D03*
X019352Y031813D03*
X019352Y032403D03*
X019352Y033151D03*
X019352Y033742D03*
X019352Y034490D03*
X018486Y034116D03*
X018486Y032777D03*
X018486Y031439D03*
X018486Y030100D03*
X027502Y027600D03*
X027502Y026852D03*
X028368Y027226D03*
X032069Y028761D03*
X032935Y028387D03*
X032935Y029135D03*
X032935Y029726D03*
X032935Y030474D03*
X032935Y031065D03*
X032935Y031813D03*
X032935Y032403D03*
X032935Y033151D03*
X032935Y033742D03*
X032935Y034490D03*
X032069Y034116D03*
X032069Y032777D03*
X032069Y031439D03*
X032069Y030100D03*
X041084Y027600D03*
X041084Y026852D03*
X041950Y027226D03*
X005769Y028387D03*
X005769Y029135D03*
X005769Y029726D03*
X005769Y030474D03*
X005769Y031065D03*
X005769Y031813D03*
X005769Y032403D03*
X005769Y033151D03*
X005769Y033742D03*
X005769Y034490D03*
X004903Y034116D03*
X004903Y032777D03*
X004903Y031439D03*
X004903Y030100D03*
X004903Y028761D03*
D33*
X006675Y035061D03*
X010927Y030927D03*
X013906Y028867D03*
X012514Y027475D03*
X020257Y035061D03*
X024509Y030927D03*
X027489Y028867D03*
X026097Y027475D03*
X033840Y035061D03*
X038092Y030927D03*
X041072Y028867D03*
X039680Y027475D03*
X033840Y012738D03*
X038092Y008604D03*
X041072Y006544D03*
X039680Y005152D03*
X043801Y001084D03*
X027489Y006544D03*
X026097Y005152D03*
X024509Y008604D03*
X020257Y012738D03*
X013906Y006544D03*
X012514Y005152D03*
X010927Y008604D03*
X006675Y012738D03*
X001084Y001084D03*
X001084Y047698D03*
D34*
G36*
X013043Y028561D02*
X013266Y028338D01*
X013043Y028115D01*
X012820Y028338D01*
X013043Y028561D01*
G37*
G36*
X013377Y028227D02*
X013600Y028004D01*
X013377Y027781D01*
X013154Y028004D01*
X013377Y028227D01*
G37*
G36*
X026626Y028561D02*
X026849Y028338D01*
X026626Y028115D01*
X026403Y028338D01*
X026626Y028561D01*
G37*
G36*
X026960Y028227D02*
X027183Y028004D01*
X026960Y027781D01*
X026737Y028004D01*
X026960Y028227D01*
G37*
G36*
X040209Y028561D02*
X040432Y028338D01*
X040209Y028115D01*
X039986Y028338D01*
X040209Y028561D01*
G37*
G36*
X040543Y028227D02*
X040766Y028004D01*
X040543Y027781D01*
X040320Y028004D01*
X040543Y028227D01*
G37*
G36*
X040209Y006238D02*
X040432Y006015D01*
X040209Y005792D01*
X039986Y006015D01*
X040209Y006238D01*
G37*
G36*
X040543Y005904D02*
X040766Y005681D01*
X040543Y005458D01*
X040320Y005681D01*
X040543Y005904D01*
G37*
G36*
X026960Y005904D02*
X027183Y005681D01*
X026960Y005458D01*
X026737Y005681D01*
X026960Y005904D01*
G37*
G36*
X026626Y006238D02*
X026849Y006015D01*
X026626Y005792D01*
X026403Y006015D01*
X026626Y006238D01*
G37*
G36*
X013377Y005904D02*
X013600Y005681D01*
X013377Y005458D01*
X013154Y005681D01*
X013377Y005904D01*
G37*
G36*
X013043Y006238D02*
X013266Y006015D01*
X013043Y005792D01*
X012820Y006015D01*
X013043Y006238D01*
G37*
D35*
X012600Y007502D03*
X012600Y007817D03*
X012600Y008131D03*
X012600Y008446D03*
X012600Y008761D03*
X012600Y009076D03*
X012600Y009391D03*
X012600Y009706D03*
X009254Y009706D03*
X009254Y009391D03*
X009254Y009076D03*
X009254Y008761D03*
X009254Y008446D03*
X009254Y008131D03*
X009254Y007817D03*
X009254Y007502D03*
X022836Y007502D03*
X022836Y007817D03*
X022836Y008131D03*
X022836Y008446D03*
X022836Y008761D03*
X022836Y009076D03*
X022836Y009391D03*
X022836Y009706D03*
X026183Y009706D03*
X026183Y009391D03*
X026183Y009076D03*
X026183Y008761D03*
X026183Y008446D03*
X026183Y008131D03*
X026183Y007817D03*
X026183Y007502D03*
X036419Y007502D03*
X036419Y007817D03*
X036419Y008131D03*
X036419Y008446D03*
X036419Y008761D03*
X036419Y009076D03*
X036419Y009391D03*
X036419Y009706D03*
X039765Y009706D03*
X039765Y009391D03*
X039765Y009076D03*
X039765Y008761D03*
X039765Y008446D03*
X039765Y008131D03*
X039765Y007817D03*
X039765Y007502D03*
X039765Y029824D03*
X039765Y030139D03*
X039765Y030454D03*
X039765Y030769D03*
X039765Y031084D03*
X039765Y031399D03*
X039765Y031714D03*
X039765Y032029D03*
X036419Y032029D03*
X036419Y031714D03*
X036419Y031399D03*
X036419Y031084D03*
X036419Y030769D03*
X036419Y030454D03*
X036419Y030139D03*
X036419Y029824D03*
X026183Y029824D03*
X026183Y030139D03*
X026183Y030454D03*
X026183Y030769D03*
X026183Y031084D03*
X026183Y031399D03*
X026183Y031714D03*
X026183Y032029D03*
X022836Y032029D03*
X022836Y031714D03*
X022836Y031399D03*
X022836Y031084D03*
X022836Y030769D03*
X022836Y030454D03*
X022836Y030139D03*
X022836Y029824D03*
X012600Y029824D03*
X012600Y030139D03*
X012600Y030454D03*
X012600Y030769D03*
X012600Y031084D03*
X012600Y031399D03*
X012600Y031714D03*
X012600Y032029D03*
X009254Y032029D03*
X009254Y031714D03*
X009254Y031399D03*
X009254Y031084D03*
X009254Y030769D03*
X009254Y030454D03*
X009254Y030139D03*
X009254Y029824D03*
D36*
X009824Y029254D03*
X010139Y029254D03*
X010454Y029254D03*
X010769Y029254D03*
X011084Y029254D03*
X011399Y029254D03*
X011714Y029254D03*
X012029Y029254D03*
X012029Y032600D03*
X011714Y032600D03*
X011399Y032600D03*
X011084Y032600D03*
X010769Y032600D03*
X010454Y032600D03*
X010139Y032600D03*
X009824Y032600D03*
X023407Y032600D03*
X023722Y032600D03*
X024037Y032600D03*
X024352Y032600D03*
X024667Y032600D03*
X024982Y032600D03*
X025297Y032600D03*
X025612Y032600D03*
X025612Y029254D03*
X025297Y029254D03*
X024982Y029254D03*
X024667Y029254D03*
X024352Y029254D03*
X024037Y029254D03*
X023722Y029254D03*
X023407Y029254D03*
X036990Y029254D03*
X037305Y029254D03*
X037620Y029254D03*
X037935Y029254D03*
X038250Y029254D03*
X038565Y029254D03*
X038880Y029254D03*
X039194Y029254D03*
X039194Y032600D03*
X038880Y032600D03*
X038565Y032600D03*
X038250Y032600D03*
X037935Y032600D03*
X037620Y032600D03*
X037305Y032600D03*
X036990Y032600D03*
X036990Y010277D03*
X037305Y010277D03*
X037620Y010277D03*
X037935Y010277D03*
X038250Y010277D03*
X038565Y010277D03*
X038880Y010277D03*
X039194Y010277D03*
X039194Y006931D03*
X038880Y006931D03*
X038565Y006931D03*
X038250Y006931D03*
X037935Y006931D03*
X037620Y006931D03*
X037305Y006931D03*
X036990Y006931D03*
X025612Y006931D03*
X025297Y006931D03*
X024982Y006931D03*
X024667Y006931D03*
X024352Y006931D03*
X024037Y006931D03*
X023722Y006931D03*
X023407Y006931D03*
X023407Y010277D03*
X023722Y010277D03*
X024037Y010277D03*
X024352Y010277D03*
X024667Y010277D03*
X024982Y010277D03*
X025297Y010277D03*
X025612Y010277D03*
X012029Y010277D03*
X011714Y010277D03*
X011399Y010277D03*
X011084Y010277D03*
X010769Y010277D03*
X010454Y010277D03*
X010139Y010277D03*
X009824Y010277D03*
X009824Y006931D03*
X010139Y006931D03*
X010454Y006931D03*
X010769Y006931D03*
X011084Y006931D03*
X011399Y006931D03*
X011714Y006931D03*
X012029Y006931D03*
D37*
X010376Y014372D03*
X010376Y015041D03*
X008328Y022403D03*
X008328Y023072D03*
X010376Y036694D03*
X010376Y037364D03*
X008328Y044726D03*
X008328Y045395D03*
X021911Y045395D03*
X021911Y044726D03*
X023958Y037364D03*
X023958Y036694D03*
X035494Y044726D03*
X035494Y045395D03*
X037541Y037364D03*
X037541Y036694D03*
X035494Y023072D03*
X035494Y022403D03*
X037541Y015041D03*
X037541Y014372D03*
X023958Y014372D03*
X023958Y015041D03*
X021911Y022403D03*
X021911Y023072D03*
D38*
X022128Y015986D03*
X022128Y015238D03*
X021065Y015238D03*
X021065Y015612D03*
X021065Y015986D03*
X008545Y015986D03*
X008545Y015238D03*
X007482Y015238D03*
X007482Y015612D03*
X007482Y015986D03*
X007482Y037561D03*
X007482Y037935D03*
X007482Y038309D03*
X008545Y038309D03*
X008545Y037561D03*
X021065Y037561D03*
X021065Y037935D03*
X021065Y038309D03*
X022128Y038309D03*
X022128Y037561D03*
X034647Y037561D03*
X034647Y037935D03*
X034647Y038309D03*
X035710Y038309D03*
X035710Y037561D03*
X035710Y015986D03*
X035710Y015238D03*
X034647Y015238D03*
X034647Y015612D03*
X034647Y015986D03*
D39*
X040100Y022226D03*
X026517Y022226D03*
X012935Y022226D03*
X012935Y044549D03*
X026517Y044549D03*
X040100Y044549D03*
D40*
X041006Y042285D03*
X041006Y042029D03*
X041006Y041773D03*
X041006Y041517D03*
X041006Y041261D03*
X041006Y041006D03*
X041006Y040750D03*
X038801Y040750D03*
X038801Y041006D03*
X038801Y041261D03*
X038801Y041517D03*
X038801Y041773D03*
X038801Y042029D03*
X038801Y042285D03*
X027423Y042285D03*
X027423Y042029D03*
X027423Y041773D03*
X027423Y041517D03*
X027423Y041261D03*
X027423Y041006D03*
X027423Y040750D03*
X025218Y040750D03*
X025218Y041006D03*
X025218Y041261D03*
X025218Y041517D03*
X025218Y041773D03*
X025218Y042029D03*
X025218Y042285D03*
X013840Y042285D03*
X013840Y042029D03*
X013840Y041773D03*
X013840Y041517D03*
X013840Y041261D03*
X013840Y041006D03*
X013840Y040750D03*
X011635Y040750D03*
X011635Y041006D03*
X011635Y041261D03*
X011635Y041517D03*
X011635Y041773D03*
X011635Y042029D03*
X011635Y042285D03*
X011635Y019962D03*
X011635Y019706D03*
X011635Y019450D03*
X011635Y019194D03*
X011635Y018939D03*
X011635Y018683D03*
X011635Y018427D03*
X013840Y018427D03*
X013840Y018683D03*
X013840Y018939D03*
X013840Y019194D03*
X013840Y019450D03*
X013840Y019706D03*
X013840Y019962D03*
X025218Y019962D03*
X025218Y019706D03*
X025218Y019450D03*
X025218Y019194D03*
X025218Y018939D03*
X025218Y018683D03*
X025218Y018427D03*
X027423Y018427D03*
X027423Y018683D03*
X027423Y018939D03*
X027423Y019194D03*
X027423Y019450D03*
X027423Y019706D03*
X027423Y019962D03*
X038801Y019962D03*
X038801Y019706D03*
X038801Y019450D03*
X038801Y019194D03*
X038801Y018939D03*
X038801Y018683D03*
X038801Y018427D03*
X041006Y018427D03*
X041006Y018683D03*
X041006Y018939D03*
X041006Y019194D03*
X041006Y019450D03*
X041006Y019706D03*
X041006Y019962D03*
D41*
X040513Y015730D03*
X040257Y015730D03*
X040002Y015730D03*
X039746Y015730D03*
X039490Y015730D03*
X039234Y015730D03*
X038978Y015730D03*
X038978Y013525D03*
X039234Y013525D03*
X039490Y013525D03*
X039746Y013525D03*
X040002Y013525D03*
X040257Y013525D03*
X040513Y013525D03*
X026931Y013525D03*
X026675Y013525D03*
X026419Y013525D03*
X026163Y013525D03*
X025907Y013525D03*
X025651Y013525D03*
X025395Y013525D03*
X025395Y015730D03*
X025651Y015730D03*
X025907Y015730D03*
X026163Y015730D03*
X026419Y015730D03*
X026675Y015730D03*
X026931Y015730D03*
X013348Y015730D03*
X013092Y015730D03*
X012836Y015730D03*
X012580Y015730D03*
X012324Y015730D03*
X012069Y015730D03*
X011813Y015730D03*
X011813Y013525D03*
X012069Y013525D03*
X012324Y013525D03*
X012580Y013525D03*
X012836Y013525D03*
X013092Y013525D03*
X013348Y013525D03*
X013348Y035848D03*
X013092Y035848D03*
X012836Y035848D03*
X012580Y035848D03*
X012324Y035848D03*
X012069Y035848D03*
X011813Y035848D03*
X011813Y038053D03*
X012069Y038053D03*
X012324Y038053D03*
X012580Y038053D03*
X012836Y038053D03*
X013092Y038053D03*
X013348Y038053D03*
X025395Y038053D03*
X025651Y038053D03*
X025907Y038053D03*
X026163Y038053D03*
X026419Y038053D03*
X026675Y038053D03*
X026931Y038053D03*
X026931Y035848D03*
X026675Y035848D03*
X026419Y035848D03*
X026163Y035848D03*
X025907Y035848D03*
X025651Y035848D03*
X025395Y035848D03*
X038978Y035848D03*
X039234Y035848D03*
X039490Y035848D03*
X039746Y035848D03*
X040002Y035848D03*
X040257Y035848D03*
X040513Y035848D03*
X040513Y038053D03*
X040257Y038053D03*
X040002Y038053D03*
X039746Y038053D03*
X039490Y038053D03*
X039234Y038053D03*
X038978Y038053D03*
D42*
X034569Y041872D03*
X033820Y041872D03*
X034194Y042738D03*
X034194Y043328D03*
X033820Y044194D03*
X034569Y044194D03*
X035120Y044194D03*
X035868Y044194D03*
X035494Y043328D03*
X022285Y044194D03*
X021537Y044194D03*
X020986Y044194D03*
X020238Y044194D03*
X020612Y043328D03*
X020612Y042738D03*
X020986Y041872D03*
X020238Y041872D03*
X021911Y043328D03*
X008702Y044194D03*
X007954Y044194D03*
X007403Y044194D03*
X006655Y044194D03*
X007029Y043328D03*
X007029Y042738D03*
X006655Y041872D03*
X007403Y041872D03*
X008328Y043328D03*
X007954Y021872D03*
X007403Y021872D03*
X007029Y021006D03*
X006655Y021872D03*
X007029Y020415D03*
X006655Y019549D03*
X007403Y019549D03*
X008328Y021006D03*
X008702Y021872D03*
X020238Y021872D03*
X020612Y021006D03*
X020986Y021872D03*
X021537Y021872D03*
X021911Y021006D03*
X022285Y021872D03*
X020612Y020415D03*
X020986Y019549D03*
X020238Y019549D03*
X033820Y019549D03*
X034194Y020415D03*
X034569Y019549D03*
X034194Y021006D03*
X033820Y021872D03*
X034569Y021872D03*
X035120Y021872D03*
X035494Y021006D03*
X035868Y021872D03*
D43*
X036025Y019840D03*
X036025Y018840D03*
X036025Y017840D03*
X022443Y017840D03*
X022443Y018840D03*
X022443Y019840D03*
X008860Y019840D03*
X008860Y018840D03*
X008860Y017840D03*
X008860Y040163D03*
X008860Y041163D03*
X008860Y042163D03*
X022443Y042163D03*
X022443Y041163D03*
X022443Y040163D03*
X036025Y040163D03*
X036025Y041163D03*
X036025Y042163D03*
D44*
X038131Y046006D03*
X039706Y046006D03*
X026124Y046006D03*
X024549Y046006D03*
X012541Y046006D03*
X010966Y046006D03*
X010966Y023683D03*
X012541Y023683D03*
X024549Y023683D03*
X026124Y023683D03*
X038131Y023683D03*
X039706Y023683D03*
D45*
X030021Y016399D03*
X030021Y014824D03*
X016439Y014824D03*
X016439Y016399D03*
X002856Y016399D03*
X002856Y014824D03*
X002856Y037147D03*
X002856Y038722D03*
X016439Y038722D03*
X016439Y037147D03*
X030021Y037147D03*
X030021Y038722D03*
D46*
X026990Y046084D03*
X022029Y046084D03*
X013407Y046084D03*
X008446Y046084D03*
X002856Y027805D03*
X002856Y026805D03*
X008446Y023761D03*
X013407Y023761D03*
X016439Y026805D03*
X016439Y027805D03*
X022029Y023761D03*
X026990Y023761D03*
X030021Y026805D03*
X030021Y027805D03*
X035612Y023761D03*
X040572Y023761D03*
X030021Y005482D03*
X030021Y004482D03*
X016439Y004482D03*
X016439Y005482D03*
X002856Y005482D03*
X002856Y004482D03*
X035612Y046084D03*
X040572Y046084D03*
D47*
X035971Y029037D03*
X034071Y029037D03*
X022389Y029037D03*
X020489Y029037D03*
X008806Y029037D03*
X006906Y029037D03*
X006906Y006714D03*
X008806Y006714D03*
X020489Y006714D03*
X022389Y006714D03*
X034071Y006714D03*
X035971Y006714D03*
D48*
X039313Y004293D03*
X040257Y004293D03*
X040257Y002757D03*
X039313Y002757D03*
X026675Y002757D03*
X025730Y002757D03*
X025730Y004293D03*
X026675Y004293D03*
X013092Y004293D03*
X012147Y004293D03*
X012147Y002757D03*
X013092Y002757D03*
X013092Y025080D03*
X012147Y025080D03*
X012147Y026616D03*
X013092Y026616D03*
X025730Y026616D03*
X026675Y026616D03*
X026675Y025080D03*
X025730Y025080D03*
X039313Y025080D03*
X040257Y025080D03*
X040257Y026616D03*
X039313Y026616D03*
D49*
X037736Y030927D02*
X037738Y030964D01*
X037744Y031001D01*
X037753Y031037D01*
X037767Y031072D01*
X037784Y031105D01*
X037804Y031136D01*
X037827Y031165D01*
X037854Y031192D01*
X037883Y031215D01*
X037914Y031235D01*
X037947Y031252D01*
X037982Y031266D01*
X038018Y031275D01*
X038055Y031281D01*
X038092Y031283D01*
X038129Y031281D01*
X038166Y031275D01*
X038202Y031266D01*
X038237Y031252D01*
X038270Y031235D01*
X038301Y031215D01*
X038330Y031192D01*
X038357Y031165D01*
X038380Y031136D01*
X038400Y031105D01*
X038417Y031072D01*
X038431Y031037D01*
X038440Y031001D01*
X038446Y030964D01*
X038448Y030927D01*
X038446Y030890D01*
X038440Y030853D01*
X038431Y030817D01*
X038417Y030782D01*
X038400Y030749D01*
X038380Y030718D01*
X038357Y030689D01*
X038330Y030662D01*
X038301Y030639D01*
X038270Y030619D01*
X038237Y030602D01*
X038202Y030588D01*
X038166Y030579D01*
X038129Y030573D01*
X038092Y030571D01*
X038055Y030573D01*
X038018Y030579D01*
X037982Y030588D01*
X037947Y030602D01*
X037914Y030619D01*
X037883Y030639D01*
X037854Y030662D01*
X037827Y030689D01*
X037804Y030718D01*
X037784Y030749D01*
X037767Y030782D01*
X037753Y030817D01*
X037744Y030853D01*
X037738Y030890D01*
X037736Y030927D01*
X033484Y035061D02*
X033486Y035098D01*
X033492Y035135D01*
X033501Y035171D01*
X033515Y035206D01*
X033532Y035239D01*
X033552Y035270D01*
X033575Y035299D01*
X033602Y035326D01*
X033631Y035349D01*
X033662Y035369D01*
X033695Y035386D01*
X033730Y035400D01*
X033766Y035409D01*
X033803Y035415D01*
X033840Y035417D01*
X033877Y035415D01*
X033914Y035409D01*
X033950Y035400D01*
X033985Y035386D01*
X034018Y035369D01*
X034049Y035349D01*
X034078Y035326D01*
X034105Y035299D01*
X034128Y035270D01*
X034148Y035239D01*
X034165Y035206D01*
X034179Y035171D01*
X034188Y035135D01*
X034194Y035098D01*
X034196Y035061D01*
X034194Y035024D01*
X034188Y034987D01*
X034179Y034951D01*
X034165Y034916D01*
X034148Y034883D01*
X034128Y034852D01*
X034105Y034823D01*
X034078Y034796D01*
X034049Y034773D01*
X034018Y034753D01*
X033985Y034736D01*
X033950Y034722D01*
X033914Y034713D01*
X033877Y034707D01*
X033840Y034705D01*
X033803Y034707D01*
X033766Y034713D01*
X033730Y034722D01*
X033695Y034736D01*
X033662Y034753D01*
X033631Y034773D01*
X033602Y034796D01*
X033575Y034823D01*
X033552Y034852D01*
X033532Y034883D01*
X033515Y034916D01*
X033501Y034951D01*
X033492Y034987D01*
X033486Y035024D01*
X033484Y035061D01*
X024153Y030927D02*
X024155Y030964D01*
X024161Y031001D01*
X024170Y031037D01*
X024184Y031072D01*
X024201Y031105D01*
X024221Y031136D01*
X024244Y031165D01*
X024271Y031192D01*
X024300Y031215D01*
X024331Y031235D01*
X024364Y031252D01*
X024399Y031266D01*
X024435Y031275D01*
X024472Y031281D01*
X024509Y031283D01*
X024546Y031281D01*
X024583Y031275D01*
X024619Y031266D01*
X024654Y031252D01*
X024687Y031235D01*
X024718Y031215D01*
X024747Y031192D01*
X024774Y031165D01*
X024797Y031136D01*
X024817Y031105D01*
X024834Y031072D01*
X024848Y031037D01*
X024857Y031001D01*
X024863Y030964D01*
X024865Y030927D01*
X024863Y030890D01*
X024857Y030853D01*
X024848Y030817D01*
X024834Y030782D01*
X024817Y030749D01*
X024797Y030718D01*
X024774Y030689D01*
X024747Y030662D01*
X024718Y030639D01*
X024687Y030619D01*
X024654Y030602D01*
X024619Y030588D01*
X024583Y030579D01*
X024546Y030573D01*
X024509Y030571D01*
X024472Y030573D01*
X024435Y030579D01*
X024399Y030588D01*
X024364Y030602D01*
X024331Y030619D01*
X024300Y030639D01*
X024271Y030662D01*
X024244Y030689D01*
X024221Y030718D01*
X024201Y030749D01*
X024184Y030782D01*
X024170Y030817D01*
X024161Y030853D01*
X024155Y030890D01*
X024153Y030927D01*
X019901Y035061D02*
X019903Y035098D01*
X019909Y035135D01*
X019918Y035171D01*
X019932Y035206D01*
X019949Y035239D01*
X019969Y035270D01*
X019992Y035299D01*
X020019Y035326D01*
X020048Y035349D01*
X020079Y035369D01*
X020112Y035386D01*
X020147Y035400D01*
X020183Y035409D01*
X020220Y035415D01*
X020257Y035417D01*
X020294Y035415D01*
X020331Y035409D01*
X020367Y035400D01*
X020402Y035386D01*
X020435Y035369D01*
X020466Y035349D01*
X020495Y035326D01*
X020522Y035299D01*
X020545Y035270D01*
X020565Y035239D01*
X020582Y035206D01*
X020596Y035171D01*
X020605Y035135D01*
X020611Y035098D01*
X020613Y035061D01*
X020611Y035024D01*
X020605Y034987D01*
X020596Y034951D01*
X020582Y034916D01*
X020565Y034883D01*
X020545Y034852D01*
X020522Y034823D01*
X020495Y034796D01*
X020466Y034773D01*
X020435Y034753D01*
X020402Y034736D01*
X020367Y034722D01*
X020331Y034713D01*
X020294Y034707D01*
X020257Y034705D01*
X020220Y034707D01*
X020183Y034713D01*
X020147Y034722D01*
X020112Y034736D01*
X020079Y034753D01*
X020048Y034773D01*
X020019Y034796D01*
X019992Y034823D01*
X019969Y034852D01*
X019949Y034883D01*
X019932Y034916D01*
X019918Y034951D01*
X019909Y034987D01*
X019903Y035024D01*
X019901Y035061D01*
X010571Y030927D02*
X010573Y030964D01*
X010579Y031001D01*
X010588Y031037D01*
X010602Y031072D01*
X010619Y031105D01*
X010639Y031136D01*
X010662Y031165D01*
X010689Y031192D01*
X010718Y031215D01*
X010749Y031235D01*
X010782Y031252D01*
X010817Y031266D01*
X010853Y031275D01*
X010890Y031281D01*
X010927Y031283D01*
X010964Y031281D01*
X011001Y031275D01*
X011037Y031266D01*
X011072Y031252D01*
X011105Y031235D01*
X011136Y031215D01*
X011165Y031192D01*
X011192Y031165D01*
X011215Y031136D01*
X011235Y031105D01*
X011252Y031072D01*
X011266Y031037D01*
X011275Y031001D01*
X011281Y030964D01*
X011283Y030927D01*
X011281Y030890D01*
X011275Y030853D01*
X011266Y030817D01*
X011252Y030782D01*
X011235Y030749D01*
X011215Y030718D01*
X011192Y030689D01*
X011165Y030662D01*
X011136Y030639D01*
X011105Y030619D01*
X011072Y030602D01*
X011037Y030588D01*
X011001Y030579D01*
X010964Y030573D01*
X010927Y030571D01*
X010890Y030573D01*
X010853Y030579D01*
X010817Y030588D01*
X010782Y030602D01*
X010749Y030619D01*
X010718Y030639D01*
X010689Y030662D01*
X010662Y030689D01*
X010639Y030718D01*
X010619Y030749D01*
X010602Y030782D01*
X010588Y030817D01*
X010579Y030853D01*
X010573Y030890D01*
X010571Y030927D01*
X006319Y035061D02*
X006321Y035098D01*
X006327Y035135D01*
X006336Y035171D01*
X006350Y035206D01*
X006367Y035239D01*
X006387Y035270D01*
X006410Y035299D01*
X006437Y035326D01*
X006466Y035349D01*
X006497Y035369D01*
X006530Y035386D01*
X006565Y035400D01*
X006601Y035409D01*
X006638Y035415D01*
X006675Y035417D01*
X006712Y035415D01*
X006749Y035409D01*
X006785Y035400D01*
X006820Y035386D01*
X006853Y035369D01*
X006884Y035349D01*
X006913Y035326D01*
X006940Y035299D01*
X006963Y035270D01*
X006983Y035239D01*
X007000Y035206D01*
X007014Y035171D01*
X007023Y035135D01*
X007029Y035098D01*
X007031Y035061D01*
X007029Y035024D01*
X007023Y034987D01*
X007014Y034951D01*
X007000Y034916D01*
X006983Y034883D01*
X006963Y034852D01*
X006940Y034823D01*
X006913Y034796D01*
X006884Y034773D01*
X006853Y034753D01*
X006820Y034736D01*
X006785Y034722D01*
X006749Y034713D01*
X006712Y034707D01*
X006675Y034705D01*
X006638Y034707D01*
X006601Y034713D01*
X006565Y034722D01*
X006530Y034736D01*
X006497Y034753D01*
X006466Y034773D01*
X006437Y034796D01*
X006410Y034823D01*
X006387Y034852D01*
X006367Y034883D01*
X006350Y034916D01*
X006336Y034951D01*
X006327Y034987D01*
X006321Y035024D01*
X006319Y035061D01*
X000728Y047698D02*
X000730Y047735D01*
X000736Y047772D01*
X000745Y047808D01*
X000759Y047843D01*
X000776Y047876D01*
X000796Y047907D01*
X000819Y047936D01*
X000846Y047963D01*
X000875Y047986D01*
X000906Y048006D01*
X000939Y048023D01*
X000974Y048037D01*
X001010Y048046D01*
X001047Y048052D01*
X001084Y048054D01*
X001121Y048052D01*
X001158Y048046D01*
X001194Y048037D01*
X001229Y048023D01*
X001262Y048006D01*
X001293Y047986D01*
X001322Y047963D01*
X001349Y047936D01*
X001372Y047907D01*
X001392Y047876D01*
X001409Y047843D01*
X001423Y047808D01*
X001432Y047772D01*
X001438Y047735D01*
X001440Y047698D01*
X001438Y047661D01*
X001432Y047624D01*
X001423Y047588D01*
X001409Y047553D01*
X001392Y047520D01*
X001372Y047489D01*
X001349Y047460D01*
X001322Y047433D01*
X001293Y047410D01*
X001262Y047390D01*
X001229Y047373D01*
X001194Y047359D01*
X001158Y047350D01*
X001121Y047344D01*
X001084Y047342D01*
X001047Y047344D01*
X001010Y047350D01*
X000974Y047359D01*
X000939Y047373D01*
X000906Y047390D01*
X000875Y047410D01*
X000846Y047433D01*
X000819Y047460D01*
X000796Y047489D01*
X000776Y047520D01*
X000759Y047553D01*
X000745Y047588D01*
X000736Y047624D01*
X000730Y047661D01*
X000728Y047698D01*
X006319Y012738D02*
X006321Y012775D01*
X006327Y012812D01*
X006336Y012848D01*
X006350Y012883D01*
X006367Y012916D01*
X006387Y012947D01*
X006410Y012976D01*
X006437Y013003D01*
X006466Y013026D01*
X006497Y013046D01*
X006530Y013063D01*
X006565Y013077D01*
X006601Y013086D01*
X006638Y013092D01*
X006675Y013094D01*
X006712Y013092D01*
X006749Y013086D01*
X006785Y013077D01*
X006820Y013063D01*
X006853Y013046D01*
X006884Y013026D01*
X006913Y013003D01*
X006940Y012976D01*
X006963Y012947D01*
X006983Y012916D01*
X007000Y012883D01*
X007014Y012848D01*
X007023Y012812D01*
X007029Y012775D01*
X007031Y012738D01*
X007029Y012701D01*
X007023Y012664D01*
X007014Y012628D01*
X007000Y012593D01*
X006983Y012560D01*
X006963Y012529D01*
X006940Y012500D01*
X006913Y012473D01*
X006884Y012450D01*
X006853Y012430D01*
X006820Y012413D01*
X006785Y012399D01*
X006749Y012390D01*
X006712Y012384D01*
X006675Y012382D01*
X006638Y012384D01*
X006601Y012390D01*
X006565Y012399D01*
X006530Y012413D01*
X006497Y012430D01*
X006466Y012450D01*
X006437Y012473D01*
X006410Y012500D01*
X006387Y012529D01*
X006367Y012560D01*
X006350Y012593D01*
X006336Y012628D01*
X006327Y012664D01*
X006321Y012701D01*
X006319Y012738D01*
X010571Y008604D02*
X010573Y008641D01*
X010579Y008678D01*
X010588Y008714D01*
X010602Y008749D01*
X010619Y008782D01*
X010639Y008813D01*
X010662Y008842D01*
X010689Y008869D01*
X010718Y008892D01*
X010749Y008912D01*
X010782Y008929D01*
X010817Y008943D01*
X010853Y008952D01*
X010890Y008958D01*
X010927Y008960D01*
X010964Y008958D01*
X011001Y008952D01*
X011037Y008943D01*
X011072Y008929D01*
X011105Y008912D01*
X011136Y008892D01*
X011165Y008869D01*
X011192Y008842D01*
X011215Y008813D01*
X011235Y008782D01*
X011252Y008749D01*
X011266Y008714D01*
X011275Y008678D01*
X011281Y008641D01*
X011283Y008604D01*
X011281Y008567D01*
X011275Y008530D01*
X011266Y008494D01*
X011252Y008459D01*
X011235Y008426D01*
X011215Y008395D01*
X011192Y008366D01*
X011165Y008339D01*
X011136Y008316D01*
X011105Y008296D01*
X011072Y008279D01*
X011037Y008265D01*
X011001Y008256D01*
X010964Y008250D01*
X010927Y008248D01*
X010890Y008250D01*
X010853Y008256D01*
X010817Y008265D01*
X010782Y008279D01*
X010749Y008296D01*
X010718Y008316D01*
X010689Y008339D01*
X010662Y008366D01*
X010639Y008395D01*
X010619Y008426D01*
X010602Y008459D01*
X010588Y008494D01*
X010579Y008530D01*
X010573Y008567D01*
X010571Y008604D01*
X019901Y012738D02*
X019903Y012775D01*
X019909Y012812D01*
X019918Y012848D01*
X019932Y012883D01*
X019949Y012916D01*
X019969Y012947D01*
X019992Y012976D01*
X020019Y013003D01*
X020048Y013026D01*
X020079Y013046D01*
X020112Y013063D01*
X020147Y013077D01*
X020183Y013086D01*
X020220Y013092D01*
X020257Y013094D01*
X020294Y013092D01*
X020331Y013086D01*
X020367Y013077D01*
X020402Y013063D01*
X020435Y013046D01*
X020466Y013026D01*
X020495Y013003D01*
X020522Y012976D01*
X020545Y012947D01*
X020565Y012916D01*
X020582Y012883D01*
X020596Y012848D01*
X020605Y012812D01*
X020611Y012775D01*
X020613Y012738D01*
X020611Y012701D01*
X020605Y012664D01*
X020596Y012628D01*
X020582Y012593D01*
X020565Y012560D01*
X020545Y012529D01*
X020522Y012500D01*
X020495Y012473D01*
X020466Y012450D01*
X020435Y012430D01*
X020402Y012413D01*
X020367Y012399D01*
X020331Y012390D01*
X020294Y012384D01*
X020257Y012382D01*
X020220Y012384D01*
X020183Y012390D01*
X020147Y012399D01*
X020112Y012413D01*
X020079Y012430D01*
X020048Y012450D01*
X020019Y012473D01*
X019992Y012500D01*
X019969Y012529D01*
X019949Y012560D01*
X019932Y012593D01*
X019918Y012628D01*
X019909Y012664D01*
X019903Y012701D01*
X019901Y012738D01*
X024153Y008604D02*
X024155Y008641D01*
X024161Y008678D01*
X024170Y008714D01*
X024184Y008749D01*
X024201Y008782D01*
X024221Y008813D01*
X024244Y008842D01*
X024271Y008869D01*
X024300Y008892D01*
X024331Y008912D01*
X024364Y008929D01*
X024399Y008943D01*
X024435Y008952D01*
X024472Y008958D01*
X024509Y008960D01*
X024546Y008958D01*
X024583Y008952D01*
X024619Y008943D01*
X024654Y008929D01*
X024687Y008912D01*
X024718Y008892D01*
X024747Y008869D01*
X024774Y008842D01*
X024797Y008813D01*
X024817Y008782D01*
X024834Y008749D01*
X024848Y008714D01*
X024857Y008678D01*
X024863Y008641D01*
X024865Y008604D01*
X024863Y008567D01*
X024857Y008530D01*
X024848Y008494D01*
X024834Y008459D01*
X024817Y008426D01*
X024797Y008395D01*
X024774Y008366D01*
X024747Y008339D01*
X024718Y008316D01*
X024687Y008296D01*
X024654Y008279D01*
X024619Y008265D01*
X024583Y008256D01*
X024546Y008250D01*
X024509Y008248D01*
X024472Y008250D01*
X024435Y008256D01*
X024399Y008265D01*
X024364Y008279D01*
X024331Y008296D01*
X024300Y008316D01*
X024271Y008339D01*
X024244Y008366D01*
X024221Y008395D01*
X024201Y008426D01*
X024184Y008459D01*
X024170Y008494D01*
X024161Y008530D01*
X024155Y008567D01*
X024153Y008604D01*
X033484Y012738D02*
X033486Y012775D01*
X033492Y012812D01*
X033501Y012848D01*
X033515Y012883D01*
X033532Y012916D01*
X033552Y012947D01*
X033575Y012976D01*
X033602Y013003D01*
X033631Y013026D01*
X033662Y013046D01*
X033695Y013063D01*
X033730Y013077D01*
X033766Y013086D01*
X033803Y013092D01*
X033840Y013094D01*
X033877Y013092D01*
X033914Y013086D01*
X033950Y013077D01*
X033985Y013063D01*
X034018Y013046D01*
X034049Y013026D01*
X034078Y013003D01*
X034105Y012976D01*
X034128Y012947D01*
X034148Y012916D01*
X034165Y012883D01*
X034179Y012848D01*
X034188Y012812D01*
X034194Y012775D01*
X034196Y012738D01*
X034194Y012701D01*
X034188Y012664D01*
X034179Y012628D01*
X034165Y012593D01*
X034148Y012560D01*
X034128Y012529D01*
X034105Y012500D01*
X034078Y012473D01*
X034049Y012450D01*
X034018Y012430D01*
X033985Y012413D01*
X033950Y012399D01*
X033914Y012390D01*
X033877Y012384D01*
X033840Y012382D01*
X033803Y012384D01*
X033766Y012390D01*
X033730Y012399D01*
X033695Y012413D01*
X033662Y012430D01*
X033631Y012450D01*
X033602Y012473D01*
X033575Y012500D01*
X033552Y012529D01*
X033532Y012560D01*
X033515Y012593D01*
X033501Y012628D01*
X033492Y012664D01*
X033486Y012701D01*
X033484Y012738D01*
X037736Y008604D02*
X037738Y008641D01*
X037744Y008678D01*
X037753Y008714D01*
X037767Y008749D01*
X037784Y008782D01*
X037804Y008813D01*
X037827Y008842D01*
X037854Y008869D01*
X037883Y008892D01*
X037914Y008912D01*
X037947Y008929D01*
X037982Y008943D01*
X038018Y008952D01*
X038055Y008958D01*
X038092Y008960D01*
X038129Y008958D01*
X038166Y008952D01*
X038202Y008943D01*
X038237Y008929D01*
X038270Y008912D01*
X038301Y008892D01*
X038330Y008869D01*
X038357Y008842D01*
X038380Y008813D01*
X038400Y008782D01*
X038417Y008749D01*
X038431Y008714D01*
X038440Y008678D01*
X038446Y008641D01*
X038448Y008604D01*
X038446Y008567D01*
X038440Y008530D01*
X038431Y008494D01*
X038417Y008459D01*
X038400Y008426D01*
X038380Y008395D01*
X038357Y008366D01*
X038330Y008339D01*
X038301Y008316D01*
X038270Y008296D01*
X038237Y008279D01*
X038202Y008265D01*
X038166Y008256D01*
X038129Y008250D01*
X038092Y008248D01*
X038055Y008250D01*
X038018Y008256D01*
X037982Y008265D01*
X037947Y008279D01*
X037914Y008296D01*
X037883Y008316D01*
X037854Y008339D01*
X037827Y008366D01*
X037804Y008395D01*
X037784Y008426D01*
X037767Y008459D01*
X037753Y008494D01*
X037744Y008530D01*
X037738Y008567D01*
X037736Y008604D01*
X043445Y001084D02*
X043447Y001121D01*
X043453Y001158D01*
X043462Y001194D01*
X043476Y001229D01*
X043493Y001262D01*
X043513Y001293D01*
X043536Y001322D01*
X043563Y001349D01*
X043592Y001372D01*
X043623Y001392D01*
X043656Y001409D01*
X043691Y001423D01*
X043727Y001432D01*
X043764Y001438D01*
X043801Y001440D01*
X043838Y001438D01*
X043875Y001432D01*
X043911Y001423D01*
X043946Y001409D01*
X043979Y001392D01*
X044010Y001372D01*
X044039Y001349D01*
X044066Y001322D01*
X044089Y001293D01*
X044109Y001262D01*
X044126Y001229D01*
X044140Y001194D01*
X044149Y001158D01*
X044155Y001121D01*
X044157Y001084D01*
X044155Y001047D01*
X044149Y001010D01*
X044140Y000974D01*
X044126Y000939D01*
X044109Y000906D01*
X044089Y000875D01*
X044066Y000846D01*
X044039Y000819D01*
X044010Y000796D01*
X043979Y000776D01*
X043946Y000759D01*
X043911Y000745D01*
X043875Y000736D01*
X043838Y000730D01*
X043801Y000728D01*
X043764Y000730D01*
X043727Y000736D01*
X043691Y000745D01*
X043656Y000759D01*
X043623Y000776D01*
X043592Y000796D01*
X043563Y000819D01*
X043536Y000846D01*
X043513Y000875D01*
X043493Y000906D01*
X043476Y000939D01*
X043462Y000974D01*
X043453Y001010D01*
X043447Y001047D01*
X043445Y001084D01*
X000728Y001084D02*
X000730Y001121D01*
X000736Y001158D01*
X000745Y001194D01*
X000759Y001229D01*
X000776Y001262D01*
X000796Y001293D01*
X000819Y001322D01*
X000846Y001349D01*
X000875Y001372D01*
X000906Y001392D01*
X000939Y001409D01*
X000974Y001423D01*
X001010Y001432D01*
X001047Y001438D01*
X001084Y001440D01*
X001121Y001438D01*
X001158Y001432D01*
X001194Y001423D01*
X001229Y001409D01*
X001262Y001392D01*
X001293Y001372D01*
X001322Y001349D01*
X001349Y001322D01*
X001372Y001293D01*
X001392Y001262D01*
X001409Y001229D01*
X001423Y001194D01*
X001432Y001158D01*
X001438Y001121D01*
X001440Y001084D01*
X001438Y001047D01*
X001432Y001010D01*
X001423Y000974D01*
X001409Y000939D01*
X001392Y000906D01*
X001372Y000875D01*
X001349Y000846D01*
X001322Y000819D01*
X001293Y000796D01*
X001262Y000776D01*
X001229Y000759D01*
X001194Y000745D01*
X001158Y000736D01*
X001121Y000730D01*
X001084Y000728D01*
X001047Y000730D01*
X001010Y000736D01*
X000974Y000745D01*
X000939Y000759D01*
X000906Y000776D01*
X000875Y000796D01*
X000846Y000819D01*
X000819Y000846D01*
X000796Y000875D01*
X000776Y000906D01*
X000759Y000939D01*
X000745Y000974D01*
X000736Y001010D01*
X000730Y001047D01*
X000728Y001084D01*
D50*
X008722Y012383D03*
X022305Y012383D03*
X035887Y012383D03*
X035887Y034706D03*
X022305Y034706D03*
X008722Y034706D03*
M02*
