%
M48
M72
T01C0.0118
T02C0.0236
T03C0.0315
T04C0.0320
T05C0.0394
T06C0.0400
T07C0.0787
T08C0.2362
%
T01
X2110Y14751
X2425Y14751
X2740Y14751
X3094Y14160
X3409Y14160
X3724Y14160
X4039Y14160
X5181Y15184
X5181Y15499
X4748Y16483
X5220Y16759
X5575Y17389
X5929Y18097
X6401Y18176
X6401Y17270
X6401Y16956
X6401Y16641
X6677Y16798
X6677Y17113
X7622Y18452
X8331Y17861
X8331Y17428
X8567Y15735
X7464Y15302
X6677Y15223
X6736Y14849
X6323Y14534
X6559Y14200
X6913Y14200
X6008Y14160
X5850Y13176
X7189Y12743
X8567Y12664
X8527Y11798
X9000Y11798
X9433Y12074
X9787Y13176
X10437Y13648
X10772Y13767
X11106Y13648
X11716Y13412
X11027Y12605
X10732Y11168
X10496Y10026
X9709Y10026
X10299Y7625
X10299Y6995
X10378Y4396
X9551Y3845
X9197Y3963
X9177Y3589
X8803Y3924
X8311Y4180
X8488Y4751
X8016Y4830
X7543Y4830
X6835Y3885
X6520Y3648
X6362Y4475
X5772Y4436
X5338Y4436
X4866Y4751
X4335Y4613
X4335Y5361
X4335Y5952
X4335Y6700
X4374Y8038
X4374Y9377
X4374Y10715
X3252Y7231
X2425Y6995
X3252Y5893
X2425Y5656
X1933Y4357
X2917Y2979
X2917Y1444
X1933Y1601
X4905Y2526
X5260Y2467
X5890Y2999
X5338Y3333
X4905Y3432
X5732Y1404
X6165Y1326
X6520Y1680
X6598Y1995
X6874Y1483
X6992Y1129
X7425Y2507
X7425Y2900
X7819Y2900
X7819Y2507
X8212Y2507
X8212Y2900
X8212Y3294
X7819Y3294
X7425Y3294
X8803Y1916
X10181Y2704
X10811Y1759
X11126Y1089
X12110Y1286
X12976Y1877
X12110Y2802
X12701Y5971
X12346Y7743
X12464Y9869
X11756Y9869
X12110Y11877
X13094Y12861
X13094Y15578
X13291Y17861
X12031Y18727
X11520Y18078
X11520Y17743
X11520Y17408
X10299Y17487
X10378Y17999
X9394Y18845
X9787Y19711
X10968Y21404
X11362Y21404
X12110Y19869
X12661Y19987
X13212Y19948
X13331Y21483
X12937Y21483
X8961Y21877
X8488Y21877
X8016Y21877
X8370Y19475
X5811Y19869
X5220Y19436
X6008Y15578
X6677Y15578
X10693Y15066
X7386Y9081
X7445Y8530
X7937Y7940
X8331Y5971
X6677Y5912
X5417Y5912
X5102Y1326
X1835Y8452
X1835Y9790
X1835Y11089
T02
X1283Y15971
X3252Y15971
X7051Y16389
X7051Y17389
X7051Y18389
T03
X1086Y2479
X1086Y3479
X10705Y3700
X12097Y5092
X7138Y22192
X6138Y22192
T04
X5097Y5263
X6997Y5263
T05
X1086Y4987
X1086Y6326
X1086Y7664
X1086Y9003
X1086Y10341
X1086Y11483
X1086Y12546
T06
X13212Y10806
X13212Y9806
X13212Y8806
X13212Y7806
X13212Y6806
T07
X850Y1207
X4984Y9160
X4984Y12704
X10496Y19396
X4984Y22270
X13252Y1207
T08
X6913Y10932
M30
