%
M48
M72
T01C0.0118
T02C0.0236
T03C0.0315
T04C0.0320
T05C0.0394
T06C0.0400
T07C0.0787
T08C0.2362
%
T01
X28722Y45257
X28328Y45257
X28053Y43761
X28604Y43722
X27502Y43643
X27423Y42502
X26911Y41852
X26911Y41517
X26911Y41183
X25691Y41261
X25769Y41773
X24785Y42620
X25179Y43486
X23761Y43250
X23013Y42226
X23722Y41635
X23722Y41202
X22069Y40887
X22069Y40572
X21793Y40415
X21793Y40730
X21793Y41045
X21793Y41950
X21320Y41872
X20966Y41163
X20612Y40533
X20139Y40257
X20572Y39273
X20572Y38958
X21399Y39352
X22069Y39352
X22069Y38998
X22128Y38624
X21714Y38309
X21950Y37974
X22305Y37974
X21399Y37935
X21242Y36950
X22580Y36517
X23958Y36439
X23919Y35572
X24391Y35572
X24824Y35848
X25179Y36950
X25828Y37423
X26163Y37541
X26498Y37423
X27108Y37187
X26419Y36380
X27502Y35651
X28486Y36635
X28486Y39352
X28683Y41635
X26084Y38840
X23958Y39509
X22856Y39076
X19431Y37935
X19116Y37935
X18801Y37935
X18486Y37935
X18131Y38525
X17817Y38525
X17502Y38525
X14903Y39352
X13328Y41183
X13328Y41517
X13328Y41852
X13840Y42502
X13919Y43643
X14470Y43761
X15021Y43722
X15139Y45257
X14746Y45257
X13171Y45179
X12777Y45179
X11596Y43486
X11202Y42620
X10179Y43250
X9431Y42226
X10139Y41635
X10139Y41202
X8486Y40887
X8486Y40572
X8210Y40415
X8210Y40730
X8210Y41045
X8210Y41950
X7738Y41872
X7383Y41163
X7029Y40533
X6557Y40257
X15100Y41635
X12187Y41773
X12108Y41261
X10376Y39509
X9273Y39076
X8545Y38624
X8486Y38998
X8486Y39352
X7817Y39352
X6990Y39273
X6990Y38958
X7817Y37935
X8131Y38309
X8368Y37974
X8722Y37974
X7659Y36950
X8998Y36517
X10376Y36439
X10336Y35572
X10809Y35572
X11242Y35848
X11596Y36950
X12246Y37423
X12580Y37541
X12915Y37423
X13525Y37187
X12836Y36380
X13919Y35651
X14903Y36635
X17226Y34864
X17226Y33565
X17226Y32226
X17817Y30769
X18643Y31006
X19726Y30474
X19726Y29726
X19726Y29135
X19726Y28387
X20257Y28525
X20730Y28210
X21163Y28210
X21754Y28250
X22226Y27659
X21911Y27423
X21281Y26773
X20730Y27108
X20297Y27206
X20297Y26301
X20651Y26242
X20494Y25100
X21124Y25179
X21557Y25100
X21911Y25454
X21990Y25769
X22265Y25257
X22383Y24903
X22817Y26281
X23210Y26281
X23210Y26675
X22817Y26675
X22817Y27069
X23210Y27069
X23604Y27069
X23604Y26675
X23604Y26281
X24194Y25691
X25572Y26478
X26202Y25533
X26517Y24864
X27502Y25061
X28368Y25651
X4549Y38525
X4234Y38525
X3919Y38525
X4903Y37935
X5218Y37935
X5533Y37935
X5848Y37935
X3643Y34864
X3643Y33565
X3643Y32226
X4234Y30769
X5061Y31006
X6143Y30474
X6143Y29726
X6143Y29135
X6143Y28387
X6675Y28525
X7147Y28210
X7580Y28210
X8171Y28250
X8643Y27659
X8328Y27423
X7698Y26773
X7147Y27108
X6714Y27206
X6714Y26301
X7069Y26242
X6911Y25100
X7541Y25179
X7974Y25100
X8328Y25454
X8407Y25769
X8683Y25257
X8801Y24903
X9234Y26281
X9628Y26281
X10021Y26281
X10021Y26675
X9628Y26675
X9628Y27069
X10021Y27069
X10612Y27698
X11006Y27738
X11360Y27620
X10986Y27364
X10120Y27954
X10297Y28525
X9824Y28604
X9352Y28604
X8486Y29687
X7226Y29687
X5061Y29667
X4234Y29431
X3742Y28131
X4726Y26754
X3742Y25376
X4726Y25218
X30907Y25376
X31891Y25218
X31891Y26754
X30907Y28131
X31399Y29431
X32226Y29667
X33309Y29726
X33309Y29135
X33309Y28387
X33840Y28525
X34313Y28210
X34746Y28210
X35336Y28250
X35809Y27659
X35494Y27423
X34864Y26773
X34313Y27108
X33880Y27206
X33880Y26301
X34234Y26242
X34076Y25100
X34706Y25179
X35139Y25100
X35494Y25454
X35572Y25769
X35848Y25257
X35966Y24903
X36399Y26281
X36399Y26675
X36399Y27069
X36793Y27069
X37187Y27069
X37187Y26675
X37187Y26281
X36793Y26281
X36793Y26675
X37285Y27954
X37777Y27698
X38171Y27738
X38525Y27620
X38151Y27364
X37462Y28525
X36990Y28604
X36517Y28604
X35651Y29687
X34391Y29687
X33309Y30474
X32226Y31006
X31399Y30769
X30809Y32226
X30809Y33565
X30809Y34864
X33348Y34490
X33348Y33151
X33348Y31813
X36419Y32305
X36360Y32856
X36911Y31714
X38683Y33801
X39470Y33801
X39706Y34943
X40002Y36380
X40080Y37423
X39746Y37541
X39411Y37423
X38761Y36950
X38407Y35848
X37974Y35572
X37502Y35572
X37541Y36439
X36163Y36517
X34824Y36950
X34982Y37935
X35297Y38309
X35533Y37974
X35887Y37974
X35710Y38624
X35651Y38998
X35651Y39352
X34982Y39352
X34155Y39273
X34155Y38958
X33722Y40257
X34194Y40533
X34549Y41163
X34903Y41872
X35376Y41950
X35376Y41045
X35376Y40730
X35376Y40415
X35651Y40572
X35651Y40887
X36596Y42226
X37305Y41635
X37305Y41202
X38368Y42620
X38761Y43486
X39352Y41773
X39273Y41261
X40494Y41183
X40494Y41517
X40494Y41852
X41006Y42502
X41084Y43643
X41635Y43761
X42187Y43722
X42305Y45257
X41911Y45257
X40336Y45179
X39943Y45179
X37935Y45651
X37462Y45651
X36990Y45651
X37344Y43250
X34785Y43643
X34194Y43210
X36439Y39076
X37541Y39509
X39667Y38840
X40691Y37187
X42069Y36635
X41084Y35651
X40730Y33643
X41439Y33643
X41320Y31517
X41675Y29746
X39273Y30769
X39273Y31399
X37305Y29746
X39352Y28171
X39155Y26478
X39785Y25533
X40100Y24864
X41084Y25061
X41950Y25651
X41084Y26576
X37777Y25691
X37935Y23328
X37462Y23328
X36990Y23328
X38761Y21163
X38368Y20297
X37344Y20927
X36596Y19903
X37305Y19313
X37305Y18880
X37541Y17187
X36439Y16754
X35651Y16675
X35651Y17029
X35710Y16301
X35297Y15986
X35533Y15651
X35887Y15651
X34982Y15612
X34155Y16635
X34155Y16950
X34982Y17029
X33722Y17935
X34194Y18210
X34549Y18840
X34903Y19549
X35376Y19628
X35376Y18722
X35376Y18407
X35376Y18092
X35651Y18250
X35651Y18565
X34194Y20887
X34785Y21320
X28722Y22935
X28328Y22935
X28053Y21439
X28604Y21399
X27502Y21320
X27423Y20179
X26911Y19529
X26911Y19194
X26911Y18860
X25691Y18939
X25769Y19450
X24785Y20297
X25179Y21163
X23761Y20927
X23013Y19903
X23722Y19313
X23722Y18880
X22069Y18565
X22069Y18250
X21793Y18407
X21793Y18092
X21793Y18722
X20966Y18840
X20612Y18210
X20139Y17935
X20572Y16950
X20572Y16635
X21399Y17029
X22069Y17029
X22069Y16675
X22128Y16301
X21714Y15986
X21950Y15651
X22305Y15651
X21399Y15612
X21242Y14628
X22580Y14194
X23958Y14116
X23919Y13250
X24391Y13250
X24824Y13525
X25179Y14628
X25828Y15100
X26163Y15218
X26498Y15100
X27108Y14864
X26419Y14057
X27502Y13328
X28486Y14313
X28486Y17029
X28683Y19313
X26084Y16517
X23958Y17187
X22856Y16754
X21793Y19628
X21320Y19549
X20612Y20887
X21202Y21320
X18309Y25218
X17324Y25376
X14785Y3328
X13919Y2738
X12935Y2541
X12620Y3210
X11990Y4155
X11360Y5297
X11006Y5415
X10986Y5041
X10612Y5376
X10120Y5631
X10297Y6202
X9824Y6281
X9352Y6281
X8643Y5336
X8328Y5100
X7698Y4450
X7147Y4785
X6714Y4883
X6714Y3978
X7069Y3919
X6911Y2777
X7541Y2856
X7974Y2777
X8328Y3131
X8407Y3446
X8683Y2935
X8801Y2580
X9234Y3958
X9628Y3958
X10021Y3958
X10021Y4352
X9628Y4352
X9628Y4746
X10021Y4746
X9234Y4746
X9234Y4352
X10612Y3368
X12187Y5848
X13919Y4254
X17324Y3053
X18309Y2895
X18309Y4431
X17324Y5809
X17817Y7108
X18643Y7344
X19726Y7403
X19726Y8151
X18643Y8683
X17817Y8446
X17226Y9903
X17226Y11242
X17226Y12541
X14903Y14313
X13919Y13328
X12836Y14057
X12915Y15100
X12580Y15218
X12246Y15100
X11596Y14628
X11242Y13525
X10809Y13250
X10336Y13250
X10376Y14116
X8998Y14194
X7659Y14628
X7817Y15612
X8131Y15986
X8368Y15651
X8722Y15651
X8545Y16301
X8486Y16675
X8486Y17029
X7817Y17029
X6990Y16950
X6990Y16635
X6557Y17935
X7029Y18210
X7383Y18840
X7738Y19549
X8210Y19628
X8210Y18722
X8210Y18407
X8210Y18092
X8486Y18250
X8486Y18565
X9431Y19903
X10139Y19313
X10139Y18880
X10376Y17187
X9273Y16754
X12108Y18939
X12187Y19450
X13328Y19529
X13328Y19194
X13328Y18860
X13840Y20179
X13919Y21320
X14470Y21439
X15021Y21399
X15139Y22935
X14746Y22935
X13171Y22856
X12777Y22856
X11596Y21163
X11202Y20297
X10179Y20927
X10297Y23328
X10769Y23328
X9824Y23328
X10612Y25691
X11990Y26478
X12620Y25533
X12935Y24864
X13919Y25061
X14785Y25651
X7620Y21320
X7029Y20887
X4549Y16202
X4234Y16202
X3919Y16202
X4903Y15612
X5218Y15612
X5533Y15612
X5848Y15612
X3643Y12541
X3643Y11242
X3643Y9903
X4234Y8446
X5061Y8683
X6143Y8151
X6143Y7403
X6143Y6813
X6143Y6065
X6675Y6202
X7147Y5887
X7580Y5887
X8171Y5927
X8486Y7364
X7226Y7364
X6183Y9490
X6183Y10828
X6183Y12167
X9194Y10533
X9254Y9982
X9746Y9391
X10139Y7423
X12108Y8446
X12108Y9076
X14155Y9194
X14509Y7423
X14273Y11320
X13565Y11320
X12305Y11478
X11517Y11478
X12541Y12620
X13525Y14864
X12502Y16517
X14903Y17029
X15100Y19313
X17502Y16202
X17817Y16202
X18131Y16202
X18486Y15612
X18801Y15612
X19116Y15612
X19431Y15612
X19765Y12167
X19765Y10828
X19765Y9490
X20809Y7364
X19726Y6813
X19726Y6065
X20257Y6202
X20730Y5887
X21163Y5887
X21754Y5927
X22226Y5336
X21911Y5100
X21281Y4450
X20730Y4785
X20297Y4883
X20297Y3978
X20651Y3919
X21990Y3446
X21911Y3131
X22265Y2935
X22383Y2580
X21557Y2777
X21124Y2856
X20494Y2777
X22817Y3958
X23210Y3958
X23604Y3958
X23604Y4352
X23604Y4746
X23210Y4746
X22817Y4746
X22817Y4352
X23210Y4352
X24194Y3368
X25572Y4155
X26202Y3210
X26517Y2541
X27502Y2738
X28368Y3328
X27502Y4254
X25769Y5848
X24943Y5297
X24588Y5415
X24569Y5041
X24194Y5376
X23702Y5631
X23880Y6202
X23407Y6281
X22935Y6281
X22069Y7364
X23722Y7423
X23328Y9391
X22836Y9982
X22777Y10533
X25100Y11478
X25887Y11478
X26124Y12620
X27147Y11320
X27856Y11320
X27738Y9194
X28092Y7423
X25691Y8446
X25691Y9076
X30809Y9903
X30809Y11242
X30809Y12541
X33348Y12167
X33348Y10828
X33348Y9490
X33309Y8151
X33309Y7403
X33309Y6813
X33309Y6065
X33840Y6202
X34313Y5887
X34746Y5887
X35336Y5927
X35809Y5336
X35494Y5100
X34864Y4450
X34313Y4785
X33880Y4883
X33880Y3978
X34234Y3919
X34076Y2777
X34706Y2856
X35139Y2777
X35494Y3131
X35572Y3446
X35848Y2935
X35966Y2580
X36399Y3958
X36793Y3958
X37187Y3958
X37187Y4352
X37187Y4746
X36793Y4746
X36399Y4746
X36399Y4352
X36793Y4352
X37285Y5631
X37777Y5376
X38171Y5415
X38525Y5297
X38151Y5041
X37462Y6202
X36990Y6281
X36517Y6281
X35651Y7364
X34391Y7364
X32226Y7344
X31399Y7108
X31399Y8446
X32226Y8683
X30907Y5809
X31891Y4431
X30907Y3053
X42305Y22935
X41911Y22935
X41635Y21439
X42187Y21399
X41084Y21320
X41006Y20179
X40494Y19529
X40494Y19194
X40494Y18860
X39273Y18939
X39352Y19450
X39667Y16517
X39746Y15218
X40080Y15100
X40691Y14864
X40002Y14057
X39411Y15100
X38761Y14628
X38407Y13525
X37974Y13250
X37502Y13250
X37541Y14116
X36163Y14194
X34824Y14628
X33013Y15612
X32698Y15612
X32383Y15612
X32069Y15612
X31714Y16202
X31399Y16202
X31084Y16202
X36360Y10533
X36419Y9982
X36911Y9391
X37305Y7423
X39273Y8446
X39273Y9076
X41320Y9194
X41675Y7423
X39352Y5848
X39155Y4155
X39785Y3210
X40100Y2541
X41084Y2738
X41950Y3328
X41084Y4254
X37777Y3368
X31891Y2895
X38683Y11478
X39470Y11478
X39706Y12620
X40730Y11320
X41439Y11320
X41084Y13328
X42069Y14313
X42069Y17029
X42265Y19313
X40336Y22856
X39943Y22856
X28092Y29746
X27738Y31517
X25691Y31399
X25691Y30769
X23722Y29746
X23407Y28604
X22935Y28604
X23702Y27954
X24194Y27698
X24588Y27738
X24943Y27620
X24569Y27364
X23880Y28525
X25769Y28171
X27502Y26576
X24352Y23328
X23880Y23328
X23407Y23328
X26360Y22856
X26754Y22856
X22069Y29687
X20809Y29687
X18643Y29667
X17817Y29431
X17324Y28131
X18309Y26754
X14509Y29746
X14155Y31517
X14273Y33643
X13565Y33643
X12305Y33801
X11517Y33801
X12541Y34943
X9746Y31714
X9254Y32305
X9194Y32856
X6183Y33151
X6183Y31813
X6183Y34490
X10139Y29746
X12108Y30769
X12108Y31399
X12187Y28171
X13919Y26576
X9234Y26675
X9234Y27069
X3742Y3053
X4726Y2895
X4726Y4431
X3742Y5809
X4234Y7108
X5061Y7344
X19765Y31813
X19765Y33151
X19765Y34490
X22777Y32856
X22836Y32305
X23328Y31714
X25100Y33801
X25887Y33801
X26124Y34943
X27147Y33643
X27856Y33643
X32069Y37935
X32383Y37935
X32698Y37935
X33013Y37935
X31714Y38525
X31399Y38525
X31084Y38525
X26754Y45179
X26360Y45179
X24352Y45651
X23880Y45651
X23407Y45651
X21202Y43643
X20612Y43210
X12502Y38840
X7620Y43643
X7029Y43210
X9824Y45651
X10297Y45651
X10769Y45651
X42069Y39352
X42265Y41635
T02
X36025Y42163
X36025Y41163
X36025Y40163
X32226Y39746
X30257Y39746
X22443Y42163
X22443Y41163
X22443Y40163
X18643Y39746
X16675Y39746
X8860Y42163
X8860Y41163
X8860Y40163
X5061Y39746
X3092Y39746
X5061Y17423
X3092Y17423
X8860Y17840
X8860Y18840
X8860Y19840
X18643Y17423
X16675Y17423
X22443Y17840
X22443Y18840
X22443Y19840
X36025Y19840
X36025Y18840
X36025Y17840
X32226Y17423
X30257Y17423
T03
X35112Y45966
X36112Y45966
X30061Y27254
X30061Y26254
X8946Y45966
X7946Y45966
X2895Y27254
X2895Y26254
X26097Y27475
X27489Y28867
X22529Y23643
X21529Y23643
X16478Y26254
X16478Y27254
X13906Y28867
X12514Y27475
X8946Y23643
X7946Y23643
X2895Y4931
X2895Y3931
X16478Y3931
X16478Y4931
X13906Y6544
X12514Y5152
X26097Y5152
X27489Y6544
X30061Y4931
X30061Y3931
X39680Y27475
X41072Y28867
X36112Y23643
X35112Y23643
X39680Y5152
X41072Y6544
X22529Y45966
X21529Y45966
T04
X34071Y29037
X35971Y29037
X6906Y29037
X8806Y29037
X20489Y6714
X22389Y6714
X34071Y6714
X35971Y6714
X22389Y29037
X20489Y29037
X6906Y6714
X8806Y6714
T05
X30061Y36320
X30061Y35257
X30061Y34116
X30061Y32777
X30061Y31439
X30061Y30100
X30061Y28761
X2895Y36320
X2895Y35257
X2895Y34116
X2895Y32777
X2895Y31439
X2895Y30100
X2895Y28761
X16478Y28761
X16478Y30100
X16478Y31439
X16478Y32777
X16478Y34116
X16478Y35257
X16478Y36320
X16478Y13998
X16478Y12935
X16478Y11793
X16478Y10454
X16478Y9116
X16478Y7777
X16478Y6439
X2895Y6439
X2895Y7777
X2895Y9116
X2895Y10454
X2895Y11793
X2895Y12935
X2895Y13998
X30061Y13998
X30061Y12935
X30061Y11793
X30061Y10454
X30061Y9116
X30061Y7777
X30061Y6439
T06
X42187Y34580
X42187Y33580
X42187Y32580
X42187Y31580
X42187Y30580
X28604Y8257
X28604Y9257
X28604Y10257
X28604Y11257
X28604Y12257
X42187Y10257
X42187Y11257
X42187Y12257
X42187Y9257
X42187Y8257
X15021Y10257
X15021Y11257
X15021Y12257
X15021Y9257
X15021Y8257
X15021Y30580
X15021Y31580
X15021Y32580
X15021Y33580
X15021Y34580
X28604Y32580
X28604Y31580
X28604Y30580
X28604Y33580
X28604Y34580
T07
X33958Y46045
X39470Y43171
X33958Y36478
X33958Y32935
X29824Y24982
X12305Y43171
X6793Y46045
X6793Y36478
X6793Y32935
X2659Y24982
X28643Y24982
X25887Y20848
X20376Y23722
X16242Y24982
X15061Y24982
X12305Y20848
X6793Y23722
X6793Y14155
X6793Y10612
X2659Y2659
X15061Y2659
X16242Y2659
X20376Y10612
X20376Y14155
X28643Y2659
X29824Y2659
X42226Y24982
X39470Y20848
X33958Y23722
X33958Y14155
X33958Y10612
X42226Y2659
X20376Y32935
X20376Y36478
X25887Y43171
X20376Y46045
T08
X35887Y34706
X8722Y34706
X8722Y12383
X22305Y12383
X35887Y12383
X22305Y34706
M30
