%
M48
M72
T01C0.0118
T02C0.0236
T03C0.0315
T04C0.0320
T05C0.0394
T06C0.0400
T07C0.0866
T08C0.0984
T09C0.2441
%
T01
X27580Y45061
X27580Y44549
X28013Y44667
X28289Y44234
X28860Y44116
X27580Y43998
X27659Y43643
X27423Y42502
X26911Y41852
X26911Y41517
X26911Y41183
X25769Y42187
X25691Y41261
X24155Y42383
X24313Y42895
X24667Y43171
X23092Y42856
X23053Y42108
X23722Y41635
X23722Y41202
X22069Y40887
X22069Y40572
X21793Y40415
X21793Y40730
X21793Y41045
X21911Y41832
X21320Y41754
X20966Y41163
X20612Y40533
X20139Y40257
X20572Y39273
X20572Y38958
X21399Y39352
X22069Y39352
X22069Y38998
X22128Y38624
X21714Y38309
X21950Y37974
X22305Y37974
X21399Y37935
X21242Y36950
X22580Y36517
X23958Y36439
X23919Y35572
X24391Y35572
X24824Y35848
X25179Y36950
X25828Y37423
X26163Y37541
X26498Y37423
X27108Y37187
X26419Y36380
X27502Y35651
X28486Y36635
X28486Y39352
X28683Y41635
X26084Y38840
X23958Y39509
X22856Y39076
X19431Y37935
X19116Y37935
X18801Y37935
X18486Y37935
X18131Y38525
X17817Y38525
X17502Y38525
X18446Y37029
X18446Y36675
X18092Y36675
X18446Y36320
X18801Y36320
X19155Y36320
X18801Y36675
X17226Y34864
X17226Y33565
X17226Y32226
X17817Y30769
X18761Y31006
X19726Y30474
X19726Y29726
X19726Y29135
X19726Y28387
X20257Y28525
X20730Y28210
X21163Y28210
X21754Y28250
X22226Y27659
X21911Y27423
X21281Y26773
X20730Y27108
X20297Y27206
X20297Y26301
X20651Y26242
X20494Y25100
X21124Y25179
X21557Y25100
X21911Y25454
X21990Y25769
X22265Y25257
X22383Y24903
X22817Y26281
X23210Y26281
X23210Y26675
X22817Y26675
X22817Y27069
X23210Y27069
X23604Y27069
X23604Y26675
X23604Y26281
X24194Y25691
X24509Y24824
X26124Y25080
X26675Y26084
X27502Y26576
X13998Y45061
X13998Y44549
X14431Y44667
X14706Y44234
X15277Y44116
X13998Y43998
X14076Y43643
X13840Y42502
X13328Y41852
X13328Y41517
X13328Y41183
X12187Y42187
X12108Y41261
X10572Y42383
X10730Y42895
X11084Y43171
X9509Y42856
X9470Y42108
X10139Y41635
X10139Y41202
X8486Y40887
X8486Y40572
X8210Y40415
X8210Y40730
X8210Y41045
X8328Y41832
X7738Y41754
X7383Y41163
X7029Y40533
X6557Y40257
X6990Y39273
X6990Y38958
X7817Y39352
X8486Y39352
X8486Y38998
X8545Y38624
X8131Y38309
X8368Y37974
X8722Y37974
X7817Y37935
X7659Y36950
X8998Y36517
X10336Y35572
X10809Y35572
X11242Y35848
X10376Y36439
X11596Y36950
X12246Y37423
X12580Y37541
X12915Y37423
X13525Y37187
X12836Y36380
X13919Y35651
X14903Y36635
X14903Y39352
X15100Y41635
X12502Y38840
X10376Y39509
X9273Y39076
X5848Y37935
X5533Y37935
X5218Y37935
X4903Y37935
X4549Y38525
X4234Y38525
X3919Y38525
X4864Y37029
X4864Y36675
X5218Y36675
X5218Y36320
X4864Y36320
X4509Y36675
X5572Y36320
X6183Y34490
X6143Y33151
X6183Y31813
X5179Y31006
X4234Y30769
X4234Y29431
X5179Y29667
X6143Y29726
X6143Y29135
X6143Y28387
X6675Y28525
X7147Y28210
X7580Y28210
X8171Y28250
X8643Y27659
X8328Y27423
X7698Y26773
X7147Y27108
X6714Y27206
X6714Y26301
X7069Y26242
X6911Y25100
X7541Y25179
X7974Y25100
X8328Y25454
X8407Y25769
X8683Y25257
X8801Y24903
X9234Y26281
X9628Y26281
X10021Y26281
X10021Y26675
X9628Y26675
X9628Y27069
X10021Y27069
X10612Y27698
X11006Y27738
X11360Y27620
X10986Y27364
X11793Y27187
X12187Y28171
X13919Y26576
X13092Y26084
X12541Y25080
X10927Y24824
X10612Y25691
X9234Y26675
X9234Y27069
X10120Y27954
X10297Y28525
X9824Y28604
X9352Y28604
X8486Y29687
X7226Y29687
X6143Y30474
X3643Y32226
X3643Y33565
X3643Y34864
X9194Y32856
X9254Y32305
X9746Y31714
X11517Y33801
X12305Y33801
X12541Y34943
X13565Y33643
X14273Y33643
X14155Y31517
X14509Y29746
X14785Y29116
X17324Y28131
X17817Y29431
X18761Y29667
X20809Y29687
X22069Y29687
X22935Y28604
X23407Y28604
X23880Y28525
X23702Y27954
X24194Y27698
X24588Y27738
X24943Y27620
X24569Y27364
X25376Y27187
X25769Y28171
X23722Y29746
X25691Y30769
X25691Y31399
X27147Y33643
X27856Y33643
X25887Y33801
X25100Y33801
X26124Y34943
X23328Y31714
X22836Y32305
X22777Y32856
X19726Y33151
X19765Y31813
X19765Y34490
X18309Y26754
X18309Y25218
X17817Y24756
X27580Y22738
X27580Y22226
X28013Y22344
X28289Y21911
X28860Y21793
X27580Y21675
X27659Y21320
X27423Y20179
X26911Y19529
X26911Y19194
X26911Y18860
X25769Y19864
X25691Y18939
X24155Y20061
X24313Y20572
X24667Y20848
X23092Y20533
X23053Y19785
X23722Y19313
X23722Y18880
X23958Y17187
X22856Y16754
X22128Y16301
X22069Y16675
X22069Y17029
X21399Y17029
X20572Y16950
X20572Y16635
X21399Y15612
X21714Y15986
X21950Y15651
X22305Y15651
X21242Y14628
X22580Y14194
X23958Y14116
X23919Y13250
X24391Y13250
X24824Y13525
X25179Y14628
X25828Y15100
X26163Y15218
X26498Y15100
X27108Y14864
X26419Y14057
X27502Y13328
X28486Y14313
X28486Y17029
X28683Y19313
X26084Y16517
X26124Y12620
X25887Y11478
X25100Y11478
X23328Y9391
X22836Y9982
X22777Y10533
X19726Y10828
X19765Y12167
X19155Y13998
X18801Y13998
X18801Y14352
X18446Y14352
X18092Y14352
X18446Y14706
X18446Y13998
X17226Y12541
X17226Y11242
X17226Y9903
X17817Y8446
X18761Y8683
X19726Y8151
X19726Y7403
X19726Y6813
X19726Y6065
X20257Y6202
X20730Y5887
X21163Y5887
X21754Y5927
X22226Y5336
X21911Y5100
X21281Y4450
X20730Y4785
X20297Y4883
X20297Y3978
X20651Y3919
X20494Y2777
X21124Y2856
X21557Y2777
X21911Y3131
X21990Y3446
X22265Y2935
X22383Y2580
X22817Y3958
X23210Y3958
X23604Y3958
X23604Y4352
X23604Y4746
X23210Y4746
X22817Y4746
X22817Y4352
X23210Y4352
X24194Y3368
X24509Y2502
X26124Y2757
X26675Y3761
X27502Y4254
X31399Y2433
X31891Y2895
X31891Y4431
X30907Y5809
X31399Y7108
X32344Y7344
X33309Y7403
X33309Y8151
X32344Y8683
X31399Y8446
X30809Y9903
X30809Y11242
X30809Y12541
X32029Y13998
X32029Y14352
X31675Y14352
X32029Y14706
X32383Y14352
X32383Y13998
X32738Y13998
X32698Y15612
X32383Y15612
X32069Y15612
X31714Y16202
X31399Y16202
X31084Y16202
X33013Y15612
X34155Y16635
X34155Y16950
X34982Y17029
X35651Y17029
X35651Y16675
X35710Y16301
X35297Y15986
X35533Y15651
X35887Y15651
X34982Y15612
X34824Y14628
X36163Y14194
X37541Y14116
X37502Y13250
X37974Y13250
X38407Y13525
X38761Y14628
X39411Y15100
X39746Y15218
X40080Y15100
X40691Y14864
X40002Y14057
X41084Y13328
X42069Y14313
X42069Y17029
X40494Y18860
X40494Y19194
X40494Y19529
X41006Y20179
X41242Y21320
X41163Y21675
X41163Y22226
X41596Y22344
X41872Y21911
X42443Y21793
X41163Y22738
X40257Y26084
X41084Y26576
X39706Y25080
X38092Y24824
X37777Y25691
X37187Y26281
X37187Y26675
X37187Y27069
X36793Y27069
X36399Y27069
X36399Y26675
X36399Y26281
X36793Y26281
X36793Y26675
X35809Y27659
X35494Y27423
X35336Y28250
X34746Y28210
X34313Y28210
X33840Y28525
X33309Y28387
X33309Y29135
X33309Y29726
X33309Y30474
X32344Y31006
X31399Y30769
X31399Y29431
X32344Y29667
X30907Y28131
X31891Y26754
X31891Y25218
X31399Y24756
X28368Y29116
X28092Y29746
X27738Y31517
X30809Y32226
X30809Y33565
X30809Y34864
X32029Y36320
X32383Y36320
X32738Y36320
X32383Y36675
X32029Y36675
X32029Y37029
X31675Y36675
X32069Y37935
X32383Y37935
X32698Y37935
X33013Y37935
X34155Y38958
X34155Y39273
X34982Y39352
X35651Y39352
X35651Y38998
X35710Y38624
X35297Y38309
X35533Y37974
X35887Y37974
X34982Y37935
X34824Y36950
X36163Y36517
X37541Y36439
X37502Y35572
X37974Y35572
X38407Y35848
X38761Y36950
X39411Y37423
X39746Y37541
X40080Y37423
X40691Y37187
X40002Y36380
X41084Y35651
X42069Y36635
X42069Y39352
X40494Y41183
X40494Y41517
X40494Y41852
X41006Y42502
X41242Y43643
X41163Y43998
X41163Y44549
X41596Y44667
X41872Y44234
X42443Y44116
X41163Y45061
X38250Y43171
X37895Y42895
X37738Y42383
X37305Y41635
X37305Y41202
X36635Y42108
X36675Y42856
X36754Y44273
X36478Y44785
X36517Y45218
X36242Y45691
X34509Y43328
X35021Y43289
X35494Y41832
X34903Y41754
X34549Y41163
X34194Y40533
X33722Y40257
X35376Y40415
X35376Y40730
X35376Y41045
X35651Y40887
X35651Y40572
X36439Y39076
X37541Y39509
X39667Y38840
X39273Y41261
X39352Y42187
X42265Y41635
X39706Y34943
X39470Y33801
X38683Y33801
X36911Y31714
X36419Y32305
X36360Y32856
X33309Y33151
X33348Y31813
X34391Y29687
X35651Y29687
X36517Y28604
X36990Y28604
X37462Y28525
X37285Y27954
X37777Y27698
X38171Y27738
X38525Y27620
X38151Y27364
X38958Y27187
X39352Y28171
X37305Y29746
X39273Y30769
X39273Y31399
X41320Y31517
X41675Y29746
X41950Y29116
X41439Y33643
X40730Y33643
X34864Y26773
X34313Y27108
X33880Y27206
X33880Y26301
X34234Y26242
X34076Y25100
X34706Y25179
X35139Y25100
X35494Y25454
X35572Y25769
X35848Y25257
X35966Y24903
X36242Y23368
X36517Y22895
X36478Y22462
X36754Y21950
X36675Y20533
X36635Y19785
X37305Y19313
X37305Y18880
X37738Y20061
X37895Y20572
X38250Y20848
X39352Y19864
X39273Y18939
X37541Y17187
X36439Y16754
X35651Y18250
X35651Y18565
X35376Y18722
X35376Y18407
X35376Y18092
X34549Y18840
X34903Y19431
X35494Y19509
X35021Y20966
X34509Y21006
X34194Y18210
X33722Y17935
X33348Y12167
X33309Y10828
X33348Y9490
X34391Y7364
X33309Y6813
X33309Y6065
X33840Y6202
X34313Y5887
X34746Y5887
X35336Y5927
X35809Y5336
X35494Y5100
X34864Y4450
X34313Y4785
X33880Y4883
X33880Y3978
X34234Y3919
X34076Y2777
X34706Y2856
X35139Y2777
X35494Y3131
X35572Y3446
X35848Y2935
X35966Y2580
X36399Y3958
X36793Y3958
X37187Y3958
X37187Y4352
X37187Y4746
X36793Y4746
X36399Y4746
X36399Y4352
X36793Y4352
X37777Y3368
X38092Y2502
X39706Y2757
X40257Y3761
X41084Y4254
X38958Y4864
X38525Y5297
X38171Y5415
X38151Y5041
X37777Y5376
X37285Y5631
X37462Y6202
X36990Y6281
X36517Y6281
X35651Y7364
X37305Y7423
X36911Y9391
X36419Y9982
X36360Y10533
X38683Y11478
X39470Y11478
X39706Y12620
X40730Y11320
X41439Y11320
X41320Y9194
X41675Y7423
X41950Y6793
X39352Y5848
X39273Y8446
X39273Y9076
X42265Y19313
X39667Y16517
X28092Y7423
X28368Y6793
X27738Y9194
X25691Y9076
X25691Y8446
X23722Y7423
X23407Y6281
X22935Y6281
X23880Y6202
X23702Y5631
X24194Y5376
X24588Y5415
X24943Y5297
X24569Y5041
X25376Y4864
X25769Y5848
X22069Y7364
X20809Y7364
X19765Y9490
X18761Y7344
X17817Y7108
X17324Y5809
X18309Y4431
X18309Y2895
X17817Y2433
X13998Y22738
X13998Y22226
X14431Y22344
X14706Y21911
X15277Y21793
X13998Y21675
X14076Y21320
X13840Y20179
X13328Y19529
X13328Y19194
X13328Y18860
X12187Y19864
X12108Y18939
X10572Y20061
X10730Y20572
X11084Y20848
X9509Y20533
X9470Y19785
X10139Y19313
X10139Y18880
X10376Y17187
X9273Y16754
X8486Y16675
X8486Y17029
X7817Y17029
X8545Y16301
X8131Y15986
X8368Y15651
X8722Y15651
X7817Y15612
X6990Y16635
X6990Y16950
X6557Y17935
X7029Y18210
X7383Y18840
X7738Y19431
X8328Y19509
X8210Y18722
X8210Y18407
X8210Y18092
X8486Y18250
X8486Y18565
X7856Y20966
X7344Y21006
X9313Y22462
X9352Y22895
X9076Y23368
X9588Y21950
X4726Y25218
X4234Y24756
X4234Y2433
X4726Y2895
X4726Y4431
X3742Y5809
X4234Y7108
X5179Y7344
X6143Y7403
X6143Y8151
X5179Y8683
X4234Y8446
X3643Y9903
X3643Y11242
X3643Y12541
X4864Y13998
X4864Y14352
X5218Y14352
X5218Y13998
X5572Y13998
X4864Y14706
X4509Y14352
X4903Y15612
X5218Y15612
X5533Y15612
X5848Y15612
X4549Y16202
X4234Y16202
X3919Y16202
X7659Y14628
X8998Y14194
X10336Y13250
X10809Y13250
X11242Y13525
X10376Y14116
X11596Y14628
X12246Y15100
X12580Y15218
X12915Y15100
X13525Y14864
X12836Y14057
X13919Y13328
X14903Y14313
X14903Y17029
X15100Y19313
X12502Y16517
X12541Y12620
X12305Y11478
X11517Y11478
X9746Y9391
X9254Y9982
X9194Y10533
X6143Y10828
X6183Y12167
X6183Y9490
X7226Y7364
X8486Y7364
X9352Y6281
X9824Y6281
X10297Y6202
X10120Y5631
X10612Y5376
X11006Y5415
X11360Y5297
X10986Y5041
X11793Y4864
X12187Y5848
X13919Y4254
X13092Y3761
X12541Y2757
X10927Y2502
X10612Y3368
X10021Y3958
X9628Y3958
X9628Y4352
X10021Y4352
X10021Y4746
X9628Y4746
X9234Y4746
X9234Y4352
X9234Y3958
X8407Y3446
X8328Y3131
X8683Y2935
X8801Y2580
X7974Y2777
X7541Y2856
X6911Y2777
X7069Y3919
X6714Y3978
X7147Y4785
X6714Y4883
X7147Y5887
X7580Y5887
X8171Y5927
X8643Y5336
X8328Y5100
X7698Y4450
X6675Y6202
X6143Y6065
X6143Y6813
X10139Y7423
X12108Y8446
X12108Y9076
X14155Y9194
X14509Y7423
X14785Y6793
X14273Y11320
X13565Y11320
X17502Y16202
X17817Y16202
X18131Y16202
X18486Y15612
X18801Y15612
X19116Y15612
X19431Y15612
X20139Y17935
X20612Y18210
X20966Y18840
X21320Y19431
X21911Y19509
X21793Y18722
X21793Y18407
X21793Y18092
X22069Y18250
X22069Y18565
X21439Y20966
X20927Y21006
X22895Y22462
X22935Y22895
X22659Y23368
X23171Y21950
X10139Y29746
X12108Y30769
X12108Y31399
X4726Y26754
X3742Y28131
X7344Y43328
X7856Y43289
X9313Y44785
X9352Y45218
X9076Y45691
X9588Y44273
X20927Y43328
X21439Y43289
X22895Y44785
X22935Y45218
X22659Y45691
X23171Y44273
X31084Y38525
X31399Y38525
X31714Y38525
X33348Y34490
X27856Y11320
X27147Y11320
T02
X22443Y42163
X22443Y41163
X22443Y40163
X18643Y39746
X16675Y39746
X18643Y17423
X16675Y17423
X22443Y17840
X22443Y18840
X22443Y19840
X8860Y19840
X8860Y18840
X8860Y17840
X5061Y17423
X3092Y17423
X5061Y39746
X3092Y39746
X8860Y42163
X8860Y41163
X8860Y40163
X30257Y39746
X32226Y39746
X36025Y40163
X36025Y41163
X36025Y42163
X30257Y17423
X32226Y17423
X36025Y17840
X36025Y18840
X36025Y19840
T03
X26990Y46084
X22029Y46084
X12514Y5152
X13906Y6544
X16439Y5482
X16439Y4482
X26097Y5152
X27489Y6544
X30021Y5482
X30021Y4482
X40572Y23761
X39680Y27475
X41072Y28867
X35612Y23761
X26990Y23761
X30021Y26805
X30021Y27805
X27489Y28867
X26097Y27475
X22029Y23761
X13407Y23761
X16439Y26805
X16439Y27805
X13906Y28867
X12514Y27475
X8446Y23761
X2856Y26805
X2856Y27805
X2856Y4482
X2856Y5482
X8446Y46084
X13407Y46084
X35612Y46084
X40572Y46084
X39680Y5152
X41072Y6544
T04
X34071Y29037
X35971Y29037
X20489Y29037
X22389Y29037
X20489Y6714
X22389Y6714
X34071Y6714
X35971Y6714
X8806Y29037
X6906Y29037
X6906Y6714
X8806Y6714
T05
X30061Y28761
X30061Y30100
X30061Y31439
X30061Y32777
X30061Y34116
X30061Y35257
X30061Y36320
X2895Y6439
X2895Y7777
X2895Y9116
X2895Y10454
X2895Y11793
X2895Y12935
X2895Y13998
X30061Y6439
X30061Y7777
X30061Y9116
X30061Y10454
X30061Y11793
X30061Y12935
X30061Y13998
X16478Y10454
X16478Y9116
X16478Y7777
X16478Y6439
X16478Y11793
X16478Y12935
X16478Y13998
X16478Y28761
X16478Y30100
X16478Y31439
X16478Y32777
X16478Y34116
X16478Y35257
X16478Y36320
X2895Y36320
X2895Y35257
X2895Y34116
X2895Y32777
X2895Y31439
X2895Y30100
X2895Y28761
T06
X42187Y34580
X42187Y33580
X42187Y32580
X42187Y31580
X42187Y30580
X28604Y8257
X28604Y9257
X28604Y10257
X28604Y11257
X28604Y12257
X42187Y8257
X42187Y9257
X42187Y10257
X42187Y11257
X42187Y12257
X28604Y30580
X28604Y31580
X28604Y32580
X28604Y33580
X28604Y34580
X15021Y32580
X15021Y31580
X15021Y30580
X15021Y33580
X15021Y34580
X15021Y8257
X15021Y9257
X15021Y10257
X15021Y11257
X15021Y12257
T07
X6793Y10612
X6793Y14155
X33958Y10612
X33958Y14155
X20376Y10612
X20376Y14155
X20376Y32935
X20376Y36478
X33958Y36478
X33958Y32935
X6793Y36478
X6793Y32935
T08
X28348Y45828
X34254Y45828
X41931Y45828
X30120Y25277
X14765Y45828
X20671Y45828
X16537Y25277
X28348Y23506
X28348Y25277
X34254Y23506
X41931Y23506
X41931Y25277
X30120Y2954
X28348Y2954
X41931Y2954
X16537Y2954
X14765Y23506
X14765Y25277
X20671Y23506
X7088Y23506
X2954Y25277
X2954Y2954
X14765Y2954
X7088Y45828
T09
X8722Y12383
X35887Y12383
X22305Y12383
X22305Y34706
X35887Y34706
X8722Y34706
M30
